<svg id="sprotty_1" class="sprotty-graph sprotty" tabindex="1002" xmlns="http://www.w3.org/2000/svg" viewBox="0 0 1484 1223"><style>.elknode {
    stroke: #448;
    stroke-width: 4;
    fill: #ddf;
}

.elkport {
    stroke: #448;
    stroke-width: 1;
    fill: #66c;
}

.elkedge {
    fill: none;
    stroke: #224;
    stroke-width: 2;
    pointer-events: stroke;
}

.elkedge:hover {
    stroke: #88f;
    stroke-width: 8;
    stroke-dasharray: 16px;
    stroke-dashoffset: 32px;
    animation: stroke 0.5s linear infinite;
}

@keyframes stroke {
    to {
        stroke-dashoffset: 0;
    }
}

.elkedge.arrow {
    fill: #336;
}

.elklabel {
    stroke-width: 0;
    stroke: #000;
    fill: #000;
    font-family: sans-serif;
    font-size: 10pt;
    dominant-baseline: hanging;
}

.elklabel:hover {
    font-size: 24pt;
}

.elkjunction {
    stroke: none;
    fill: #224;
}

.selected &gt; rect {
    stroke-width: 3;
}

.mouseover {
    stroke: #88f;
}
/*
 * Copyright (C) 2017 TypeFox and others.
 *
 * Licensed under the Apache License, Version 2.0 (the &quot;License&quot;); you may not use this file except in compliance with the License.
 * You may obtain a copy of the License at http://www.apache.org/licenses/LICENSE-2.0
 */

.sprotty {
    padding: 0px;
    font-family: &quot;Helvetica Neue&quot;, Helvetica, Arial, sans-serif;
}

.sprotty-hidden {
    display: block;
    position: absolute;
    width: 0px;
    height: 0px;
}

.sprotty-popup {
    font-family: &quot;Helvetica Neue&quot;, Helvetica, Arial, sans-serif;
    position: absolute;
    background: white;
    border-radius: 5px;
    border: 1px solid;
    max-width: 400px;
    min-width: 100px;
}

.sprotty-popup &gt; div {
    margin: 10px;
}

.sprotty-popup-closed {
    display: none;
}
</style><g transform="scale(1) translate(0,0)"><g id="sprotty_3" transform="translate(117, 71)" opacity="1"><rect class="elknode" x="0" y="0" rx="10" width="1250" height="1102" /><g id="sprotty_5" transform="translate(800, 324.5)" opacity="1"><rect class="elknode" x="0" y="0" rx="10" width="200" height="60" /><text id="sprotty_6" class="elklabel" transform="translate(5, 22) translate(0, 0)" opacity="1">k8s_apps_v1_deployment.this</text></g><g id="sprotty_7" transform="translate(800, 840.7857142857143)" opacity="1"><rect class="elknode" x="0" y="0" rx="10" width="200" height="60" /><text id="sprotty_8" class="elklabel" transform="translate(5, 22) translate(0, 0)" opacity="1">k8s_core_v1_service.this</text></g><g id="sprotty_9" transform="translate(300, 585.5)" opacity="1"><rect class="elknode" x="0" y="0" rx="10" width="200" height="60" /><text id="sprotty_10" class="elklabel" transform="translate(5, 22) translate(0, 0)" opacity="1">k8s_core_v1_service_account.this</text></g><g id="sprotty_11" transform="translate(800, 595.5)" opacity="1"><rect class="elknode" x="0" y="0" rx="10" width="200" height="60" /><text id="sprotty_12" class="elklabel" transform="translate(5, 22) translate(0, 0)" opacity="1">k8s_rbac_authorization_k8s_io_v1_cluster_role_binding.this</text></g><g id="sprotty_14" transform="translate(300, 745.5)" opacity="1"><rect class="elknode" x="0" y="0" rx="10" width="200" height="60" /><text id="sprotty_15" class="elklabel" transform="translate(5, 22) translate(0, 0)" opacity="1">local.labels</text></g><g id="sprotty_17" transform="translate(-16, 230)" opacity="1"><rect class="elkport" x="0" y="0" width="16" height="9" /><text id="sprotty_18" class="elklabel" transform="translate(-1, 10) translate(0, 0)" opacity="1">dns_policy</text></g><g id="sprotty_20" transform="translate(-16, 290)" opacity="1"><rect class="elkport" x="0" y="0" width="16" height="9" /><text id="sprotty_21" class="elklabel" transform="translate(-1, 10) translate(0, 0)" opacity="1">image</text></g><g id="sprotty_23" transform="translate(-16, 410)" opacity="1"><rect class="elkport" x="0" y="0" width="16" height="9" /><text id="sprotty_24" class="elklabel" transform="translate(-1, 10) translate(0, 0)" opacity="1">node_selector</text></g><g id="sprotty_26" transform="translate(-16, 530)" opacity="1"><rect class="elkport" x="0" y="0" width="16" height="9" /><text id="sprotty_27" class="elklabel" transform="translate(-1, 10) translate(0, 0)" opacity="1">port</text></g><g id="sprotty_29" transform="translate(-16, 170)" opacity="1"><rect class="elkport" x="0" y="0" width="16" height="9" /><text id="sprotty_30" class="elklabel" transform="translate(-1, 10) translate(0, 0)" opacity="1">priority_class_name</text></g><g id="sprotty_32" transform="translate(-16, 350)" opacity="1"><rect class="elkport" x="0" y="0" width="16" height="9" /><text id="sprotty_33" class="elklabel" transform="translate(-1, 10) translate(0, 0)" opacity="1">replicas</text></g><g id="sprotty_35" transform="translate(-16, 110)" opacity="1"><rect class="elkport" x="0" y="0" width="16" height="9" /><text id="sprotty_36" class="elklabel" transform="translate(-1, 10) translate(0, 0)" opacity="1">restart_policy</text></g><g id="sprotty_38" transform="translate(-16, 50)" opacity="1"><rect class="elkport" x="0" y="0" width="16" height="9" /><text id="sprotty_39" class="elklabel" transform="translate(-1, 10) translate(0, 0)" opacity="1">scheduler_name</text></g><g id="sprotty_41" transform="translate(-16, 470)" opacity="1"><rect class="elkport" x="0" y="0" width="16" height="9" /><text id="sprotty_42" class="elklabel" transform="translate(-1, 10) translate(0, 0)" opacity="1">termination_grace_period_seconds</text></g><g id="sprotty_45" transform="translate(-16, 1042)" opacity="1"><rect class="elkport" x="0" y="0" width="16" height="9" /><text id="sprotty_46" class="elklabel" transform="translate(-1, 10) translate(0, 0)" opacity="1">annotations</text></g><g id="sprotty_48" transform="translate(-16, 862)" opacity="1"><rect class="elkport" x="0" y="0" width="16" height="9" /><text id="sprotty_49" class="elklabel" transform="translate(-1, 10) translate(0, 0)" opacity="1">namespace</text></g><g id="sprotty_52" transform="translate(-16, 982)" opacity="1"><rect class="elkport" x="0" y="0" width="16" height="9" /><text id="sprotty_53" class="elklabel" transform="translate(-1, 10) translate(0, 0)" opacity="1">service_type</text></g><g id="sprotty_55" transform="translate(-16, 922)" opacity="1"><rect class="elkport" x="0" y="0" width="16" height="9" /><text id="sprotty_56" class="elklabel" transform="translate(-1, 10) translate(0, 0)" opacity="1">session_affinity</text></g><g id="sprotty_58" transform="translate(-16, 601)" opacity="1"><rect class="elkport" x="0" y="0" width="16" height="9" /><text id="sprotty_59" class="elklabel" transform="translate(-1, 10) translate(0, 0)" opacity="1">name</text></g><g id="sprotty_64" transform="translate(1250, 851.2857142857143)" opacity="1"><rect class="elkport" x="0" y="0" width="16" height="9" /><text id="sprotty_65" class="elklabel" transform="translate(17, 10) translate(0, 0)" opacity="1">cluster_ip</text></g><g id="sprotty_67" transform="translate(1250, 350)" opacity="1"><rect class="elkport" x="0" y="0" width="16" height="9" /><text id="sprotty_68" class="elklabel" transform="translate(17, 10) translate(0, 0)" opacity="1">deployment_uid</text></g><g id="sprotty_70" transform="translate(1250, 911.2857142857143)" opacity="1"><rect class="elkport" x="0" y="0" width="16" height="9" /><text id="sprotty_71" class="elklabel" transform="translate(17, 10) translate(0, 0)" opacity="1">name</text></g><g id="sprotty_73" transform="translate(1250, 971.2857142857143)" opacity="1"><rect class="elkport" x="0" y="0" width="16" height="9" /><text id="sprotty_74" class="elklabel" transform="translate(17, 10) translate(0, 0)" opacity="1">port</text></g><text id="sprotty_4" class="elklabel" transform="translate(0, -21) translate(0, 0)" opacity="1">modules/kubernetes/dashboard</text><g id="sprotty_13" class="sprotty-edge" opacity="1"><path class="elkedge" d="M 500,605.5 L 700,605.5 L 700,374.5 L 800,374.5" /><path class="edge arrow" d="M 0,0 L 8,-3 L 8,3 Z" transform="rotate(180 800 374.5) translate(800 374.5)" /></g><g id="sprotty_16" class="sprotty-edge" opacity="1"><path class="elkedge" d="M 500,765.5 L 750,765.5 L 750,379.5 L 800,379.5" /><path class="edge arrow" d="M 0,0 L 8,-3 L 8,3 Z" transform="rotate(180 800 379.5) translate(800 379.5)" /></g><g id="sprotty_19" class="sprotty-edge" opacity="1"><path class="elkedge" d="M 0,234.5 L 600,234.5 L 600,344.5 L 800,344.5" /><path class="edge arrow" d="M 0,0 L 8,-3 L 8,3 Z" transform="rotate(180 800 344.5) translate(800 344.5)" /></g><g id="sprotty_22" class="sprotty-edge" opacity="1"><path class="elkedge" d="M 0,294.5 L 550,294.5 L 550,349.5 L 800,349.5" /><path class="edge arrow" d="M 0,0 L 8,-3 L 8,3 Z" transform="rotate(180 800 349.5) translate(800 349.5)" /></g><g id="sprotty_25" class="sprotty-edge" opacity="1"><path class="elkedge" d="M 0,414.5 L 550,414.5 L 550,359.5 L 800,359.5" /><path class="edge arrow" d="M 0,0 L 8,-3 L 8,3 Z" transform="rotate(180 800 359.5) translate(800 359.5)" /></g><g id="sprotty_28" class="sprotty-edge" opacity="1"><path class="elkedge" d="M 0,534.5 L 650,534.5 L 650,369.5 L 800,369.5" /><path class="edge arrow" d="M 0,0 L 8,-3 L 8,3 Z" transform="rotate(180 800 369.5) translate(800 369.5)" /></g><g id="sprotty_31" class="sprotty-edge" opacity="1"><path class="elkedge" d="M 0,174.5 L 650,174.5 L 650,339.5 L 800,339.5" /><path class="edge arrow" d="M 0,0 L 8,-3 L 8,3 Z" transform="rotate(180 800 339.5) translate(800 339.5)" /></g><g id="sprotty_34" class="sprotty-edge" opacity="1"><path class="elkedge" d="M 0,354.5 L 800,354.5" /><path class="edge arrow" d="M 0,0 L 8,-3 L 8,3 Z" transform="rotate(180 800 354.5) translate(800 354.5)" /></g><g id="sprotty_37" class="sprotty-edge" opacity="1"><path class="elkedge" d="M 0,114.5 L 700,114.5 L 700,334.5 L 800,334.5" /><path class="edge arrow" d="M 0,0 L 8,-3 L 8,3 Z" transform="rotate(180 800 334.5) translate(800 334.5)" /></g><g id="sprotty_40" class="sprotty-edge" opacity="1"><path class="elkedge" d="M 0,54.5 L 750,54.5 L 750,329.5 L 800,329.5" /><path class="edge arrow" d="M 0,0 L 8,-3 L 8,3 Z" transform="rotate(180 800 329.5) translate(800 329.5)" /></g><g id="sprotty_43" class="sprotty-edge" opacity="1"><path class="elkedge" d="M 0,474.5 L 600,474.5 L 600,364.5 L 800,364.5" /><path class="edge arrow" d="M 0,0 L 8,-3 L 8,3 Z" transform="rotate(180 800 364.5) translate(800 364.5)" /></g><g id="sprotty_44" class="sprotty-edge" opacity="1"><path class="elkedge" d="M 500,785.5 L 600,785.5 L 600,849.3571428571429 L 800,849.3571428571429" /><path class="edge arrow" d="M 0,0 L 8,-3 L 8,3 Z" transform="rotate(180 800 849.3571428571429) translate(800 849.3571428571429)" /></g><g id="sprotty_47" class="sprotty-edge" opacity="1"><path class="elkedge" d="M 0,1046.5 L 650,1046.5 L 650,892.2142857142858 L 800,892.2142857142858" /><path class="edge arrow" d="M 0,0 L 8,-3 L 8,3 Z" transform="rotate(180 800 892.2142857142858) translate(800 892.2142857142858)" /></g><g id="sprotty_50" class="sprotty-edge" opacity="1"><path class="elkedge" d="M 0,866.5 L 800,866.5" /><path class="edge arrow" d="M 0,0 L 8,-3 L 8,3 Z" transform="rotate(180 800 866.5) translate(800 866.5)" /></g><g id="sprotty_51" class="sprotty-edge" opacity="1"><path class="elkedge" d="M 0,534.5 L 150,534.5 L 150,855.5 L 550,855.5 L 550,857.9285714285714 L 800,857.9285714285714" /><path class="edge arrow" d="M 0,0 L 8,-3 L 8,3 Z" transform="rotate(180 800 857.9285714285714) translate(800 857.9285714285714)" /><g id="sprotty_51_j0" transform="translate(150, 534.5)" opacity="1"><circle class="elkjunction" r="2" /></g></g><g id="sprotty_54" class="sprotty-edge" opacity="1"><path class="elkedge" d="M 0,986.5 L 600,986.5 L 600,883.6428571428572 L 800,883.6428571428572" /><path class="edge arrow" d="M 0,0 L 8,-3 L 8,3 Z" transform="rotate(180 800 883.6428571428572) translate(800 883.6428571428572)" /></g><g id="sprotty_57" class="sprotty-edge" opacity="1"><path class="elkedge" d="M 0,926.5 L 550,926.5 L 550,875.0714285714287 L 800,875.0714285714287" /><path class="edge arrow" d="M 0,0 L 8,-3 L 8,3 Z" transform="rotate(180 800 875.0714285714287) translate(800 875.0714285714287)" /></g><g id="sprotty_60" class="sprotty-edge" opacity="1"><path class="elkedge" d="M 0,605.5 L 300,605.5" /><path class="edge arrow" d="M 0,0 L 8,-3 L 8,3 Z" transform="rotate(180 300 605.5) translate(300 605.5)" /></g><g id="sprotty_61" class="sprotty-edge" opacity="1"><path class="elkedge" d="M 0,866.5 L 200,866.5 L 200,625.5 L 300,625.5" /><path class="edge arrow" d="M 0,0 L 8,-3 L 8,3 Z" transform="rotate(180 300 625.5) translate(300 625.5)" /><g id="sprotty_61_j0" transform="translate(200, 866.5)" opacity="1"><circle class="elkjunction" r="2" /></g></g><g id="sprotty_62" class="sprotty-edge" opacity="1"><path class="elkedge" d="M 500,625.5 L 800,625.5" /><path class="edge arrow" d="M 0,0 L 8,-3 L 8,3 Z" transform="rotate(180 800 625.5) translate(800 625.5)" /></g><g id="sprotty_63" class="sprotty-edge" opacity="1"><path class="elkedge" d="M 0,605.5 L 250,605.5 L 250,775.5 L 300,775.5" /><path class="edge arrow" d="M 0,0 L 8,-3 L 8,3 Z" transform="rotate(180 300 775.5) translate(300 775.5)" /><g id="sprotty_63_j0" transform="translate(250, 605.5)" opacity="1"><circle class="elkjunction" r="2" /></g></g><g id="sprotty_66" class="sprotty-edge" opacity="1"><path class="elkedge" d="M 1000,855.7857142857143 L 1250,855.7857142857143" /><path class="edge arrow" d="M 0,0 L 8,-3 L 8,3 Z" transform="rotate(180 1250 855.7857142857143) translate(1250 855.7857142857143)" /></g><g id="sprotty_69" class="sprotty-edge" opacity="1"><path class="elkedge" d="M 1000,354.5 L 1250,354.5" /><path class="edge arrow" d="M 0,0 L 8,-3 L 8,3 Z" transform="rotate(180 1250 354.5) translate(1250 354.5)" /></g><g id="sprotty_72" class="sprotty-edge" opacity="1"><path class="elkedge" d="M 1000,870.7857142857143 L 1100,870.7857142857143 L 1100,915.7857142857143 L 1250,915.7857142857143" /><path class="edge arrow" d="M 0,0 L 8,-3 L 8,3 Z" transform="rotate(180 1250 915.7857142857143) translate(1250 915.7857142857143)" /></g><g id="sprotty_75" class="sprotty-edge" opacity="1"><path class="elkedge" d="M 1000,885.7857142857143 L 1050,885.7857142857143 L 1050,975.7857142857143 L 1250,975.7857142857143" /><path class="edge arrow" d="M 0,0 L 8,-3 L 8,3 Z" transform="rotate(180 1250 975.7857142857143) translate(1250 975.7857142857143)" /></g></g></g></svg>
