<svg id="sprotty_1" class="sprotty-graph sprotty" tabindex="1002" xmlns="http://www.w3.org/2000/svg" viewBox="0 0 1365 1620.5"><style>.elknode {
    stroke: #448;
    stroke-width: 2;
    fill: #ddf;
}

.elkport {
    stroke: #448;
    stroke-width: 1;
    fill: #66c;
}

.elkedge {
    fill: none;
    stroke: #224;
    stroke-width: 1;
}

.elkedge.arrow {
    fill: #336;
}

.elklabel {
    stroke-width: 0;
    stroke: #000;
    fill: #000;
    font-family: sans-serif;
    font-size: 10pt;
    dominant-baseline: hanging;
}

.elkjunction {
    stroke: none;
    fill: #224;
}

.selected &gt; rect {
    stroke-width: 3;
}

.mouseover {
    stroke: #88f;
}
/*
 * Copyright (C) 2017 TypeFox and others.
 *
 * Licensed under the Apache License, Version 2.0 (the &quot;License&quot;); you may not use this file except in compliance with the License.
 * You may obtain a copy of the License at http://www.apache.org/licenses/LICENSE-2.0
 */

.sprotty {
    padding: 0px;
    font-family: &quot;Helvetica Neue&quot;, Helvetica, Arial, sans-serif;
}

.sprotty-hidden {
    display: block;
    position: absolute;
    width: 0px;
    height: 0px;
}

.sprotty-popup {
    font-family: &quot;Helvetica Neue&quot;, Helvetica, Arial, sans-serif;
    position: absolute;
    background: white;
    border-radius: 5px;
    border: 1px solid;
    max-width: 400px;
    min-width: 100px;
}

.sprotty-popup &gt; div {
    margin: 10px;
}

.sprotty-popup-closed {
    display: none;
}
</style><g transform="scale(1) translate(0,0)"><g id="sprotty_3" transform="translate(117, 71)" opacity="1"><rect class="elknode" x="0" y="0" width="1131" height="1499.5" /><g id="sprotty_5" transform="translate(147, 483)" opacity="1"><rect class="elknode" x="0" y="0" width="400" height="410" /><g id="sprotty_7" transform="translate(100, 50)" opacity="1"><rect class="elknode" x="0" y="0" width="200" height="60" /><text id="sprotty_8" class="elklabel" transform="translate(5, 22) translate(0, 0)" opacity="1">k8s_apps_v1_deployment.connect</text></g><g id="sprotty_9" transform="translate(100, 160)" opacity="1"><rect class="elknode" x="0" y="0" width="200" height="60" /><text id="sprotty_10" class="elklabel" transform="translate(5, 22) translate(0, 0)" opacity="1">k8s_core_v1_service.connect</text></g><g id="sprotty_35" transform="translate(100, 270)" opacity="1"><rect class="elknode" x="0" y="0" width="200" height="60" /><text id="sprotty_36" class="elklabel" transform="translate(5, 22) translate(0, 0)" opacity="1">local.labels</text></g><g id="sprotty_38" transform="translate(-16, 50)" opacity="1"><rect class="elkport" x="0" y="0" width="16" height="9" /><text id="sprotty_39" class="elklabel" transform="translate(-1, 10) translate(0, 0)" opacity="1">bootstrap_servers</text></g><g id="sprotty_41" transform="translate(-16, 110)" opacity="1"><rect class="elkport" x="0" y="0" width="16" height="9" /><text id="sprotty_42" class="elklabel" transform="translate(-1, 10) translate(0, 0)" opacity="1">image</text></g><g id="sprotty_44" transform="translate(-16, 170)" opacity="1"><rect class="elkport" x="0" y="0" width="16" height="9" /><text id="sprotty_45" class="elklabel" transform="translate(-1, 10) translate(0, 0)" opacity="1">namespace</text></g><g id="sprotty_47" transform="translate(-16, 230)" opacity="1"><rect class="elkport" x="0" y="0" width="16" height="9" /><text id="sprotty_48" class="elklabel" transform="translate(-1, 10) translate(0, 0)" opacity="1">node_selector</text></g><g id="sprotty_50" transform="translate(-16, 290)" opacity="1"><rect class="elkport" x="0" y="0" width="16" height="9" /><text id="sprotty_51" class="elklabel" transform="translate(-1, 10) translate(0, 0)" opacity="1">replicas</text></g><g id="sprotty_55" transform="translate(-16, 350)" opacity="1"><rect class="elkport" x="0" y="0" width="16" height="9" /><text id="sprotty_56" class="elklabel" transform="translate(-1, 10) translate(0, 0)" opacity="1">name</text></g><g id="sprotty_58" transform="translate(400, 50)" opacity="1"><rect class="elkport" x="0" y="0" width="16" height="9" /><text id="sprotty_59" class="elklabel" transform="translate(17, 10) translate(0, 0)" opacity="1">name</text></g><text id="sprotty_6" class="elklabel" transform="translate(0, -21) translate(0, 0)" opacity="1">kafka-connect-sink</text></g><g id="sprotty_11" transform="translate(100, 1169.5)" opacity="1"><rect class="elknode" x="0" y="0" width="200" height="60" /><text id="sprotty_12" class="elklabel" transform="translate(0, -21) translate(0, 0)" opacity="1">kafka-connect-source</text></g><g id="sprotty_13" transform="translate(611, 828.5)" opacity="1"><rect class="elknode" x="0" y="0" width="400" height="270" /><g id="sprotty_15" transform="translate(100, 50)" opacity="1"><rect class="elknode" x="0" y="0" width="200" height="60" /><text id="sprotty_16" class="elklabel" transform="translate(5, 22) translate(0, 0)" opacity="1">k8s_apps_v1_deployment.this</text></g><g id="sprotty_17" transform="translate(100, 160)" opacity="1"><rect class="elknode" x="0" y="0" width="200" height="60" /><text id="sprotty_18" class="elklabel" transform="translate(5, 22) translate(0, 0)" opacity="1">k8s_core_v1_service.this</text></g><g id="sprotty_82" transform="translate(-16, 50)" opacity="1"><rect class="elkport" x="0" y="0" width="16" height="9" /><text id="sprotty_83" class="elklabel" transform="translate(-1, -1) translate(0, 0)" opacity="1">kafka_connect</text></g><g id="sprotty_89" transform="translate(-16, 110)" opacity="1"><rect class="elkport" x="0" y="0" width="16" height="9" /><text id="sprotty_90" class="elklabel" transform="translate(-1, 10) translate(0, 0)" opacity="1">annotations</text></g><text id="sprotty_14" class="elklabel" transform="translate(0, -21) translate(0, 0)" opacity="1">kafka-connect-ui</text></g><g id="sprotty_19" transform="translate(611, 507.5)" opacity="1"><rect class="elknode" x="0" y="0" width="200" height="60" /><g id="sprotty_104" transform="translate(-16, 25.5)" opacity="1"><rect class="elkport" x="0" y="0" width="16" height="9" /><text id="sprotty_105" class="elklabel" transform="translate(-1, 10) translate(0, 0)" opacity="1">zookeeper</text></g><text id="sprotty_20" class="elklabel" transform="translate(0, -21) translate(0, 0)" opacity="1">kafka-rest-proxy</text></g><g id="sprotty_21" transform="translate(611, 608.5)" opacity="1"><rect class="elknode" x="0" y="0" width="200" height="60" /><g id="sprotty_115" transform="translate(-16, 25.5)" opacity="1"><rect class="elkport" x="0" y="0" width="16" height="9" /><text id="sprotty_116" class="elklabel" transform="translate(-1, 10) translate(0, 0)" opacity="1">kafka_rest_proxy</text></g><text id="sprotty_22" class="elklabel" transform="translate(0, -21) translate(0, 0)" opacity="1">kafka-topic-ui</text></g><g id="sprotty_23" transform="translate(611, 166.5)" opacity="1"><rect class="elknode" x="0" y="0" width="400" height="290" /><g id="sprotty_25" transform="translate(100, 50)" opacity="1"><rect class="elknode" x="0" y="0" width="200" height="60" /><text id="sprotty_26" class="elklabel" transform="translate(5, 22) translate(0, 0)" opacity="1">k8s_apps_v1_stateful_set.this</text></g><g id="sprotty_27" transform="translate(100, 160)" opacity="1"><rect class="elknode" x="0" y="0" width="200" height="60" /><text id="sprotty_28" class="elklabel" transform="translate(5, 22) translate(0, 0)" opacity="1">k8s_policy_v1beta1_pod_disruption_budget.this</text></g><g id="sprotty_131" transform="translate(-16, 50)" opacity="1"><rect class="elkport" x="0" y="0" width="16" height="9" /><text id="sprotty_132" class="elklabel" transform="translate(-1, 10) translate(0, 0)" opacity="1">kafka_zookeeper_connect</text></g><g id="sprotty_136" transform="translate(-16, 110)" opacity="1"><rect class="elkport" x="0" y="0" width="16" height="9" /><text id="sprotty_137" class="elklabel" transform="translate(-1, 10) translate(0, 0)" opacity="1">storage</text></g><g id="sprotty_139" transform="translate(-16, 170)" opacity="1"><rect class="elkport" x="0" y="0" width="16" height="9" /><text id="sprotty_140" class="elklabel" transform="translate(-1, 10) translate(0, 0)" opacity="1">storage_class_name</text></g><g id="sprotty_142" transform="translate(-16, 230)" opacity="1"><rect class="elkport" x="0" y="0" width="16" height="9" /><text id="sprotty_143" class="elklabel" transform="translate(-1, 10) translate(0, 0)" opacity="1">volume_claim_template_name</text></g><text id="sprotty_24" class="elklabel" transform="translate(0, -21) translate(0, 0)" opacity="1">kafka</text></g><g id="sprotty_29" transform="translate(147, 71)" opacity="1"><rect class="elknode" x="0" y="0" width="400" height="160" /><g id="sprotty_31" transform="translate(100, 50)" opacity="1"><rect class="elknode" x="0" y="0" width="200" height="60" /><text id="sprotty_32" class="elklabel" transform="translate(5, 22) translate(0, 0)" opacity="1">data.template_file.zoo-servers</text></g><g id="sprotty_151" transform="translate(400, 75.5)" opacity="1"><rect class="elkport" x="0" y="0" width="16" height="9" /><text id="sprotty_152" class="elklabel" transform="translate(17, 10) translate(0, 0)" opacity="1">port</text></g><g id="sprotty_176" transform="translate(-16, 75.5)" opacity="1"><rect class="elkport" x="0" y="0" width="16" height="9" /><text id="sprotty_177" class="elklabel" transform="translate(-1, 10) translate(0, 0)" opacity="1">port</text></g><text id="sprotty_30" class="elklabel" transform="translate(0, -21) translate(0, 0)" opacity="1">zookeeper</text></g><g id="sprotty_33" transform="translate(100, 1279.5)" opacity="1"><rect class="elknode" x="0" y="0" width="200" height="60" /><text id="sprotty_34" class="elklabel" transform="translate(5, 22) translate(0, 0)" opacity="1">provider.template</text></g><g id="sprotty_202" transform="translate(100, 1389.5)" opacity="1"><rect class="elknode" x="0" y="0" width="200" height="60" /><text id="sprotty_203" class="elklabel" transform="translate(5, 22) translate(0, 0)" opacity="1">provider.template (close)</text></g><g id="sprotty_205" transform="translate(320, 1389.5)" opacity="1"><rect class="elknode" x="0" y="0" width="200" height="60" /><text id="sprotty_206" class="elklabel" transform="translate(5, 22) translate(0, 0)" opacity="1">root</text></g><g id="sprotty_62" transform="translate(-16, 833)" opacity="1"><rect class="elkport" x="0" y="0" width="16" height="9" /><text id="sprotty_63" class="elklabel" transform="translate(-1, 10) translate(0, 0)" opacity="1">name</text></g><g id="sprotty_76" transform="translate(-16, 593)" opacity="1"><rect class="elkport" x="0" y="0" width="16" height="9" /><text id="sprotty_77" class="elklabel" transform="translate(-1, 10) translate(0, 0)" opacity="1">debezium</text></g><g id="sprotty_155" transform="translate(-16, 713)" opacity="1"><rect class="elkport" x="0" y="0" width="16" height="9" /><text id="sprotty_156" class="elklabel" transform="translate(-1, 10) translate(0, 0)" opacity="1">kafka_count</text></g><g id="sprotty_158" transform="translate(-16, 336.5)" opacity="1"><rect class="elkport" x="0" y="0" width="16" height="9" /><text id="sprotty_159" class="elklabel" transform="translate(-1, 10) translate(0, 0)" opacity="1">kafka_storage</text></g><g id="sprotty_161" transform="translate(-16, 396.5)" opacity="1"><rect class="elkport" x="0" y="0" width="16" height="9" /><text id="sprotty_162" class="elklabel" transform="translate(-1, 10) translate(0, 0)" opacity="1">kafka_storage_class</text></g><g id="sprotty_184" transform="translate(-16, 773)" opacity="1"><rect class="elkport" x="0" y="0" width="16" height="9" /><text id="sprotty_185" class="elklabel" transform="translate(-1, 10) translate(0, 0)" opacity="1">zookeeper_count</text></g><g id="sprotty_187" transform="translate(-16, 276.5)" opacity="1"><rect class="elkport" x="0" y="0" width="16" height="9" /><text id="sprotty_188" class="elklabel" transform="translate(-1, 10) translate(0, 0)" opacity="1">zookeeper_storage</text></g><g id="sprotty_190" transform="translate(-16, 456.5)" opacity="1"><rect class="elkport" x="0" y="0" width="16" height="9" /><text id="sprotty_191" class="elklabel" transform="translate(-1, 10) translate(0, 0)" opacity="1">zookeeper_storage_class</text></g><g id="sprotty_193" transform="translate(1131, 774)" opacity="1"><rect class="elkport" x="0" y="0" width="16" height="9" /><text id="sprotty_194" class="elklabel" transform="translate(17, 10) translate(0, 0)" opacity="1">kafka</text></g><g id="sprotty_196" transform="translate(1131, 714)" opacity="1"><rect class="elkport" x="0" y="0" width="16" height="9" /><text id="sprotty_197" class="elklabel" transform="translate(17, 10) translate(0, 0)" opacity="1">kafka</text></g><g id="sprotty_199" transform="translate(1131, 834)" opacity="1"><rect class="elkport" x="0" y="0" width="16" height="9" /><text id="sprotty_200" class="elklabel" transform="translate(17, 10) translate(0, 0)" opacity="1">kafka</text></g><text id="sprotty_4" class="elklabel" transform="translate(0, -21) translate(0, 0)" opacity="1">solutions/debezium</text><g id="sprotty_37" class="sprotty-edge" opacity="1"><path class="elkedge" d="M 347,753 L 347,593" /><path class="edge arrow" d="M 0,0 L 8,-3 L 8,3 Z" transform="rotate(90 347 593) translate(347 593)" /></g><g id="sprotty_40" class="sprotty-edge" opacity="1"><path class="elkedge" d="M 147,538.4807692307693 L 247,550.7403846153846" /><path class="edge arrow" d="M 0,0 L 8,-3 L 8,3 Z" transform="rotate(-173.01063484366153 247 550.7403846153846) translate(247 550.7403846153846)" /></g><g id="sprotty_43" class="sprotty-edge" opacity="1"><path class="elkedge" d="M 147,596.1730769230769 L 247,579.5865384615385" /><path class="edge arrow" d="M 0,0 L 8,-3 L 8,3 Z" transform="rotate(170.58235285466571 247 579.5865384615385) translate(247 579.5865384615385)" /></g><g id="sprotty_46" class="sprotty-edge" opacity="1"><path class="elkedge" d="M 147,653.8653846153846 L 280.968253968254,593" /><path class="edge arrow" d="M 0,0 L 8,-3 L 8,3 Z" transform="rotate(155.5664230096372 280.968253968254 593) translate(280.968253968254 593)" /></g><g id="sprotty_49" class="sprotty-edge" opacity="1"><path class="elkedge" d="M 145.05825242718447,713 L 306.6116504854369,593" /><path class="edge arrow" d="M 0,0 L 8,-3 L 8,3 Z" transform="rotate(143.39546107211746 306.6116504854369 593) translate(306.6116504854369 593)" /></g><g id="sprotty_52" class="sprotty-edge" opacity="1"><path class="elkedge" d="M 143.36363636363637,773 L 317.9090909090909,593" /><path class="edge arrow" d="M 0,0 L 8,-3 L 8,3 Z" transform="rotate(134.11859600341785 317.9090909090909 593) translate(317.9090909090909 593)" /></g><g id="sprotty_53" class="sprotty-edge" opacity="1"><path class="elkedge" d="M 347,753 L 347,703" /><path class="edge arrow" d="M 0,0 L 8,-3 L 8,3 Z" transform="rotate(90 347 703) translate(347 703)" /></g><g id="sprotty_54" class="sprotty-edge" opacity="1"><path class="elkedge" d="M 147,658.0961538461538 L 247,665.5480769230769" /><path class="edge arrow" d="M 0,0 L 8,-3 L 8,3 Z" transform="rotate(-175.73823961931822 247 665.5480769230769) translate(247 665.5480769230769)" /></g><g id="sprotty_57" class="sprotty-edge" opacity="1"><path class="elkedge" d="M 147,835.4038461538462 L 247,809.2019230769231" /><path class="edge arrow" d="M 0,0 L 8,-3 L 8,3 Z" transform="rotate(165.31746945380982 247 809.2019230769231) translate(247 809.2019230769231)" /></g><g id="sprotty_60" class="sprotty-edge" opacity="1"><path class="elkedge" d="M 393.0516605166052,643 L 548.0922509225093,542" /><path class="edge arrow" d="M 0,0 L 8,-3 L 8,3 Z" transform="rotate(146.9180771272349 548.0922509225093 542) translate(548.0922509225093 542)" /></g><g id="sprotty_61" class="sprotty-edge" opacity="1"><path class="elkedge" d="M 563,537.5 L 584,537.5 L 584,412 L 120,412 L 120,537.5 L 131,537.5" /><path class="edge arrow" d="M 0,0 L 8,-3 L 8,3 Z" transform="rotate(180 131 537.5) translate(131 537.5)" /></g><g id="sprotty_64" class="sprotty-edge" opacity="1"><path class="elkedge" d="M 0,837.5 L 131,837.5" /><path class="edge arrow" d="M 0,0 L 8,-3 L 8,3 Z" transform="rotate(180 131 837.5) translate(131 837.5)" /></g><g id="sprotty_65" class="sprotty-edge" opacity="1"><path class="elkedge" d="M 347,753 L 347,593" /><path class="edge arrow" d="M 0,0 L 8,-3 L 8,3 Z" transform="rotate(90 347 593) translate(347 593)" /></g><g id="sprotty_66" class="sprotty-edge" opacity="1"><path class="elkedge" d="M 147,538.4807692307693 L 247,550.7403846153846" /><path class="edge arrow" d="M 0,0 L 8,-3 L 8,3 Z" transform="rotate(-173.01063484366153 247 550.7403846153846) translate(247 550.7403846153846)" /></g><g id="sprotty_67" class="sprotty-edge" opacity="1"><path class="elkedge" d="M 147,596.1730769230769 L 247,579.5865384615385" /><path class="edge arrow" d="M 0,0 L 8,-3 L 8,3 Z" transform="rotate(170.58235285466571 247 579.5865384615385) translate(247 579.5865384615385)" /></g><g id="sprotty_68" class="sprotty-edge" opacity="1"><path class="elkedge" d="M 147,653.8653846153846 L 280.968253968254,593" /><path class="edge arrow" d="M 0,0 L 8,-3 L 8,3 Z" transform="rotate(155.5664230096372 280.968253968254 593) translate(280.968253968254 593)" /></g><g id="sprotty_69" class="sprotty-edge" opacity="1"><path class="elkedge" d="M 145.05825242718447,713 L 306.6116504854369,593" /><path class="edge arrow" d="M 0,0 L 8,-3 L 8,3 Z" transform="rotate(143.39546107211746 306.6116504854369 593) translate(306.6116504854369 593)" /></g><g id="sprotty_70" class="sprotty-edge" opacity="1"><path class="elkedge" d="M 143.36363636363637,773 L 317.9090909090909,593" /><path class="edge arrow" d="M 0,0 L 8,-3 L 8,3 Z" transform="rotate(134.11859600341785 317.9090909090909 593) translate(317.9090909090909 593)" /></g><g id="sprotty_71" class="sprotty-edge" opacity="1"><path class="elkedge" d="M 347,753 L 347,703" /><path class="edge arrow" d="M 0,0 L 8,-3 L 8,3 Z" transform="rotate(90 347 703) translate(347 703)" /></g><g id="sprotty_72" class="sprotty-edge" opacity="1"><path class="elkedge" d="M 147,658.0961538461538 L 247,665.5480769230769" /><path class="edge arrow" d="M 0,0 L 8,-3 L 8,3 Z" transform="rotate(-175.73823961931822 247 665.5480769230769) translate(247 665.5480769230769)" /></g><g id="sprotty_73" class="sprotty-edge" opacity="1"><path class="elkedge" d="M 147,835.4038461538462 L 247,809.2019230769231" /><path class="edge arrow" d="M 0,0 L 8,-3 L 8,3 Z" transform="rotate(165.31746945380982 247 809.2019230769231) translate(247 809.2019230769231)" /></g><g id="sprotty_74" class="sprotty-edge" opacity="1"><path class="elkedge" d="M 393.0516605166052,643 L 548.0922509225093,542" /><path class="edge arrow" d="M 0,0 L 8,-3 L 8,3 Z" transform="rotate(146.9180771272349 548.0922509225093 542) translate(548.0922509225093 542)" /></g><g id="sprotty_75" class="sprotty-edge" opacity="1"><path class="elkedge" d="M 563,537.5 L 584,537.5 L 584,412 L 120,412 L 120,537.5 L 131,537.5" /><path class="edge arrow" d="M 0,0 L 8,-3 L 8,3 Z" transform="rotate(180 131 537.5) translate(131 537.5)" /><g id="sprotty_75_j0" transform="translate(584, 412)" opacity="1"><circle class="elkjunction" r="2" /></g></g><g id="sprotty_78" class="sprotty-edge" opacity="1"><path class="elkedge" d="M 0,597.5 L 131,597.5" /><path class="edge arrow" d="M 0,0 L 8,-3 L 8,3 Z" transform="rotate(180 131 597.5) translate(131 597.5)" /></g><g id="sprotty_79" class="sprotty-edge" opacity="1"><path class="elkedge" d="M 0,837.5 L 131,837.5" /><path class="edge arrow" d="M 0,0 L 8,-3 L 8,3 Z" transform="rotate(180 131 837.5) translate(131 837.5)" /></g><g id="sprotty_80" class="sprotty-edge" opacity="1"><path class="elkedge" d="M 447,810.0474137931035 L 711,881.4525862068965" /><path class="edge arrow" d="M 0,0 L 8,-3 L 8,3 Z" transform="rotate(-164.86510764441792 711 881.4525862068965) translate(711 881.4525862068965)" /></g><g id="sprotty_81" class="sprotty-edge" opacity="1"><path class="elkedge" d="M 147,601.202380952381 L 746.1768488745981,878.5" /><path class="edge arrow" d="M 0,0 L 8,-3 L 8,3 Z" transform="rotate(-155.1654127844514 746.1768488745981 878.5) translate(746.1768488745981 878.5)" /></g><g id="sprotty_84" class="sprotty-edge" opacity="1"><path class="elkedge" d="M 611,883.9807692307693 L 711,896.2403846153846" /><path class="edge arrow" d="M 0,0 L 8,-3 L 8,3 Z" transform="rotate(-173.01063484366153 711 896.2403846153846) translate(711 896.2403846153846)" /></g><g id="sprotty_85" class="sprotty-edge" opacity="1"><path class="elkedge" d="M 147,660.4880952380952 L 730.6812749003984,878.5" /><path class="edge arrow" d="M 0,0 L 8,-3 L 8,3 Z" transform="rotate(-159.51874120165886 730.6812749003984 878.5) translate(730.6812749003984 878.5)" /></g><g id="sprotty_86" class="sprotty-edge" opacity="1"><path class="elkedge" d="M 147,719.7738095238095 L 711,880.077380952381" /><path class="edge arrow" d="M 0,0 L 8,-3 L 8,3 Z" transform="rotate(-164.13346178750533 711 880.077380952381) translate(711 880.077380952381)" /></g><g id="sprotty_87" class="sprotty-edge" opacity="1"><path class="elkedge" d="M 147,779.0595238095239 L 711,889.0059523809524" /><path class="edge arrow" d="M 0,0 L 8,-3 L 8,3 Z" transform="rotate(-168.96907656424435 711 889.0059523809524) translate(711 889.0059523809524)" /></g><g id="sprotty_88" class="sprotty-edge" opacity="1"><path class="elkedge" d="M 406.10828025477707,813 L 751.8917197452229,988.5" /><path class="edge arrow" d="M 0,0 L 8,-3 L 8,3 Z" transform="rotate(-153.09024266252877 751.8917197452229 988.5) translate(751.8917197452229 988.5)" /></g><g id="sprotty_91" class="sprotty-edge" opacity="1"><path class="elkedge" d="M 611,945.9038461538462 L 728.3509933774834,988.5" /><path class="edge arrow" d="M 0,0 L 8,-3 L 8,3 Z" transform="rotate(-160.0500763582779 728.3509933774834 988.5) translate(728.3509933774834 988.5)" /></g><g id="sprotty_92" class="sprotty-edge" opacity="1"><path class="elkedge" d="M 147,661.797619047619 L 755.1551246537397,988.5" /><path class="edge arrow" d="M 0,0 L 8,-3 L 8,3 Z" transform="rotate(-151.75520209373403 755.1551246537397 988.5) translate(755.1551246537397 988.5)" /></g><g id="sprotty_93" class="sprotty-edge" opacity="1"><path class="elkedge" d="M 147,835.4038461538462 L 247,809.2019230769231" /><path class="edge arrow" d="M 0,0 L 8,-3 L 8,3 Z" transform="rotate(165.31746945380982 247 809.2019230769231) translate(247 809.2019230769231)" /></g><g id="sprotty_94" class="sprotty-edge" opacity="1"><path class="elkedge" d="M 795.033264033264,988.5 L 557.3950103950103,542" /><path class="edge arrow" d="M 0,0 L 8,-3 L 8,3 Z" transform="rotate(61.976996613984085 557.3950103950103 542) translate(557.3950103950103 542)" /></g><g id="sprotty_95" class="sprotty-edge" opacity="1"><path class="elkedge" d="M 0,837.5 L 110,837.5 L 110,943 L 595,943" /><path class="edge arrow" d="M 0,0 L 8,-3 L 8,3 Z" transform="rotate(180 595 943) translate(595 943)" /><g id="sprotty_95_j0" transform="translate(110, 837.5)" opacity="1"><circle class="elkjunction" r="2" /></g></g><g id="sprotty_96" class="sprotty-edge" opacity="1"><path class="elkedge" d="M 563,537.5 L 584,537.5 L 584,883 L 595,883" /><path class="edge arrow" d="M 0,0 L 8,-3 L 8,3 Z" transform="rotate(180 595 883) translate(595 883)" /><g id="sprotty_96_j0" transform="translate(584, 537.5)" opacity="1"><circle class="elkjunction" r="2" /></g></g><g id="sprotty_97" class="sprotty-edge" opacity="1"><path class="elkedge" d="M 563,537.5 L 584,537.5 L 584,883 L 595,883" /><path class="edge arrow" d="M 0,0 L 8,-3 L 8,3 Z" transform="rotate(180 595 883) translate(595 883)" /></g><g id="sprotty_98" class="sprotty-edge" opacity="1"><path class="elkedge" d="M 0,837.5 L 131,837.5" /><path class="edge arrow" d="M 0,0 L 8,-3 L 8,3 Z" transform="rotate(180 131 837.5) translate(131 837.5)" /></g><g id="sprotty_99" class="sprotty-edge" opacity="1"><path class="elkedge" d="M 447,810.0474137931035 L 711,881.4525862068965" /><path class="edge arrow" d="M 0,0 L 8,-3 L 8,3 Z" transform="rotate(-164.86510764441792 711 881.4525862068965) translate(711 881.4525862068965)" /></g><g id="sprotty_100" class="sprotty-edge" opacity="1"><path class="elkedge" d="M 147,601.202380952381 L 746.1768488745981,878.5" /><path class="edge arrow" d="M 0,0 L 8,-3 L 8,3 Z" transform="rotate(-155.1654127844514 746.1768488745981 878.5) translate(746.1768488745981 878.5)" /></g><g id="sprotty_101" class="sprotty-edge" opacity="1"><path class="elkedge" d="M 147,660.4880952380952 L 730.6812749003984,878.5" /><path class="edge arrow" d="M 0,0 L 8,-3 L 8,3 Z" transform="rotate(-159.51874120165886 730.6812749003984 878.5) translate(730.6812749003984 878.5)" /></g><g id="sprotty_102" class="sprotty-edge" opacity="1"><path class="elkedge" d="M 147,719.7738095238095 L 711,880.077380952381" /><path class="edge arrow" d="M 0,0 L 8,-3 L 8,3 Z" transform="rotate(-164.13346178750533 711 880.077380952381) translate(711 880.077380952381)" /></g><g id="sprotty_103" class="sprotty-edge" opacity="1"><path class="elkedge" d="M 147,779.0595238095239 L 711,889.0059523809524" /><path class="edge arrow" d="M 0,0 L 8,-3 L 8,3 Z" transform="rotate(-168.96907656424435 711 889.0059523809524) translate(711 889.0059523809524)" /></g><g id="sprotty_106" class="sprotty-edge" opacity="1"><path class="elkedge" d="M 605.522911051213,542 L 794.1805929919137,878.5" /><path class="edge arrow" d="M 0,0 L 8,-3 L 8,3 Z" transform="rotate(-119.27703464452293 794.1805929919137 878.5) translate(794.1805929919137 878.5)" /></g><g id="sprotty_107" class="sprotty-edge" opacity="1"><path class="elkedge" d="M 406.10828025477707,813 L 751.8917197452229,988.5" /><path class="edge arrow" d="M 0,0 L 8,-3 L 8,3 Z" transform="rotate(-153.09024266252877 751.8917197452229 988.5) translate(751.8917197452229 988.5)" /></g><g id="sprotty_108" class="sprotty-edge" opacity="1"><path class="elkedge" d="M 147,661.797619047619 L 755.1551246537397,988.5" /><path class="edge arrow" d="M 0,0 L 8,-3 L 8,3 Z" transform="rotate(-151.75520209373403 755.1551246537397 988.5) translate(755.1551246537397 988.5)" /></g><g id="sprotty_109" class="sprotty-edge" opacity="1"><path class="elkedge" d="M 147,835.4038461538462 L 247,809.2019230769231" /><path class="edge arrow" d="M 0,0 L 8,-3 L 8,3 Z" transform="rotate(165.31746945380982 247 809.2019230769231) translate(247 809.2019230769231)" /></g><g id="sprotty_110" class="sprotty-edge" opacity="1"><path class="elkedge" d="M 795.033264033264,988.5 L 557.3950103950103,542" /><path class="edge arrow" d="M 0,0 L 8,-3 L 8,3 Z" transform="rotate(61.976996613984085 557.3950103950103 542) translate(557.3950103950103 542)" /></g><g id="sprotty_111" class="sprotty-edge" opacity="1"><path class="elkedge" d="M 0,837.5 L 131,837.5" /><path class="edge arrow" d="M 0,0 L 8,-3 L 8,3 Z" transform="rotate(180 131 837.5) translate(131 837.5)" /></g><g id="sprotty_112" class="sprotty-edge" opacity="1"><path class="elkedge" d="M 563,537.5 L 595,537.5" /><path class="edge arrow" d="M 0,0 L 8,-3 L 8,3 Z" transform="rotate(180 595 537.5) translate(595 537.5)" /></g><g id="sprotty_113" class="sprotty-edge" opacity="1"><path class="elkedge" d="M 447,810.0474137931035 L 711,881.4525862068965" /><path class="edge arrow" d="M 0,0 L 8,-3 L 8,3 Z" transform="rotate(-164.86510764441792 711 881.4525862068965) translate(711 881.4525862068965)" /></g><g id="sprotty_114" class="sprotty-edge" opacity="1"><path class="elkedge" d="M 147,601.202380952381 L 746.1768488745981,878.5" /><path class="edge arrow" d="M 0,0 L 8,-3 L 8,3 Z" transform="rotate(-155.1654127844514 746.1768488745981 878.5) translate(746.1768488745981 878.5)" /></g><g id="sprotty_117" class="sprotty-edge" opacity="1"><path class="elkedge" d="M 606.4666666666667,643 L 787.8888888888889,878.5" /><path class="edge arrow" d="M 0,0 L 8,-3 L 8,3 Z" transform="rotate(-127.60959079071228 787.8888888888889 878.5) translate(787.8888888888889 878.5)" /></g><g id="sprotty_118" class="sprotty-edge" opacity="1"><path class="elkedge" d="M 147,660.4880952380952 L 730.6812749003984,878.5" /><path class="edge arrow" d="M 0,0 L 8,-3 L 8,3 Z" transform="rotate(-159.51874120165886 730.6812749003984 878.5) translate(730.6812749003984 878.5)" /></g><g id="sprotty_119" class="sprotty-edge" opacity="1"><path class="elkedge" d="M 147,719.7738095238095 L 711,880.077380952381" /><path class="edge arrow" d="M 0,0 L 8,-3 L 8,3 Z" transform="rotate(-164.13346178750533 711 880.077380952381) translate(711 880.077380952381)" /></g><g id="sprotty_120" class="sprotty-edge" opacity="1"><path class="elkedge" d="M 147,779.0595238095239 L 711,889.0059523809524" /><path class="edge arrow" d="M 0,0 L 8,-3 L 8,3 Z" transform="rotate(-168.96907656424435 711 889.0059523809524) translate(711 889.0059523809524)" /></g><g id="sprotty_121" class="sprotty-edge" opacity="1"><path class="elkedge" d="M 406.10828025477707,813 L 751.8917197452229,988.5" /><path class="edge arrow" d="M 0,0 L 8,-3 L 8,3 Z" transform="rotate(-153.09024266252877 751.8917197452229 988.5) translate(751.8917197452229 988.5)" /></g><g id="sprotty_122" class="sprotty-edge" opacity="1"><path class="elkedge" d="M 611,945.9038461538462 L 728.3509933774834,988.5" /><path class="edge arrow" d="M 0,0 L 8,-3 L 8,3 Z" transform="rotate(-160.0500763582779 728.3509933774834 988.5) translate(728.3509933774834 988.5)" /></g><g id="sprotty_123" class="sprotty-edge" opacity="1"><path class="elkedge" d="M 147,661.797619047619 L 755.1551246537397,988.5" /><path class="edge arrow" d="M 0,0 L 8,-3 L 8,3 Z" transform="rotate(-151.75520209373403 755.1551246537397 988.5) translate(755.1551246537397 988.5)" /></g><g id="sprotty_124" class="sprotty-edge" opacity="1"><path class="elkedge" d="M 147,835.4038461538462 L 247,809.2019230769231" /><path class="edge arrow" d="M 0,0 L 8,-3 L 8,3 Z" transform="rotate(165.31746945380982 247 809.2019230769231) translate(247 809.2019230769231)" /></g><g id="sprotty_125" class="sprotty-edge" opacity="1"><path class="elkedge" d="M 795.033264033264,988.5 L 557.3950103950103,542" /><path class="edge arrow" d="M 0,0 L 8,-3 L 8,3 Z" transform="rotate(61.976996613984085 557.3950103950103 542) translate(557.3950103950103 542)" /></g><g id="sprotty_126" class="sprotty-edge" opacity="1"><path class="elkedge" d="M 0,837.5 L 110,837.5 L 110,943 L 595,943" /><path class="edge arrow" d="M 0,0 L 8,-3 L 8,3 Z" transform="rotate(180 595 943) translate(595 943)" /></g><g id="sprotty_127" class="sprotty-edge" opacity="1"><path class="elkedge" d="M 563,537.5 L 584,537.5 L 584,638.5 L 595,638.5" /><path class="edge arrow" d="M 0,0 L 8,-3 L 8,3 Z" transform="rotate(180 595 638.5) translate(595 638.5)" /><g id="sprotty_127_j0" transform="translate(584, 638.5)" opacity="1"><circle class="elkjunction" r="2" /></g></g><g id="sprotty_128" class="sprotty-edge" opacity="1"><path class="elkedge" d="M 0,837.5 L 131,837.5" /><path class="edge arrow" d="M 0,0 L 8,-3 L 8,3 Z" transform="rotate(180 131 837.5) translate(131 837.5)" /></g><g id="sprotty_129" class="sprotty-edge" opacity="1"><path class="elkedge" d="M 811,988.5 L 811,276.5" /><path class="edge arrow" d="M 0,0 L 8,-3 L 8,3 Z" transform="rotate(90 811 276.5) translate(811 276.5)" /></g><g id="sprotty_130" class="sprotty-edge" opacity="1"><path class="elkedge" d="M 147,593.3214285714286 L 753.5641025641025,276.5" /><path class="edge arrow" d="M 0,0 L 8,-3 L 8,3 Z" transform="rotate(152.4209701001367 753.5641025641025 276.5) translate(753.5641025641025 276.5)" /></g><g id="sprotty_133" class="sprotty-edge" opacity="1"><path class="elkedge" d="M 611,221.98076923076923 L 711,234.2403846153846" /><path class="edge arrow" d="M 0,0 L 8,-3 L 8,3 Z" transform="rotate(-173.01063484366153 711 234.2403846153846) translate(711 234.2403846153846)" /></g><g id="sprotty_134" class="sprotty-edge" opacity="1"><path class="elkedge" d="M 145.4203821656051,713 L 768.1974522292994,276.5" /><path class="edge arrow" d="M 0,0 L 8,-3 L 8,3 Z" transform="rotate(144.97366068035063 768.1974522292994 276.5) translate(768.1974522292994 276.5)" /></g><g id="sprotty_135" class="sprotty-edge" opacity="1"><path class="elkedge" d="M 144.6949152542373,773 L 773.0338983050847,276.5" /><path class="edge arrow" d="M 0,0 L 8,-3 L 8,3 Z" transform="rotate(141.68496525114534 773.0338983050847 276.5) translate(773.0338983050847 276.5)" /></g><g id="sprotty_138" class="sprotty-edge" opacity="1"><path class="elkedge" d="M 611,279.6730769230769 L 711,263.08653846153845" /><path class="edge arrow" d="M 0,0 L 8,-3 L 8,3 Z" transform="rotate(170.58235285466571 711 263.08653846153845) translate(711 263.08653846153845)" /></g><g id="sprotty_141" class="sprotty-edge" opacity="1"><path class="elkedge" d="M 611,337.36538461538464 L 744.968253968254,276.5" /><path class="edge arrow" d="M 0,0 L 8,-3 L 8,3 Z" transform="rotate(155.5664230096372 744.968253968254 276.5) translate(744.968253968254 276.5)" /></g><g id="sprotty_144" class="sprotty-edge" opacity="1"><path class="elkedge" d="M 609.0582524271845,396.5 L 770.6116504854369,276.5" /><path class="edge arrow" d="M 0,0 L 8,-3 L 8,3 Z" transform="rotate(143.39546107211748 770.6116504854369 276.5) translate(770.6116504854369 276.5)" /></g><g id="sprotty_145" class="sprotty-edge" opacity="1"><path class="elkedge" d="M 406.10828025477707,813 L 751.8917197452229,988.5" /><path class="edge arrow" d="M 0,0 L 8,-3 L 8,3 Z" transform="rotate(-153.09024266252877 751.8917197452229 988.5) translate(751.8917197452229 988.5)" /></g><g id="sprotty_146" class="sprotty-edge" opacity="1"><path class="elkedge" d="M 147,661.797619047619 L 755.1551246537397,988.5" /><path class="edge arrow" d="M 0,0 L 8,-3 L 8,3 Z" transform="rotate(-151.75520209373403 755.1551246537397 988.5) translate(755.1551246537397 988.5)" /></g><g id="sprotty_147" class="sprotty-edge" opacity="1"><path class="elkedge" d="M 379.6377491207503,753 L 778.3622508792497,386.5" /><path class="edge arrow" d="M 0,0 L 8,-3 L 8,3 Z" transform="rotate(137.41136778478057 778.3622508792497 386.5) translate(778.3622508792497 386.5)" /></g><g id="sprotty_148" class="sprotty-edge" opacity="1"><path class="elkedge" d="M 147,835.4038461538462 L 247,809.2019230769231" /><path class="edge arrow" d="M 0,0 L 8,-3 L 8,3 Z" transform="rotate(165.31746945380982 247 809.2019230769231) translate(247 809.2019230769231)" /></g><g id="sprotty_149" class="sprotty-edge" opacity="1"><path class="elkedge" d="M 795.033264033264,988.5 L 557.3950103950103,542" /><path class="edge arrow" d="M 0,0 L 8,-3 L 8,3 Z" transform="rotate(61.976996613984085 557.3950103950103 542) translate(557.3950103950103 542)" /></g><g id="sprotty_150" class="sprotty-edge" opacity="1"><path class="elkedge" d="M 563,537.5 L 584,537.5 L 584,221 L 595,221" /><path class="edge arrow" d="M 0,0 L 8,-3 L 8,3 Z" transform="rotate(180 595 221) translate(595 221)" /></g><g id="sprotty_153" class="sprotty-edge" opacity="1"><path class="elkedge" d="M 563,151 L 584,151 L 584,221 L 595,221" /><path class="edge arrow" d="M 0,0 L 8,-3 L 8,3 Z" transform="rotate(180 595 221) translate(595 221)" /><g id="sprotty_153_j0" transform="translate(584, 221)" opacity="1"><circle class="elkjunction" r="2" /></g></g><g id="sprotty_154" class="sprotty-edge" opacity="1"><path class="elkedge" d="M 0,837.5 L 131,837.5" /><path class="edge arrow" d="M 0,0 L 8,-3 L 8,3 Z" transform="rotate(180 131 837.5) translate(131 837.5)" /></g><g id="sprotty_157" class="sprotty-edge" opacity="1"><path class="elkedge" d="M 0,717.5 L 110,717.5 L 110,777.5 L 131,777.5" /><path class="edge arrow" d="M 0,0 L 8,-3 L 8,3 Z" transform="rotate(180 131 777.5) translate(131 777.5)" /><g id="sprotty_157_j0" transform="translate(110, 777.5)" opacity="1"><circle class="elkjunction" r="2" /></g></g><g id="sprotty_160" class="sprotty-edge" opacity="1"><path class="elkedge" d="M 0,341 L 110,341 L 110,281 L 595,281" /><path class="edge arrow" d="M 0,0 L 8,-3 L 8,3 Z" transform="rotate(180 595 281) translate(595 281)" /><g id="sprotty_160_j0" transform="translate(110, 281)" opacity="1"><circle class="elkjunction" r="2" /></g></g><g id="sprotty_163" class="sprotty-edge" opacity="1"><path class="elkedge" d="M 0,401 L 574,401 L 574,341 L 595,341" /><path class="edge arrow" d="M 0,0 L 8,-3 L 8,3 Z" transform="rotate(180 595 341) translate(595 341)" /></g><g id="sprotty_164" class="sprotty-edge" opacity="1"><path class="elkedge" d="M 140.36343772760378,833 L 337.91041514930805,181" /><path class="edge arrow" d="M 0,0 L 8,-3 L 8,3 Z" transform="rotate(106.85608233605453 337.91041514930805 181) translate(337.91041514930805 181)" /></g><g id="sprotty_165" class="sprotty-edge" opacity="1"><path class="elkedge" d="M 140.49401436552276,773 L 337.0399042298484,181" /><path class="edge arrow" d="M 0,0 L 8,-3 L 8,3 Z" transform="rotate(108.36633115571146 337.0399042298484 181) translate(337.0399042298484 181)" /></g><g id="sprotty_166" class="sprotty-edge" opacity="1"><path class="elkedge" d="M 203.80664652567975,1279.5 L 343.19335347432025,181" /><path class="edge arrow" d="M 0,0 L 8,-3 L 8,3 Z" transform="rotate(97.23151395769268 343.19335347432025 181) translate(343.19335347432025 181)" /></g><g id="sprotty_167" class="sprotty-edge" opacity="1"><path class="elkedge" d="M 447,171.58189655172413 L 711,225.91810344827587" /><path class="edge arrow" d="M 0,0 L 8,-3 L 8,3 Z" transform="rotate(-168.36985019209257 711 225.91810344827587) translate(711 225.91810344827587)" /></g><g id="sprotty_168" class="sprotty-edge" opacity="1"><path class="elkedge" d="M 811,988.5 L 811,276.5" /><path class="edge arrow" d="M 0,0 L 8,-3 L 8,3 Z" transform="rotate(90 811 276.5) translate(811 276.5)" /></g><g id="sprotty_169" class="sprotty-edge" opacity="1"><path class="elkedge" d="M 147,593.3214285714286 L 753.5641025641025,276.5" /><path class="edge arrow" d="M 0,0 L 8,-3 L 8,3 Z" transform="rotate(152.4209701001367 753.5641025641025 276.5) translate(753.5641025641025 276.5)" /></g><g id="sprotty_170" class="sprotty-edge" opacity="1"><path class="elkedge" d="M 145.4203821656051,713 L 768.1974522292994,276.5" /><path class="edge arrow" d="M 0,0 L 8,-3 L 8,3 Z" transform="rotate(144.97366068035063 768.1974522292994 276.5) translate(768.1974522292994 276.5)" /></g><g id="sprotty_171" class="sprotty-edge" opacity="1"><path class="elkedge" d="M 611,279.6730769230769 L 711,263.08653846153845" /><path class="edge arrow" d="M 0,0 L 8,-3 L 8,3 Z" transform="rotate(170.58235285466571 711 263.08653846153845) translate(711 263.08653846153845)" /></g><g id="sprotty_172" class="sprotty-edge" opacity="1"><path class="elkedge" d="M 611,337.36538461538464 L 744.968253968254,276.5" /><path class="edge arrow" d="M 0,0 L 8,-3 L 8,3 Z" transform="rotate(155.5664230096372 744.968253968254 276.5) translate(744.968253968254 276.5)" /></g><g id="sprotty_173" class="sprotty-edge" opacity="1"><path class="elkedge" d="M 609.0582524271845,396.5 L 770.6116504854369,276.5" /><path class="edge arrow" d="M 0,0 L 8,-3 L 8,3 Z" transform="rotate(143.39546107211748 770.6116504854369 276.5) translate(770.6116504854369 276.5)" /></g><g id="sprotty_174" class="sprotty-edge" opacity="1"><path class="elkedge" d="M 406.10828025477707,813 L 751.8917197452229,988.5" /><path class="edge arrow" d="M 0,0 L 8,-3 L 8,3 Z" transform="rotate(-153.09024266252877 751.8917197452229 988.5) translate(751.8917197452229 988.5)" /></g><g id="sprotty_175" class="sprotty-edge" opacity="1"><path class="elkedge" d="M 147,661.797619047619 L 755.1551246537397,988.5" /><path class="edge arrow" d="M 0,0 L 8,-3 L 8,3 Z" transform="rotate(-151.75520209373403 755.1551246537397 988.5) translate(755.1551246537397 988.5)" /></g><g id="sprotty_178" class="sprotty-edge" opacity="1"><path class="elkedge" d="M 142.48587896253602,155.5 L 787.7608069164265,988.5" /><path class="edge arrow" d="M 0,0 L 8,-3 L 8,3 Z" transform="rotate(-127.7627872874461 787.7608069164265 988.5) translate(787.7608069164265 988.5)" /></g><g id="sprotty_179" class="sprotty-edge" opacity="1"><path class="elkedge" d="M 379.6377491207503,753 L 778.3622508792497,386.5" /><path class="edge arrow" d="M 0,0 L 8,-3 L 8,3 Z" transform="rotate(137.41136778478057 778.3622508792497 386.5) translate(778.3622508792497 386.5)" /></g><g id="sprotty_180" class="sprotty-edge" opacity="1"><path class="elkedge" d="M 147,835.4038461538462 L 247,809.2019230769231" /><path class="edge arrow" d="M 0,0 L 8,-3 L 8,3 Z" transform="rotate(165.31746945380982 247 809.2019230769231) translate(247 809.2019230769231)" /></g><g id="sprotty_181" class="sprotty-edge" opacity="1"><path class="elkedge" d="M 795.033264033264,988.5 L 557.3950103950103,542" /><path class="edge arrow" d="M 0,0 L 8,-3 L 8,3 Z" transform="rotate(61.976996613984085 557.3950103950103 542) translate(557.3950103950103 542)" /></g><g id="sprotty_182" class="sprotty-edge" opacity="1"><path class="elkedge" d="M 802.1469740634005,988.5 L 556.3279538904899,155.5" /><path class="edge arrow" d="M 0,0 L 8,-3 L 8,3 Z" transform="rotate(73.55862447168785 556.3279538904899 155.5) translate(556.3279538904899 155.5)" /></g><g id="sprotty_183" class="sprotty-edge" opacity="1"><path class="elkedge" d="M 0,837.5 L 131,837.5" /><path class="edge arrow" d="M 0,0 L 8,-3 L 8,3 Z" transform="rotate(180 131 837.5) translate(131 837.5)" /></g><g id="sprotty_186" class="sprotty-edge" opacity="1"><path class="elkedge" d="M 0,777.5 L 131,777.5" /><path class="edge arrow" d="M 0,0 L 8,-3 L 8,3 Z" transform="rotate(180 131 777.5) translate(131 777.5)" /></g><g id="sprotty_189" class="sprotty-edge" opacity="1"><path class="elkedge" d="M 0,281 L 595,281" /><path class="edge arrow" d="M 0,0 L 8,-3 L 8,3 Z" transform="rotate(180 595 281) translate(595 281)" /></g><g id="sprotty_192" class="sprotty-edge" opacity="1"><path class="elkedge" d="M 0,461 L 110,461 L 110,401 L 574,401 L 574,341 L 595,341" /><path class="edge arrow" d="M 0,0 L 8,-3 L 8,3 Z" transform="rotate(180 595 341) translate(595 341)" /><g id="sprotty_192_j0" transform="translate(110, 401)" opacity="1"><circle class="elkjunction" r="2" /></g></g><g id="sprotty_195" class="sprotty-edge" opacity="1"><path class="elkedge" d="M 563,537.5 L 584,537.5 L 584,718.5 L 1021,718.5 L 1021,778.5 L 1131,778.5" /><path class="edge arrow" d="M 0,0 L 8,-3 L 8,3 Z" transform="rotate(180 1131 778.5) translate(1131 778.5)" /><g id="sprotty_195_j0" transform="translate(584, 718.5)" opacity="1"><circle class="elkjunction" r="2" /></g><g id="sprotty_195_j1" transform="translate(1021, 718.5)" opacity="1"><circle class="elkjunction" r="2" /></g><g id="sprotty_195_j2" transform="translate(1021, 778.5)" opacity="1"><circle class="elkjunction" r="2" /></g></g><g id="sprotty_198" class="sprotty-edge" opacity="1"><path class="elkedge" d="M 563,537.5 L 584,537.5 L 584,718.5 L 1131,718.5" /><path class="edge arrow" d="M 0,0 L 8,-3 L 8,3 Z" transform="rotate(180 1131 718.5) translate(1131 718.5)" /></g><g id="sprotty_201" class="sprotty-edge" opacity="1"><path class="elkedge" d="M 563,537.5 L 584,537.5 L 584,718.5 L 1021,718.5 L 1021,838.5 L 1131,838.5" /><path class="edge arrow" d="M 0,0 L 8,-3 L 8,3 Z" transform="rotate(180 1131 838.5) translate(1131 838.5)" /></g><g id="sprotty_204" class="sprotty-edge" opacity="1"><path class="elkedge" d="M 343.5234528971226,181 L 203.47654710287742,1389.5" /><path class="edge arrow" d="M 0,0 L 8,-3 L 8,3 Z" transform="rotate(-83.38976917747232 203.47654710287742 1389.5) translate(203.47654710287742 1389.5)" /></g><g id="sprotty_207" class="sprotty-edge" opacity="1"><path class="elkedge" d="M 300,1419.5 L 320,1419.5" /><path class="edge arrow" d="M 0,0 L 8,-3 L 8,3 Z" transform="rotate(180 320 1419.5) translate(320 1419.5)" /></g></g></g></svg>
