<svg id="sprotty_1" class="sprotty-graph sprotty" tabindex="1002" xmlns="http://www.w3.org/2000/svg" viewBox="0 0 1114 882"><style>.elknode {
    stroke: #448;
    stroke-width: 2;
    fill: #ddf;
}

.elkport {
    stroke: #448;
    stroke-width: 1;
    fill: #66c;
}

.elkedge {
    fill: none;
    stroke: #224;
    stroke-width: 1;
}

.elkedge.arrow {
    fill: #336;
}

.elklabel {
    stroke-width: 0;
    stroke: #000;
    fill: #000;
    font-family: sans-serif;
    font-size: 10pt;
    dominant-baseline: hanging;
}

.elkjunction {
    stroke: none;
    fill: #224;
}

.selected &gt; rect {
    stroke-width: 3;
}

.mouseover {
    stroke: #88f;
}
/*
 * Copyright (C) 2017 TypeFox and others.
 *
 * Licensed under the Apache License, Version 2.0 (the &quot;License&quot;); you may not use this file except in compliance with the License.
 * You may obtain a copy of the License at http://www.apache.org/licenses/LICENSE-2.0
 */

.sprotty {
    padding: 0px;
    font-family: &quot;Helvetica Neue&quot;, Helvetica, Arial, sans-serif;
}

.sprotty-hidden {
    display: block;
    position: absolute;
    width: 0px;
    height: 0px;
}

.sprotty-popup {
    font-family: &quot;Helvetica Neue&quot;, Helvetica, Arial, sans-serif;
    position: absolute;
    background: white;
    border-radius: 5px;
    border: 1px solid;
    max-width: 400px;
    min-width: 100px;
}

.sprotty-popup &gt; div {
    margin: 10px;
}

.sprotty-popup-closed {
    display: none;
}
</style><g transform="scale(1) translate(0,0)"><g id="sprotty_3" transform="translate(117, 71)" opacity="1"><rect class="elknode" x="0" y="0" rx="10" width="880" height="761" /><g id="sprotty_5" transform="translate(580, 207.83333333333334)" opacity="1"><rect class="elknode" x="0" y="0" rx="10" width="200" height="60" /><text id="sprotty_6" class="elklabel" transform="translate(5, 22) translate(0, 0)" opacity="1">k8s_apps_v1_stateful_set.this</text></g><g id="sprotty_7" transform="translate(330, 561.5)" opacity="1"><rect class="elknode" x="0" y="0" rx="10" width="200" height="60" /><text id="sprotty_8" class="elklabel" transform="translate(5, 22) translate(0, 0)" opacity="1">k8s_core_v1_service.this</text></g><g id="sprotty_9" transform="translate(330, 465.5)" opacity="1"><rect class="elknode" x="0" y="0" rx="10" width="200" height="60" /><text id="sprotty_10" class="elklabel" transform="translate(5, 22) translate(0, 0)" opacity="1">k8s_policy_v1beta1_pod_disruption_budget.this</text></g><g id="sprotty_33" transform="translate(100, 475.5)" opacity="1"><rect class="elknode" x="0" y="0" rx="10" width="200" height="60" /><text id="sprotty_34" class="elklabel" transform="translate(5, 22) translate(0, 0)" opacity="1">local.labels</text></g><g id="sprotty_12" transform="translate(-16, 50)" opacity="1"><rect class="elkport" x="0" y="0" width="16" height="9" /><text id="sprotty_13" class="elklabel" transform="translate(-1, 10) translate(0, 0)" opacity="1">image</text></g><g id="sprotty_15" transform="translate(-16, 170)" opacity="1"><rect class="elkport" x="0" y="0" width="16" height="9" /><text id="sprotty_16" class="elklabel" transform="translate(-1, 10) translate(0, 0)" opacity="1">mysql_database</text></g><g id="sprotty_18" transform="translate(-16, 410)" opacity="1"><rect class="elkport" x="0" y="0" width="16" height="9" /><text id="sprotty_19" class="elklabel" transform="translate(-1, 10) translate(0, 0)" opacity="1">mysql_password</text></g><g id="sprotty_21" transform="translate(-16, 110)" opacity="1"><rect class="elkport" x="0" y="0" width="16" height="9" /><text id="sprotty_22" class="elklabel" transform="translate(-1, 10) translate(0, 0)" opacity="1">mysql_root_password</text></g><g id="sprotty_24" transform="translate(-16, 350)" opacity="1"><rect class="elkport" x="0" y="0" width="16" height="9" /><text id="sprotty_25" class="elklabel" transform="translate(-1, 10) translate(0, 0)" opacity="1">mysql_user</text></g><g id="sprotty_27" transform="translate(-16, 230)" opacity="1"><rect class="elkport" x="0" y="0" width="16" height="9" /><text id="sprotty_28" class="elklabel" transform="translate(-1, 10) translate(0, 0)" opacity="1">node_selector</text></g><g id="sprotty_30" transform="translate(-16, 290)" opacity="1"><rect class="elkport" x="0" y="0" width="16" height="9" /><text id="sprotty_31" class="elklabel" transform="translate(-1, 10) translate(0, 0)" opacity="1">replicas</text></g><g id="sprotty_36" transform="translate(-16, 701)" opacity="1"><rect class="elkport" x="0" y="0" width="16" height="9" /><text id="sprotty_37" class="elklabel" transform="translate(-1, 10) translate(0, 0)" opacity="1">annotations</text></g><g id="sprotty_39" transform="translate(-16, 641)" opacity="1"><rect class="elkport" x="0" y="0" width="16" height="9" /><text id="sprotty_40" class="elklabel" transform="translate(-1, 10) translate(0, 0)" opacity="1">namespace</text></g><g id="sprotty_42" transform="translate(-16, 581)" opacity="1"><rect class="elkport" x="0" y="0" width="16" height="9" /><text id="sprotty_43" class="elklabel" transform="translate(-1, 10) translate(0, 0)" opacity="1">port</text></g><g id="sprotty_46" transform="translate(-16, 501)" opacity="1"><rect class="elkport" x="0" y="0" width="16" height="9" /><text id="sprotty_47" class="elklabel" transform="translate(-1, 10) translate(0, 0)" opacity="1">name</text></g><g id="sprotty_49" transform="translate(880, 641)" opacity="1"><rect class="elkport" x="0" y="0" width="16" height="9" /><text id="sprotty_50" class="elklabel" transform="translate(17, 10) translate(0, 0)" opacity="1">cluster_ip</text></g><g id="sprotty_52" transform="translate(880, 701)" opacity="1"><rect class="elkport" x="0" y="0" width="16" height="9" /><text id="sprotty_53" class="elklabel" transform="translate(17, 10) translate(0, 0)" opacity="1">name</text></g><g id="sprotty_55" transform="translate(880, 581)" opacity="1"><rect class="elkport" x="0" y="0" width="16" height="9" /><text id="sprotty_56" class="elklabel" transform="translate(17, 10) translate(0, 0)" opacity="1">port</text></g><g id="sprotty_58" transform="translate(880, 233.33333333333334)" opacity="1"><rect class="elkport" x="0" y="0" width="16" height="9" /><text id="sprotty_59" class="elklabel" transform="translate(17, 10) translate(0, 0)" opacity="1">statefulset_uid</text></g><text id="sprotty_4" class="elklabel" transform="translate(0, -21) translate(0, 0)" opacity="1">examples/debezium-mysql-elasticsearch/mysql</text><g id="sprotty_11" class="sprotty-edge" opacity="1"><path class="elkedge" d="M 530,573.5 L 570,573.5 L 570,261.16666666666663 L 580,261.16666666666663" /><path class="edge arrow" d="M 0,0 L 8,-3 L 8,3 Z" transform="rotate(180 580 261.16666666666663) translate(580 261.16666666666663)" /></g><g id="sprotty_14" class="sprotty-edge" opacity="1"><path class="elkedge" d="M 0,54.5 L 560,54.5 L 560,214.5 L 580,214.5" /><path class="edge arrow" d="M 0,0 L 8,-3 L 8,3 Z" transform="rotate(180 580 214.5) translate(580 214.5)" /></g><g id="sprotty_17" class="sprotty-edge" opacity="1"><path class="elkedge" d="M 0,174.5 L 540,174.5 L 540,227.83333333333334 L 580,227.83333333333334" /><path class="edge arrow" d="M 0,0 L 8,-3 L 8,3 Z" transform="rotate(180 580 227.83333333333334) translate(580 227.83333333333334)" /></g><g id="sprotty_20" class="sprotty-edge" opacity="1"><path class="elkedge" d="M 0,414.5 L 560,414.5 L 560,254.5 L 580,254.5" /><path class="edge arrow" d="M 0,0 L 8,-3 L 8,3 Z" transform="rotate(180 580 254.5) translate(580 254.5)" /></g><g id="sprotty_23" class="sprotty-edge" opacity="1"><path class="elkedge" d="M 0,114.5 L 550,114.5 L 550,221.16666666666669 L 580,221.16666666666669" /><path class="edge arrow" d="M 0,0 L 8,-3 L 8,3 Z" transform="rotate(180 580 221.16666666666669) translate(580 221.16666666666669)" /></g><g id="sprotty_26" class="sprotty-edge" opacity="1"><path class="elkedge" d="M 0,354.5 L 550,354.5 L 550,247.83333333333331 L 580,247.83333333333331" /><path class="edge arrow" d="M 0,0 L 8,-3 L 8,3 Z" transform="rotate(180 580 247.83333333333331) translate(580 247.83333333333331)" /></g><g id="sprotty_29" class="sprotty-edge" opacity="1"><path class="elkedge" d="M 0,234.5 L 580,234.5" /><path class="edge arrow" d="M 0,0 L 8,-3 L 8,3 Z" transform="rotate(180 580 234.5) translate(580 234.5)" /></g><g id="sprotty_32" class="sprotty-edge" opacity="1"><path class="elkedge" d="M 0,294.5 L 540,294.5 L 540,241.16666666666666 L 580,241.16666666666666" /><path class="edge arrow" d="M 0,0 L 8,-3 L 8,3 Z" transform="rotate(180 580 241.16666666666666) translate(580 241.16666666666666)" /></g><g id="sprotty_35" class="sprotty-edge" opacity="1"><path class="elkedge" d="M 300,515.5 L 310,515.5 L 310,573.5 L 330,573.5" /><path class="edge arrow" d="M 0,0 L 8,-3 L 8,3 Z" transform="rotate(180 330 573.5) translate(330 573.5)" /></g><g id="sprotty_38" class="sprotty-edge" opacity="1"><path class="elkedge" d="M 0,705.5 L 320,705.5 L 320,609.5 L 330,609.5" /><path class="edge arrow" d="M 0,0 L 8,-3 L 8,3 Z" transform="rotate(180 330 609.5) translate(330 609.5)" /></g><g id="sprotty_41" class="sprotty-edge" opacity="1"><path class="elkedge" d="M 0,645.5 L 310,645.5 L 310,597.5 L 330,597.5" /><path class="edge arrow" d="M 0,0 L 8,-3 L 8,3 Z" transform="rotate(180 330 597.5) translate(330 597.5)" /></g><g id="sprotty_44" class="sprotty-edge" opacity="1"><path class="elkedge" d="M 0,585.5 L 330,585.5" /><path class="edge arrow" d="M 0,0 L 8,-3 L 8,3 Z" transform="rotate(180 330 585.5) translate(330 585.5)" /></g><g id="sprotty_45" class="sprotty-edge" opacity="1"><path class="elkedge" d="M 300,495.5 L 330,495.5" /><path class="edge arrow" d="M 0,0 L 8,-3 L 8,3 Z" transform="rotate(180 330 495.5) translate(330 495.5)" /></g><g id="sprotty_48" class="sprotty-edge" opacity="1"><path class="elkedge" d="M 0,505.5 L 100,505.5" /><path class="edge arrow" d="M 0,0 L 8,-3 L 8,3 Z" transform="rotate(180 100 505.5) translate(100 505.5)" /></g><g id="sprotty_51" class="sprotty-edge" opacity="1"><path class="elkedge" d="M 530,597.5 L 550,597.5 L 550,645.5 L 880,645.5" /><path class="edge arrow" d="M 0,0 L 8,-3 L 8,3 Z" transform="rotate(180 880 645.5) translate(880 645.5)" /></g><g id="sprotty_54" class="sprotty-edge" opacity="1"><path class="elkedge" d="M 530,609.5 L 540,609.5 L 540,705.5 L 880,705.5" /><path class="edge arrow" d="M 0,0 L 8,-3 L 8,3 Z" transform="rotate(180 880 705.5) translate(880 705.5)" /></g><g id="sprotty_57" class="sprotty-edge" opacity="1"><path class="elkedge" d="M 530,585.5 L 880,585.5" /><path class="edge arrow" d="M 0,0 L 8,-3 L 8,3 Z" transform="rotate(180 880 585.5) translate(880 585.5)" /></g><g id="sprotty_60" class="sprotty-edge" opacity="1"><path class="elkedge" d="M 780,237.83333333333334 L 880,237.83333333333334" /><path class="edge arrow" d="M 0,0 L 8,-3 L 8,3 Z" transform="rotate(180 880 237.83333333333334) translate(880 237.83333333333334)" /></g></g></g></svg>
