<svg id="sprotty_1" class="sprotty-graph sprotty" tabindex="1002" xmlns="http://www.w3.org/2000/svg" viewBox="0 0 1124 732"><style>.elknode {
    stroke: #448;
    stroke-width: 2;
    fill: #ddf;
}

.elkport {
    stroke: #448;
    stroke-width: 1;
    fill: #66c;
}

.elkedge {
    fill: none;
    stroke: #224;
    stroke-width: 1;
}

.elkedge.arrow {
    fill: #336;
}

.elklabel {
    stroke-width: 0;
    stroke: #000;
    fill: #000;
    font-family: sans-serif;
    font-size: 10pt;
    dominant-baseline: hanging;
}

.elkjunction {
    stroke: none;
    fill: #224;
}

.selected &gt; rect {
    stroke-width: 3;
}

.mouseover {
    stroke: #88f;
}
/*
 * Copyright (C) 2017 TypeFox and others.
 *
 * Licensed under the Apache License, Version 2.0 (the &quot;License&quot;); you may not use this file except in compliance with the License.
 * You may obtain a copy of the License at http://www.apache.org/licenses/LICENSE-2.0
 */

.sprotty {
    padding: 0px;
    font-family: &quot;Helvetica Neue&quot;, Helvetica, Arial, sans-serif;
}

.sprotty-hidden {
    display: block;
    position: absolute;
    width: 0px;
    height: 0px;
}

.sprotty-popup {
    font-family: &quot;Helvetica Neue&quot;, Helvetica, Arial, sans-serif;
    position: absolute;
    background: white;
    border-radius: 5px;
    border: 1px solid;
    max-width: 400px;
    min-width: 100px;
}

.sprotty-popup &gt; div {
    margin: 10px;
}

.sprotty-popup-closed {
    display: none;
}
</style><g transform="scale(1) translate(0,0)"><g id="sprotty_3" transform="translate(117, 71)" opacity="1"><rect class="elknode" x="0" y="0" width="890" height="611" /><g id="sprotty_5" transform="translate(350, 155.5)" opacity="1"><rect class="elknode" x="0" y="0" width="200" height="60" /><text id="sprotty_6" class="elklabel" transform="translate(5, 22) translate(0, 0)" opacity="1">k8s_core_v1_config_map.this</text></g><g id="sprotty_7" transform="translate(130, 325.5)" opacity="1"><rect class="elknode" x="0" y="0" width="200" height="60" /><text id="sprotty_8" class="elklabel" transform="translate(5, 22) translate(0, 0)" opacity="1">k8s_core_v1_service_account.this</text></g><g id="sprotty_9" transform="translate(590, 401.2142857142857)" opacity="1"><rect class="elknode" x="0" y="0" width="200" height="60" /><text id="sprotty_10" class="elklabel" transform="translate(5, 22) translate(0, 0)" opacity="1">k8s_extensions_v1beta1_daemon_set.this</text></g><g id="sprotty_11" transform="translate(130, 245.5)" opacity="1"><rect class="elknode" x="0" y="0" width="200" height="60" /><text id="sprotty_12" class="elklabel" transform="translate(5, 22) translate(0, 0)" opacity="1">k8s_rbac_authorization_k8s_io_v1_cluster_role.this</text></g><g id="sprotty_13" transform="translate(350, 315.5)" opacity="1"><rect class="elknode" x="0" y="0" width="200" height="60" /><text id="sprotty_14" class="elklabel" transform="translate(5, 22) translate(0, 0)" opacity="1">k8s_rbac_authorization_k8s_io_v1_cluster_role_binding.this</text></g><g id="sprotty_15" transform="translate(130, 165.5)" opacity="1"><rect class="elknode" x="0" y="0" width="200" height="60" /><text id="sprotty_16" class="elklabel" transform="translate(5, 22) translate(0, 0)" opacity="1">local.labels</text></g><g id="sprotty_18" transform="translate(-16, 110)" opacity="1"><rect class="elkport" x="0" y="0" width="16" height="9" /><text id="sprotty_19" class="elklabel" transform="translate(-1, 10) translate(0, 0)" opacity="1">namespace</text></g><g id="sprotty_21" transform="translate(-16, 361)" opacity="1"><rect class="elkport" x="0" y="0" width="16" height="9" /><text id="sprotty_22" class="elklabel" transform="translate(-1, 10) translate(0, 0)" opacity="1">name</text></g><g id="sprotty_27" transform="translate(-16, 431)" opacity="1"><rect class="elkport" x="0" y="0" width="16" height="9" /><text id="sprotty_28" class="elklabel" transform="translate(-1, 10) translate(0, 0)" opacity="1">annotations</text></g><g id="sprotty_30" transform="translate(-16, 491)" opacity="1"><rect class="elkport" x="0" y="0" width="16" height="9" /><text id="sprotty_31" class="elklabel" transform="translate(-1, 10) translate(0, 0)" opacity="1">fluent_elasticsearch_host</text></g><g id="sprotty_33" transform="translate(-16, 551)" opacity="1"><rect class="elkport" x="0" y="0" width="16" height="9" /><text id="sprotty_34" class="elklabel" transform="translate(-1, 10) translate(0, 0)" opacity="1">fluent_elasticsearch_port</text></g><g id="sprotty_36" transform="translate(-16, 50)" opacity="1"><rect class="elkport" x="0" y="0" width="16" height="9" /><text id="sprotty_37" class="elklabel" transform="translate(-1, 10) translate(0, 0)" opacity="1">image</text></g><g id="sprotty_43" transform="translate(890, 426.7142857142857)" opacity="1"><rect class="elkport" x="0" y="0" width="16" height="9" /><text id="sprotty_44" class="elklabel" transform="translate(17, 10) translate(0, 0)" opacity="1">name</text></g><text id="sprotty_4" class="elklabel" transform="translate(0, -21) translate(0, 0)" opacity="1">modules/fluentbit-es</text><g id="sprotty_17" class="sprotty-edge" opacity="1"><path class="elkedge" d="M 330,195.5 L 350,195.5" /><path class="edge arrow" d="M 0,0 L 8,-3 L 8,3 Z" transform="rotate(180 350 195.5) translate(350 195.5)" /></g><g id="sprotty_20" class="sprotty-edge" opacity="1"><path class="elkedge" d="M 0,114.5 L 340,114.5 L 340,175.5 L 350,175.5" /><path class="edge arrow" d="M 0,0 L 8,-3 L 8,3 Z" transform="rotate(180 350 175.5) translate(350 175.5)" /></g><g id="sprotty_23" class="sprotty-edge" opacity="1"><path class="elkedge" d="M 0,365.5 L 130,365.5" /><path class="edge arrow" d="M 0,0 L 8,-3 L 8,3 Z" transform="rotate(180 130 365.5) translate(130 365.5)" /></g><g id="sprotty_24" class="sprotty-edge" opacity="1"><path class="elkedge" d="M 0,114.5 L 110,114.5 L 110,345.5 L 130,345.5" /><path class="edge arrow" d="M 0,0 L 8,-3 L 8,3 Z" transform="rotate(180 130 345.5) translate(130 345.5)" /><g id="sprotty_24_j0" transform="translate(110, 114.5)" opacity="1"><circle class="elkjunction" r="2" /></g></g><g id="sprotty_25" class="sprotty-edge" opacity="1"><path class="elkedge" d="M 550,185.5 L 570,185.5 L 570,418.3571428571429 L 590,418.3571428571429" /><path class="edge arrow" d="M 0,0 L 8,-3 L 8,3 Z" transform="rotate(180 590 418.3571428571429) translate(590 418.3571428571429)" /></g><g id="sprotty_26" class="sprotty-edge" opacity="1"><path class="elkedge" d="M 550,345.5 L 560,345.5 L 560,426.92857142857144 L 590,426.92857142857144" /><path class="edge arrow" d="M 0,0 L 8,-3 L 8,3 Z" transform="rotate(180 590 426.92857142857144) translate(590 426.92857142857144)" /></g><g id="sprotty_29" class="sprotty-edge" opacity="1"><path class="elkedge" d="M 0,435.5 L 590,435.5" /><path class="edge arrow" d="M 0,0 L 8,-3 L 8,3 Z" transform="rotate(180 590 435.5) translate(590 435.5)" /></g><g id="sprotty_32" class="sprotty-edge" opacity="1"><path class="elkedge" d="M 0,495.5 L 560,495.5 L 560,444.07142857142856 L 590,444.07142857142856" /><path class="edge arrow" d="M 0,0 L 8,-3 L 8,3 Z" transform="rotate(180 590 444.07142857142856) translate(590 444.07142857142856)" /></g><g id="sprotty_35" class="sprotty-edge" opacity="1"><path class="elkedge" d="M 0,555.5 L 570,555.5 L 570,452.6428571428571 L 590,452.6428571428571" /><path class="edge arrow" d="M 0,0 L 8,-3 L 8,3 Z" transform="rotate(180 590 452.6428571428571) translate(590 452.6428571428571)" /></g><g id="sprotty_38" class="sprotty-edge" opacity="1"><path class="elkedge" d="M 0,54.5 L 580,54.5 L 580,409.7857142857143 L 590,409.7857142857143" /><path class="edge arrow" d="M 0,0 L 8,-3 L 8,3 Z" transform="rotate(180 590 409.7857142857143) translate(590 409.7857142857143)" /></g><g id="sprotty_39" class="sprotty-edge" opacity="1"><path class="elkedge" d="M 0,365.5 L 120,365.5 L 120,275.5 L 130,275.5" /><path class="edge arrow" d="M 0,0 L 8,-3 L 8,3 Z" transform="rotate(180 130 275.5) translate(130 275.5)" /><g id="sprotty_39_j0" transform="translate(120, 365.5)" opacity="1"><circle class="elkjunction" r="2" /></g><g id="sprotty_39_j1" transform="translate(120, 275.5)" opacity="1"><circle class="elkjunction" r="2" /></g></g><g id="sprotty_40" class="sprotty-edge" opacity="1"><path class="elkedge" d="M 330,355.5 L 350,355.5" /><path class="edge arrow" d="M 0,0 L 8,-3 L 8,3 Z" transform="rotate(180 350 355.5) translate(350 355.5)" /></g><g id="sprotty_41" class="sprotty-edge" opacity="1"><path class="elkedge" d="M 330,275.5 L 340,275.5 L 340,335.5 L 350,335.5" /><path class="edge arrow" d="M 0,0 L 8,-3 L 8,3 Z" transform="rotate(180 350 335.5) translate(350 335.5)" /></g><g id="sprotty_42" class="sprotty-edge" opacity="1"><path class="elkedge" d="M 0,365.5 L 120,365.5 L 120,195.5 L 130,195.5" /><path class="edge arrow" d="M 0,0 L 8,-3 L 8,3 Z" transform="rotate(180 130 195.5) translate(130 195.5)" /></g><g id="sprotty_45" class="sprotty-edge" opacity="1"><path class="elkedge" d="M 790,431.2142857142857 L 890,431.2142857142857" /><path class="edge arrow" d="M 0,0 L 8,-3 L 8,3 Z" transform="rotate(180 890 431.2142857142857) translate(890 431.2142857142857)" /></g></g></g></svg>
