<svg id="sprotty_1" class="sprotty-graph sprotty" tabindex="1002" xmlns="http://www.w3.org/2000/svg" viewBox="0 0 1214 1342.642857142857"><style>.elknode {
    stroke: #448;
    stroke-width: 2;
    fill: #ddf;
}

.elkport {
    stroke: #448;
    stroke-width: 1;
    fill: #66c;
}

.elkedge {
    fill: none;
    stroke: #224;
    stroke-width: 1;
}

.elkedge.arrow {
    fill: #336;
}

.elklabel {
    stroke-width: 0;
    stroke: #000;
    fill: #000;
    font-family: sans-serif;
    font-size: 10pt;
    dominant-baseline: hanging;
}

.elkjunction {
    stroke: none;
    fill: #224;
}

.selected &gt; rect {
    stroke-width: 3;
}

.mouseover {
    stroke: #88f;
}
/*
 * Copyright (C) 2017 TypeFox and others.
 *
 * Licensed under the Apache License, Version 2.0 (the &quot;License&quot;); you may not use this file except in compliance with the License.
 * You may obtain a copy of the License at http://www.apache.org/licenses/LICENSE-2.0
 */

.sprotty {
    padding: 0px;
    font-family: &quot;Helvetica Neue&quot;, Helvetica, Arial, sans-serif;
}

.sprotty-hidden {
    display: block;
    position: absolute;
    width: 0px;
    height: 0px;
}

.sprotty-popup {
    font-family: &quot;Helvetica Neue&quot;, Helvetica, Arial, sans-serif;
    position: absolute;
    background: white;
    border-radius: 5px;
    border: 1px solid;
    max-width: 400px;
    min-width: 100px;
}

.sprotty-popup &gt; div {
    margin: 10px;
}

.sprotty-popup-closed {
    display: none;
}
</style><g transform="scale(1) translate(0,0)"><g id="sprotty_3" transform="translate(117, 71)" opacity="1"><rect class="elknode" x="0" y="0" rx="10" width="980" height="1221.642857142857" /><g id="sprotty_5" transform="translate(680, 722.5)" opacity="1"><rect class="elknode" x="0" y="0" rx="10" width="200" height="60" /><text id="sprotty_6" class="elklabel" transform="translate(5, 22) translate(0, 0)" opacity="1">k8s_apps_v1_stateful_set.this</text></g><g id="sprotty_7" transform="translate(350, 1031.642857142857)" opacity="1"><rect class="elknode" x="0" y="0" rx="10" width="200" height="60" /><text id="sprotty_8" class="elklabel" transform="translate(5, 22) translate(0, 0)" opacity="1">k8s_core_v1_service.this</text></g><g id="sprotty_9" transform="translate(350, 1111.642857142857)" opacity="1"><rect class="elknode" x="0" y="0" rx="10" width="200" height="60" /><text id="sprotty_10" class="elklabel" transform="translate(5, 22) translate(0, 0)" opacity="1">k8s_policy_v1beta1_pod_disruption_budget.this</text></g><g id="sprotty_51" transform="translate(100, 1101.642857142857)" opacity="1"><rect class="elknode" x="0" y="0" rx="10" width="200" height="60" /><text id="sprotty_52" class="elklabel" transform="translate(5, 22) translate(0, 0)" opacity="1">local.labels</text></g><g id="sprotty_12" transform="translate(-16, 530)" opacity="1"><rect class="elkport" x="0" y="0" width="16" height="9" /><text id="sprotty_13" class="elklabel" transform="translate(-1, 10) translate(0, 0)" opacity="1">dns_policy</text></g><g id="sprotty_15" transform="translate(-16, 110)" opacity="1"><rect class="elkport" x="0" y="0" width="16" height="9" /><text id="sprotty_16" class="elklabel" transform="translate(-1, 10) translate(0, 0)" opacity="1">heap_size</text></g><g id="sprotty_18" transform="translate(-16, 710)" opacity="1"><rect class="elkport" x="0" y="0" width="16" height="9" /><text id="sprotty_19" class="elklabel" transform="translate(-1, 10) translate(0, 0)" opacity="1">image</text></g><g id="sprotty_21" transform="translate(-16, 170)" opacity="1"><rect class="elkport" x="0" y="0" width="16" height="9" /><text id="sprotty_22" class="elklabel" transform="translate(-1, 10) translate(0, 0)" opacity="1">node_selector</text></g><g id="sprotty_24" transform="translate(-16, 770)" opacity="1"><rect class="elkport" x="0" y="0" width="16" height="9" /><text id="sprotty_25" class="elklabel" transform="translate(-1, 10) translate(0, 0)" opacity="1">priority_class_name</text></g><g id="sprotty_27" transform="translate(-16, 290)" opacity="1"><rect class="elkport" x="0" y="0" width="16" height="9" /><text id="sprotty_28" class="elklabel" transform="translate(-1, 10) translate(0, 0)" opacity="1">replicas</text></g><g id="sprotty_30" transform="translate(-16, 410)" opacity="1"><rect class="elkport" x="0" y="0" width="16" height="9" /><text id="sprotty_31" class="elklabel" transform="translate(-1, 10) translate(0, 0)" opacity="1">restart_policy</text></g><g id="sprotty_33" transform="translate(-16, 470)" opacity="1"><rect class="elkport" x="0" y="0" width="16" height="9" /><text id="sprotty_34" class="elklabel" transform="translate(-1, 10) translate(0, 0)" opacity="1">scheduler_name</text></g><g id="sprotty_36" transform="translate(-16, 590)" opacity="1"><rect class="elkport" x="0" y="0" width="16" height="9" /><text id="sprotty_37" class="elklabel" transform="translate(-1, 10) translate(0, 0)" opacity="1">service_account_name</text></g><g id="sprotty_39" transform="translate(-16, 50)" opacity="1"><rect class="elkport" x="0" y="0" width="16" height="9" /><text id="sprotty_40" class="elklabel" transform="translate(-1, 10) translate(0, 0)" opacity="1">storage</text></g><g id="sprotty_42" transform="translate(-16, 350)" opacity="1"><rect class="elkport" x="0" y="0" width="16" height="9" /><text id="sprotty_43" class="elklabel" transform="translate(-1, 10) translate(0, 0)" opacity="1">storage_class_name</text></g><g id="sprotty_45" transform="translate(-16, 230)" opacity="1"><rect class="elkport" x="0" y="0" width="16" height="9" /><text id="sprotty_46" class="elklabel" transform="translate(-1, 10) translate(0, 0)" opacity="1">termination_grace_period_seconds</text></g><g id="sprotty_48" transform="translate(-16, 650)" opacity="1"><rect class="elkport" x="0" y="0" width="16" height="9" /><text id="sprotty_49" class="elklabel" transform="translate(-1, 10) translate(0, 0)" opacity="1">volume_claim_template_name</text></g><g id="sprotty_54" transform="translate(-16, 830)" opacity="1"><rect class="elkport" x="0" y="0" width="16" height="9" /><text id="sprotty_55" class="elklabel" transform="translate(-1, 10) translate(0, 0)" opacity="1">annotations</text></g><g id="sprotty_57" transform="translate(-16, 1070)" opacity="1"><rect class="elkport" x="0" y="0" width="16" height="9" /><text id="sprotty_58" class="elklabel" transform="translate(-1, 10) translate(0, 0)" opacity="1">namespace</text></g><g id="sprotty_60" transform="translate(-16, 890)" opacity="1"><rect class="elkport" x="0" y="0" width="16" height="9" /><text id="sprotty_61" class="elklabel" transform="translate(-1, 10) translate(0, 0)" opacity="1">port</text></g><g id="sprotty_63" transform="translate(-16, 950)" opacity="1"><rect class="elkport" x="0" y="0" width="16" height="9" /><text id="sprotty_64" class="elklabel" transform="translate(-1, 10) translate(0, 0)" opacity="1">service_type</text></g><g id="sprotty_66" transform="translate(-16, 1010)" opacity="1"><rect class="elkport" x="0" y="0" width="16" height="9" /><text id="sprotty_67" class="elklabel" transform="translate(-1, 10) translate(0, 0)" opacity="1">session_affinity</text></g><g id="sprotty_70" transform="translate(-16, 1127.142857142857)" opacity="1"><rect class="elkport" x="0" y="0" width="16" height="9" /><text id="sprotty_71" class="elklabel" transform="translate(-1, 10) translate(0, 0)" opacity="1">name</text></g><g id="sprotty_73" transform="translate(980, 1123.142857142857)" opacity="1"><rect class="elkport" x="0" y="0" width="16" height="9" /><text id="sprotty_74" class="elklabel" transform="translate(17, 10) translate(0, 0)" opacity="1">cluster_ip</text></g><g id="sprotty_76" transform="translate(980, 1063.142857142857)" opacity="1"><rect class="elkport" x="0" y="0" width="16" height="9" /><text id="sprotty_77" class="elklabel" transform="translate(17, 10) translate(0, 0)" opacity="1">name</text></g><g id="sprotty_79" transform="translate(980, 1003.1428571428571)" opacity="1"><rect class="elkport" x="0" y="0" width="16" height="9" /><text id="sprotty_80" class="elklabel" transform="translate(17, 10) translate(0, 0)" opacity="1">port</text></g><g id="sprotty_82" transform="translate(980, 748)" opacity="1"><rect class="elkport" x="0" y="0" width="16" height="9" /><text id="sprotty_83" class="elklabel" transform="translate(17, 10) translate(0, 0)" opacity="1">statefulset_uid</text></g><text id="sprotty_4" class="elklabel" transform="translate(0, -21) translate(0, 0)" opacity="1">modules/elasticsearch</text><g id="sprotty_11" class="sprotty-edge" opacity="1"><path class="elkedge" d="M 550,1043.642857142857 L 560,1043.642857142857 L 560,778.5 L 680,778.5" /><path class="edge arrow" d="M 0,0 L 8,-3 L 8,3 Z" transform="rotate(180 680 778.5) translate(680 778.5)" /></g><g id="sprotty_14" class="sprotty-edge" opacity="1"><path class="elkedge" d="M 0,534.5 L 590,534.5 L 590,758.5 L 680,758.5" /><path class="edge arrow" d="M 0,0 L 8,-3 L 8,3 Z" transform="rotate(180 680 758.5) translate(680 758.5)" /></g><g id="sprotty_17" class="sprotty-edge" opacity="1"><path class="elkedge" d="M 0,114.5 L 660,114.5 L 660,730.5 L 680,730.5" /><path class="edge arrow" d="M 0,0 L 8,-3 L 8,3 Z" transform="rotate(180 680 730.5) translate(680 730.5)" /></g><g id="sprotty_20" class="sprotty-edge" opacity="1"><path class="elkedge" d="M 0,714.5 L 560,714.5 L 560,770.5 L 680,770.5" /><path class="edge arrow" d="M 0,0 L 8,-3 L 8,3 Z" transform="rotate(180 680 770.5) translate(680 770.5)" /></g><g id="sprotty_23" class="sprotty-edge" opacity="1"><path class="elkedge" d="M 0,174.5 L 650,174.5 L 650,734.5 L 680,734.5" /><path class="edge arrow" d="M 0,0 L 8,-3 L 8,3 Z" transform="rotate(180 680 734.5) translate(680 734.5)" /></g><g id="sprotty_26" class="sprotty-edge" opacity="1"><path class="elkedge" d="M 0,774.5 L 680,774.5" /><path class="edge arrow" d="M 0,0 L 8,-3 L 8,3 Z" transform="rotate(180 680 774.5) translate(680 774.5)" /></g><g id="sprotty_29" class="sprotty-edge" opacity="1"><path class="elkedge" d="M 0,294.5 L 630,294.5 L 630,742.5 L 680,742.5" /><path class="edge arrow" d="M 0,0 L 8,-3 L 8,3 Z" transform="rotate(180 680 742.5) translate(680 742.5)" /></g><g id="sprotty_32" class="sprotty-edge" opacity="1"><path class="elkedge" d="M 0,414.5 L 610,414.5 L 610,750.5 L 680,750.5" /><path class="edge arrow" d="M 0,0 L 8,-3 L 8,3 Z" transform="rotate(180 680 750.5) translate(680 750.5)" /></g><g id="sprotty_35" class="sprotty-edge" opacity="1"><path class="elkedge" d="M 0,474.5 L 600,474.5 L 600,754.5 L 680,754.5" /><path class="edge arrow" d="M 0,0 L 8,-3 L 8,3 Z" transform="rotate(180 680 754.5) translate(680 754.5)" /></g><g id="sprotty_38" class="sprotty-edge" opacity="1"><path class="elkedge" d="M 0,594.5 L 580,594.5 L 580,762.5 L 680,762.5" /><path class="edge arrow" d="M 0,0 L 8,-3 L 8,3 Z" transform="rotate(180 680 762.5) translate(680 762.5)" /></g><g id="sprotty_41" class="sprotty-edge" opacity="1"><path class="elkedge" d="M 0,54.5 L 670,54.5 L 670,726.5 L 680,726.5" /><path class="edge arrow" d="M 0,0 L 8,-3 L 8,3 Z" transform="rotate(180 680 726.5) translate(680 726.5)" /></g><g id="sprotty_44" class="sprotty-edge" opacity="1"><path class="elkedge" d="M 0,354.5 L 620,354.5 L 620,746.5 L 680,746.5" /><path class="edge arrow" d="M 0,0 L 8,-3 L 8,3 Z" transform="rotate(180 680 746.5) translate(680 746.5)" /></g><g id="sprotty_47" class="sprotty-edge" opacity="1"><path class="elkedge" d="M 0,234.5 L 640,234.5 L 640,738.5 L 680,738.5" /><path class="edge arrow" d="M 0,0 L 8,-3 L 8,3 Z" transform="rotate(180 680 738.5) translate(680 738.5)" /></g><g id="sprotty_50" class="sprotty-edge" opacity="1"><path class="elkedge" d="M 0,654.5 L 570,654.5 L 570,766.5 L 680,766.5" /><path class="edge arrow" d="M 0,0 L 8,-3 L 8,3 Z" transform="rotate(180 680 766.5) translate(680 766.5)" /></g><g id="sprotty_53" class="sprotty-edge" opacity="1"><path class="elkedge" d="M 300,1121.642857142857 L 310,1121.642857142857 L 310,1083.0714285714284 L 350,1083.0714285714284" /><path class="edge arrow" d="M 0,0 L 8,-3 L 8,3 Z" transform="rotate(180 350 1083.0714285714284) translate(350 1083.0714285714284)" /></g><g id="sprotty_56" class="sprotty-edge" opacity="1"><path class="elkedge" d="M 0,834.5 L 340,834.5 L 340,1040.2142857142858 L 350,1040.2142857142858" /><path class="edge arrow" d="M 0,0 L 8,-3 L 8,3 Z" transform="rotate(180 350 1040.2142857142858) translate(350 1040.2142857142858)" /></g><g id="sprotty_59" class="sprotty-edge" opacity="1"><path class="elkedge" d="M 0,1074.5 L 350,1074.5" /><path class="edge arrow" d="M 0,0 L 8,-3 L 8,3 Z" transform="rotate(180 350 1074.5) translate(350 1074.5)" /></g><g id="sprotty_62" class="sprotty-edge" opacity="1"><path class="elkedge" d="M 0,894.5 L 330,894.5 L 330,1048.7857142857142 L 350,1048.7857142857142" /><path class="edge arrow" d="M 0,0 L 8,-3 L 8,3 Z" transform="rotate(180 350 1048.7857142857142) translate(350 1048.7857142857142)" /></g><g id="sprotty_65" class="sprotty-edge" opacity="1"><path class="elkedge" d="M 0,954.5 L 320,954.5 L 320,1057.3571428571427 L 350,1057.3571428571427" /><path class="edge arrow" d="M 0,0 L 8,-3 L 8,3 Z" transform="rotate(180 350 1057.3571428571427) translate(350 1057.3571428571427)" /></g><g id="sprotty_68" class="sprotty-edge" opacity="1"><path class="elkedge" d="M 0,1014.5 L 310,1014.5 L 310,1065.9285714285713 L 350,1065.9285714285713" /><path class="edge arrow" d="M 0,0 L 8,-3 L 8,3 Z" transform="rotate(180 350 1065.9285714285713) translate(350 1065.9285714285713)" /></g><g id="sprotty_69" class="sprotty-edge" opacity="1"><path class="elkedge" d="M 300,1141.642857142857 L 350,1141.642857142857" /><path class="edge arrow" d="M 0,0 L 8,-3 L 8,3 Z" transform="rotate(180 350 1141.642857142857) translate(350 1141.642857142857)" /></g><g id="sprotty_72" class="sprotty-edge" opacity="1"><path class="elkedge" d="M 0,1131.642857142857 L 100,1131.642857142857" /><path class="edge arrow" d="M 0,0 L 8,-3 L 8,3 Z" transform="rotate(180 100 1131.642857142857) translate(100 1131.642857142857)" /></g><g id="sprotty_75" class="sprotty-edge" opacity="1"><path class="elkedge" d="M 550,1079.642857142857 L 560,1079.642857142857 L 560,1127.642857142857 L 980,1127.642857142857" /><path class="edge arrow" d="M 0,0 L 8,-3 L 8,3 Z" transform="rotate(180 980 1127.642857142857) translate(980 1127.642857142857)" /></g><g id="sprotty_78" class="sprotty-edge" opacity="1"><path class="elkedge" d="M 550,1067.642857142857 L 980,1067.642857142857" /><path class="edge arrow" d="M 0,0 L 8,-3 L 8,3 Z" transform="rotate(180 980 1067.642857142857) translate(980 1067.642857142857)" /></g><g id="sprotty_81" class="sprotty-edge" opacity="1"><path class="elkedge" d="M 550,1055.642857142857 L 570,1055.642857142857 L 570,1007.6428571428571 L 980,1007.6428571428571" /><path class="edge arrow" d="M 0,0 L 8,-3 L 8,3 Z" transform="rotate(180 980 1007.6428571428571) translate(980 1007.6428571428571)" /></g><g id="sprotty_84" class="sprotty-edge" opacity="1"><path class="elkedge" d="M 880,752.5 L 980,752.5" /><path class="edge arrow" d="M 0,0 L 8,-3 L 8,3 Z" transform="rotate(180 980 752.5) translate(980 752.5)" /></g></g></g></svg>
