<svg id="sprotty_1" class="sprotty-graph sprotty" tabindex="1002" xmlns="http://www.w3.org/2000/svg" viewBox="0 0 3553 3193.5"><style>
.elknode {
    stroke: #448;
    stroke-width: 2;
    fill: #ddf;
    fill-opacity: 0.5;
}

.elkport {
    stroke: #448;
    stroke-width: 1;
    fill: #66c;
}

.elkedge {
    fill: none;
    stroke: #88f;
    stroke-width: 8;
    stroke-opacity: 0.3;
    pointer-events: stroke;
    stroke-linejoin: round;
}

.elkedge:hover {
    stroke: #448;
    stroke-width: 8;
    stroke-opacity: 1;
    stroke-dasharray: 16px;
    stroke-dashoffset: 32px;
    animation: stroke 0.5s linear infinite;
}

@keyframes stroke {
    to {
        stroke-dashoffset: 0;
    }
}

.elkedge.arrow {
    fill: #336;
}

.elklabel {
    stroke-width: 0;
    stroke: #000;
    fill: #000;
    font-family: sans-serif;
    font-size: 10pt;
    dominant-baseline: hanging;
}

.elklabel:hover {
    font-size: 24pt;
}

.elkjunction {
    stroke: none;
    fill: #224;
}

.selected &gt; rect {
    stroke-width: 3;
}

.mouseover {
    stroke: #88f;
}
/*
 * Copyright (C) 2017 TypeFox and others.
 *
 * Licensed under the Apache License, Version 2.0 (the &quot;License&quot;); you may not use this file except in compliance with the License.
 * You may obtain a copy of the License at http://www.apache.org/licenses/LICENSE-2.0
 */

.sprotty {
    padding: 0px;
    font-family: &quot;Helvetica Neue&quot;, Helvetica, Arial, sans-serif;
}

.sprotty-hidden {
    display: block;
    position: absolute;
    width: 0px;
    height: 0px;
}

.sprotty-popup {
    font-family: &quot;Helvetica Neue&quot;, Helvetica, Arial, sans-serif;
    position: absolute;
    background: white;
    border-radius: 5px;
    border: 1px solid;
    max-width: 400px;
    min-width: 100px;
}

.sprotty-popup &gt; div {
    margin: 10px;
}

.sprotty-popup-closed {
    display: none;
}
</style><g transform="scale(1) translate(0,0)"><g id="sprotty_3" transform="translate(117, 71)" opacity="1"><rect class="elknode" x="0" y="0" rx="10" width="3319" height="3072.5" /><g id="sprotty_5" transform="translate(250, 2772.5)" opacity="1"><rect class="elknode" x="0" y="0" rx="10" width="200" height="60" /><text id="sprotty_6" class="elklabel" transform="translate(5, 22) translate(0, 0)" opacity="1">k8s_core_v1_namespace.this</text></g><g id="sprotty_10" transform="translate(1139.3333333333333, 2902.5)" opacity="1"><rect class="elknode" x="0" y="0" rx="10" width="200" height="60" /><text id="sprotty_11" class="elklabel" transform="translate(5, 22) translate(0, 0)" opacity="1">k8s_core_v1_persistent_volume_claim.this</text></g><g id="sprotty_16" transform="translate(2318, 2892.5)" opacity="1"><rect class="elknode" x="0" y="0" rx="10" width="200" height="60" /><text id="sprotty_17" class="elklabel" transform="translate(5, 22) translate(0, 0)" opacity="1">k8s_core_v1_pod.nginx</text></g><g id="sprotty_20" transform="translate(2318, 661)" opacity="1"><rect class="elknode" x="0" y="0" rx="10" width="200" height="60" /><text id="sprotty_21" class="elklabel" transform="translate(5, 22) translate(0, 0)" opacity="1">k8s_storage_k8s_io_v1_storage_class.this</text></g><g id="sprotty_22" transform="translate(911.3333333333333, 636.5)" opacity="1"><rect class="elknode" x="0" y="0" rx="10" width="884" height="831" /><g id="sprotty_205" transform="translate(100, 50)" opacity="1"><rect class="elknode" x="0" y="0" rx="10" width="200" height="60" /><text id="sprotty_206" class="elklabel" transform="translate(5, 22) translate(0, 0)" opacity="1">local.parameters</text></g><g id="sprotty_225" transform="translate(367, 71)" opacity="1"><rect class="elknode" x="0" y="0" rx="10" width="400" height="710" /><g id="sprotty_227" transform="translate(100, 50)" opacity="1"><rect class="elknode" x="0" y="0" rx="10" width="200" height="60" /><text id="sprotty_228" class="elklabel" transform="translate(5, 22) translate(0, 0)" opacity="1">k8s_apps_v1_deployment.this</text></g><g id="sprotty_229" transform="translate(100, 160)" opacity="1"><rect class="elknode" x="0" y="0" rx="10" width="200" height="60" /><text id="sprotty_230" class="elklabel" transform="translate(5, 22) translate(0, 0)" opacity="1">local.k8s_apps_v1_deployment_parameters</text></g><g id="sprotty_232" transform="translate(100, 270)" opacity="1"><rect class="elknode" x="0" y="0" rx="10" width="200" height="60" /><text id="sprotty_233" class="elklabel" transform="translate(5, 22) translate(0, 0)" opacity="1">k8s_core_v1_service.this</text></g><g id="sprotty_234" transform="translate(100, 380)" opacity="1"><rect class="elknode" x="0" y="0" rx="10" width="200" height="60" /><text id="sprotty_235" class="elklabel" transform="translate(5, 22) translate(0, 0)" opacity="1">local.k8s_core_v1_service_parameters</text></g><g id="sprotty_237" transform="translate(100, 490)" opacity="1"><rect class="elknode" x="0" y="0" rx="10" width="200" height="60" /><text id="sprotty_238" class="elklabel" transform="translate(5, 22) translate(0, 0)" opacity="1">local.selector</text></g><g id="sprotty_240" transform="translate(100, 600)" opacity="1"><rect class="elknode" x="0" y="0" rx="10" width="200" height="60" /><text id="sprotty_241" class="elklabel" transform="translate(5, 22) translate(0, 0)" opacity="1">local.labels</text></g><g id="sprotty_243" transform="translate(-16, 50)" opacity="1"><rect class="elkport" x="0" y="0" width="16" height="9" /><text id="sprotty_244" class="elklabel" transform="translate(-1, 10) translate(0, 0)" opacity="1">parameters</text></g><g id="sprotty_247" transform="translate(400, 50)" opacity="1"><rect class="elkport" x="0" y="0" width="16" height="9" /><text id="sprotty_248" class="elklabel" transform="translate(17, 10) translate(0, 0)" opacity="1">deployment</text></g><g id="sprotty_250" transform="translate(400, 110)" opacity="1"><rect class="elkport" x="0" y="0" width="16" height="9" /><text id="sprotty_251" class="elklabel" transform="translate(17, 10) translate(0, 0)" opacity="1">name</text></g><g id="sprotty_253" transform="translate(400, 170)" opacity="1"><rect class="elkport" x="0" y="0" width="16" height="9" /><text id="sprotty_254" class="elklabel" transform="translate(17, 10) translate(0, 0)" opacity="1">service</text></g><text id="sprotty_226" class="elklabel" transform="translate(0, -21) translate(0, 0)" opacity="1">deployment-service</text></g><g id="sprotty_24" transform="translate(884, 50)" opacity="1"><rect class="elkport" x="0" y="0" width="16" height="9" /><text id="sprotty_25" class="elklabel" transform="translate(17, 10) translate(0, 0)" opacity="1">service</text></g><g id="sprotty_207" transform="translate(-16, 50)" opacity="1"><rect class="elkport" x="0" y="0" width="16" height="9" /><text id="sprotty_208" class="elklabel" transform="translate(-1, 10) translate(0, 0)" opacity="1">env</text></g><g id="sprotty_210" transform="translate(-16, 110)" opacity="1"><rect class="elkport" x="0" y="0" width="16" height="9" /><text id="sprotty_211" class="elklabel" transform="translate(-1, 10) translate(0, 0)" opacity="1">image</text></g><g id="sprotty_213" transform="translate(-16, 170)" opacity="1"><rect class="elkport" x="0" y="0" width="16" height="9" /><text id="sprotty_214" class="elklabel" transform="translate(-1, 10) translate(0, 0)" opacity="1">name</text></g><g id="sprotty_216" transform="translate(-16, 230)" opacity="1"><rect class="elkport" x="0" y="0" width="16" height="9" /><text id="sprotty_217" class="elklabel" transform="translate(-1, 10) translate(0, 0)" opacity="1">namespace</text></g><g id="sprotty_219" transform="translate(-16, 290)" opacity="1"><rect class="elkport" x="0" y="0" width="16" height="9" /><text id="sprotty_220" class="elklabel" transform="translate(-1, 10) translate(0, 0)" opacity="1">ports</text></g><g id="sprotty_222" transform="translate(-16, 350)" opacity="1"><rect class="elkport" x="0" y="0" width="16" height="9" /><text id="sprotty_223" class="elklabel" transform="translate(-1, 10) translate(0, 0)" opacity="1">replicas</text></g><g id="sprotty_257" transform="translate(-16, 410)" opacity="1"><rect class="elkport" x="0" y="0" width="16" height="9" /><text id="sprotty_258" class="elklabel" transform="translate(-1, 10) translate(0, 0)" opacity="1">overrides</text></g><g id="sprotty_260" transform="translate(884, 110)" opacity="1"><rect class="elkport" x="0" y="0" width="16" height="9" /><text id="sprotty_261" class="elklabel" transform="translate(17, 10) translate(0, 0)" opacity="1">deployment</text></g><g id="sprotty_263" transform="translate(884, 170)" opacity="1"><rect class="elkport" x="0" y="0" width="16" height="9" /><text id="sprotty_264" class="elklabel" transform="translate(17, 10) translate(0, 0)" opacity="1">name</text></g><text id="sprotty_23" class="elklabel" transform="translate(0, -21) translate(0, 0)" opacity="1">master</text></g><g id="sprotty_27" transform="translate(767, 1600.5)" opacity="1"><rect class="elknode" x="0" y="0" rx="10" width="1334" height="1172" /><g id="sprotty_29" transform="translate(117, 71)" opacity="1"><rect class="elknode" x="0" y="0" rx="10" width="650" height="490" /><g id="sprotty_31" transform="translate(100, 50)" opacity="1"><rect class="elknode" x="0" y="0" rx="10" width="200" height="60" /><text id="sprotty_32" class="elklabel" transform="translate(5, 22) translate(0, 0)" opacity="1">k8s_apps_v1_deployment.csi-attacher</text></g><g id="sprotty_48" transform="translate(350, 50)" opacity="1"><rect class="elknode" x="0" y="0" rx="10" width="200" height="60" /><text id="sprotty_49" class="elklabel" transform="translate(5, 22) translate(0, 0)" opacity="1">k8s_core_v1_service.csi-attacher</text></g><g id="sprotty_52" transform="translate(100, 160)" opacity="1"><rect class="elknode" x="0" y="0" rx="10" width="200" height="60" /><text id="sprotty_53" class="elklabel" transform="translate(5, 22) translate(0, 0)" opacity="1">k8s_core_v1_service_account.csi-attacher</text></g><g id="sprotty_56" transform="translate(350, 160)" opacity="1"><rect class="elknode" x="0" y="0" rx="10" width="200" height="60" /><text id="sprotty_57" class="elklabel" transform="translate(5, 22) translate(0, 0)" opacity="1">k8s_rbac_authorization_k8s_io_v1_cluster_role.external-attacher-runner</text></g><g id="sprotty_59" transform="translate(100, 270)" opacity="1"><rect class="elknode" x="0" y="0" rx="10" width="200" height="60" /><text id="sprotty_60" class="elklabel" transform="translate(5, 22) translate(0, 0)" opacity="1">k8s_rbac_authorization_k8s_io_v1_cluster_role_binding.csi-attacher-role</text></g><g id="sprotty_63" transform="translate(350, 270)" opacity="1"><rect class="elknode" x="0" y="0" rx="10" width="200" height="60" /><text id="sprotty_64" class="elklabel" transform="translate(5, 22) translate(0, 0)" opacity="1">k8s_rbac_authorization_k8s_io_v1_role.external-attacher-cfg</text></g><g id="sprotty_67" transform="translate(100, 380)" opacity="1"><rect class="elknode" x="0" y="0" rx="10" width="200" height="60" /><text id="sprotty_68" class="elklabel" transform="translate(5, 22) translate(0, 0)" opacity="1">k8s_rbac_authorization_k8s_io_v1_role_binding.csi-attacher-role-cfg</text></g><g id="sprotty_33" transform="translate(-16, 50)" opacity="1"><rect class="elkport" x="0" y="0" width="16" height="9" /><text id="sprotty_34" class="elklabel" transform="translate(-1, 10) translate(0, 0)" opacity="1">args</text></g><g id="sprotty_36" transform="translate(-16, 110)" opacity="1"><rect class="elkport" x="0" y="0" width="16" height="9" /><text id="sprotty_37" class="elklabel" transform="translate(-1, 10) translate(0, 0)" opacity="1">command</text></g><g id="sprotty_39" transform="translate(-16, 170)" opacity="1"><rect class="elkport" x="0" y="0" width="16" height="9" /><text id="sprotty_40" class="elklabel" transform="translate(-1, 10) translate(0, 0)" opacity="1">image</text></g><g id="sprotty_42" transform="translate(-16, 230)" opacity="1"><rect class="elkport" x="0" y="0" width="16" height="9" /><text id="sprotty_43" class="elklabel" transform="translate(-1, 10) translate(0, 0)" opacity="1">name</text></g><g id="sprotty_45" transform="translate(-16, 290)" opacity="1"><rect class="elkport" x="0" y="0" width="16" height="9" /><text id="sprotty_46" class="elklabel" transform="translate(-1, 10) translate(0, 0)" opacity="1">namespace</text></g><text id="sprotty_30" class="elklabel" transform="translate(0, -21) translate(0, 0)" opacity="1">attacher</text></g><g id="sprotty_86" transform="translate(834, 71)" opacity="1"><rect class="elknode" x="0" y="0" rx="10" width="400" height="490" /><g id="sprotty_88" transform="translate(100, 50)" opacity="1"><rect class="elknode" x="0" y="0" rx="10" width="200" height="60" /><text id="sprotty_89" class="elklabel" transform="translate(5, 22) translate(0, 0)" opacity="1">k8s_apps_v1beta2_daemon_set.csi-nodeplugin</text></g><g id="sprotty_102" transform="translate(100, 160)" opacity="1"><rect class="elknode" x="0" y="0" rx="10" width="200" height="60" /><text id="sprotty_103" class="elklabel" transform="translate(5, 22) translate(0, 0)" opacity="1">k8s_core_v1_service_account.csi-nodeplugin</text></g><g id="sprotty_106" transform="translate(100, 270)" opacity="1"><rect class="elknode" x="0" y="0" rx="10" width="200" height="60" /><text id="sprotty_107" class="elklabel" transform="translate(5, 22) translate(0, 0)" opacity="1">k8s_rbac_authorization_k8s_io_v1_cluster_role.csi-nodeplugin</text></g><g id="sprotty_109" transform="translate(100, 380)" opacity="1"><rect class="elknode" x="0" y="0" rx="10" width="200" height="60" /><text id="sprotty_110" class="elklabel" transform="translate(5, 22) translate(0, 0)" opacity="1">k8s_rbac_authorization_k8s_io_v1_cluster_role_binding.csi-nodeplugin</text></g><g id="sprotty_90" transform="translate(-16, 50)" opacity="1"><rect class="elkport" x="0" y="0" width="16" height="9" /><text id="sprotty_91" class="elklabel" transform="translate(-1, 10) translate(0, 0)" opacity="1">command</text></g><g id="sprotty_93" transform="translate(-16, 110)" opacity="1"><rect class="elkport" x="0" y="0" width="16" height="9" /><text id="sprotty_94" class="elklabel" transform="translate(-1, 10) translate(0, 0)" opacity="1">image</text></g><g id="sprotty_96" transform="translate(-16, 170)" opacity="1"><rect class="elkport" x="0" y="0" width="16" height="9" /><text id="sprotty_97" class="elklabel" transform="translate(-1, 10) translate(0, 0)" opacity="1">name</text></g><g id="sprotty_99" transform="translate(-16, 230)" opacity="1"><rect class="elkport" x="0" y="0" width="16" height="9" /><text id="sprotty_100" class="elklabel" transform="translate(-1, 10) translate(0, 0)" opacity="1">namespace</text></g><g id="sprotty_113" transform="translate(-16, 290)" opacity="1"><rect class="elkport" x="0" y="0" width="16" height="9" /><text id="sprotty_114" class="elklabel" transform="translate(-1, 10) translate(0, 0)" opacity="1">args</text></g><text id="sprotty_87" class="elklabel" transform="translate(0, -21) translate(0, 0)" opacity="1">nodeplugin</text></g><g id="sprotty_120" transform="translate(117, 632)" opacity="1"><rect class="elknode" x="0" y="0" rx="10" width="650" height="490" /><g id="sprotty_122" transform="translate(100, 50)" opacity="1"><rect class="elknode" x="0" y="0" rx="10" width="200" height="60" /><text id="sprotty_123" class="elklabel" transform="translate(5, 22) translate(0, 0)" opacity="1">k8s_apps_v1_deployment.csi-provisioner</text></g><g id="sprotty_139" transform="translate(350, 50)" opacity="1"><rect class="elknode" x="0" y="0" rx="10" width="200" height="60" /><text id="sprotty_140" class="elklabel" transform="translate(5, 22) translate(0, 0)" opacity="1">k8s_core_v1_service.csi-provisioner</text></g><g id="sprotty_143" transform="translate(100, 160)" opacity="1"><rect class="elknode" x="0" y="0" rx="10" width="200" height="60" /><text id="sprotty_144" class="elklabel" transform="translate(5, 22) translate(0, 0)" opacity="1">k8s_core_v1_service_account.csi-provisioner</text></g><g id="sprotty_147" transform="translate(350, 160)" opacity="1"><rect class="elknode" x="0" y="0" rx="10" width="200" height="60" /><text id="sprotty_148" class="elklabel" transform="translate(5, 22) translate(0, 0)" opacity="1">k8s_rbac_authorization_k8s_io_v1_cluster_role.external-provisioner-runner</text></g><g id="sprotty_150" transform="translate(100, 270)" opacity="1"><rect class="elknode" x="0" y="0" rx="10" width="200" height="60" /><text id="sprotty_151" class="elklabel" transform="translate(5, 22) translate(0, 0)" opacity="1">k8s_rbac_authorization_k8s_io_v1_cluster_role_binding.csi-provisioner-role</text></g><g id="sprotty_154" transform="translate(350, 270)" opacity="1"><rect class="elknode" x="0" y="0" rx="10" width="200" height="60" /><text id="sprotty_155" class="elklabel" transform="translate(5, 22) translate(0, 0)" opacity="1">k8s_rbac_authorization_k8s_io_v1_role.external-provisioner-cfg</text></g><g id="sprotty_158" transform="translate(100, 380)" opacity="1"><rect class="elknode" x="0" y="0" rx="10" width="200" height="60" /><text id="sprotty_159" class="elklabel" transform="translate(5, 22) translate(0, 0)" opacity="1">k8s_rbac_authorization_k8s_io_v1_role_binding.csi-provisioner-role-cfg</text></g><g id="sprotty_124" transform="translate(-16, 50)" opacity="1"><rect class="elkport" x="0" y="0" width="16" height="9" /><text id="sprotty_125" class="elklabel" transform="translate(-1, 10) translate(0, 0)" opacity="1">args</text></g><g id="sprotty_127" transform="translate(-16, 110)" opacity="1"><rect class="elkport" x="0" y="0" width="16" height="9" /><text id="sprotty_128" class="elklabel" transform="translate(-1, 10) translate(0, 0)" opacity="1">command</text></g><g id="sprotty_130" transform="translate(-16, 170)" opacity="1"><rect class="elkport" x="0" y="0" width="16" height="9" /><text id="sprotty_131" class="elklabel" transform="translate(-1, 10) translate(0, 0)" opacity="1">image</text></g><g id="sprotty_133" transform="translate(-16, 230)" opacity="1"><rect class="elkport" x="0" y="0" width="16" height="9" /><text id="sprotty_134" class="elklabel" transform="translate(-1, 10) translate(0, 0)" opacity="1">name</text></g><g id="sprotty_136" transform="translate(-16, 290)" opacity="1"><rect class="elkport" x="0" y="0" width="16" height="9" /><text id="sprotty_137" class="elklabel" transform="translate(-1, 10) translate(0, 0)" opacity="1">namespace</text></g><text id="sprotty_121" class="elklabel" transform="translate(0, -21) translate(0, 0)" opacity="1">provisioner</text></g><g id="sprotty_71" transform="translate(-16, 50)" opacity="1"><rect class="elkport" x="0" y="0" width="16" height="9" /><text id="sprotty_72" class="elklabel" transform="translate(-1, 10) translate(0, 0)" opacity="1">args</text></g><g id="sprotty_74" transform="translate(-16, 110)" opacity="1"><rect class="elkport" x="0" y="0" width="16" height="9" /><text id="sprotty_75" class="elklabel" transform="translate(-1, 10) translate(0, 0)" opacity="1">command</text></g><g id="sprotty_77" transform="translate(-16, 170)" opacity="1"><rect class="elkport" x="0" y="0" width="16" height="9" /><text id="sprotty_78" class="elklabel" transform="translate(-1, 10) translate(0, 0)" opacity="1">image</text></g><g id="sprotty_80" transform="translate(-16, 230)" opacity="1"><rect class="elkport" x="0" y="0" width="16" height="9" /><text id="sprotty_81" class="elklabel" transform="translate(-1, 10) translate(0, 0)" opacity="1">name</text></g><g id="sprotty_83" transform="translate(-16, 290)" opacity="1"><rect class="elkport" x="0" y="0" width="16" height="9" /><text id="sprotty_84" class="elklabel" transform="translate(-1, 10) translate(0, 0)" opacity="1">namespace</text></g><text id="sprotty_28" class="elklabel" transform="translate(0, -21) translate(0, 0)" opacity="1">csi</text></g><g id="sprotty_168" transform="translate(2439, 71)" opacity="1"><rect class="elknode" x="0" y="0" rx="10" width="400" height="490" /><g id="sprotty_170" transform="translate(100, 50)" opacity="1"><rect class="elknode" x="0" y="0" rx="10" width="200" height="60" /><text id="sprotty_171" class="elklabel" transform="translate(5, 22) translate(0, 0)" opacity="1">k8s_extensions_v1beta1_ingress.this</text></g><g id="sprotty_172" transform="translate(100, 160)" opacity="1"><rect class="elknode" x="0" y="0" rx="10" width="200" height="60" /><text id="sprotty_173" class="elklabel" transform="translate(5, 22) translate(0, 0)" opacity="1">local.k8s_extensions_v1beta1_ingress_parameters</text></g><g id="sprotty_175" transform="translate(100, 270)" opacity="1"><rect class="elknode" x="0" y="0" rx="10" width="200" height="60" /><text id="sprotty_176" class="elklabel" transform="translate(5, 22) translate(0, 0)" opacity="1">local.parameters</text></g><g id="sprotty_181" transform="translate(100, 380)" opacity="1"><rect class="elknode" x="0" y="0" rx="10" width="200" height="60" /><text id="sprotty_182" class="elklabel" transform="translate(5, 22) translate(0, 0)" opacity="1">local.labels</text></g><g id="sprotty_178" transform="translate(-16, 50)" opacity="1"><rect class="elkport" x="0" y="0" width="16" height="9" /><text id="sprotty_179" class="elklabel" transform="translate(-1, 10) translate(0, 0)" opacity="1">overrides</text></g><g id="sprotty_183" transform="translate(-16, 110)" opacity="1"><rect class="elkport" x="0" y="0" width="16" height="9" /><text id="sprotty_184" class="elklabel" transform="translate(-1, 10) translate(0, 0)" opacity="1">name</text></g><g id="sprotty_187" transform="translate(-16, 170)" opacity="1"><rect class="elkport" x="0" y="0" width="16" height="9" /><text id="sprotty_188" class="elklabel" transform="translate(-1, 10) translate(0, 0)" opacity="1">annotations</text></g><g id="sprotty_190" transform="translate(-16, 230)" opacity="1"><rect class="elkport" x="0" y="0" width="16" height="9" /><text id="sprotty_191" class="elklabel" transform="translate(-1, 10) translate(0, 0)" opacity="1">ingress_class</text></g><g id="sprotty_193" transform="translate(-16, 290)" opacity="1"><rect class="elkport" x="0" y="0" width="16" height="9" /><text id="sprotty_194" class="elklabel" transform="translate(-1, 10) translate(0, 0)" opacity="1">namespace</text></g><g id="sprotty_196" transform="translate(-16, 350)" opacity="1"><rect class="elkport" x="0" y="0" width="16" height="9" /><text id="sprotty_197" class="elklabel" transform="translate(-1, 10) translate(0, 0)" opacity="1">rules</text></g><g id="sprotty_199" transform="translate(400, 50)" opacity="1"><rect class="elkport" x="0" y="0" width="16" height="9" /><text id="sprotty_200" class="elklabel" transform="translate(17, 10) translate(0, 0)" opacity="1">rules</text></g><text id="sprotty_169" class="elklabel" transform="translate(0, -21) translate(0, 0)" opacity="1">ingress-rules</text></g><g id="sprotty_269" transform="translate(2318, 1223)" opacity="1"><rect class="elknode" x="0" y="0" rx="10" width="884" height="611" /><g id="sprotty_271" transform="translate(100, 50)" opacity="1"><rect class="elknode" x="0" y="0" rx="10" width="200" height="60" /><text id="sprotty_272" class="elklabel" transform="translate(5, 22) translate(0, 0)" opacity="1">local.parameters</text></g><g id="sprotty_291" transform="translate(367, 71)" opacity="1"><rect class="elknode" x="0" y="0" rx="10" width="400" height="490" /><g id="sprotty_293" transform="translate(100, 50)" opacity="1"><rect class="elknode" x="0" y="0" rx="10" width="200" height="60" /><text id="sprotty_294" class="elklabel" transform="translate(5, 22) translate(0, 0)" opacity="1">k8s_apps_v1_daemon_set.this</text></g><g id="sprotty_295" transform="translate(100, 160)" opacity="1"><rect class="elknode" x="0" y="0" rx="10" width="200" height="60" /><text id="sprotty_296" class="elklabel" transform="translate(5, 22) translate(0, 0)" opacity="1">local.k8s_apps_v1_daemon_set_parameters</text></g><g id="sprotty_298" transform="translate(100, 270)" opacity="1"><rect class="elknode" x="0" y="0" rx="10" width="200" height="60" /><text id="sprotty_299" class="elklabel" transform="translate(5, 22) translate(0, 0)" opacity="1">local.selector</text></g><g id="sprotty_301" transform="translate(100, 380)" opacity="1"><rect class="elknode" x="0" y="0" rx="10" width="200" height="60" /><text id="sprotty_302" class="elklabel" transform="translate(5, 22) translate(0, 0)" opacity="1">local.labels</text></g><g id="sprotty_303" transform="translate(-16, 50)" opacity="1"><rect class="elkport" x="0" y="0" width="16" height="9" /><text id="sprotty_304" class="elklabel" transform="translate(-1, 10) translate(0, 0)" opacity="1">parameters</text></g><g id="sprotty_307" transform="translate(400, 50)" opacity="1"><rect class="elkport" x="0" y="0" width="16" height="9" /><text id="sprotty_308" class="elklabel" transform="translate(17, -1) translate(0, 0)" opacity="1">daemonset</text></g><g id="sprotty_310" transform="translate(400, 110)" opacity="1"><rect class="elkport" x="0" y="0" width="16" height="9" /><text id="sprotty_311" class="elklabel" transform="translate(17, 10) translate(0, 0)" opacity="1">name</text></g><text id="sprotty_292" class="elklabel" transform="translate(0, -21) translate(0, 0)" opacity="1">daemonset</text></g><g id="sprotty_273" transform="translate(-16, 50)" opacity="1"><rect class="elkport" x="0" y="0" width="16" height="9" /><text id="sprotty_274" class="elklabel" transform="translate(-1, 10) translate(0, 0)" opacity="1">alluxio_master_hostname</text></g><g id="sprotty_276" transform="translate(-16, 110)" opacity="1"><rect class="elkport" x="0" y="0" width="16" height="9" /><text id="sprotty_277" class="elklabel" transform="translate(-1, 10) translate(0, 0)" opacity="1">alluxio_master_port</text></g><g id="sprotty_279" transform="translate(-16, 170)" opacity="1"><rect class="elkport" x="0" y="0" width="16" height="9" /><text id="sprotty_280" class="elklabel" transform="translate(-1, 10) translate(0, 0)" opacity="1">env</text></g><g id="sprotty_282" transform="translate(-16, 230)" opacity="1"><rect class="elkport" x="0" y="0" width="16" height="9" /><text id="sprotty_283" class="elklabel" transform="translate(-1, 10) translate(0, 0)" opacity="1">image</text></g><g id="sprotty_285" transform="translate(-16, 290)" opacity="1"><rect class="elkport" x="0" y="0" width="16" height="9" /><text id="sprotty_286" class="elklabel" transform="translate(-1, 10) translate(0, 0)" opacity="1">name</text></g><g id="sprotty_288" transform="translate(-16, 350)" opacity="1"><rect class="elkport" x="0" y="0" width="16" height="9" /><text id="sprotty_289" class="elklabel" transform="translate(-1, 10) translate(0, 0)" opacity="1">namespace</text></g><g id="sprotty_314" transform="translate(-16, 410)" opacity="1"><rect class="elkport" x="0" y="0" width="16" height="9" /><text id="sprotty_315" class="elklabel" transform="translate(-1, 10) translate(0, 0)" opacity="1">overrides</text></g><g id="sprotty_317" transform="translate(884, 50)" opacity="1"><rect class="elkport" x="0" y="0" width="16" height="9" /><text id="sprotty_318" class="elklabel" transform="translate(17, -1) translate(0, 0)" opacity="1">daemonset</text></g><g id="sprotty_320" transform="translate(884, 110)" opacity="1"><rect class="elkport" x="0" y="0" width="16" height="9" /><text id="sprotty_321" class="elklabel" transform="translate(17, 10) translate(0, 0)" opacity="1">name</text></g><text id="sprotty_270" class="elklabel" transform="translate(0, -21) translate(0, 0)" opacity="1">worker</text></g><g id="sprotty_7" transform="translate(-16, 2938)" opacity="1"><rect class="elkport" x="0" y="0" width="16" height="9" /><text id="sprotty_8" class="elklabel" transform="translate(-1, 10) translate(0, 0)" opacity="1">namespace</text></g><g id="sprotty_12" transform="translate(-16, 2878)" opacity="1"><rect class="elkport" x="0" y="0" width="16" height="9" /><text id="sprotty_13" class="elklabel" transform="translate(-1, 10) translate(0, 0)" opacity="1">name</text></g><g id="sprotty_327" transform="translate(3319, 121)" opacity="1"><rect class="elkport" x="0" y="0" width="16" height="9" /><text id="sprotty_328" class="elklabel" transform="translate(17, 10) translate(0, 0)" opacity="1">urls</text></g><g id="sprotty_330" transform="translate(-16, 3012.5)" opacity="1"><rect class="elkport" x="0" y="0" width="16" height="9" /><text id="sprotty_331" class="elklabel" transform="translate(-1, 10) translate(0, 0)" opacity="1">ingress</text></g><text id="sprotty_4" class="elklabel" transform="translate(0, -21) translate(0, 0)" opacity="1">examples/alluxio</text><g id="sprotty_9" class="sprotty-edge" opacity="1"><path class="elkedge" d="M 0,2942.5 L 200,2942.5 L 200,2802.5 L 250,2802.5" /><path class="edge arrow" d="M 0,0 L 8,-3 L 8,3 Z" transform="rotate(180 250 2802.5) translate(250 2802.5)" /><g id="sprotty_9_j0" transform="translate(200, 2942.5)" opacity="1"><circle class="elkjunction" r="2" /></g></g><g id="sprotty_14" class="sprotty-edge" opacity="1"><path class="elkedge" d="M 0,2882.5 L 500,2882.5 L 500,2922.5 L 1139.3333333333333,2922.5" /><path class="edge arrow" d="M 0,0 L 8,-3 L 8,3 Z" transform="rotate(180 1139.3333333333333 2922.5) translate(1139.3333333333333 2922.5)" /></g><g id="sprotty_15" class="sprotty-edge" opacity="1"><path class="elkedge" d="M 0,2942.5 L 1139.3333333333333,2942.5" /><path class="edge arrow" d="M 0,0 L 8,-3 L 8,3 Z" transform="rotate(180 1139.3333333333333 2942.5) translate(1139.3333333333333 2942.5)" /></g><g id="sprotty_18" class="sprotty-edge" opacity="1"><path class="elkedge" d="M 450,2822.5 L 2151,2822.5 L 2151,2912.5 L 2318,2912.5" /><path class="edge arrow" d="M 0,0 L 8,-3 L 8,3 Z" transform="rotate(180 2318 2912.5) translate(2318 2912.5)" /></g><g id="sprotty_19" class="sprotty-edge" opacity="1"><path class="elkedge" d="M 1339.3333333333333,2932.5 L 2318,2932.5" /><path class="edge arrow" d="M 0,0 L 8,-3 L 8,3 Z" transform="rotate(180 2318 2932.5) translate(2318 2932.5)" /></g><g id="sprotty_26" class="sprotty-edge" opacity="1"><path class="elkedge" d="M 1811.3333333333333,691 L 2318,691" /><path class="edge arrow" d="M 0,0 L 8,-3 L 8,3 Z" transform="rotate(180 2318 691) translate(2318 691)" /></g><g id="sprotty_35" class="sprotty-edge" opacity="1"><path class="elkedge" d="M 884,1726.9807692307693 L 984,1739.2403846153845" /><path class="edge arrow" d="M 0,0 L 8,-3 L 8,3 Z" transform="rotate(-173.0106348436616 984 1739.2403846153845) translate(984 1739.2403846153845)" /></g><g id="sprotty_38" class="sprotty-edge" opacity="1"><path class="elkedge" d="M 884,1784.673076923077 L 984,1768.0865384615386" /><path class="edge arrow" d="M 0,0 L 8,-3 L 8,3 Z" transform="rotate(170.58235285466577 984 1768.0865384615386) translate(984 1768.0865384615386)" /></g><g id="sprotty_41" class="sprotty-edge" opacity="1"><path class="elkedge" d="M 884,1842.3653846153845 L 1017.968253968254,1781.5" /><path class="edge arrow" d="M 0,0 L 8,-3 L 8,3 Z" transform="rotate(155.5664230096372 1017.968253968254 1781.5) translate(1017.968253968254 1781.5)" /></g><g id="sprotty_44" class="sprotty-edge" opacity="1"><path class="elkedge" d="M 882.0582524271845,1901.5 L 1043.611650485437,1781.5" /><path class="edge arrow" d="M 0,0 L 8,-3 L 8,3 Z" transform="rotate(143.39546107211748 1043.611650485437 1781.5) translate(1043.611650485437 1781.5)" /></g><g id="sprotty_47" class="sprotty-edge" opacity="1"><path class="elkedge" d="M 880.3636363636364,1961.5 L 1054.909090909091,1781.5" /><path class="edge arrow" d="M 0,0 L 8,-3 L 8,3 Z" transform="rotate(134.11859600341788 1054.909090909091 1781.5) translate(1054.909090909091 1781.5)" /></g><g id="sprotty_50" class="sprotty-edge" opacity="1"><path class="elkedge" d="M 884,1903.301310043668 L 1245.0679611650485,1781.5" /><path class="edge arrow" d="M 0,0 L 8,-3 L 8,3 Z" transform="rotate(161.35888472155233 1245.0679611650485 1781.5) translate(1245.0679611650485 1781.5)" /></g><g id="sprotty_51" class="sprotty-edge" opacity="1"><path class="elkedge" d="M 884,1962.2532751091703 L 1269.944055944056,1781.5" /><path class="edge arrow" d="M 0,0 L 8,-3 L 8,3 Z" transform="rotate(154.90439887692173 1269.944055944056 1781.5) translate(1269.944055944056 1781.5)" /></g><g id="sprotty_54" class="sprotty-edge" opacity="1"><path class="elkedge" d="M 884,1904.2884615384614 L 984,1882.8942307692307" /><path class="edge arrow" d="M 0,0 L 8,-3 L 8,3 Z" transform="rotate(167.92405618105852 984 1882.8942307692307) translate(984 1882.8942307692307)" /></g><g id="sprotty_55" class="sprotty-edge" opacity="1"><path class="elkedge" d="M 884,1961.9807692307693 L 1024.287081339713,1891.5" /><path class="edge arrow" d="M 0,0 L 8,-3 L 8,3 Z" transform="rotate(153.32487061155223 1024.287081339713 1891.5) translate(1024.287081339713 1891.5)" /></g><g id="sprotty_58" class="sprotty-edge" opacity="1"><path class="elkedge" d="M 884,1905.2227074235807 L 1234,1871.21615720524" /><path class="edge arrow" d="M 0,0 L 8,-3 L 8,3 Z" transform="rotate(174.45047144714007 1234 1871.21615720524) translate(1234 1871.21615720524)" /></g><g id="sprotty_61" class="sprotty-edge" opacity="1"><path class="elkedge" d="M 884,1908.5192307692307 L 988.7328244274809,1941.5" /><path class="edge arrow" d="M 0,0 L 8,-3 L 8,3 Z" transform="rotate(-162.52058471831904 988.7328244274809 1941.5) translate(988.7328244274809 1941.5)" /></g><g id="sprotty_62" class="sprotty-edge" opacity="1"><path class="elkedge" d="M 884,1966.2115384615386 L 984,1968.8557692307693" /><path class="edge arrow" d="M 0,0 L 8,-3 L 8,3 Z" transform="rotate(-178.48532032198773 984 1968.8557692307693) translate(984 1968.8557692307693)" /></g><g id="sprotty_65" class="sprotty-edge" opacity="1"><path class="elkedge" d="M 884,1907.1441048034935 L 1234,1957.198689956332" /><path class="edge arrow" d="M 0,0 L 8,-3 L 8,3 Z" transform="rotate(-171.86114084024004 1234 1957.198689956332) translate(1234 1957.198689956332)" /></g><g id="sprotty_66" class="sprotty-edge" opacity="1"><path class="elkedge" d="M 884,1966.0960698689955 L 1234,1970.2991266375545" /><path class="edge arrow" d="M 0,0 L 8,-3 L 8,3 Z" transform="rotate(-179.3119833176395 1234 1970.2991266375545) translate(1234 1970.2991266375545)" /></g><g id="sprotty_69" class="sprotty-edge" opacity="1"><path class="elkedge" d="M 881.3333333333334,1910.5 L 1048.4444444444443,2051.5" /><path class="edge arrow" d="M 0,0 L 8,-3 L 8,3 Z" transform="rotate(-139.84400037508067 1048.4444444444443 2051.5) translate(1048.4444444444443 2051.5)" /></g><g id="sprotty_70" class="sprotty-edge" opacity="1"><path class="elkedge" d="M 884,1970.4423076923076 L 1029.974025974026,2051.5" /><path class="edge arrow" d="M 0,0 L 8,-3 L 8,3 Z" transform="rotate(-150.95709130380453 1029.974025974026 2051.5) translate(1029.974025974026 2051.5)" /></g><g id="sprotty_73" class="sprotty-edge" opacity="1"><path class="elkedge" d="M 766.4154929577464,1659.5 L 868.5845070422536,1721.5" /><path class="edge arrow" d="M 0,0 L 8,-3 L 8,3 Z" transform="rotate(-148.74904898341933 868.5845070422536 1721.5) translate(868.5845070422536 1721.5)" /></g><g id="sprotty_76" class="sprotty-edge" opacity="1"><path class="elkedge" d="M 766.4154929577464,1719.5 L 868.5845070422536,1781.5" /><path class="edge arrow" d="M 0,0 L 8,-3 L 8,3 Z" transform="rotate(-148.74904898341933 868.5845070422536 1781.5) translate(868.5845070422536 1781.5)" /></g><g id="sprotty_79" class="sprotty-edge" opacity="1"><path class="elkedge" d="M 766.4154929577464,1779.5 L 868.5845070422536,1841.5" /><path class="edge arrow" d="M 0,0 L 8,-3 L 8,3 Z" transform="rotate(-148.74904898341933 868.5845070422536 1841.5) translate(868.5845070422536 1841.5)" /></g><g id="sprotty_82" class="sprotty-edge" opacity="1"><path class="elkedge" d="M 766.4154929577464,1839.5 L 868.5845070422536,1901.5" /><path class="edge arrow" d="M 0,0 L 8,-3 L 8,3 Z" transform="rotate(-148.74904898341933 868.5845070422536 1901.5) translate(868.5845070422536 1901.5)" /></g><g id="sprotty_85" class="sprotty-edge" opacity="1"><path class="elkedge" d="M 766.4154929577464,1899.5 L 868.5845070422536,1961.5" /><path class="edge arrow" d="M 0,0 L 8,-3 L 8,3 Z" transform="rotate(-148.74904898341933 868.5845070422536 1961.5) translate(868.5845070422536 1961.5)" /></g><g id="sprotty_92" class="sprotty-edge" opacity="1"><path class="elkedge" d="M 1601,1726.9807692307693 L 1701,1739.2403846153845" /><path class="edge arrow" d="M 0,0 L 8,-3 L 8,3 Z" transform="rotate(-173.0106348436616 1701 1739.2403846153845) translate(1701 1739.2403846153845)" /></g><g id="sprotty_95" class="sprotty-edge" opacity="1"><path class="elkedge" d="M 1601,1784.673076923077 L 1701,1768.0865384615386" /><path class="edge arrow" d="M 0,0 L 8,-3 L 8,3 Z" transform="rotate(170.58235285466577 1701 1768.0865384615386) translate(1701 1768.0865384615386)" /></g><g id="sprotty_98" class="sprotty-edge" opacity="1"><path class="elkedge" d="M 1601,1842.3653846153845 L 1734.968253968254,1781.5" /><path class="edge arrow" d="M 0,0 L 8,-3 L 8,3 Z" transform="rotate(155.5664230096372 1734.968253968254 1781.5) translate(1734.968253968254 1781.5)" /></g><g id="sprotty_101" class="sprotty-edge" opacity="1"><path class="elkedge" d="M 1599.0582524271845,1901.5 L 1760.611650485437,1781.5" /><path class="edge arrow" d="M 0,0 L 8,-3 L 8,3 Z" transform="rotate(143.39546107211748 1760.611650485437 1781.5) translate(1760.611650485437 1781.5)" /></g><g id="sprotty_104" class="sprotty-edge" opacity="1"><path class="elkedge" d="M 1601,1846.5961538461538 L 1701,1854.048076923077" /><path class="edge arrow" d="M 0,0 L 8,-3 L 8,3 Z" transform="rotate(-175.73823961931822 1701 1854.048076923077) translate(1701 1854.048076923077)" /></g><g id="sprotty_105" class="sprotty-edge" opacity="1"><path class="elkedge" d="M 1601,1904.2884615384614 L 1701,1882.8942307692307" /><path class="edge arrow" d="M 0,0 L 8,-3 L 8,3 Z" transform="rotate(167.92405618105852 1701 1882.8942307692307) translate(1701 1882.8942307692307)" /></g><g id="sprotty_108" class="sprotty-edge" opacity="1"><path class="elkedge" d="M 1600.4581673306773,1850.5 L 1751.2788844621514,1941.5" /><path class="edge arrow" d="M 0,0 L 8,-3 L 8,3 Z" transform="rotate(-148.89467282183267 1751.2788844621514 1941.5) translate(1751.2788844621514 1941.5)" /></g><g id="sprotty_111" class="sprotty-edge" opacity="1"><path class="elkedge" d="M 1596.9745222929937,1850.5 L 1774.5031847133757,2051.5" /><path class="edge arrow" d="M 0,0 L 8,-3 L 8,3 Z" transform="rotate(-131.45181684450975 1774.5031847133757 2051.5) translate(1774.5031847133757 2051.5)" /></g><g id="sprotty_112" class="sprotty-edge" opacity="1"><path class="elkedge" d="M 1598.3333333333335,1910.5 L 1765.4444444444443,2051.5" /><path class="edge arrow" d="M 0,0 L 8,-3 L 8,3 Z" transform="rotate(-139.84400037508064 1765.4444444444443 2051.5) translate(1765.4444444444443 2051.5)" /></g><g id="sprotty_115" class="sprotty-edge" opacity="1"><path class="elkedge" d="M 767,1657.9832134292567 L 1585,1963.0167865707435" /><path class="edge arrow" d="M 0,0 L 8,-3 L 8,3 Z" transform="rotate(-159.54943012651282 1585 1963.0167865707435) translate(1585 1963.0167865707435)" /></g><g id="sprotty_116" class="sprotty-edge" opacity="1"><path class="elkedge" d="M 767,1715.10551558753 L 1585,1725.89448441247" /><path class="edge arrow" d="M 0,0 L 8,-3 L 8,3 Z" transform="rotate(-179.24434408653664 1585 1725.89448441247) translate(1585 1725.89448441247)" /></g><g id="sprotty_117" class="sprotty-edge" opacity="1"><path class="elkedge" d="M 767,1775.10551558753 L 1585,1785.89448441247" /><path class="edge arrow" d="M 0,0 L 8,-3 L 8,3 Z" transform="rotate(-179.24434408653664 1585 1785.89448441247) translate(1585 1785.89448441247)" /></g><g id="sprotty_118" class="sprotty-edge" opacity="1"><path class="elkedge" d="M 767,1835.10551558753 L 1585,1845.89448441247" /><path class="edge arrow" d="M 0,0 L 8,-3 L 8,3 Z" transform="rotate(-179.24434408653664 1585 1845.89448441247) translate(1585 1845.89448441247)" /></g><g id="sprotty_119" class="sprotty-edge" opacity="1"><path class="elkedge" d="M 767,1895.10551558753 L 1585,1905.89448441247" /><path class="edge arrow" d="M 0,0 L 8,-3 L 8,3 Z" transform="rotate(-179.24434408653664 1585 1905.89448441247) translate(1585 1905.89448441247)" /></g><g id="sprotty_126" class="sprotty-edge" opacity="1"><path class="elkedge" d="M 884,2287.9807692307695 L 984,2300.2403846153848" /><path class="edge arrow" d="M 0,0 L 8,-3 L 8,3 Z" transform="rotate(-173.0106348436616 984 2300.2403846153848) translate(984 2300.2403846153848)" /></g><g id="sprotty_129" class="sprotty-edge" opacity="1"><path class="elkedge" d="M 884,2345.673076923077 L 984,2329.0865384615386" /><path class="edge arrow" d="M 0,0 L 8,-3 L 8,3 Z" transform="rotate(170.58235285466566 984 2329.0865384615386) translate(984 2329.0865384615386)" /></g><g id="sprotty_132" class="sprotty-edge" opacity="1"><path class="elkedge" d="M 884,2403.3653846153848 L 1017.968253968254,2342.5" /><path class="edge arrow" d="M 0,0 L 8,-3 L 8,3 Z" transform="rotate(155.56642300963713 1017.968253968254 2342.5) translate(1017.968253968254 2342.5)" /></g><g id="sprotty_135" class="sprotty-edge" opacity="1"><path class="elkedge" d="M 882.0582524271845,2462.5 L 1043.611650485437,2342.5" /><path class="edge arrow" d="M 0,0 L 8,-3 L 8,3 Z" transform="rotate(143.39546107211748 1043.611650485437 2342.5) translate(1043.611650485437 2342.5)" /></g><g id="sprotty_138" class="sprotty-edge" opacity="1"><path class="elkedge" d="M 880.3636363636364,2522.5 L 1054.909090909091,2342.5" /><path class="edge arrow" d="M 0,0 L 8,-3 L 8,3 Z" transform="rotate(134.11859600341788 1054.909090909091 2342.5) translate(1054.909090909091 2342.5)" /></g><g id="sprotty_141" class="sprotty-edge" opacity="1"><path class="elkedge" d="M 884,2464.3013100436683 L 1245.0679611650485,2342.5" /><path class="edge arrow" d="M 0,0 L 8,-3 L 8,3 Z" transform="rotate(161.3588847215523 1245.0679611650485 2342.5) translate(1245.0679611650485 2342.5)" /></g><g id="sprotty_142" class="sprotty-edge" opacity="1"><path class="elkedge" d="M 884,2523.2532751091703 L 1269.944055944056,2342.5" /><path class="edge arrow" d="M 0,0 L 8,-3 L 8,3 Z" transform="rotate(154.90439887692173 1269.944055944056 2342.5) translate(1269.944055944056 2342.5)" /></g><g id="sprotty_145" class="sprotty-edge" opacity="1"><path class="elkedge" d="M 884,2465.2884615384614 L 984,2443.8942307692305" /><path class="edge arrow" d="M 0,0 L 8,-3 L 8,3 Z" transform="rotate(167.92405618105838 984 2443.8942307692305) translate(984 2443.8942307692305)" /></g><g id="sprotty_146" class="sprotty-edge" opacity="1"><path class="elkedge" d="M 884,2522.9807692307695 L 1024.287081339713,2452.5" /><path class="edge arrow" d="M 0,0 L 8,-3 L 8,3 Z" transform="rotate(153.32487061155214 1024.287081339713 2452.5) translate(1024.287081339713 2452.5)" /></g><g id="sprotty_149" class="sprotty-edge" opacity="1"><path class="elkedge" d="M 884,2466.2227074235807 L 1234,2432.21615720524" /><path class="edge arrow" d="M 0,0 L 8,-3 L 8,3 Z" transform="rotate(174.45047144714007 1234 2432.21615720524) translate(1234 2432.21615720524)" /></g><g id="sprotty_152" class="sprotty-edge" opacity="1"><path class="elkedge" d="M 884,2469.5192307692305 L 988.7328244274809,2502.5" /><path class="edge arrow" d="M 0,0 L 8,-3 L 8,3 Z" transform="rotate(-162.52058471831893 988.7328244274809 2502.5) translate(988.7328244274809 2502.5)" /></g><g id="sprotty_153" class="sprotty-edge" opacity="1"><path class="elkedge" d="M 884,2527.2115384615386 L 984,2529.8557692307695" /><path class="edge arrow" d="M 0,0 L 8,-3 L 8,3 Z" transform="rotate(-178.4853203219876 984 2529.8557692307695) translate(984 2529.8557692307695)" /></g><g id="sprotty_156" class="sprotty-edge" opacity="1"><path class="elkedge" d="M 884,2468.1441048034935 L 1234,2518.1986899563317" /><path class="edge arrow" d="M 0,0 L 8,-3 L 8,3 Z" transform="rotate(-171.86114084024007 1234 2518.1986899563317) translate(1234 2518.1986899563317)" /></g><g id="sprotty_157" class="sprotty-edge" opacity="1"><path class="elkedge" d="M 884,2527.0960698689955 L 1234,2531.2991266375548" /><path class="edge arrow" d="M 0,0 L 8,-3 L 8,3 Z" transform="rotate(-179.3119833176394 1234 2531.2991266375548) translate(1234 2531.2991266375548)" /></g><g id="sprotty_160" class="sprotty-edge" opacity="1"><path class="elkedge" d="M 881.3333333333334,2471.5 L 1048.4444444444443,2612.5" /><path class="edge arrow" d="M 0,0 L 8,-3 L 8,3 Z" transform="rotate(-139.84400037508067 1048.4444444444443 2612.5) translate(1048.4444444444443 2612.5)" /></g><g id="sprotty_161" class="sprotty-edge" opacity="1"><path class="elkedge" d="M 884,2531.4423076923076 L 1029.974025974026,2612.5" /><path class="edge arrow" d="M 0,0 L 8,-3 L 8,3 Z" transform="rotate(-150.95709130380453 1029.974025974026 2612.5) translate(1029.974025974026 2612.5)" /></g><g id="sprotty_162" class="sprotty-edge" opacity="1"><path class="elkedge" d="M 759.8330696202531,1659.5 L 875.1669303797469,2282.5" /><path class="edge arrow" d="M 0,0 L 8,-3 L 8,3 Z" transform="rotate(-100.48823060860042 875.1669303797469 2282.5) translate(875.1669303797469 2282.5)" /></g><g id="sprotty_163" class="sprotty-edge" opacity="1"><path class="elkedge" d="M 759.8330696202531,1719.5 L 875.1669303797469,2342.5" /><path class="edge arrow" d="M 0,0 L 8,-3 L 8,3 Z" transform="rotate(-100.48823060860042 875.1669303797469 2342.5) translate(875.1669303797469 2342.5)" /></g><g id="sprotty_164" class="sprotty-edge" opacity="1"><path class="elkedge" d="M 759.8330696202531,1779.5 L 875.1669303797469,2402.5" /><path class="edge arrow" d="M 0,0 L 8,-3 L 8,3 Z" transform="rotate(-100.48823060860042 875.1669303797469 2402.5) translate(875.1669303797469 2402.5)" /></g><g id="sprotty_165" class="sprotty-edge" opacity="1"><path class="elkedge" d="M 759.8330696202531,1839.5 L 875.1669303797469,2462.5" /><path class="edge arrow" d="M 0,0 L 8,-3 L 8,3 Z" transform="rotate(-100.48823060860042 875.1669303797469 2462.5) translate(875.1669303797469 2462.5)" /></g><g id="sprotty_166" class="sprotty-edge" opacity="1"><path class="elkedge" d="M 759.8330696202531,1899.5 L 875.1669303797469,2522.5" /><path class="edge arrow" d="M 0,0 L 8,-3 L 8,3 Z" transform="rotate(-100.48823060860042 875.1669303797469 2522.5) translate(875.1669303797469 2522.5)" /></g><g id="sprotty_167" class="sprotty-edge" opacity="1"><path class="elkedge" d="M 450,2812.5 L 700,2812.5 L 700,1895 L 751,1895" /><path class="edge arrow" d="M 0,0 L 8,-3 L 8,3 Z" transform="rotate(180 751 1895) translate(751 1895)" /></g><g id="sprotty_174" class="sprotty-edge" opacity="1"><path class="elkedge" d="M 2639,231 L 2639,181" /><path class="edge arrow" d="M 0,0 L 8,-3 L 8,3 Z" transform="rotate(90 2639 181) translate(2639 181)" /></g><g id="sprotty_177" class="sprotty-edge" opacity="1"><path class="elkedge" d="M 2639,341 L 2639,291" /><path class="edge arrow" d="M 0,0 L 8,-3 L 8,3 Z" transform="rotate(90 2639 291) translate(2639 291)" /></g><g id="sprotty_180" class="sprotty-edge" opacity="1"><path class="elkedge" d="M 2437.9077490774907,130 L 2592.9483394833946,231" /><path class="edge arrow" d="M 0,0 L 8,-3 L 8,3 Z" transform="rotate(-146.91807712723488 2592.9483394833946 231) translate(2592.9483394833946 231)" /></g><g id="sprotty_185" class="sprotty-edge" opacity="1"><path class="elkedge" d="M 2434.167512690355,190 L 2617.8832487309646,451" /><path class="edge arrow" d="M 0,0 L 8,-3 L 8,3 Z" transform="rotate(-125.14139675071031 2617.8832487309646 451) translate(2617.8832487309646 451)" /></g><g id="sprotty_186" class="sprotty-edge" opacity="1"><path class="elkedge" d="M 2639,451 L 2639,401" /><path class="edge arrow" d="M 0,0 L 8,-3 L 8,3 Z" transform="rotate(90 2639 401) translate(2639 401)" /></g><g id="sprotty_189" class="sprotty-edge" opacity="1"><path class="elkedge" d="M 2438.4581673306775,250 L 2589.2788844621514,341" /><path class="edge arrow" d="M 0,0 L 8,-3 L 8,3 Z" transform="rotate(-148.89467282183264 2589.2788844621514 341) translate(2589.2788844621514 341)" /></g><g id="sprotty_192" class="sprotty-edge" opacity="1"><path class="elkedge" d="M 2439,308.0192307692308 L 2543.732824427481,341" /><path class="edge arrow" d="M 0,0 L 8,-3 L 8,3 Z" transform="rotate(-162.52058471831904 2543.732824427481 341) translate(2543.732824427481 341)" /></g><g id="sprotty_195" class="sprotty-edge" opacity="1"><path class="elkedge" d="M 2439,365.71153846153845 L 2539,368.3557692307692" /><path class="edge arrow" d="M 0,0 L 8,-3 L 8,3 Z" transform="rotate(-178.4853203219877 2539 368.3557692307692) translate(2539 368.3557692307692)" /></g><g id="sprotty_198" class="sprotty-edge" opacity="1"><path class="elkedge" d="M 2439,423.40384615384613 L 2539,397.2019230769231" /><path class="edge arrow" d="M 0,0 L 8,-3 L 8,3 Z" transform="rotate(165.31746945380982 2539 397.2019230769231) translate(2539 397.2019230769231)" /></g><g id="sprotty_201" class="sprotty-edge" opacity="1"><path class="elkedge" d="M 2739,138.7403846153846 L 2839,126.48076923076923" /><path class="edge arrow" d="M 0,0 L 8,-3 L 8,3 Z" transform="rotate(173.01063484366153 2839 126.48076923076923) translate(2839 126.48076923076923)" /></g><g id="sprotty_202" class="sprotty-edge" opacity="1"><path class="elkedge" d="M 0,2882.5 L 150,2882.5 L 150,1517.5 L 500,1517.5 L 500,354.5 L 2151,354.5 L 2151,185.5 L 2423,185.5" /><path class="edge arrow" d="M 0,0 L 8,-3 L 8,3 Z" transform="rotate(180 2423 185.5) translate(2423 185.5)" /><g id="sprotty_202_j0" transform="translate(150, 2882.5)" opacity="1"><circle class="elkjunction" r="2" /></g><g id="sprotty_202_j1" transform="translate(500, 1517.5)" opacity="1"><circle class="elkjunction" r="2" /></g></g><g id="sprotty_203" class="sprotty-edge" opacity="1"><path class="elkedge" d="M 450,2782.5 L 550,2782.5 L 550,365.5 L 2423,365.5" /><path class="edge arrow" d="M 0,0 L 8,-3 L 8,3 Z" transform="rotate(180 2423 365.5) translate(2423 365.5)" /></g><g id="sprotty_204" class="sprotty-edge" opacity="1"><path class="elkedge" d="M 1811.3333333333333,691 L 2151,691 L 2151,425.5 L 2423,425.5" /><path class="edge arrow" d="M 0,0 L 8,-3 L 8,3 Z" transform="rotate(180 2423 425.5) translate(2423 425.5)" /><g id="sprotty_204_j0" transform="translate(2151, 691)" opacity="1"><circle class="elkjunction" r="2" /></g></g><g id="sprotty_209" class="sprotty-edge" opacity="1"><path class="elkedge" d="M 911.3333333333333,691.9807692307693 L 1011.3333333333333,704.2403846153846" /><path class="edge arrow" d="M 0,0 L 8,-3 L 8,3 Z" transform="rotate(-173.01063484366153 1011.3333333333333 704.2403846153846) translate(1011.3333333333333 704.2403846153846)" /></g><g id="sprotty_212" class="sprotty-edge" opacity="1"><path class="elkedge" d="M 911.3333333333333,749.6730769230769 L 1011.3333333333333,733.0865384615385" /><path class="edge arrow" d="M 0,0 L 8,-3 L 8,3 Z" transform="rotate(170.58235285466571 1011.3333333333333 733.0865384615385) translate(1011.3333333333333 733.0865384615385)" /></g><g id="sprotty_215" class="sprotty-edge" opacity="1"><path class="elkedge" d="M 911.3333333333333,807.3653846153846 L 1045.3015873015872,746.5" /><path class="edge arrow" d="M 0,0 L 8,-3 L 8,3 Z" transform="rotate(155.5664230096372 1045.3015873015872 746.5) translate(1045.3015873015872 746.5)" /></g><g id="sprotty_218" class="sprotty-edge" opacity="1"><path class="elkedge" d="M 909.3915857605177,866.5 L 1070.9449838187702,746.5" /><path class="edge arrow" d="M 0,0 L 8,-3 L 8,3 Z" transform="rotate(143.39546107211748 1070.9449838187702 746.5) translate(1070.9449838187702 746.5)" /></g><g id="sprotty_221" class="sprotty-edge" opacity="1"><path class="elkedge" d="M 907.6969696969696,926.5 L 1082.2424242424242,746.5" /><path class="edge arrow" d="M 0,0 L 8,-3 L 8,3 Z" transform="rotate(134.11859600341788 1082.2424242424242 746.5) translate(1082.2424242424242 746.5)" /></g><g id="sprotty_224" class="sprotty-edge" opacity="1"><path class="elkedge" d="M 906.7431693989071,986.5 L 1088.6010928961748,746.5" /><path class="edge arrow" d="M 0,0 L 8,-3 L 8,3 Z" transform="rotate(127.1527142373108 1088.6010928961748 746.5) translate(1088.6010928961748 746.5)" /></g><g id="sprotty_231" class="sprotty-edge" opacity="1"><path class="elkedge" d="M 1478.3333333333333,867.5 L 1478.3333333333333,817.5" /><path class="edge arrow" d="M 0,0 L 8,-3 L 8,3 Z" transform="rotate(90 1478.3333333333333 817.5) translate(1478.3333333333333 817.5)" /></g><g id="sprotty_236" class="sprotty-edge" opacity="1"><path class="elkedge" d="M 1478.3333333333333,1087.5 L 1478.3333333333333,1037.5" /><path class="edge arrow" d="M 0,0 L 8,-3 L 8,3 Z" transform="rotate(90 1478.3333333333333 1037.5) translate(1478.3333333333333 1037.5)" /></g><g id="sprotty_239" class="sprotty-edge" opacity="1"><path class="elkedge" d="M 1478.3333333333333,1197.5 L 1478.3333333333333,927.5" /><path class="edge arrow" d="M 0,0 L 8,-3 L 8,3 Z" transform="rotate(90 1478.3333333333333 927.5) translate(1478.3333333333333 927.5)" /></g><g id="sprotty_242" class="sprotty-edge" opacity="1"><path class="elkedge" d="M 1478.3333333333333,1307.5 L 1478.3333333333333,1147.5" /><path class="edge arrow" d="M 0,0 L 8,-3 L 8,3 Z" transform="rotate(90 1478.3333333333333 1147.5) translate(1478.3333333333333 1147.5)" /></g><g id="sprotty_245" class="sprotty-edge" opacity="1"><path class="elkedge" d="M 1271.9597451491456,766.5 L 1467.4905878945842,1307.5" /><path class="edge arrow" d="M 0,0 L 8,-3 L 8,3 Z" transform="rotate(-109.87111491399162 1467.4905878945842 1307.5) translate(1467.4905878945842 1307.5)" /></g><g id="sprotty_246" class="sprotty-edge" opacity="1"><path class="elkedge" d="M 1478.3333333333333,1307.5 L 1478.3333333333333,1257.5" /><path class="edge arrow" d="M 0,0 L 8,-3 L 8,3 Z" transform="rotate(90 1478.3333333333333 1257.5) translate(1478.3333333333333 1257.5)" /></g><g id="sprotty_249" class="sprotty-edge" opacity="1"><path class="elkedge" d="M 1578.3333333333333,775.2403846153846 L 1678.3333333333333,762.9807692307693" /><path class="edge arrow" d="M 0,0 L 8,-3 L 8,3 Z" transform="rotate(173.01063484366153 1678.3333333333333 762.9807692307693) translate(1678.3333333333333 762.9807692307693)" /></g><g id="sprotty_252" class="sprotty-edge" opacity="1"><path class="elkedge" d="M 1511.9721473495058,977.5 L 1681.2875112309075,826.5" /><path class="edge arrow" d="M 0,0 L 8,-3 L 8,3 Z" transform="rotate(138.2725612280321 1681.2875112309075 826.5) translate(1681.2875112309075 826.5)" /></g><g id="sprotty_255" class="sprotty-edge" opacity="1"><path class="elkedge" d="M 1528.0544488711819,977.5 L 1678.875166002656,886.5" /><path class="edge arrow" d="M 0,0 L 8,-3 L 8,3 Z" transform="rotate(148.89467282183267 1678.875166002656 886.5) translate(1678.875166002656 886.5)" /></g><g id="sprotty_256" class="sprotty-edge" opacity="1"><path class="elkedge" d="M 1211.3333333333333,745.1163522012579 L 1262.3333333333333,759.7106918238994" /><path class="edge arrow" d="M 0,0 L 8,-3 L 8,3 Z" transform="rotate(-164.03081017207572 1262.3333333333333 759.7106918238994) translate(1262.3333333333333 759.7106918238994)" /></g><g id="sprotty_259" class="sprotty-edge" opacity="1"><path class="elkedge" d="M 909.0478662053056,1046.5 L 1264.618800461361,766.5" /><path class="edge arrow" d="M 0,0 L 8,-3 L 8,3 Z" transform="rotate(141.78077247306857 1264.618800461361 766.5) translate(1264.618800461361 766.5)" /></g><g id="sprotty_262" class="sprotty-edge" opacity="1"><path class="elkedge" d="M 1694.3333333333333,761.2478632478633 L 1795.3333333333333,751.7521367521367" /><path class="edge arrow" d="M 0,0 L 8,-3 L 8,3 Z" transform="rotate(174.62900530446427 1795.3333333333333 751.7521367521367) translate(1795.3333333333333 751.7521367521367)" /></g><g id="sprotty_265" class="sprotty-edge" opacity="1"><path class="elkedge" d="M 1694.3333333333333,821.2478632478633 L 1795.3333333333333,811.7521367521367" /><path class="edge arrow" d="M 0,0 L 8,-3 L 8,3 Z" transform="rotate(174.62900530446427 1795.3333333333333 811.7521367521367) translate(1795.3333333333333 811.7521367521367)" /></g><g id="sprotty_266" class="sprotty-edge" opacity="1"><path class="elkedge" d="M 1689.089877835951,877.5 L 1800.5767888307155,695.5" /><path class="edge arrow" d="M 0,0 L 8,-3 L 8,3 Z" transform="rotate(121.49019604671862 1800.5767888307155 695.5) translate(1800.5767888307155 695.5)" /></g><g id="sprotty_267" class="sprotty-edge" opacity="1"><path class="elkedge" d="M 0,2882.5 L 150,2882.5 L 150,1517.5 L 500,1517.5 L 500,811 L 895.3333333333333,811" /><path class="edge arrow" d="M 0,0 L 8,-3 L 8,3 Z" transform="rotate(180 895.3333333333333 811) translate(895.3333333333333 811)" /><g id="sprotty_267_j0" transform="translate(500, 811)" opacity="1"><circle class="elkjunction" r="2" /></g></g><g id="sprotty_268" class="sprotty-edge" opacity="1"><path class="elkedge" d="M 450,2792.5 L 600,2792.5 L 600,871 L 895.3333333333333,871" /><path class="edge arrow" d="M 0,0 L 8,-3 L 8,3 Z" transform="rotate(180 895.3333333333333 871) translate(895.3333333333333 871)" /></g><g id="sprotty_275" class="sprotty-edge" opacity="1"><path class="elkedge" d="M 2318,1278.4807692307693 L 2418,1290.7403846153845" /><path class="edge arrow" d="M 0,0 L 8,-3 L 8,3 Z" transform="rotate(-173.0106348436616 2418 1290.7403846153845) translate(2418 1290.7403846153845)" /></g><g id="sprotty_278" class="sprotty-edge" opacity="1"><path class="elkedge" d="M 2318,1336.173076923077 L 2418,1319.5865384615386" /><path class="edge arrow" d="M 0,0 L 8,-3 L 8,3 Z" transform="rotate(170.58235285466577 2418 1319.5865384615386) translate(2418 1319.5865384615386)" /></g><g id="sprotty_281" class="sprotty-edge" opacity="1"><path class="elkedge" d="M 2318,1393.8653846153845 L 2451.968253968254,1333" /><path class="edge arrow" d="M 0,0 L 8,-3 L 8,3 Z" transform="rotate(155.5664230096372 2451.968253968254 1333) translate(2451.968253968254 1333)" /></g><g id="sprotty_284" class="sprotty-edge" opacity="1"><path class="elkedge" d="M 2316.0582524271845,1453 L 2477.6116504854367,1333" /><path class="edge arrow" d="M 0,0 L 8,-3 L 8,3 Z" transform="rotate(143.39546107211743 2477.6116504854367 1333) translate(2477.6116504854367 1333)" /></g><g id="sprotty_287" class="sprotty-edge" opacity="1"><path class="elkedge" d="M 2314.3636363636365,1513 L 2488.909090909091,1333" /><path class="edge arrow" d="M 0,0 L 8,-3 L 8,3 Z" transform="rotate(134.11859600341785 2488.909090909091 1333) translate(2488.909090909091 1333)" /></g><g id="sprotty_290" class="sprotty-edge" opacity="1"><path class="elkedge" d="M 2313.409836065574,1573 L 2495.2677595628415,1333" /><path class="edge arrow" d="M 0,0 L 8,-3 L 8,3 Z" transform="rotate(127.15271423731078 2495.2677595628415 1333) translate(2495.2677595628415 1333)" /></g><g id="sprotty_297" class="sprotty-edge" opacity="1"><path class="elkedge" d="M 2885,1454 L 2885,1404" /><path class="edge arrow" d="M 0,0 L 8,-3 L 8,3 Z" transform="rotate(90 2885 1404) translate(2885 1404)" /></g><g id="sprotty_300" class="sprotty-edge" opacity="1"><path class="elkedge" d="M 2885,1564 L 2885,1514" /><path class="edge arrow" d="M 0,0 L 8,-3 L 8,3 Z" transform="rotate(90 2885 1514) translate(2885 1514)" /></g><g id="sprotty_305" class="sprotty-edge" opacity="1"><path class="elkedge" d="M 2679.632911392405,1353 L 2867.447257383966,1674" /><path class="edge arrow" d="M 0,0 L 8,-3 L 8,3 Z" transform="rotate(-120.33153644704221 2867.447257383966 1674) translate(2867.447257383966 1674)" /></g><g id="sprotty_306" class="sprotty-edge" opacity="1"><path class="elkedge" d="M 2885,1674 L 2885,1624" /><path class="edge arrow" d="M 0,0 L 8,-3 L 8,3 Z" transform="rotate(90 2885 1624) translate(2885 1624)" /></g><g id="sprotty_309" class="sprotty-edge" opacity="1"><path class="elkedge" d="M 2985,1361.7403846153845 L 3085,1349.4807692307693" /><path class="edge arrow" d="M 0,0 L 8,-3 L 8,3 Z" transform="rotate(173.0106348436616 3085 1349.4807692307693) translate(3085 1349.4807692307693)" /></g><g id="sprotty_312" class="sprotty-edge" opacity="1"><path class="elkedge" d="M 2985,1390.5865384615386 L 3085,1407.173076923077" /><path class="edge arrow" d="M 0,0 L 8,-3 L 8,3 Z" transform="rotate(-170.58235285466577 3085 1407.173076923077) translate(3085 1407.173076923077)" /></g><g id="sprotty_313" class="sprotty-edge" opacity="1"><path class="elkedge" d="M 2618,1331.6163522012578 L 2669,1346.2106918238994" /><path class="edge arrow" d="M 0,0 L 8,-3 L 8,3 Z" transform="rotate(-164.0308101720756 2669 1346.2106918238994) translate(2669 1346.2106918238994)" /></g><g id="sprotty_316" class="sprotty-edge" opacity="1"><path class="elkedge" d="M 2315.714532871972,1633 L 2671.2854671280274,1353" /><path class="edge arrow" d="M 0,0 L 8,-3 L 8,3 Z" transform="rotate(141.78077247306857 2671.2854671280274 1353) translate(2671.2854671280274 1353)" /></g><g id="sprotty_319" class="sprotty-edge" opacity="1"><path class="elkedge" d="M 3100.415492957746,1344 L 3202.584507042254,1282" /><path class="edge arrow" d="M 0,0 L 8,-3 L 8,3 Z" transform="rotate(148.74904898341944 3202.584507042254 1282) translate(3202.584507042254 1282)" /></g><g id="sprotty_322" class="sprotty-edge" opacity="1"><path class="elkedge" d="M 3100.415492957746,1404 L 3202.584507042254,1342" /><path class="edge arrow" d="M 0,0 L 8,-3 L 8,3 Z" transform="rotate(148.74904898341944 3202.584507042254 1342) translate(3202.584507042254 1342)" /></g><g id="sprotty_323" class="sprotty-edge" opacity="1"><path class="elkedge" d="M 1811.3333333333333,691 L 2151,691 L 2151,1277.5 L 2302,1277.5" /><path class="edge arrow" d="M 0,0 L 8,-3 L 8,3 Z" transform="rotate(180 2302 1277.5) translate(2302 1277.5)" /><g id="sprotty_323_j0" transform="translate(2151, 1277.5)" opacity="1"><circle class="elkjunction" r="2" /></g></g><g id="sprotty_324" class="sprotty-edge" opacity="1"><path class="elkedge" d="M 1811.3333333333333,691 L 2151,691 L 2151,1337.5 L 2302,1337.5" /><path class="edge arrow" d="M 0,0 L 8,-3 L 8,3 Z" transform="rotate(180 2302 1337.5) translate(2302 1337.5)" /></g><g id="sprotty_325" class="sprotty-edge" opacity="1"><path class="elkedge" d="M 0,2882.5 L 150,2882.5 L 150,1517.5 L 2302,1517.5" /><path class="edge arrow" d="M 0,0 L 8,-3 L 8,3 Z" transform="rotate(180 2302 1517.5) translate(2302 1517.5)" /></g><g id="sprotty_326" class="sprotty-edge" opacity="1"><path class="elkedge" d="M 450,2802.5 L 650,2802.5 L 650,1528.5 L 2151,1528.5 L 2151,1577.5 L 2302,1577.5" /><path class="edge arrow" d="M 0,0 L 8,-3 L 8,3 Z" transform="rotate(180 2302 1577.5) translate(2302 1577.5)" /></g><g id="sprotty_329" class="sprotty-edge" opacity="1"><path class="elkedge" d="M 2855,125.5 L 3319,125.5" /><path class="edge arrow" d="M 0,0 L 8,-3 L 8,3 Z" transform="rotate(180 3319 125.5) translate(3319 125.5)" /></g><g id="sprotty_332" class="sprotty-edge" opacity="1"><path class="elkedge" d="M -2.8097873076257995,3012.5 L 3321.809787307626,130" /><path class="edge arrow" d="M 0,0 L 8,-3 L 8,3 Z" transform="rotate(139.0741725997519 3321.809787307626 130) translate(3321.809787307626 130)" /></g></g></g></svg>
