<svg id="sprotty_1" class="sprotty-graph sprotty" tabindex="1002" xmlns="http://www.w3.org/2000/svg" viewBox="0 0 3754 2679.5"><style>.elknode {
    stroke: #448;
    stroke-width: 2;
    fill: #ddf;
}

.elkport {
    stroke: #448;
    stroke-width: 1;
    fill: #66c;
}

.elkedge {
    fill: none;
    stroke: #224;
    stroke-width: 1;
}

.elkedge.arrow {
    fill: #336;
}

.elklabel {
    stroke-width: 0;
    stroke: #000;
    fill: #000;
    font-family: sans-serif;
    font-size: 10pt;
    dominant-baseline: hanging;
}

.elkjunction {
    stroke: none;
    fill: #224;
}

.selected &gt; rect {
    stroke-width: 3;
}

.mouseover {
    stroke: #88f;
}
/*
 * Copyright (C) 2017 TypeFox and others.
 *
 * Licensed under the Apache License, Version 2.0 (the &quot;License&quot;); you may not use this file except in compliance with the License.
 * You may obtain a copy of the License at http://www.apache.org/licenses/LICENSE-2.0
 */

.sprotty {
    padding: 0px;
    font-family: &quot;Helvetica Neue&quot;, Helvetica, Arial, sans-serif;
}

.sprotty-hidden {
    display: block;
    position: absolute;
    width: 0px;
    height: 0px;
}

.sprotty-popup {
    font-family: &quot;Helvetica Neue&quot;, Helvetica, Arial, sans-serif;
    position: absolute;
    background: white;
    border-radius: 5px;
    border: 1px solid;
    max-width: 400px;
    min-width: 100px;
}

.sprotty-popup &gt; div {
    margin: 10px;
}

.sprotty-popup-closed {
    display: none;
}
</style><g transform="scale(1) translate(0,0)"><g id="sprotty_3" transform="translate(117, 71)" opacity="1"><rect class="elknode" x="0" y="0" rx="10" width="3520" height="2558.5" /><g id="sprotty_5" transform="translate(1184.3333333333333, 1294.5)" opacity="1"><rect class="elknode" x="0" y="0" rx="10" width="200" height="60" /><text id="sprotty_6" class="elklabel" transform="translate(5, 22) translate(0, 0)" opacity="1">k8s_extensions_v1beta1_ingress.this</text></g><g id="sprotty_7" transform="translate(1885, 1312)" opacity="1"><rect class="elknode" x="0" y="0" rx="10" width="1368" height="1131" /><g id="sprotty_9" transform="translate(117, 71)" opacity="1"><rect class="elknode" x="0" y="0" rx="10" width="400" height="1010" /><g id="sprotty_11" transform="translate(100, 50)" opacity="1"><rect class="elknode" x="0" y="0" rx="10" width="200" height="60" /><text id="sprotty_12" class="elklabel" transform="translate(5, 22) translate(0, 0)" opacity="1">k8s_apps_v1_deployment.this</text></g><g id="sprotty_13" transform="translate(100, 160)" opacity="1"><rect class="elknode" x="0" y="0" rx="10" width="200" height="60" /><text id="sprotty_14" class="elklabel" transform="translate(5, 22) translate(0, 0)" opacity="1">k8s_core_v1_config_map.this</text></g><g id="sprotty_15" transform="translate(100, 270)" opacity="1"><rect class="elknode" x="0" y="0" rx="10" width="200" height="60" /><text id="sprotty_16" class="elklabel" transform="translate(5, 22) translate(0, 0)" opacity="1">k8s_core_v1_service.this</text></g><g id="sprotty_17" transform="translate(100, 380)" opacity="1"><rect class="elknode" x="0" y="0" rx="10" width="200" height="60" /><text id="sprotty_18" class="elklabel" transform="translate(5, 22) translate(0, 0)" opacity="1">k8s_core_v1_service_account.this</text></g><g id="sprotty_19" transform="translate(100, 490)" opacity="1"><rect class="elknode" x="0" y="0" rx="10" width="200" height="60" /><text id="sprotty_20" class="elklabel" transform="translate(5, 22) translate(0, 0)" opacity="1">k8s_rbac_authorization_k8s_io_v1_cluster_role_binding.this</text></g><g id="sprotty_106" transform="translate(100, 600)" opacity="1"><rect class="elknode" x="0" y="0" rx="10" width="200" height="60" /><text id="sprotty_107" class="elklabel" transform="translate(5, 22) translate(0, 0)" opacity="1">local.labels</text></g><g id="sprotty_73" transform="translate(-16, 50)" opacity="1"><rect class="elkport" x="0" y="0" width="16" height="9" /><text id="sprotty_74" class="elklabel" transform="translate(-1, 10) translate(0, 0)" opacity="1">annotations</text></g><g id="sprotty_76" transform="translate(-16, 110)" opacity="1"><rect class="elkport" x="0" y="0" width="16" height="9" /><text id="sprotty_77" class="elklabel" transform="translate(-1, 10) translate(0, 0)" opacity="1">dns_policy</text></g><g id="sprotty_79" transform="translate(-16, 170)" opacity="1"><rect class="elkport" x="0" y="0" width="16" height="9" /><text id="sprotty_80" class="elklabel" transform="translate(-1, 10) translate(0, 0)" opacity="1">gitlab_url</text></g><g id="sprotty_82" transform="translate(-16, 230)" opacity="1"><rect class="elkport" x="0" y="0" width="16" height="9" /><text id="sprotty_83" class="elklabel" transform="translate(-1, 10) translate(0, 0)" opacity="1">image</text></g><g id="sprotty_85" transform="translate(-16, 290)" opacity="1"><rect class="elkport" x="0" y="0" width="16" height="9" /><text id="sprotty_86" class="elklabel" transform="translate(-1, 10) translate(0, 0)" opacity="1">node_selector</text></g><g id="sprotty_88" transform="translate(-16, 350)" opacity="1"><rect class="elkport" x="0" y="0" width="16" height="9" /><text id="sprotty_89" class="elklabel" transform="translate(-1, 10) translate(0, 0)" opacity="1">priority_class_name</text></g><g id="sprotty_91" transform="translate(-16, 410)" opacity="1"><rect class="elkport" x="0" y="0" width="16" height="9" /><text id="sprotty_92" class="elklabel" transform="translate(-1, 10) translate(0, 0)" opacity="1">registration_token</text></g><g id="sprotty_94" transform="translate(-16, 470)" opacity="1"><rect class="elkport" x="0" y="0" width="16" height="9" /><text id="sprotty_95" class="elklabel" transform="translate(-1, 10) translate(0, 0)" opacity="1">replicas</text></g><g id="sprotty_97" transform="translate(-16, 530)" opacity="1"><rect class="elkport" x="0" y="0" width="16" height="9" /><text id="sprotty_98" class="elklabel" transform="translate(-1, 10) translate(0, 0)" opacity="1">restart_policy</text></g><g id="sprotty_100" transform="translate(-16, 590)" opacity="1"><rect class="elkport" x="0" y="0" width="16" height="9" /><text id="sprotty_101" class="elklabel" transform="translate(-1, 10) translate(0, 0)" opacity="1">scheduler_name</text></g><g id="sprotty_103" transform="translate(-16, 650)" opacity="1"><rect class="elkport" x="0" y="0" width="16" height="9" /><text id="sprotty_104" class="elklabel" transform="translate(-1, 10) translate(0, 0)" opacity="1">termination_grace_period_seconds</text></g><g id="sprotty_109" transform="translate(-16, 710)" opacity="1"><rect class="elkport" x="0" y="0" width="16" height="9" /><text id="sprotty_110" class="elklabel" transform="translate(-1, 10) translate(0, 0)" opacity="1">namespace</text></g><g id="sprotty_115" transform="translate(-16, 770)" opacity="1"><rect class="elkport" x="0" y="0" width="16" height="9" /><text id="sprotty_116" class="elklabel" transform="translate(-1, 10) translate(0, 0)" opacity="1">port</text></g><g id="sprotty_118" transform="translate(-16, 830)" opacity="1"><rect class="elkport" x="0" y="0" width="16" height="9" /><text id="sprotty_119" class="elklabel" transform="translate(-1, 10) translate(0, 0)" opacity="1">service_type</text></g><g id="sprotty_121" transform="translate(-16, 890)" opacity="1"><rect class="elkport" x="0" y="0" width="16" height="9" /><text id="sprotty_122" class="elklabel" transform="translate(-1, 10) translate(0, 0)" opacity="1">session_affinity</text></g><g id="sprotty_127" transform="translate(-16, 950)" opacity="1"><rect class="elkport" x="0" y="0" width="16" height="9" /><text id="sprotty_128" class="elklabel" transform="translate(-1, 10) translate(0, 0)" opacity="1">name</text></g><g id="sprotty_130" transform="translate(400, 50)" opacity="1"><rect class="elkport" x="0" y="0" width="16" height="9" /><text id="sprotty_131" class="elklabel" transform="translate(17, 10) translate(0, 0)" opacity="1">cluster_ip</text></g><g id="sprotty_133" transform="translate(400, 110)" opacity="1"><rect class="elkport" x="0" y="0" width="16" height="9" /><text id="sprotty_134" class="elklabel" transform="translate(17, 10) translate(0, 0)" opacity="1">deployment_uid</text></g><g id="sprotty_136" transform="translate(400, 170)" opacity="1"><rect class="elkport" x="0" y="0" width="16" height="9" /><text id="sprotty_137" class="elklabel" transform="translate(17, 10) translate(0, 0)" opacity="1">name</text></g><g id="sprotty_139" transform="translate(400, 230)" opacity="1"><rect class="elkport" x="0" y="0" width="16" height="9" /><text id="sprotty_140" class="elklabel" transform="translate(17, 10) translate(0, 0)" opacity="1">port</text></g><text id="sprotty_10" class="elklabel" transform="translate(0, -21) translate(0, 0)" opacity="1">gitlab-runner</text></g><g id="sprotty_21" transform="translate(601, 71)" opacity="1"><rect class="elknode" x="0" y="0" rx="10" width="650" height="1010" /><g id="sprotty_23" transform="translate(100, 50)" opacity="1"><rect class="elknode" x="0" y="0" rx="10" width="200" height="60" /><text id="sprotty_24" class="elklabel" transform="translate(5, 22) translate(0, 0)" opacity="1">k8s_apps_v1_stateful_set.gitlab</text></g><g id="sprotty_25" transform="translate(350, 50)" opacity="1"><rect class="elknode" x="0" y="0" rx="10" width="200" height="60" /><text id="sprotty_26" class="elklabel" transform="translate(5, 22) translate(0, 0)" opacity="1">k8s_core_v1_service.gitlab</text></g><g id="sprotty_27" transform="translate(100, 160)" opacity="1"><rect class="elknode" x="0" y="0" rx="10" width="200" height="60" /><text id="sprotty_28" class="elklabel" transform="translate(5, 22) translate(0, 0)" opacity="1">k8s_core_v1_service_account.gitlab</text></g><g id="sprotty_29" transform="translate(350, 160)" opacity="1"><rect class="elknode" x="0" y="0" rx="10" width="200" height="60" /><text id="sprotty_30" class="elklabel" transform="translate(5, 22) translate(0, 0)" opacity="1">k8s_policy_v1beta1_pod_disruption_budget.this</text></g><g id="sprotty_31" transform="translate(100, 270)" opacity="1"><rect class="elknode" x="0" y="0" rx="10" width="200" height="60" /><text id="sprotty_32" class="elklabel" transform="translate(5, 22) translate(0, 0)" opacity="1">k8s_rbac_authorization_k8s_io_v1_cluster_role.gitlab</text></g><g id="sprotty_33" transform="translate(350, 270)" opacity="1"><rect class="elknode" x="0" y="0" rx="10" width="200" height="60" /><text id="sprotty_34" class="elklabel" transform="translate(5, 22) translate(0, 0)" opacity="1">k8s_rbac_authorization_k8s_io_v1_cluster_role_binding.gitlab</text></g><g id="sprotty_156" transform="translate(100, 380)" opacity="1"><rect class="elknode" x="0" y="0" rx="10" width="200" height="60" /><text id="sprotty_157" class="elklabel" transform="translate(5, 22) translate(0, 0)" opacity="1">local.gitlab_omnibus_config</text></g><g id="sprotty_186" transform="translate(350, 380)" opacity="1"><rect class="elknode" x="0" y="0" rx="10" width="200" height="60" /><text id="sprotty_187" class="elklabel" transform="translate(5, 22) translate(0, 0)" opacity="1">local.labels</text></g><g id="sprotty_142" transform="translate(650, 50)" opacity="1"><rect class="elkport" x="0" y="0" width="16" height="9" /><text id="sprotty_143" class="elklabel" transform="translate(17, 10) translate(0, 0)" opacity="1">gitlab_external_url</text></g><g id="sprotty_148" transform="translate(650, 110)" opacity="1"><rect class="elkport" x="0" y="0" width="16" height="9" /><text id="sprotty_149" class="elklabel" transform="translate(17, 10) translate(0, 0)" opacity="1">gitlab_runners_registration_token</text></g><g id="sprotty_159" transform="translate(-16, 50)" opacity="1"><rect class="elkport" x="0" y="0" width="16" height="9" /><text id="sprotty_160" class="elklabel" transform="translate(-1, 10) translate(0, 0)" opacity="1">auto_devops_domain</text></g><g id="sprotty_162" transform="translate(-16, 110)" opacity="1"><rect class="elkport" x="0" y="0" width="16" height="9" /><text id="sprotty_163" class="elklabel" transform="translate(-1, 10) translate(0, 0)" opacity="1">gitlab_root_password</text></g><g id="sprotty_165" transform="translate(-16, 170)" opacity="1"><rect class="elkport" x="0" y="0" width="16" height="9" /><text id="sprotty_166" class="elklabel" transform="translate(-1, 10) translate(0, 0)" opacity="1">gitlab_runners_registration_token</text></g><g id="sprotty_168" transform="translate(-16, 230)" opacity="1"><rect class="elkport" x="0" y="0" width="16" height="9" /><text id="sprotty_169" class="elklabel" transform="translate(-1, 10) translate(0, 0)" opacity="1">image</text></g><g id="sprotty_171" transform="translate(-16, 290)" opacity="1"><rect class="elkport" x="0" y="0" width="16" height="9" /><text id="sprotty_172" class="elklabel" transform="translate(-1, 10) translate(0, 0)" opacity="1">node_selector</text></g><g id="sprotty_174" transform="translate(-16, 350)" opacity="1"><rect class="elkport" x="0" y="0" width="16" height="9" /><text id="sprotty_175" class="elklabel" transform="translate(-1, 10) translate(0, 0)" opacity="1">replicas</text></g><g id="sprotty_177" transform="translate(-16, 410)" opacity="1"><rect class="elkport" x="0" y="0" width="16" height="9" /><text id="sprotty_178" class="elklabel" transform="translate(-1, 10) translate(0, 0)" opacity="1">storage</text></g><g id="sprotty_180" transform="translate(-16, 470)" opacity="1"><rect class="elkport" x="0" y="0" width="16" height="9" /><text id="sprotty_181" class="elklabel" transform="translate(-1, 10) translate(0, 0)" opacity="1">storage_class_name</text></g><g id="sprotty_183" transform="translate(-16, 530)" opacity="1"><rect class="elkport" x="0" y="0" width="16" height="9" /><text id="sprotty_184" class="elklabel" transform="translate(-1, 10) translate(0, 0)" opacity="1">volume_claim_template_name</text></g><g id="sprotty_189" transform="translate(-16, 590)" opacity="1"><rect class="elkport" x="0" y="0" width="16" height="9" /><text id="sprotty_190" class="elklabel" transform="translate(-1, 10) translate(0, 0)" opacity="1">annotations</text></g><g id="sprotty_192" transform="translate(-16, 650)" opacity="1"><rect class="elkport" x="0" y="0" width="16" height="9" /><text id="sprotty_193" class="elklabel" transform="translate(-1, 10) translate(0, 0)" opacity="1">namespace</text></g><g id="sprotty_195" transform="translate(-16, 710)" opacity="1"><rect class="elkport" x="0" y="0" width="16" height="9" /><text id="sprotty_196" class="elklabel" transform="translate(-1, 10) translate(0, 0)" opacity="1">port</text></g><g id="sprotty_198" transform="translate(-16, 770)" opacity="1"><rect class="elkport" x="0" y="0" width="16" height="9" /><text id="sprotty_199" class="elklabel" transform="translate(-1, 10) translate(0, 0)" opacity="1">name</text></g><g id="sprotty_206" transform="translate(-16, 830)" opacity="1"><rect class="elkport" x="0" y="0" width="16" height="9" /><text id="sprotty_207" class="elklabel" transform="translate(-1, 10) translate(0, 0)" opacity="1">gitlab_external_url</text></g><g id="sprotty_209" transform="translate(-16, 890)" opacity="1"><rect class="elkport" x="0" y="0" width="16" height="9" /><text id="sprotty_210" class="elklabel" transform="translate(-1, 10) translate(0, 0)" opacity="1">mattermost_external_url</text></g><g id="sprotty_212" transform="translate(-16, 950)" opacity="1"><rect class="elkport" x="0" y="0" width="16" height="9" /><text id="sprotty_213" class="elklabel" transform="translate(-1, 10) translate(0, 0)" opacity="1">registry_external_url</text></g><g id="sprotty_216" transform="translate(650, 170)" opacity="1"><rect class="elkport" x="0" y="0" width="16" height="9" /><text id="sprotty_217" class="elklabel" transform="translate(17, 10) translate(0, 0)" opacity="1">cluster_ip</text></g><g id="sprotty_221" transform="translate(650, 230)" opacity="1"><rect class="elkport" x="0" y="0" width="16" height="9" /><text id="sprotty_222" class="elklabel" transform="translate(17, 10) translate(0, 0)" opacity="1">name</text></g><g id="sprotty_224" transform="translate(650, 290)" opacity="1"><rect class="elkport" x="0" y="0" width="16" height="9" /><text id="sprotty_225" class="elklabel" transform="translate(17, 10) translate(0, 0)" opacity="1">port</text></g><g id="sprotty_227" transform="translate(650, 350)" opacity="1"><rect class="elkport" x="0" y="0" width="16" height="9" /><text id="sprotty_228" class="elklabel" transform="translate(17, 10) translate(0, 0)" opacity="1">statefulset_uid</text></g><text id="sprotty_22" class="elklabel" transform="translate(0, -21) translate(0, 0)" opacity="1">gitlab</text></g><g id="sprotty_145" transform="translate(-16, 50)" opacity="1"><rect class="elkport" x="0" y="0" width="16" height="9" /><text id="sprotty_146" class="elklabel" transform="translate(-1, 10) translate(0, 0)" opacity="1">name</text></g><g id="sprotty_151" transform="translate(-16, 110)" opacity="1"><rect class="elkport" x="0" y="0" width="16" height="9" /><text id="sprotty_152" class="elklabel" transform="translate(-1, 10) translate(0, 0)" opacity="1">gitlab_runner_replicas</text></g><g id="sprotty_230" transform="translate(-16, 170)" opacity="1"><rect class="elkport" x="0" y="0" width="16" height="9" /><text id="sprotty_231" class="elklabel" transform="translate(-1, 10) translate(0, 0)" opacity="1">annotations</text></g><g id="sprotty_233" transform="translate(-16, 230)" opacity="1"><rect class="elkport" x="0" y="0" width="16" height="9" /><text id="sprotty_234" class="elklabel" transform="translate(-1, 10) translate(0, 0)" opacity="1">auto_devops_domain</text></g><g id="sprotty_236" transform="translate(-16, 290)" opacity="1"><rect class="elkport" x="0" y="0" width="16" height="9" /><text id="sprotty_237" class="elklabel" transform="translate(-1, 10) translate(0, 0)" opacity="1">gitlab_external_url</text></g><g id="sprotty_239" transform="translate(-16, 350)" opacity="1"><rect class="elkport" x="0" y="0" width="16" height="9" /><text id="sprotty_240" class="elklabel" transform="translate(-1, 10) translate(0, 0)" opacity="1">gitlab_root_password</text></g><g id="sprotty_242" transform="translate(-16, 410)" opacity="1"><rect class="elkport" x="0" y="0" width="16" height="9" /><text id="sprotty_243" class="elklabel" transform="translate(-1, 10) translate(0, 0)" opacity="1">gitlab_runners_registration_token</text></g><g id="sprotty_245" transform="translate(-16, 470)" opacity="1"><rect class="elkport" x="0" y="0" width="16" height="9" /><text id="sprotty_246" class="elklabel" transform="translate(-1, 10) translate(0, 0)" opacity="1">mattermost_external_url</text></g><g id="sprotty_249" transform="translate(-16, 530)" opacity="1"><rect class="elkport" x="0" y="0" width="16" height="9" /><text id="sprotty_250" class="elklabel" transform="translate(-1, 10) translate(0, 0)" opacity="1">registry_external_url</text></g><g id="sprotty_252" transform="translate(-16, 590)" opacity="1"><rect class="elkport" x="0" y="0" width="16" height="9" /><text id="sprotty_253" class="elklabel" transform="translate(-1, 10) translate(0, 0)" opacity="1">storage</text></g><g id="sprotty_255" transform="translate(-16, 650)" opacity="1"><rect class="elkport" x="0" y="0" width="16" height="9" /><text id="sprotty_256" class="elklabel" transform="translate(-1, 10) translate(0, 0)" opacity="1">storage_class_name</text></g><g id="sprotty_258" transform="translate(1368, 50)" opacity="1"><rect class="elkport" x="0" y="0" width="16" height="9" /><text id="sprotty_259" class="elklabel" transform="translate(17, -1) translate(0, 0)" opacity="1">gitlab_external_url</text></g><g id="sprotty_261" transform="translate(1368, 110)" opacity="1"><rect class="elkport" x="0" y="0" width="16" height="9" /><text id="sprotty_262" class="elklabel" transform="translate(17, 10) translate(0, 0)" opacity="1">mattermost_external_url</text></g><text id="sprotty_8" class="elklabel" transform="translate(0, -21) translate(0, 0)" opacity="1">gitlab</text></g><g id="sprotty_35" transform="translate(2124.333333333333, 121)" opacity="1"><rect class="elknode" x="0" y="0" rx="10" width="650" height="1070" /><g id="sprotty_37" transform="translate(100, 50)" opacity="1"><rect class="elknode" x="0" y="0" rx="10" width="200" height="60" /><text id="sprotty_38" class="elklabel" transform="translate(5, 22) translate(0, 0)" opacity="1">k8s_apps_v1_deployment.this</text></g><g id="sprotty_39" transform="translate(350, 50)" opacity="1"><rect class="elknode" x="0" y="0" rx="10" width="200" height="60" /><text id="sprotty_40" class="elklabel" transform="translate(5, 22) translate(0, 0)" opacity="1">k8s_core_v1_config_map.this</text></g><g id="sprotty_41" transform="translate(100, 160)" opacity="1"><rect class="elknode" x="0" y="0" rx="10" width="200" height="60" /><text id="sprotty_42" class="elklabel" transform="translate(5, 22) translate(0, 0)" opacity="1">k8s_core_v1_service.this</text></g><g id="sprotty_43" transform="translate(350, 160)" opacity="1"><rect class="elknode" x="0" y="0" rx="10" width="200" height="60" /><text id="sprotty_44" class="elklabel" transform="translate(5, 22) translate(0, 0)" opacity="1">k8s_core_v1_service_account.this</text></g><g id="sprotty_45" transform="translate(100, 270)" opacity="1"><rect class="elknode" x="0" y="0" rx="10" width="200" height="60" /><text id="sprotty_46" class="elklabel" transform="translate(5, 22) translate(0, 0)" opacity="1">k8s_rbac_authorization_k8s_io_v1_cluster_role.this</text></g><g id="sprotty_47" transform="translate(350, 270)" opacity="1"><rect class="elknode" x="0" y="0" rx="10" width="200" height="60" /><text id="sprotty_48" class="elklabel" transform="translate(5, 22) translate(0, 0)" opacity="1">k8s_rbac_authorization_k8s_io_v1_cluster_role_binding.this</text></g><g id="sprotty_49" transform="translate(100, 380)" opacity="1"><rect class="elknode" x="0" y="0" rx="10" width="200" height="60" /><text id="sprotty_50" class="elklabel" transform="translate(5, 22) translate(0, 0)" opacity="1">k8s_rbac_authorization_k8s_io_v1_role.this</text></g><g id="sprotty_51" transform="translate(350, 380)" opacity="1"><rect class="elknode" x="0" y="0" rx="10" width="200" height="60" /><text id="sprotty_52" class="elklabel" transform="translate(5, 22) translate(0, 0)" opacity="1">k8s_rbac_authorization_k8s_io_v1_role_binding.this</text></g><g id="sprotty_321" transform="translate(100, 490)" opacity="1"><rect class="elknode" x="0" y="0" rx="10" width="200" height="60" /><text id="sprotty_322" class="elklabel" transform="translate(5, 22) translate(0, 0)" opacity="1">local.labels</text></g><g id="sprotty_291" transform="translate(-16, 50)" opacity="1"><rect class="elkport" x="0" y="0" width="16" height="9" /><text id="sprotty_292" class="elklabel" transform="translate(-1, 10) translate(0, 0)" opacity="1">annotations</text></g><g id="sprotty_294" transform="translate(-16, 110)" opacity="1"><rect class="elkport" x="0" y="0" width="16" height="9" /><text id="sprotty_295" class="elklabel" transform="translate(-1, 10) translate(0, 0)" opacity="1">annotations_prefix</text></g><g id="sprotty_297" transform="translate(-16, 170)" opacity="1"><rect class="elkport" x="0" y="0" width="16" height="9" /><text id="sprotty_298" class="elklabel" transform="translate(-1, 10) translate(0, 0)" opacity="1">dns_policy</text></g><g id="sprotty_300" transform="translate(-16, 230)" opacity="1"><rect class="elkport" x="0" y="0" width="16" height="9" /><text id="sprotty_301" class="elklabel" transform="translate(-1, 10) translate(0, 0)" opacity="1">image</text></g><g id="sprotty_303" transform="translate(-16, 290)" opacity="1"><rect class="elkport" x="0" y="0" width="16" height="9" /><text id="sprotty_304" class="elklabel" transform="translate(-1, 10) translate(0, 0)" opacity="1">node_selector</text></g><g id="sprotty_306" transform="translate(-16, 350)" opacity="1"><rect class="elkport" x="0" y="0" width="16" height="9" /><text id="sprotty_307" class="elklabel" transform="translate(-1, 10) translate(0, 0)" opacity="1">priority_class_name</text></g><g id="sprotty_309" transform="translate(-16, 410)" opacity="1"><rect class="elkport" x="0" y="0" width="16" height="9" /><text id="sprotty_310" class="elklabel" transform="translate(-1, 10) translate(0, 0)" opacity="1">replicas</text></g><g id="sprotty_312" transform="translate(-16, 470)" opacity="1"><rect class="elkport" x="0" y="0" width="16" height="9" /><text id="sprotty_313" class="elklabel" transform="translate(-1, 10) translate(0, 0)" opacity="1">restart_policy</text></g><g id="sprotty_315" transform="translate(-16, 530)" opacity="1"><rect class="elkport" x="0" y="0" width="16" height="9" /><text id="sprotty_316" class="elklabel" transform="translate(-1, 10) translate(0, 0)" opacity="1">scheduler_name</text></g><g id="sprotty_318" transform="translate(-16, 590)" opacity="1"><rect class="elkport" x="0" y="0" width="16" height="9" /><text id="sprotty_319" class="elklabel" transform="translate(-1, 10) translate(0, 0)" opacity="1">termination_grace_period_seconds</text></g><g id="sprotty_324" transform="translate(-16, 650)" opacity="1"><rect class="elkport" x="0" y="0" width="16" height="9" /><text id="sprotty_325" class="elklabel" transform="translate(-1, 10) translate(0, 0)" opacity="1">namespace</text></g><g id="sprotty_330" transform="translate(-16, 710)" opacity="1"><rect class="elkport" x="0" y="0" width="16" height="9" /><text id="sprotty_331" class="elklabel" transform="translate(-1, 10) translate(0, 0)" opacity="1">node_port_http</text></g><g id="sprotty_333" transform="translate(-16, 770)" opacity="1"><rect class="elkport" x="0" y="0" width="16" height="9" /><text id="sprotty_334" class="elklabel" transform="translate(-1, 10) translate(0, 0)" opacity="1">node_port_https</text></g><g id="sprotty_336" transform="translate(-16, 830)" opacity="1"><rect class="elkport" x="0" y="0" width="16" height="9" /><text id="sprotty_337" class="elklabel" transform="translate(-1, 10) translate(0, 0)" opacity="1">port</text></g><g id="sprotty_339" transform="translate(-16, 890)" opacity="1"><rect class="elkport" x="0" y="0" width="16" height="9" /><text id="sprotty_340" class="elklabel" transform="translate(-1, 10) translate(0, 0)" opacity="1">service_type</text></g><g id="sprotty_342" transform="translate(-16, 950)" opacity="1"><rect class="elkport" x="0" y="0" width="16" height="9" /><text id="sprotty_343" class="elklabel" transform="translate(-1, 10) translate(0, 0)" opacity="1">session_affinity</text></g><g id="sprotty_354" transform="translate(-16, 1010)" opacity="1"><rect class="elkport" x="0" y="0" width="16" height="9" /><text id="sprotty_355" class="elklabel" transform="translate(-1, 10) translate(0, 0)" opacity="1">name</text></g><g id="sprotty_357" transform="translate(650, 50)" opacity="1"><rect class="elkport" x="0" y="0" width="16" height="9" /><text id="sprotty_358" class="elklabel" transform="translate(17, 10) translate(0, 0)" opacity="1">annotations_prefix</text></g><g id="sprotty_360" transform="translate(650, 110)" opacity="1"><rect class="elkport" x="0" y="0" width="16" height="9" /><text id="sprotty_361" class="elklabel" transform="translate(17, 10) translate(0, 0)" opacity="1">cluster_ip</text></g><g id="sprotty_363" transform="translate(650, 170)" opacity="1"><rect class="elkport" x="0" y="0" width="16" height="9" /><text id="sprotty_364" class="elklabel" transform="translate(17, 10) translate(0, 0)" opacity="1">deployment_uid</text></g><g id="sprotty_366" transform="translate(650, 230)" opacity="1"><rect class="elkport" x="0" y="0" width="16" height="9" /><text id="sprotty_367" class="elklabel" transform="translate(17, 10) translate(0, 0)" opacity="1">name</text></g><g id="sprotty_369" transform="translate(650, 290)" opacity="1"><rect class="elkport" x="0" y="0" width="16" height="9" /><text id="sprotty_370" class="elklabel" transform="translate(17, 10) translate(0, 0)" opacity="1">node_port_http</text></g><g id="sprotty_372" transform="translate(650, 350)" opacity="1"><rect class="elkport" x="0" y="0" width="16" height="9" /><text id="sprotty_373" class="elklabel" transform="translate(17, 10) translate(0, 0)" opacity="1">node_port_https</text></g><g id="sprotty_375" transform="translate(650, 410)" opacity="1"><rect class="elkport" x="0" y="0" width="16" height="9" /><text id="sprotty_376" class="elklabel" transform="translate(17, 10) translate(0, 0)" opacity="1">port</text></g><text id="sprotty_36" class="elklabel" transform="translate(0, -21) translate(0, 0)" opacity="1">ingress-controller</text></g><g id="sprotty_53" transform="translate(417, 1566.5)" opacity="1"><rect class="elknode" x="0" y="0" rx="10" width="400" height="470" /><g id="sprotty_55" transform="translate(100, 50)" opacity="1"><rect class="elknode" x="0" y="0" rx="10" width="200" height="60" /><text id="sprotty_56" class="elklabel" transform="translate(5, 22) translate(0, 0)" opacity="1">k8s_apps_v1_deployment.this</text></g><g id="sprotty_57" transform="translate(100, 160)" opacity="1"><rect class="elknode" x="0" y="0" rx="10" width="200" height="60" /><text id="sprotty_58" class="elklabel" transform="translate(5, 22) translate(0, 0)" opacity="1">k8s_core_v1_service.this</text></g><g id="sprotty_383" transform="translate(100, 270)" opacity="1"><rect class="elknode" x="0" y="0" rx="10" width="200" height="60" /><text id="sprotty_384" class="elklabel" transform="translate(5, 22) translate(0, 0)" opacity="1">local.labels</text></g><g id="sprotty_386" transform="translate(-16, 50)" opacity="1"><rect class="elkport" x="0" y="0" width="16" height="9" /><text id="sprotty_387" class="elklabel" transform="translate(-1, 10) translate(0, 0)" opacity="1">image</text></g><g id="sprotty_389" transform="translate(-16, 110)" opacity="1"><rect class="elkport" x="0" y="0" width="16" height="9" /><text id="sprotty_390" class="elklabel" transform="translate(-1, 10) translate(0, 0)" opacity="1">namespace</text></g><g id="sprotty_392" transform="translate(-16, 170)" opacity="1"><rect class="elkport" x="0" y="0" width="16" height="9" /><text id="sprotty_393" class="elklabel" transform="translate(-1, 10) translate(0, 0)" opacity="1">node_selector</text></g><g id="sprotty_395" transform="translate(-16, 230)" opacity="1"><rect class="elkport" x="0" y="0" width="16" height="9" /><text id="sprotty_396" class="elklabel" transform="translate(-1, 10) translate(0, 0)" opacity="1">replicas</text></g><g id="sprotty_399" transform="translate(-16, 290)" opacity="1"><rect class="elkport" x="0" y="0" width="16" height="9" /><text id="sprotty_400" class="elklabel" transform="translate(-1, 10) translate(0, 0)" opacity="1">annotations</text></g><g id="sprotty_403" transform="translate(-16, 350)" opacity="1"><rect class="elkport" x="0" y="0" width="16" height="9" /><text id="sprotty_404" class="elklabel" transform="translate(-1, 10) translate(0, 0)" opacity="1">port</text></g><g id="sprotty_406" transform="translate(-16, 410)" opacity="1"><rect class="elkport" x="0" y="0" width="16" height="9" /><text id="sprotty_407" class="elklabel" transform="translate(-1, 10) translate(0, 0)" opacity="1">name</text></g><g id="sprotty_409" transform="translate(400, 50)" opacity="1"><rect class="elkport" x="0" y="0" width="16" height="9" /><text id="sprotty_410" class="elklabel" transform="translate(17, 10) translate(0, 0)" opacity="1">cluster_ip</text></g><g id="sprotty_412" transform="translate(400, 110)" opacity="1"><rect class="elkport" x="0" y="0" width="16" height="9" /><text id="sprotty_413" class="elklabel" transform="translate(17, 10) translate(0, 0)" opacity="1">deployment_uid</text></g><g id="sprotty_415" transform="translate(400, 170)" opacity="1"><rect class="elkport" x="0" y="0" width="16" height="9" /><text id="sprotty_416" class="elklabel" transform="translate(17, 10) translate(0, 0)" opacity="1">name</text></g><g id="sprotty_418" transform="translate(400, 230)" opacity="1"><rect class="elkport" x="0" y="0" width="16" height="9" /><text id="sprotty_419" class="elklabel" transform="translate(17, 10) translate(0, 0)" opacity="1">port</text></g><text id="sprotty_54" class="elklabel" transform="translate(0, -21) translate(0, 0)" opacity="1">nfs-server</text></g><g id="sprotty_59" transform="translate(1051, 1852)" opacity="1"><rect class="elknode" x="0" y="0" rx="10" width="400" height="410" /><g id="sprotty_61" transform="translate(100, 50)" opacity="1"><rect class="elknode" x="0" y="0" rx="10" width="200" height="60" /><text id="sprotty_62" class="elklabel" transform="translate(5, 22) translate(0, 0)" opacity="1">k8s_core_v1_persistent_volume.this</text></g><g id="sprotty_63" transform="translate(100, 160)" opacity="1"><rect class="elknode" x="0" y="0" rx="10" width="200" height="60" /><text id="sprotty_64" class="elklabel" transform="translate(5, 22) translate(0, 0)" opacity="1">k8s_core_v1_persistent_volume_claim.this</text></g><g id="sprotty_282" transform="translate(400, 50)" opacity="1"><rect class="elkport" x="0" y="0" width="16" height="9" /><text id="sprotty_283" class="elklabel" transform="translate(17, 10) translate(0, 0)" opacity="1">storage</text></g><g id="sprotty_285" transform="translate(400, 110)" opacity="1"><rect class="elkport" x="0" y="0" width="16" height="9" /><text id="sprotty_286" class="elklabel" transform="translate(17, 10) translate(0, 0)" opacity="1">storage_class_name</text></g><g id="sprotty_421" transform="translate(-16, 50)" opacity="1"><rect class="elkport" x="0" y="0" width="16" height="9" /><text id="sprotty_422" class="elklabel" transform="translate(-1, 10) translate(0, 0)" opacity="1">annotations</text></g><g id="sprotty_424" transform="translate(-16, 110)" opacity="1"><rect class="elkport" x="0" y="0" width="16" height="9" /><text id="sprotty_425" class="elklabel" transform="translate(-1, 10) translate(0, 0)" opacity="1">count</text></g><g id="sprotty_427" transform="translate(-16, 170)" opacity="1"><rect class="elkport" x="0" y="0" width="16" height="9" /><text id="sprotty_428" class="elklabel" transform="translate(-1, 10) translate(0, 0)" opacity="1">mount_options</text></g><g id="sprotty_430" transform="translate(-16, 230)" opacity="1"><rect class="elkport" x="0" y="0" width="16" height="9" /><text id="sprotty_431" class="elklabel" transform="translate(-1, 10) translate(0, 0)" opacity="1">name</text></g><g id="sprotty_433" transform="translate(-16, 290)" opacity="1"><rect class="elkport" x="0" y="0" width="16" height="9" /><text id="sprotty_434" class="elklabel" transform="translate(-1, 10) translate(0, 0)" opacity="1">nfs_server</text></g><g id="sprotty_436" transform="translate(-16, 350)" opacity="1"><rect class="elkport" x="0" y="0" width="16" height="9" /><text id="sprotty_437" class="elklabel" transform="translate(-1, 10) translate(0, 0)" opacity="1">storage</text></g><g id="sprotty_440" transform="translate(400, 170)" opacity="1"><rect class="elkport" x="0" y="0" width="16" height="9" /><text id="sprotty_441" class="elklabel" transform="translate(17, 10) translate(0, 0)" opacity="1">count</text></g><text id="sprotty_60" class="elklabel" transform="translate(0, -21) translate(0, 0)" opacity="1">storage</text></g><g id="sprotty_446" transform="translate(617, 1385.5)" opacity="1"><rect class="elknode" x="0" y="0" rx="10" width="200" height="60" /><text id="sprotty_447" class="elklabel" transform="translate(5, 22) translate(0, 0)" opacity="1">local.mount_options</text></g><g id="sprotty_65" transform="translate(-16, 1310)" opacity="1"><rect class="elkport" x="0" y="0" width="16" height="9" /><text id="sprotty_66" class="elklabel" transform="translate(-1, 10) translate(0, 0)" opacity="1">ingress_host</text></g><g id="sprotty_68" transform="translate(-16, 1131)" opacity="1"><rect class="elkport" x="0" y="0" width="16" height="9" /><text id="sprotty_69" class="elklabel" transform="translate(-1, 10) translate(0, 0)" opacity="1">name</text></g><g id="sprotty_264" transform="translate(-16, 891)" opacity="1"><rect class="elkport" x="0" y="0" width="16" height="9" /><text id="sprotty_265" class="elklabel" transform="translate(-1, 10) translate(0, 0)" opacity="1">auto_devops_domain</text></g><g id="sprotty_268" transform="translate(-16, 951)" opacity="1"><rect class="elkport" x="0" y="0" width="16" height="9" /><text id="sprotty_269" class="elklabel" transform="translate(-1, 10) translate(0, 0)" opacity="1">ingress_node_port_http</text></g><g id="sprotty_271" transform="translate(-16, 1011)" opacity="1"><rect class="elkport" x="0" y="0" width="16" height="9" /><text id="sprotty_272" class="elklabel" transform="translate(-1, 10) translate(0, 0)" opacity="1">gitlab_root_password</text></g><g id="sprotty_274" transform="translate(-16, 1071)" opacity="1"><rect class="elkport" x="0" y="0" width="16" height="9" /><text id="sprotty_275" class="elklabel" transform="translate(-1, 10) translate(0, 0)" opacity="1">gitlab_runners_registration_token</text></g><g id="sprotty_380" transform="translate(-16, 831)" opacity="1"><rect class="elkport" x="0" y="0" width="16" height="9" /><text id="sprotty_381" class="elklabel" transform="translate(-1, 10) translate(0, 0)" opacity="1">ingress_node_port_https</text></g><g id="sprotty_451" transform="translate(3520, 2498.5)" opacity="1"><rect class="elkport" x="0" y="0" width="16" height="9" /><text id="sprotty_452" class="elklabel" transform="translate(17, 10) translate(0, 0)" opacity="1">urls</text></g><text id="sprotty_4" class="elklabel" transform="translate(0, -21) translate(0, 0)" opacity="1">examples/gitlab</text><g id="sprotty_67" class="sprotty-edge" opacity="1"><path class="elkedge" d="M 0,1314.5 L 1184.3333333333333,1314.5" /><path class="edge arrow" d="M 0,0 L 8,-3 L 8,3 Z" transform="rotate(180 1184.3333333333333 1314.5) translate(1184.3333333333333 1314.5)" /></g><g id="sprotty_70" class="sprotty-edge" opacity="1"><path class="elkedge" d="M 0,1135.5 L 150,1135.5 L 150,1334.5 L 1184.3333333333333,1334.5" /><path class="edge arrow" d="M 0,0 L 8,-3 L 8,3 Z" transform="rotate(180 1184.3333333333333 1334.5) translate(1184.3333333333333 1334.5)" /><g id="sprotty_70_j0" transform="translate(150, 1135.5)" opacity="1"><circle class="elkjunction" r="2" /></g><g id="sprotty_70_j1" transform="translate(150, 1334.5)" opacity="1"><circle class="elkjunction" r="2" /></g></g><g id="sprotty_71" class="sprotty-edge" opacity="1"><path class="elkedge" d="M 2202,1543 L 2202,1493" /><path class="edge arrow" d="M 0,0 L 8,-3 L 8,3 Z" transform="rotate(90 2202 1493) translate(2202 1493)" /></g><g id="sprotty_72" class="sprotty-edge" opacity="1"><path class="elkedge" d="M 2202,1873 L 2202,1493" /><path class="edge arrow" d="M 0,0 L 8,-3 L 8,3 Z" transform="rotate(90 2202 1493) translate(2202 1493)" /></g><g id="sprotty_75" class="sprotty-edge" opacity="1"><path class="elkedge" d="M 2002,1438.4807692307693 L 2102,1450.7403846153845" /><path class="edge arrow" d="M 0,0 L 8,-3 L 8,3 Z" transform="rotate(-173.0106348436616 2102 1450.7403846153845) translate(2102 1450.7403846153845)" /></g><g id="sprotty_78" class="sprotty-edge" opacity="1"><path class="elkedge" d="M 2002,1496.173076923077 L 2102,1479.5865384615386" /><path class="edge arrow" d="M 0,0 L 8,-3 L 8,3 Z" transform="rotate(170.58235285466577 2102 1479.5865384615386) translate(2102 1479.5865384615386)" /></g><g id="sprotty_81" class="sprotty-edge" opacity="1"><path class="elkedge" d="M 2002,1553.8653846153845 L 2135.968253968254,1493" /><path class="edge arrow" d="M 0,0 L 8,-3 L 8,3 Z" transform="rotate(155.5664230096372 2135.968253968254 1493) translate(2135.968253968254 1493)" /></g><g id="sprotty_84" class="sprotty-edge" opacity="1"><path class="elkedge" d="M 2000.0582524271845,1613 L 2161.6116504854367,1493" /><path class="edge arrow" d="M 0,0 L 8,-3 L 8,3 Z" transform="rotate(143.39546107211743 2161.6116504854367 1493) translate(2161.6116504854367 1493)" /></g><g id="sprotty_87" class="sprotty-edge" opacity="1"><path class="elkedge" d="M 1998.3636363636363,1673 L 2172.909090909091,1493" /><path class="edge arrow" d="M 0,0 L 8,-3 L 8,3 Z" transform="rotate(134.1185960034179 2172.909090909091 1493) translate(2172.909090909091 1493)" /></g><g id="sprotty_90" class="sprotty-edge" opacity="1"><path class="elkedge" d="M 1997.4098360655737,1733 L 2179.2677595628415,1493" /><path class="edge arrow" d="M 0,0 L 8,-3 L 8,3 Z" transform="rotate(127.15271423731083 2179.2677595628415 1493) translate(2179.2677595628415 1493)" /></g><g id="sprotty_93" class="sprotty-edge" opacity="1"><path class="elkedge" d="M 1996.798206278027,1793 L 2183.345291479821,1493" /><path class="edge arrow" d="M 0,0 L 8,-3 L 8,3 Z" transform="rotate(121.8743247375575 2183.345291479821 1493) translate(2183.345291479821 1493)" /></g><g id="sprotty_96" class="sprotty-edge" opacity="1"><path class="elkedge" d="M 1996.3726235741444,1853 L 2186.1825095057034,1493" /><path class="edge arrow" d="M 0,0 L 8,-3 L 8,3 Z" transform="rotate(117.80042566034118 2186.1825095057034 1493) translate(2186.1825095057034 1493)" /></g><g id="sprotty_99" class="sprotty-edge" opacity="1"><path class="elkedge" d="M 1996.0594059405942,1913 L 2188.2706270627064,1493" /><path class="edge arrow" d="M 0,0 L 8,-3 L 8,3 Z" transform="rotate(114.59100050152601 2188.2706270627064 1493) translate(2188.2706270627064 1493)" /></g><g id="sprotty_102" class="sprotty-edge" opacity="1"><path class="elkedge" d="M 1995.8192419825073,1973 L 2189.8717201166182,1493" /><path class="edge arrow" d="M 0,0 L 8,-3 L 8,3 Z" transform="rotate(112.01230148180704 2189.8717201166182 1493) translate(2189.8717201166182 1493)" /></g><g id="sprotty_105" class="sprotty-edge" opacity="1"><path class="elkedge" d="M 1995.6292428198433,2033 L 2191.1383812010445,1493" /><path class="edge arrow" d="M 0,0 L 8,-3 L 8,3 Z" transform="rotate(109.90298942454936 2191.1383812010445 1493) translate(2191.1383812010445 1493)" /></g><g id="sprotty_108" class="sprotty-edge" opacity="1"><path class="elkedge" d="M 2202,1983 L 2202,1603" /><path class="edge arrow" d="M 0,0 L 8,-3 L 8,3 Z" transform="rotate(90 2202 1603) translate(2202 1603)" /></g><g id="sprotty_111" class="sprotty-edge" opacity="1"><path class="elkedge" d="M 1995.7845567206864,2093 L 2190.1029551954243,1603" /><path class="edge arrow" d="M 0,0 L 8,-3 L 8,3 Z" transform="rotate(111.63170058143358 2190.1029551954243 1603) translate(2190.1029551954243 1603)" /></g><g id="sprotty_112" class="sprotty-edge" opacity="1"><path class="elkedge" d="M 2202,1983 L 2202,1713" /><path class="edge arrow" d="M 0,0 L 8,-3 L 8,3 Z" transform="rotate(90 2202 1713) translate(2202 1713)" /></g><g id="sprotty_113" class="sprotty-edge" opacity="1"><path class="elkedge" d="M 1997.8126272912423,1442 L 2176.582484725051,1653" /><path class="edge arrow" d="M 0,0 L 8,-3 L 8,3 Z" transform="rotate(-130.27295566323377 2176.582484725051 1653) translate(2176.582484725051 1653)" /></g><g id="sprotty_114" class="sprotty-edge" opacity="1"><path class="elkedge" d="M 1996.258142340169,2093 L 2186.9457177322074,1713" /><path class="edge arrow" d="M 0,0 L 8,-3 L 8,3 Z" transform="rotate(116.64792833168704 2186.9457177322074 1713) translate(2186.9457177322074 1713)" /></g><g id="sprotty_117" class="sprotty-edge" opacity="1"><path class="elkedge" d="M 1995.972602739726,2153 L 2188.849315068493,1713" /><path class="edge arrow" d="M 0,0 L 8,-3 L 8,3 Z" transform="rotate(113.67053848472045 2188.849315068493 1713) translate(2188.849315068493 1713)" /></g><g id="sprotty_120" class="sprotty-edge" opacity="1"><path class="elkedge" d="M 1995.7511693171189,2213 L 2190.325537885875,1713" /><path class="edge arrow" d="M 0,0 L 8,-3 L 8,3 Z" transform="rotate(111.26343675623957 2190.325537885875 1713) translate(2190.325537885875 1713)" /></g><g id="sprotty_123" class="sprotty-edge" opacity="1"><path class="elkedge" d="M 1995.574432296047,2273 L 2191.5037846930195,1713" /><path class="edge arrow" d="M 0,0 L 8,-3 L 8,3 Z" transform="rotate(109.2836065616953 2191.5037846930195 1713) translate(2191.5037846930195 1713)" /></g><g id="sprotty_124" class="sprotty-edge" opacity="1"><path class="elkedge" d="M 2202,1983 L 2202,1823" /><path class="edge arrow" d="M 0,0 L 8,-3 L 8,3 Z" transform="rotate(90 2202 1823) translate(2202 1823)" /></g><g id="sprotty_125" class="sprotty-edge" opacity="1"><path class="elkedge" d="M 1997.0738916256157,2093 L 2181.5073891625616,1823" /><path class="edge arrow" d="M 0,0 L 8,-3 L 8,3 Z" transform="rotate(124.33647612215326 2181.5073891625616 1823) translate(2181.5073891625616 1823)" /></g><g id="sprotty_126" class="sprotty-edge" opacity="1"><path class="elkedge" d="M 2202,1823 L 2202,1873" /><path class="edge arrow" d="M 0,0 L 8,-3 L 8,3 Z" transform="rotate(-90 2202 1873) translate(2202 1873)" /></g><g id="sprotty_129" class="sprotty-edge" opacity="1"><path class="elkedge" d="M 1996.884437596302,2333 L 2182.770416024653,2043" /><path class="edge arrow" d="M 0,0 L 8,-3 L 8,3 Z" transform="rotate(122.65930829224031 2182.770416024653 2043) translate(2182.770416024653 2043)" /></g><g id="sprotty_132" class="sprotty-edge" opacity="1"><path class="elkedge" d="M 2227.417515274949,1653 L 2406.1873727087577,1442" /><path class="edge arrow" d="M 0,0 L 8,-3 L 8,3 Z" transform="rotate(130.27295566323377 2406.1873727087577 1442) translate(2406.1873727087577 1442)" /></g><g id="sprotty_135" class="sprotty-edge" opacity="1"><path class="elkedge" d="M 2302,1479.5865384615386 L 2402,1496.173076923077" /><path class="edge arrow" d="M 0,0 L 8,-3 L 8,3 Z" transform="rotate(-170.58235285466577 2402 1496.173076923077) translate(2402 1496.173076923077)" /></g><g id="sprotty_138" class="sprotty-edge" opacity="1"><path class="elkedge" d="M 2251.7211155378486,1653 L 2402.5418326693225,1562" /><path class="edge arrow" d="M 0,0 L 8,-3 L 8,3 Z" transform="rotate(148.89467282183264 2402.5418326693225 1562) translate(2402.5418326693225 1562)" /></g><g id="sprotty_141" class="sprotty-edge" opacity="1"><path class="elkedge" d="M 2297.267175572519,1653 L 2402,1620.0192307692307" /><path class="edge arrow" d="M 0,0 L 8,-3 L 8,3 Z" transform="rotate(162.52058471831904 2402 1620.0192307692307) translate(2402 1620.0192307692307)" /></g><g id="sprotty_144" class="sprotty-edge" opacity="1"><path class="elkedge" d="M 3136,1438.3347826086956 L 2002,1556.6652173913044" /><path class="edge arrow" d="M 0,0 L 8,-3 L 8,3 Z" transform="rotate(-5.957131114708217 2002 1556.6652173913044) translate(2002 1556.6652173913044)" /></g><g id="sprotty_147" class="sprotty-edge" opacity="1"><path class="elkedge" d="M 1877.5422245108136,1371 L 1993.4577754891864,2333" /><path class="edge arrow" d="M 0,0 L 8,-3 L 8,3 Z" transform="rotate(-96.87069306258371 1993.4577754891864 2333) translate(1993.4577754891864 2333)" /></g><g id="sprotty_150" class="sprotty-edge" opacity="1"><path class="elkedge" d="M 3136,1499.586956521739 L 2002,1795.413043478261" /><path class="edge arrow" d="M 0,0 L 8,-3 L 8,3 Z" transform="rotate(-14.620873988631669 2002 1795.413043478261) translate(2002 1795.413043478261)" /></g><g id="sprotty_153" class="sprotty-edge" opacity="1"><path class="elkedge" d="M 1878.2215777262181,1431 L 1992.7784222737819,1853" /><path class="edge arrow" d="M 0,0 L 8,-3 L 8,3 Z" transform="rotate(-105.18760603259909 1992.7784222737819 1853) translate(1992.7784222737819 1853)" /></g><g id="sprotty_154" class="sprotty-edge" opacity="1"><path class="elkedge" d="M 2836,1463 L 2786,1463" /><path class="edge arrow" d="M 0,0 L 8,-3 L 8,3 Z" transform="rotate(0 2786 1463) translate(2786 1463)" /></g><g id="sprotty_155" class="sprotty-edge" opacity="1"><path class="elkedge" d="M 2901.909090909091,1653 L 2720.090909090909,1493" /><path class="edge arrow" d="M 0,0 L 8,-3 L 8,3 Z" transform="rotate(41.34777721969365 2720.090909090909 1493) translate(2720.090909090909 1493)" /></g><g id="sprotty_158" class="sprotty-edge" opacity="1"><path class="elkedge" d="M 2686,1763 L 2686,1493" /><path class="edge arrow" d="M 0,0 L 8,-3 L 8,3 Z" transform="rotate(90 2686 1493) translate(2686 1493)" /></g><g id="sprotty_161" class="sprotty-edge" opacity="1"><path class="elkedge" d="M 2486,1438.4807692307693 L 2586,1450.7403846153845" /><path class="edge arrow" d="M 0,0 L 8,-3 L 8,3 Z" transform="rotate(-173.0106348436616 2586 1450.7403846153845) translate(2586 1450.7403846153845)" /></g><g id="sprotty_164" class="sprotty-edge" opacity="1"><path class="elkedge" d="M 2486,1496.173076923077 L 2586,1479.5865384615386" /><path class="edge arrow" d="M 0,0 L 8,-3 L 8,3 Z" transform="rotate(170.58235285466577 2586 1479.5865384615386) translate(2586 1479.5865384615386)" /></g><g id="sprotty_167" class="sprotty-edge" opacity="1"><path class="elkedge" d="M 2486,1553.8653846153845 L 2619.968253968254,1493" /><path class="edge arrow" d="M 0,0 L 8,-3 L 8,3 Z" transform="rotate(155.5664230096372 2619.968253968254 1493) translate(2619.968253968254 1493)" /></g><g id="sprotty_170" class="sprotty-edge" opacity="1"><path class="elkedge" d="M 2484.0582524271845,1613 L 2645.611650485437,1493" /><path class="edge arrow" d="M 0,0 L 8,-3 L 8,3 Z" transform="rotate(143.3954610721175 2645.611650485437 1493) translate(2645.611650485437 1493)" /></g><g id="sprotty_173" class="sprotty-edge" opacity="1"><path class="elkedge" d="M 2482.3636363636365,1673 L 2656.909090909091,1493" /><path class="edge arrow" d="M 0,0 L 8,-3 L 8,3 Z" transform="rotate(134.11859600341785 2656.909090909091 1493) translate(2656.909090909091 1493)" /></g><g id="sprotty_176" class="sprotty-edge" opacity="1"><path class="elkedge" d="M 2481.409836065574,1733 L 2663.2677595628415,1493" /><path class="edge arrow" d="M 0,0 L 8,-3 L 8,3 Z" transform="rotate(127.15271423731078 2663.2677595628415 1493) translate(2663.2677595628415 1493)" /></g><g id="sprotty_179" class="sprotty-edge" opacity="1"><path class="elkedge" d="M 2480.798206278027,1793 L 2667.345291479821,1493" /><path class="edge arrow" d="M 0,0 L 8,-3 L 8,3 Z" transform="rotate(121.8743247375575 2667.345291479821 1493) translate(2667.345291479821 1493)" /></g><g id="sprotty_182" class="sprotty-edge" opacity="1"><path class="elkedge" d="M 2480.3726235741447,1853 L 2670.1825095057034,1493" /><path class="edge arrow" d="M 0,0 L 8,-3 L 8,3 Z" transform="rotate(117.80042566034113 2670.1825095057034 1493) translate(2670.1825095057034 1493)" /></g><g id="sprotty_185" class="sprotty-edge" opacity="1"><path class="elkedge" d="M 2480.059405940594,1913 L 2672.2706270627064,1493" /><path class="edge arrow" d="M 0,0 L 8,-3 L 8,3 Z" transform="rotate(114.59100050152603 2672.2706270627064 1493) translate(2672.2706270627064 1493)" /></g><g id="sprotty_188" class="sprotty-edge" opacity="1"><path class="elkedge" d="M 2936,1763 L 2936,1493" /><path class="edge arrow" d="M 0,0 L 8,-3 L 8,3 Z" transform="rotate(90 2936 1493) translate(2936 1493)" /></g><g id="sprotty_191" class="sprotty-edge" opacity="1"><path class="elkedge" d="M 2482.00583090379,1973 L 2909.2944606413994,1493" /><path class="edge arrow" d="M 0,0 L 8,-3 L 8,3 Z" transform="rotate(131.6749854294169 2909.2944606413994 1493) translate(2909.2944606413994 1493)" /></g><g id="sprotty_194" class="sprotty-edge" opacity="1"><path class="elkedge" d="M 2481.587467362924,2033 L 2912.083550913838,1493" /><path class="edge arrow" d="M 0,0 L 8,-3 L 8,3 Z" transform="rotate(128.56237690234465 2912.083550913838 1493) translate(2912.083550913838 1493)" /></g><g id="sprotty_197" class="sprotty-edge" opacity="1"><path class="elkedge" d="M 2481.2482269503544,2093 L 2914.3451536643024,1493" /><path class="edge arrow" d="M 0,0 L 8,-3 L 8,3 Z" transform="rotate(125.82281375991606 2914.3451536643024 1493) translate(2914.3451536643024 1493)" /></g><g id="sprotty_200" class="sprotty-edge" opacity="1"><path class="elkedge" d="M 2479.6013686911892,2153 L 2675.3242087254066,1603" /><path class="edge arrow" d="M 0,0 L 8,-3 L 8,3 Z" transform="rotate(109.58859523608905 2675.3242087254066 1603) translate(2675.3242087254066 1603)" /></g><g id="sprotty_201" class="sprotty-edge" opacity="1"><path class="elkedge" d="M 2480.015069967707,2033 L 2672.5662002152853,1603" /><path class="edge arrow" d="M 0,0 L 8,-3 L 8,3 Z" transform="rotate(114.12251667081235 2672.5662002152853 1603) translate(2672.5662002152853 1603)" /></g><g id="sprotty_202" class="sprotty-edge" opacity="1"><path class="elkedge" d="M 2936,1763 L 2936,1603" /><path class="edge arrow" d="M 0,0 L 8,-3 L 8,3 Z" transform="rotate(90 2936 1603) translate(2936 1603)" /></g><g id="sprotty_203" class="sprotty-edge" opacity="1"><path class="elkedge" d="M 2479.972602739726,2153 L 2672.849315068493,1713" /><path class="edge arrow" d="M 0,0 L 8,-3 L 8,3 Z" transform="rotate(113.67053848472045 2672.849315068493 1713) translate(2672.849315068493 1713)" /></g><g id="sprotty_204" class="sprotty-edge" opacity="1"><path class="elkedge" d="M 2754.181818181818,1603 L 2867.818181818182,1653" /><path class="edge arrow" d="M 0,0 L 8,-3 L 8,3 Z" transform="rotate(-156.2505055071333 2867.818181818182 1653) translate(2867.818181818182 1653)" /></g><g id="sprotty_205" class="sprotty-edge" opacity="1"><path class="elkedge" d="M 2786,1683 L 2836,1683" /><path class="edge arrow" d="M 0,0 L 8,-3 L 8,3 Z" transform="rotate(180 2836 1683) translate(2836 1683)" /></g><g id="sprotty_208" class="sprotty-edge" opacity="1"><path class="elkedge" d="M 2480.2049469964663,2213 L 2671.3003533568904,1823" /><path class="edge arrow" d="M 0,0 L 8,-3 L 8,3 Z" transform="rotate(116.10430980694598 2671.3003533568904 1823) translate(2671.3003533568904 1823)" /></g><g id="sprotty_211" class="sprotty-edge" opacity="1"><path class="elkedge" d="M 2479.9318885448915,2273 L 2673.1207430340555,1823" /><path class="edge arrow" d="M 0,0 L 8,-3 L 8,3 Z" transform="rotate(113.2342621436508 2673.1207430340555 1823) translate(2673.1207430340555 1823)" /></g><g id="sprotty_214" class="sprotty-edge" opacity="1"><path class="elkedge" d="M 2479.719008264463,2333 L 2674.5399449035813,1823" /><path class="edge arrow" d="M 0,0 L 8,-3 L 8,3 Z" transform="rotate(110.90694871880137 2674.5399449035813 1823) translate(2674.5399449035813 1823)" /></g><g id="sprotty_215" class="sprotty-edge" opacity="1"><path class="elkedge" d="M 2483.6543209876545,2153 L 2898.304526748971,1823" /><path class="edge arrow" d="M 0,0 L 8,-3 L 8,3 Z" transform="rotate(141.4854181972748 2898.304526748971 1823) translate(2898.304526748971 1823)" /></g><g id="sprotty_218" class="sprotty-edge" opacity="1"><path class="elkedge" d="M 3002.031746031746,1493 L 3136,1553.8653846153845" /><path class="edge arrow" d="M 0,0 L 8,-3 L 8,3 Z" transform="rotate(-155.5664230096372 3136 1553.8653846153845) translate(3136 1553.8653846153845)" /></g><g id="sprotty_219" class="sprotty-edge" opacity="1"><path class="elkedge" d="M 2481.8423076923077,2213 L 3140.1576923076923,1442" /><path class="edge arrow" d="M 0,0 L 8,-3 L 8,3 Z" transform="rotate(130.49222920659867 3140.1576923076923 1442) translate(3140.1576923076923 1442)" /></g><g id="sprotty_220" class="sprotty-edge" opacity="1"><path class="elkedge" d="M 2486,1556.7792792792793 L 3136,1498.2207207207207" /><path class="edge arrow" d="M 0,0 L 8,-3 L 8,3 Z" transform="rotate(174.8521151758637 3136 1498.2207207207207) translate(3136 1498.2207207207207)" /></g><g id="sprotty_223" class="sprotty-edge" opacity="1"><path class="elkedge" d="M 2976.388349514563,1493 L 3137.9417475728155,1613" /><path class="edge arrow" d="M 0,0 L 8,-3 L 8,3 Z" transform="rotate(-143.3954610721175 3137.9417475728155 1613) translate(3137.9417475728155 1613)" /></g><g id="sprotty_226" class="sprotty-edge" opacity="1"><path class="elkedge" d="M 2965.090909090909,1493 L 3139.6363636363635,1673" /><path class="edge arrow" d="M 0,0 L 8,-3 L 8,3 Z" transform="rotate(-134.11859600341785 3139.6363636363635 1673) translate(3139.6363636363635 1673)" /></g><g id="sprotty_229" class="sprotty-edge" opacity="1"><path class="elkedge" d="M 2736.0546448087434,1493 L 3136.4918032786886,1733" /><path class="edge arrow" d="M 0,0 L 8,-3 L 8,3 Z" transform="rotate(-149.0638470210404 3136.4918032786886 1733) translate(3136.4918032786886 1733)" /></g><g id="sprotty_232" class="sprotty-edge" opacity="1"><path class="elkedge" d="M 1882.508146639511,1491 L 2472.4918533604887,1973" /><path class="edge arrow" d="M 0,0 L 8,-3 L 8,3 Z" transform="rotate(-140.75214945261567 2472.4918533604887 1973) translate(2472.4918533604887 1973)" /></g><g id="sprotty_235" class="sprotty-edge" opacity="1"><path class="elkedge" d="M 1885,1545.0490848585691 L 2470,1438.9509151414309" /><path class="edge arrow" d="M 0,0 L 8,-3 L 8,3 Z" transform="rotate(169.72032373587328 2470 1438.9509151414309) translate(2470 1438.9509151414309)" /></g><g id="sprotty_238" class="sprotty-edge" opacity="1"><path class="elkedge" d="M 1881.4263502454992,1611 L 2473.573649754501,2213" /><path class="edge arrow" d="M 0,0 L 8,-3 L 8,3 Z" transform="rotate(-134.52727327220984 2473.573649754501 2213) translate(2473.573649754501 2213)" /></g><g id="sprotty_241" class="sprotty-edge" opacity="1"><path class="elkedge" d="M 1885,1664.2504159733776 L 2470,1499.7495840266224" /><path class="edge arrow" d="M 0,0 L 8,-3 L 8,3 Z" transform="rotate(164.29412301421024 2470 1499.7495840266224) translate(2470 1499.7495840266224)" /></g><g id="sprotty_244" class="sprotty-edge" opacity="1"><path class="elkedge" d="M 1885,1724.2504159733776 L 2470,1559.7495840266224" /><path class="edge arrow" d="M 0,0 L 8,-3 L 8,3 Z" transform="rotate(164.29412301421024 2470 1559.7495840266224) translate(2470 1559.7495840266224)" /></g><g id="sprotty_247" class="sprotty-edge" opacity="1"><path class="elkedge" d="M 1882.508146639511,1791 L 2472.4918533604887,2273" /><path class="edge arrow" d="M 0,0 L 8,-3 L 8,3 Z" transform="rotate(-140.75214945261567 2472.4918533604887 2273) translate(2472.4918533604887 2273)" /></g><g id="sprotty_248" class="sprotty-edge" opacity="1"><path class="elkedge" d="M 1880.4190897597978,1371 L 2474.5809102402022,2153" /><path class="edge arrow" d="M 0,0 L 8,-3 L 8,3 Z" transform="rotate(-127.2274869559673 2474.5809102402022 2153) translate(2474.5809102402022 2153)" /></g><g id="sprotty_251" class="sprotty-edge" opacity="1"><path class="elkedge" d="M 1882.508146639511,1851 L 2472.4918533604887,2333" /><path class="edge arrow" d="M 0,0 L 8,-3 L 8,3 Z" transform="rotate(-140.75214945261567 2472.4918533604887 2333) translate(2472.4918533604887 2333)" /></g><g id="sprotty_254" class="sprotty-edge" opacity="1"><path class="elkedge" d="M 1885,1905.0490848585691 L 2470,1798.9509151414309" /><path class="edge arrow" d="M 0,0 L 8,-3 L 8,3 Z" transform="rotate(169.72032373587328 2470 1798.9509151414309) translate(2470 1798.9509151414309)" /></g><g id="sprotty_257" class="sprotty-edge" opacity="1"><path class="elkedge" d="M 1885,1965.0490848585691 L 2470,1858.9509151414309" /><path class="edge arrow" d="M 0,0 L 8,-3 L 8,3 Z" transform="rotate(169.72032373587328 2470 1858.9509151414309) translate(2470 1858.9509151414309)" /></g><g id="sprotty_260" class="sprotty-edge" opacity="1"><path class="elkedge" d="M 1869,1606.5 L 1718,1606.5 L 1718,1241 L 3320,1241 L 3320,1366.5 L 3269,1366.5" /><path class="edge arrow" d="M 0,0 L 8,-3 L 8,3 Z" transform="rotate(0 3269 1366.5) translate(3269 1366.5)" /><g id="sprotty_260_j0" transform="translate(1718, 1241)" opacity="1"><circle class="elkjunction" r="2" /></g></g><g id="sprotty_263" class="sprotty-edge" opacity="1"><path class="elkedge" d="M 1869,1786.5 L 1568,1786.5 L 1568,2493 L 3320,2493 L 3320,1426.5 L 3269,1426.5" /><path class="edge arrow" d="M 0,0 L 8,-3 L 8,3 Z" transform="rotate(0 3269 1426.5) translate(3269 1426.5)" /></g><g id="sprotty_266" class="sprotty-edge" opacity="1"><path class="elkedge" d="M 0,895.5 L 350,895.5 L 350,1199.5 L 1768,1199.5 L 1768,1546.5 L 1869,1546.5" /><path class="edge arrow" d="M 0,0 L 8,-3 L 8,3 Z" transform="rotate(180 1869 1546.5) translate(1869 1546.5)" /></g><g id="sprotty_267" class="sprotty-edge" opacity="1"><path class="elkedge" d="M 1384.3333333333333,1306.5 L 1718,1306.5 L 1718,1606.5 L 1869,1606.5" /><path class="edge arrow" d="M 0,0 L 8,-3 L 8,3 Z" transform="rotate(180 1869 1606.5) translate(1869 1606.5)" /><g id="sprotty_267_j0" transform="translate(1718, 1306.5)" opacity="1"><circle class="elkjunction" r="2" /></g></g><g id="sprotty_270" class="sprotty-edge" opacity="1"><path class="elkedge" d="M 0,955.5 L 300,955.5 L 300,1210.5 L 1718,1210.5 L 1718,1606.5 L 1869,1606.5" /><path class="edge arrow" d="M 0,0 L 8,-3 L 8,3 Z" transform="rotate(180 1869 1606.5) translate(1869 1606.5)" /><g id="sprotty_270_j0" transform="translate(300, 955.5)" opacity="1"><circle class="elkjunction" r="2" /></g><g id="sprotty_270_j1" transform="translate(300, 1210.5)" opacity="1"><circle class="elkjunction" r="2" /></g></g><g id="sprotty_273" class="sprotty-edge" opacity="1"><path class="elkedge" d="M 0,1015.5 L 250,1015.5 L 250,1221.5 L 1668,1221.5 L 1668,1666.5 L 1869,1666.5" /><path class="edge arrow" d="M 0,0 L 8,-3 L 8,3 Z" transform="rotate(180 1869 1666.5) translate(1869 1666.5)" /></g><g id="sprotty_276" class="sprotty-edge" opacity="1"><path class="elkedge" d="M 0,1075.5 L 200,1075.5 L 200,1232.5 L 1618,1232.5 L 1618,1726.5 L 1869,1726.5" /><path class="edge arrow" d="M 0,0 L 8,-3 L 8,3 Z" transform="rotate(180 1869 1726.5) translate(1869 1726.5)" /></g><g id="sprotty_277" class="sprotty-edge" opacity="1"><path class="elkedge" d="M 1384.3333333333333,1318.5 L 1568,1318.5 L 1568,1786.5 L 1869,1786.5" /><path class="edge arrow" d="M 0,0 L 8,-3 L 8,3 Z" transform="rotate(180 1869 1786.5) translate(1869 1786.5)" /><g id="sprotty_277_j0" transform="translate(1568, 1318.5)" opacity="1"><circle class="elkjunction" r="2" /></g></g><g id="sprotty_278" class="sprotty-edge" opacity="1"><path class="elkedge" d="M 0,955.5 L 300,955.5 L 300,1243.5 L 1568,1243.5 L 1568,1786.5 L 1869,1786.5" /><path class="edge arrow" d="M 0,0 L 8,-3 L 8,3 Z" transform="rotate(180 1869 1786.5) translate(1869 1786.5)" /><g id="sprotty_278_j0" transform="translate(1568, 1786.5)" opacity="1"><circle class="elkjunction" r="2" /></g></g><g id="sprotty_279" class="sprotty-edge" opacity="1"><path class="elkedge" d="M 0,1135.5 L 1818,1135.5 L 1818,1366.5 L 1869,1366.5" /><path class="edge arrow" d="M 0,0 L 8,-3 L 8,3 Z" transform="rotate(180 1869 1366.5) translate(1869 1366.5)" /><g id="sprotty_279_j0" transform="translate(1818, 1135.5)" opacity="1"><circle class="elkjunction" r="2" /></g></g><g id="sprotty_280" class="sprotty-edge" opacity="1"><path class="elkedge" d="M 1384.3333333333333,1330.5 L 1568,1330.5 L 1568,1846.5 L 1869,1846.5" /><path class="edge arrow" d="M 0,0 L 8,-3 L 8,3 Z" transform="rotate(180 1869 1846.5) translate(1869 1846.5)" /><g id="sprotty_280_j0" transform="translate(1568, 1330.5)" opacity="1"><circle class="elkjunction" r="2" /></g></g><g id="sprotty_281" class="sprotty-edge" opacity="1"><path class="elkedge" d="M 0,955.5 L 300,955.5 L 300,1243.5 L 1568,1243.5 L 1568,1846.5 L 1869,1846.5" /><path class="edge arrow" d="M 0,0 L 8,-3 L 8,3 Z" transform="rotate(180 1869 1846.5) translate(1869 1846.5)" /><g id="sprotty_281_j0" transform="translate(1568, 1846.5)" opacity="1"><circle class="elkjunction" r="2" /></g></g><g id="sprotty_284" class="sprotty-edge" opacity="1"><path class="elkedge" d="M 1467,1906.5 L 1869,1906.5" /><path class="edge arrow" d="M 0,0 L 8,-3 L 8,3 Z" transform="rotate(180 1869 1906.5) translate(1869 1906.5)" /></g><g id="sprotty_287" class="sprotty-edge" opacity="1"><path class="elkedge" d="M 1467,1966.5 L 1869,1966.5" /><path class="edge arrow" d="M 0,0 L 8,-3 L 8,3 Z" transform="rotate(180 1869 1966.5) translate(1869 1966.5)" /></g><g id="sprotty_288" class="sprotty-edge" opacity="1"><path class="elkedge" d="M 2474.333333333333,201 L 2424.333333333333,201" /><path class="edge arrow" d="M 0,0 L 8,-3 L 8,3 Z" transform="rotate(0 2424.333333333333 201) translate(2424.333333333333 201)" /></g><g id="sprotty_289" class="sprotty-edge" opacity="1"><path class="elkedge" d="M 2540.242424242424,391 L 2358.424242424242,231" /><path class="edge arrow" d="M 0,0 L 8,-3 L 8,3 Z" transform="rotate(41.34777721969365 2358.424242424242 231) translate(2358.424242424242 231)" /></g><g id="sprotty_290" class="sprotty-edge" opacity="1"><path class="elkedge" d="M 2551.60606060606,501 L 2347.0606060606056,231" /><path class="edge arrow" d="M 0,0 L 8,-3 L 8,3 Z" transform="rotate(52.853313301978226 2347.0606060606056 231) translate(2347.0606060606056 231)" /></g><g id="sprotty_293" class="sprotty-edge" opacity="1"><path class="elkedge" d="M 2124.333333333333,176.48076923076923 L 2224.333333333333,188.7403846153846" /><path class="edge arrow" d="M 0,0 L 8,-3 L 8,3 Z" transform="rotate(-173.01063484366153 2224.333333333333 188.7403846153846) translate(2224.333333333333 188.7403846153846)" /></g><g id="sprotty_296" class="sprotty-edge" opacity="1"><path class="elkedge" d="M 2124.333333333333,234.1730769230769 L 2224.333333333333,217.58653846153845" /><path class="edge arrow" d="M 0,0 L 8,-3 L 8,3 Z" transform="rotate(170.58235285466571 2224.333333333333 217.58653846153845) translate(2224.333333333333 217.58653846153845)" /></g><g id="sprotty_299" class="sprotty-edge" opacity="1"><path class="elkedge" d="M 2124.333333333333,291.86538461538464 L 2258.301587301587,231" /><path class="edge arrow" d="M 0,0 L 8,-3 L 8,3 Z" transform="rotate(155.5664230096372 2258.301587301587 231) translate(2258.301587301587 231)" /></g><g id="sprotty_302" class="sprotty-edge" opacity="1"><path class="elkedge" d="M 2122.3915857605175,351 L 2283.9449838187697,231" /><path class="edge arrow" d="M 0,0 L 8,-3 L 8,3 Z" transform="rotate(143.39546107211743 2283.9449838187697 231) translate(2283.9449838187697 231)" /></g><g id="sprotty_305" class="sprotty-edge" opacity="1"><path class="elkedge" d="M 2120.6969696969695,411 L 2295.242424242424,231" /><path class="edge arrow" d="M 0,0 L 8,-3 L 8,3 Z" transform="rotate(134.11859600341785 2295.242424242424 231) translate(2295.242424242424 231)" /></g><g id="sprotty_308" class="sprotty-edge" opacity="1"><path class="elkedge" d="M 2119.743169398907,471 L 2301.6010928961746,231" /><path class="edge arrow" d="M 0,0 L 8,-3 L 8,3 Z" transform="rotate(127.15271423731078 2301.6010928961746 231) translate(2301.6010928961746 231)" /></g><g id="sprotty_311" class="sprotty-edge" opacity="1"><path class="elkedge" d="M 2119.13153961136,531 L 2305.678624813154,231" /><path class="edge arrow" d="M 0,0 L 8,-3 L 8,3 Z" transform="rotate(121.8743247375575 2305.678624813154 231) translate(2305.678624813154 231)" /></g><g id="sprotty_314" class="sprotty-edge" opacity="1"><path class="elkedge" d="M 2118.7059569074777,591 L 2308.5158428390364,231" /><path class="edge arrow" d="M 0,0 L 8,-3 L 8,3 Z" transform="rotate(117.80042566034113 2308.5158428390364 231) translate(2308.5158428390364 231)" /></g><g id="sprotty_317" class="sprotty-edge" opacity="1"><path class="elkedge" d="M 2118.392739273927,651 L 2310.6039603960394,231" /><path class="edge arrow" d="M 0,0 L 8,-3 L 8,3 Z" transform="rotate(114.59100050152603 2310.6039603960394 231) translate(2310.6039603960394 231)" /></g><g id="sprotty_320" class="sprotty-edge" opacity="1"><path class="elkedge" d="M 2118.1525753158403,711 L 2312.2050534499513,231" /><path class="edge arrow" d="M 0,0 L 8,-3 L 8,3 Z" transform="rotate(112.01230148180704 2312.2050534499513 231) translate(2312.2050534499513 231)" /></g><g id="sprotty_323" class="sprotty-edge" opacity="1"><path class="elkedge" d="M 2341.3787878787875,611 L 2557.2878787878785,231" /><path class="edge arrow" d="M 0,0 L 8,-3 L 8,3 Z" transform="rotate(119.60445074600493 2557.2878787878785 231) translate(2557.2878787878785 231)" /></g><g id="sprotty_326" class="sprotty-edge" opacity="1"><path class="elkedge" d="M 2119.920800696257,771 L 2550.4168842471713,231" /><path class="edge arrow" d="M 0,0 L 8,-3 L 8,3 Z" transform="rotate(128.56237690234465 2550.4168842471713 231) translate(2550.4168842471713 231)" /></g><g id="sprotty_327" class="sprotty-edge" opacity="1"><path class="elkedge" d="M 2324.333333333333,611 L 2324.333333333333,341" /><path class="edge arrow" d="M 0,0 L 8,-3 L 8,3 Z" transform="rotate(90 2324.333333333333 341) translate(2324.333333333333 341)" /></g><g id="sprotty_328" class="sprotty-edge" opacity="1"><path class="elkedge" d="M 2123.2410824108238,180 L 2278.2816728167277,281" /><path class="edge arrow" d="M 0,0 L 8,-3 L 8,3 Z" transform="rotate(-146.91807712723488 2278.2816728167277 281) translate(2278.2816728167277 281)" /></g><g id="sprotty_329" class="sprotty-edge" opacity="1"><path class="elkedge" d="M 2118.3484033010404,771 L 2310.8995335486184,341" /><path class="edge arrow" d="M 0,0 L 8,-3 L 8,3 Z" transform="rotate(114.12251667081229 2310.8995335486184 341) translate(2310.8995335486184 341)" /></g><g id="sprotty_332" class="sprotty-edge" opacity="1"><path class="elkedge" d="M 2118.1178900540194,831 L 2312.4362885287574,341" /><path class="edge arrow" d="M 0,0 L 8,-3 L 8,3 Z" transform="rotate(111.63170058143358 2312.4362885287574 341) translate(2312.4362885287574 341)" /></g><g id="sprotty_335" class="sprotty-edge" opacity="1"><path class="elkedge" d="M 2117.9347020245223,891 L 2313.657542058739,341" /><path class="edge arrow" d="M 0,0 L 8,-3 L 8,3 Z" transform="rotate(109.58859523608902 2313.657542058739 341) translate(2313.657542058739 341)" /></g><g id="sprotty_338" class="sprotty-edge" opacity="1"><path class="elkedge" d="M 2117.785621929144,951 L 2314.651409361262,341" /><path class="edge arrow" d="M 0,0 L 8,-3 L 8,3 Z" transform="rotate(107.88648858285283 2314.651409361262 341) translate(2314.651409361262 341)" /></g><g id="sprotty_341" class="sprotty-edge" opacity="1"><path class="elkedge" d="M 2117.6619351786135,1011 L 2315.4759876981307,341" /><path class="edge arrow" d="M 0,0 L 8,-3 L 8,3 Z" transform="rotate(106.44896435324775 2315.4759876981307 341) translate(2315.4759876981307 341)" /></g><g id="sprotty_344" class="sprotty-edge" opacity="1"><path class="elkedge" d="M 2117.5576629605403,1071 L 2316.1711358186176,341" /><path class="edge arrow" d="M 0,0 L 8,-3 L 8,3 Z" transform="rotate(105.22023446678352 2316.1711358186176 341) translate(2316.1711358186176 341)" /></g><g id="sprotty_345" class="sprotty-edge" opacity="1"><path class="elkedge" d="M 2347.0606060606056,611 L 2551.60606060606,341" /><path class="edge arrow" d="M 0,0 L 8,-3 L 8,3 Z" transform="rotate(127.14668669802178 2551.60606060606 341) translate(2551.60606060606 341)" /></g><g id="sprotty_346" class="sprotty-edge" opacity="1"><path class="elkedge" d="M 2120.7703623968423,771 L 2544.7531395766055,341" /><path class="edge arrow" d="M 0,0 L 8,-3 L 8,3 Z" transform="rotate(134.5962965812639 2544.7531395766055 341) translate(2544.7531395766055 341)" /></g><g id="sprotty_347" class="sprotty-edge" opacity="1"><path class="elkedge" d="M 2324.333333333333,611 L 2324.333333333333,451" /><path class="edge arrow" d="M 0,0 L 8,-3 L 8,3 Z" transform="rotate(90 2324.333333333333 451) translate(2324.333333333333 451)" /></g><g id="sprotty_348" class="sprotty-edge" opacity="1"><path class="elkedge" d="M 2574.333333333333,341 L 2574.333333333333,391" /><path class="edge arrow" d="M 0,0 L 8,-3 L 8,3 Z" transform="rotate(-90 2574.333333333333 391) translate(2574.333333333333 391)" /></g><g id="sprotty_349" class="sprotty-edge" opacity="1"><path class="elkedge" d="M 2424.333333333333,421 L 2474.333333333333,421" /><path class="edge arrow" d="M 0,0 L 8,-3 L 8,3 Z" transform="rotate(180 2474.333333333333 421) translate(2474.333333333333 421)" /></g><g id="sprotty_350" class="sprotty-edge" opacity="1"><path class="elkedge" d="M 2324.333333333333,611 L 2324.333333333333,561" /><path class="edge arrow" d="M 0,0 L 8,-3 L 8,3 Z" transform="rotate(90 2324.333333333333 561) translate(2324.333333333333 561)" /></g><g id="sprotty_351" class="sprotty-edge" opacity="1"><path class="elkedge" d="M 2120.161554192229,771 L 2298.811860940695,561" /><path class="edge arrow" d="M 0,0 L 8,-3 L 8,3 Z" transform="rotate(130.38833614783775 2298.811860940695 561) translate(2298.811860940695 561)" /></g><g id="sprotty_352" class="sprotty-edge" opacity="1"><path class="elkedge" d="M 2574.333333333333,341 L 2574.333333333333,501" /><path class="edge arrow" d="M 0,0 L 8,-3 L 8,3 Z" transform="rotate(-90 2574.333333333333 501) translate(2574.333333333333 501)" /></g><g id="sprotty_353" class="sprotty-edge" opacity="1"><path class="elkedge" d="M 2424.333333333333,531 L 2474.333333333333,531" /><path class="edge arrow" d="M 0,0 L 8,-3 L 8,3 Z" transform="rotate(180 2474.333333333333 531) translate(2474.333333333333 531)" /></g><g id="sprotty_356" class="sprotty-edge" opacity="1"><path class="elkedge" d="M 2118.2261543646778,1131 L 2311.714526457701,671" /><path class="edge arrow" d="M 0,0 L 8,-3 L 8,3 Z" transform="rotate(112.81293144107966 2311.714526457701 671) translate(2311.714526457701 671)" /></g><g id="sprotty_359" class="sprotty-edge" opacity="1"><path class="elkedge" d="M 2108.333333333333,235.5 L 1818,235.5 L 1818,50 L 3320,50 L 3320,175.5 L 2790.333333333333,175.5" /><path class="edge arrow" d="M 0,0 L 8,-3 L 8,3 Z" transform="rotate(0 2790.333333333333 175.5) translate(2790.333333333333 175.5)" /></g><g id="sprotty_362" class="sprotty-edge" opacity="1"><path class="elkedge" d="M 2424.333333333333,294.51528384279476 L 2774.333333333333,236.8187772925764" /><path class="edge arrow" d="M 0,0 L 8,-3 L 8,3 Z" transform="rotate(170.63914001903586 2774.333333333333 236.8187772925764) translate(2774.333333333333 236.8187772925764)" /></g><g id="sprotty_365" class="sprotty-edge" opacity="1"><path class="elkedge" d="M 2424.333333333333,221.63318777292577 L 2774.333333333333,293.84934497816596" /><path class="edge arrow" d="M 0,0 L 8,-3 L 8,3 Z" transform="rotate(-168.34165965728076 2774.333333333333 293.84934497816596) translate(2774.333333333333 293.84934497816596)" /></g><g id="sprotty_368" class="sprotty-edge" opacity="1"><path class="elkedge" d="M 2424.333333333333,320.71615720524017 L 2774.333333333333,354.7227074235808" /><path class="edge arrow" d="M 0,0 L 8,-3 L 8,3 Z" transform="rotate(-174.45047144714007 2774.333333333333 354.7227074235808) translate(2774.333333333333 354.7227074235808)" /></g><g id="sprotty_371" class="sprotty-edge" opacity="1"><path class="elkedge" d="M 2424.333333333333,333.8165938864629 L 2774.333333333333,413.674672489083" /><path class="edge arrow" d="M 0,0 L 8,-3 L 8,3 Z" transform="rotate(-167.14707970140952 2774.333333333333 413.674672489083) translate(2774.333333333333 413.674672489083)" /></g><g id="sprotty_374" class="sprotty-edge" opacity="1"><path class="elkedge" d="M 2407.8591691995944,341 L 2774.333333333333,472.62663755458516" /><path class="edge arrow" d="M 0,0 L 8,-3 L 8,3 Z" transform="rotate(-160.24321867717828 2774.333333333333 472.62663755458516) translate(2774.333333333333 472.62663755458516)" /></g><g id="sprotty_377" class="sprotty-edge" opacity="1"><path class="elkedge" d="M 2385.5360059391237,341 L 2774.333333333333,531.5786026200874" /><path class="edge arrow" d="M 0,0 L 8,-3 L 8,3 Z" transform="rotate(-153.8870762338902 2774.333333333333 531.5786026200874) translate(2774.333333333333 531.5786026200874)" /></g><g id="sprotty_378" class="sprotty-edge" opacity="1"><path class="elkedge" d="M 0,1135.5 L 2108.333333333333,1135.5" /><path class="edge arrow" d="M 0,0 L 8,-3 L 8,3 Z" transform="rotate(180 2108.333333333333 1135.5) translate(2108.333333333333 1135.5)" /></g><g id="sprotty_379" class="sprotty-edge" opacity="1"><path class="elkedge" d="M 0,955.5 L 300,955.5 L 300,824.5 L 1568,824.5 L 1568,835.5 L 2108.333333333333,835.5" /><path class="edge arrow" d="M 0,0 L 8,-3 L 8,3 Z" transform="rotate(180 2108.333333333333 835.5) translate(2108.333333333333 835.5)" /></g><g id="sprotty_382" class="sprotty-edge" opacity="1"><path class="elkedge" d="M 0,835.5 L 1518,835.5 L 1518,895.5 L 2108.333333333333,895.5" /><path class="edge arrow" d="M 0,0 L 8,-3 L 8,3 Z" transform="rotate(180 2108.333333333333 895.5) translate(2108.333333333333 895.5)" /></g><g id="sprotty_385" class="sprotty-edge" opacity="1"><path class="elkedge" d="M 617,1836.5 L 617,1676.5" /><path class="edge arrow" d="M 0,0 L 8,-3 L 8,3 Z" transform="rotate(90 617 1676.5) translate(617 1676.5)" /></g><g id="sprotty_388" class="sprotty-edge" opacity="1"><path class="elkedge" d="M 417,1621.9807692307693 L 517,1634.2403846153845" /><path class="edge arrow" d="M 0,0 L 8,-3 L 8,3 Z" transform="rotate(-173.0106348436616 517 1634.2403846153845) translate(517 1634.2403846153845)" /></g><g id="sprotty_391" class="sprotty-edge" opacity="1"><path class="elkedge" d="M 417,1679.673076923077 L 517,1663.0865384615386" /><path class="edge arrow" d="M 0,0 L 8,-3 L 8,3 Z" transform="rotate(170.58235285466577 517 1663.0865384615386) translate(517 1663.0865384615386)" /></g><g id="sprotty_394" class="sprotty-edge" opacity="1"><path class="elkedge" d="M 417,1737.3653846153845 L 550.968253968254,1676.5" /><path class="edge arrow" d="M 0,0 L 8,-3 L 8,3 Z" transform="rotate(155.5664230096372 550.968253968254 1676.5) translate(550.968253968254 1676.5)" /></g><g id="sprotty_397" class="sprotty-edge" opacity="1"><path class="elkedge" d="M 415.05825242718447,1796.5 L 576.6116504854369,1676.5" /><path class="edge arrow" d="M 0,0 L 8,-3 L 8,3 Z" transform="rotate(143.39546107211748 576.6116504854369 1676.5) translate(576.6116504854369 1676.5)" /></g><g id="sprotty_398" class="sprotty-edge" opacity="1"><path class="elkedge" d="M 617,1836.5 L 617,1786.5" /><path class="edge arrow" d="M 0,0 L 8,-3 L 8,3 Z" transform="rotate(90 617 1786.5) translate(617 1786.5)" /></g><g id="sprotty_401" class="sprotty-edge" opacity="1"><path class="elkedge" d="M 417,1856.9807692307693 L 557.2870813397129,1786.5" /><path class="edge arrow" d="M 0,0 L 8,-3 L 8,3 Z" transform="rotate(153.3248706115522 557.2870813397129 1786.5) translate(557.2870813397129 1786.5)" /></g><g id="sprotty_402" class="sprotty-edge" opacity="1"><path class="elkedge" d="M 417,1683.9038461538462 L 534.3509933774834,1726.5" /><path class="edge arrow" d="M 0,0 L 8,-3 L 8,3 Z" transform="rotate(-160.0500763582779 534.3509933774834 1726.5) translate(534.3509933774834 1726.5)" /></g><g id="sprotty_405" class="sprotty-edge" opacity="1"><path class="elkedge" d="M 414.6899696048632,1916.5 L 579.0668693009119,1786.5" /><path class="edge arrow" d="M 0,0 L 8,-3 L 8,3 Z" transform="rotate(141.6607478272731 579.0668693009119 1786.5) translate(579.0668693009119 1786.5)" /></g><g id="sprotty_408" class="sprotty-edge" opacity="1"><path class="elkedge" d="M 417,1976.5961538461538 L 562.5021834061135,1896.5" /><path class="edge arrow" d="M 0,0 L 8,-3 L 8,3 Z" transform="rotate(151.16806195334135 562.5021834061135 1896.5) translate(562.5021834061135 1896.5)" /></g><g id="sprotty_411" class="sprotty-edge" opacity="1"><path class="elkedge" d="M 663.0516605166051,1726.5 L 818.0922509225093,1625.5" /><path class="edge arrow" d="M 0,0 L 8,-3 L 8,3 Z" transform="rotate(146.91807712723494 818.0922509225093 1625.5) translate(818.0922509225093 1625.5)" /></g><g id="sprotty_414" class="sprotty-edge" opacity="1"><path class="elkedge" d="M 717,1663.0865384615386 L 817,1679.673076923077" /><path class="edge arrow" d="M 0,0 L 8,-3 L 8,3 Z" transform="rotate(-170.58235285466577 817 1679.673076923077) translate(817 1679.673076923077)" /></g><g id="sprotty_417" class="sprotty-edge" opacity="1"><path class="elkedge" d="M 717,1749.048076923077 L 817,1741.5961538461538" /><path class="edge arrow" d="M 0,0 L 8,-3 L 8,3 Z" transform="rotate(175.73823961931822 817 1741.5961538461538) translate(817 1741.5961538461538)" /></g><g id="sprotty_420" class="sprotty-edge" opacity="1"><path class="elkedge" d="M 717,1777.8942307692307 L 817,1799.2884615384614" /><path class="edge arrow" d="M 0,0 L 8,-3 L 8,3 Z" transform="rotate(-167.92405618105852 817 1799.2884615384614) translate(817 1799.2884615384614)" /></g><g id="sprotty_423" class="sprotty-edge" opacity="1"><path class="elkedge" d="M 1051,1907.4807692307693 L 1151,1919.7403846153845" /><path class="edge arrow" d="M 0,0 L 8,-3 L 8,3 Z" transform="rotate(-173.0106348436616 1151 1919.7403846153845) translate(1151 1919.7403846153845)" /></g><g id="sprotty_426" class="sprotty-edge" opacity="1"><path class="elkedge" d="M 1051,1965.173076923077 L 1151,1948.5865384615386" /><path class="edge arrow" d="M 0,0 L 8,-3 L 8,3 Z" transform="rotate(170.58235285466577 1151 1948.5865384615386) translate(1151 1948.5865384615386)" /></g><g id="sprotty_429" class="sprotty-edge" opacity="1"><path class="elkedge" d="M 1051,2022.8653846153845 L 1184.968253968254,1962" /><path class="edge arrow" d="M 0,0 L 8,-3 L 8,3 Z" transform="rotate(155.5664230096372 1184.968253968254 1962) translate(1184.968253968254 1962)" /></g><g id="sprotty_432" class="sprotty-edge" opacity="1"><path class="elkedge" d="M 1049.0582524271845,2082 L 1210.611650485437,1962" /><path class="edge arrow" d="M 0,0 L 8,-3 L 8,3 Z" transform="rotate(143.39546107211748 1210.611650485437 1962) translate(1210.611650485437 1962)" /></g><g id="sprotty_435" class="sprotty-edge" opacity="1"><path class="elkedge" d="M 1047.3636363636363,2142 L 1221.909090909091,1962" /><path class="edge arrow" d="M 0,0 L 8,-3 L 8,3 Z" transform="rotate(134.1185960034179 1221.909090909091 1962) translate(1221.909090909091 1962)" /></g><g id="sprotty_438" class="sprotty-edge" opacity="1"><path class="elkedge" d="M 1046.4098360655737,2202 L 1228.2677595628415,1962" /><path class="edge arrow" d="M 0,0 L 8,-3 L 8,3 Z" transform="rotate(127.15271423731083 1228.2677595628415 1962) translate(1228.2677595628415 1962)" /></g><g id="sprotty_439" class="sprotty-edge" opacity="1"><path class="elkedge" d="M 1251,1962 L 1251,2012" /><path class="edge arrow" d="M 0,0 L 8,-3 L 8,3 Z" transform="rotate(-90 1251 2012) translate(1251 2012)" /></g><g id="sprotty_442" class="sprotty-edge" opacity="1"><path class="elkedge" d="M 1351,2034.548076923077 L 1451,2027.0961538461538" /><path class="edge arrow" d="M 0,0 L 8,-3 L 8,3 Z" transform="rotate(175.73823961931822 1451 2027.0961538461538) translate(1451 2027.0961538461538)" /></g><g id="sprotty_443" class="sprotty-edge" opacity="1"><path class="elkedge" d="M 1297.0516605166051,2012 L 1452.0922509225093,1911" /><path class="edge arrow" d="M 0,0 L 8,-3 L 8,3 Z" transform="rotate(146.91807712723494 1452.0922509225093 1911) translate(1452.0922509225093 1911)" /></g><g id="sprotty_444" class="sprotty-edge" opacity="1"><path class="elkedge" d="M 1333.6490066225165,2012 L 1451,1969.4038461538462" /><path class="edge arrow" d="M 0,0 L 8,-3 L 8,3 Z" transform="rotate(160.05007635827792 1451 1969.4038461538462) translate(1451 1969.4038461538462)" /></g><g id="sprotty_445" class="sprotty-edge" opacity="1"><path class="elkedge" d="M 833,1681 L 934,1681 L 934,1906.5 L 1035,1906.5" /><path class="edge arrow" d="M 0,0 L 8,-3 L 8,3 Z" transform="rotate(180 1035 1906.5) translate(1035 1906.5)" /></g><g id="sprotty_448" class="sprotty-edge" opacity="1"><path class="elkedge" d="M 817,1415.5 L 984,1415.5 L 984,2026.5 L 1035,2026.5" /><path class="edge arrow" d="M 0,0 L 8,-3 L 8,3 Z" transform="rotate(180 1035 2026.5) translate(1035 2026.5)" /></g><g id="sprotty_449" class="sprotty-edge" opacity="1"><path class="elkedge" d="M 0,1135.5 L 150,1135.5 L 150,2086.5 L 1035,2086.5" /><path class="edge arrow" d="M 0,0 L 8,-3 L 8,3 Z" transform="rotate(180 1035 2086.5) translate(1035 2086.5)" /></g><g id="sprotty_450" class="sprotty-edge" opacity="1"><path class="elkedge" d="M 833,1621 L 884,1621 L 884,2146.5 L 1035,2146.5" /><path class="edge arrow" d="M 0,0 L 8,-3 L 8,3 Z" transform="rotate(180 1035 2146.5) translate(1035 2146.5)" /></g><g id="sprotty_453" class="sprotty-edge" opacity="1"><path class="elkedge" d="M 1384.3333333333333,1342.5 L 1518,1342.5 L 1518,2503 L 3520,2503" /><path class="edge arrow" d="M 0,0 L 8,-3 L 8,3 Z" transform="rotate(180 3520 2503) translate(3520 2503)" /></g><g id="sprotty_454" class="sprotty-edge" opacity="1"><path class="elkedge" d="M 2790.333333333333,415.5 L 3370,415.5 L 3370,2503 L 3520,2503" /><path class="edge arrow" d="M 0,0 L 8,-3 L 8,3 Z" transform="rotate(180 3520 2503) translate(3520 2503)" /><g id="sprotty_454_j0" transform="translate(3370, 2503)" opacity="1"><circle class="elkjunction" r="2" /></g></g></g></g></svg>
