<svg id="sprotty_1" class="sprotty-graph sprotty" tabindex="1002" xmlns="http://www.w3.org/2000/svg" viewBox="0 0 2914 2679.5"><style>.elknode {
    stroke: #448;
    stroke-width: 2;
    fill: #ddf;
}

.elkport {
    stroke: #448;
    stroke-width: 1;
    fill: #66c;
}

.elkedge {
    fill: none;
    stroke: #224;
    stroke-width: 1;
}

.elkedge.arrow {
    fill: #336;
}

.elklabel {
    stroke-width: 0;
    stroke: #000;
    fill: #000;
    font-family: sans-serif;
    font-size: 10pt;
    dominant-baseline: hanging;
}

.elkjunction {
    stroke: none;
    fill: #224;
}

.selected &gt; rect {
    stroke-width: 3;
}

.mouseover {
    stroke: #88f;
}
/*
 * Copyright (C) 2017 TypeFox and others.
 *
 * Licensed under the Apache License, Version 2.0 (the &quot;License&quot;); you may not use this file except in compliance with the License.
 * You may obtain a copy of the License at http://www.apache.org/licenses/LICENSE-2.0
 */

.sprotty {
    padding: 0px;
    font-family: &quot;Helvetica Neue&quot;, Helvetica, Arial, sans-serif;
}

.sprotty-hidden {
    display: block;
    position: absolute;
    width: 0px;
    height: 0px;
}

.sprotty-popup {
    font-family: &quot;Helvetica Neue&quot;, Helvetica, Arial, sans-serif;
    position: absolute;
    background: white;
    border-radius: 5px;
    border: 1px solid;
    max-width: 400px;
    min-width: 100px;
}

.sprotty-popup &gt; div {
    margin: 10px;
}

.sprotty-popup-closed {
    display: none;
}
</style><g transform="scale(1) translate(0,0)"><g id="sprotty_3" transform="translate(117, 71)" opacity="1"><rect class="elknode" x="0" y="0" rx="10" width="2680" height="2558.5" /><g id="sprotty_5" transform="translate(784.3333333333334, 1374.5)" opacity="1"><rect class="elknode" x="0" y="0" rx="10" width="200" height="60" /><text id="sprotty_6" class="elklabel" transform="translate(5, 22) translate(0, 0)" opacity="1">k8s_extensions_v1beta1_ingress.this</text></g><g id="sprotty_7" transform="translate(1165, 1312)" opacity="1"><rect class="elknode" x="0" y="0" rx="10" width="1368" height="1131" /><g id="sprotty_9" transform="translate(117, 71)" opacity="1"><rect class="elknode" x="0" y="0" rx="10" width="400" height="1010" /><g id="sprotty_11" transform="translate(100, 50)" opacity="1"><rect class="elknode" x="0" y="0" rx="10" width="200" height="60" /><text id="sprotty_12" class="elklabel" transform="translate(5, 22) translate(0, 0)" opacity="1">k8s_apps_v1_deployment.this</text></g><g id="sprotty_13" transform="translate(100, 160)" opacity="1"><rect class="elknode" x="0" y="0" rx="10" width="200" height="60" /><text id="sprotty_14" class="elklabel" transform="translate(5, 22) translate(0, 0)" opacity="1">k8s_core_v1_config_map.this</text></g><g id="sprotty_15" transform="translate(100, 270)" opacity="1"><rect class="elknode" x="0" y="0" rx="10" width="200" height="60" /><text id="sprotty_16" class="elklabel" transform="translate(5, 22) translate(0, 0)" opacity="1">k8s_core_v1_service.this</text></g><g id="sprotty_17" transform="translate(100, 380)" opacity="1"><rect class="elknode" x="0" y="0" rx="10" width="200" height="60" /><text id="sprotty_18" class="elklabel" transform="translate(5, 22) translate(0, 0)" opacity="1">k8s_core_v1_service_account.this</text></g><g id="sprotty_19" transform="translate(100, 490)" opacity="1"><rect class="elknode" x="0" y="0" rx="10" width="200" height="60" /><text id="sprotty_20" class="elklabel" transform="translate(5, 22) translate(0, 0)" opacity="1">k8s_rbac_authorization_k8s_io_v1_cluster_role_binding.this</text></g><g id="sprotty_106" transform="translate(100, 600)" opacity="1"><rect class="elknode" x="0" y="0" rx="10" width="200" height="60" /><text id="sprotty_107" class="elklabel" transform="translate(5, 22) translate(0, 0)" opacity="1">local.labels</text></g><g id="sprotty_73" transform="translate(-16, 50)" opacity="1"><rect class="elkport" x="0" y="0" width="16" height="9" /><text id="sprotty_74" class="elklabel" transform="translate(-1, 10) translate(0, 0)" opacity="1">annotations</text></g><g id="sprotty_76" transform="translate(-16, 110)" opacity="1"><rect class="elkport" x="0" y="0" width="16" height="9" /><text id="sprotty_77" class="elklabel" transform="translate(-1, 10) translate(0, 0)" opacity="1">dns_policy</text></g><g id="sprotty_79" transform="translate(-16, 170)" opacity="1"><rect class="elkport" x="0" y="0" width="16" height="9" /><text id="sprotty_80" class="elklabel" transform="translate(-1, 10) translate(0, 0)" opacity="1">gitlab_url</text></g><g id="sprotty_82" transform="translate(-16, 230)" opacity="1"><rect class="elkport" x="0" y="0" width="16" height="9" /><text id="sprotty_83" class="elklabel" transform="translate(-1, 10) translate(0, 0)" opacity="1">image</text></g><g id="sprotty_85" transform="translate(-16, 290)" opacity="1"><rect class="elkport" x="0" y="0" width="16" height="9" /><text id="sprotty_86" class="elklabel" transform="translate(-1, 10) translate(0, 0)" opacity="1">node_selector</text></g><g id="sprotty_88" transform="translate(-16, 350)" opacity="1"><rect class="elkport" x="0" y="0" width="16" height="9" /><text id="sprotty_89" class="elklabel" transform="translate(-1, 10) translate(0, 0)" opacity="1">priority_class_name</text></g><g id="sprotty_91" transform="translate(-16, 410)" opacity="1"><rect class="elkport" x="0" y="0" width="16" height="9" /><text id="sprotty_92" class="elklabel" transform="translate(-1, 10) translate(0, 0)" opacity="1">registration_token</text></g><g id="sprotty_94" transform="translate(-16, 470)" opacity="1"><rect class="elkport" x="0" y="0" width="16" height="9" /><text id="sprotty_95" class="elklabel" transform="translate(-1, 10) translate(0, 0)" opacity="1">replicas</text></g><g id="sprotty_97" transform="translate(-16, 530)" opacity="1"><rect class="elkport" x="0" y="0" width="16" height="9" /><text id="sprotty_98" class="elklabel" transform="translate(-1, 10) translate(0, 0)" opacity="1">restart_policy</text></g><g id="sprotty_100" transform="translate(-16, 590)" opacity="1"><rect class="elkport" x="0" y="0" width="16" height="9" /><text id="sprotty_101" class="elklabel" transform="translate(-1, 10) translate(0, 0)" opacity="1">scheduler_name</text></g><g id="sprotty_103" transform="translate(-16, 650)" opacity="1"><rect class="elkport" x="0" y="0" width="16" height="9" /><text id="sprotty_104" class="elklabel" transform="translate(-1, 10) translate(0, 0)" opacity="1">termination_grace_period_seconds</text></g><g id="sprotty_109" transform="translate(-16, 710)" opacity="1"><rect class="elkport" x="0" y="0" width="16" height="9" /><text id="sprotty_110" class="elklabel" transform="translate(-1, 10) translate(0, 0)" opacity="1">namespace</text></g><g id="sprotty_115" transform="translate(-16, 770)" opacity="1"><rect class="elkport" x="0" y="0" width="16" height="9" /><text id="sprotty_116" class="elklabel" transform="translate(-1, 10) translate(0, 0)" opacity="1">port</text></g><g id="sprotty_118" transform="translate(-16, 830)" opacity="1"><rect class="elkport" x="0" y="0" width="16" height="9" /><text id="sprotty_119" class="elklabel" transform="translate(-1, 10) translate(0, 0)" opacity="1">service_type</text></g><g id="sprotty_121" transform="translate(-16, 890)" opacity="1"><rect class="elkport" x="0" y="0" width="16" height="9" /><text id="sprotty_122" class="elklabel" transform="translate(-1, 10) translate(0, 0)" opacity="1">session_affinity</text></g><g id="sprotty_127" transform="translate(-16, 950)" opacity="1"><rect class="elkport" x="0" y="0" width="16" height="9" /><text id="sprotty_128" class="elklabel" transform="translate(-1, 10) translate(0, 0)" opacity="1">name</text></g><g id="sprotty_130" transform="translate(400, 50)" opacity="1"><rect class="elkport" x="0" y="0" width="16" height="9" /><text id="sprotty_131" class="elklabel" transform="translate(17, 10) translate(0, 0)" opacity="1">cluster_ip</text></g><g id="sprotty_133" transform="translate(400, 110)" opacity="1"><rect class="elkport" x="0" y="0" width="16" height="9" /><text id="sprotty_134" class="elklabel" transform="translate(17, 10) translate(0, 0)" opacity="1">deployment_uid</text></g><g id="sprotty_136" transform="translate(400, 170)" opacity="1"><rect class="elkport" x="0" y="0" width="16" height="9" /><text id="sprotty_137" class="elklabel" transform="translate(17, 10) translate(0, 0)" opacity="1">name</text></g><g id="sprotty_139" transform="translate(400, 230)" opacity="1"><rect class="elkport" x="0" y="0" width="16" height="9" /><text id="sprotty_140" class="elklabel" transform="translate(17, 10) translate(0, 0)" opacity="1">port</text></g><text id="sprotty_10" class="elklabel" transform="translate(0, -21) translate(0, 0)" opacity="1">gitlab-runner</text></g><g id="sprotty_21" transform="translate(601, 71)" opacity="1"><rect class="elknode" x="0" y="0" rx="10" width="650" height="1010" /><g id="sprotty_23" transform="translate(100, 50)" opacity="1"><rect class="elknode" x="0" y="0" rx="10" width="200" height="60" /><text id="sprotty_24" class="elklabel" transform="translate(5, 22) translate(0, 0)" opacity="1">k8s_apps_v1_stateful_set.gitlab</text></g><g id="sprotty_25" transform="translate(350, 50)" opacity="1"><rect class="elknode" x="0" y="0" rx="10" width="200" height="60" /><text id="sprotty_26" class="elklabel" transform="translate(5, 22) translate(0, 0)" opacity="1">k8s_core_v1_service.gitlab</text></g><g id="sprotty_27" transform="translate(100, 160)" opacity="1"><rect class="elknode" x="0" y="0" rx="10" width="200" height="60" /><text id="sprotty_28" class="elklabel" transform="translate(5, 22) translate(0, 0)" opacity="1">k8s_core_v1_service_account.gitlab</text></g><g id="sprotty_29" transform="translate(350, 160)" opacity="1"><rect class="elknode" x="0" y="0" rx="10" width="200" height="60" /><text id="sprotty_30" class="elklabel" transform="translate(5, 22) translate(0, 0)" opacity="1">k8s_policy_v1beta1_pod_disruption_budget.this</text></g><g id="sprotty_31" transform="translate(100, 270)" opacity="1"><rect class="elknode" x="0" y="0" rx="10" width="200" height="60" /><text id="sprotty_32" class="elklabel" transform="translate(5, 22) translate(0, 0)" opacity="1">k8s_rbac_authorization_k8s_io_v1_cluster_role.gitlab</text></g><g id="sprotty_33" transform="translate(350, 270)" opacity="1"><rect class="elknode" x="0" y="0" rx="10" width="200" height="60" /><text id="sprotty_34" class="elklabel" transform="translate(5, 22) translate(0, 0)" opacity="1">k8s_rbac_authorization_k8s_io_v1_cluster_role_binding.gitlab</text></g><g id="sprotty_156" transform="translate(100, 380)" opacity="1"><rect class="elknode" x="0" y="0" rx="10" width="200" height="60" /><text id="sprotty_157" class="elklabel" transform="translate(5, 22) translate(0, 0)" opacity="1">local.gitlab_omnibus_config</text></g><g id="sprotty_186" transform="translate(350, 380)" opacity="1"><rect class="elknode" x="0" y="0" rx="10" width="200" height="60" /><text id="sprotty_187" class="elklabel" transform="translate(5, 22) translate(0, 0)" opacity="1">local.labels</text></g><g id="sprotty_142" transform="translate(650, 50)" opacity="1"><rect class="elkport" x="0" y="0" width="16" height="9" /><text id="sprotty_143" class="elklabel" transform="translate(17, 10) translate(0, 0)" opacity="1">gitlab_external_url</text></g><g id="sprotty_148" transform="translate(650, 110)" opacity="1"><rect class="elkport" x="0" y="0" width="16" height="9" /><text id="sprotty_149" class="elklabel" transform="translate(17, 10) translate(0, 0)" opacity="1">gitlab_runners_registration_token</text></g><g id="sprotty_159" transform="translate(-16, 50)" opacity="1"><rect class="elkport" x="0" y="0" width="16" height="9" /><text id="sprotty_160" class="elklabel" transform="translate(-1, 10) translate(0, 0)" opacity="1">auto_devops_domain</text></g><g id="sprotty_162" transform="translate(-16, 110)" opacity="1"><rect class="elkport" x="0" y="0" width="16" height="9" /><text id="sprotty_163" class="elklabel" transform="translate(-1, 10) translate(0, 0)" opacity="1">gitlab_root_password</text></g><g id="sprotty_165" transform="translate(-16, 170)" opacity="1"><rect class="elkport" x="0" y="0" width="16" height="9" /><text id="sprotty_166" class="elklabel" transform="translate(-1, 10) translate(0, 0)" opacity="1">gitlab_runners_registration_token</text></g><g id="sprotty_168" transform="translate(-16, 230)" opacity="1"><rect class="elkport" x="0" y="0" width="16" height="9" /><text id="sprotty_169" class="elklabel" transform="translate(-1, 10) translate(0, 0)" opacity="1">image</text></g><g id="sprotty_171" transform="translate(-16, 290)" opacity="1"><rect class="elkport" x="0" y="0" width="16" height="9" /><text id="sprotty_172" class="elklabel" transform="translate(-1, 10) translate(0, 0)" opacity="1">node_selector</text></g><g id="sprotty_174" transform="translate(-16, 350)" opacity="1"><rect class="elkport" x="0" y="0" width="16" height="9" /><text id="sprotty_175" class="elklabel" transform="translate(-1, 10) translate(0, 0)" opacity="1">replicas</text></g><g id="sprotty_177" transform="translate(-16, 410)" opacity="1"><rect class="elkport" x="0" y="0" width="16" height="9" /><text id="sprotty_178" class="elklabel" transform="translate(-1, 10) translate(0, 0)" opacity="1">storage</text></g><g id="sprotty_180" transform="translate(-16, 470)" opacity="1"><rect class="elkport" x="0" y="0" width="16" height="9" /><text id="sprotty_181" class="elklabel" transform="translate(-1, 10) translate(0, 0)" opacity="1">storage_class_name</text></g><g id="sprotty_183" transform="translate(-16, 530)" opacity="1"><rect class="elkport" x="0" y="0" width="16" height="9" /><text id="sprotty_184" class="elklabel" transform="translate(-1, 10) translate(0, 0)" opacity="1">volume_claim_template_name</text></g><g id="sprotty_189" transform="translate(-16, 590)" opacity="1"><rect class="elkport" x="0" y="0" width="16" height="9" /><text id="sprotty_190" class="elklabel" transform="translate(-1, 10) translate(0, 0)" opacity="1">annotations</text></g><g id="sprotty_192" transform="translate(-16, 650)" opacity="1"><rect class="elkport" x="0" y="0" width="16" height="9" /><text id="sprotty_193" class="elklabel" transform="translate(-1, 10) translate(0, 0)" opacity="1">namespace</text></g><g id="sprotty_195" transform="translate(-16, 710)" opacity="1"><rect class="elkport" x="0" y="0" width="16" height="9" /><text id="sprotty_196" class="elklabel" transform="translate(-1, 10) translate(0, 0)" opacity="1">port</text></g><g id="sprotty_198" transform="translate(-16, 770)" opacity="1"><rect class="elkport" x="0" y="0" width="16" height="9" /><text id="sprotty_199" class="elklabel" transform="translate(-1, 10) translate(0, 0)" opacity="1">name</text></g><g id="sprotty_206" transform="translate(-16, 830)" opacity="1"><rect class="elkport" x="0" y="0" width="16" height="9" /><text id="sprotty_207" class="elklabel" transform="translate(-1, 10) translate(0, 0)" opacity="1">gitlab_external_url</text></g><g id="sprotty_209" transform="translate(-16, 890)" opacity="1"><rect class="elkport" x="0" y="0" width="16" height="9" /><text id="sprotty_210" class="elklabel" transform="translate(-1, 10) translate(0, 0)" opacity="1">mattermost_external_url</text></g><g id="sprotty_212" transform="translate(-16, 950)" opacity="1"><rect class="elkport" x="0" y="0" width="16" height="9" /><text id="sprotty_213" class="elklabel" transform="translate(-1, 10) translate(0, 0)" opacity="1">registry_external_url</text></g><g id="sprotty_216" transform="translate(650, 170)" opacity="1"><rect class="elkport" x="0" y="0" width="16" height="9" /><text id="sprotty_217" class="elklabel" transform="translate(17, 10) translate(0, 0)" opacity="1">cluster_ip</text></g><g id="sprotty_221" transform="translate(650, 230)" opacity="1"><rect class="elkport" x="0" y="0" width="16" height="9" /><text id="sprotty_222" class="elklabel" transform="translate(17, 10) translate(0, 0)" opacity="1">name</text></g><g id="sprotty_224" transform="translate(650, 290)" opacity="1"><rect class="elkport" x="0" y="0" width="16" height="9" /><text id="sprotty_225" class="elklabel" transform="translate(17, 10) translate(0, 0)" opacity="1">port</text></g><g id="sprotty_227" transform="translate(650, 350)" opacity="1"><rect class="elkport" x="0" y="0" width="16" height="9" /><text id="sprotty_228" class="elklabel" transform="translate(17, 10) translate(0, 0)" opacity="1">statefulset_uid</text></g><text id="sprotty_22" class="elklabel" transform="translate(0, -21) translate(0, 0)" opacity="1">gitlab</text></g><g id="sprotty_145" transform="translate(-16, 50)" opacity="1"><rect class="elkport" x="0" y="0" width="16" height="9" /><text id="sprotty_146" class="elklabel" transform="translate(-1, 10) translate(0, 0)" opacity="1">name</text></g><g id="sprotty_151" transform="translate(-16, 110)" opacity="1"><rect class="elkport" x="0" y="0" width="16" height="9" /><text id="sprotty_152" class="elklabel" transform="translate(-1, 10) translate(0, 0)" opacity="1">gitlab_runner_replicas</text></g><g id="sprotty_230" transform="translate(-16, 170)" opacity="1"><rect class="elkport" x="0" y="0" width="16" height="9" /><text id="sprotty_231" class="elklabel" transform="translate(-1, 10) translate(0, 0)" opacity="1">annotations</text></g><g id="sprotty_233" transform="translate(-16, 230)" opacity="1"><rect class="elkport" x="0" y="0" width="16" height="9" /><text id="sprotty_234" class="elklabel" transform="translate(-1, 10) translate(0, 0)" opacity="1">auto_devops_domain</text></g><g id="sprotty_236" transform="translate(-16, 290)" opacity="1"><rect class="elkport" x="0" y="0" width="16" height="9" /><text id="sprotty_237" class="elklabel" transform="translate(-1, 10) translate(0, 0)" opacity="1">gitlab_external_url</text></g><g id="sprotty_239" transform="translate(-16, 350)" opacity="1"><rect class="elkport" x="0" y="0" width="16" height="9" /><text id="sprotty_240" class="elklabel" transform="translate(-1, 10) translate(0, 0)" opacity="1">gitlab_root_password</text></g><g id="sprotty_242" transform="translate(-16, 410)" opacity="1"><rect class="elkport" x="0" y="0" width="16" height="9" /><text id="sprotty_243" class="elklabel" transform="translate(-1, 10) translate(0, 0)" opacity="1">gitlab_runners_registration_token</text></g><g id="sprotty_245" transform="translate(-16, 470)" opacity="1"><rect class="elkport" x="0" y="0" width="16" height="9" /><text id="sprotty_246" class="elklabel" transform="translate(-1, 10) translate(0, 0)" opacity="1">mattermost_external_url</text></g><g id="sprotty_249" transform="translate(-16, 530)" opacity="1"><rect class="elkport" x="0" y="0" width="16" height="9" /><text id="sprotty_250" class="elklabel" transform="translate(-1, 10) translate(0, 0)" opacity="1">registry_external_url</text></g><g id="sprotty_252" transform="translate(-16, 590)" opacity="1"><rect class="elkport" x="0" y="0" width="16" height="9" /><text id="sprotty_253" class="elklabel" transform="translate(-1, 10) translate(0, 0)" opacity="1">storage</text></g><g id="sprotty_255" transform="translate(-16, 650)" opacity="1"><rect class="elkport" x="0" y="0" width="16" height="9" /><text id="sprotty_256" class="elklabel" transform="translate(-1, 10) translate(0, 0)" opacity="1">storage_class_name</text></g><g id="sprotty_258" transform="translate(1368, 50)" opacity="1"><rect class="elkport" x="0" y="0" width="16" height="9" /><text id="sprotty_259" class="elklabel" transform="translate(17, -1) translate(0, 0)" opacity="1">gitlab_external_url</text></g><g id="sprotty_261" transform="translate(1368, 110)" opacity="1"><rect class="elkport" x="0" y="0" width="16" height="9" /><text id="sprotty_262" class="elklabel" transform="translate(17, 10) translate(0, 0)" opacity="1">mattermost_external_url</text></g><text id="sprotty_8" class="elklabel" transform="translate(0, -21) translate(0, 0)" opacity="1">gitlab</text></g><g id="sprotty_35" transform="translate(1404.3333333333333, 121)" opacity="1"><rect class="elknode" x="0" y="0" rx="10" width="650" height="1070" /><g id="sprotty_37" transform="translate(100, 50)" opacity="1"><rect class="elknode" x="0" y="0" rx="10" width="200" height="60" /><text id="sprotty_38" class="elklabel" transform="translate(5, 22) translate(0, 0)" opacity="1">k8s_apps_v1_deployment.this</text></g><g id="sprotty_39" transform="translate(350, 50)" opacity="1"><rect class="elknode" x="0" y="0" rx="10" width="200" height="60" /><text id="sprotty_40" class="elklabel" transform="translate(5, 22) translate(0, 0)" opacity="1">k8s_core_v1_config_map.this</text></g><g id="sprotty_41" transform="translate(100, 160)" opacity="1"><rect class="elknode" x="0" y="0" rx="10" width="200" height="60" /><text id="sprotty_42" class="elklabel" transform="translate(5, 22) translate(0, 0)" opacity="1">k8s_core_v1_service.this</text></g><g id="sprotty_43" transform="translate(350, 160)" opacity="1"><rect class="elknode" x="0" y="0" rx="10" width="200" height="60" /><text id="sprotty_44" class="elklabel" transform="translate(5, 22) translate(0, 0)" opacity="1">k8s_core_v1_service_account.this</text></g><g id="sprotty_45" transform="translate(100, 270)" opacity="1"><rect class="elknode" x="0" y="0" rx="10" width="200" height="60" /><text id="sprotty_46" class="elklabel" transform="translate(5, 22) translate(0, 0)" opacity="1">k8s_rbac_authorization_k8s_io_v1_cluster_role.this</text></g><g id="sprotty_47" transform="translate(350, 270)" opacity="1"><rect class="elknode" x="0" y="0" rx="10" width="200" height="60" /><text id="sprotty_48" class="elklabel" transform="translate(5, 22) translate(0, 0)" opacity="1">k8s_rbac_authorization_k8s_io_v1_cluster_role_binding.this</text></g><g id="sprotty_49" transform="translate(100, 380)" opacity="1"><rect class="elknode" x="0" y="0" rx="10" width="200" height="60" /><text id="sprotty_50" class="elklabel" transform="translate(5, 22) translate(0, 0)" opacity="1">k8s_rbac_authorization_k8s_io_v1_role.this</text></g><g id="sprotty_51" transform="translate(350, 380)" opacity="1"><rect class="elknode" x="0" y="0" rx="10" width="200" height="60" /><text id="sprotty_52" class="elklabel" transform="translate(5, 22) translate(0, 0)" opacity="1">k8s_rbac_authorization_k8s_io_v1_role_binding.this</text></g><g id="sprotty_321" transform="translate(100, 490)" opacity="1"><rect class="elknode" x="0" y="0" rx="10" width="200" height="60" /><text id="sprotty_322" class="elklabel" transform="translate(5, 22) translate(0, 0)" opacity="1">local.labels</text></g><g id="sprotty_291" transform="translate(-16, 50)" opacity="1"><rect class="elkport" x="0" y="0" width="16" height="9" /><text id="sprotty_292" class="elklabel" transform="translate(-1, 10) translate(0, 0)" opacity="1">annotations</text></g><g id="sprotty_294" transform="translate(-16, 110)" opacity="1"><rect class="elkport" x="0" y="0" width="16" height="9" /><text id="sprotty_295" class="elklabel" transform="translate(-1, 10) translate(0, 0)" opacity="1">annotations_prefix</text></g><g id="sprotty_297" transform="translate(-16, 170)" opacity="1"><rect class="elkport" x="0" y="0" width="16" height="9" /><text id="sprotty_298" class="elklabel" transform="translate(-1, 10) translate(0, 0)" opacity="1">dns_policy</text></g><g id="sprotty_300" transform="translate(-16, 230)" opacity="1"><rect class="elkport" x="0" y="0" width="16" height="9" /><text id="sprotty_301" class="elklabel" transform="translate(-1, 10) translate(0, 0)" opacity="1">image</text></g><g id="sprotty_303" transform="translate(-16, 290)" opacity="1"><rect class="elkport" x="0" y="0" width="16" height="9" /><text id="sprotty_304" class="elklabel" transform="translate(-1, 10) translate(0, 0)" opacity="1">node_selector</text></g><g id="sprotty_306" transform="translate(-16, 350)" opacity="1"><rect class="elkport" x="0" y="0" width="16" height="9" /><text id="sprotty_307" class="elklabel" transform="translate(-1, 10) translate(0, 0)" opacity="1">priority_class_name</text></g><g id="sprotty_309" transform="translate(-16, 410)" opacity="1"><rect class="elkport" x="0" y="0" width="16" height="9" /><text id="sprotty_310" class="elklabel" transform="translate(-1, 10) translate(0, 0)" opacity="1">replicas</text></g><g id="sprotty_312" transform="translate(-16, 470)" opacity="1"><rect class="elkport" x="0" y="0" width="16" height="9" /><text id="sprotty_313" class="elklabel" transform="translate(-1, 10) translate(0, 0)" opacity="1">restart_policy</text></g><g id="sprotty_315" transform="translate(-16, 530)" opacity="1"><rect class="elkport" x="0" y="0" width="16" height="9" /><text id="sprotty_316" class="elklabel" transform="translate(-1, 10) translate(0, 0)" opacity="1">scheduler_name</text></g><g id="sprotty_318" transform="translate(-16, 590)" opacity="1"><rect class="elkport" x="0" y="0" width="16" height="9" /><text id="sprotty_319" class="elklabel" transform="translate(-1, 10) translate(0, 0)" opacity="1">termination_grace_period_seconds</text></g><g id="sprotty_324" transform="translate(-16, 650)" opacity="1"><rect class="elkport" x="0" y="0" width="16" height="9" /><text id="sprotty_325" class="elklabel" transform="translate(-1, 10) translate(0, 0)" opacity="1">namespace</text></g><g id="sprotty_330" transform="translate(-16, 710)" opacity="1"><rect class="elkport" x="0" y="0" width="16" height="9" /><text id="sprotty_331" class="elklabel" transform="translate(-1, 10) translate(0, 0)" opacity="1">node_port_http</text></g><g id="sprotty_333" transform="translate(-16, 770)" opacity="1"><rect class="elkport" x="0" y="0" width="16" height="9" /><text id="sprotty_334" class="elklabel" transform="translate(-1, 10) translate(0, 0)" opacity="1">node_port_https</text></g><g id="sprotty_336" transform="translate(-16, 830)" opacity="1"><rect class="elkport" x="0" y="0" width="16" height="9" /><text id="sprotty_337" class="elklabel" transform="translate(-1, 10) translate(0, 0)" opacity="1">port</text></g><g id="sprotty_339" transform="translate(-16, 890)" opacity="1"><rect class="elkport" x="0" y="0" width="16" height="9" /><text id="sprotty_340" class="elklabel" transform="translate(-1, 10) translate(0, 0)" opacity="1">service_type</text></g><g id="sprotty_342" transform="translate(-16, 950)" opacity="1"><rect class="elkport" x="0" y="0" width="16" height="9" /><text id="sprotty_343" class="elklabel" transform="translate(-1, 10) translate(0, 0)" opacity="1">session_affinity</text></g><g id="sprotty_354" transform="translate(-16, 1010)" opacity="1"><rect class="elkport" x="0" y="0" width="16" height="9" /><text id="sprotty_355" class="elklabel" transform="translate(-1, 10) translate(0, 0)" opacity="1">name</text></g><g id="sprotty_357" transform="translate(650, 50)" opacity="1"><rect class="elkport" x="0" y="0" width="16" height="9" /><text id="sprotty_358" class="elklabel" transform="translate(17, 10) translate(0, 0)" opacity="1">annotations_prefix</text></g><g id="sprotty_360" transform="translate(650, 110)" opacity="1"><rect class="elkport" x="0" y="0" width="16" height="9" /><text id="sprotty_361" class="elklabel" transform="translate(17, 10) translate(0, 0)" opacity="1">cluster_ip</text></g><g id="sprotty_363" transform="translate(650, 170)" opacity="1"><rect class="elkport" x="0" y="0" width="16" height="9" /><text id="sprotty_364" class="elklabel" transform="translate(17, 10) translate(0, 0)" opacity="1">deployment_uid</text></g><g id="sprotty_366" transform="translate(650, 230)" opacity="1"><rect class="elkport" x="0" y="0" width="16" height="9" /><text id="sprotty_367" class="elklabel" transform="translate(17, 10) translate(0, 0)" opacity="1">name</text></g><g id="sprotty_369" transform="translate(650, 290)" opacity="1"><rect class="elkport" x="0" y="0" width="16" height="9" /><text id="sprotty_370" class="elklabel" transform="translate(17, 10) translate(0, 0)" opacity="1">node_port_http</text></g><g id="sprotty_372" transform="translate(650, 350)" opacity="1"><rect class="elkport" x="0" y="0" width="16" height="9" /><text id="sprotty_373" class="elklabel" transform="translate(17, 10) translate(0, 0)" opacity="1">node_port_https</text></g><g id="sprotty_375" transform="translate(650, 410)" opacity="1"><rect class="elkport" x="0" y="0" width="16" height="9" /><text id="sprotty_376" class="elklabel" transform="translate(17, 10) translate(0, 0)" opacity="1">port</text></g><text id="sprotty_36" class="elklabel" transform="translate(0, -21) translate(0, 0)" opacity="1">ingress-controller</text></g><g id="sprotty_53" transform="translate(177, 1566.5)" opacity="1"><rect class="elknode" x="0" y="0" rx="10" width="400" height="470" /><g id="sprotty_55" transform="translate(100, 50)" opacity="1"><rect class="elknode" x="0" y="0" rx="10" width="200" height="60" /><text id="sprotty_56" class="elklabel" transform="translate(5, 22) translate(0, 0)" opacity="1">k8s_apps_v1_deployment.this</text></g><g id="sprotty_57" transform="translate(100, 160)" opacity="1"><rect class="elknode" x="0" y="0" rx="10" width="200" height="60" /><text id="sprotty_58" class="elklabel" transform="translate(5, 22) translate(0, 0)" opacity="1">k8s_core_v1_service.this</text></g><g id="sprotty_383" transform="translate(100, 270)" opacity="1"><rect class="elknode" x="0" y="0" rx="10" width="200" height="60" /><text id="sprotty_384" class="elklabel" transform="translate(5, 22) translate(0, 0)" opacity="1">local.labels</text></g><g id="sprotty_386" transform="translate(-16, 50)" opacity="1"><rect class="elkport" x="0" y="0" width="16" height="9" /><text id="sprotty_387" class="elklabel" transform="translate(-1, 10) translate(0, 0)" opacity="1">image</text></g><g id="sprotty_389" transform="translate(-16, 110)" opacity="1"><rect class="elkport" x="0" y="0" width="16" height="9" /><text id="sprotty_390" class="elklabel" transform="translate(-1, 10) translate(0, 0)" opacity="1">namespace</text></g><g id="sprotty_392" transform="translate(-16, 170)" opacity="1"><rect class="elkport" x="0" y="0" width="16" height="9" /><text id="sprotty_393" class="elklabel" transform="translate(-1, 10) translate(0, 0)" opacity="1">node_selector</text></g><g id="sprotty_395" transform="translate(-16, 230)" opacity="1"><rect class="elkport" x="0" y="0" width="16" height="9" /><text id="sprotty_396" class="elklabel" transform="translate(-1, 10) translate(0, 0)" opacity="1">replicas</text></g><g id="sprotty_399" transform="translate(-16, 290)" opacity="1"><rect class="elkport" x="0" y="0" width="16" height="9" /><text id="sprotty_400" class="elklabel" transform="translate(-1, 10) translate(0, 0)" opacity="1">annotations</text></g><g id="sprotty_403" transform="translate(-16, 350)" opacity="1"><rect class="elkport" x="0" y="0" width="16" height="9" /><text id="sprotty_404" class="elklabel" transform="translate(-1, 10) translate(0, 0)" opacity="1">port</text></g><g id="sprotty_406" transform="translate(-16, 410)" opacity="1"><rect class="elkport" x="0" y="0" width="16" height="9" /><text id="sprotty_407" class="elklabel" transform="translate(-1, 10) translate(0, 0)" opacity="1">name</text></g><g id="sprotty_409" transform="translate(400, 50)" opacity="1"><rect class="elkport" x="0" y="0" width="16" height="9" /><text id="sprotty_410" class="elklabel" transform="translate(17, 10) translate(0, 0)" opacity="1">cluster_ip</text></g><g id="sprotty_412" transform="translate(400, 110)" opacity="1"><rect class="elkport" x="0" y="0" width="16" height="9" /><text id="sprotty_413" class="elklabel" transform="translate(17, 10) translate(0, 0)" opacity="1">deployment_uid</text></g><g id="sprotty_415" transform="translate(400, 170)" opacity="1"><rect class="elkport" x="0" y="0" width="16" height="9" /><text id="sprotty_416" class="elklabel" transform="translate(17, 10) translate(0, 0)" opacity="1">name</text></g><g id="sprotty_418" transform="translate(400, 230)" opacity="1"><rect class="elkport" x="0" y="0" width="16" height="9" /><text id="sprotty_419" class="elklabel" transform="translate(17, 10) translate(0, 0)" opacity="1">port</text></g><text id="sprotty_54" class="elklabel" transform="translate(0, -21) translate(0, 0)" opacity="1">nfs-server</text></g><g id="sprotty_59" transform="translate(651, 1852)" opacity="1"><rect class="elknode" x="0" y="0" rx="10" width="400" height="410" /><g id="sprotty_61" transform="translate(100, 50)" opacity="1"><rect class="elknode" x="0" y="0" rx="10" width="200" height="60" /><text id="sprotty_62" class="elklabel" transform="translate(5, 22) translate(0, 0)" opacity="1">k8s_core_v1_persistent_volume.this</text></g><g id="sprotty_63" transform="translate(100, 160)" opacity="1"><rect class="elknode" x="0" y="0" rx="10" width="200" height="60" /><text id="sprotty_64" class="elklabel" transform="translate(5, 22) translate(0, 0)" opacity="1">k8s_core_v1_persistent_volume_claim.this</text></g><g id="sprotty_282" transform="translate(400, 50)" opacity="1"><rect class="elkport" x="0" y="0" width="16" height="9" /><text id="sprotty_283" class="elklabel" transform="translate(17, 10) translate(0, 0)" opacity="1">storage</text></g><g id="sprotty_285" transform="translate(400, 110)" opacity="1"><rect class="elkport" x="0" y="0" width="16" height="9" /><text id="sprotty_286" class="elklabel" transform="translate(17, 10) translate(0, 0)" opacity="1">storage_class_name</text></g><g id="sprotty_421" transform="translate(-16, 50)" opacity="1"><rect class="elkport" x="0" y="0" width="16" height="9" /><text id="sprotty_422" class="elklabel" transform="translate(-1, 10) translate(0, 0)" opacity="1">annotations</text></g><g id="sprotty_424" transform="translate(-16, 110)" opacity="1"><rect class="elkport" x="0" y="0" width="16" height="9" /><text id="sprotty_425" class="elklabel" transform="translate(-1, 10) translate(0, 0)" opacity="1">count</text></g><g id="sprotty_427" transform="translate(-16, 170)" opacity="1"><rect class="elkport" x="0" y="0" width="16" height="9" /><text id="sprotty_428" class="elklabel" transform="translate(-1, 10) translate(0, 0)" opacity="1">mount_options</text></g><g id="sprotty_430" transform="translate(-16, 230)" opacity="1"><rect class="elkport" x="0" y="0" width="16" height="9" /><text id="sprotty_431" class="elklabel" transform="translate(-1, 10) translate(0, 0)" opacity="1">name</text></g><g id="sprotty_433" transform="translate(-16, 290)" opacity="1"><rect class="elkport" x="0" y="0" width="16" height="9" /><text id="sprotty_434" class="elklabel" transform="translate(-1, 10) translate(0, 0)" opacity="1">nfs_server</text></g><g id="sprotty_436" transform="translate(-16, 350)" opacity="1"><rect class="elkport" x="0" y="0" width="16" height="9" /><text id="sprotty_437" class="elklabel" transform="translate(-1, 10) translate(0, 0)" opacity="1">storage</text></g><g id="sprotty_440" transform="translate(400, 170)" opacity="1"><rect class="elkport" x="0" y="0" width="16" height="9" /><text id="sprotty_441" class="elklabel" transform="translate(17, 10) translate(0, 0)" opacity="1">count</text></g><text id="sprotty_60" class="elklabel" transform="translate(0, -21) translate(0, 0)" opacity="1">storage</text></g><g id="sprotty_446" transform="translate(377, 1465.5)" opacity="1"><rect class="elknode" x="0" y="0" rx="10" width="200" height="60" /><text id="sprotty_447" class="elklabel" transform="translate(5, 22) translate(0, 0)" opacity="1">local.mount_options</text></g><g id="sprotty_65" transform="translate(-16, 1390)" opacity="1"><rect class="elkport" x="0" y="0" width="16" height="9" /><text id="sprotty_66" class="elklabel" transform="translate(-1, 10) translate(0, 0)" opacity="1">ingress_host</text></g><g id="sprotty_68" transform="translate(-16, 1131)" opacity="1"><rect class="elkport" x="0" y="0" width="16" height="9" /><text id="sprotty_69" class="elklabel" transform="translate(-1, 10) translate(0, 0)" opacity="1">name</text></g><g id="sprotty_264" transform="translate(-16, 891)" opacity="1"><rect class="elkport" x="0" y="0" width="16" height="9" /><text id="sprotty_265" class="elklabel" transform="translate(-1, 10) translate(0, 0)" opacity="1">auto_devops_domain</text></g><g id="sprotty_268" transform="translate(-16, 951)" opacity="1"><rect class="elkport" x="0" y="0" width="16" height="9" /><text id="sprotty_269" class="elklabel" transform="translate(-1, 10) translate(0, 0)" opacity="1">ingress_node_port_http</text></g><g id="sprotty_271" transform="translate(-16, 1011)" opacity="1"><rect class="elkport" x="0" y="0" width="16" height="9" /><text id="sprotty_272" class="elklabel" transform="translate(-1, 10) translate(0, 0)" opacity="1">gitlab_root_password</text></g><g id="sprotty_274" transform="translate(-16, 1071)" opacity="1"><rect class="elkport" x="0" y="0" width="16" height="9" /><text id="sprotty_275" class="elklabel" transform="translate(-1, 10) translate(0, 0)" opacity="1">gitlab_runners_registration_token</text></g><g id="sprotty_380" transform="translate(-16, 831)" opacity="1"><rect class="elkport" x="0" y="0" width="16" height="9" /><text id="sprotty_381" class="elklabel" transform="translate(-1, 10) translate(0, 0)" opacity="1">ingress_node_port_https</text></g><g id="sprotty_451" transform="translate(2680, 2498.5)" opacity="1"><rect class="elkport" x="0" y="0" width="16" height="9" /><text id="sprotty_452" class="elklabel" transform="translate(17, 10) translate(0, 0)" opacity="1">urls</text></g><text id="sprotty_4" class="elklabel" transform="translate(0, -21) translate(0, 0)" opacity="1">examples/gitlab</text><g id="sprotty_67" class="sprotty-edge" opacity="1"><path class="elkedge" d="M 0,1394.5 L 784.3333333333334,1394.5" /><path class="edge arrow" d="M 0,0 L 8,-3 L 8,3 Z" transform="rotate(180 784.3333333333334 1394.5) translate(784.3333333333334 1394.5)" /></g><g id="sprotty_70" class="sprotty-edge" opacity="1"><path class="elkedge" d="M 0,1135.5 L 110,1135.5 L 110,1414.5 L 784.3333333333334,1414.5" /><path class="edge arrow" d="M 0,0 L 8,-3 L 8,3 Z" transform="rotate(180 784.3333333333334 1414.5) translate(784.3333333333334 1414.5)" /><g id="sprotty_70_j0" transform="translate(110, 1135.5)" opacity="1"><circle class="elkjunction" r="2" /></g><g id="sprotty_70_j1" transform="translate(110, 1414.5)" opacity="1"><circle class="elkjunction" r="2" /></g></g><g id="sprotty_71" class="sprotty-edge" opacity="1"><path class="elkedge" d="M 1482,1543 L 1482,1493" /><path class="edge arrow" d="M 0,0 L 8,-3 L 8,3 Z" transform="rotate(90 1482 1493) translate(1482 1493)" /></g><g id="sprotty_72" class="sprotty-edge" opacity="1"><path class="elkedge" d="M 1482,1873 L 1482,1493" /><path class="edge arrow" d="M 0,0 L 8,-3 L 8,3 Z" transform="rotate(90 1482 1493) translate(1482 1493)" /></g><g id="sprotty_75" class="sprotty-edge" opacity="1"><path class="elkedge" d="M 1282,1438.4807692307693 L 1382,1450.7403846153845" /><path class="edge arrow" d="M 0,0 L 8,-3 L 8,3 Z" transform="rotate(-173.0106348436616 1382 1450.7403846153845) translate(1382 1450.7403846153845)" /></g><g id="sprotty_78" class="sprotty-edge" opacity="1"><path class="elkedge" d="M 1282,1496.173076923077 L 1382,1479.5865384615386" /><path class="edge arrow" d="M 0,0 L 8,-3 L 8,3 Z" transform="rotate(170.58235285466577 1382 1479.5865384615386) translate(1382 1479.5865384615386)" /></g><g id="sprotty_81" class="sprotty-edge" opacity="1"><path class="elkedge" d="M 1282,1553.8653846153845 L 1415.968253968254,1493" /><path class="edge arrow" d="M 0,0 L 8,-3 L 8,3 Z" transform="rotate(155.5664230096372 1415.968253968254 1493) translate(1415.968253968254 1493)" /></g><g id="sprotty_84" class="sprotty-edge" opacity="1"><path class="elkedge" d="M 1280.0582524271845,1613 L 1441.611650485437,1493" /><path class="edge arrow" d="M 0,0 L 8,-3 L 8,3 Z" transform="rotate(143.39546107211748 1441.611650485437 1493) translate(1441.611650485437 1493)" /></g><g id="sprotty_87" class="sprotty-edge" opacity="1"><path class="elkedge" d="M 1278.3636363636363,1673 L 1452.909090909091,1493" /><path class="edge arrow" d="M 0,0 L 8,-3 L 8,3 Z" transform="rotate(134.1185960034179 1452.909090909091 1493) translate(1452.909090909091 1493)" /></g><g id="sprotty_90" class="sprotty-edge" opacity="1"><path class="elkedge" d="M 1277.4098360655737,1733 L 1459.2677595628415,1493" /><path class="edge arrow" d="M 0,0 L 8,-3 L 8,3 Z" transform="rotate(127.15271423731083 1459.2677595628415 1493) translate(1459.2677595628415 1493)" /></g><g id="sprotty_93" class="sprotty-edge" opacity="1"><path class="elkedge" d="M 1276.798206278027,1793 L 1463.3452914798206,1493" /><path class="edge arrow" d="M 0,0 L 8,-3 L 8,3 Z" transform="rotate(121.87432473755749 1463.3452914798206 1493) translate(1463.3452914798206 1493)" /></g><g id="sprotty_96" class="sprotty-edge" opacity="1"><path class="elkedge" d="M 1276.3726235741444,1853 L 1466.1825095057034,1493" /><path class="edge arrow" d="M 0,0 L 8,-3 L 8,3 Z" transform="rotate(117.80042566034118 1466.1825095057034 1493) translate(1466.1825095057034 1493)" /></g><g id="sprotty_99" class="sprotty-edge" opacity="1"><path class="elkedge" d="M 1276.0594059405942,1913 L 1468.2706270627064,1493" /><path class="edge arrow" d="M 0,0 L 8,-3 L 8,3 Z" transform="rotate(114.59100050152601 1468.2706270627064 1493) translate(1468.2706270627064 1493)" /></g><g id="sprotty_102" class="sprotty-edge" opacity="1"><path class="elkedge" d="M 1275.8192419825073,1973 L 1469.871720116618,1493" /><path class="edge arrow" d="M 0,0 L 8,-3 L 8,3 Z" transform="rotate(112.01230148180701 1469.871720116618 1493) translate(1469.871720116618 1493)" /></g><g id="sprotty_105" class="sprotty-edge" opacity="1"><path class="elkedge" d="M 1275.6292428198433,2033 L 1471.1383812010445,1493" /><path class="edge arrow" d="M 0,0 L 8,-3 L 8,3 Z" transform="rotate(109.90298942454936 1471.1383812010445 1493) translate(1471.1383812010445 1493)" /></g><g id="sprotty_108" class="sprotty-edge" opacity="1"><path class="elkedge" d="M 1482,1983 L 1482,1603" /><path class="edge arrow" d="M 0,0 L 8,-3 L 8,3 Z" transform="rotate(90 1482 1603) translate(1482 1603)" /></g><g id="sprotty_111" class="sprotty-edge" opacity="1"><path class="elkedge" d="M 1275.7845567206864,2093 L 1470.1029551954243,1603" /><path class="edge arrow" d="M 0,0 L 8,-3 L 8,3 Z" transform="rotate(111.63170058143358 1470.1029551954243 1603) translate(1470.1029551954243 1603)" /></g><g id="sprotty_112" class="sprotty-edge" opacity="1"><path class="elkedge" d="M 1482,1983 L 1482,1713" /><path class="edge arrow" d="M 0,0 L 8,-3 L 8,3 Z" transform="rotate(90 1482 1713) translate(1482 1713)" /></g><g id="sprotty_113" class="sprotty-edge" opacity="1"><path class="elkedge" d="M 1277.8126272912423,1442 L 1456.582484725051,1653" /><path class="edge arrow" d="M 0,0 L 8,-3 L 8,3 Z" transform="rotate(-130.27295566323377 1456.582484725051 1653) translate(1456.582484725051 1653)" /></g><g id="sprotty_114" class="sprotty-edge" opacity="1"><path class="elkedge" d="M 1276.258142340169,2093 L 1466.9457177322074,1713" /><path class="edge arrow" d="M 0,0 L 8,-3 L 8,3 Z" transform="rotate(116.64792833168704 1466.9457177322074 1713) translate(1466.9457177322074 1713)" /></g><g id="sprotty_117" class="sprotty-edge" opacity="1"><path class="elkedge" d="M 1275.972602739726,2153 L 1468.849315068493,1713" /><path class="edge arrow" d="M 0,0 L 8,-3 L 8,3 Z" transform="rotate(113.67053848472045 1468.849315068493 1713) translate(1468.849315068493 1713)" /></g><g id="sprotty_120" class="sprotty-edge" opacity="1"><path class="elkedge" d="M 1275.7511693171189,2213 L 1470.3255378858746,1713" /><path class="edge arrow" d="M 0,0 L 8,-3 L 8,3 Z" transform="rotate(111.26343675623956 1470.3255378858746 1713) translate(1470.3255378858746 1713)" /></g><g id="sprotty_123" class="sprotty-edge" opacity="1"><path class="elkedge" d="M 1275.574432296047,2273 L 1471.5037846930195,1713" /><path class="edge arrow" d="M 0,0 L 8,-3 L 8,3 Z" transform="rotate(109.2836065616953 1471.5037846930195 1713) translate(1471.5037846930195 1713)" /></g><g id="sprotty_124" class="sprotty-edge" opacity="1"><path class="elkedge" d="M 1482,1983 L 1482,1823" /><path class="edge arrow" d="M 0,0 L 8,-3 L 8,3 Z" transform="rotate(90 1482 1823) translate(1482 1823)" /></g><g id="sprotty_125" class="sprotty-edge" opacity="1"><path class="elkedge" d="M 1277.0738916256157,2093 L 1461.5073891625616,1823" /><path class="edge arrow" d="M 0,0 L 8,-3 L 8,3 Z" transform="rotate(124.33647612215326 1461.5073891625616 1823) translate(1461.5073891625616 1823)" /></g><g id="sprotty_126" class="sprotty-edge" opacity="1"><path class="elkedge" d="M 1482,1823 L 1482,1873" /><path class="edge arrow" d="M 0,0 L 8,-3 L 8,3 Z" transform="rotate(-90 1482 1873) translate(1482 1873)" /></g><g id="sprotty_129" class="sprotty-edge" opacity="1"><path class="elkedge" d="M 1276.884437596302,2333 L 1462.7704160246533,2043" /><path class="edge arrow" d="M 0,0 L 8,-3 L 8,3 Z" transform="rotate(122.65930829224037 1462.7704160246533 2043) translate(1462.7704160246533 2043)" /></g><g id="sprotty_132" class="sprotty-edge" opacity="1"><path class="elkedge" d="M 1507.417515274949,1653 L 1686.1873727087577,1442" /><path class="edge arrow" d="M 0,0 L 8,-3 L 8,3 Z" transform="rotate(130.27295566323377 1686.1873727087577 1442) translate(1686.1873727087577 1442)" /></g><g id="sprotty_135" class="sprotty-edge" opacity="1"><path class="elkedge" d="M 1582,1479.5865384615386 L 1682,1496.173076923077" /><path class="edge arrow" d="M 0,0 L 8,-3 L 8,3 Z" transform="rotate(-170.58235285466577 1682 1496.173076923077) translate(1682 1496.173076923077)" /></g><g id="sprotty_138" class="sprotty-edge" opacity="1"><path class="elkedge" d="M 1531.7211155378486,1653 L 1682.5418326693227,1562" /><path class="edge arrow" d="M 0,0 L 8,-3 L 8,3 Z" transform="rotate(148.89467282183267 1682.5418326693227 1562) translate(1682.5418326693227 1562)" /></g><g id="sprotty_141" class="sprotty-edge" opacity="1"><path class="elkedge" d="M 1577.2671755725191,1653 L 1682,1620.0192307692307" /><path class="edge arrow" d="M 0,0 L 8,-3 L 8,3 Z" transform="rotate(162.52058471831904 1682 1620.0192307692307) translate(1682 1620.0192307692307)" /></g><g id="sprotty_144" class="sprotty-edge" opacity="1"><path class="elkedge" d="M 2416,1438.3347826086956 L 1282,1556.6652173913044" /><path class="edge arrow" d="M 0,0 L 8,-3 L 8,3 Z" transform="rotate(-5.957131114708217 1282 1556.6652173913044) translate(1282 1556.6652173913044)" /></g><g id="sprotty_147" class="sprotty-edge" opacity="1"><path class="elkedge" d="M 1157.5422245108136,1371 L 1273.4577754891864,2333" /><path class="edge arrow" d="M 0,0 L 8,-3 L 8,3 Z" transform="rotate(-96.87069306258371 1273.4577754891864 2333) translate(1273.4577754891864 2333)" /></g><g id="sprotty_150" class="sprotty-edge" opacity="1"><path class="elkedge" d="M 2416,1499.586956521739 L 1282,1795.413043478261" /><path class="edge arrow" d="M 0,0 L 8,-3 L 8,3 Z" transform="rotate(-14.620873988631669 1282 1795.413043478261) translate(1282 1795.413043478261)" /></g><g id="sprotty_153" class="sprotty-edge" opacity="1"><path class="elkedge" d="M 1158.2215777262181,1431 L 1272.7784222737819,1853" /><path class="edge arrow" d="M 0,0 L 8,-3 L 8,3 Z" transform="rotate(-105.18760603259909 1272.7784222737819 1853) translate(1272.7784222737819 1853)" /></g><g id="sprotty_154" class="sprotty-edge" opacity="1"><path class="elkedge" d="M 2116,1463 L 2066,1463" /><path class="edge arrow" d="M 0,0 L 8,-3 L 8,3 Z" transform="rotate(0 2066 1463) translate(2066 1463)" /></g><g id="sprotty_155" class="sprotty-edge" opacity="1"><path class="elkedge" d="M 2181.909090909091,1653 L 2000.090909090909,1493" /><path class="edge arrow" d="M 0,0 L 8,-3 L 8,3 Z" transform="rotate(41.34777721969365 2000.090909090909 1493) translate(2000.090909090909 1493)" /></g><g id="sprotty_158" class="sprotty-edge" opacity="1"><path class="elkedge" d="M 1966,1763 L 1966,1493" /><path class="edge arrow" d="M 0,0 L 8,-3 L 8,3 Z" transform="rotate(90 1966 1493) translate(1966 1493)" /></g><g id="sprotty_161" class="sprotty-edge" opacity="1"><path class="elkedge" d="M 1766,1438.4807692307693 L 1866,1450.7403846153845" /><path class="edge arrow" d="M 0,0 L 8,-3 L 8,3 Z" transform="rotate(-173.0106348436616 1866 1450.7403846153845) translate(1866 1450.7403846153845)" /></g><g id="sprotty_164" class="sprotty-edge" opacity="1"><path class="elkedge" d="M 1766,1496.173076923077 L 1866,1479.5865384615386" /><path class="edge arrow" d="M 0,0 L 8,-3 L 8,3 Z" transform="rotate(170.58235285466577 1866 1479.5865384615386) translate(1866 1479.5865384615386)" /></g><g id="sprotty_167" class="sprotty-edge" opacity="1"><path class="elkedge" d="M 1766,1553.8653846153845 L 1899.968253968254,1493" /><path class="edge arrow" d="M 0,0 L 8,-3 L 8,3 Z" transform="rotate(155.5664230096372 1899.968253968254 1493) translate(1899.968253968254 1493)" /></g><g id="sprotty_170" class="sprotty-edge" opacity="1"><path class="elkedge" d="M 1764.0582524271845,1613 L 1925.611650485437,1493" /><path class="edge arrow" d="M 0,0 L 8,-3 L 8,3 Z" transform="rotate(143.39546107211748 1925.611650485437 1493) translate(1925.611650485437 1493)" /></g><g id="sprotty_173" class="sprotty-edge" opacity="1"><path class="elkedge" d="M 1762.3636363636365,1673 L 1936.909090909091,1493" /><path class="edge arrow" d="M 0,0 L 8,-3 L 8,3 Z" transform="rotate(134.11859600341785 1936.909090909091 1493) translate(1936.909090909091 1493)" /></g><g id="sprotty_176" class="sprotty-edge" opacity="1"><path class="elkedge" d="M 1761.409836065574,1733 L 1943.2677595628415,1493" /><path class="edge arrow" d="M 0,0 L 8,-3 L 8,3 Z" transform="rotate(127.15271423731078 1943.2677595628415 1493) translate(1943.2677595628415 1493)" /></g><g id="sprotty_179" class="sprotty-edge" opacity="1"><path class="elkedge" d="M 1760.798206278027,1793 L 1947.3452914798206,1493" /><path class="edge arrow" d="M 0,0 L 8,-3 L 8,3 Z" transform="rotate(121.87432473755749 1947.3452914798206 1493) translate(1947.3452914798206 1493)" /></g><g id="sprotty_182" class="sprotty-edge" opacity="1"><path class="elkedge" d="M 1760.3726235741447,1853 L 1950.1825095057034,1493" /><path class="edge arrow" d="M 0,0 L 8,-3 L 8,3 Z" transform="rotate(117.80042566034113 1950.1825095057034 1493) translate(1950.1825095057034 1493)" /></g><g id="sprotty_185" class="sprotty-edge" opacity="1"><path class="elkedge" d="M 1760.059405940594,1913 L 1952.2706270627064,1493" /><path class="edge arrow" d="M 0,0 L 8,-3 L 8,3 Z" transform="rotate(114.59100050152603 1952.2706270627064 1493) translate(1952.2706270627064 1493)" /></g><g id="sprotty_188" class="sprotty-edge" opacity="1"><path class="elkedge" d="M 2216,1763 L 2216,1493" /><path class="edge arrow" d="M 0,0 L 8,-3 L 8,3 Z" transform="rotate(90 2216 1493) translate(2216 1493)" /></g><g id="sprotty_191" class="sprotty-edge" opacity="1"><path class="elkedge" d="M 1762.00583090379,1973 L 2189.2944606413994,1493" /><path class="edge arrow" d="M 0,0 L 8,-3 L 8,3 Z" transform="rotate(131.6749854294169 2189.2944606413994 1493) translate(2189.2944606413994 1493)" /></g><g id="sprotty_194" class="sprotty-edge" opacity="1"><path class="elkedge" d="M 1761.5874673629241,2033 L 2192.083550913838,1493" /><path class="edge arrow" d="M 0,0 L 8,-3 L 8,3 Z" transform="rotate(128.56237690234465 2192.083550913838 1493) translate(2192.083550913838 1493)" /></g><g id="sprotty_197" class="sprotty-edge" opacity="1"><path class="elkedge" d="M 1761.2482269503546,2093 L 2194.3451536643024,1493" /><path class="edge arrow" d="M 0,0 L 8,-3 L 8,3 Z" transform="rotate(125.82281375991606 2194.3451536643024 1493) translate(2194.3451536643024 1493)" /></g><g id="sprotty_200" class="sprotty-edge" opacity="1"><path class="elkedge" d="M 1759.601368691189,2153 L 1955.3242087254064,1603" /><path class="edge arrow" d="M 0,0 L 8,-3 L 8,3 Z" transform="rotate(109.58859523608905 1955.3242087254064 1603) translate(1955.3242087254064 1603)" /></g><g id="sprotty_201" class="sprotty-edge" opacity="1"><path class="elkedge" d="M 1760.0150699677072,2033 L 1952.5662002152853,1603" /><path class="edge arrow" d="M 0,0 L 8,-3 L 8,3 Z" transform="rotate(114.12251667081232 1952.5662002152853 1603) translate(1952.5662002152853 1603)" /></g><g id="sprotty_202" class="sprotty-edge" opacity="1"><path class="elkedge" d="M 2216,1763 L 2216,1603" /><path class="edge arrow" d="M 0,0 L 8,-3 L 8,3 Z" transform="rotate(90 2216 1603) translate(2216 1603)" /></g><g id="sprotty_203" class="sprotty-edge" opacity="1"><path class="elkedge" d="M 1759.972602739726,2153 L 1952.849315068493,1713" /><path class="edge arrow" d="M 0,0 L 8,-3 L 8,3 Z" transform="rotate(113.67053848472045 1952.849315068493 1713) translate(1952.849315068493 1713)" /></g><g id="sprotty_204" class="sprotty-edge" opacity="1"><path class="elkedge" d="M 2034.1818181818182,1603 L 2147.818181818182,1653" /><path class="edge arrow" d="M 0,0 L 8,-3 L 8,3 Z" transform="rotate(-156.25050550713328 2147.818181818182 1653) translate(2147.818181818182 1653)" /></g><g id="sprotty_205" class="sprotty-edge" opacity="1"><path class="elkedge" d="M 2066,1683 L 2116,1683" /><path class="edge arrow" d="M 0,0 L 8,-3 L 8,3 Z" transform="rotate(180 2116 1683) translate(2116 1683)" /></g><g id="sprotty_208" class="sprotty-edge" opacity="1"><path class="elkedge" d="M 1760.2049469964663,2213 L 1951.3003533568904,1823" /><path class="edge arrow" d="M 0,0 L 8,-3 L 8,3 Z" transform="rotate(116.10430980694598 1951.3003533568904 1823) translate(1951.3003533568904 1823)" /></g><g id="sprotty_211" class="sprotty-edge" opacity="1"><path class="elkedge" d="M 1759.9318885448915,2273 L 1953.1207430340557,1823" /><path class="edge arrow" d="M 0,0 L 8,-3 L 8,3 Z" transform="rotate(113.2342621436508 1953.1207430340557 1823) translate(1953.1207430340557 1823)" /></g><g id="sprotty_214" class="sprotty-edge" opacity="1"><path class="elkedge" d="M 1759.719008264463,2333 L 1954.5399449035813,1823" /><path class="edge arrow" d="M 0,0 L 8,-3 L 8,3 Z" transform="rotate(110.90694871880137 1954.5399449035813 1823) translate(1954.5399449035813 1823)" /></g><g id="sprotty_215" class="sprotty-edge" opacity="1"><path class="elkedge" d="M 1763.6543209876543,2153 L 2178.304526748971,1823" /><path class="edge arrow" d="M 0,0 L 8,-3 L 8,3 Z" transform="rotate(141.4854181972748 2178.304526748971 1823) translate(2178.304526748971 1823)" /></g><g id="sprotty_218" class="sprotty-edge" opacity="1"><path class="elkedge" d="M 2282.031746031746,1493 L 2416,1553.8653846153845" /><path class="edge arrow" d="M 0,0 L 8,-3 L 8,3 Z" transform="rotate(-155.5664230096372 2416 1553.8653846153845) translate(2416 1553.8653846153845)" /></g><g id="sprotty_219" class="sprotty-edge" opacity="1"><path class="elkedge" d="M 1761.8423076923077,2213 L 2420.1576923076923,1442" /><path class="edge arrow" d="M 0,0 L 8,-3 L 8,3 Z" transform="rotate(130.49222920659867 2420.1576923076923 1442) translate(2420.1576923076923 1442)" /></g><g id="sprotty_220" class="sprotty-edge" opacity="1"><path class="elkedge" d="M 1766,1556.7792792792793 L 2416,1498.2207207207207" /><path class="edge arrow" d="M 0,0 L 8,-3 L 8,3 Z" transform="rotate(174.8521151758637 2416 1498.2207207207207) translate(2416 1498.2207207207207)" /></g><g id="sprotty_223" class="sprotty-edge" opacity="1"><path class="elkedge" d="M 2256.388349514563,1493 L 2417.9417475728155,1613" /><path class="edge arrow" d="M 0,0 L 8,-3 L 8,3 Z" transform="rotate(-143.3954610721175 2417.9417475728155 1613) translate(2417.9417475728155 1613)" /></g><g id="sprotty_226" class="sprotty-edge" opacity="1"><path class="elkedge" d="M 2245.090909090909,1493 L 2419.6363636363635,1673" /><path class="edge arrow" d="M 0,0 L 8,-3 L 8,3 Z" transform="rotate(-134.11859600341785 2419.6363636363635 1673) translate(2419.6363636363635 1673)" /></g><g id="sprotty_229" class="sprotty-edge" opacity="1"><path class="elkedge" d="M 2016.0546448087432,1493 L 2416.4918032786886,1733" /><path class="edge arrow" d="M 0,0 L 8,-3 L 8,3 Z" transform="rotate(-149.06384702104046 2416.4918032786886 1733) translate(2416.4918032786886 1733)" /></g><g id="sprotty_232" class="sprotty-edge" opacity="1"><path class="elkedge" d="M 1162.508146639511,1491 L 1752.4918533604887,1973" /><path class="edge arrow" d="M 0,0 L 8,-3 L 8,3 Z" transform="rotate(-140.75214945261567 1752.4918533604887 1973) translate(1752.4918533604887 1973)" /></g><g id="sprotty_235" class="sprotty-edge" opacity="1"><path class="elkedge" d="M 1165,1545.0490848585691 L 1750,1438.9509151414309" /><path class="edge arrow" d="M 0,0 L 8,-3 L 8,3 Z" transform="rotate(169.72032373587328 1750 1438.9509151414309) translate(1750 1438.9509151414309)" /></g><g id="sprotty_238" class="sprotty-edge" opacity="1"><path class="elkedge" d="M 1161.4263502454992,1611 L 1753.5736497545008,2213" /><path class="edge arrow" d="M 0,0 L 8,-3 L 8,3 Z" transform="rotate(-134.52727327220984 1753.5736497545008 2213) translate(1753.5736497545008 2213)" /></g><g id="sprotty_241" class="sprotty-edge" opacity="1"><path class="elkedge" d="M 1165,1664.2504159733776 L 1750,1499.7495840266224" /><path class="edge arrow" d="M 0,0 L 8,-3 L 8,3 Z" transform="rotate(164.29412301421024 1750 1499.7495840266224) translate(1750 1499.7495840266224)" /></g><g id="sprotty_244" class="sprotty-edge" opacity="1"><path class="elkedge" d="M 1165,1724.2504159733776 L 1750,1559.7495840266224" /><path class="edge arrow" d="M 0,0 L 8,-3 L 8,3 Z" transform="rotate(164.29412301421024 1750 1559.7495840266224) translate(1750 1559.7495840266224)" /></g><g id="sprotty_247" class="sprotty-edge" opacity="1"><path class="elkedge" d="M 1162.508146639511,1791 L 1752.4918533604887,2273" /><path class="edge arrow" d="M 0,0 L 8,-3 L 8,3 Z" transform="rotate(-140.75214945261567 1752.4918533604887 2273) translate(1752.4918533604887 2273)" /></g><g id="sprotty_248" class="sprotty-edge" opacity="1"><path class="elkedge" d="M 1160.4190897597978,1371 L 1754.5809102402022,2153" /><path class="edge arrow" d="M 0,0 L 8,-3 L 8,3 Z" transform="rotate(-127.2274869559673 1754.5809102402022 2153) translate(1754.5809102402022 2153)" /></g><g id="sprotty_251" class="sprotty-edge" opacity="1"><path class="elkedge" d="M 1162.508146639511,1851 L 1752.4918533604887,2333" /><path class="edge arrow" d="M 0,0 L 8,-3 L 8,3 Z" transform="rotate(-140.75214945261567 1752.4918533604887 2333) translate(1752.4918533604887 2333)" /></g><g id="sprotty_254" class="sprotty-edge" opacity="1"><path class="elkedge" d="M 1165,1905.0490848585691 L 1750,1798.9509151414309" /><path class="edge arrow" d="M 0,0 L 8,-3 L 8,3 Z" transform="rotate(169.72032373587328 1750 1798.9509151414309) translate(1750 1798.9509151414309)" /></g><g id="sprotty_257" class="sprotty-edge" opacity="1"><path class="elkedge" d="M 1165,1965.0490848585691 L 1750,1858.9509151414309" /><path class="edge arrow" d="M 0,0 L 8,-3 L 8,3 Z" transform="rotate(169.72032373587328 1750 1858.9509151414309) translate(1750 1858.9509151414309)" /></g><g id="sprotty_260" class="sprotty-edge" opacity="1"><path class="elkedge" d="M 1149,1606.5 L 1118,1606.5 L 1118,1241 L 2560,1241 L 2560,1366.5 L 2549,1366.5" /><path class="edge arrow" d="M 0,0 L 8,-3 L 8,3 Z" transform="rotate(0 2549 1366.5) translate(2549 1366.5)" /></g><g id="sprotty_263" class="sprotty-edge" opacity="1"><path class="elkedge" d="M 1149,1786.5 L 1088,1786.5 L 1088,2493 L 2560,2493 L 2560,1426.5 L 2549,1426.5" /><path class="edge arrow" d="M 0,0 L 8,-3 L 8,3 Z" transform="rotate(0 2549 1426.5) translate(2549 1426.5)" /></g><g id="sprotty_266" class="sprotty-edge" opacity="1"><path class="elkedge" d="M 0,895.5 L 150,895.5 L 150,1279.5 L 1128,1279.5 L 1128,1546.5 L 1149,1546.5" /><path class="edge arrow" d="M 0,0 L 8,-3 L 8,3 Z" transform="rotate(180 1149 1546.5) translate(1149 1546.5)" /></g><g id="sprotty_267" class="sprotty-edge" opacity="1"><path class="elkedge" d="M 984.3333333333334,1386.5 L 1118,1386.5 L 1118,1606.5 L 1149,1606.5" /><path class="edge arrow" d="M 0,0 L 8,-3 L 8,3 Z" transform="rotate(180 1149 1606.5) translate(1149 1606.5)" /><g id="sprotty_267_j0" transform="translate(1118, 1386.5)" opacity="1"><circle class="elkjunction" r="2" /></g></g><g id="sprotty_270" class="sprotty-edge" opacity="1"><path class="elkedge" d="M 0,955.5 L 140,955.5 L 140,1290.5 L 1118,1290.5 L 1118,1606.5 L 1149,1606.5" /><path class="edge arrow" d="M 0,0 L 8,-3 L 8,3 Z" transform="rotate(180 1149 1606.5) translate(1149 1606.5)" /><g id="sprotty_270_j0" transform="translate(140, 955.5)" opacity="1"><circle class="elkjunction" r="2" /></g><g id="sprotty_270_j1" transform="translate(140, 1290.5)" opacity="1"><circle class="elkjunction" r="2" /></g><g id="sprotty_270_j2" transform="translate(1118, 1290.5)" opacity="1"><circle class="elkjunction" r="2" /></g></g><g id="sprotty_273" class="sprotty-edge" opacity="1"><path class="elkedge" d="M 0,1015.5 L 130,1015.5 L 130,1301.5 L 1108,1301.5 L 1108,1666.5 L 1149,1666.5" /><path class="edge arrow" d="M 0,0 L 8,-3 L 8,3 Z" transform="rotate(180 1149 1666.5) translate(1149 1666.5)" /></g><g id="sprotty_276" class="sprotty-edge" opacity="1"><path class="elkedge" d="M 0,1075.5 L 120,1075.5 L 120,1312.5 L 1098,1312.5 L 1098,1726.5 L 1149,1726.5" /><path class="edge arrow" d="M 0,0 L 8,-3 L 8,3 Z" transform="rotate(180 1149 1726.5) translate(1149 1726.5)" /></g><g id="sprotty_277" class="sprotty-edge" opacity="1"><path class="elkedge" d="M 984.3333333333334,1398.5 L 1088,1398.5 L 1088,1786.5 L 1149,1786.5" /><path class="edge arrow" d="M 0,0 L 8,-3 L 8,3 Z" transform="rotate(180 1149 1786.5) translate(1149 1786.5)" /><g id="sprotty_277_j0" transform="translate(1088, 1398.5)" opacity="1"><circle class="elkjunction" r="2" /></g></g><g id="sprotty_278" class="sprotty-edge" opacity="1"><path class="elkedge" d="M 0,955.5 L 140,955.5 L 140,1323.5 L 1088,1323.5 L 1088,1786.5 L 1149,1786.5" /><path class="edge arrow" d="M 0,0 L 8,-3 L 8,3 Z" transform="rotate(180 1149 1786.5) translate(1149 1786.5)" /><g id="sprotty_278_j0" transform="translate(1088, 1786.5)" opacity="1"><circle class="elkjunction" r="2" /></g></g><g id="sprotty_279" class="sprotty-edge" opacity="1"><path class="elkedge" d="M 0,1135.5 L 1138,1135.5 L 1138,1366.5 L 1149,1366.5" /><path class="edge arrow" d="M 0,0 L 8,-3 L 8,3 Z" transform="rotate(180 1149 1366.5) translate(1149 1366.5)" /><g id="sprotty_279_j0" transform="translate(1138, 1135.5)" opacity="1"><circle class="elkjunction" r="2" /></g></g><g id="sprotty_280" class="sprotty-edge" opacity="1"><path class="elkedge" d="M 984.3333333333334,1410.5 L 1088,1410.5 L 1088,1846.5 L 1149,1846.5" /><path class="edge arrow" d="M 0,0 L 8,-3 L 8,3 Z" transform="rotate(180 1149 1846.5) translate(1149 1846.5)" /><g id="sprotty_280_j0" transform="translate(1088, 1410.5)" opacity="1"><circle class="elkjunction" r="2" /></g></g><g id="sprotty_281" class="sprotty-edge" opacity="1"><path class="elkedge" d="M 0,955.5 L 140,955.5 L 140,1323.5 L 1088,1323.5 L 1088,1846.5 L 1149,1846.5" /><path class="edge arrow" d="M 0,0 L 8,-3 L 8,3 Z" transform="rotate(180 1149 1846.5) translate(1149 1846.5)" /><g id="sprotty_281_j0" transform="translate(1088, 1846.5)" opacity="1"><circle class="elkjunction" r="2" /></g></g><g id="sprotty_284" class="sprotty-edge" opacity="1"><path class="elkedge" d="M 1067,1906.5 L 1149,1906.5" /><path class="edge arrow" d="M 0,0 L 8,-3 L 8,3 Z" transform="rotate(180 1149 1906.5) translate(1149 1906.5)" /></g><g id="sprotty_287" class="sprotty-edge" opacity="1"><path class="elkedge" d="M 1067,1966.5 L 1149,1966.5" /><path class="edge arrow" d="M 0,0 L 8,-3 L 8,3 Z" transform="rotate(180 1149 1966.5) translate(1149 1966.5)" /></g><g id="sprotty_288" class="sprotty-edge" opacity="1"><path class="elkedge" d="M 1754.3333333333333,201 L 1704.3333333333333,201" /><path class="edge arrow" d="M 0,0 L 8,-3 L 8,3 Z" transform="rotate(0 1704.3333333333333 201) translate(1704.3333333333333 201)" /></g><g id="sprotty_289" class="sprotty-edge" opacity="1"><path class="elkedge" d="M 1820.2424242424242,391 L 1638.4242424242423,231" /><path class="edge arrow" d="M 0,0 L 8,-3 L 8,3 Z" transform="rotate(41.34777721969365 1638.4242424242423 231) translate(1638.4242424242423 231)" /></g><g id="sprotty_290" class="sprotty-edge" opacity="1"><path class="elkedge" d="M 1831.6060606060605,501 L 1627.060606060606,231" /><path class="edge arrow" d="M 0,0 L 8,-3 L 8,3 Z" transform="rotate(52.853313301978226 1627.060606060606 231) translate(1627.060606060606 231)" /></g><g id="sprotty_293" class="sprotty-edge" opacity="1"><path class="elkedge" d="M 1404.3333333333333,176.48076923076923 L 1504.3333333333333,188.7403846153846" /><path class="edge arrow" d="M 0,0 L 8,-3 L 8,3 Z" transform="rotate(-173.01063484366153 1504.3333333333333 188.7403846153846) translate(1504.3333333333333 188.7403846153846)" /></g><g id="sprotty_296" class="sprotty-edge" opacity="1"><path class="elkedge" d="M 1404.3333333333333,234.1730769230769 L 1504.3333333333333,217.58653846153845" /><path class="edge arrow" d="M 0,0 L 8,-3 L 8,3 Z" transform="rotate(170.58235285466571 1504.3333333333333 217.58653846153845) translate(1504.3333333333333 217.58653846153845)" /></g><g id="sprotty_299" class="sprotty-edge" opacity="1"><path class="elkedge" d="M 1404.3333333333333,291.86538461538464 L 1538.3015873015872,231" /><path class="edge arrow" d="M 0,0 L 8,-3 L 8,3 Z" transform="rotate(155.5664230096372 1538.3015873015872 231) translate(1538.3015873015872 231)" /></g><g id="sprotty_302" class="sprotty-edge" opacity="1"><path class="elkedge" d="M 1402.3915857605177,351 L 1563.9449838187702,231" /><path class="edge arrow" d="M 0,0 L 8,-3 L 8,3 Z" transform="rotate(143.39546107211748 1563.9449838187702 231) translate(1563.9449838187702 231)" /></g><g id="sprotty_305" class="sprotty-edge" opacity="1"><path class="elkedge" d="M 1400.6969696969695,411 L 1575.2424242424242,231" /><path class="edge arrow" d="M 0,0 L 8,-3 L 8,3 Z" transform="rotate(134.1185960034179 1575.2424242424242 231) translate(1575.2424242424242 231)" /></g><g id="sprotty_308" class="sprotty-edge" opacity="1"><path class="elkedge" d="M 1399.743169398907,471 L 1581.6010928961748,231" /><path class="edge arrow" d="M 0,0 L 8,-3 L 8,3 Z" transform="rotate(127.15271423731083 1581.6010928961748 231) translate(1581.6010928961748 231)" /></g><g id="sprotty_311" class="sprotty-edge" opacity="1"><path class="elkedge" d="M 1399.1315396113603,531 L 1585.6786248131539,231" /><path class="edge arrow" d="M 0,0 L 8,-3 L 8,3 Z" transform="rotate(121.87432473755749 1585.6786248131539 231) translate(1585.6786248131539 231)" /></g><g id="sprotty_314" class="sprotty-edge" opacity="1"><path class="elkedge" d="M 1398.7059569074777,591 L 1588.5158428390366,231" /><path class="edge arrow" d="M 0,0 L 8,-3 L 8,3 Z" transform="rotate(117.80042566034118 1588.5158428390366 231) translate(1588.5158428390366 231)" /></g><g id="sprotty_317" class="sprotty-edge" opacity="1"><path class="elkedge" d="M 1398.3927392739274,651 L 1590.6039603960396,231" /><path class="edge arrow" d="M 0,0 L 8,-3 L 8,3 Z" transform="rotate(114.59100050152601 1590.6039603960396 231) translate(1590.6039603960396 231)" /></g><g id="sprotty_320" class="sprotty-edge" opacity="1"><path class="elkedge" d="M 1398.1525753158405,711 L 1592.2050534499513,231" /><path class="edge arrow" d="M 0,0 L 8,-3 L 8,3 Z" transform="rotate(112.01230148180701 1592.2050534499513 231) translate(1592.2050534499513 231)" /></g><g id="sprotty_323" class="sprotty-edge" opacity="1"><path class="elkedge" d="M 1621.3787878787878,611 L 1837.2878787878788,231" /><path class="edge arrow" d="M 0,0 L 8,-3 L 8,3 Z" transform="rotate(119.60445074600493 1837.2878787878788 231) translate(1837.2878787878788 231)" /></g><g id="sprotty_326" class="sprotty-edge" opacity="1"><path class="elkedge" d="M 1399.9208006962576,771 L 1830.4168842471713,231" /><path class="edge arrow" d="M 0,0 L 8,-3 L 8,3 Z" transform="rotate(128.56237690234465 1830.4168842471713 231) translate(1830.4168842471713 231)" /></g><g id="sprotty_327" class="sprotty-edge" opacity="1"><path class="elkedge" d="M 1604.3333333333333,611 L 1604.3333333333333,341" /><path class="edge arrow" d="M 0,0 L 8,-3 L 8,3 Z" transform="rotate(90 1604.3333333333333 341) translate(1604.3333333333333 341)" /></g><g id="sprotty_328" class="sprotty-edge" opacity="1"><path class="elkedge" d="M 1403.241082410824,180 L 1558.2816728167281,281" /><path class="edge arrow" d="M 0,0 L 8,-3 L 8,3 Z" transform="rotate(-146.91807712723494 1558.2816728167281 281) translate(1558.2816728167281 281)" /></g><g id="sprotty_329" class="sprotty-edge" opacity="1"><path class="elkedge" d="M 1398.3484033010404,771 L 1590.8995335486186,341" /><path class="edge arrow" d="M 0,0 L 8,-3 L 8,3 Z" transform="rotate(114.12251667081232 1590.8995335486186 341) translate(1590.8995335486186 341)" /></g><g id="sprotty_332" class="sprotty-edge" opacity="1"><path class="elkedge" d="M 1398.1178900540197,831 L 1592.4362885287574,341" /><path class="edge arrow" d="M 0,0 L 8,-3 L 8,3 Z" transform="rotate(111.63170058143355 1592.4362885287574 341) translate(1592.4362885287574 341)" /></g><g id="sprotty_335" class="sprotty-edge" opacity="1"><path class="elkedge" d="M 1397.9347020245223,891 L 1593.6575420587396,341" /><path class="edge arrow" d="M 0,0 L 8,-3 L 8,3 Z" transform="rotate(109.58859523608905 1593.6575420587396 341) translate(1593.6575420587396 341)" /></g><g id="sprotty_338" class="sprotty-edge" opacity="1"><path class="elkedge" d="M 1397.7856219291439,951 L 1594.6514093612618,341" /><path class="edge arrow" d="M 0,0 L 8,-3 L 8,3 Z" transform="rotate(107.88648858285283 1594.6514093612618 341) translate(1594.6514093612618 341)" /></g><g id="sprotty_341" class="sprotty-edge" opacity="1"><path class="elkedge" d="M 1397.6619351786137,1011 L 1595.475987698131,341" /><path class="edge arrow" d="M 0,0 L 8,-3 L 8,3 Z" transform="rotate(106.44896435324775 1595.475987698131 341) translate(1595.475987698131 341)" /></g><g id="sprotty_344" class="sprotty-edge" opacity="1"><path class="elkedge" d="M 1397.5576629605405,1071 L 1596.1711358186178,341" /><path class="edge arrow" d="M 0,0 L 8,-3 L 8,3 Z" transform="rotate(105.22023446678352 1596.1711358186178 341) translate(1596.1711358186178 341)" /></g><g id="sprotty_345" class="sprotty-edge" opacity="1"><path class="elkedge" d="M 1627.060606060606,611 L 1831.6060606060605,341" /><path class="edge arrow" d="M 0,0 L 8,-3 L 8,3 Z" transform="rotate(127.14668669802178 1831.6060606060605 341) translate(1831.6060606060605 341)" /></g><g id="sprotty_346" class="sprotty-edge" opacity="1"><path class="elkedge" d="M 1400.7703623968423,771 L 1824.7531395766055,341" /><path class="edge arrow" d="M 0,0 L 8,-3 L 8,3 Z" transform="rotate(134.5962965812639 1824.7531395766055 341) translate(1824.7531395766055 341)" /></g><g id="sprotty_347" class="sprotty-edge" opacity="1"><path class="elkedge" d="M 1604.3333333333333,611 L 1604.3333333333333,451" /><path class="edge arrow" d="M 0,0 L 8,-3 L 8,3 Z" transform="rotate(90 1604.3333333333333 451) translate(1604.3333333333333 451)" /></g><g id="sprotty_348" class="sprotty-edge" opacity="1"><path class="elkedge" d="M 1854.3333333333333,341 L 1854.3333333333333,391" /><path class="edge arrow" d="M 0,0 L 8,-3 L 8,3 Z" transform="rotate(-90 1854.3333333333333 391) translate(1854.3333333333333 391)" /></g><g id="sprotty_349" class="sprotty-edge" opacity="1"><path class="elkedge" d="M 1704.3333333333333,421 L 1754.3333333333333,421" /><path class="edge arrow" d="M 0,0 L 8,-3 L 8,3 Z" transform="rotate(180 1754.3333333333333 421) translate(1754.3333333333333 421)" /></g><g id="sprotty_350" class="sprotty-edge" opacity="1"><path class="elkedge" d="M 1604.3333333333333,611 L 1604.3333333333333,561" /><path class="edge arrow" d="M 0,0 L 8,-3 L 8,3 Z" transform="rotate(90 1604.3333333333333 561) translate(1604.3333333333333 561)" /></g><g id="sprotty_351" class="sprotty-edge" opacity="1"><path class="elkedge" d="M 1400.161554192229,771 L 1578.8118609406952,561" /><path class="edge arrow" d="M 0,0 L 8,-3 L 8,3 Z" transform="rotate(130.3883361478377 1578.8118609406952 561) translate(1578.8118609406952 561)" /></g><g id="sprotty_352" class="sprotty-edge" opacity="1"><path class="elkedge" d="M 1854.3333333333333,341 L 1854.3333333333333,501" /><path class="edge arrow" d="M 0,0 L 8,-3 L 8,3 Z" transform="rotate(-90 1854.3333333333333 501) translate(1854.3333333333333 501)" /></g><g id="sprotty_353" class="sprotty-edge" opacity="1"><path class="elkedge" d="M 1704.3333333333333,531 L 1754.3333333333333,531" /><path class="edge arrow" d="M 0,0 L 8,-3 L 8,3 Z" transform="rotate(180 1754.3333333333333 531) translate(1754.3333333333333 531)" /></g><g id="sprotty_356" class="sprotty-edge" opacity="1"><path class="elkedge" d="M 1398.226154364678,1131 L 1591.7145264577014,671" /><path class="edge arrow" d="M 0,0 L 8,-3 L 8,3 Z" transform="rotate(112.81293144107966 1591.7145264577014 671) translate(1591.7145264577014 671)" /></g><g id="sprotty_359" class="sprotty-edge" opacity="1"><path class="elkedge" d="M 1388.3333333333333,235.5 L 1138,235.5 L 1138,50 L 2560,50 L 2560,175.5 L 2070.333333333333,175.5" /><path class="edge arrow" d="M 0,0 L 8,-3 L 8,3 Z" transform="rotate(0 2070.333333333333 175.5) translate(2070.333333333333 175.5)" /></g><g id="sprotty_362" class="sprotty-edge" opacity="1"><path class="elkedge" d="M 1704.3333333333333,294.51528384279476 L 2054.333333333333,236.8187772925764" /><path class="edge arrow" d="M 0,0 L 8,-3 L 8,3 Z" transform="rotate(170.63914001903586 2054.333333333333 236.8187772925764) translate(2054.333333333333 236.8187772925764)" /></g><g id="sprotty_365" class="sprotty-edge" opacity="1"><path class="elkedge" d="M 1704.3333333333333,221.63318777292577 L 2054.333333333333,293.84934497816596" /><path class="edge arrow" d="M 0,0 L 8,-3 L 8,3 Z" transform="rotate(-168.34165965728076 2054.333333333333 293.84934497816596) translate(2054.333333333333 293.84934497816596)" /></g><g id="sprotty_368" class="sprotty-edge" opacity="1"><path class="elkedge" d="M 1704.3333333333333,320.71615720524017 L 2054.333333333333,354.7227074235808" /><path class="edge arrow" d="M 0,0 L 8,-3 L 8,3 Z" transform="rotate(-174.45047144714007 2054.333333333333 354.7227074235808) translate(2054.333333333333 354.7227074235808)" /></g><g id="sprotty_371" class="sprotty-edge" opacity="1"><path class="elkedge" d="M 1704.3333333333333,333.8165938864629 L 2054.333333333333,413.674672489083" /><path class="edge arrow" d="M 0,0 L 8,-3 L 8,3 Z" transform="rotate(-167.14707970140952 2054.333333333333 413.674672489083) translate(2054.333333333333 413.674672489083)" /></g><g id="sprotty_374" class="sprotty-edge" opacity="1"><path class="elkedge" d="M 1687.8591691995946,341 L 2054.333333333333,472.62663755458516" /><path class="edge arrow" d="M 0,0 L 8,-3 L 8,3 Z" transform="rotate(-160.24321867717828 2054.333333333333 472.62663755458516) translate(2054.333333333333 472.62663755458516)" /></g><g id="sprotty_377" class="sprotty-edge" opacity="1"><path class="elkedge" d="M 1665.536005939124,341 L 2054.333333333333,531.5786026200874" /><path class="edge arrow" d="M 0,0 L 8,-3 L 8,3 Z" transform="rotate(-153.8870762338902 2054.333333333333 531.5786026200874) translate(2054.333333333333 531.5786026200874)" /></g><g id="sprotty_378" class="sprotty-edge" opacity="1"><path class="elkedge" d="M 0,1135.5 L 1388.3333333333333,1135.5" /><path class="edge arrow" d="M 0,0 L 8,-3 L 8,3 Z" transform="rotate(180 1388.3333333333333 1135.5) translate(1388.3333333333333 1135.5)" /></g><g id="sprotty_379" class="sprotty-edge" opacity="1"><path class="elkedge" d="M 0,955.5 L 140,955.5 L 140,824.5 L 1088,824.5 L 1088,835.5 L 1388.3333333333333,835.5" /><path class="edge arrow" d="M 0,0 L 8,-3 L 8,3 Z" transform="rotate(180 1388.3333333333333 835.5) translate(1388.3333333333333 835.5)" /></g><g id="sprotty_382" class="sprotty-edge" opacity="1"><path class="elkedge" d="M 0,835.5 L 1078,835.5 L 1078,895.5 L 1388.3333333333333,895.5" /><path class="edge arrow" d="M 0,0 L 8,-3 L 8,3 Z" transform="rotate(180 1388.3333333333333 895.5) translate(1388.3333333333333 895.5)" /></g><g id="sprotty_385" class="sprotty-edge" opacity="1"><path class="elkedge" d="M 377,1836.5 L 377,1676.5" /><path class="edge arrow" d="M 0,0 L 8,-3 L 8,3 Z" transform="rotate(90 377 1676.5) translate(377 1676.5)" /></g><g id="sprotty_388" class="sprotty-edge" opacity="1"><path class="elkedge" d="M 177,1621.9807692307693 L 277,1634.2403846153845" /><path class="edge arrow" d="M 0,0 L 8,-3 L 8,3 Z" transform="rotate(-173.0106348436616 277 1634.2403846153845) translate(277 1634.2403846153845)" /></g><g id="sprotty_391" class="sprotty-edge" opacity="1"><path class="elkedge" d="M 177,1679.673076923077 L 277,1663.0865384615386" /><path class="edge arrow" d="M 0,0 L 8,-3 L 8,3 Z" transform="rotate(170.58235285466577 277 1663.0865384615386) translate(277 1663.0865384615386)" /></g><g id="sprotty_394" class="sprotty-edge" opacity="1"><path class="elkedge" d="M 177,1737.3653846153845 L 310.968253968254,1676.5" /><path class="edge arrow" d="M 0,0 L 8,-3 L 8,3 Z" transform="rotate(155.5664230096372 310.968253968254 1676.5) translate(310.968253968254 1676.5)" /></g><g id="sprotty_397" class="sprotty-edge" opacity="1"><path class="elkedge" d="M 175.05825242718447,1796.5 L 336.6116504854369,1676.5" /><path class="edge arrow" d="M 0,0 L 8,-3 L 8,3 Z" transform="rotate(143.39546107211746 336.6116504854369 1676.5) translate(336.6116504854369 1676.5)" /></g><g id="sprotty_398" class="sprotty-edge" opacity="1"><path class="elkedge" d="M 377,1836.5 L 377,1786.5" /><path class="edge arrow" d="M 0,0 L 8,-3 L 8,3 Z" transform="rotate(90 377 1786.5) translate(377 1786.5)" /></g><g id="sprotty_401" class="sprotty-edge" opacity="1"><path class="elkedge" d="M 177,1856.9807692307693 L 317.2870813397129,1786.5" /><path class="edge arrow" d="M 0,0 L 8,-3 L 8,3 Z" transform="rotate(153.3248706115522 317.2870813397129 1786.5) translate(317.2870813397129 1786.5)" /></g><g id="sprotty_402" class="sprotty-edge" opacity="1"><path class="elkedge" d="M 177,1683.9038461538462 L 294.35099337748346,1726.5" /><path class="edge arrow" d="M 0,0 L 8,-3 L 8,3 Z" transform="rotate(-160.05007635827792 294.35099337748346 1726.5) translate(294.35099337748346 1726.5)" /></g><g id="sprotty_405" class="sprotty-edge" opacity="1"><path class="elkedge" d="M 174.68996960486322,1916.5 L 339.0668693009119,1786.5" /><path class="edge arrow" d="M 0,0 L 8,-3 L 8,3 Z" transform="rotate(141.6607478272731 339.0668693009119 1786.5) translate(339.0668693009119 1786.5)" /></g><g id="sprotty_408" class="sprotty-edge" opacity="1"><path class="elkedge" d="M 177,1976.5961538461538 L 322.50218340611355,1896.5" /><path class="edge arrow" d="M 0,0 L 8,-3 L 8,3 Z" transform="rotate(151.16806195334135 322.50218340611355 1896.5) translate(322.50218340611355 1896.5)" /></g><g id="sprotty_411" class="sprotty-edge" opacity="1"><path class="elkedge" d="M 423.0516605166052,1726.5 L 578.0922509225093,1625.5" /><path class="edge arrow" d="M 0,0 L 8,-3 L 8,3 Z" transform="rotate(146.9180771272349 578.0922509225093 1625.5) translate(578.0922509225093 1625.5)" /></g><g id="sprotty_414" class="sprotty-edge" opacity="1"><path class="elkedge" d="M 477,1663.0865384615386 L 577,1679.673076923077" /><path class="edge arrow" d="M 0,0 L 8,-3 L 8,3 Z" transform="rotate(-170.58235285466577 577 1679.673076923077) translate(577 1679.673076923077)" /></g><g id="sprotty_417" class="sprotty-edge" opacity="1"><path class="elkedge" d="M 477,1749.048076923077 L 577,1741.5961538461538" /><path class="edge arrow" d="M 0,0 L 8,-3 L 8,3 Z" transform="rotate(175.73823961931822 577 1741.5961538461538) translate(577 1741.5961538461538)" /></g><g id="sprotty_420" class="sprotty-edge" opacity="1"><path class="elkedge" d="M 477,1777.8942307692307 L 577,1799.2884615384614" /><path class="edge arrow" d="M 0,0 L 8,-3 L 8,3 Z" transform="rotate(-167.92405618105852 577 1799.2884615384614) translate(577 1799.2884615384614)" /></g><g id="sprotty_423" class="sprotty-edge" opacity="1"><path class="elkedge" d="M 651,1907.4807692307693 L 751,1919.7403846153845" /><path class="edge arrow" d="M 0,0 L 8,-3 L 8,3 Z" transform="rotate(-173.0106348436616 751 1919.7403846153845) translate(751 1919.7403846153845)" /></g><g id="sprotty_426" class="sprotty-edge" opacity="1"><path class="elkedge" d="M 651,1965.173076923077 L 751,1948.5865384615386" /><path class="edge arrow" d="M 0,0 L 8,-3 L 8,3 Z" transform="rotate(170.58235285466577 751 1948.5865384615386) translate(751 1948.5865384615386)" /></g><g id="sprotty_429" class="sprotty-edge" opacity="1"><path class="elkedge" d="M 651,2022.8653846153845 L 784.968253968254,1962" /><path class="edge arrow" d="M 0,0 L 8,-3 L 8,3 Z" transform="rotate(155.5664230096372 784.968253968254 1962) translate(784.968253968254 1962)" /></g><g id="sprotty_432" class="sprotty-edge" opacity="1"><path class="elkedge" d="M 649.0582524271845,2082 L 810.6116504854369,1962" /><path class="edge arrow" d="M 0,0 L 8,-3 L 8,3 Z" transform="rotate(143.39546107211748 810.6116504854369 1962) translate(810.6116504854369 1962)" /></g><g id="sprotty_435" class="sprotty-edge" opacity="1"><path class="elkedge" d="M 647.3636363636364,2142 L 821.9090909090909,1962" /><path class="edge arrow" d="M 0,0 L 8,-3 L 8,3 Z" transform="rotate(134.11859600341785 821.9090909090909 1962) translate(821.9090909090909 1962)" /></g><g id="sprotty_438" class="sprotty-edge" opacity="1"><path class="elkedge" d="M 646.4098360655738,2202 L 828.2677595628415,1962" /><path class="edge arrow" d="M 0,0 L 8,-3 L 8,3 Z" transform="rotate(127.1527142373108 828.2677595628415 1962) translate(828.2677595628415 1962)" /></g><g id="sprotty_439" class="sprotty-edge" opacity="1"><path class="elkedge" d="M 851,1962 L 851,2012" /><path class="edge arrow" d="M 0,0 L 8,-3 L 8,3 Z" transform="rotate(-90 851 2012) translate(851 2012)" /></g><g id="sprotty_442" class="sprotty-edge" opacity="1"><path class="elkedge" d="M 951,2034.548076923077 L 1051,2027.0961538461538" /><path class="edge arrow" d="M 0,0 L 8,-3 L 8,3 Z" transform="rotate(175.73823961931822 1051 2027.0961538461538) translate(1051 2027.0961538461538)" /></g><g id="sprotty_443" class="sprotty-edge" opacity="1"><path class="elkedge" d="M 897.0516605166051,2012 L 1052.0922509225093,1911" /><path class="edge arrow" d="M 0,0 L 8,-3 L 8,3 Z" transform="rotate(146.91807712723494 1052.0922509225093 1911) translate(1052.0922509225093 1911)" /></g><g id="sprotty_444" class="sprotty-edge" opacity="1"><path class="elkedge" d="M 933.6490066225165,2012 L 1051,1969.4038461538462" /><path class="edge arrow" d="M 0,0 L 8,-3 L 8,3 Z" transform="rotate(160.05007635827792 1051 1969.4038461538462) translate(1051 1969.4038461538462)" /></g><g id="sprotty_445" class="sprotty-edge" opacity="1"><path class="elkedge" d="M 593,1681 L 614,1681 L 614,1906.5 L 635,1906.5" /><path class="edge arrow" d="M 0,0 L 8,-3 L 8,3 Z" transform="rotate(180 635 1906.5) translate(635 1906.5)" /></g><g id="sprotty_448" class="sprotty-edge" opacity="1"><path class="elkedge" d="M 577,1495.5 L 624,1495.5 L 624,2026.5 L 635,2026.5" /><path class="edge arrow" d="M 0,0 L 8,-3 L 8,3 Z" transform="rotate(180 635 2026.5) translate(635 2026.5)" /></g><g id="sprotty_449" class="sprotty-edge" opacity="1"><path class="elkedge" d="M 0,1135.5 L 110,1135.5 L 110,2086.5 L 635,2086.5" /><path class="edge arrow" d="M 0,0 L 8,-3 L 8,3 Z" transform="rotate(180 635 2086.5) translate(635 2086.5)" /></g><g id="sprotty_450" class="sprotty-edge" opacity="1"><path class="elkedge" d="M 593,1621 L 604,1621 L 604,2146.5 L 635,2146.5" /><path class="edge arrow" d="M 0,0 L 8,-3 L 8,3 Z" transform="rotate(180 635 2146.5) translate(635 2146.5)" /></g><g id="sprotty_453" class="sprotty-edge" opacity="1"><path class="elkedge" d="M 984.3333333333334,1422.5 L 1078,1422.5 L 1078,2503 L 2680,2503" /><path class="edge arrow" d="M 0,0 L 8,-3 L 8,3 Z" transform="rotate(180 2680 2503) translate(2680 2503)" /></g><g id="sprotty_454" class="sprotty-edge" opacity="1"><path class="elkedge" d="M 2070.333333333333,415.5 L 2570,415.5 L 2570,2503 L 2680,2503" /><path class="edge arrow" d="M 0,0 L 8,-3 L 8,3 Z" transform="rotate(180 2680 2503) translate(2680 2503)" /><g id="sprotty_454_j0" transform="translate(2570, 2503)" opacity="1"><circle class="elkjunction" r="2" /></g></g></g></g></svg>
