<svg id="sprotty_1" class="sprotty-graph sprotty" tabindex="1002" xmlns="http://www.w3.org/2000/svg" viewBox="0 0 2086 2325"><style>.elknode {
    stroke: #448;
    stroke-width: 2;
    fill: #ddf;
}

.elkport {
    stroke: #448;
    stroke-width: 1;
    fill: #66c;
}

.elkedge {
    fill: none;
    stroke: #224;
    stroke-width: 1;
}

.elkedge.arrow {
    fill: #336;
}

.elklabel {
    stroke-width: 0;
    stroke: #000;
    fill: #000;
    font-family: sans-serif;
    font-size: 10pt;
    dominant-baseline: hanging;
}

.elkjunction {
    stroke: none;
    fill: #224;
}

.selected &gt; rect {
    stroke-width: 3;
}

.mouseover {
    stroke: #88f;
}
/*
 * Copyright (C) 2017 TypeFox and others.
 *
 * Licensed under the Apache License, Version 2.0 (the &quot;License&quot;); you may not use this file except in compliance with the License.
 * You may obtain a copy of the License at http://www.apache.org/licenses/LICENSE-2.0
 */

.sprotty {
    padding: 0px;
    font-family: &quot;Helvetica Neue&quot;, Helvetica, Arial, sans-serif;
}

.sprotty-hidden {
    display: block;
    position: absolute;
    width: 0px;
    height: 0px;
}

.sprotty-popup {
    font-family: &quot;Helvetica Neue&quot;, Helvetica, Arial, sans-serif;
    position: absolute;
    background: white;
    border-radius: 5px;
    border: 1px solid;
    max-width: 400px;
    min-width: 100px;
}

.sprotty-popup &gt; div {
    margin: 10px;
}

.sprotty-popup-closed {
    display: none;
}
</style><g transform="scale(1) translate(0,0)"><g id="sprotty_3" transform="translate(117, 71)" opacity="1"><rect class="elknode" x="0" y="0" width="1852" height="2204" /><g id="sprotty_5" transform="translate(203.66666666666669, 551)" opacity="1"><rect class="elknode" x="0" y="0" width="200" height="60" /><text id="sprotty_6" class="elklabel" transform="translate(5, 22) translate(0, 0)" opacity="1">k8s_extensions_v1beta1_ingress.this</text></g><g id="sprotty_7" transform="translate(117, 682)" opacity="1"><rect class="elknode" x="0" y="0" width="1368" height="1131" /><g id="sprotty_9" transform="translate(117, 71)" opacity="1"><rect class="elknode" x="0" y="0" width="400" height="1010" /><g id="sprotty_11" transform="translate(100, 50)" opacity="1"><rect class="elknode" x="0" y="0" width="200" height="60" /><text id="sprotty_12" class="elklabel" transform="translate(5, 22) translate(0, 0)" opacity="1">k8s_apps_v1_deployment.this</text></g><g id="sprotty_13" transform="translate(100, 160)" opacity="1"><rect class="elknode" x="0" y="0" width="200" height="60" /><text id="sprotty_14" class="elklabel" transform="translate(5, 22) translate(0, 0)" opacity="1">k8s_core_v1_config_map.this</text></g><g id="sprotty_15" transform="translate(100, 270)" opacity="1"><rect class="elknode" x="0" y="0" width="200" height="60" /><text id="sprotty_16" class="elklabel" transform="translate(5, 22) translate(0, 0)" opacity="1">k8s_core_v1_service.this</text></g><g id="sprotty_17" transform="translate(100, 380)" opacity="1"><rect class="elknode" x="0" y="0" width="200" height="60" /><text id="sprotty_18" class="elklabel" transform="translate(5, 22) translate(0, 0)" opacity="1">k8s_core_v1_service_account.this</text></g><g id="sprotty_19" transform="translate(100, 490)" opacity="1"><rect class="elknode" x="0" y="0" width="200" height="60" /><text id="sprotty_20" class="elklabel" transform="translate(5, 22) translate(0, 0)" opacity="1">k8s_rbac_authorization_k8s_io_v1_cluster_role_binding.this</text></g><g id="sprotty_92" transform="translate(100, 600)" opacity="1"><rect class="elknode" x="0" y="0" width="200" height="60" /><text id="sprotty_93" class="elklabel" transform="translate(5, 22) translate(0, 0)" opacity="1">local.labels</text></g><g id="sprotty_59" transform="translate(-16, 50)" opacity="1"><rect class="elkport" x="0" y="0" width="16" height="9" /><text id="sprotty_60" class="elklabel" transform="translate(-1, 10) translate(0, 0)" opacity="1">annotations</text></g><g id="sprotty_62" transform="translate(-16, 110)" opacity="1"><rect class="elkport" x="0" y="0" width="16" height="9" /><text id="sprotty_63" class="elklabel" transform="translate(-1, 10) translate(0, 0)" opacity="1">dns_policy</text></g><g id="sprotty_65" transform="translate(-16, 170)" opacity="1"><rect class="elkport" x="0" y="0" width="16" height="9" /><text id="sprotty_66" class="elklabel" transform="translate(-1, 10) translate(0, 0)" opacity="1">gitlab_url</text></g><g id="sprotty_68" transform="translate(-16, 230)" opacity="1"><rect class="elkport" x="0" y="0" width="16" height="9" /><text id="sprotty_69" class="elklabel" transform="translate(-1, 10) translate(0, 0)" opacity="1">image</text></g><g id="sprotty_71" transform="translate(-16, 290)" opacity="1"><rect class="elkport" x="0" y="0" width="16" height="9" /><text id="sprotty_72" class="elklabel" transform="translate(-1, 10) translate(0, 0)" opacity="1">node_selector</text></g><g id="sprotty_74" transform="translate(-16, 350)" opacity="1"><rect class="elkport" x="0" y="0" width="16" height="9" /><text id="sprotty_75" class="elklabel" transform="translate(-1, 10) translate(0, 0)" opacity="1">priority_class_name</text></g><g id="sprotty_77" transform="translate(-16, 410)" opacity="1"><rect class="elkport" x="0" y="0" width="16" height="9" /><text id="sprotty_78" class="elklabel" transform="translate(-1, 10) translate(0, 0)" opacity="1">registration_token</text></g><g id="sprotty_80" transform="translate(-16, 470)" opacity="1"><rect class="elkport" x="0" y="0" width="16" height="9" /><text id="sprotty_81" class="elklabel" transform="translate(-1, 10) translate(0, 0)" opacity="1">replicas</text></g><g id="sprotty_83" transform="translate(-16, 530)" opacity="1"><rect class="elkport" x="0" y="0" width="16" height="9" /><text id="sprotty_84" class="elklabel" transform="translate(-1, 10) translate(0, 0)" opacity="1">restart_policy</text></g><g id="sprotty_86" transform="translate(-16, 590)" opacity="1"><rect class="elkport" x="0" y="0" width="16" height="9" /><text id="sprotty_87" class="elklabel" transform="translate(-1, 10) translate(0, 0)" opacity="1">scheduler_name</text></g><g id="sprotty_89" transform="translate(-16, 650)" opacity="1"><rect class="elkport" x="0" y="0" width="16" height="9" /><text id="sprotty_90" class="elklabel" transform="translate(-1, 10) translate(0, 0)" opacity="1">termination_grace_period_seconds</text></g><g id="sprotty_95" transform="translate(-16, 710)" opacity="1"><rect class="elkport" x="0" y="0" width="16" height="9" /><text id="sprotty_96" class="elklabel" transform="translate(-1, 10) translate(0, 0)" opacity="1">namespace</text></g><g id="sprotty_101" transform="translate(-16, 770)" opacity="1"><rect class="elkport" x="0" y="0" width="16" height="9" /><text id="sprotty_102" class="elklabel" transform="translate(-1, 10) translate(0, 0)" opacity="1">port</text></g><g id="sprotty_104" transform="translate(-16, 830)" opacity="1"><rect class="elkport" x="0" y="0" width="16" height="9" /><text id="sprotty_105" class="elklabel" transform="translate(-1, 10) translate(0, 0)" opacity="1">service_type</text></g><g id="sprotty_107" transform="translate(-16, 890)" opacity="1"><rect class="elkport" x="0" y="0" width="16" height="9" /><text id="sprotty_108" class="elklabel" transform="translate(-1, 10) translate(0, 0)" opacity="1">session_affinity</text></g><g id="sprotty_113" transform="translate(-16, 950)" opacity="1"><rect class="elkport" x="0" y="0" width="16" height="9" /><text id="sprotty_114" class="elklabel" transform="translate(-1, 10) translate(0, 0)" opacity="1">name</text></g><g id="sprotty_116" transform="translate(400, 50)" opacity="1"><rect class="elkport" x="0" y="0" width="16" height="9" /><text id="sprotty_117" class="elklabel" transform="translate(17, 10) translate(0, 0)" opacity="1">cluster_ip</text></g><g id="sprotty_119" transform="translate(400, 110)" opacity="1"><rect class="elkport" x="0" y="0" width="16" height="9" /><text id="sprotty_120" class="elklabel" transform="translate(17, 10) translate(0, 0)" opacity="1">deployment_uid</text></g><g id="sprotty_122" transform="translate(400, 170)" opacity="1"><rect class="elkport" x="0" y="0" width="16" height="9" /><text id="sprotty_123" class="elklabel" transform="translate(17, 10) translate(0, 0)" opacity="1">name</text></g><g id="sprotty_125" transform="translate(400, 230)" opacity="1"><rect class="elkport" x="0" y="0" width="16" height="9" /><text id="sprotty_126" class="elklabel" transform="translate(17, 10) translate(0, 0)" opacity="1">port</text></g><text id="sprotty_10" class="elklabel" transform="translate(0, -21) translate(0, 0)" opacity="1">gitlab-runner</text></g><g id="sprotty_21" transform="translate(601, 71)" opacity="1"><rect class="elknode" x="0" y="0" width="650" height="590" /><g id="sprotty_23" transform="translate(100, 50)" opacity="1"><rect class="elknode" x="0" y="0" width="200" height="60" /><text id="sprotty_24" class="elklabel" transform="translate(5, 22) translate(0, 0)" opacity="1">k8s_apps_v1_stateful_set.gitlab</text></g><g id="sprotty_25" transform="translate(350, 50)" opacity="1"><rect class="elknode" x="0" y="0" width="200" height="60" /><text id="sprotty_26" class="elklabel" transform="translate(5, 22) translate(0, 0)" opacity="1">k8s_core_v1_service.gitlab</text></g><g id="sprotty_27" transform="translate(100, 160)" opacity="1"><rect class="elknode" x="0" y="0" width="200" height="60" /><text id="sprotty_28" class="elklabel" transform="translate(5, 22) translate(0, 0)" opacity="1">k8s_core_v1_service_account.gitlab</text></g><g id="sprotty_29" transform="translate(350, 160)" opacity="1"><rect class="elknode" x="0" y="0" width="200" height="60" /><text id="sprotty_30" class="elklabel" transform="translate(5, 22) translate(0, 0)" opacity="1">k8s_policy_v1beta1_pod_disruption_budget.this</text></g><g id="sprotty_31" transform="translate(100, 270)" opacity="1"><rect class="elknode" x="0" y="0" width="200" height="60" /><text id="sprotty_32" class="elklabel" transform="translate(5, 22) translate(0, 0)" opacity="1">k8s_rbac_authorization_k8s_io_v1_cluster_role.gitlab</text></g><g id="sprotty_33" transform="translate(350, 270)" opacity="1"><rect class="elknode" x="0" y="0" width="200" height="60" /><text id="sprotty_34" class="elklabel" transform="translate(5, 22) translate(0, 0)" opacity="1">k8s_rbac_authorization_k8s_io_v1_cluster_role_binding.gitlab</text></g><g id="sprotty_140" transform="translate(100, 380)" opacity="1"><rect class="elknode" x="0" y="0" width="200" height="60" /><text id="sprotty_141" class="elklabel" transform="translate(5, 22) translate(0, 0)" opacity="1">local.gitlab_omnibus_config</text></g><g id="sprotty_128" transform="translate(650, 50)" opacity="1"><rect class="elkport" x="0" y="0" width="16" height="9" /><text id="sprotty_129" class="elklabel" transform="translate(17, 10) translate(0, 0)" opacity="1">gitlab_external_url</text></g><g id="sprotty_132" transform="translate(650, 110)" opacity="1"><rect class="elkport" x="0" y="0" width="16" height="9" /><text id="sprotty_133" class="elklabel" transform="translate(17, 10) translate(0, 0)" opacity="1">gitlab_runners_registration_token</text></g><g id="sprotty_143" transform="translate(-16, 50)" opacity="1"><rect class="elkport" x="0" y="0" width="16" height="9" /><text id="sprotty_144" class="elklabel" transform="translate(-1, 10) translate(0, 0)" opacity="1">auto_devops_domain</text></g><g id="sprotty_146" transform="translate(-16, 110)" opacity="1"><rect class="elkport" x="0" y="0" width="16" height="9" /><text id="sprotty_147" class="elklabel" transform="translate(-1, 10) translate(0, 0)" opacity="1">gitlab_root_password</text></g><g id="sprotty_149" transform="translate(-16, 170)" opacity="1"><rect class="elkport" x="0" y="0" width="16" height="9" /><text id="sprotty_150" class="elklabel" transform="translate(-1, 10) translate(0, 0)" opacity="1">gitlab_runners_registration_token</text></g><g id="sprotty_155" transform="translate(-16, 230)" opacity="1"><rect class="elkport" x="0" y="0" width="16" height="9" /><text id="sprotty_156" class="elklabel" transform="translate(-1, 10) translate(0, 0)" opacity="1">storage</text></g><g id="sprotty_158" transform="translate(-16, 290)" opacity="1"><rect class="elkport" x="0" y="0" width="16" height="9" /><text id="sprotty_159" class="elklabel" transform="translate(-1, 10) translate(0, 0)" opacity="1">storage_class_name</text></g><g id="sprotty_161" transform="translate(-16, 350)" opacity="1"><rect class="elkport" x="0" y="0" width="16" height="9" /><text id="sprotty_162" class="elklabel" transform="translate(-1, 10) translate(0, 0)" opacity="1">volume_claim_template_name</text></g><g id="sprotty_174" transform="translate(-16, 410)" opacity="1"><rect class="elkport" x="0" y="0" width="16" height="9" /><text id="sprotty_175" class="elklabel" transform="translate(-1, 10) translate(0, 0)" opacity="1">gitlab_external_url</text></g><g id="sprotty_177" transform="translate(-16, 470)" opacity="1"><rect class="elkport" x="0" y="0" width="16" height="9" /><text id="sprotty_178" class="elklabel" transform="translate(-1, 10) translate(0, 0)" opacity="1">mattermost_external_url</text></g><g id="sprotty_180" transform="translate(-16, 530)" opacity="1"><rect class="elkport" x="0" y="0" width="16" height="9" /><text id="sprotty_181" class="elklabel" transform="translate(-1, 10) translate(0, 0)" opacity="1">registry_external_url</text></g><g id="sprotty_189" transform="translate(650, 170)" opacity="1"><rect class="elkport" x="0" y="0" width="16" height="9" /><text id="sprotty_190" class="elklabel" transform="translate(17, 10) translate(0, 0)" opacity="1">statefulset_uid</text></g><text id="sprotty_22" class="elklabel" transform="translate(0, -21) translate(0, 0)" opacity="1">gitlab</text></g><g id="sprotty_135" transform="translate(-16, 50)" opacity="1"><rect class="elkport" x="0" y="0" width="16" height="9" /><text id="sprotty_136" class="elklabel" transform="translate(-1, 10) translate(0, 0)" opacity="1">gitlab_runner_replicas</text></g><g id="sprotty_203" transform="translate(1368, 50)" opacity="1"><rect class="elkport" x="0" y="0" width="16" height="9" /><text id="sprotty_204" class="elklabel" transform="translate(17, 10) translate(0, 0)" opacity="1">mattermost_external_url</text></g><text id="sprotty_8" class="elklabel" transform="translate(0, -21) translate(0, 0)" opacity="1">gitlab</text></g><g id="sprotty_35" transform="translate(137, 71)" opacity="1"><rect class="elknode" x="0" y="0" width="400" height="380" /><g id="sprotty_37" transform="translate(100, 50)" opacity="1"><rect class="elknode" x="0" y="0" width="200" height="60" /><text id="sprotty_38" class="elklabel" transform="translate(5, 22) translate(0, 0)" opacity="1">k8s_rbac_authorization_k8s_io_v1_cluster_role.this</text></g><g id="sprotty_39" transform="translate(100, 160)" opacity="1"><rect class="elknode" x="0" y="0" width="200" height="60" /><text id="sprotty_40" class="elklabel" transform="translate(5, 22) translate(0, 0)" opacity="1">k8s_rbac_authorization_k8s_io_v1_role.this</text></g><g id="sprotty_41" transform="translate(100, 270)" opacity="1"><rect class="elknode" x="0" y="0" width="200" height="60" /><text id="sprotty_42" class="elklabel" transform="translate(5, 22) translate(0, 0)" opacity="1">k8s_rbac_authorization_k8s_io_v1_role_binding.this</text></g><g id="sprotty_234" transform="translate(-16, 282.75)" opacity="1"><rect class="elkport" x="0" y="0" width="16" height="9" /><text id="sprotty_235" class="elklabel" transform="translate(-1, 10) translate(0, 0)" opacity="1">annotations_prefix</text></g><g id="sprotty_250" transform="translate(-16, 185.5)" opacity="1"><rect class="elkport" x="0" y="0" width="16" height="9" /><text id="sprotty_251" class="elklabel" transform="translate(-1, 10) translate(0, 0)" opacity="1">node_port_http</text></g><g id="sprotty_253" transform="translate(-16, 88.25)" opacity="1"><rect class="elkport" x="0" y="0" width="16" height="9" /><text id="sprotty_254" class="elklabel" transform="translate(-1, 10) translate(0, 0)" opacity="1">node_port_https</text></g><g id="sprotty_269" transform="translate(400, 282.75)" opacity="1"><rect class="elkport" x="0" y="0" width="16" height="9" /><text id="sprotty_270" class="elklabel" transform="translate(17, 10) translate(0, 0)" opacity="1">annotations_prefix</text></g><g id="sprotty_275" transform="translate(400, 185.5)" opacity="1"><rect class="elkport" x="0" y="0" width="16" height="9" /><text id="sprotty_276" class="elklabel" transform="translate(17, 10) translate(0, 0)" opacity="1">node_port_http</text></g><g id="sprotty_278" transform="translate(400, 88.25)" opacity="1"><rect class="elkport" x="0" y="0" width="16" height="9" /><text id="sprotty_279" class="elklabel" transform="translate(17, 10) translate(0, 0)" opacity="1">node_port_https</text></g><text id="sprotty_36" class="elklabel" transform="translate(0, -21) translate(0, 0)" opacity="1">ingress-controller</text></g><g id="sprotty_43" transform="translate(1552, 682)" opacity="1"><rect class="elknode" x="0" y="0" width="200" height="60" /><text id="sprotty_44" class="elklabel" transform="translate(0, -21) translate(0, 0)" opacity="1">nfs-server</text></g><g id="sprotty_45" transform="translate(337, 1884)" opacity="1"><rect class="elknode" x="0" y="0" width="400" height="270" /><g id="sprotty_47" transform="translate(100, 50)" opacity="1"><rect class="elknode" x="0" y="0" width="200" height="60" /><text id="sprotty_48" class="elklabel" transform="translate(5, 22) translate(0, 0)" opacity="1">k8s_core_v1_persistent_volume.this</text></g><g id="sprotty_49" transform="translate(100, 160)" opacity="1"><rect class="elknode" x="0" y="0" width="200" height="60" /><text id="sprotty_50" class="elklabel" transform="translate(5, 22) translate(0, 0)" opacity="1">k8s_core_v1_persistent_volume_claim.this</text></g><g id="sprotty_224" transform="translate(400, 50)" opacity="1"><rect class="elkport" x="0" y="0" width="16" height="9" /><text id="sprotty_225" class="elklabel" transform="translate(17, 10) translate(0, 0)" opacity="1">storage</text></g><g id="sprotty_227" transform="translate(400, 110)" opacity="1"><rect class="elkport" x="0" y="0" width="16" height="9" /><text id="sprotty_228" class="elklabel" transform="translate(17, 10) translate(0, 0)" opacity="1">storage_class_name</text></g><g id="sprotty_302" transform="translate(-16, 50)" opacity="1"><rect class="elkport" x="0" y="0" width="16" height="9" /><text id="sprotty_303" class="elklabel" transform="translate(-1, 10) translate(0, 0)" opacity="1">count</text></g><g id="sprotty_305" transform="translate(-16, 110)" opacity="1"><rect class="elkport" x="0" y="0" width="16" height="9" /><text id="sprotty_306" class="elklabel" transform="translate(-1, 10) translate(0, 0)" opacity="1">mount_options</text></g><g id="sprotty_309" transform="translate(-16, 170)" opacity="1"><rect class="elkport" x="0" y="0" width="16" height="9" /><text id="sprotty_310" class="elklabel" transform="translate(-1, 10) translate(0, 0)" opacity="1">nfs_server</text></g><g id="sprotty_314" transform="translate(400, 170)" opacity="1"><rect class="elkport" x="0" y="0" width="16" height="9" /><text id="sprotty_315" class="elklabel" transform="translate(17, 10) translate(0, 0)" opacity="1">count</text></g><text id="sprotty_46" class="elklabel" transform="translate(0, -21) translate(0, 0)" opacity="1">storage</text></g><g id="sprotty_320" transform="translate(100, 1968.5)" opacity="1"><rect class="elknode" x="0" y="0" width="200" height="60" /><text id="sprotty_321" class="elklabel" transform="translate(5, 22) translate(0, 0)" opacity="1">local.mount_options</text></g><g id="sprotty_51" transform="translate(-16, 586.5)" opacity="1"><rect class="elkport" x="0" y="0" width="16" height="9" /><text id="sprotty_52" class="elklabel" transform="translate(-1, 10) translate(0, 0)" opacity="1">ingress_host</text></g><g id="sprotty_54" transform="translate(-16, 526.5)" opacity="1"><rect class="elkport" x="0" y="0" width="16" height="9" /><text id="sprotty_55" class="elklabel" transform="translate(-1, 10) translate(0, 0)" opacity="1">name</text></g><g id="sprotty_206" transform="translate(-16, 661)" opacity="1"><rect class="elkport" x="0" y="0" width="16" height="9" /><text id="sprotty_207" class="elklabel" transform="translate(-1, 10) translate(0, 0)" opacity="1">auto_devops_domain</text></g><g id="sprotty_210" transform="translate(-16, 256.5)" opacity="1"><rect class="elkport" x="0" y="0" width="16" height="9" /><text id="sprotty_211" class="elklabel" transform="translate(-1, 10) translate(0, 0)" opacity="1">ingress_node_port_http</text></g><g id="sprotty_213" transform="translate(-16, 721)" opacity="1"><rect class="elkport" x="0" y="0" width="16" height="9" /><text id="sprotty_214" class="elklabel" transform="translate(-1, 10) translate(0, 0)" opacity="1">gitlab_root_password</text></g><g id="sprotty_216" transform="translate(-16, 781)" opacity="1"><rect class="elkport" x="0" y="0" width="16" height="9" /><text id="sprotty_217" class="elklabel" transform="translate(-1, 10) translate(0, 0)" opacity="1">gitlab_runners_registration_token</text></g><g id="sprotty_284" transform="translate(-16, 159.25)" opacity="1"><rect class="elkport" x="0" y="0" width="16" height="9" /><text id="sprotty_285" class="elklabel" transform="translate(-1, 10) translate(0, 0)" opacity="1">ingress_node_port_https</text></g><g id="sprotty_325" transform="translate(1852, 576.5)" opacity="1"><rect class="elkport" x="0" y="0" width="16" height="9" /><text id="sprotty_326" class="elklabel" transform="translate(17, 10) translate(0, 0)" opacity="1">urls</text></g><text id="sprotty_4" class="elklabel" transform="translate(0, -21) translate(0, 0)" opacity="1">examples/gitlab</text><g id="sprotty_53" class="sprotty-edge" opacity="1"><path class="elkedge" d="M 0,591 L 203.66666666666669,591" /><path class="edge arrow" d="M 0,0 L 8,-3 L 8,3 Z" transform="rotate(180 203.66666666666669 591) translate(203.66666666666669 591)" /></g><g id="sprotty_56" class="sprotty-edge" opacity="1"><path class="elkedge" d="M 0,531 L 110,531 L 110,571 L 203.66666666666669,571" /><path class="edge arrow" d="M 0,0 L 8,-3 L 8,3 Z" transform="rotate(180 203.66666666666669 571) translate(203.66666666666669 571)" /></g><g id="sprotty_57" class="sprotty-edge" opacity="1"><path class="elkedge" d="M 434,913 L 434,863" /><path class="edge arrow" d="M 0,0 L 8,-3 L 8,3 Z" transform="rotate(90 434 863) translate(434 863)" /></g><g id="sprotty_58" class="sprotty-edge" opacity="1"><path class="elkedge" d="M 434,1243 L 434,863" /><path class="edge arrow" d="M 0,0 L 8,-3 L 8,3 Z" transform="rotate(90 434 863) translate(434 863)" /></g><g id="sprotty_61" class="sprotty-edge" opacity="1"><path class="elkedge" d="M 234,808.4807692307693 L 334,820.7403846153846" /><path class="edge arrow" d="M 0,0 L 8,-3 L 8,3 Z" transform="rotate(-173.01063484366153 334 820.7403846153846) translate(334 820.7403846153846)" /></g><g id="sprotty_64" class="sprotty-edge" opacity="1"><path class="elkedge" d="M 234,866.1730769230769 L 334,849.5865384615385" /><path class="edge arrow" d="M 0,0 L 8,-3 L 8,3 Z" transform="rotate(170.58235285466571 334 849.5865384615385) translate(334 849.5865384615385)" /></g><g id="sprotty_67" class="sprotty-edge" opacity="1"><path class="elkedge" d="M 234,923.8653846153846 L 367.968253968254,863" /><path class="edge arrow" d="M 0,0 L 8,-3 L 8,3 Z" transform="rotate(155.5664230096372 367.968253968254 863) translate(367.968253968254 863)" /></g><g id="sprotty_70" class="sprotty-edge" opacity="1"><path class="elkedge" d="M 232.05825242718447,983 L 393.6116504854369,863" /><path class="edge arrow" d="M 0,0 L 8,-3 L 8,3 Z" transform="rotate(143.39546107211746 393.6116504854369 863) translate(393.6116504854369 863)" /></g><g id="sprotty_73" class="sprotty-edge" opacity="1"><path class="elkedge" d="M 230.36363636363637,1043 L 404.9090909090909,863" /><path class="edge arrow" d="M 0,0 L 8,-3 L 8,3 Z" transform="rotate(134.11859600341785 404.9090909090909 863) translate(404.9090909090909 863)" /></g><g id="sprotty_76" class="sprotty-edge" opacity="1"><path class="elkedge" d="M 229.40983606557376,1103 L 411.26775956284155,863" /><path class="edge arrow" d="M 0,0 L 8,-3 L 8,3 Z" transform="rotate(127.15271423731083 411.26775956284155 863) translate(411.26775956284155 863)" /></g><g id="sprotty_79" class="sprotty-edge" opacity="1"><path class="elkedge" d="M 228.7982062780269,1163 L 415.3452914798206,863" /><path class="edge arrow" d="M 0,0 L 8,-3 L 8,3 Z" transform="rotate(121.8743247375575 415.3452914798206 863) translate(415.3452914798206 863)" /></g><g id="sprotty_82" class="sprotty-edge" opacity="1"><path class="elkedge" d="M 228.37262357414448,1223 L 418.1825095057034,863" /><path class="edge arrow" d="M 0,0 L 8,-3 L 8,3 Z" transform="rotate(117.80042566034118 418.1825095057034 863) translate(418.1825095057034 863)" /></g><g id="sprotty_85" class="sprotty-edge" opacity="1"><path class="elkedge" d="M 228.05940594059405,1283 L 420.27062706270624,863" /><path class="edge arrow" d="M 0,0 L 8,-3 L 8,3 Z" transform="rotate(114.59100050152601 420.27062706270624 863) translate(420.27062706270624 863)" /></g><g id="sprotty_88" class="sprotty-edge" opacity="1"><path class="elkedge" d="M 227.8192419825073,1343 L 421.87172011661806,863" /><path class="edge arrow" d="M 0,0 L 8,-3 L 8,3 Z" transform="rotate(112.01230148180703 421.87172011661806 863) translate(421.87172011661806 863)" /></g><g id="sprotty_91" class="sprotty-edge" opacity="1"><path class="elkedge" d="M 227.62924281984334,1403 L 423.13838120104435,863" /><path class="edge arrow" d="M 0,0 L 8,-3 L 8,3 Z" transform="rotate(109.90298942454936 423.13838120104435 863) translate(423.13838120104435 863)" /></g><g id="sprotty_94" class="sprotty-edge" opacity="1"><path class="elkedge" d="M 434,1353 L 434,973" /><path class="edge arrow" d="M 0,0 L 8,-3 L 8,3 Z" transform="rotate(90 434 973) translate(434 973)" /></g><g id="sprotty_97" class="sprotty-edge" opacity="1"><path class="elkedge" d="M 227.78455672068637,1463 L 422.1029551954242,973" /><path class="edge arrow" d="M 0,0 L 8,-3 L 8,3 Z" transform="rotate(111.63170058143356 422.1029551954242 973) translate(422.1029551954242 973)" /></g><g id="sprotty_98" class="sprotty-edge" opacity="1"><path class="elkedge" d="M 434,1353 L 434,1083" /><path class="edge arrow" d="M 0,0 L 8,-3 L 8,3 Z" transform="rotate(90 434 1083) translate(434 1083)" /></g><g id="sprotty_99" class="sprotty-edge" opacity="1"><path class="elkedge" d="M 229.81262729124236,812 L 408.5824847250509,1023" /><path class="edge arrow" d="M 0,0 L 8,-3 L 8,3 Z" transform="rotate(-130.27295566323374 408.5824847250509 1023) translate(408.5824847250509 1023)" /></g><g id="sprotty_100" class="sprotty-edge" opacity="1"><path class="elkedge" d="M 228.2581423401689,1463 L 418.94571773220747,1083" /><path class="edge arrow" d="M 0,0 L 8,-3 L 8,3 Z" transform="rotate(116.64792833168704 418.94571773220747 1083) translate(418.94571773220747 1083)" /></g><g id="sprotty_103" class="sprotty-edge" opacity="1"><path class="elkedge" d="M 227.97260273972603,1523 L 420.8493150684932,1083" /><path class="edge arrow" d="M 0,0 L 8,-3 L 8,3 Z" transform="rotate(113.67053848472048 420.8493150684932 1083) translate(420.8493150684932 1083)" /></g><g id="sprotty_106" class="sprotty-edge" opacity="1"><path class="elkedge" d="M 227.7511693171188,1583 L 422.3255378858746,1083" /><path class="edge arrow" d="M 0,0 L 8,-3 L 8,3 Z" transform="rotate(111.26343675623956 422.3255378858746 1083) translate(422.3255378858746 1083)" /></g><g id="sprotty_109" class="sprotty-edge" opacity="1"><path class="elkedge" d="M 227.5744322960471,1643 L 423.5037846930194,1083" /><path class="edge arrow" d="M 0,0 L 8,-3 L 8,3 Z" transform="rotate(109.2836065616953 423.5037846930194 1083) translate(423.5037846930194 1083)" /></g><g id="sprotty_110" class="sprotty-edge" opacity="1"><path class="elkedge" d="M 434,1353 L 434,1193" /><path class="edge arrow" d="M 0,0 L 8,-3 L 8,3 Z" transform="rotate(90 434 1193) translate(434 1193)" /></g><g id="sprotty_111" class="sprotty-edge" opacity="1"><path class="elkedge" d="M 229.07389162561577,1463 L 413.5073891625616,1193" /><path class="edge arrow" d="M 0,0 L 8,-3 L 8,3 Z" transform="rotate(124.33647612215326 413.5073891625616 1193) translate(413.5073891625616 1193)" /></g><g id="sprotty_112" class="sprotty-edge" opacity="1"><path class="elkedge" d="M 434,1193 L 434,1243" /><path class="edge arrow" d="M 0,0 L 8,-3 L 8,3 Z" transform="rotate(-90 434 1243) translate(434 1243)" /></g><g id="sprotty_115" class="sprotty-edge" opacity="1"><path class="elkedge" d="M 228.884437596302,1703 L 414.7704160246533,1413" /><path class="edge arrow" d="M 0,0 L 8,-3 L 8,3 Z" transform="rotate(122.65930829224037 414.7704160246533 1413) translate(414.7704160246533 1413)" /></g><g id="sprotty_118" class="sprotty-edge" opacity="1"><path class="elkedge" d="M 459.4175152749491,1023 L 638.1873727087577,812" /><path class="edge arrow" d="M 0,0 L 8,-3 L 8,3 Z" transform="rotate(130.27295566323377 638.1873727087577 812) translate(638.1873727087577 812)" /></g><g id="sprotty_121" class="sprotty-edge" opacity="1"><path class="elkedge" d="M 534,849.5865384615385 L 634,866.1730769230769" /><path class="edge arrow" d="M 0,0 L 8,-3 L 8,3 Z" transform="rotate(-170.58235285466571 634 866.1730769230769) translate(634 866.1730769230769)" /></g><g id="sprotty_124" class="sprotty-edge" opacity="1"><path class="elkedge" d="M 483.7211155378486,1023 L 634.5418326693227,932" /><path class="edge arrow" d="M 0,0 L 8,-3 L 8,3 Z" transform="rotate(148.89467282183267 634.5418326693227 932) translate(634.5418326693227 932)" /></g><g id="sprotty_127" class="sprotty-edge" opacity="1"><path class="elkedge" d="M 529.2671755725191,1023 L 634,990.0192307692307" /><path class="edge arrow" d="M 0,0 L 8,-3 L 8,3 Z" transform="rotate(162.52058471831904 634 990.0192307692307) translate(634 990.0192307692307)" /></g><g id="sprotty_130" class="sprotty-edge" opacity="1"><path class="elkedge" d="M 1368,808.3347826086956 L 234,926.6652173913044" /><path class="edge arrow" d="M 0,0 L 8,-3 L 8,3 Z" transform="rotate(-5.957131114708217 234 926.6652173913044) translate(234 926.6652173913044)" /></g><g id="sprotty_131" class="sprotty-edge" opacity="1"><path class="elkedge" d="M 226,1707.5 L 226,1707.5" /><path class="edge arrow" d="M 0,0 L 8,-3 L 8,3 Z" transform="rotate(0 226 1707.5) translate(226 1707.5)" /></g><g id="sprotty_134" class="sprotty-edge" opacity="1"><path class="elkedge" d="M 1368,869.5869565217391 L 234,1165.413043478261" /><path class="edge arrow" d="M 0,0 L 8,-3 L 8,3 Z" transform="rotate(-14.620873988631663 234 1165.413043478261) translate(234 1165.413043478261)" /></g><g id="sprotty_137" class="sprotty-edge" opacity="1"><path class="elkedge" d="M 110.07230142566192,741 L 224.92769857433808,1223" /><path class="edge arrow" d="M 0,0 L 8,-3 L 8,3 Z" transform="rotate(-103.4030146000928 224.92769857433808 1223) translate(224.92769857433808 1223)" /></g><g id="sprotty_138" class="sprotty-edge" opacity="1"><path class="elkedge" d="M 1068,833 L 1018,833" /><path class="edge arrow" d="M 0,0 L 8,-3 L 8,3 Z" transform="rotate(0 1018 833) translate(1018 833)" /></g><g id="sprotty_139" class="sprotty-edge" opacity="1"><path class="elkedge" d="M 1133.909090909091,1023 L 952.0909090909091,863" /><path class="edge arrow" d="M 0,0 L 8,-3 L 8,3 Z" transform="rotate(41.34777721969366 952.0909090909091 863) translate(952.0909090909091 863)" /></g><g id="sprotty_142" class="sprotty-edge" opacity="1"><path class="elkedge" d="M 918,1133 L 918,863" /><path class="edge arrow" d="M 0,0 L 8,-3 L 8,3 Z" transform="rotate(90 918 863) translate(918 863)" /></g><g id="sprotty_145" class="sprotty-edge" opacity="1"><path class="elkedge" d="M 718,808.4807692307693 L 818,820.7403846153846" /><path class="edge arrow" d="M 0,0 L 8,-3 L 8,3 Z" transform="rotate(-173.01063484366153 818 820.7403846153846) translate(818 820.7403846153846)" /></g><g id="sprotty_148" class="sprotty-edge" opacity="1"><path class="elkedge" d="M 718,866.1730769230769 L 818,849.5865384615385" /><path class="edge arrow" d="M 0,0 L 8,-3 L 8,3 Z" transform="rotate(170.58235285466571 818 849.5865384615385) translate(818 849.5865384615385)" /></g><g id="sprotty_151" class="sprotty-edge" opacity="1"><path class="elkedge" d="M 718,923.8653846153846 L 851.968253968254,863" /><path class="edge arrow" d="M 0,0 L 8,-3 L 8,3 Z" transform="rotate(155.5664230096372 851.968253968254 863) translate(851.968253968254 863)" /></g><g id="sprotty_152" class="sprotty-edge" opacity="1"><path class="elkedge" d="M 234,985.7138728323699 L 818,855.3265895953757" /><path class="edge arrow" d="M 0,0 L 8,-3 L 8,3 Z" transform="rotate(167.41422082930717 818 855.3265895953757) translate(818 855.3265895953757)" /></g><g id="sprotty_153" class="sprotty-edge" opacity="1"><path class="elkedge" d="M 234,1045.0202312138729 L 821.2167832167833,863" /><path class="edge arrow" d="M 0,0 L 8,-3 L 8,3 Z" transform="rotate(162.77807458427247 821.2167832167833 863) translate(821.2167832167833 863)" /></g><g id="sprotty_154" class="sprotty-edge" opacity="1"><path class="elkedge" d="M 233.893536121673,1223 L 865.3764258555133,863" /><path class="edge arrow" d="M 0,0 L 8,-3 L 8,3 Z" transform="rotate(150.31311036292394 865.3764258555133 863) translate(865.3764258555133 863)" /></g><g id="sprotty_157" class="sprotty-edge" opacity="1"><path class="elkedge" d="M 716.0582524271845,983 L 877.6116504854369,863" /><path class="edge arrow" d="M 0,0 L 8,-3 L 8,3 Z" transform="rotate(143.39546107211748 877.6116504854369 863) translate(877.6116504854369 863)" /></g><g id="sprotty_160" class="sprotty-edge" opacity="1"><path class="elkedge" d="M 714.3636363636364,1043 L 888.9090909090909,863" /><path class="edge arrow" d="M 0,0 L 8,-3 L 8,3 Z" transform="rotate(134.11859600341785 888.9090909090909 863) translate(888.9090909090909 863)" /></g><g id="sprotty_163" class="sprotty-edge" opacity="1"><path class="elkedge" d="M 713.4098360655738,1103 L 895.2677595628415,863" /><path class="edge arrow" d="M 0,0 L 8,-3 L 8,3 Z" transform="rotate(127.1527142373108 895.2677595628415 863) translate(895.2677595628415 863)" /></g><g id="sprotty_164" class="sprotty-edge" opacity="1"><path class="elkedge" d="M 474.0363636363636,1353 L 1127.9636363636364,863" /><path class="edge arrow" d="M 0,0 L 8,-3 L 8,3 Z" transform="rotate(143.15508960922824 1127.9636363636364 863) translate(1127.9636363636364 863)" /></g><g id="sprotty_165" class="sprotty-edge" opacity="1"><path class="elkedge" d="M 234,807.7165605095541 L 1068,830.2929936305733" /><path class="edge arrow" d="M 0,0 L 8,-3 L 8,3 Z" transform="rotate(-178.4493782843585 1068 830.2929936305733) translate(1068 830.2929936305733)" /></g><g id="sprotty_166" class="sprotty-edge" opacity="1"><path class="elkedge" d="M 232.68085106382978,1463 L 1123.4609929078015,863" /><path class="edge arrow" d="M 0,0 L 8,-3 L 8,3 Z" transform="rotate(146.0370974909521 1123.4609929078015 863) translate(1123.4609929078015 863)" /></g><g id="sprotty_167" class="sprotty-edge" opacity="1"><path class="elkedge" d="M 232.1036717062635,1523 L 1127.3088552915767,863" /><path class="edge arrow" d="M 0,0 L 8,-3 L 8,3 Z" transform="rotate(143.60009051660003 1127.3088552915767 863) translate(1127.3088552915767 863)" /></g><g id="sprotty_168" class="sprotty-edge" opacity="1"><path class="elkedge" d="M 230.07325049051667,1703 L 890.8449967298889,973" /><path class="edge arrow" d="M 0,0 L 8,-3 L 8,3 Z" transform="rotate(132.15034787929653 890.8449967298889 973) translate(890.8449967298889 973)" /></g><g id="sprotty_169" class="sprotty-edge" opacity="1"><path class="elkedge" d="M 231.93708293612963,1463 L 878.419447092469,973" /><path class="edge arrow" d="M 0,0 L 8,-3 L 8,3 Z" transform="rotate(142.83976575154398 878.419447092469 973) translate(878.419447092469 973)" /></g><g id="sprotty_170" class="sprotty-edge" opacity="1"><path class="elkedge" d="M 484.0454545454545,1353 L 1117.9545454545455,973" /><path class="edge arrow" d="M 0,0 L 8,-3 L 8,3 Z" transform="rotate(149.05920770698262 1117.9545454545455 973) translate(1117.9545454545455 973)" /></g><g id="sprotty_171" class="sprotty-edge" opacity="1"><path class="elkedge" d="M 230.75783040488923,1703 L 886.2811306340718,1083" /><path class="edge arrow" d="M 0,0 L 8,-3 L 8,3 Z" transform="rotate(136.5952740379911 886.2811306340718 1083) translate(886.2811306340718 1083)" /></g><g id="sprotty_172" class="sprotty-edge" opacity="1"><path class="elkedge" d="M 986.1818181818182,973 L 1099.8181818181818,1023" /><path class="edge arrow" d="M 0,0 L 8,-3 L 8,3 Z" transform="rotate(-156.25050550713323 1099.8181818181818 1023) translate(1099.8181818181818 1023)" /></g><g id="sprotty_173" class="sprotty-edge" opacity="1"><path class="elkedge" d="M 1018,1053 L 1068,1053" /><path class="edge arrow" d="M 0,0 L 8,-3 L 8,3 Z" transform="rotate(180 1068 1053) translate(1068 1053)" /></g><g id="sprotty_176" class="sprotty-edge" opacity="1"><path class="elkedge" d="M 718,1167.326923076923 L 818,1165.1634615384614" /><path class="edge arrow" d="M 0,0 L 8,-3 L 8,3 Z" transform="rotate(178.76062118941383 818 1165.1634615384614) translate(818 1165.1634615384614)" /></g><g id="sprotty_179" class="sprotty-edge" opacity="1"><path class="elkedge" d="M 718,1225.0192307692307 L 821.2558139534883,1193" /><path class="edge arrow" d="M 0,0 L 8,-3 L 8,3 Z" transform="rotate(162.7715377530896 821.2558139534883 1193) translate(821.2558139534883 1193)" /></g><g id="sprotty_182" class="sprotty-edge" opacity="1"><path class="elkedge" d="M 717.5180722891566,1283 L 867.8795180722891,1193" /><path class="edge arrow" d="M 0,0 L 8,-3 L 8,3 Z" transform="rotate(149.09704547500692 867.8795180722891 1193) translate(867.8795180722891 1193)" /></g><g id="sprotty_183" class="sprotty-edge" opacity="1"><path class="elkedge" d="M 228.884437596302,1703 L 414.7704160246533,1413" /><path class="edge arrow" d="M 0,0 L 8,-3 L 8,3 Z" transform="rotate(122.65930829224037 414.7704160246533 1413) translate(414.7704160246533 1413)" /></g><g id="sprotty_184" class="sprotty-edge" opacity="1"><path class="elkedge" d="M 1068,828.1520912547528 L 650,807.8878326996198" /><path class="edge arrow" d="M 0,0 L 8,-3 L 8,3 Z" transform="rotate(2.775474139983013 650 807.8878326996198) translate(650 807.8878326996198)" /></g><g id="sprotty_185" class="sprotty-edge" opacity="1"><path class="elkedge" d="M 718,1163.1756756756756 L 1368,811.8243243243244" /><path class="edge arrow" d="M 0,0 L 8,-3 L 8,3 Z" transform="rotate(151.60698057861703 1368 811.8243243243244) translate(1368 811.8243243243244)" /></g><g id="sprotty_186" class="sprotty-edge" opacity="1"><path class="elkedge" d="M 718,926.7792792792793 L 1368,868.2207207207207" /><path class="edge arrow" d="M 0,0 L 8,-3 L 8,3 Z" transform="rotate(174.8521151758637 1368 868.2207207207207) translate(1368 868.2207207207207)" /></g><g id="sprotty_187" class="sprotty-edge" opacity="1"><path class="elkedge" d="M 1068,850.9657794676806 L 650,926.0627376425855" /><path class="edge arrow" d="M 0,0 L 8,-3 L 8,3 Z" transform="rotate(-10.184980996119616 650 926.0627376425855) translate(650 926.0627376425855)" /></g><g id="sprotty_188" class="sprotty-edge" opacity="1"><path class="elkedge" d="M 1068,862.3726235741444 L 650,985.1501901140684" /><path class="edge arrow" d="M 0,0 L 8,-3 L 8,3 Z" transform="rotate(-16.368897457960998 650 985.1501901140684) translate(650 985.1501901140684)" /></g><g id="sprotty_191" class="sprotty-edge" opacity="1"><path class="elkedge" d="M 1018,853.6331877729258 L 1368,925.849344978166" /><path class="edge arrow" d="M 0,0 L 8,-3 L 8,3 Z" transform="rotate(-168.34165965728076 1368 925.849344978166) translate(1368 925.849344978166)" /></g><g id="sprotty_192" class="sprotty-edge" opacity="1"><path class="elkedge" d="M 226,807.5 L 226,807.5" /><path class="edge arrow" d="M 0,0 L 8,-3 L 8,3 Z" transform="rotate(0 226 807.5) translate(226 807.5)" /></g><g id="sprotty_193" class="sprotty-edge" opacity="1"><path class="elkedge" d="M 710,807.5 L 710,807.5" /><path class="edge arrow" d="M 0,0 L 8,-3 L 8,3 Z" transform="rotate(0 710 807.5) translate(710 807.5)" /></g><g id="sprotty_194" class="sprotty-edge" opacity="1"><path class="elkedge" d="M 710,1167.5 L 710,1167.5" /><path class="edge arrow" d="M 0,0 L 8,-3 L 8,3 Z" transform="rotate(0 710 1167.5) translate(710 1167.5)" /></g><g id="sprotty_195" class="sprotty-edge" opacity="1"><path class="elkedge" d="M 710,867.5 L 710,867.5" /><path class="edge arrow" d="M 0,0 L 8,-3 L 8,3 Z" transform="rotate(0 710 867.5) translate(710 867.5)" /></g><g id="sprotty_196" class="sprotty-edge" opacity="1"><path class="elkedge" d="M 710,927.5 L 710,927.5" /><path class="edge arrow" d="M 0,0 L 8,-3 L 8,3 Z" transform="rotate(0 710 927.5) translate(710 927.5)" /></g><g id="sprotty_197" class="sprotty-edge" opacity="1"><path class="elkedge" d="M 710,1227.5 L 710,1227.5" /><path class="edge arrow" d="M 0,0 L 8,-3 L 8,3 Z" transform="rotate(0 710 1227.5) translate(710 1227.5)" /></g><g id="sprotty_198" class="sprotty-edge" opacity="1"><path class="elkedge" d="M 226,1707.5 L 226,1707.5" /><path class="edge arrow" d="M 0,0 L 8,-3 L 8,3 Z" transform="rotate(0 226 1707.5) translate(226 1707.5)" /></g><g id="sprotty_199" class="sprotty-edge" opacity="1"><path class="elkedge" d="M 710,1287.5 L 710,1287.5" /><path class="edge arrow" d="M 0,0 L 8,-3 L 8,3 Z" transform="rotate(0 710 1287.5) translate(710 1287.5)" /></g><g id="sprotty_200" class="sprotty-edge" opacity="1"><path class="elkedge" d="M 710,987.5 L 710,987.5" /><path class="edge arrow" d="M 0,0 L 8,-3 L 8,3 Z" transform="rotate(0 710 987.5) translate(710 987.5)" /></g><g id="sprotty_201" class="sprotty-edge" opacity="1"><path class="elkedge" d="M 710,1047.5 L 710,1047.5" /><path class="edge arrow" d="M 0,0 L 8,-3 L 8,3 Z" transform="rotate(0 710 1047.5) translate(710 1047.5)" /></g><g id="sprotty_202" class="sprotty-edge" opacity="1"><path class="elkedge" d="M 718,1163.1756756756756 L 1368,811.8243243243244" /><path class="edge arrow" d="M 0,0 L 8,-3 L 8,3 Z" transform="rotate(151.60698057861703 1368 811.8243243243244) translate(1368 811.8243243243244)" /></g><g id="sprotty_205" class="sprotty-edge" opacity="1"><path class="elkedge" d="M 717.1761710794298,1223 L 1485.8238289205703,741" /><path class="edge arrow" d="M 0,0 L 8,-3 L 8,3 Z" transform="rotate(147.9091890385362 1485.8238289205703 741) translate(1485.8238289205703 741)" /></g><g id="sprotty_208" class="sprotty-edge" opacity="1"><path class="elkedge" d="M 0,667.0821727019498 L 702,805.9178272980502" /><path class="edge arrow" d="M 0,0 L 8,-3 L 8,3 Z" transform="rotate(-168.81288787271725 702 805.9178272980502) translate(702 805.9178272980502)" /></g><g id="sprotty_209" class="sprotty-edge" opacity="1"><path class="elkedge" d="M 324.4509803921569,611 L 706.8823529411765,1163" /><path class="edge arrow" d="M 0,0 L 8,-3 L 8,3 Z" transform="rotate(-124.71462202505252 706.8823529411765 1163) translate(706.8823529411765 1163)" /></g><g id="sprotty_212" class="sprotty-edge" opacity="1"><path class="elkedge" d="M -4.435741864313293,265.5 L 706.4357418643133,1163" /><path class="edge arrow" d="M 0,0 L 8,-3 L 8,3 Z" transform="rotate(-128.38124362308122 706.4357418643133 1163) translate(706.4357418643133 1163)" /></g><g id="sprotty_215" class="sprotty-edge" opacity="1"><path class="elkedge" d="M 0,727.0821727019498 L 702,865.9178272980502" /><path class="edge arrow" d="M 0,0 L 8,-3 L 8,3 Z" transform="rotate(-168.81288787271725 702 865.9178272980502) translate(702 865.9178272980502)" /></g><g id="sprotty_218" class="sprotty-edge" opacity="1"><path class="elkedge" d="M 0,787.0821727019498 L 702,925.9178272980502" /><path class="edge arrow" d="M 0,0 L 8,-3 L 8,3 Z" transform="rotate(-168.81288787271725 702 925.9178272980502) translate(702 925.9178272980502)" /></g><g id="sprotty_219" class="sprotty-edge" opacity="1"><path class="elkedge" d="M 322.52204176334106,611 L 707.1716937354988,1223" /><path class="edge arrow" d="M 0,0 L 8,-3 L 8,3 Z" transform="rotate(-122.14987505777788 707.1716937354988 1223) translate(707.1716937354988 1223)" /></g><g id="sprotty_220" class="sprotty-edge" opacity="1"><path class="elkedge" d="M -4.657009829280911,265.5 L 706.6570098292809,1223" /><path class="edge arrow" d="M 0,0 L 8,-3 L 8,3 Z" transform="rotate(-126.60816625434073 706.6570098292809 1223) translate(706.6570098292809 1223)" /></g><g id="sprotty_221" class="sprotty-edge" opacity="1"><path class="elkedge" d="M -7.104972375690608,535.5 L 225.1049723756906,1703" /><path class="edge arrow" d="M 0,0 L 8,-3 L 8,3 Z" transform="rotate(-101.24904431467434 225.1049723756906 1703) translate(225.1049723756906 1703)" /></g><g id="sprotty_222" class="sprotty-edge" opacity="1"><path class="elkedge" d="M 320.92073602264685,611 L 707.4118895966029,1283" /><path class="edge arrow" d="M 0,0 L 8,-3 L 8,3 Z" transform="rotate(-119.90474228342447 707.4118895966029 1283) translate(707.4118895966029 1283)" /></g><g id="sprotty_223" class="sprotty-edge" opacity="1"><path class="elkedge" d="M -4.852411105698977,265.5 L 706.8524111056989,1283" /><path class="edge arrow" d="M 0,0 L 8,-3 L 8,3 Z" transform="rotate(-124.971411554668 706.8524111056989 1283) translate(706.8524111056989 1283)" /></g><g id="sprotty_226" class="sprotty-edge" opacity="1"><path class="elkedge" d="M 744.8343848580441,1934 L 710.1656151419559,992" /><path class="edge arrow" d="M 0,0 L 8,-3 L 8,3 Z" transform="rotate(87.89227380677812 710.1656151419559 992) translate(710.1656151419559 992)" /></g><g id="sprotty_229" class="sprotty-edge" opacity="1"><path class="elkedge" d="M 744.8343848580441,1994 L 710.1656151419559,1052" /><path class="edge arrow" d="M 0,0 L 8,-3 L 8,3 Z" transform="rotate(87.89227380677812 710.1656151419559 1052) translate(710.1656151419559 1052)" /></g><g id="sprotty_230" class="sprotty-edge" opacity="1"><path class="elkedge" d="M 434,913 L 434,863" /><path class="edge arrow" d="M 0,0 L 8,-3 L 8,3 Z" transform="rotate(90 434 863) translate(434 863)" /></g><g id="sprotty_231" class="sprotty-edge" opacity="1"><path class="elkedge" d="M 434,1243 L 434,863" /><path class="edge arrow" d="M 0,0 L 8,-3 L 8,3 Z" transform="rotate(90 434 863) translate(434 863)" /></g><g id="sprotty_232" class="sprotty-edge" opacity="1"><path class="elkedge" d="M 343.2987012987013,401 L 427.7012987012987,803" /><path class="edge arrow" d="M 0,0 L 8,-3 L 8,3 Z" transform="rotate(-101.85740352630155 427.7012987012987 803) translate(427.7012987012987 803)" /></g><g id="sprotty_233" class="sprotty-edge" opacity="1"><path class="elkedge" d="M 234,808.4807692307693 L 334,820.7403846153846" /><path class="edge arrow" d="M 0,0 L 8,-3 L 8,3 Z" transform="rotate(-173.01063484366153 334 820.7403846153846) translate(334 820.7403846153846)" /></g><g id="sprotty_236" class="sprotty-edge" opacity="1"><path class="elkedge" d="M 131.89099526066352,362.75 L 414.7266982622433,803" /><path class="edge arrow" d="M 0,0 L 8,-3 L 8,3 Z" transform="rotate(-122.71844903852855 414.7266982622433 803) translate(414.7266982622433 803)" /></g><g id="sprotty_237" class="sprotty-edge" opacity="1"><path class="elkedge" d="M 234,866.1730769230769 L 334,849.5865384615385" /><path class="edge arrow" d="M 0,0 L 8,-3 L 8,3 Z" transform="rotate(170.58235285466571 334 849.5865384615385) translate(334 849.5865384615385)" /></g><g id="sprotty_238" class="sprotty-edge" opacity="1"><path class="elkedge" d="M 232.05825242718447,983 L 393.6116504854369,863" /><path class="edge arrow" d="M 0,0 L 8,-3 L 8,3 Z" transform="rotate(143.39546107211746 393.6116504854369 863) translate(393.6116504854369 863)" /></g><g id="sprotty_239" class="sprotty-edge" opacity="1"><path class="elkedge" d="M 230.36363636363637,1043 L 404.9090909090909,863" /><path class="edge arrow" d="M 0,0 L 8,-3 L 8,3 Z" transform="rotate(134.11859600341785 404.9090909090909 863) translate(404.9090909090909 863)" /></g><g id="sprotty_240" class="sprotty-edge" opacity="1"><path class="elkedge" d="M 229.40983606557376,1103 L 411.26775956284155,863" /><path class="edge arrow" d="M 0,0 L 8,-3 L 8,3 Z" transform="rotate(127.15271423731083 411.26775956284155 863) translate(411.26775956284155 863)" /></g><g id="sprotty_241" class="sprotty-edge" opacity="1"><path class="elkedge" d="M 228.37262357414448,1223 L 418.1825095057034,863" /><path class="edge arrow" d="M 0,0 L 8,-3 L 8,3 Z" transform="rotate(117.80042566034118 418.1825095057034 863) translate(418.1825095057034 863)" /></g><g id="sprotty_242" class="sprotty-edge" opacity="1"><path class="elkedge" d="M 228.05940594059405,1283 L 420.27062706270624,863" /><path class="edge arrow" d="M 0,0 L 8,-3 L 8,3 Z" transform="rotate(114.59100050152601 420.27062706270624 863) translate(420.27062706270624 863)" /></g><g id="sprotty_243" class="sprotty-edge" opacity="1"><path class="elkedge" d="M 227.8192419825073,1343 L 421.87172011661806,863" /><path class="edge arrow" d="M 0,0 L 8,-3 L 8,3 Z" transform="rotate(112.01230148180703 421.87172011661806 863) translate(421.87172011661806 863)" /></g><g id="sprotty_244" class="sprotty-edge" opacity="1"><path class="elkedge" d="M 227.62924281984334,1403 L 423.13838120104435,863" /><path class="edge arrow" d="M 0,0 L 8,-3 L 8,3 Z" transform="rotate(109.90298942454936 423.13838120104435 863) translate(423.13838120104435 863)" /></g><g id="sprotty_245" class="sprotty-edge" opacity="1"><path class="elkedge" d="M 434,1353 L 434,973" /><path class="edge arrow" d="M 0,0 L 8,-3 L 8,3 Z" transform="rotate(90 434 973) translate(434 973)" /></g><g id="sprotty_246" class="sprotty-edge" opacity="1"><path class="elkedge" d="M 227.78455672068637,1463 L 422.1029551954242,973" /><path class="edge arrow" d="M 0,0 L 8,-3 L 8,3 Z" transform="rotate(111.63170058143356 422.1029551954242 973) translate(422.1029551954242 973)" /></g><g id="sprotty_247" class="sprotty-edge" opacity="1"><path class="elkedge" d="M 434,1353 L 434,1083" /><path class="edge arrow" d="M 0,0 L 8,-3 L 8,3 Z" transform="rotate(90 434 1083) translate(434 1083)" /></g><g id="sprotty_248" class="sprotty-edge" opacity="1"><path class="elkedge" d="M 229.81262729124236,812 L 408.5824847250509,1023" /><path class="edge arrow" d="M 0,0 L 8,-3 L 8,3 Z" transform="rotate(-130.27295566323374 408.5824847250509 1023) translate(408.5824847250509 1023)" /></g><g id="sprotty_249" class="sprotty-edge" opacity="1"><path class="elkedge" d="M 228.2581423401689,1463 L 418.94571773220747,1083" /><path class="edge arrow" d="M 0,0 L 8,-3 L 8,3 Z" transform="rotate(116.64792833168704 418.94571773220747 1083) translate(418.94571773220747 1083)" /></g><g id="sprotty_252" class="sprotty-edge" opacity="1"><path class="elkedge" d="M 130.73295454545453,265.5 L 422.4469696969697,1023" /><path class="edge arrow" d="M 0,0 L 8,-3 L 8,3 Z" transform="rotate(-111.06174576702414 422.4469696969697 1023) translate(422.4469696969697 1023)" /></g><g id="sprotty_255" class="sprotty-edge" opacity="1"><path class="elkedge" d="M 130.54343547933652,168.25 L 423.71043013775653,1023" /><path class="edge arrow" d="M 0,0 L 8,-3 L 8,3 Z" transform="rotate(-108.93123321447126 423.71043013775653 1023) translate(423.71043013775653 1023)" /></g><g id="sprotty_256" class="sprotty-edge" opacity="1"><path class="elkedge" d="M 227.97260273972603,1523 L 420.8493150684932,1083" /><path class="edge arrow" d="M 0,0 L 8,-3 L 8,3 Z" transform="rotate(113.67053848472048 420.8493150684932 1083) translate(420.8493150684932 1083)" /></g><g id="sprotty_257" class="sprotty-edge" opacity="1"><path class="elkedge" d="M 227.7511693171188,1583 L 422.3255378858746,1083" /><path class="edge arrow" d="M 0,0 L 8,-3 L 8,3 Z" transform="rotate(111.26343675623956 422.3255378858746 1083) translate(422.3255378858746 1083)" /></g><g id="sprotty_258" class="sprotty-edge" opacity="1"><path class="elkedge" d="M 227.5744322960471,1643 L 423.5037846930194,1083" /><path class="edge arrow" d="M 0,0 L 8,-3 L 8,3 Z" transform="rotate(109.2836065616953 423.5037846930194 1083) translate(423.5037846930194 1083)" /></g><g id="sprotty_259" class="sprotty-edge" opacity="1"><path class="elkedge" d="M 434,1353 L 434,1193" /><path class="edge arrow" d="M 0,0 L 8,-3 L 8,3 Z" transform="rotate(90 434 1193) translate(434 1193)" /></g><g id="sprotty_260" class="sprotty-edge" opacity="1"><path class="elkedge" d="M 229.07389162561577,1463 L 413.5073891625616,1193" /><path class="edge arrow" d="M 0,0 L 8,-3 L 8,3 Z" transform="rotate(124.33647612215326 413.5073891625616 1193) translate(413.5073891625616 1193)" /></g><g id="sprotty_261" class="sprotty-edge" opacity="1"><path class="elkedge" d="M 431.637987012987,1353 L 339.362012987013,181" /><path class="edge arrow" d="M 0,0 L 8,-3 L 8,3 Z" transform="rotate(85.4981744431923 339.362012987013 181) translate(339.362012987013 181)" /></g><g id="sprotty_262" class="sprotty-edge" opacity="1"><path class="elkedge" d="M 434,1193 L 434,1243" /><path class="edge arrow" d="M 0,0 L 8,-3 L 8,3 Z" transform="rotate(-90 434 1243) translate(434 1243)" /></g><g id="sprotty_263" class="sprotty-edge" opacity="1"><path class="elkedge" d="M 339.59358288770056,181 L 431.40641711229944,1243" /><path class="edge arrow" d="M 0,0 L 8,-3 L 8,3 Z" transform="rotate(-94.94109284074109 431.40641711229944 1243) translate(431.40641711229944 1243)" /></g><g id="sprotty_264" class="sprotty-edge" opacity="1"><path class="elkedge" d="M 431.40641711229944,1353 L 339.59358288770056,291" /><path class="edge arrow" d="M 0,0 L 8,-3 L 8,3 Z" transform="rotate(85.05890715925891 339.59358288770056 291) translate(339.59358288770056 291)" /></g><g id="sprotty_265" class="sprotty-edge" opacity="1"><path class="elkedge" d="M 226.41400745959385,1463 L 334.2399502693742,291" /><path class="edge arrow" d="M 0,0 L 8,-3 L 8,3 Z" transform="rotate(95.25650912277906 334.2399502693742 291) translate(334.2399502693742 291)" /></g><g id="sprotty_266" class="sprotty-edge" opacity="1"><path class="elkedge" d="M 430.32575757575756,1133 L 340.67424242424244,401" /><path class="edge arrow" d="M 0,0 L 8,-3 L 8,3 Z" transform="rotate(83.01748801638675 340.67424242424244 401) translate(340.67424242424244 401)" /></g><g id="sprotty_267" class="sprotty-edge" opacity="1"><path class="elkedge" d="M 337,291 L 337,341" /><path class="edge arrow" d="M 0,0 L 8,-3 L 8,3 Z" transform="rotate(-90 337 341) translate(337 341)" /></g><g id="sprotty_268" class="sprotty-edge" opacity="1"><path class="elkedge" d="M 228.884437596302,1703 L 414.7704160246533,1413" /><path class="edge arrow" d="M 0,0 L 8,-3 L 8,3 Z" transform="rotate(122.65930829224037 414.7704160246533 1413) translate(414.7704160246533 1413)" /></g><g id="sprotty_271" class="sprotty-edge" opacity="1"><path class="elkedge" d="M 121,358.25 L 110,358.25 L 110,501 L 564,501 L 564,358.25 L 553,358.25" /><path class="edge arrow" d="M 0,0 L 8,-3 L 8,3 Z" transform="rotate(0 553 358.25) translate(553 358.25)" /></g><g id="sprotty_272" class="sprotty-edge" opacity="1"><path class="elkedge" d="M 459.4175152749491,1023 L 638.1873727087577,812" /><path class="edge arrow" d="M 0,0 L 8,-3 L 8,3 Z" transform="rotate(130.27295566323377 638.1873727087577 812) translate(638.1873727087577 812)" /></g><g id="sprotty_273" class="sprotty-edge" opacity="1"><path class="elkedge" d="M 534,849.5865384615385 L 634,866.1730769230769" /><path class="edge arrow" d="M 0,0 L 8,-3 L 8,3 Z" transform="rotate(-170.58235285466571 634 866.1730769230769) translate(634 866.1730769230769)" /></g><g id="sprotty_274" class="sprotty-edge" opacity="1"><path class="elkedge" d="M 483.7211155378486,1023 L 634.5418326693227,932" /><path class="edge arrow" d="M 0,0 L 8,-3 L 8,3 Z" transform="rotate(148.89467282183267 634.5418326693227 932) translate(634.5418326693227 932)" /></g><g id="sprotty_277" class="sprotty-edge" opacity="1"><path class="elkedge" d="M 438.2045454545455,1023 L 544.3693181818182,265.5" /><path class="edge arrow" d="M 0,0 L 8,-3 L 8,3 Z" transform="rotate(97.9781245155921 544.3693181818182 265.5) translate(544.3693181818182 265.5)" /></g><g id="sprotty_280" class="sprotty-edge" opacity="1"><path class="elkedge" d="M 437.74472870396403,1023 L 544.4382906944054,168.25" /><path class="edge arrow" d="M 0,0 L 8,-3 L 8,3 Z" transform="rotate(97.11510358437907 544.4382906944054 168.25) translate(544.4382906944054 168.25)" /></g><g id="sprotty_281" class="sprotty-edge" opacity="1"><path class="elkedge" d="M 529.2671755725191,1023 L 634,990.0192307692307" /><path class="edge arrow" d="M 0,0 L 8,-3 L 8,3 Z" transform="rotate(162.52058471831904 634 990.0192307692307) translate(634 990.0192307692307)" /></g><g id="sprotty_282" class="sprotty-edge" opacity="1"><path class="elkedge" d="M -7.104972375690608,535.5 L 225.1049723756906,1703" /><path class="edge arrow" d="M 0,0 L 8,-3 L 8,3 Z" transform="rotate(-101.24904431467434 225.1049723756906 1703) translate(225.1049723756906 1703)" /></g><g id="sprotty_283" class="sprotty-edge" opacity="1"><path class="elkedge" d="M 0,261 L 121,261" /><path class="edge arrow" d="M 0,0 L 8,-3 L 8,3 Z" transform="rotate(180 121 261) translate(121 261)" /></g><g id="sprotty_286" class="sprotty-edge" opacity="1"><path class="elkedge" d="M 0,163.75 L 121,163.75" /><path class="edge arrow" d="M 0,0 L 8,-3 L 8,3 Z" transform="rotate(180 121 163.75) translate(121 163.75)" /></g><g id="sprotty_287" class="sprotty-edge" opacity="1"><path class="elkedge" d="M 434,1353 L 434,863" /><path class="edge arrow" d="M 0,0 L 8,-3 L 8,3 Z" transform="rotate(90 434 863) translate(434 863)" /></g><g id="sprotty_288" class="sprotty-edge" opacity="1"><path class="elkedge" d="M 232.05825242718447,983 L 393.6116504854369,863" /><path class="edge arrow" d="M 0,0 L 8,-3 L 8,3 Z" transform="rotate(143.39546107211746 393.6116504854369 863) translate(393.6116504854369 863)" /></g><g id="sprotty_289" class="sprotty-edge" opacity="1"><path class="elkedge" d="M 227.47517730496455,1463 L 424.16548463356975,863" /><path class="edge arrow" d="M 0,0 L 8,-3 L 8,3 Z" transform="rotate(108.15003254253322 424.16548463356975 863) translate(424.16548463356975 863)" /></g><g id="sprotty_290" class="sprotty-edge" opacity="1"><path class="elkedge" d="M 230.36363636363637,1043 L 404.9090909090909,863" /><path class="edge arrow" d="M 0,0 L 8,-3 L 8,3 Z" transform="rotate(134.11859600341785 404.9090909090909 863) translate(404.9090909090909 863)" /></g><g id="sprotty_291" class="sprotty-edge" opacity="1"><path class="elkedge" d="M 228.37262357414448,1223 L 418.1825095057034,863" /><path class="edge arrow" d="M 0,0 L 8,-3 L 8,3 Z" transform="rotate(117.80042566034118 418.1825095057034 863) translate(418.1825095057034 863)" /></g><g id="sprotty_292" class="sprotty-edge" opacity="1"><path class="elkedge" d="M 434,1353 L 434,1083" /><path class="edge arrow" d="M 0,0 L 8,-3 L 8,3 Z" transform="rotate(90 434 1083) translate(434 1083)" /></g><g id="sprotty_293" class="sprotty-edge" opacity="1"><path class="elkedge" d="M 229.81262729124236,812 L 408.5824847250509,1023" /><path class="edge arrow" d="M 0,0 L 8,-3 L 8,3 Z" transform="rotate(-130.27295566323374 408.5824847250509 1023) translate(408.5824847250509 1023)" /></g><g id="sprotty_294" class="sprotty-edge" opacity="1"><path class="elkedge" d="M 228.2581423401689,1463 L 418.94571773220747,1083" /><path class="edge arrow" d="M 0,0 L 8,-3 L 8,3 Z" transform="rotate(116.64792833168704 418.94571773220747 1083) translate(418.94571773220747 1083)" /></g><g id="sprotty_295" class="sprotty-edge" opacity="1"><path class="elkedge" d="M 227.97260273972603,1523 L 420.8493150684932,1083" /><path class="edge arrow" d="M 0,0 L 8,-3 L 8,3 Z" transform="rotate(113.67053848472048 420.8493150684932 1083) translate(420.8493150684932 1083)" /></g><g id="sprotty_296" class="sprotty-edge" opacity="1"><path class="elkedge" d="M 228.884437596302,1703 L 414.7704160246533,1413" /><path class="edge arrow" d="M 0,0 L 8,-3 L 8,3 Z" transform="rotate(122.65930829224037 414.7704160246533 1413) translate(414.7704160246533 1413)" /></g><g id="sprotty_297" class="sprotty-edge" opacity="1"><path class="elkedge" d="M 459.4175152749491,1023 L 638.1873727087577,812" /><path class="edge arrow" d="M 0,0 L 8,-3 L 8,3 Z" transform="rotate(130.27295566323377 638.1873727087577 812) translate(638.1873727087577 812)" /></g><g id="sprotty_298" class="sprotty-edge" opacity="1"><path class="elkedge" d="M 534,849.5865384615385 L 634,866.1730769230769" /><path class="edge arrow" d="M 0,0 L 8,-3 L 8,3 Z" transform="rotate(-170.58235285466571 634 866.1730769230769) translate(634 866.1730769230769)" /></g><g id="sprotty_299" class="sprotty-edge" opacity="1"><path class="elkedge" d="M 483.7211155378486,1023 L 634.5418326693227,932" /><path class="edge arrow" d="M 0,0 L 8,-3 L 8,3 Z" transform="rotate(148.89467282183267 634.5418326693227 932) translate(634.5418326693227 932)" /></g><g id="sprotty_300" class="sprotty-edge" opacity="1"><path class="elkedge" d="M 529.2671755725191,1023 L 634,990.0192307692307" /><path class="edge arrow" d="M 0,0 L 8,-3 L 8,3 Z" transform="rotate(162.52058471831904 634 990.0192307692307) translate(634 990.0192307692307)" /></g><g id="sprotty_301" class="sprotty-edge" opacity="1"><path class="elkedge" d="M 227.21011673151753,812 L 528.9325551232166,1934" /><path class="edge arrow" d="M 0,0 L 8,-3 L 8,3 Z" transform="rotate(-105.05160823982384 528.9325551232166 1934) translate(528.9325551232166 1934)" /></g><g id="sprotty_304" class="sprotty-edge" opacity="1"><path class="elkedge" d="M 337,1939.4807692307693 L 437,1951.7403846153845" /><path class="edge arrow" d="M 0,0 L 8,-3 L 8,3 Z" transform="rotate(-173.0106348436616 437 1951.7403846153845) translate(437 1951.7403846153845)" /></g><g id="sprotty_307" class="sprotty-edge" opacity="1"><path class="elkedge" d="M 337,1997.173076923077 L 437,1980.5865384615386" /><path class="edge arrow" d="M 0,0 L 8,-3 L 8,3 Z" transform="rotate(170.58235285466577 437 1980.5865384615386) translate(437 1980.5865384615386)" /></g><g id="sprotty_308" class="sprotty-edge" opacity="1"><path class="elkedge" d="M 231.4561403508772,1712 L 500.62573099415204,1934" /><path class="edge arrow" d="M 0,0 L 8,-3 L 8,3 Z" transform="rotate(-140.48559123294805 500.62573099415204 1934) translate(500.62573099415204 1934)" /></g><g id="sprotty_311" class="sprotty-edge" opacity="1"><path class="elkedge" d="M 337,2054.8653846153848 L 470.968253968254,1994" /><path class="edge arrow" d="M 0,0 L 8,-3 L 8,3 Z" transform="rotate(155.56642300963713 470.968253968254 1994) translate(470.968253968254 1994)" /></g><g id="sprotty_312" class="sprotty-edge" opacity="1"><path class="elkedge" d="M 709.2027649769585,992 L 542.3149001536099,1934" /><path class="edge arrow" d="M 0,0 L 8,-3 L 8,3 Z" transform="rotate(-79.95353184520188 542.3149001536099 1934) translate(542.3149001536099 1934)" /></g><g id="sprotty_313" class="sprotty-edge" opacity="1"><path class="elkedge" d="M 537,1994 L 537,2044" /><path class="edge arrow" d="M 0,0 L 8,-3 L 8,3 Z" transform="rotate(-90 537 2044) translate(537 2044)" /></g><g id="sprotty_316" class="sprotty-edge" opacity="1"><path class="elkedge" d="M 637,2066.548076923077 L 737,2059.096153846154" /><path class="edge arrow" d="M 0,0 L 8,-3 L 8,3 Z" transform="rotate(175.73823961931814 737 2059.096153846154) translate(737 2059.096153846154)" /></g><g id="sprotty_317" class="sprotty-edge" opacity="1"><path class="elkedge" d="M 583.0516605166051,2044 L 738.0922509225093,1943" /><path class="edge arrow" d="M 0,0 L 8,-3 L 8,3 Z" transform="rotate(146.91807712723494 738.0922509225093 1943) translate(738.0922509225093 1943)" /></g><g id="sprotty_318" class="sprotty-edge" opacity="1"><path class="elkedge" d="M 619.6490066225165,2044 L 737,2001.4038461538462" /><path class="edge arrow" d="M 0,0 L 8,-3 L 8,3 Z" transform="rotate(160.05007635827792 737 2001.4038461538462) translate(737 2001.4038461538462)" /></g><g id="sprotty_319" class="sprotty-edge" opacity="1"><path class="elkedge" d="M 634,866.3461538461538 L 234,808.6538461538462" /><path class="edge arrow" d="M 0,0 L 8,-3 L 8,3 Z" transform="rotate(8.207216411918136 234 808.6538461538462) translate(234 808.6538461538462)" /></g><g id="sprotty_322" class="sprotty-edge" opacity="1"><path class="elkedge" d="M 300,1998.5 L 321,1998.5" /><path class="edge arrow" d="M 0,0 L 8,-3 L 8,3 Z" transform="rotate(180 321 1998.5) translate(321 1998.5)" /></g><g id="sprotty_323" class="sprotty-edge" opacity="1"><path class="elkedge" d="M -7.104972375690608,535.5 L 225.1049723756906,1703" /><path class="edge arrow" d="M 0,0 L 8,-3 L 8,3 Z" transform="rotate(-101.24904431467434 225.1049723756906 1703) translate(225.1049723756906 1703)" /></g><g id="sprotty_324" class="sprotty-edge" opacity="1"><path class="elkedge" d="M 640.8741007194244,812 L 330.12589928057554,2054" /><path class="edge arrow" d="M 0,0 L 8,-3 L 8,3 Z" transform="rotate(-75.95298057216426 330.12589928057554 2054) translate(330.12589928057554 2054)" /></g><g id="sprotty_327" class="sprotty-edge" opacity="1"><path class="elkedge" d="M 403.6666666666667,581 L 1852,581" /><path class="edge arrow" d="M 0,0 L 8,-3 L 8,3 Z" transform="rotate(180 1852 581) translate(1852 581)" /></g><g id="sprotty_328" class="sprotty-edge" opacity="1"><path class="elkedge" d="M 553,261 L 574,261 L 574,581 L 1852,581" /><path class="edge arrow" d="M 0,0 L 8,-3 L 8,3 Z" transform="rotate(180 1852 581) translate(1852 581)" /><g id="sprotty_328_j0" transform="translate(574, 581)" opacity="1"><circle class="elkjunction" r="2" /></g></g></g></g></svg>
