<svg id="sprotty_1" class="sprotty-graph sprotty" tabindex="1002" xmlns="http://www.w3.org/2000/svg" viewBox="0 0 647 471"><style>.elknode {
    stroke: #448;
    stroke-width: 2;
    fill: #ddf;
}

.elkport {
    stroke: #448;
    stroke-width: 1;
    fill: #66c;
}

.elkedge {
    fill: none;
    stroke: #224;
    stroke-width: 1;
}

.elkedge.arrow {
    fill: #336;
}

.elklabel {
    stroke-width: 0;
    stroke: #000;
    fill: #000;
    font-family: sans-serif;
    font-size: 10pt;
    dominant-baseline: hanging;
}

.elkjunction {
    stroke: none;
    fill: #224;
}

.selected &gt; rect {
    stroke-width: 3;
}

.mouseover {
    stroke: #88f;
}
/*
 * Copyright (C) 2017 TypeFox and others.
 *
 * Licensed under the Apache License, Version 2.0 (the &quot;License&quot;); you may not use this file except in compliance with the License.
 * You may obtain a copy of the License at http://www.apache.org/licenses/LICENSE-2.0
 */

.sprotty {
    padding: 0px;
    font-family: &quot;Helvetica Neue&quot;, Helvetica, Arial, sans-serif;
}

.sprotty-hidden {
    display: block;
    position: absolute;
    width: 0px;
    height: 0px;
}

.sprotty-popup {
    font-family: &quot;Helvetica Neue&quot;, Helvetica, Arial, sans-serif;
    position: absolute;
    background: white;
    border-radius: 5px;
    border: 1px solid;
    max-width: 400px;
    min-width: 100px;
}

.sprotty-popup &gt; div {
    margin: 10px;
}

.sprotty-popup-closed {
    display: none;
}
</style><g transform="scale(1) translate(0,0)"><g id="sprotty_3" transform="translate(117, 71)" opacity="1"><rect class="elknode" x="0" y="0" width="430" height="350" /><g id="sprotty_5" transform="translate(130, 144.5)" opacity="1"><rect class="elknode" x="0" y="0" width="200" height="60" /><text id="sprotty_6" class="elklabel" transform="translate(5, 22) translate(0, 0)" opacity="1">k8s_batch_v1_job.this</text></g><g id="sprotty_7" transform="translate(-16, 110)" opacity="1"><rect class="elkport" x="0" y="0" width="16" height="9" /><text id="sprotty_8" class="elklabel" transform="translate(-1, 10) translate(0, 0)" opacity="1">backoff_limit</text></g><g id="sprotty_10" transform="translate(-16, 170)" opacity="1"><rect class="elkport" x="0" y="0" width="16" height="9" /><text id="sprotty_11" class="elklabel" transform="translate(-1, 10) translate(0, 0)" opacity="1">command</text></g><g id="sprotty_13" transform="translate(-16, 230)" opacity="1"><rect class="elkport" x="0" y="0" width="16" height="9" /><text id="sprotty_14" class="elklabel" transform="translate(-1, 10) translate(0, 0)" opacity="1">image</text></g><g id="sprotty_16" transform="translate(-16, 290)" opacity="1"><rect class="elkport" x="0" y="0" width="16" height="9" /><text id="sprotty_17" class="elklabel" transform="translate(-1, 10) translate(0, 0)" opacity="1">name</text></g><g id="sprotty_19" transform="translate(-16, 50)" opacity="1"><rect class="elkport" x="0" y="0" width="16" height="9" /><text id="sprotty_20" class="elklabel" transform="translate(-1, 10) translate(0, 0)" opacity="1">restart_policy</text></g><text id="sprotty_4" class="elklabel" transform="translate(0, -21) translate(0, 0)" opacity="1">modules/kubernetes/job</text><g id="sprotty_9" class="sprotty-edge" opacity="1"><path class="elkedge" d="M 0,114.5 L 110,114.5 L 110,164.5 L 130,164.5" /><path class="edge arrow" d="M 0,0 L 8,-3 L 8,3 Z" transform="rotate(180 130 164.5) translate(130 164.5)" /></g><g id="sprotty_12" class="sprotty-edge" opacity="1"><path class="elkedge" d="M 0,174.5 L 130,174.5" /><path class="edge arrow" d="M 0,0 L 8,-3 L 8,3 Z" transform="rotate(180 130 174.5) translate(130 174.5)" /></g><g id="sprotty_15" class="sprotty-edge" opacity="1"><path class="elkedge" d="M 0,234.5 L 110,234.5 L 110,184.5 L 130,184.5" /><path class="edge arrow" d="M 0,0 L 8,-3 L 8,3 Z" transform="rotate(180 130 184.5) translate(130 184.5)" /></g><g id="sprotty_18" class="sprotty-edge" opacity="1"><path class="elkedge" d="M 0,294.5 L 120,294.5 L 120,194.5 L 130,194.5" /><path class="edge arrow" d="M 0,0 L 8,-3 L 8,3 Z" transform="rotate(180 130 194.5) translate(130 194.5)" /></g><g id="sprotty_21" class="sprotty-edge" opacity="1"><path class="elkedge" d="M 0,54.5 L 120,54.5 L 120,154.5 L 130,154.5" /><path class="edge arrow" d="M 0,0 L 8,-3 L 8,3 Z" transform="rotate(180 130 154.5) translate(130 154.5)" /></g></g></g></svg>
