<svg id="sprotty_1" class="sprotty-graph sprotty" tabindex="1002" xmlns="http://www.w3.org/2000/svg" viewBox="0 0 2334 1289.1428571428573"><style>.elknode {
    stroke: #448;
    stroke-width: 2;
    fill: #ddf;
}

.elkport {
    stroke: #448;
    stroke-width: 1;
    fill: #66c;
}

.elkedge {
    fill: none;
    stroke: #224;
    stroke-width: 1;
    pointer-events: stroke;
}

.elkedge:hover {
    stroke: #88f;
    stroke-width: 10;
}

.elkedge.arrow {
    fill: #336;
}

.elklabel {
    stroke-width: 0;
    stroke: #000;
    fill: #000;
    font-family: sans-serif;
    font-size: 10pt;
    dominant-baseline: hanging;
}

.elklabel:hover {
    font-size: 24pt;
}

.elkjunction {
    stroke: none;
    fill: #224;
}

.selected &gt; rect {
    stroke-width: 3;
}

.mouseover {
    stroke: #88f;
}
/*
 * Copyright (C) 2017 TypeFox and others.
 *
 * Licensed under the Apache License, Version 2.0 (the &quot;License&quot;); you may not use this file except in compliance with the License.
 * You may obtain a copy of the License at http://www.apache.org/licenses/LICENSE-2.0
 */

.sprotty {
    padding: 0px;
    font-family: &quot;Helvetica Neue&quot;, Helvetica, Arial, sans-serif;
}

.sprotty-hidden {
    display: block;
    position: absolute;
    width: 0px;
    height: 0px;
}

.sprotty-popup {
    font-family: &quot;Helvetica Neue&quot;, Helvetica, Arial, sans-serif;
    position: absolute;
    background: white;
    border-radius: 5px;
    border: 1px solid;
    max-width: 400px;
    min-width: 100px;
}

.sprotty-popup &gt; div {
    margin: 10px;
}

.sprotty-popup-closed {
    display: none;
}
</style><g transform="scale(1) translate(0,0)"><g id="sprotty_3" transform="translate(117, 71)" opacity="1"><rect class="elknode" x="0" y="0" rx="10" width="2100" height="1168.1428571428573" /><g id="sprotty_5" transform="translate(1800, 1056.9285714285716)" opacity="1"><rect class="elknode" x="0" y="0" rx="10" width="200" height="60" /><text id="sprotty_6" class="elklabel" transform="translate(5, 22) translate(0, 0)" opacity="1">k8s_apps_v1_deployment.this</text></g><g id="sprotty_7" transform="translate(550, 165.5)" opacity="1"><rect class="elknode" x="0" y="0" rx="10" width="200" height="60" /><text id="sprotty_8" class="elklabel" transform="translate(5, 22) translate(0, 0)" opacity="1">k8s_core_v1_config_map.this</text></g><g id="sprotty_9" transform="translate(550, 522.6428571428572)" opacity="1"><rect class="elknode" x="0" y="0" rx="10" width="200" height="60" /><text id="sprotty_10" class="elklabel" transform="translate(5, 22) translate(0, 0)" opacity="1">k8s_core_v1_service.this</text></g><g id="sprotty_11" transform="translate(550, 325.5)" opacity="1"><rect class="elknode" x="0" y="0" rx="10" width="200" height="60" /><text id="sprotty_12" class="elklabel" transform="translate(5, 22) translate(0, 0)" opacity="1">k8s_core_v1_service_account.this</text></g><g id="sprotty_13" transform="translate(950, 325.5)" opacity="1"><rect class="elknode" x="0" y="0" rx="10" width="200" height="60" /><text id="sprotty_14" class="elklabel" transform="translate(5, 22) translate(0, 0)" opacity="1">k8s_rbac_authorization_k8s_io_v1_cluster_role_binding.this</text></g><g id="sprotty_50" transform="translate(100, 335.5)" opacity="1"><rect class="elknode" x="0" y="0" rx="10" width="200" height="60" /><text id="sprotty_51" class="elklabel" transform="translate(5, 22) translate(0, 0)" opacity="1">local.labels</text></g><g id="sprotty_17" transform="translate(-16, 628.1428571428572)" opacity="1"><rect class="elkport" x="0" y="0" width="16" height="9" /><text id="sprotty_18" class="elklabel" transform="translate(-1, 10) translate(0, 0)" opacity="1">annotations</text></g><g id="sprotty_20" transform="translate(-16, 1108.1428571428573)" opacity="1"><rect class="elkport" x="0" y="0" width="16" height="9" /><text id="sprotty_21" class="elklabel" transform="translate(-1, 10) translate(0, 0)" opacity="1">dns_policy</text></g><g id="sprotty_23" transform="translate(-16, 50)" opacity="1"><rect class="elkport" x="0" y="0" width="16" height="9" /><text id="sprotty_24" class="elklabel" transform="translate(-1, 10) translate(0, 0)" opacity="1">gitlab_url</text></g><g id="sprotty_26" transform="translate(-16, 868.1428571428572)" opacity="1"><rect class="elkport" x="0" y="0" width="16" height="9" /><text id="sprotty_27" class="elklabel" transform="translate(-1, 10) translate(0, 0)" opacity="1">image</text></g><g id="sprotty_29" transform="translate(-16, 808.1428571428572)" opacity="1"><rect class="elkport" x="0" y="0" width="16" height="9" /><text id="sprotty_30" class="elklabel" transform="translate(-1, 10) translate(0, 0)" opacity="1">node_selector</text></g><g id="sprotty_32" transform="translate(-16, 748.1428571428572)" opacity="1"><rect class="elkport" x="0" y="0" width="16" height="9" /><text id="sprotty_33" class="elklabel" transform="translate(-1, 10) translate(0, 0)" opacity="1">priority_class_name</text></g><g id="sprotty_35" transform="translate(-16, 928.1428571428572)" opacity="1"><rect class="elkport" x="0" y="0" width="16" height="9" /><text id="sprotty_36" class="elklabel" transform="translate(-1, 10) translate(0, 0)" opacity="1">registration_token</text></g><g id="sprotty_38" transform="translate(-16, 110)" opacity="1"><rect class="elkport" x="0" y="0" width="16" height="9" /><text id="sprotty_39" class="elklabel" transform="translate(-1, 10) translate(0, 0)" opacity="1">replicas</text></g><g id="sprotty_41" transform="translate(-16, 1048.1428571428573)" opacity="1"><rect class="elkport" x="0" y="0" width="16" height="9" /><text id="sprotty_42" class="elklabel" transform="translate(-1, 10) translate(0, 0)" opacity="1">restart_policy</text></g><g id="sprotty_44" transform="translate(-16, 988.1428571428572)" opacity="1"><rect class="elkport" x="0" y="0" width="16" height="9" /><text id="sprotty_45" class="elklabel" transform="translate(-1, 10) translate(0, 0)" opacity="1">scheduler_name</text></g><g id="sprotty_47" transform="translate(-16, 688.1428571428572)" opacity="1"><rect class="elkport" x="0" y="0" width="16" height="9" /><text id="sprotty_48" class="elklabel" transform="translate(-1, 10) translate(0, 0)" opacity="1">termination_grace_period_seconds</text></g><g id="sprotty_53" transform="translate(-16, 181)" opacity="1"><rect class="elkport" x="0" y="0" width="16" height="9" /><text id="sprotty_54" class="elklabel" transform="translate(-1, 10) translate(0, 0)" opacity="1">namespace</text></g><g id="sprotty_59" transform="translate(-16, 441)" opacity="1"><rect class="elkport" x="0" y="0" width="16" height="9" /><text id="sprotty_60" class="elklabel" transform="translate(-1, 10) translate(0, 0)" opacity="1">port</text></g><g id="sprotty_62" transform="translate(-16, 501)" opacity="1"><rect class="elkport" x="0" y="0" width="16" height="9" /><text id="sprotty_63" class="elklabel" transform="translate(-1, 10) translate(0, 0)" opacity="1">service_type</text></g><g id="sprotty_65" transform="translate(-16, 561)" opacity="1"><rect class="elkport" x="0" y="0" width="16" height="9" /><text id="sprotty_66" class="elklabel" transform="translate(-1, 10) translate(0, 0)" opacity="1">session_affinity</text></g><g id="sprotty_71" transform="translate(-16, 361)" opacity="1"><rect class="elkport" x="0" y="0" width="16" height="9" /><text id="sprotty_72" class="elklabel" transform="translate(-1, 10) translate(0, 0)" opacity="1">name</text></g><g id="sprotty_74" transform="translate(2100, 488.1428571428572)" opacity="1"><rect class="elkport" x="0" y="0" width="16" height="9" /><text id="sprotty_75" class="elklabel" transform="translate(17, 10) translate(0, 0)" opacity="1">cluster_ip</text></g><g id="sprotty_77" transform="translate(2100, 1082.4285714285716)" opacity="1"><rect class="elkport" x="0" y="0" width="16" height="9" /><text id="sprotty_78" class="elklabel" transform="translate(17, 10) translate(0, 0)" opacity="1">deployment_uid</text></g><g id="sprotty_80" transform="translate(2100, 608.1428571428572)" opacity="1"><rect class="elkport" x="0" y="0" width="16" height="9" /><text id="sprotty_81" class="elklabel" transform="translate(17, 10) translate(0, 0)" opacity="1">name</text></g><g id="sprotty_83" transform="translate(2100, 548.1428571428572)" opacity="1"><rect class="elkport" x="0" y="0" width="16" height="9" /><text id="sprotty_84" class="elklabel" transform="translate(17, 10) translate(0, 0)" opacity="1">port</text></g><text id="sprotty_4" class="elklabel" transform="translate(0, -21) translate(0, 0)" opacity="1">modules/gitlab-runner</text><g id="sprotty_15" class="sprotty-edge" opacity="1"><path class="elkedge" d="M 750,195.5 L 1650,195.5 L 1650,1069.7857142857144 L 1800,1069.7857142857144" /><path class="edge arrow" d="M 0,0 L 8,-3 L 8,3 Z" transform="rotate(180 1800 1069.7857142857144) translate(1800 1069.7857142857144)" /></g><g id="sprotty_16" class="sprotty-edge" opacity="1"><path class="elkedge" d="M 1150,355.5 L 1600,355.5 L 1600,1074.0714285714287 L 1800,1074.0714285714287" /><path class="edge arrow" d="M 0,0 L 8,-3 L 8,3 Z" transform="rotate(180 1800 1074.0714285714287) translate(1800 1074.0714285714287)" /></g><g id="sprotty_19" class="sprotty-edge" opacity="1"><path class="elkedge" d="M 0,632.6428571428572 L 1550,632.6428571428572 L 1550,1078.357142857143 L 1800,1078.357142857143" /><path class="edge arrow" d="M 0,0 L 8,-3 L 8,3 Z" transform="rotate(180 1800 1078.357142857143) translate(1800 1078.357142857143)" /></g><g id="sprotty_22" class="sprotty-edge" opacity="1"><path class="elkedge" d="M 0,1112.6428571428573 L 1800,1112.6428571428573" /><path class="edge arrow" d="M 0,0 L 8,-3 L 8,3 Z" transform="rotate(180 1800 1112.6428571428573) translate(1800 1112.6428571428573)" /></g><g id="sprotty_25" class="sprotty-edge" opacity="1"><path class="elkedge" d="M 0,54.5 L 1750,54.5 L 1750,1061.2142857142858 L 1800,1061.2142857142858" /><path class="edge arrow" d="M 0,0 L 8,-3 L 8,3 Z" transform="rotate(180 1800 1061.2142857142858) translate(1800 1061.2142857142858)" /></g><g id="sprotty_28" class="sprotty-edge" opacity="1"><path class="elkedge" d="M 0,872.6428571428572 L 1350,872.6428571428572 L 1350,1095.5000000000002 L 1800,1095.5000000000002" /><path class="edge arrow" d="M 0,0 L 8,-3 L 8,3 Z" transform="rotate(180 1800 1095.5000000000002) translate(1800 1095.5000000000002)" /></g><g id="sprotty_31" class="sprotty-edge" opacity="1"><path class="elkedge" d="M 0,812.6428571428572 L 1400,812.6428571428572 L 1400,1091.2142857142858 L 1800,1091.2142857142858" /><path class="edge arrow" d="M 0,0 L 8,-3 L 8,3 Z" transform="rotate(180 1800 1091.2142857142858) translate(1800 1091.2142857142858)" /></g><g id="sprotty_34" class="sprotty-edge" opacity="1"><path class="elkedge" d="M 0,752.6428571428572 L 1450,752.6428571428572 L 1450,1086.9285714285716 L 1800,1086.9285714285716" /><path class="edge arrow" d="M 0,0 L 8,-3 L 8,3 Z" transform="rotate(180 1800 1086.9285714285716) translate(1800 1086.9285714285716)" /></g><g id="sprotty_37" class="sprotty-edge" opacity="1"><path class="elkedge" d="M 0,932.6428571428572 L 1300,932.6428571428572 L 1300,1099.7857142857144 L 1800,1099.7857142857144" /><path class="edge arrow" d="M 0,0 L 8,-3 L 8,3 Z" transform="rotate(180 1800 1099.7857142857144) translate(1800 1099.7857142857144)" /></g><g id="sprotty_40" class="sprotty-edge" opacity="1"><path class="elkedge" d="M 0,114.5 L 1700,114.5 L 1700,1065.5 L 1800,1065.5" /><path class="edge arrow" d="M 0,0 L 8,-3 L 8,3 Z" transform="rotate(180 1800 1065.5) translate(1800 1065.5)" /></g><g id="sprotty_43" class="sprotty-edge" opacity="1"><path class="elkedge" d="M 0,1052.6428571428573 L 1200,1052.6428571428573 L 1200,1108.357142857143 L 1800,1108.357142857143" /><path class="edge arrow" d="M 0,0 L 8,-3 L 8,3 Z" transform="rotate(180 1800 1108.357142857143) translate(1800 1108.357142857143)" /></g><g id="sprotty_46" class="sprotty-edge" opacity="1"><path class="elkedge" d="M 0,992.6428571428572 L 1250,992.6428571428572 L 1250,1104.0714285714287 L 1800,1104.0714285714287" /><path class="edge arrow" d="M 0,0 L 8,-3 L 8,3 Z" transform="rotate(180 1800 1104.0714285714287) translate(1800 1104.0714285714287)" /></g><g id="sprotty_49" class="sprotty-edge" opacity="1"><path class="elkedge" d="M 0,692.6428571428572 L 1500,692.6428571428572 L 1500,1082.6428571428573 L 1800,1082.6428571428573" /><path class="edge arrow" d="M 0,0 L 8,-3 L 8,3 Z" transform="rotate(180 1800 1082.6428571428573) translate(1800 1082.6428571428573)" /></g><g id="sprotty_52" class="sprotty-edge" opacity="1"><path class="elkedge" d="M 300,350.5 L 350,350.5 L 350,205.5 L 550,205.5" /><path class="edge arrow" d="M 0,0 L 8,-3 L 8,3 Z" transform="rotate(180 550 205.5) translate(550 205.5)" /></g><g id="sprotty_55" class="sprotty-edge" opacity="1"><path class="elkedge" d="M 0,185.5 L 550,185.5" /><path class="edge arrow" d="M 0,0 L 8,-3 L 8,3 Z" transform="rotate(180 550 185.5) translate(550 185.5)" /></g><g id="sprotty_56" class="sprotty-edge" opacity="1"><path class="elkedge" d="M 300,380.5 L 450,380.5 L 450,539.7857142857143 L 550,539.7857142857143" /><path class="edge arrow" d="M 0,0 L 8,-3 L 8,3 Z" transform="rotate(180 550 539.7857142857143) translate(550 539.7857142857143)" /></g><g id="sprotty_57" class="sprotty-edge" opacity="1"><path class="elkedge" d="M 0,632.6428571428572 L 350,632.6428571428572 L 350,574.0714285714287 L 550,574.0714285714287" /><path class="edge arrow" d="M 0,0 L 8,-3 L 8,3 Z" transform="rotate(180 550 574.0714285714287) translate(550 574.0714285714287)" /><g id="sprotty_57_j0" transform="translate(350, 632.6428571428572)" opacity="1"><circle class="elkjunction" r="2" /></g></g><g id="sprotty_58" class="sprotty-edge" opacity="1"><path class="elkedge" d="M 0,185.5 L 500,185.5 L 500,531.2142857142858 L 550,531.2142857142858" /><path class="edge arrow" d="M 0,0 L 8,-3 L 8,3 Z" transform="rotate(180 550 531.2142857142858) translate(550 531.2142857142858)" /></g><g id="sprotty_61" class="sprotty-edge" opacity="1"><path class="elkedge" d="M 0,445.5 L 400,445.5 L 400,548.3571428571429 L 550,548.3571428571429" /><path class="edge arrow" d="M 0,0 L 8,-3 L 8,3 Z" transform="rotate(180 550 548.3571428571429) translate(550 548.3571428571429)" /></g><g id="sprotty_64" class="sprotty-edge" opacity="1"><path class="elkedge" d="M 0,505.5 L 350,505.5 L 350,556.9285714285716 L 550,556.9285714285716" /><path class="edge arrow" d="M 0,0 L 8,-3 L 8,3 Z" transform="rotate(180 550 556.9285714285716) translate(550 556.9285714285716)" /></g><g id="sprotty_67" class="sprotty-edge" opacity="1"><path class="elkedge" d="M 0,565.5 L 550,565.5000000000001" /><path class="edge arrow" d="M 0,0 L 8,-3 L 8,3 Z" transform="rotate(-180 550 565.5000000000001) translate(550 565.5000000000001)" /></g><g id="sprotty_68" class="sprotty-edge" opacity="1"><path class="elkedge" d="M 300,365.5 L 550,365.5" /><path class="edge arrow" d="M 0,0 L 8,-3 L 8,3 Z" transform="rotate(180 550 365.5) translate(550 365.5)" /></g><g id="sprotty_69" class="sprotty-edge" opacity="1"><path class="elkedge" d="M 0,185.5 L 500,185.5 L 500,345.5 L 550,345.5" /><path class="edge arrow" d="M 0,0 L 8,-3 L 8,3 Z" transform="rotate(180 550 345.5) translate(550 345.5)" /><g id="sprotty_69_j0" transform="translate(500, 185.5)" opacity="1"><circle class="elkjunction" r="2" /></g><g id="sprotty_69_j1" transform="translate(500, 345.5)" opacity="1"><circle class="elkjunction" r="2" /></g></g><g id="sprotty_70" class="sprotty-edge" opacity="1"><path class="elkedge" d="M 750,355.5 L 950,355.5" /><path class="edge arrow" d="M 0,0 L 8,-3 L 8,3 Z" transform="rotate(180 950 355.5) translate(950 355.5)" /></g><g id="sprotty_73" class="sprotty-edge" opacity="1"><path class="elkedge" d="M 0,365.5 L 100,365.5" /><path class="edge arrow" d="M 0,0 L 8,-3 L 8,3 Z" transform="rotate(180 100 365.5) translate(100 365.5)" /></g><g id="sprotty_76" class="sprotty-edge" opacity="1"><path class="elkedge" d="M 750,537.6428571428572 L 800,537.6428571428572 L 800,492.6428571428572 L 2100,492.6428571428572" /><path class="edge arrow" d="M 0,0 L 8,-3 L 8,3 Z" transform="rotate(180 2100 492.6428571428572) translate(2100 492.6428571428572)" /></g><g id="sprotty_79" class="sprotty-edge" opacity="1"><path class="elkedge" d="M 2000,1086.9285714285716 L 2100,1086.9285714285716" /><path class="edge arrow" d="M 0,0 L 8,-3 L 8,3 Z" transform="rotate(180 2100 1086.9285714285716) translate(2100 1086.9285714285716)" /></g><g id="sprotty_82" class="sprotty-edge" opacity="1"><path class="elkedge" d="M 750,567.6428571428572 L 800,567.6428571428572 L 800,612.6428571428572 L 2100,612.6428571428572" /><path class="edge arrow" d="M 0,0 L 8,-3 L 8,3 Z" transform="rotate(180 2100 612.6428571428572) translate(2100 612.6428571428572)" /></g><g id="sprotty_85" class="sprotty-edge" opacity="1"><path class="elkedge" d="M 750,552.6428571428572 L 2100,552.6428571428572" /><path class="edge arrow" d="M 0,0 L 8,-3 L 8,3 Z" transform="rotate(180 2100 552.6428571428572) translate(2100 552.6428571428572)" /></g></g></g></svg>
