<svg id="sprotty_1" class="sprotty-graph sprotty" tabindex="1002" xmlns="http://www.w3.org/2000/svg" viewBox="0 0 1634 1500.2857142857142"><style>.elknode {
    stroke: #448;
    stroke-width: 2;
    fill: #ddf;
}

.elkport {
    stroke: #448;
    stroke-width: 1;
    fill: #66c;
}

.elkedge {
    fill: none;
    stroke: #224;
    stroke-width: 1;
}

.elkedge.arrow {
    fill: #336;
}

.elklabel {
    stroke-width: 0;
    stroke: #000;
    fill: #000;
    font-family: sans-serif;
    font-size: 10pt;
    dominant-baseline: hanging;
}

.elkjunction {
    stroke: none;
    fill: #224;
}

.selected &gt; rect {
    stroke-width: 3;
}

.mouseover {
    stroke: #88f;
}
/*
 * Copyright (C) 2017 TypeFox and others.
 *
 * Licensed under the Apache License, Version 2.0 (the &quot;License&quot;); you may not use this file except in compliance with the License.
 * You may obtain a copy of the License at http://www.apache.org/licenses/LICENSE-2.0
 */

.sprotty {
    padding: 0px;
    font-family: &quot;Helvetica Neue&quot;, Helvetica, Arial, sans-serif;
}

.sprotty-hidden {
    display: block;
    position: absolute;
    width: 0px;
    height: 0px;
}

.sprotty-popup {
    font-family: &quot;Helvetica Neue&quot;, Helvetica, Arial, sans-serif;
    position: absolute;
    background: white;
    border-radius: 5px;
    border: 1px solid;
    max-width: 400px;
    min-width: 100px;
}

.sprotty-popup &gt; div {
    margin: 10px;
}

.sprotty-popup-closed {
    display: none;
}
</style><g transform="scale(1) translate(0,0)"><g id="sprotty_3" transform="translate(117, 71)" opacity="1"><rect class="elknode" x="0" y="0" width="1400" height="1379.2857142857142" /><g id="sprotty_5" transform="translate(320, 503.7857142857143)" opacity="1"><rect class="elknode" x="0" y="0" width="200" height="60" /><text id="sprotty_6" class="elklabel" transform="translate(5, 22) translate(0, 0)" opacity="1">data.template_file.prometheus</text></g><g id="sprotty_7" transform="translate(1100, 875.7857142857142)" opacity="1"><rect class="elknode" x="0" y="0" width="200" height="60" /><text id="sprotty_8" class="elklabel" transform="translate(5, 22) translate(0, 0)" opacity="1">k8s_apps_v1_stateful_set.this</text></g><g id="sprotty_9" transform="translate(580, 493.7857142857143)" opacity="1"><rect class="elknode" x="0" y="0" width="200" height="60" /><text id="sprotty_10" class="elklabel" transform="translate(5, 22) translate(0, 0)" opacity="1">k8s_core_v1_config_map.this</text></g><g id="sprotty_11" transform="translate(580, 148.78571428571428)" opacity="1"><rect class="elknode" x="0" y="0" width="200" height="60" /><text id="sprotty_12" class="elklabel" transform="translate(5, 22) translate(0, 0)" opacity="1">k8s_core_v1_service.this</text></g><g id="sprotty_13" transform="translate(580, 413.7857142857143)" opacity="1"><rect class="elknode" x="0" y="0" width="200" height="60" /><text id="sprotty_14" class="elklabel" transform="translate(5, 22) translate(0, 0)" opacity="1">k8s_core_v1_service_account.this</text></g><g id="sprotty_15" transform="translate(580, 733.7857142857142)" opacity="1"><rect class="elknode" x="0" y="0" width="200" height="60" /><text id="sprotty_16" class="elklabel" transform="translate(5, 22) translate(0, 0)" opacity="1">k8s_policy_v1beta1_pod_disruption_budget.this</text></g><g id="sprotty_17" transform="translate(580, 653.7857142857142)" opacity="1"><rect class="elknode" x="0" y="0" width="200" height="60" /><text id="sprotty_18" class="elklabel" transform="translate(5, 22) translate(0, 0)" opacity="1">k8s_rbac_authorization_k8s_io_v1_cluster_role.this</text></g><g id="sprotty_19" transform="translate(820, 643.7857142857142)" opacity="1"><rect class="elknode" x="0" y="0" width="200" height="60" /><text id="sprotty_20" class="elklabel" transform="translate(5, 22) translate(0, 0)" opacity="1">k8s_rbac_authorization_k8s_io_v1_cluster_role_binding.this</text></g><g id="sprotty_21" transform="translate(100, 503.7857142857143)" opacity="1"><rect class="elknode" x="0" y="0" width="200" height="60" /><text id="sprotty_22" class="elklabel" transform="translate(5, 22) translate(0, 0)" opacity="1">provider.template</text></g><g id="sprotty_61" transform="translate(320, 643.7857142857142)" opacity="1"><rect class="elknode" x="0" y="0" width="200" height="60" /><text id="sprotty_62" class="elklabel" transform="translate(5, 22) translate(0, 0)" opacity="1">local.labels</text></g><g id="sprotty_102" transform="translate(580, 573.7857142857142)" opacity="1"><rect class="elknode" x="0" y="0" width="200" height="60" /><text id="sprotty_103" class="elklabel" transform="translate(5, 22) translate(0, 0)" opacity="1">provider.template (close)</text></g><g id="sprotty_105" transform="translate(820, 723.7857142857142)" opacity="1"><rect class="elknode" x="0" y="0" width="200" height="60" /><text id="sprotty_106" class="elklabel" transform="translate(5, 22) translate(0, 0)" opacity="1">root</text></g><g id="sprotty_27" transform="translate(-16, 358.2857142857143)" opacity="1"><rect class="elkport" x="0" y="0" width="16" height="9" /><text id="sprotty_28" class="elklabel" transform="translate(-1, 10) translate(0, 0)" opacity="1">dns_policy</text></g><g id="sprotty_30" transform="translate(-16, 839.2857142857142)" opacity="1"><rect class="elkport" x="0" y="0" width="16" height="9" /><text id="sprotty_31" class="elklabel" transform="translate(-1, 10) translate(0, 0)" opacity="1">image</text></g><g id="sprotty_33" transform="translate(-16, 899.2857142857142)" opacity="1"><rect class="elkport" x="0" y="0" width="16" height="9" /><text id="sprotty_34" class="elklabel" transform="translate(-1, 10) translate(0, 0)" opacity="1">node_selector</text></g><g id="sprotty_36" transform="translate(-16, 959.2857142857142)" opacity="1"><rect class="elkport" x="0" y="0" width="16" height="9" /><text id="sprotty_37" class="elklabel" transform="translate(-1, 10) translate(0, 0)" opacity="1">priority_class_name</text></g><g id="sprotty_39" transform="translate(-16, 1019.2857142857142)" opacity="1"><rect class="elkport" x="0" y="0" width="16" height="9" /><text id="sprotty_40" class="elklabel" transform="translate(-1, 10) translate(0, 0)" opacity="1">replicas</text></g><g id="sprotty_42" transform="translate(-16, 1079.2857142857142)" opacity="1"><rect class="elkport" x="0" y="0" width="16" height="9" /><text id="sprotty_43" class="elklabel" transform="translate(-1, 10) translate(0, 0)" opacity="1">restart_policy</text></g><g id="sprotty_45" transform="translate(-16, 1139.2857142857142)" opacity="1"><rect class="elkport" x="0" y="0" width="16" height="9" /><text id="sprotty_46" class="elklabel" transform="translate(-1, 10) translate(0, 0)" opacity="1">scheduler_name</text></g><g id="sprotty_48" transform="translate(-16, 1199.2857142857142)" opacity="1"><rect class="elkport" x="0" y="0" width="16" height="9" /><text id="sprotty_49" class="elklabel" transform="translate(-1, 10) translate(0, 0)" opacity="1">storage</text></g><g id="sprotty_51" transform="translate(-16, 1259.2857142857142)" opacity="1"><rect class="elkport" x="0" y="0" width="16" height="9" /><text id="sprotty_52" class="elklabel" transform="translate(-1, 10) translate(0, 0)" opacity="1">storage_class_name</text></g><g id="sprotty_54" transform="translate(-16, 1319.2857142857142)" opacity="1"><rect class="elkport" x="0" y="0" width="16" height="9" /><text id="sprotty_55" class="elklabel" transform="translate(-1, 10) translate(0, 0)" opacity="1">termination_grace_period_seconds</text></g><g id="sprotty_57" transform="translate(-16, 298.2857142857143)" opacity="1"><rect class="elkport" x="0" y="0" width="16" height="9" /><text id="sprotty_58" class="elklabel" transform="translate(-1, 10) translate(0, 0)" opacity="1">volume_claim_template_name</text></g><g id="sprotty_64" transform="translate(-16, 429.2857142857143)" opacity="1"><rect class="elkport" x="0" y="0" width="16" height="9" /><text id="sprotty_65" class="elklabel" transform="translate(-1, 10) translate(0, 0)" opacity="1">namespace</text></g><g id="sprotty_68" transform="translate(-16, 110)" opacity="1"><rect class="elkport" x="0" y="0" width="16" height="9" /><text id="sprotty_69" class="elklabel" transform="translate(-1, 10) translate(0, 0)" opacity="1">annotations</text></g><g id="sprotty_72" transform="translate(-16, 170)" opacity="1"><rect class="elkport" x="0" y="0" width="16" height="9" /><text id="sprotty_73" class="elklabel" transform="translate(-1, 10) translate(0, 0)" opacity="1">port</text></g><g id="sprotty_75" transform="translate(-16, 230)" opacity="1"><rect class="elkport" x="0" y="0" width="16" height="9" /><text id="sprotty_76" class="elklabel" transform="translate(-1, 10) translate(0, 0)" opacity="1">service_type</text></g><g id="sprotty_78" transform="translate(-16, 50)" opacity="1"><rect class="elkport" x="0" y="0" width="16" height="9" /><text id="sprotty_79" class="elklabel" transform="translate(-1, 10) translate(0, 0)" opacity="1">session_affinity</text></g><g id="sprotty_87" transform="translate(-16, 669.2857142857142)" opacity="1"><rect class="elkport" x="0" y="0" width="16" height="9" /><text id="sprotty_88" class="elklabel" transform="translate(-1, 10) translate(0, 0)" opacity="1">name</text></g><g id="sprotty_90" transform="translate(1400, 216.28571428571428)" opacity="1"><rect class="elkport" x="0" y="0" width="16" height="9" /><text id="sprotty_91" class="elklabel" transform="translate(17, 10) translate(0, 0)" opacity="1">cluster_ip</text></g><g id="sprotty_93" transform="translate(1400, 156.28571428571428)" opacity="1"><rect class="elkport" x="0" y="0" width="16" height="9" /><text id="sprotty_94" class="elklabel" transform="translate(17, 10) translate(0, 0)" opacity="1">name</text></g><g id="sprotty_96" transform="translate(1400, 276.2857142857143)" opacity="1"><rect class="elkport" x="0" y="0" width="16" height="9" /><text id="sprotty_97" class="elklabel" transform="translate(17, 10) translate(0, 0)" opacity="1">port</text></g><g id="sprotty_99" transform="translate(1400, 901.2857142857142)" opacity="1"><rect class="elkport" x="0" y="0" width="16" height="9" /><text id="sprotty_100" class="elklabel" transform="translate(17, 10) translate(0, 0)" opacity="1">statefulset_uid</text></g><text id="sprotty_4" class="elklabel" transform="translate(0, -21) translate(0, 0)" opacity="1">modules/prometheus</text><g id="sprotty_23" class="sprotty-edge" opacity="1"><path class="elkedge" d="M 300,533.7857142857142 L 320,533.7857142857142" /><path class="edge arrow" d="M 0,0 L 8,-3 L 8,3 Z" transform="rotate(180 320 533.7857142857142) translate(320 533.7857142857142)" /></g><g id="sprotty_24" class="sprotty-edge" opacity="1"><path class="elkedge" d="M 780,523.7857142857142 L 1050,523.7857142857142 L 1050,891.7857142857142 L 1100,891.7857142857142" /><path class="edge arrow" d="M 0,0 L 8,-3 L 8,3 Z" transform="rotate(180 1100 891.7857142857142) translate(1100 891.7857142857142)" /></g><g id="sprotty_25" class="sprotty-edge" opacity="1"><path class="elkedge" d="M 780,196.78571428571428 L 790,196.78571428571428 L 790,291.7857142857143 L 1080,291.7857142857143 L 1080,879.7857142857142 L 1100,879.7857142857142" /><path class="edge arrow" d="M 0,0 L 8,-3 L 8,3 Z" transform="rotate(180 1100 879.7857142857142) translate(1100 879.7857142857142)" /></g><g id="sprotty_26" class="sprotty-edge" opacity="1"><path class="elkedge" d="M 1020,673.7857142857142 L 1040,673.7857142857142 L 1040,895.7857142857142 L 1100,895.7857142857142" /><path class="edge arrow" d="M 0,0 L 8,-3 L 8,3 Z" transform="rotate(180 1100 895.7857142857142) translate(1100 895.7857142857142)" /></g><g id="sprotty_29" class="sprotty-edge" opacity="1"><path class="elkedge" d="M 0,362.7857142857143 L 1060,362.7857142857143 L 1060,887.7857142857142 L 1100,887.7857142857142" /><path class="edge arrow" d="M 0,0 L 8,-3 L 8,3 Z" transform="rotate(180 1100 887.7857142857142) translate(1100 887.7857142857142)" /></g><g id="sprotty_32" class="sprotty-edge" opacity="1"><path class="elkedge" d="M 0,843.7857142857142 L 1030,843.7857142857142 L 1030,899.7857142857142 L 1100,899.7857142857142" /><path class="edge arrow" d="M 0,0 L 8,-3 L 8,3 Z" transform="rotate(180 1100 899.7857142857142) translate(1100 899.7857142857142)" /></g><g id="sprotty_35" class="sprotty-edge" opacity="1"><path class="elkedge" d="M 0,903.7857142857142 L 1100,903.7857142857142" /><path class="edge arrow" d="M 0,0 L 8,-3 L 8,3 Z" transform="rotate(180 1100 903.7857142857142) translate(1100 903.7857142857142)" /></g><g id="sprotty_38" class="sprotty-edge" opacity="1"><path class="elkedge" d="M 0,963.7857142857142 L 1030,963.7857142857142 L 1030,907.7857142857142 L 1100,907.7857142857142" /><path class="edge arrow" d="M 0,0 L 8,-3 L 8,3 Z" transform="rotate(180 1100 907.7857142857142) translate(1100 907.7857142857142)" /></g><g id="sprotty_41" class="sprotty-edge" opacity="1"><path class="elkedge" d="M 0,1023.7857142857142 L 1040,1023.7857142857142 L 1040,911.7857142857142 L 1100,911.7857142857142" /><path class="edge arrow" d="M 0,0 L 8,-3 L 8,3 Z" transform="rotate(180 1100 911.7857142857142) translate(1100 911.7857142857142)" /></g><g id="sprotty_44" class="sprotty-edge" opacity="1"><path class="elkedge" d="M 0,1083.7857142857142 L 1050,1083.7857142857142 L 1050,915.7857142857142 L 1100,915.7857142857142" /><path class="edge arrow" d="M 0,0 L 8,-3 L 8,3 Z" transform="rotate(180 1100 915.7857142857142) translate(1100 915.7857142857142)" /></g><g id="sprotty_47" class="sprotty-edge" opacity="1"><path class="elkedge" d="M 0,1143.7857142857142 L 1060,1143.7857142857142 L 1060,919.7857142857142 L 1100,919.7857142857142" /><path class="edge arrow" d="M 0,0 L 8,-3 L 8,3 Z" transform="rotate(180 1100 919.7857142857142) translate(1100 919.7857142857142)" /></g><g id="sprotty_50" class="sprotty-edge" opacity="1"><path class="elkedge" d="M 0,1203.7857142857142 L 1070,1203.7857142857142 L 1070,923.7857142857142 L 1100,923.7857142857142" /><path class="edge arrow" d="M 0,0 L 8,-3 L 8,3 Z" transform="rotate(180 1100 923.7857142857142) translate(1100 923.7857142857142)" /></g><g id="sprotty_53" class="sprotty-edge" opacity="1"><path class="elkedge" d="M 0,1263.7857142857142 L 1080,1263.7857142857142 L 1080,927.7857142857142 L 1100,927.7857142857142" /><path class="edge arrow" d="M 0,0 L 8,-3 L 8,3 Z" transform="rotate(180 1100 927.7857142857142) translate(1100 927.7857142857142)" /></g><g id="sprotty_56" class="sprotty-edge" opacity="1"><path class="elkedge" d="M 0,1323.7857142857142 L 1090,1323.7857142857142 L 1090,931.7857142857142 L 1100,931.7857142857142" /><path class="edge arrow" d="M 0,0 L 8,-3 L 8,3 Z" transform="rotate(180 1100 931.7857142857142) translate(1100 931.7857142857142)" /></g><g id="sprotty_59" class="sprotty-edge" opacity="1"><path class="elkedge" d="M 0,302.7857142857143 L 1070,302.7857142857143 L 1070,883.7857142857142 L 1100,883.7857142857142" /><path class="edge arrow" d="M 0,0 L 8,-3 L 8,3 Z" transform="rotate(180 1100 883.7857142857142) translate(1100 883.7857142857142)" /></g><g id="sprotty_60" class="sprotty-edge" opacity="1"><path class="elkedge" d="M 520,523.7857142857142 L 580,523.7857142857142" /><path class="edge arrow" d="M 0,0 L 8,-3 L 8,3 Z" transform="rotate(180 580 523.7857142857142) translate(580 523.7857142857142)" /></g><g id="sprotty_63" class="sprotty-edge" opacity="1"><path class="elkedge" d="M 520,673.7857142857142 L 560,673.7857142857142 L 560,538.7857142857142 L 580,538.7857142857142" /><path class="edge arrow" d="M 0,0 L 8,-3 L 8,3 Z" transform="rotate(180 580 538.7857142857142) translate(580 538.7857142857142)" /></g><g id="sprotty_66" class="sprotty-edge" opacity="1"><path class="elkedge" d="M 0,433.7857142857143 L 560,433.7857142857143 L 560,508.7857142857143 L 580,508.7857142857143" /><path class="edge arrow" d="M 0,0 L 8,-3 L 8,3 Z" transform="rotate(180 580 508.7857142857143) translate(580 508.7857142857143)" /></g><g id="sprotty_67" class="sprotty-edge" opacity="1"><path class="elkedge" d="M 520,653.7857142857142 L 540,653.7857142857142 L 540,200.21428571428572 L 580,200.21428571428572" /><path class="edge arrow" d="M 0,0 L 8,-3 L 8,3 Z" transform="rotate(180 580 200.21428571428572) translate(580 200.21428571428572)" /></g><g id="sprotty_70" class="sprotty-edge" opacity="1"><path class="elkedge" d="M 0,114.5 L 530,114.5 L 530,165.92857142857144 L 580,165.92857142857144" /><path class="edge arrow" d="M 0,0 L 8,-3 L 8,3 Z" transform="rotate(180 580 165.92857142857144) translate(580 165.92857142857144)" /></g><g id="sprotty_71" class="sprotty-edge" opacity="1"><path class="elkedge" d="M 0,433.7857142857143 L 560,433.7857142857143 L 560,191.64285714285714 L 580,191.64285714285714" /><path class="edge arrow" d="M 0,0 L 8,-3 L 8,3 Z" transform="rotate(180 580 191.64285714285714) translate(580 191.64285714285714)" /><g id="sprotty_71_j0" transform="translate(560, 433.7857142857143)" opacity="1"><circle class="elkjunction" r="2" /></g></g><g id="sprotty_74" class="sprotty-edge" opacity="1"><path class="elkedge" d="M 0,174.5 L 580,174.5" /><path class="edge arrow" d="M 0,0 L 8,-3 L 8,3 Z" transform="rotate(180 580 174.5) translate(580 174.5)" /></g><g id="sprotty_77" class="sprotty-edge" opacity="1"><path class="elkedge" d="M 0,234.5 L 530,234.5 L 530,183.07142857142856 L 580,183.07142857142856" /><path class="edge arrow" d="M 0,0 L 8,-3 L 8,3 Z" transform="rotate(180 580 183.07142857142856) translate(580 183.07142857142856)" /></g><g id="sprotty_80" class="sprotty-edge" opacity="1"><path class="elkedge" d="M 0,54.5 L 540,54.5 L 540,157.35714285714286 L 580,157.35714285714286" /><path class="edge arrow" d="M 0,0 L 8,-3 L 8,3 Z" transform="rotate(180 580 157.35714285714286) translate(580 157.35714285714286)" /></g><g id="sprotty_81" class="sprotty-edge" opacity="1"><path class="elkedge" d="M 520,663.7857142857142 L 550,663.7857142857142 L 550,453.7857142857143 L 580,453.7857142857143" /><path class="edge arrow" d="M 0,0 L 8,-3 L 8,3 Z" transform="rotate(180 580 453.7857142857143) translate(580 453.7857142857143)" /></g><g id="sprotty_82" class="sprotty-edge" opacity="1"><path class="elkedge" d="M 0,433.7857142857143 L 580,433.7857142857143" /><path class="edge arrow" d="M 0,0 L 8,-3 L 8,3 Z" transform="rotate(180 580 433.7857142857143) translate(580 433.7857142857143)" /></g><g id="sprotty_83" class="sprotty-edge" opacity="1"><path class="elkedge" d="M 520,693.7857142857142 L 530,693.7857142857142 L 530,763.7857142857142 L 580,763.7857142857142" /><path class="edge arrow" d="M 0,0 L 8,-3 L 8,3 Z" transform="rotate(180 580 763.7857142857142) translate(580 763.7857142857142)" /></g><g id="sprotty_84" class="sprotty-edge" opacity="1"><path class="elkedge" d="M 520,683.7857142857142 L 580,683.7857142857142" /><path class="edge arrow" d="M 0,0 L 8,-3 L 8,3 Z" transform="rotate(180 580 683.7857142857142) translate(580 683.7857142857142)" /></g><g id="sprotty_85" class="sprotty-edge" opacity="1"><path class="elkedge" d="M 780,443.7857142857143 L 800,443.7857142857143 L 800,663.7857142857142 L 820,663.7857142857142" /><path class="edge arrow" d="M 0,0 L 8,-3 L 8,3 Z" transform="rotate(180 820 663.7857142857142) translate(820 663.7857142857142)" /></g><g id="sprotty_86" class="sprotty-edge" opacity="1"><path class="elkedge" d="M 780,683.7857142857142 L 820,683.7857142857142" /><path class="edge arrow" d="M 0,0 L 8,-3 L 8,3 Z" transform="rotate(180 820 683.7857142857142) translate(820 683.7857142857142)" /></g><g id="sprotty_89" class="sprotty-edge" opacity="1"><path class="elkedge" d="M 0,673.7857142857142 L 320,673.7857142857142" /><path class="edge arrow" d="M 0,0 L 8,-3 L 8,3 Z" transform="rotate(180 320 673.7857142857142) translate(320 673.7857142857142)" /></g><g id="sprotty_92" class="sprotty-edge" opacity="1"><path class="elkedge" d="M 780,172.78571428571428 L 810,172.78571428571428 L 810,220.78571428571428 L 1400,220.78571428571428" /><path class="edge arrow" d="M 0,0 L 8,-3 L 8,3 Z" transform="rotate(180 1400 220.78571428571428) translate(1400 220.78571428571428)" /></g><g id="sprotty_95" class="sprotty-edge" opacity="1"><path class="elkedge" d="M 780,160.78571428571428 L 1400,160.78571428571428" /><path class="edge arrow" d="M 0,0 L 8,-3 L 8,3 Z" transform="rotate(180 1400 160.78571428571428) translate(1400 160.78571428571428)" /></g><g id="sprotty_98" class="sprotty-edge" opacity="1"><path class="elkedge" d="M 780,184.78571428571428 L 800,184.78571428571428 L 800,280.7857142857143 L 1400,280.7857142857143" /><path class="edge arrow" d="M 0,0 L 8,-3 L 8,3 Z" transform="rotate(180 1400 280.7857142857143) translate(1400 280.7857142857143)" /></g><g id="sprotty_101" class="sprotty-edge" opacity="1"><path class="elkedge" d="M 1300,905.7857142857142 L 1400,905.7857142857142" /><path class="edge arrow" d="M 0,0 L 8,-3 L 8,3 Z" transform="rotate(180 1400 905.7857142857142) translate(1400 905.7857142857142)" /></g><g id="sprotty_104" class="sprotty-edge" opacity="1"><path class="elkedge" d="M 520,543.7857142857142 L 570,543.7857142857142 L 570,603.7857142857142 L 580,603.7857142857142" /><path class="edge arrow" d="M 0,0 L 8,-3 L 8,3 Z" transform="rotate(180 580 603.7857142857142) translate(580 603.7857142857142)" /></g><g id="sprotty_107" class="sprotty-edge" opacity="1"><path class="elkedge" d="M 780,603.7857142857142 L 790,603.7857142857142 L 790,753.7857142857142 L 820,753.7857142857142" /><path class="edge arrow" d="M 0,0 L 8,-3 L 8,3 Z" transform="rotate(180 820 753.7857142857142) translate(820 753.7857142857142)" /></g></g></g></svg>
