<svg id="sprotty_1" class="sprotty-graph sprotty" tabindex="1002" xmlns="http://www.w3.org/2000/svg" viewBox="0 0 2484 1730.142857142857"><style>.elknode {
    stroke: #448;
    stroke-width: 2;
    fill: #ddf;
}

.elkport {
    stroke: #448;
    stroke-width: 1;
    fill: #66c;
}

.elkedge {
    fill: none;
    stroke: #224;
    stroke-width: 1;
    pointer-events: stroke;
}

.elkedge:hover {
    stroke: #88f;
    stroke-width: 10;
}

.elkedge.arrow {
    fill: #336;
}

.elklabel {
    stroke-width: 0;
    stroke: #000;
    fill: #000;
    font-family: sans-serif;
    font-size: 10pt;
    dominant-baseline: hanging;
}

.elklabel:hover {
    font-size: 24pt;
}

.elkjunction {
    stroke: none;
    fill: #224;
}

.selected &gt; rect {
    stroke-width: 3;
}

.mouseover {
    stroke: #88f;
}
/*
 * Copyright (C) 2017 TypeFox and others.
 *
 * Licensed under the Apache License, Version 2.0 (the &quot;License&quot;); you may not use this file except in compliance with the License.
 * You may obtain a copy of the License at http://www.apache.org/licenses/LICENSE-2.0
 */

.sprotty {
    padding: 0px;
    font-family: &quot;Helvetica Neue&quot;, Helvetica, Arial, sans-serif;
}

.sprotty-hidden {
    display: block;
    position: absolute;
    width: 0px;
    height: 0px;
}

.sprotty-popup {
    font-family: &quot;Helvetica Neue&quot;, Helvetica, Arial, sans-serif;
    position: absolute;
    background: white;
    border-radius: 5px;
    border: 1px solid;
    max-width: 400px;
    min-width: 100px;
}

.sprotty-popup &gt; div {
    margin: 10px;
}

.sprotty-popup-closed {
    display: none;
}
</style><g transform="scale(1) translate(0,0)"><g id="sprotty_3" transform="translate(117, 71)" opacity="1"><rect class="elknode" x="0" y="0" rx="10" width="2250" height="1609.142857142857" /><g id="sprotty_5" transform="translate(200, 423.6428571428571)" opacity="1"><rect class="elknode" x="0" y="0" rx="10" width="200" height="60" /><text id="sprotty_6" class="elklabel" transform="translate(5, 22) translate(0, 0)" opacity="1">data.template_file.prometheus</text></g><g id="sprotty_7" transform="translate(1950, 1497.642857142857)" opacity="1"><rect class="elknode" x="0" y="0" rx="10" width="200" height="60" /><text id="sprotty_8" class="elklabel" transform="translate(5, 22) translate(0, 0)" opacity="1">k8s_apps_v1_stateful_set.this</text></g><g id="sprotty_9" transform="translate(650, 423.6428571428571)" opacity="1"><rect class="elknode" x="0" y="0" rx="10" width="200" height="60" /><text id="sprotty_10" class="elklabel" transform="translate(5, 22) translate(0, 0)" opacity="1">k8s_core_v1_config_map.this</text></g><g id="sprotty_11" transform="translate(650, 202.6428571428571)" opacity="1"><rect class="elknode" x="0" y="0" rx="10" width="200" height="60" /><text id="sprotty_12" class="elklabel" transform="translate(5, 22) translate(0, 0)" opacity="1">k8s_core_v1_service.this</text></g><g id="sprotty_13" transform="translate(650, 743.6428571428571)" opacity="1"><rect class="elknode" x="0" y="0" rx="10" width="200" height="60" /><text id="sprotty_14" class="elklabel" transform="translate(5, 22) translate(0, 0)" opacity="1">k8s_core_v1_service_account.this</text></g><g id="sprotty_15" transform="translate(650, 583.6428571428571)" opacity="1"><rect class="elknode" x="0" y="0" rx="10" width="200" height="60" /><text id="sprotty_16" class="elklabel" transform="translate(5, 22) translate(0, 0)" opacity="1">k8s_policy_v1beta1_pod_disruption_budget.this</text></g><g id="sprotty_17" transform="translate(650, 903.6428571428571)" opacity="1"><rect class="elknode" x="0" y="0" rx="10" width="200" height="60" /><text id="sprotty_18" class="elklabel" transform="translate(5, 22) translate(0, 0)" opacity="1">k8s_rbac_authorization_k8s_io_v1_cluster_role.this</text></g><g id="sprotty_19" transform="translate(1050, 893.6428571428571)" opacity="1"><rect class="elknode" x="0" y="0" rx="10" width="200" height="60" /><text id="sprotty_20" class="elklabel" transform="translate(5, 22) translate(0, 0)" opacity="1">k8s_rbac_authorization_k8s_io_v1_cluster_role_binding.this</text></g><g id="sprotty_58" transform="translate(200, 583.6428571428571)" opacity="1"><rect class="elknode" x="0" y="0" rx="10" width="200" height="60" /><text id="sprotty_59" class="elklabel" transform="translate(5, 22) translate(0, 0)" opacity="1">local.labels</text></g><g id="sprotty_24" transform="translate(-16, 1009.1428571428571)" opacity="1"><rect class="elkport" x="0" y="0" width="16" height="9" /><text id="sprotty_25" class="elklabel" transform="translate(-1, 10) translate(0, 0)" opacity="1">dns_policy</text></g><g id="sprotty_27" transform="translate(-16, 1069.142857142857)" opacity="1"><rect class="elkport" x="0" y="0" width="16" height="9" /><text id="sprotty_28" class="elklabel" transform="translate(-1, 10) translate(0, 0)" opacity="1">image</text></g><g id="sprotty_30" transform="translate(-16, 1129.142857142857)" opacity="1"><rect class="elkport" x="0" y="0" width="16" height="9" /><text id="sprotty_31" class="elklabel" transform="translate(-1, 10) translate(0, 0)" opacity="1">node_selector</text></g><g id="sprotty_33" transform="translate(-16, 1189.142857142857)" opacity="1"><rect class="elkport" x="0" y="0" width="16" height="9" /><text id="sprotty_34" class="elklabel" transform="translate(-1, 10) translate(0, 0)" opacity="1">priority_class_name</text></g><g id="sprotty_36" transform="translate(-16, 1249.142857142857)" opacity="1"><rect class="elkport" x="0" y="0" width="16" height="9" /><text id="sprotty_37" class="elklabel" transform="translate(-1, 10) translate(0, 0)" opacity="1">replicas</text></g><g id="sprotty_39" transform="translate(-16, 1309.142857142857)" opacity="1"><rect class="elkport" x="0" y="0" width="16" height="9" /><text id="sprotty_40" class="elklabel" transform="translate(-1, 10) translate(0, 0)" opacity="1">restart_policy</text></g><g id="sprotty_42" transform="translate(-16, 1369.142857142857)" opacity="1"><rect class="elkport" x="0" y="0" width="16" height="9" /><text id="sprotty_43" class="elklabel" transform="translate(-1, 10) translate(0, 0)" opacity="1">scheduler_name</text></g><g id="sprotty_45" transform="translate(-16, 1429.142857142857)" opacity="1"><rect class="elkport" x="0" y="0" width="16" height="9" /><text id="sprotty_46" class="elklabel" transform="translate(-1, 10) translate(0, 0)" opacity="1">storage</text></g><g id="sprotty_48" transform="translate(-16, 1489.142857142857)" opacity="1"><rect class="elkport" x="0" y="0" width="16" height="9" /><text id="sprotty_49" class="elklabel" transform="translate(-1, 10) translate(0, 0)" opacity="1">storage_class_name</text></g><g id="sprotty_51" transform="translate(-16, 1549.142857142857)" opacity="1"><rect class="elkport" x="0" y="0" width="16" height="9" /><text id="sprotty_52" class="elklabel" transform="translate(-1, 10) translate(0, 0)" opacity="1">termination_grace_period_seconds</text></g><g id="sprotty_54" transform="translate(-16, 308.1428571428571)" opacity="1"><rect class="elkport" x="0" y="0" width="16" height="9" /><text id="sprotty_55" class="elklabel" transform="translate(-1, 10) translate(0, 0)" opacity="1">volume_claim_template_name</text></g><g id="sprotty_61" transform="translate(-16, 368.1428571428571)" opacity="1"><rect class="elkport" x="0" y="0" width="16" height="9" /><text id="sprotty_62" class="elklabel" transform="translate(-1, 10) translate(0, 0)" opacity="1">namespace</text></g><g id="sprotty_65" transform="translate(-16, 110)" opacity="1"><rect class="elkport" x="0" y="0" width="16" height="9" /><text id="sprotty_66" class="elklabel" transform="translate(-1, 10) translate(0, 0)" opacity="1">annotations</text></g><g id="sprotty_69" transform="translate(-16, 170)" opacity="1"><rect class="elkport" x="0" y="0" width="16" height="9" /><text id="sprotty_70" class="elklabel" transform="translate(-1, 10) translate(0, 0)" opacity="1">port</text></g><g id="sprotty_72" transform="translate(-16, 230)" opacity="1"><rect class="elkport" x="0" y="0" width="16" height="9" /><text id="sprotty_73" class="elklabel" transform="translate(-1, 10) translate(0, 0)" opacity="1">service_type</text></g><g id="sprotty_75" transform="translate(-16, 50)" opacity="1"><rect class="elkport" x="0" y="0" width="16" height="9" /><text id="sprotty_76" class="elklabel" transform="translate(-1, 10) translate(0, 0)" opacity="1">session_affinity</text></g><g id="sprotty_84" transform="translate(-16, 609.1428571428571)" opacity="1"><rect class="elkport" x="0" y="0" width="16" height="9" /><text id="sprotty_85" class="elklabel" transform="translate(-1, 10) translate(0, 0)" opacity="1">name</text></g><g id="sprotty_87" transform="translate(2250, 174.1428571428571)" opacity="1"><rect class="elkport" x="0" y="0" width="16" height="9" /><text id="sprotty_88" class="elklabel" transform="translate(17, 10) translate(0, 0)" opacity="1">cluster_ip</text></g><g id="sprotty_90" transform="translate(2250, 234.1428571428571)" opacity="1"><rect class="elkport" x="0" y="0" width="16" height="9" /><text id="sprotty_91" class="elklabel" transform="translate(17, 10) translate(0, 0)" opacity="1">name</text></g><g id="sprotty_93" transform="translate(2250, 114.14285714285711)" opacity="1"><rect class="elkport" x="0" y="0" width="16" height="9" /><text id="sprotty_94" class="elklabel" transform="translate(17, 10) translate(0, 0)" opacity="1">port</text></g><g id="sprotty_96" transform="translate(2250, 1523.142857142857)" opacity="1"><rect class="elkport" x="0" y="0" width="16" height="9" /><text id="sprotty_97" class="elklabel" transform="translate(17, 10) translate(0, 0)" opacity="1">statefulset_uid</text></g><text id="sprotty_4" class="elklabel" transform="translate(0, -21) translate(0, 0)" opacity="1">modules/prometheus</text><g id="sprotty_21" class="sprotty-edge" opacity="1"><path class="elkedge" d="M 850,453.6428571428571 L 1800,453.6428571428571 L 1800,1509.642857142857 L 1950,1509.642857142857" /><path class="edge arrow" d="M 0,0 L 8,-3 L 8,3 Z" transform="rotate(180 1950 1509.642857142857) translate(1950 1509.642857142857)" /></g><g id="sprotty_22" class="sprotty-edge" opacity="1"><path class="elkedge" d="M 850,250.6428571428571 L 900,250.6428571428571 L 900,301.6428571428571 L 1900,301.6428571428571 L 1900,1501.642857142857 L 1950,1501.642857142857" /><path class="edge arrow" d="M 0,0 L 8,-3 L 8,3 Z" transform="rotate(180 1950 1501.642857142857) translate(1950 1501.642857142857)" /></g><g id="sprotty_23" class="sprotty-edge" opacity="1"><path class="elkedge" d="M 1250,923.6428571428571 L 1750,923.6428571428571 L 1750,1513.642857142857 L 1950,1513.642857142857" /><path class="edge arrow" d="M 0,0 L 8,-3 L 8,3 Z" transform="rotate(180 1950 1513.642857142857) translate(1950 1513.642857142857)" /></g><g id="sprotty_26" class="sprotty-edge" opacity="1"><path class="elkedge" d="M 0,1013.6428571428571 L 1700,1013.6428571428571 L 1700,1517.642857142857 L 1950,1517.642857142857" /><path class="edge arrow" d="M 0,0 L 8,-3 L 8,3 Z" transform="rotate(180 1950 1517.642857142857) translate(1950 1517.642857142857)" /></g><g id="sprotty_29" class="sprotty-edge" opacity="1"><path class="elkedge" d="M 0,1073.642857142857 L 1650,1073.642857142857 L 1650,1521.642857142857 L 1950,1521.642857142857" /><path class="edge arrow" d="M 0,0 L 8,-3 L 8,3 Z" transform="rotate(180 1950 1521.642857142857) translate(1950 1521.642857142857)" /></g><g id="sprotty_32" class="sprotty-edge" opacity="1"><path class="elkedge" d="M 0,1133.642857142857 L 1600,1133.642857142857 L 1600,1525.642857142857 L 1950,1525.642857142857" /><path class="edge arrow" d="M 0,0 L 8,-3 L 8,3 Z" transform="rotate(180 1950 1525.642857142857) translate(1950 1525.642857142857)" /></g><g id="sprotty_35" class="sprotty-edge" opacity="1"><path class="elkedge" d="M 0,1193.642857142857 L 1550,1193.642857142857 L 1550,1529.642857142857 L 1950,1529.642857142857" /><path class="edge arrow" d="M 0,0 L 8,-3 L 8,3 Z" transform="rotate(180 1950 1529.642857142857) translate(1950 1529.642857142857)" /></g><g id="sprotty_38" class="sprotty-edge" opacity="1"><path class="elkedge" d="M 0,1253.642857142857 L 1500,1253.642857142857 L 1500,1533.642857142857 L 1950,1533.642857142857" /><path class="edge arrow" d="M 0,0 L 8,-3 L 8,3 Z" transform="rotate(180 1950 1533.642857142857) translate(1950 1533.642857142857)" /></g><g id="sprotty_41" class="sprotty-edge" opacity="1"><path class="elkedge" d="M 0,1313.642857142857 L 1450,1313.642857142857 L 1450,1537.642857142857 L 1950,1537.642857142857" /><path class="edge arrow" d="M 0,0 L 8,-3 L 8,3 Z" transform="rotate(180 1950 1537.642857142857) translate(1950 1537.642857142857)" /></g><g id="sprotty_44" class="sprotty-edge" opacity="1"><path class="elkedge" d="M 0,1373.642857142857 L 1400,1373.642857142857 L 1400,1541.642857142857 L 1950,1541.642857142857" /><path class="edge arrow" d="M 0,0 L 8,-3 L 8,3 Z" transform="rotate(180 1950 1541.642857142857) translate(1950 1541.642857142857)" /></g><g id="sprotty_47" class="sprotty-edge" opacity="1"><path class="elkedge" d="M 0,1433.642857142857 L 1350,1433.642857142857 L 1350,1545.642857142857 L 1950,1545.642857142857" /><path class="edge arrow" d="M 0,0 L 8,-3 L 8,3 Z" transform="rotate(180 1950 1545.642857142857) translate(1950 1545.642857142857)" /></g><g id="sprotty_50" class="sprotty-edge" opacity="1"><path class="elkedge" d="M 0,1493.642857142857 L 1300,1493.642857142857 L 1300,1549.642857142857 L 1950,1549.642857142857" /><path class="edge arrow" d="M 0,0 L 8,-3 L 8,3 Z" transform="rotate(180 1950 1549.642857142857) translate(1950 1549.642857142857)" /></g><g id="sprotty_53" class="sprotty-edge" opacity="1"><path class="elkedge" d="M 0,1553.642857142857 L 1950,1553.642857142857" /><path class="edge arrow" d="M 0,0 L 8,-3 L 8,3 Z" transform="rotate(180 1950 1553.642857142857) translate(1950 1553.642857142857)" /></g><g id="sprotty_56" class="sprotty-edge" opacity="1"><path class="elkedge" d="M 0,312.6428571428571 L 1850,312.6428571428571 L 1850,1505.642857142857 L 1950,1505.642857142857" /><path class="edge arrow" d="M 0,0 L 8,-3 L 8,3 Z" transform="rotate(180 1950 1505.642857142857) translate(1950 1505.642857142857)" /></g><g id="sprotty_57" class="sprotty-edge" opacity="1"><path class="elkedge" d="M 400,453.6428571428571 L 650,453.6428571428571" /><path class="edge arrow" d="M 0,0 L 8,-3 L 8,3 Z" transform="rotate(180 650 453.6428571428571) translate(650 453.6428571428571)" /></g><g id="sprotty_60" class="sprotty-edge" opacity="1"><path class="elkedge" d="M 400,603.6428571428571 L 500,603.6428571428571 L 500,468.6428571428571 L 650,468.6428571428571" /><path class="edge arrow" d="M 0,0 L 8,-3 L 8,3 Z" transform="rotate(180 650 468.6428571428571) translate(650 468.6428571428571)" /></g><g id="sprotty_63" class="sprotty-edge" opacity="1"><path class="elkedge" d="M 0,372.6428571428571 L 500,372.6428571428571 L 500,438.6428571428571 L 650,438.6428571428571" /><path class="edge arrow" d="M 0,0 L 8,-3 L 8,3 Z" transform="rotate(180 650 438.6428571428571) translate(650 438.6428571428571)" /></g><g id="sprotty_64" class="sprotty-edge" opacity="1"><path class="elkedge" d="M 400,593.6428571428571 L 450,593.6428571428571 L 450,254.07142857142844 L 650,254.07142857142853" /><path class="edge arrow" d="M 0,0 L 8,-3 L 8,3 Z" transform="rotate(-179.99999999999997 650 254.07142857142853) translate(650 254.07142857142853)" /></g><g id="sprotty_67" class="sprotty-edge" opacity="1"><path class="elkedge" d="M 0,114.5 L 550,114.5 L 550,219.78571428571422 L 650,219.78571428571425" /><path class="edge arrow" d="M 0,0 L 8,-3 L 8,3 Z" transform="rotate(-180 650 219.78571428571425) translate(650 219.78571428571425)" /></g><g id="sprotty_68" class="sprotty-edge" opacity="1"><path class="elkedge" d="M 0,372.6428571428571 L 150,372.6428571428571 L 150,245.5 L 650,245.49999999999994" /><path class="edge arrow" d="M 0,0 L 8,-3 L 8,3 Z" transform="rotate(180 650 245.49999999999994) translate(650 245.49999999999994)" /><g id="sprotty_68_j0" transform="translate(150, 372.6428571428571)" opacity="1"><circle class="elkjunction" r="2" /></g></g><g id="sprotty_71" class="sprotty-edge" opacity="1"><path class="elkedge" d="M 0,174.5 L 500,174.5 L 500,228.3571428571429 L 650,228.35714285714283" /><path class="edge arrow" d="M 0,0 L 8,-3 L 8,3 Z" transform="rotate(179.99999999999997 650 228.35714285714283) translate(650 228.35714285714283)" /></g><g id="sprotty_74" class="sprotty-edge" opacity="1"><path class="elkedge" d="M 0,234.5 L 450,234.5 L 450,236.92857142857133 L 650,236.9285714285714" /><path class="edge arrow" d="M 0,0 L 8,-3 L 8,3 Z" transform="rotate(-180 650 236.9285714285714) translate(650 236.9285714285714)" /></g><g id="sprotty_77" class="sprotty-edge" opacity="1"><path class="elkedge" d="M 0,54.5 L 600,54.5 L 600,211.21428571428578 L 650,211.21428571428567" /><path class="edge arrow" d="M 0,0 L 8,-3 L 8,3 Z" transform="rotate(179.99999999999986 650 211.21428571428567) translate(650 211.21428571428567)" /></g><g id="sprotty_78" class="sprotty-edge" opacity="1"><path class="elkedge" d="M 400,623.6428571428571 L 500,623.6428571428571 L 500,763.6428571428571 L 650,763.6428571428571" /><path class="edge arrow" d="M 0,0 L 8,-3 L 8,3 Z" transform="rotate(180 650 763.6428571428571) translate(650 763.6428571428571)" /></g><g id="sprotty_79" class="sprotty-edge" opacity="1"><path class="elkedge" d="M 0,372.6428571428571 L 150,372.6428571428571 L 150,783.6428571428571 L 650,783.6428571428571" /><path class="edge arrow" d="M 0,0 L 8,-3 L 8,3 Z" transform="rotate(180 650 783.6428571428571) translate(650 783.6428571428571)" /></g><g id="sprotty_80" class="sprotty-edge" opacity="1"><path class="elkedge" d="M 400,613.6428571428571 L 650,613.6428571428571" /><path class="edge arrow" d="M 0,0 L 8,-3 L 8,3 Z" transform="rotate(180 650 613.6428571428571) translate(650 613.6428571428571)" /></g><g id="sprotty_81" class="sprotty-edge" opacity="1"><path class="elkedge" d="M 400,633.6428571428571 L 450,633.6428571428571 L 450,933.6428571428571 L 650,933.6428571428571" /><path class="edge arrow" d="M 0,0 L 8,-3 L 8,3 Z" transform="rotate(180 650 933.6428571428571) translate(650 933.6428571428571)" /></g><g id="sprotty_82" class="sprotty-edge" opacity="1"><path class="elkedge" d="M 850,773.6428571428571 L 900,773.6428571428571 L 900,913.6428571428571 L 1050,913.6428571428571" /><path class="edge arrow" d="M 0,0 L 8,-3 L 8,3 Z" transform="rotate(180 1050 913.6428571428571) translate(1050 913.6428571428571)" /></g><g id="sprotty_83" class="sprotty-edge" opacity="1"><path class="elkedge" d="M 850,933.6428571428571 L 1050,933.6428571428571" /><path class="edge arrow" d="M 0,0 L 8,-3 L 8,3 Z" transform="rotate(180 1050 933.6428571428571) translate(1050 933.6428571428571)" /></g><g id="sprotty_86" class="sprotty-edge" opacity="1"><path class="elkedge" d="M 0,613.6428571428571 L 200,613.6428571428571" /><path class="edge arrow" d="M 0,0 L 8,-3 L 8,3 Z" transform="rotate(180 200 613.6428571428571) translate(200 613.6428571428571)" /></g><g id="sprotty_89" class="sprotty-edge" opacity="1"><path class="elkedge" d="M 850,226.6428571428571 L 950,226.6428571428571 L 950,178.6428571428571 L 2250,178.6428571428571" /><path class="edge arrow" d="M 0,0 L 8,-3 L 8,3 Z" transform="rotate(180 2250 178.6428571428571) translate(2250 178.6428571428571)" /></g><g id="sprotty_92" class="sprotty-edge" opacity="1"><path class="elkedge" d="M 850,238.6428571428571 L 2250,238.6428571428571" /><path class="edge arrow" d="M 0,0 L 8,-3 L 8,3 Z" transform="rotate(180 2250 238.6428571428571) translate(2250 238.6428571428571)" /></g><g id="sprotty_95" class="sprotty-edge" opacity="1"><path class="elkedge" d="M 850,214.6428571428571 L 900,214.6428571428571 L 900,118.64285714285711 L 2250,118.64285714285711" /><path class="edge arrow" d="M 0,0 L 8,-3 L 8,3 Z" transform="rotate(180 2250 118.64285714285711) translate(2250 118.64285714285711)" /></g><g id="sprotty_98" class="sprotty-edge" opacity="1"><path class="elkedge" d="M 2150,1527.642857142857 L 2250,1527.642857142857" /><path class="edge arrow" d="M 0,0 L 8,-3 L 8,3 Z" transform="rotate(180 2250 1527.642857142857) translate(2250 1527.642857142857)" /></g></g></g></svg>
