<svg id="sprotty_1" class="sprotty-graph sprotty" tabindex="1002" xmlns="http://www.w3.org/2000/svg" viewBox="0 0 1892 1557.5"><style>.elknode {
    stroke: #448;
    stroke-width: 2;
    fill: #ddf;
}

.elkport {
    stroke: #448;
    stroke-width: 1;
    fill: #66c;
}

.elkedge {
    fill: none;
    stroke: #224;
    stroke-width: 1;
}

.elkedge.arrow {
    fill: #336;
}

.elklabel {
    stroke-width: 0;
    stroke: #000;
    fill: #000;
    font-family: sans-serif;
    font-size: 10pt;
    dominant-baseline: hanging;
}

.elkjunction {
    stroke: none;
    fill: #224;
}

.selected &gt; rect {
    stroke-width: 3;
}

.mouseover {
    stroke: #88f;
}
/*
 * Copyright (C) 2017 TypeFox and others.
 *
 * Licensed under the Apache License, Version 2.0 (the &quot;License&quot;); you may not use this file except in compliance with the License.
 * You may obtain a copy of the License at http://www.apache.org/licenses/LICENSE-2.0
 */

.sprotty {
    padding: 0px;
    font-family: &quot;Helvetica Neue&quot;, Helvetica, Arial, sans-serif;
}

.sprotty-hidden {
    display: block;
    position: absolute;
    width: 0px;
    height: 0px;
}

.sprotty-popup {
    font-family: &quot;Helvetica Neue&quot;, Helvetica, Arial, sans-serif;
    position: absolute;
    background: white;
    border-radius: 5px;
    border: 1px solid;
    max-width: 400px;
    min-width: 100px;
}

.sprotty-popup &gt; div {
    margin: 10px;
}

.sprotty-popup-closed {
    display: none;
}
</style><g transform="scale(1) translate(0,0)"><g id="sprotty_3" transform="translate(117, 71)" opacity="1"><rect class="elknode" x="0" y="0" width="1658" height="1436.5" /><g id="sprotty_5" transform="translate(891, 71)" opacity="1"><rect class="elknode" x="0" y="0" width="650" height="1010" /><g id="sprotty_7" transform="translate(100, 50)" opacity="1"><rect class="elknode" x="0" y="0" width="200" height="60" /><text id="sprotty_8" class="elklabel" transform="translate(5, 22) translate(0, 0)" opacity="1">k8s_apps_v1_deployment.this</text></g><g id="sprotty_9" transform="translate(350, 50)" opacity="1"><rect class="elknode" x="0" y="0" width="200" height="60" /><text id="sprotty_10" class="elklabel" transform="translate(5, 22) translate(0, 0)" opacity="1">k8s_core_v1_config_map.this</text></g><g id="sprotty_11" transform="translate(100, 160)" opacity="1"><rect class="elknode" x="0" y="0" width="200" height="60" /><text id="sprotty_12" class="elklabel" transform="translate(5, 22) translate(0, 0)" opacity="1">k8s_core_v1_service.this</text></g><g id="sprotty_13" transform="translate(350, 160)" opacity="1"><rect class="elknode" x="0" y="0" width="200" height="60" /><text id="sprotty_14" class="elklabel" transform="translate(5, 22) translate(0, 0)" opacity="1">k8s_core_v1_service_account.this</text></g><g id="sprotty_15" transform="translate(100, 270)" opacity="1"><rect class="elknode" x="0" y="0" width="200" height="60" /><text id="sprotty_16" class="elklabel" transform="translate(5, 22) translate(0, 0)" opacity="1">k8s_rbac_authorization_k8s_io_v1_cluster_role_binding.this</text></g><g id="sprotty_31" transform="translate(350, 270)" opacity="1"><rect class="elknode" x="0" y="0" width="200" height="60" /><text id="sprotty_32" class="elklabel" transform="translate(5, 22) translate(0, 0)" opacity="1">k8s_apps_v1_deployment.this</text></g><g id="sprotty_33" transform="translate(100, 380)" opacity="1"><rect class="elknode" x="0" y="0" width="200" height="60" /><text id="sprotty_34" class="elklabel" transform="translate(5, 22) translate(0, 0)" opacity="1">k8s_core_v1_config_map.this</text></g><g id="sprotty_36" transform="translate(350, 380)" opacity="1"><rect class="elknode" x="0" y="0" width="200" height="60" /><text id="sprotty_37" class="elklabel" transform="translate(5, 22) translate(0, 0)" opacity="1">k8s_rbac_authorization_k8s_io_v1_cluster_role_binding.this</text></g><g id="sprotty_72" transform="translate(100, 490)" opacity="1"><rect class="elknode" x="0" y="0" width="200" height="60" /><text id="sprotty_73" class="elklabel" transform="translate(5, 22) translate(0, 0)" opacity="1">local.labels</text></g><g id="sprotty_78" transform="translate(350, 490)" opacity="1"><rect class="elknode" x="0" y="0" width="200" height="60" /><text id="sprotty_79" class="elklabel" transform="translate(5, 22) translate(0, 0)" opacity="1">k8s_core_v1_service.this</text></g><g id="sprotty_92" transform="translate(100, 600)" opacity="1"><rect class="elknode" x="0" y="0" width="200" height="60" /><text id="sprotty_93" class="elklabel" transform="translate(5, 22) translate(0, 0)" opacity="1">k8s_core_v1_service_account.this</text></g><g id="sprotty_39" transform="translate(-16, 50)" opacity="1"><rect class="elkport" x="0" y="0" width="16" height="9" /><text id="sprotty_40" class="elklabel" transform="translate(-1, 10) translate(0, 0)" opacity="1">annotations</text></g><g id="sprotty_42" transform="translate(-16, 110)" opacity="1"><rect class="elkport" x="0" y="0" width="16" height="9" /><text id="sprotty_43" class="elklabel" transform="translate(-1, 10) translate(0, 0)" opacity="1">dns_policy</text></g><g id="sprotty_45" transform="translate(-16, 170)" opacity="1"><rect class="elkport" x="0" y="0" width="16" height="9" /><text id="sprotty_46" class="elklabel" transform="translate(-1, 10) translate(0, 0)" opacity="1">gitlab_url</text></g><g id="sprotty_48" transform="translate(-16, 230)" opacity="1"><rect class="elkport" x="0" y="0" width="16" height="9" /><text id="sprotty_49" class="elklabel" transform="translate(-1, 10) translate(0, 0)" opacity="1">image</text></g><g id="sprotty_51" transform="translate(-16, 290)" opacity="1"><rect class="elkport" x="0" y="0" width="16" height="9" /><text id="sprotty_52" class="elklabel" transform="translate(-1, 10) translate(0, 0)" opacity="1">node_selector</text></g><g id="sprotty_54" transform="translate(-16, 350)" opacity="1"><rect class="elkport" x="0" y="0" width="16" height="9" /><text id="sprotty_55" class="elklabel" transform="translate(-1, 10) translate(0, 0)" opacity="1">priority_class_name</text></g><g id="sprotty_57" transform="translate(-16, 410)" opacity="1"><rect class="elkport" x="0" y="0" width="16" height="9" /><text id="sprotty_58" class="elklabel" transform="translate(-1, 10) translate(0, 0)" opacity="1">registration_token</text></g><g id="sprotty_60" transform="translate(-16, 470)" opacity="1"><rect class="elkport" x="0" y="0" width="16" height="9" /><text id="sprotty_61" class="elklabel" transform="translate(-1, 10) translate(0, 0)" opacity="1">replicas</text></g><g id="sprotty_63" transform="translate(-16, 530)" opacity="1"><rect class="elkport" x="0" y="0" width="16" height="9" /><text id="sprotty_64" class="elklabel" transform="translate(-1, 10) translate(0, 0)" opacity="1">restart_policy</text></g><g id="sprotty_66" transform="translate(-16, 590)" opacity="1"><rect class="elkport" x="0" y="0" width="16" height="9" /><text id="sprotty_67" class="elklabel" transform="translate(-1, 10) translate(0, 0)" opacity="1">scheduler_name</text></g><g id="sprotty_69" transform="translate(-16, 650)" opacity="1"><rect class="elkport" x="0" y="0" width="16" height="9" /><text id="sprotty_70" class="elklabel" transform="translate(-1, 10) translate(0, 0)" opacity="1">termination_grace_period_seconds</text></g><g id="sprotty_75" transform="translate(-16, 710)" opacity="1"><rect class="elkport" x="0" y="0" width="16" height="9" /><text id="sprotty_76" class="elklabel" transform="translate(-1, 10) translate(0, 0)" opacity="1">namespace</text></g><g id="sprotty_83" transform="translate(-16, 770)" opacity="1"><rect class="elkport" x="0" y="0" width="16" height="9" /><text id="sprotty_84" class="elklabel" transform="translate(-1, 10) translate(0, 0)" opacity="1">port</text></g><g id="sprotty_86" transform="translate(-16, 830)" opacity="1"><rect class="elkport" x="0" y="0" width="16" height="9" /><text id="sprotty_87" class="elklabel" transform="translate(-1, 10) translate(0, 0)" opacity="1">service_type</text></g><g id="sprotty_89" transform="translate(-16, 890)" opacity="1"><rect class="elkport" x="0" y="0" width="16" height="9" /><text id="sprotty_90" class="elklabel" transform="translate(-1, 10) translate(0, 0)" opacity="1">session_affinity</text></g><g id="sprotty_97" transform="translate(-16, 950)" opacity="1"><rect class="elkport" x="0" y="0" width="16" height="9" /><text id="sprotty_98" class="elklabel" transform="translate(-1, 10) translate(0, 0)" opacity="1">name</text></g><g id="sprotty_100" transform="translate(650, 50)" opacity="1"><rect class="elkport" x="0" y="0" width="16" height="9" /><text id="sprotty_101" class="elklabel" transform="translate(17, 10) translate(0, 0)" opacity="1">cluster_ip</text></g><g id="sprotty_103" transform="translate(650, 110)" opacity="1"><rect class="elkport" x="0" y="0" width="16" height="9" /><text id="sprotty_104" class="elklabel" transform="translate(17, 10) translate(0, 0)" opacity="1">deployment_uid</text></g><g id="sprotty_106" transform="translate(650, 170)" opacity="1"><rect class="elkport" x="0" y="0" width="16" height="9" /><text id="sprotty_107" class="elklabel" transform="translate(17, 10) translate(0, 0)" opacity="1">name</text></g><g id="sprotty_109" transform="translate(650, 230)" opacity="1"><rect class="elkport" x="0" y="0" width="16" height="9" /><text id="sprotty_110" class="elklabel" transform="translate(17, 10) translate(0, 0)" opacity="1">port</text></g><text id="sprotty_6" class="elklabel" transform="translate(0, -21) translate(0, 0)" opacity="1">gitlab-runner</text></g><g id="sprotty_17" transform="translate(147, 191)" opacity="1"><rect class="elknode" x="0" y="0" width="650" height="1010" /><g id="sprotty_19" transform="translate(100, 50)" opacity="1"><rect class="elknode" x="0" y="0" width="200" height="60" /><text id="sprotty_20" class="elklabel" transform="translate(5, 22) translate(0, 0)" opacity="1">k8s_apps_v1_stateful_set.gitlab</text></g><g id="sprotty_21" transform="translate(350, 50)" opacity="1"><rect class="elknode" x="0" y="0" width="200" height="60" /><text id="sprotty_22" class="elklabel" transform="translate(5, 22) translate(0, 0)" opacity="1">k8s_core_v1_service.gitlab</text></g><g id="sprotty_23" transform="translate(100, 160)" opacity="1"><rect class="elknode" x="0" y="0" width="200" height="60" /><text id="sprotty_24" class="elklabel" transform="translate(5, 22) translate(0, 0)" opacity="1">k8s_core_v1_service_account.gitlab</text></g><g id="sprotty_25" transform="translate(350, 160)" opacity="1"><rect class="elknode" x="0" y="0" width="200" height="60" /><text id="sprotty_26" class="elklabel" transform="translate(5, 22) translate(0, 0)" opacity="1">k8s_policy_v1beta1_pod_disruption_budget.this</text></g><g id="sprotty_27" transform="translate(100, 270)" opacity="1"><rect class="elknode" x="0" y="0" width="200" height="60" /><text id="sprotty_28" class="elklabel" transform="translate(5, 22) translate(0, 0)" opacity="1">k8s_rbac_authorization_k8s_io_v1_cluster_role.gitlab</text></g><g id="sprotty_29" transform="translate(350, 270)" opacity="1"><rect class="elknode" x="0" y="0" width="200" height="60" /><text id="sprotty_30" class="elklabel" transform="translate(5, 22) translate(0, 0)" opacity="1">k8s_rbac_authorization_k8s_io_v1_cluster_role_binding.gitlab</text></g><g id="sprotty_124" transform="translate(100, 380)" opacity="1"><rect class="elknode" x="0" y="0" width="200" height="60" /><text id="sprotty_125" class="elklabel" transform="translate(5, 22) translate(0, 0)" opacity="1">k8s_apps_v1_stateful_set.gitlab</text></g><g id="sprotty_126" transform="translate(350, 380)" opacity="1"><rect class="elknode" x="0" y="0" width="200" height="60" /><text id="sprotty_127" class="elklabel" transform="translate(5, 22) translate(0, 0)" opacity="1">k8s_core_v1_service.gitlab</text></g><g id="sprotty_129" transform="translate(100, 490)" opacity="1"><rect class="elknode" x="0" y="0" width="200" height="60" /><text id="sprotty_130" class="elklabel" transform="translate(5, 22) translate(0, 0)" opacity="1">k8s_rbac_authorization_k8s_io_v1_cluster_role_binding.gitlab</text></g><g id="sprotty_132" transform="translate(350, 490)" opacity="1"><rect class="elknode" x="0" y="0" width="200" height="60" /><text id="sprotty_133" class="elklabel" transform="translate(5, 22) translate(0, 0)" opacity="1">local.gitlab_omnibus_config</text></g><g id="sprotty_162" transform="translate(100, 600)" opacity="1"><rect class="elknode" x="0" y="0" width="200" height="60" /><text id="sprotty_163" class="elklabel" transform="translate(5, 22) translate(0, 0)" opacity="1">local.labels</text></g><g id="sprotty_174" transform="translate(350, 600)" opacity="1"><rect class="elknode" x="0" y="0" width="200" height="60" /><text id="sprotty_175" class="elklabel" transform="translate(5, 22) translate(0, 0)" opacity="1">k8s_core_v1_service_account.gitlab</text></g><g id="sprotty_180" transform="translate(100, 710)" opacity="1"><rect class="elknode" x="0" y="0" width="200" height="60" /><text id="sprotty_181" class="elklabel" transform="translate(5, 22) translate(0, 0)" opacity="1">k8s_policy_v1beta1_pod_disruption_budget.this</text></g><g id="sprotty_183" transform="translate(350, 710)" opacity="1"><rect class="elknode" x="0" y="0" width="200" height="60" /><text id="sprotty_184" class="elklabel" transform="translate(5, 22) translate(0, 0)" opacity="1">k8s_rbac_authorization_k8s_io_v1_cluster_role.gitlab</text></g><g id="sprotty_112" transform="translate(650, 50)" opacity="1"><rect class="elkport" x="0" y="0" width="16" height="9" /><text id="sprotty_113" class="elklabel" transform="translate(17, 10) translate(0, 0)" opacity="1">gitlab_external_url</text></g><g id="sprotty_118" transform="translate(650, 110)" opacity="1"><rect class="elkport" x="0" y="0" width="16" height="9" /><text id="sprotty_119" class="elklabel" transform="translate(17, 10) translate(0, 0)" opacity="1">gitlab_runners_registration_token</text></g><g id="sprotty_135" transform="translate(-16, 50)" opacity="1"><rect class="elkport" x="0" y="0" width="16" height="9" /><text id="sprotty_136" class="elklabel" transform="translate(-1, 10) translate(0, 0)" opacity="1">auto_devops_domain</text></g><g id="sprotty_138" transform="translate(-16, 110)" opacity="1"><rect class="elkport" x="0" y="0" width="16" height="9" /><text id="sprotty_139" class="elklabel" transform="translate(-1, 10) translate(0, 0)" opacity="1">gitlab_root_password</text></g><g id="sprotty_141" transform="translate(-16, 170)" opacity="1"><rect class="elkport" x="0" y="0" width="16" height="9" /><text id="sprotty_142" class="elklabel" transform="translate(-1, 10) translate(0, 0)" opacity="1">gitlab_runners_registration_token</text></g><g id="sprotty_144" transform="translate(-16, 230)" opacity="1"><rect class="elkport" x="0" y="0" width="16" height="9" /><text id="sprotty_145" class="elklabel" transform="translate(-1, 10) translate(0, 0)" opacity="1">image</text></g><g id="sprotty_147" transform="translate(-16, 290)" opacity="1"><rect class="elkport" x="0" y="0" width="16" height="9" /><text id="sprotty_148" class="elklabel" transform="translate(-1, 10) translate(0, 0)" opacity="1">node_selector</text></g><g id="sprotty_150" transform="translate(-16, 350)" opacity="1"><rect class="elkport" x="0" y="0" width="16" height="9" /><text id="sprotty_151" class="elklabel" transform="translate(-1, 10) translate(0, 0)" opacity="1">replicas</text></g><g id="sprotty_153" transform="translate(-16, 410)" opacity="1"><rect class="elkport" x="0" y="0" width="16" height="9" /><text id="sprotty_154" class="elklabel" transform="translate(-1, 10) translate(0, 0)" opacity="1">storage</text></g><g id="sprotty_156" transform="translate(-16, 470)" opacity="1"><rect class="elkport" x="0" y="0" width="16" height="9" /><text id="sprotty_157" class="elklabel" transform="translate(-1, 10) translate(0, 0)" opacity="1">storage_class_name</text></g><g id="sprotty_159" transform="translate(-16, 530)" opacity="1"><rect class="elkport" x="0" y="0" width="16" height="9" /><text id="sprotty_160" class="elklabel" transform="translate(-1, 10) translate(0, 0)" opacity="1">volume_claim_template_name</text></g><g id="sprotty_165" transform="translate(-16, 590)" opacity="1"><rect class="elkport" x="0" y="0" width="16" height="9" /><text id="sprotty_166" class="elklabel" transform="translate(-1, 10) translate(0, 0)" opacity="1">annotations</text></g><g id="sprotty_168" transform="translate(-16, 650)" opacity="1"><rect class="elkport" x="0" y="0" width="16" height="9" /><text id="sprotty_169" class="elklabel" transform="translate(-1, 10) translate(0, 0)" opacity="1">namespace</text></g><g id="sprotty_171" transform="translate(-16, 710)" opacity="1"><rect class="elkport" x="0" y="0" width="16" height="9" /><text id="sprotty_172" class="elklabel" transform="translate(-1, 10) translate(0, 0)" opacity="1">port</text></g><g id="sprotty_176" transform="translate(-16, 770)" opacity="1"><rect class="elkport" x="0" y="0" width="16" height="9" /><text id="sprotty_177" class="elklabel" transform="translate(-1, 10) translate(0, 0)" opacity="1">name</text></g><g id="sprotty_188" transform="translate(-16, 830)" opacity="1"><rect class="elkport" x="0" y="0" width="16" height="9" /><text id="sprotty_189" class="elklabel" transform="translate(-1, 10) translate(0, 0)" opacity="1">gitlab_external_url</text></g><g id="sprotty_191" transform="translate(-16, 890)" opacity="1"><rect class="elkport" x="0" y="0" width="16" height="9" /><text id="sprotty_192" class="elklabel" transform="translate(-1, 10) translate(0, 0)" opacity="1">mattermost_external_url</text></g><g id="sprotty_194" transform="translate(-16, 950)" opacity="1"><rect class="elkport" x="0" y="0" width="16" height="9" /><text id="sprotty_195" class="elklabel" transform="translate(-1, 10) translate(0, 0)" opacity="1">registry_external_url</text></g><g id="sprotty_198" transform="translate(650, 170)" opacity="1"><rect class="elkport" x="0" y="0" width="16" height="9" /><text id="sprotty_199" class="elklabel" transform="translate(17, 10) translate(0, 0)" opacity="1">cluster_ip</text></g><g id="sprotty_203" transform="translate(650, 230)" opacity="1"><rect class="elkport" x="0" y="0" width="16" height="9" /><text id="sprotty_204" class="elklabel" transform="translate(17, 10) translate(0, 0)" opacity="1">name</text></g><g id="sprotty_206" transform="translate(650, 290)" opacity="1"><rect class="elkport" x="0" y="0" width="16" height="9" /><text id="sprotty_207" class="elklabel" transform="translate(17, 10) translate(0, 0)" opacity="1">port</text></g><g id="sprotty_209" transform="translate(650, 350)" opacity="1"><rect class="elkport" x="0" y="0" width="16" height="9" /><text id="sprotty_210" class="elklabel" transform="translate(17, 10) translate(0, 0)" opacity="1">statefulset_uid</text></g><text id="sprotty_18" class="elklabel" transform="translate(0, -21) translate(0, 0)" opacity="1">gitlab</text></g><g id="sprotty_115" transform="translate(-16, 1256.5)" opacity="1"><rect class="elkport" x="0" y="0" width="16" height="9" /><text id="sprotty_116" class="elklabel" transform="translate(-1, 10) translate(0, 0)" opacity="1">name</text></g><g id="sprotty_121" transform="translate(-16, 104.5)" opacity="1"><rect class="elkport" x="0" y="0" width="16" height="9" /><text id="sprotty_122" class="elklabel" transform="translate(-1, 10) translate(0, 0)" opacity="1">gitlab_runner_replicas</text></g><g id="sprotty_212" transform="translate(-16, 781)" opacity="1"><rect class="elkport" x="0" y="0" width="16" height="9" /><text id="sprotty_213" class="elklabel" transform="translate(-1, 10) translate(0, 0)" opacity="1">annotations</text></g><g id="sprotty_215" transform="translate(-16, 241)" opacity="1"><rect class="elkport" x="0" y="0" width="16" height="9" /><text id="sprotty_216" class="elklabel" transform="translate(-1, 10) translate(0, 0)" opacity="1">auto_devops_domain</text></g><g id="sprotty_218" transform="translate(-16, 1021)" opacity="1"><rect class="elkport" x="0" y="0" width="16" height="9" /><text id="sprotty_219" class="elklabel" transform="translate(-1, 10) translate(0, 0)" opacity="1">gitlab_external_url</text></g><g id="sprotty_221" transform="translate(-16, 301)" opacity="1"><rect class="elkport" x="0" y="0" width="16" height="9" /><text id="sprotty_222" class="elklabel" transform="translate(-1, 10) translate(0, 0)" opacity="1">gitlab_root_password</text></g><g id="sprotty_224" transform="translate(-16, 361)" opacity="1"><rect class="elkport" x="0" y="0" width="16" height="9" /><text id="sprotty_225" class="elklabel" transform="translate(-1, 10) translate(0, 0)" opacity="1">gitlab_runners_registration_token</text></g><g id="sprotty_227" transform="translate(-16, 1081)" opacity="1"><rect class="elkport" x="0" y="0" width="16" height="9" /><text id="sprotty_228" class="elklabel" transform="translate(-1, 10) translate(0, 0)" opacity="1">mattermost_external_url</text></g><g id="sprotty_231" transform="translate(-16, 1141)" opacity="1"><rect class="elkport" x="0" y="0" width="16" height="9" /><text id="sprotty_232" class="elklabel" transform="translate(-1, 10) translate(0, 0)" opacity="1">registry_external_url</text></g><g id="sprotty_234" transform="translate(-16, 601)" opacity="1"><rect class="elkport" x="0" y="0" width="16" height="9" /><text id="sprotty_235" class="elklabel" transform="translate(-1, 10) translate(0, 0)" opacity="1">storage</text></g><g id="sprotty_237" transform="translate(-16, 661)" opacity="1"><rect class="elkport" x="0" y="0" width="16" height="9" /><text id="sprotty_238" class="elklabel" transform="translate(-1, 10) translate(0, 0)" opacity="1">storage_class_name</text></g><g id="sprotty_240" transform="translate(1658, 1316.5)" opacity="1"><rect class="elkport" x="0" y="0" width="16" height="9" /><text id="sprotty_241" class="elklabel" transform="translate(17, 10) translate(0, 0)" opacity="1">gitlab_external_url</text></g><g id="sprotty_243" transform="translate(1658, 1126.5)" opacity="1"><rect class="elkport" x="0" y="0" width="16" height="9" /><text id="sprotty_244" class="elklabel" transform="translate(17, 10) translate(0, 0)" opacity="1">gitlab_name</text></g><g id="sprotty_246" transform="translate(1658, 1186.5)" opacity="1"><rect class="elkport" x="0" y="0" width="16" height="9" /><text id="sprotty_247" class="elklabel" transform="translate(17, 10) translate(0, 0)" opacity="1">gitlab_port</text></g><g id="sprotty_249" transform="translate(1658, 1376.5)" opacity="1"><rect class="elkport" x="0" y="0" width="16" height="9" /><text id="sprotty_250" class="elklabel" transform="translate(17, 10) translate(0, 0)" opacity="1">mattermost_external_url</text></g><text id="sprotty_4" class="elklabel" transform="translate(0, -21) translate(0, 0)" opacity="1">solutions/gitlab</text><g id="sprotty_35" class="sprotty-edge" opacity="1"><path class="elkedge" d="M 1159.1818181818182,451 L 1272.8181818181818,401" /><path class="edge arrow" d="M 0,0 L 8,-3 L 8,3 Z" transform="rotate(156.25050550713323 1272.8181818181818 401) translate(1272.8181818181818 401)" /></g><g id="sprotty_38" class="sprotty-edge" opacity="1"><path class="elkedge" d="M 1341,451 L 1341,401" /><path class="edge arrow" d="M 0,0 L 8,-3 L 8,3 Z" transform="rotate(90 1341 401) translate(1341 401)" /></g><g id="sprotty_41" class="sprotty-edge" opacity="1"><path class="elkedge" d="M 891,129.7882096069869 L 1285.0325865580448,341" /><path class="edge arrow" d="M 0,0 L 8,-3 L 8,3 Z" transform="rotate(-151.80752547398862 1285.0325865580448 341) translate(1285.0325865580448 341)" /></g><g id="sprotty_44" class="sprotty-edge" opacity="1"><path class="elkedge" d="M 891,188.74017467248908 L 1266.9299191374662,341" /><path class="edge arrow" d="M 0,0 L 8,-3 L 8,3 Z" transform="rotate(-157.95097782580274 1266.9299191374662 341) translate(1266.9299191374662 341)" /></g><g id="sprotty_47" class="sprotty-edge" opacity="1"><path class="elkedge" d="M 891,247.69213973799125 L 1241,343.5982532751092" /><path class="edge arrow" d="M 0,0 L 8,-3 L 8,3 Z" transform="rotate(-164.67609888158913 1241 343.5982532751092) translate(1241 343.5982532751092)" /></g><g id="sprotty_50" class="sprotty-edge" opacity="1"><path class="elkedge" d="M 891,306.64410480349346 L 1241,356.69868995633186" /><path class="edge arrow" d="M 0,0 L 8,-3 L 8,3 Z" transform="rotate(-171.86114084024004 1241 356.69868995633186) translate(1241 356.69868995633186)" /></g><g id="sprotty_53" class="sprotty-edge" opacity="1"><path class="elkedge" d="M 891,365.59606986899564 L 1241,369.7991266375546" /><path class="edge arrow" d="M 0,0 L 8,-3 L 8,3 Z" transform="rotate(-179.3119833176395 1241 369.7991266375546) translate(1241 369.7991266375546)" /></g><g id="sprotty_56" class="sprotty-edge" opacity="1"><path class="elkedge" d="M 891,424.5480349344978 L 1241,382.89956331877727" /><path class="edge arrow" d="M 0,0 L 8,-3 L 8,3 Z" transform="rotate(173.2139623904464 1241 382.89956331877727) translate(1241 382.89956331877727)" /></g><g id="sprotty_59" class="sprotty-edge" opacity="1"><path class="elkedge" d="M 891,483.5 L 1241,396" /><path class="edge arrow" d="M 0,0 L 8,-3 L 8,3 Z" transform="rotate(165.96375653207352 1241 396) translate(1241 396)" /></g><g id="sprotty_62" class="sprotty-edge" opacity="1"><path class="elkedge" d="M 891,542.4519650655022 L 1262.2607449856732,401" /><path class="edge arrow" d="M 0,0 L 8,-3 L 8,3 Z" transform="rotate(159.1429409172278 1262.2607449856732 401) translate(1262.2607449856732 401)" /></g><g id="sprotty_65" class="sprotty-edge" opacity="1"><path class="elkedge" d="M 891,601.4039301310044 L 1282.4072494669508,401" /><path class="edge arrow" d="M 0,0 L 8,-3 L 8,3 Z" transform="rotate(152.88715710535882 1282.4072494669508 401) translate(1282.4072494669508 401)" /></g><g id="sprotty_68" class="sprotty-edge" opacity="1"><path class="elkedge" d="M 889.9983022071307,661 L 1294.3446519524618,401" /><path class="edge arrow" d="M 0,0 L 8,-3 L 8,3 Z" transform="rotate(147.25845143500626 1294.3446519524618 401) translate(1294.3446519524618 401)" /></g><g id="sprotty_71" class="sprotty-edge" opacity="1"><path class="elkedge" d="M 888.8138222849083,721 L 1302.241184767278,401" /><path class="edge arrow" d="M 0,0 L 8,-3 L 8,3 Z" transform="rotate(142.25950305314655 1302.241184767278 401) translate(1302.241184767278 401)" /></g><g id="sprotty_74" class="sprotty-edge" opacity="1"><path class="elkedge" d="M 1091,561 L 1091,511" /><path class="edge arrow" d="M 0,0 L 8,-3 L 8,3 Z" transform="rotate(90 1091 511) translate(1091 511)" /></g><g id="sprotty_77" class="sprotty-edge" opacity="1"><path class="elkedge" d="M 886.0738916256157,781 L 1070.5073891625616,511" /><path class="edge arrow" d="M 0,0 L 8,-3 L 8,3 Z" transform="rotate(124.33647612215326 1070.5073891625616 511) translate(1070.5073891625616 511)" /></g><g id="sprotty_80" class="sprotty-edge" opacity="1"><path class="elkedge" d="M 1191,591 L 1241,591" /><path class="edge arrow" d="M 0,0 L 8,-3 L 8,3 Z" transform="rotate(180 1241 591) translate(1241 591)" /></g><g id="sprotty_81" class="sprotty-edge" opacity="1"><path class="elkedge" d="M 887.4274973147153,130 L 1311.4833512352309,561" /><path class="edge arrow" d="M 0,0 L 8,-3 L 8,3 Z" transform="rotate(-134.53469529037108 1311.4833512352309 561) translate(1311.4833512352309 561)" /></g><g id="sprotty_82" class="sprotty-edge" opacity="1"><path class="elkedge" d="M 891,782.1026200873363 L 1270.3573264781492,621" /><path class="edge arrow" d="M 0,0 L 8,-3 L 8,3 Z" transform="rotate(156.99040398334577 1270.3573264781492 621) translate(1270.3573264781492 621)" /></g><g id="sprotty_85" class="sprotty-edge" opacity="1"><path class="elkedge" d="M 891,841.0545851528384 L 1287.0117878192534,621" /><path class="edge arrow" d="M 0,0 L 8,-3 L 8,3 Z" transform="rotate(150.9400853272507 1287.0117878192534 621) translate(1287.0117878192534 621)" /></g><g id="sprotty_88" class="sprotty-edge" opacity="1"><path class="elkedge" d="M 889.5532591414944,901 L 1297.3116057233703,621" /><path class="edge arrow" d="M 0,0 L 8,-3 L 8,3 Z" transform="rotate(145.52334488177576 1297.3116057233703 621) translate(1297.3116057233703 621)" /></g><g id="sprotty_91" class="sprotty-edge" opacity="1"><path class="elkedge" d="M 888.5033377837116,961 L 1304.3110814419226,621" /><path class="edge arrow" d="M 0,0 L 8,-3 L 8,3 Z" transform="rotate(140.72762821445298 1304.3110814419226 621) translate(1304.3110814419226 621)" /></g><g id="sprotty_94" class="sprotty-edge" opacity="1"><path class="elkedge" d="M 1091,621 L 1091,671" /><path class="edge arrow" d="M 0,0 L 8,-3 L 8,3 Z" transform="rotate(-90 1091 671) translate(1091 671)" /></g><g id="sprotty_95" class="sprotty-edge" opacity="1"><path class="elkedge" d="M 891,782.25 L 1017.1538461538462,731" /><path class="edge arrow" d="M 0,0 L 8,-3 L 8,3 Z" transform="rotate(157.89055165624833 1017.1538461538462 731) translate(1017.1538461538462 731)" /></g><g id="sprotty_96" class="sprotty-edge" opacity="1"><path class="elkedge" d="M 1125.090909090909,671 L 1306.909090909091,511" /><path class="edge arrow" d="M 0,0 L 8,-3 L 8,3 Z" transform="rotate(138.65222278030637 1306.909090909091 511) translate(1306.909090909091 511)" /></g><g id="sprotty_99" class="sprotty-edge" opacity="1"><path class="elkedge" d="M 885.1542002301496,1021 L 1076.638665132336,621" /><path class="edge arrow" d="M 0,0 L 8,-3 L 8,3 Z" transform="rotate(115.5809586169462 1076.638665132336 621) translate(1076.638665132336 621)" /></g><g id="sprotty_102" class="sprotty-edge" opacity="1"><path class="elkedge" d="M 1354.404940923738,561 L 1546.9892588614393,130" /><path class="edge arrow" d="M 0,0 L 8,-3 L 8,3 Z" transform="rotate(114.0765897487924 1546.9892588614393 130) translate(1546.9892588614393 130)" /></g><g id="sprotty_105" class="sprotty-edge" opacity="1"><path class="elkedge" d="M 1374.6388140161725,341 L 1543.954177897574,190" /><path class="edge arrow" d="M 0,0 L 8,-3 L 8,3 Z" transform="rotate(138.27256122803203 1543.954177897574 190) translate(1543.954177897574 190)" /></g><g id="sprotty_108" class="sprotty-edge" opacity="1"><path class="elkedge" d="M 1359.0607814761215,561 L 1546.2908827785818,250" /><path class="edge arrow" d="M 0,0 L 8,-3 L 8,3 Z" transform="rotate(121.04903617494381 1546.2908827785818 250) translate(1546.2908827785818 250)" /></g><g id="sprotty_111" class="sprotty-edge" opacity="1"><path class="elkedge" d="M 1362.8563922942208,561 L 1545.7215411558668,310" /><path class="edge arrow" d="M 0,0 L 8,-3 L 8,3 Z" transform="rotate(126.07507513660738 1545.7215411558668 310) translate(1545.7215411558668 310)" /></g><g id="sprotty_114" class="sprotty-edge" opacity="1"><path class="elkedge" d="M 813,245.5 L 875,245.5" /><path class="edge arrow" d="M 0,0 L 8,-3 L 8,3 Z" transform="rotate(180 875 245.5) translate(875 245.5)" /></g><g id="sprotty_117" class="sprotty-edge" opacity="1"><path class="elkedge" d="M 0,1261 L 854,1261 L 854,1025.5 L 875,1025.5" /><path class="edge arrow" d="M 0,0 L 8,-3 L 8,3 Z" transform="rotate(180 875 1025.5) translate(875 1025.5)" /></g><g id="sprotty_120" class="sprotty-edge" opacity="1"><path class="elkedge" d="M 813,305.5 L 854,305.5 L 854,485.5 L 875,485.5" /><path class="edge arrow" d="M 0,0 L 8,-3 L 8,3 Z" transform="rotate(180 875 485.5) translate(875 485.5)" /></g><g id="sprotty_123" class="sprotty-edge" opacity="1"><path class="elkedge" d="M 0,109 L 864,109 L 864,545.5 L 875,545.5" /><path class="edge arrow" d="M 0,0 L 8,-3 L 8,3 Z" transform="rotate(180 875 545.5) translate(875 545.5)" /></g><g id="sprotty_128" class="sprotty-edge" opacity="1"><path class="elkedge" d="M 497,601 L 447,601" /><path class="edge arrow" d="M 0,0 L 8,-3 L 8,3 Z" transform="rotate(0 447 601) translate(447 601)" /></g><g id="sprotty_131" class="sprotty-edge" opacity="1"><path class="elkedge" d="M 347,681 L 347,631" /><path class="edge arrow" d="M 0,0 L 8,-3 L 8,3 Z" transform="rotate(90 347 631) translate(347 631)" /></g><g id="sprotty_134" class="sprotty-edge" opacity="1"><path class="elkedge" d="M 528.8181818181818,681 L 415.1818181818182,631" /><path class="edge arrow" d="M 0,0 L 8,-3 L 8,3 Z" transform="rotate(23.749494492866777 415.1818181818182 631) translate(415.1818181818182 631)" /></g><g id="sprotty_137" class="sprotty-edge" opacity="1"><path class="elkedge" d="M 141.63291139240505,250 L 329.44725738396625,571" /><path class="edge arrow" d="M 0,0 L 8,-3 L 8,3 Z" transform="rotate(-120.3315364470422 329.44725738396625 571) translate(329.44725738396625 571)" /></g><g id="sprotty_140" class="sprotty-edge" opacity="1"><path class="elkedge" d="M 142.16751269035532,310 L 325.88324873096445,571" /><path class="edge arrow" d="M 0,0 L 8,-3 L 8,3 Z" transform="rotate(-125.14139675071027 325.88324873096445 571) translate(325.88324873096445 571)" /></g><g id="sprotty_143" class="sprotty-edge" opacity="1"><path class="elkedge" d="M 142.97452229299364,370 L 320.5031847133758,571" /><path class="edge arrow" d="M 0,0 L 8,-3 L 8,3 Z" transform="rotate(-131.45181684450975 320.5031847133758 571) translate(320.5031847133758 571)" /></g><g id="sprotty_146" class="sprotty-edge" opacity="1"><path class="elkedge" d="M 144.33333333333334,430 L 311.44444444444446,571" /><path class="edge arrow" d="M 0,0 L 8,-3 L 8,3 Z" transform="rotate(-139.84400037508067 311.44444444444446 571) translate(311.44444444444446 571)" /></g><g id="sprotty_149" class="sprotty-edge" opacity="1"><path class="elkedge" d="M 147,489.9423076923077 L 292.97402597402595,571" /><path class="edge arrow" d="M 0,0 L 8,-3 L 8,3 Z" transform="rotate(-150.95709130380453 292.97402597402595 571) translate(292.97402597402595 571)" /></g><g id="sprotty_152" class="sprotty-edge" opacity="1"><path class="elkedge" d="M 147,547.6346153846154 L 247,574.3173076923076" /><path class="edge arrow" d="M 0,0 L 8,-3 L 8,3 Z" transform="rotate(-165.06001074240623 247 574.3173076923076) translate(247 574.3173076923076)" /></g><g id="sprotty_155" class="sprotty-edge" opacity="1"><path class="elkedge" d="M 147,605.3269230769231 L 247,603.1634615384615" /><path class="edge arrow" d="M 0,0 L 8,-3 L 8,3 Z" transform="rotate(178.7606211894139 247 603.1634615384615) translate(247 603.1634615384615)" /></g><g id="sprotty_158" class="sprotty-edge" opacity="1"><path class="elkedge" d="M 147,663.0192307692307 L 250.25581395348837,631" /><path class="edge arrow" d="M 0,0 L 8,-3 L 8,3 Z" transform="rotate(162.77153775308963 250.25581395348837 631) translate(250.25581395348837 631)" /></g><g id="sprotty_161" class="sprotty-edge" opacity="1"><path class="elkedge" d="M 146.51807228915663,721 L 296.87951807228916,631" /><path class="edge arrow" d="M 0,0 L 8,-3 L 8,3 Z" transform="rotate(149.09704547500695 296.87951807228916 631) translate(296.87951807228916 631)" /></g><g id="sprotty_164" class="sprotty-edge" opacity="1"><path class="elkedge" d="M 381.0909090909091,791 L 562.909090909091,631" /><path class="edge arrow" d="M 0,0 L 8,-3 L 8,3 Z" transform="rotate(138.65222278030637 562.909090909091 631) translate(562.909090909091 631)" /></g><g id="sprotty_167" class="sprotty-edge" opacity="1"><path class="elkedge" d="M 147,782.2772925764192 L 522.5284552845528,631" /><path class="edge arrow" d="M 0,0 L 8,-3 L 8,3 Z" transform="rotate(158.05852965429992 522.5284552845528 631) translate(522.5284552845528 631)" /></g><g id="sprotty_170" class="sprotty-edge" opacity="1"><path class="elkedge" d="M 147,841.2292576419214 L 540.8036809815951,631" /><path class="edge arrow" d="M 0,0 L 8,-3 L 8,3 Z" transform="rotate(151.90479210133444 540.8036809815951 631) translate(540.8036809815951 631)" /></g><g id="sprotty_173" class="sprotty-edge" opacity="1"><path class="elkedge" d="M 145.76847290640393,901 L 551.8768472906404,631" /><path class="edge arrow" d="M 0,0 L 8,-3 L 8,3 Z" transform="rotate(146.382166146685 551.8768472906404 631) translate(551.8768472906404 631)" /></g><g id="sprotty_178" class="sprotty-edge" opacity="1"><path class="elkedge" d="M 147,962.9759825327511 L 501.9134948096886,851" /><path class="edge arrow" d="M 0,0 L 8,-3 L 8,3 Z" transform="rotate(162.48940073961433 501.9134948096886 851) translate(501.9134948096886 851)" /></g><g id="sprotty_179" class="sprotty-edge" opacity="1"><path class="elkedge" d="M 147,845.0720524017468 L 497,826.349344978166" /><path class="edge arrow" d="M 0,0 L 8,-3 L 8,3 Z" transform="rotate(176.9379695873719 497 826.349344978166) translate(497 826.349344978166)" /></g><g id="sprotty_182" class="sprotty-edge" opacity="1"><path class="elkedge" d="M 347,851 L 347,901" /><path class="edge arrow" d="M 0,0 L 8,-3 L 8,3 Z" transform="rotate(-90 347 901) translate(347 901)" /></g><g id="sprotty_185" class="sprotty-edge" opacity="1"><path class="elkedge" d="M 147,964.8973799126637 L 497,938.5327510917031" /><path class="edge arrow" d="M 0,0 L 8,-3 L 8,3 Z" transform="rotate(175.69218709699993 497 938.5327510917031) translate(497 938.5327510917031)" /></g><g id="sprotty_186" class="sprotty-edge" opacity="1"><path class="elkedge" d="M 528.8181818181818,791 L 415.1818181818182,741" /><path class="edge arrow" d="M 0,0 L 8,-3 L 8,3 Z" transform="rotate(23.749494492866777 415.1818181818182 741) translate(415.1818181818182 741)" /></g><g id="sprotty_187" class="sprotty-edge" opacity="1"><path class="elkedge" d="M 562.909090909091,901 L 381.0909090909091,741" /><path class="edge arrow" d="M 0,0 L 8,-3 L 8,3 Z" transform="rotate(41.34777721969366 381.0909090909091 741) translate(381.0909090909091 741)" /></g><g id="sprotty_190" class="sprotty-edge" opacity="1"><path class="elkedge" d="M 145.55325914149444,1021 L 553.3116057233703,741" /><path class="edge arrow" d="M 0,0 L 8,-3 L 8,3 Z" transform="rotate(145.52334488177576 553.3116057233703 741) translate(553.3116057233703 741)" /></g><g id="sprotty_193" class="sprotty-edge" opacity="1"><path class="elkedge" d="M 144.50333778371163,1081 L 560.3110814419226,741" /><path class="edge arrow" d="M 0,0 L 8,-3 L 8,3 Z" transform="rotate(140.72762821445298 560.3110814419226 741) translate(560.3110814419226 741)" /></g><g id="sprotty_196" class="sprotty-edge" opacity="1"><path class="elkedge" d="M 143.7433831990794,1141 L 565.3774453394707,741" /><path class="edge arrow" d="M 0,0 L 8,-3 L 8,3 Z" transform="rotate(136.50827987061712 565.3774453394707 741) translate(565.3774453394707 741)" /></g><g id="sprotty_197" class="sprotty-edge" opacity="1"><path class="elkedge" d="M 145.47750865051904,961 L 303.8166089965398,851" /><path class="edge arrow" d="M 0,0 L 8,-3 L 8,3 Z" transform="rotate(145.21184553487606 303.8166089965398 851) translate(303.8166089965398 851)" /></g><g id="sprotty_200" class="sprotty-edge" opacity="1"><path class="elkedge" d="M 623.4968152866243,571 L 801.0254777070064,370" /><path class="edge arrow" d="M 0,0 L 8,-3 L 8,3 Z" transform="rotate(131.45181684450975 801.0254777070064 370) translate(801.0254777070064 370)" /></g><g id="sprotty_201" class="sprotty-edge" opacity="1"><path class="elkedge" d="M 131,1025.5 L 120,1025.5 L 120,1251 L 824,1251 L 824,245.5 L 813,245.5" /><path class="edge arrow" d="M 0,0 L 8,-3 L 8,3 Z" transform="rotate(0 813 245.5) translate(813 245.5)" /><g id="sprotty_201_j0" transform="translate(120, 1025.5)" opacity="1"><circle class="elkjunction" r="2" /></g><g id="sprotty_201_j1" transform="translate(824, 245.5)" opacity="1"><circle class="elkjunction" r="2" /></g></g><g id="sprotty_202" class="sprotty-edge" opacity="1"><path class="elkedge" d="M 131,365.5 L 110,365.5 L 110,120 L 854,120 L 854,305.5 L 813,305.5" /><path class="edge arrow" d="M 0,0 L 8,-3 L 8,3 Z" transform="rotate(0 813 305.5) translate(813 305.5)" /><g id="sprotty_202_j0" transform="translate(110, 365.5)" opacity="1"><circle class="elkjunction" r="2" /></g><g id="sprotty_202_j1" transform="translate(854, 305.5)" opacity="1"><circle class="elkjunction" r="2" /></g></g><g id="sprotty_205" class="sprotty-edge" opacity="1"><path class="elkedge" d="M 632.5555555555555,571 L 799.6666666666666,430" /><path class="edge arrow" d="M 0,0 L 8,-3 L 8,3 Z" transform="rotate(139.84400037508067 799.6666666666666 430) translate(799.6666666666666 430)" /></g><g id="sprotty_208" class="sprotty-edge" opacity="1"><path class="elkedge" d="M 651.025974025974,571 L 797,489.9423076923077" /><path class="edge arrow" d="M 0,0 L 8,-3 L 8,3 Z" transform="rotate(150.95709130380453 797 489.9423076923077) translate(797 489.9423076923077)" /></g><g id="sprotty_211" class="sprotty-edge" opacity="1"><path class="elkedge" d="M 447,588.882096069869 L 797,546.4694323144105" /><path class="edge arrow" d="M 0,0 L 8,-3 L 8,3 Z" transform="rotate(173.09064089673868 797 546.4694323144105) translate(797 546.4694323144105)" /></g><g id="sprotty_214" class="sprotty-edge" opacity="1"><path class="elkedge" d="M 0,785.5 L 131,785.5" /><path class="edge arrow" d="M 0,0 L 8,-3 L 8,3 Z" transform="rotate(180 131 785.5) translate(131 785.5)" /></g><g id="sprotty_217" class="sprotty-edge" opacity="1"><path class="elkedge" d="M 0,245.5 L 131,245.5" /><path class="edge arrow" d="M 0,0 L 8,-3 L 8,3 Z" transform="rotate(180 131 245.5) translate(131 245.5)" /></g><g id="sprotty_220" class="sprotty-edge" opacity="1"><path class="elkedge" d="M 0,1025.5 L 131,1025.5" /><path class="edge arrow" d="M 0,0 L 8,-3 L 8,3 Z" transform="rotate(180 131 1025.5) translate(131 1025.5)" /></g><g id="sprotty_223" class="sprotty-edge" opacity="1"><path class="elkedge" d="M 0,305.5 L 131,305.5" /><path class="edge arrow" d="M 0,0 L 8,-3 L 8,3 Z" transform="rotate(180 131 305.5) translate(131 305.5)" /></g><g id="sprotty_226" class="sprotty-edge" opacity="1"><path class="elkedge" d="M 0,365.5 L 131,365.5" /><path class="edge arrow" d="M 0,0 L 8,-3 L 8,3 Z" transform="rotate(180 131 365.5) translate(131 365.5)" /></g><g id="sprotty_229" class="sprotty-edge" opacity="1"><path class="elkedge" d="M 0,1085.5 L 131,1085.5" /><path class="edge arrow" d="M 0,0 L 8,-3 L 8,3 Z" transform="rotate(180 131 1085.5) translate(131 1085.5)" /></g><g id="sprotty_230" class="sprotty-edge" opacity="1"><path class="elkedge" d="M 0,1261 L 110,1261 L 110,965.5 L 131,965.5" /><path class="edge arrow" d="M 0,0 L 8,-3 L 8,3 Z" transform="rotate(180 131 965.5) translate(131 965.5)" /><g id="sprotty_230_j0" transform="translate(110, 1261)" opacity="1"><circle class="elkjunction" r="2" /></g></g><g id="sprotty_233" class="sprotty-edge" opacity="1"><path class="elkedge" d="M 0,1145.5 L 131,1145.5" /><path class="edge arrow" d="M 0,0 L 8,-3 L 8,3 Z" transform="rotate(180 131 1145.5) translate(131 1145.5)" /></g><g id="sprotty_236" class="sprotty-edge" opacity="1"><path class="elkedge" d="M 0,605.5 L 131,605.5" /><path class="edge arrow" d="M 0,0 L 8,-3 L 8,3 Z" transform="rotate(180 131 605.5) translate(131 605.5)" /></g><g id="sprotty_239" class="sprotty-edge" opacity="1"><path class="elkedge" d="M 0,665.5 L 131,665.5" /><path class="edge arrow" d="M 0,0 L 8,-3 L 8,3 Z" transform="rotate(180 131 665.5) translate(131 665.5)" /></g><g id="sprotty_242" class="sprotty-edge" opacity="1"><path class="elkedge" d="M 0,1026.9121863799282 L 1658,1319.5878136200718" /><path class="edge arrow" d="M 0,0 L 8,-3 L 8,3 Z" transform="rotate(-169.9890914156796 1658 1319.5878136200718) translate(1658 1319.5878136200718)" /></g><g id="sprotty_245" class="sprotty-edge" opacity="1"><path class="elkedge" d="M 813,425.5 L 844,425.5 L 844,1131 L 1658,1131" /><path class="edge arrow" d="M 0,0 L 8,-3 L 8,3 Z" transform="rotate(180 1658 1131) translate(1658 1131)" /></g><g id="sprotty_248" class="sprotty-edge" opacity="1"><path class="elkedge" d="M 813,485.5 L 834,485.5 L 834,1191 L 1658,1191" /><path class="edge arrow" d="M 0,0 L 8,-3 L 8,3 Z" transform="rotate(180 1658 1191) translate(1658 1191)" /></g><g id="sprotty_251" class="sprotty-edge" opacity="1"><path class="elkedge" d="M 0,1086.9121863799282 L 1658,1379.5878136200718" /><path class="edge arrow" d="M 0,0 L 8,-3 L 8,3 Z" transform="rotate(-169.9890914156796 1658 1379.5878136200718) translate(1658 1379.5878136200718)" /></g></g></g></svg>
