<svg id="sprotty_graph1" class="sprotty-graph sprotty" tabindex="1002" xmlns="http://www.w3.org/2000/svg"><style>.elknode {
    stroke: #448;
    stroke-width: 2;
    fill: #ddf;
}

.elkport {
    stroke: #448;
    stroke-width: 1;
    fill: #66c;
}

.elkedge {
    fill: none;
    stroke: #224;
    stroke-width: 1;
}

.elkedge.arrow {
    fill: #336;
}

.elklabel {
    stroke-width: 0;
    stroke: #000;
    fill: #000;
    font-family: sans-serif;
    font-size: 10pt;
    dominant-baseline: hanging;
}

.elkjunction {
    stroke: none;
    fill: #224;
}

.selected &gt; rect {
    stroke-width: 3;
}

.mouseover {
    stroke: #88f;
}
/*
 * Copyright (C) 2017 TypeFox and others.
 *
 * Licensed under the Apache License, Version 2.0 (the &quot;License&quot;); you may not use this file except in compliance with the License.
 * You may obtain a copy of the License at http://www.apache.org/licenses/LICENSE-2.0
 */

.sprotty {
    padding: 0px;
    font-family: &quot;Helvetica Neue&quot;, Helvetica, Arial, sans-serif;
}

.sprotty-hidden {
    display: block;
    position: absolute;
    width: 0px;
    height: 0px;
}

.sprotty-popup {
    font-family: &quot;Helvetica Neue&quot;, Helvetica, Arial, sans-serif;
    position: absolute;
    background: white;
    border-radius: 5px;
    border: 1px solid;
    max-width: 400px;
    min-width: 100px;
}

.sprotty-popup &gt; div {
    margin: 10px;
}

.sprotty-popup-closed {
    display: none;
}
</style><g transform="scale(1) translate(0,0)"><g id="sprotty_root3" transform="translate(117, 50)" opacity="1"><rect class="elknode" x="0" y="0" width="1852" height="2040" /><g id="sprotty_[root] k8s_extensions_v1beta1_ingress.this5" transform="translate(213.66666666666669, 450)" opacity="1"><rect class="elknode" x="0" y="0" width="200" height="60" /><text id="sprotty_6" class="elklabel" transform="translate(0, 0) translate(0, 0)" opacity="1">[root] k8s_extensions_v1beta1_ingress.this</text></g><g id="sprotty_root3gitlab7" transform="translate(117, 560)" opacity="1"><rect class="elknode" x="0" y="0" width="1368" height="1110" /><g id="sprotty_root3gitlab7gitlab-runner9" transform="translate(117, 50)" opacity="1"><rect class="elknode" x="0" y="0" width="400" height="1010" /><g id="sprotty_k8s_apps_v1_deployment.this11" transform="translate(100, 50)" opacity="1"><rect class="elknode" x="0" y="0" width="200" height="60" /><text id="sprotty_12" class="elklabel" transform="translate(0, 0) translate(0, 0)" opacity="1">k8s_apps_v1_deployment.this</text></g><g id="sprotty_k8s_core_v1_config_map.this13" transform="translate(100, 160)" opacity="1"><rect class="elknode" x="0" y="0" width="200" height="60" /><text id="sprotty_14" class="elklabel" transform="translate(0, 0) translate(0, 0)" opacity="1">k8s_core_v1_config_map.this</text></g><g id="sprotty_k8s_core_v1_service.this15" transform="translate(100, 270)" opacity="1"><rect class="elknode" x="0" y="0" width="200" height="60" /><text id="sprotty_16" class="elklabel" transform="translate(0, 0) translate(0, 0)" opacity="1">k8s_core_v1_service.this</text></g><g id="sprotty_k8s_core_v1_service_account.this17" transform="translate(100, 380)" opacity="1"><rect class="elknode" x="0" y="0" width="200" height="60" /><text id="sprotty_18" class="elklabel" transform="translate(0, 0) translate(0, 0)" opacity="1">k8s_core_v1_service_account.this</text></g><g id="sprotty_k8s_rbac_authorization_k8s_io_v1_cluster_role_binding.this19" transform="translate(100, 490)" opacity="1"><rect class="elknode" x="0" y="0" width="200" height="60" /><text id="sprotty_20" class="elklabel" transform="translate(0, 0) translate(0, 0)" opacity="1">k8s_rbac_authorization_k8s_io_v1_cluster_role_binding.this</text></g><g id="sprotty_local.labels92" transform="translate(100, 600)" opacity="1"><rect class="elknode" x="0" y="0" width="200" height="60" /><text id="sprotty_93" class="elklabel" transform="translate(0, 0) translate(0, 0)" opacity="1">local.labels</text></g><g id="sprotty_var.annotations59" transform="translate(-16, 50)" opacity="1"><rect class="elkport" x="0" y="0" width="16" height="9" /><text id="sprotty_60" class="elklabel" transform="translate(-1, 10) translate(0, 0)" opacity="1">annotations</text></g><g id="sprotty_var.dns_policy62" transform="translate(-16, 110)" opacity="1"><rect class="elkport" x="0" y="0" width="16" height="9" /><text id="sprotty_63" class="elklabel" transform="translate(-1, 10) translate(0, 0)" opacity="1">dns_policy</text></g><g id="sprotty_var.gitlab_url65" transform="translate(-16, 170)" opacity="1"><rect class="elkport" x="0" y="0" width="16" height="9" /><text id="sprotty_66" class="elklabel" transform="translate(-1, 10) translate(0, 0)" opacity="1">gitlab_url</text></g><g id="sprotty_var.image68" transform="translate(-16, 230)" opacity="1"><rect class="elkport" x="0" y="0" width="16" height="9" /><text id="sprotty_69" class="elklabel" transform="translate(-1, 10) translate(0, 0)" opacity="1">image</text></g><g id="sprotty_var.node_selector71" transform="translate(-16, 290)" opacity="1"><rect class="elkport" x="0" y="0" width="16" height="9" /><text id="sprotty_72" class="elklabel" transform="translate(-1, 10) translate(0, 0)" opacity="1">node_selector</text></g><g id="sprotty_var.priority_class_name74" transform="translate(-16, 350)" opacity="1"><rect class="elkport" x="0" y="0" width="16" height="9" /><text id="sprotty_75" class="elklabel" transform="translate(-1, 10) translate(0, 0)" opacity="1">priority_class_name</text></g><g id="sprotty_var.registration_token77" transform="translate(-16, 410)" opacity="1"><rect class="elkport" x="0" y="0" width="16" height="9" /><text id="sprotty_78" class="elklabel" transform="translate(-1, 10) translate(0, 0)" opacity="1">registration_token</text></g><g id="sprotty_var.replicas80" transform="translate(-16, 470)" opacity="1"><rect class="elkport" x="0" y="0" width="16" height="9" /><text id="sprotty_81" class="elklabel" transform="translate(-1, 10) translate(0, 0)" opacity="1">replicas</text></g><g id="sprotty_var.restart_policy83" transform="translate(-16, 530)" opacity="1"><rect class="elkport" x="0" y="0" width="16" height="9" /><text id="sprotty_84" class="elklabel" transform="translate(-1, 10) translate(0, 0)" opacity="1">restart_policy</text></g><g id="sprotty_var.scheduler_name86" transform="translate(-16, 590)" opacity="1"><rect class="elkport" x="0" y="0" width="16" height="9" /><text id="sprotty_87" class="elklabel" transform="translate(-1, 10) translate(0, 0)" opacity="1">scheduler_name</text></g><g id="sprotty_var.termination_grace_period_seconds89" transform="translate(-16, 650)" opacity="1"><rect class="elkport" x="0" y="0" width="16" height="9" /><text id="sprotty_90" class="elklabel" transform="translate(-1, 10) translate(0, 0)" opacity="1">termination_grace_period_seconds</text></g><g id="sprotty_var.namespace95" transform="translate(-16, 710)" opacity="1"><rect class="elkport" x="0" y="0" width="16" height="9" /><text id="sprotty_96" class="elklabel" transform="translate(-1, 10) translate(0, 0)" opacity="1">namespace</text></g><g id="sprotty_var.port101" transform="translate(-16, 770)" opacity="1"><rect class="elkport" x="0" y="0" width="16" height="9" /><text id="sprotty_102" class="elklabel" transform="translate(-1, 10) translate(0, 0)" opacity="1">port</text></g><g id="sprotty_var.service_type104" transform="translate(-16, 830)" opacity="1"><rect class="elkport" x="0" y="0" width="16" height="9" /><text id="sprotty_105" class="elklabel" transform="translate(-1, 10) translate(0, 0)" opacity="1">service_type</text></g><g id="sprotty_var.session_affinity107" transform="translate(-16, 890)" opacity="1"><rect class="elkport" x="0" y="0" width="16" height="9" /><text id="sprotty_108" class="elklabel" transform="translate(-1, 10) translate(0, 0)" opacity="1">session_affinity</text></g><g id="sprotty_var.name113" transform="translate(-16, 950)" opacity="1"><rect class="elkport" x="0" y="0" width="16" height="9" /><text id="sprotty_114" class="elklabel" transform="translate(-1, 10) translate(0, 0)" opacity="1">name</text></g><g id="sprotty_output.cluster_ip116" transform="translate(400, 50)" opacity="1"><rect class="elkport" x="0" y="0" width="16" height="9" /><text id="sprotty_117" class="elklabel" transform="translate(17, 10) translate(0, 0)" opacity="1">cluster_ip</text></g><g id="sprotty_output.deployment_uid119" transform="translate(400, 110)" opacity="1"><rect class="elkport" x="0" y="0" width="16" height="9" /><text id="sprotty_120" class="elklabel" transform="translate(17, 10) translate(0, 0)" opacity="1">deployment_uid</text></g><g id="sprotty_output.name122" transform="translate(400, 170)" opacity="1"><rect class="elkport" x="0" y="0" width="16" height="9" /><text id="sprotty_123" class="elklabel" transform="translate(17, 10) translate(0, 0)" opacity="1">name</text></g><g id="sprotty_output.port125" transform="translate(400, 230)" opacity="1"><rect class="elkport" x="0" y="0" width="16" height="9" /><text id="sprotty_126" class="elklabel" transform="translate(17, 10) translate(0, 0)" opacity="1">port</text></g><text id="sprotty_10" class="elklabel" transform="translate(0, 0) translate(0, 0)" opacity="1">gitlab-runner</text></g><g id="sprotty_root3gitlab7gitlab21" transform="translate(601, 50)" opacity="1"><rect class="elknode" x="0" y="0" width="650" height="590" /><g id="sprotty_k8s_apps_v1_stateful_set.gitlab23" transform="translate(100, 50)" opacity="1"><rect class="elknode" x="0" y="0" width="200" height="60" /><text id="sprotty_24" class="elklabel" transform="translate(0, 0) translate(0, 0)" opacity="1">k8s_apps_v1_stateful_set.gitlab</text></g><g id="sprotty_k8s_core_v1_service.gitlab25" transform="translate(350, 50)" opacity="1"><rect class="elknode" x="0" y="0" width="200" height="60" /><text id="sprotty_26" class="elklabel" transform="translate(0, 0) translate(0, 0)" opacity="1">k8s_core_v1_service.gitlab</text></g><g id="sprotty_k8s_core_v1_service_account.gitlab27" transform="translate(100, 160)" opacity="1"><rect class="elknode" x="0" y="0" width="200" height="60" /><text id="sprotty_28" class="elklabel" transform="translate(0, 0) translate(0, 0)" opacity="1">k8s_core_v1_service_account.gitlab</text></g><g id="sprotty_k8s_policy_v1beta1_pod_disruption_budget.this29" transform="translate(350, 160)" opacity="1"><rect class="elknode" x="0" y="0" width="200" height="60" /><text id="sprotty_30" class="elklabel" transform="translate(0, 0) translate(0, 0)" opacity="1">k8s_policy_v1beta1_pod_disruption_budget.this</text></g><g id="sprotty_k8s_rbac_authorization_k8s_io_v1_cluster_role.gitlab31" transform="translate(100, 270)" opacity="1"><rect class="elknode" x="0" y="0" width="200" height="60" /><text id="sprotty_32" class="elklabel" transform="translate(0, 0) translate(0, 0)" opacity="1">k8s_rbac_authorization_k8s_io_v1_cluster_role.gitlab</text></g><g id="sprotty_k8s_rbac_authorization_k8s_io_v1_cluster_role_binding.gitlab33" transform="translate(350, 270)" opacity="1"><rect class="elknode" x="0" y="0" width="200" height="60" /><text id="sprotty_34" class="elklabel" transform="translate(0, 0) translate(0, 0)" opacity="1">k8s_rbac_authorization_k8s_io_v1_cluster_role_binding.gitlab</text></g><g id="sprotty_local.gitlab_omnibus_config140" transform="translate(100, 380)" opacity="1"><rect class="elknode" x="0" y="0" width="200" height="60" /><text id="sprotty_141" class="elklabel" transform="translate(0, 0) translate(0, 0)" opacity="1">local.gitlab_omnibus_config</text></g><g id="sprotty_output.gitlab_external_url128" transform="translate(650, 50)" opacity="1"><rect class="elkport" x="0" y="0" width="16" height="9" /><text id="sprotty_129" class="elklabel" transform="translate(17, 10) translate(0, 0)" opacity="1">gitlab_external_url</text></g><g id="sprotty_output.gitlab_runners_registration_token132" transform="translate(650, 110)" opacity="1"><rect class="elkport" x="0" y="0" width="16" height="9" /><text id="sprotty_133" class="elklabel" transform="translate(17, 10) translate(0, 0)" opacity="1">gitlab_runners_registration_token</text></g><g id="sprotty_var.auto_devops_domain143" transform="translate(-16, 50)" opacity="1"><rect class="elkport" x="0" y="0" width="16" height="9" /><text id="sprotty_144" class="elklabel" transform="translate(-1, 10) translate(0, 0)" opacity="1">auto_devops_domain</text></g><g id="sprotty_var.gitlab_root_password146" transform="translate(-16, 110)" opacity="1"><rect class="elkport" x="0" y="0" width="16" height="9" /><text id="sprotty_147" class="elklabel" transform="translate(-1, 10) translate(0, 0)" opacity="1">gitlab_root_password</text></g><g id="sprotty_var.gitlab_runners_registration_token149" transform="translate(-16, 170)" opacity="1"><rect class="elkport" x="0" y="0" width="16" height="9" /><text id="sprotty_150" class="elklabel" transform="translate(-1, 10) translate(0, 0)" opacity="1">gitlab_runners_registration_token</text></g><g id="sprotty_var.storage155" transform="translate(-16, 230)" opacity="1"><rect class="elkport" x="0" y="0" width="16" height="9" /><text id="sprotty_156" class="elklabel" transform="translate(-1, 10) translate(0, 0)" opacity="1">storage</text></g><g id="sprotty_var.storage_class_name158" transform="translate(-16, 290)" opacity="1"><rect class="elkport" x="0" y="0" width="16" height="9" /><text id="sprotty_159" class="elklabel" transform="translate(-1, 10) translate(0, 0)" opacity="1">storage_class_name</text></g><g id="sprotty_var.volume_claim_template_name161" transform="translate(-16, 350)" opacity="1"><rect class="elkport" x="0" y="0" width="16" height="9" /><text id="sprotty_162" class="elklabel" transform="translate(-1, 10) translate(0, 0)" opacity="1">volume_claim_template_name</text></g><g id="sprotty_var.gitlab_external_url174" transform="translate(-16, 410)" opacity="1"><rect class="elkport" x="0" y="0" width="16" height="9" /><text id="sprotty_175" class="elklabel" transform="translate(-1, 10) translate(0, 0)" opacity="1">gitlab_external_url</text></g><g id="sprotty_var.mattermost_external_url177" transform="translate(-16, 470)" opacity="1"><rect class="elkport" x="0" y="0" width="16" height="9" /><text id="sprotty_178" class="elklabel" transform="translate(-1, 10) translate(0, 0)" opacity="1">mattermost_external_url</text></g><g id="sprotty_var.registry_external_url180" transform="translate(-16, 530)" opacity="1"><rect class="elkport" x="0" y="0" width="16" height="9" /><text id="sprotty_181" class="elklabel" transform="translate(-1, 10) translate(0, 0)" opacity="1">registry_external_url</text></g><g id="sprotty_output.statefulset_uid189" transform="translate(650, 170)" opacity="1"><rect class="elkport" x="0" y="0" width="16" height="9" /><text id="sprotty_190" class="elklabel" transform="translate(17, 10) translate(0, 0)" opacity="1">statefulset_uid</text></g><text id="sprotty_22" class="elklabel" transform="translate(0, 0) translate(0, 0)" opacity="1">gitlab</text></g><g id="sprotty_var.gitlab_runner_replicas135" transform="translate(-16, 50)" opacity="1"><rect class="elkport" x="0" y="0" width="16" height="9" /><text id="sprotty_136" class="elklabel" transform="translate(-1, 10) translate(0, 0)" opacity="1">gitlab_runner_replicas</text></g><g id="sprotty_output.mattermost_external_url203" transform="translate(1368, 50)" opacity="1"><rect class="elkport" x="0" y="0" width="16" height="9" /><text id="sprotty_204" class="elklabel" transform="translate(17, 10) translate(0, 0)" opacity="1">mattermost_external_url</text></g><text id="sprotty_8" class="elklabel" transform="translate(0, 0) translate(0, 0)" opacity="1">gitlab</text></g><g id="sprotty_root3ingress-controller35" transform="translate(147, 50)" opacity="1"><rect class="elknode" x="0" y="0" width="400" height="380" /><g id="sprotty_k8s_rbac_authorization_k8s_io_v1_cluster_role.this37" transform="translate(100, 50)" opacity="1"><rect class="elknode" x="0" y="0" width="200" height="60" /><text id="sprotty_38" class="elklabel" transform="translate(0, 0) translate(0, 0)" opacity="1">k8s_rbac_authorization_k8s_io_v1_cluster_role.this</text></g><g id="sprotty_k8s_rbac_authorization_k8s_io_v1_role.this39" transform="translate(100, 160)" opacity="1"><rect class="elknode" x="0" y="0" width="200" height="60" /><text id="sprotty_40" class="elklabel" transform="translate(0, 0) translate(0, 0)" opacity="1">k8s_rbac_authorization_k8s_io_v1_role.this</text></g><g id="sprotty_k8s_rbac_authorization_k8s_io_v1_role_binding.this41" transform="translate(100, 270)" opacity="1"><rect class="elknode" x="0" y="0" width="200" height="60" /><text id="sprotty_42" class="elklabel" transform="translate(0, 0) translate(0, 0)" opacity="1">k8s_rbac_authorization_k8s_io_v1_role_binding.this</text></g><g id="sprotty_var.annotations_prefix234" transform="translate(-16, 282.75)" opacity="1"><rect class="elkport" x="0" y="0" width="16" height="9" /><text id="sprotty_235" class="elklabel" transform="translate(-1, 10) translate(0, 0)" opacity="1">annotations_prefix</text></g><g id="sprotty_var.node_port_http250" transform="translate(-16, 185.5)" opacity="1"><rect class="elkport" x="0" y="0" width="16" height="9" /><text id="sprotty_251" class="elklabel" transform="translate(-1, 10) translate(0, 0)" opacity="1">node_port_http</text></g><g id="sprotty_var.node_port_https253" transform="translate(-16, 88.25)" opacity="1"><rect class="elkport" x="0" y="0" width="16" height="9" /><text id="sprotty_254" class="elklabel" transform="translate(-1, 10) translate(0, 0)" opacity="1">node_port_https</text></g><g id="sprotty_output.annotations_prefix269" transform="translate(400, 282.75)" opacity="1"><rect class="elkport" x="0" y="0" width="16" height="9" /><text id="sprotty_270" class="elklabel" transform="translate(17, 10) translate(0, 0)" opacity="1">annotations_prefix</text></g><g id="sprotty_output.node_port_http275" transform="translate(400, 185.5)" opacity="1"><rect class="elkport" x="0" y="0" width="16" height="9" /><text id="sprotty_276" class="elklabel" transform="translate(17, 10) translate(0, 0)" opacity="1">node_port_http</text></g><g id="sprotty_output.node_port_https278" transform="translate(400, 88.25)" opacity="1"><rect class="elkport" x="0" y="0" width="16" height="9" /><text id="sprotty_279" class="elklabel" transform="translate(17, 10) translate(0, 0)" opacity="1">node_port_https</text></g><text id="sprotty_36" class="elklabel" transform="translate(0, 0) translate(0, 0)" opacity="1">ingress-controller</text></g><g id="sprotty_root3nfs-server43" transform="translate(1552, 560)" opacity="1"><rect class="elknode" x="0" y="0" width="200" height="60" /><text id="sprotty_44" class="elklabel" transform="translate(0, 0) translate(0, 0)" opacity="1">nfs-server</text></g><g id="sprotty_root3storage45" transform="translate(517, 1720)" opacity="1"><rect class="elknode" x="0" y="0" width="400" height="270" /><g id="sprotty_k8s_core_v1_persistent_volume.this47" transform="translate(100, 50)" opacity="1"><rect class="elknode" x="0" y="0" width="200" height="60" /><text id="sprotty_48" class="elklabel" transform="translate(0, 0) translate(0, 0)" opacity="1">k8s_core_v1_persistent_volume.this</text></g><g id="sprotty_k8s_core_v1_persistent_volume_claim.this49" transform="translate(100, 160)" opacity="1"><rect class="elknode" x="0" y="0" width="200" height="60" /><text id="sprotty_50" class="elklabel" transform="translate(0, 0) translate(0, 0)" opacity="1">k8s_core_v1_persistent_volume_claim.this</text></g><g id="sprotty_output.storage224" transform="translate(400, 50)" opacity="1"><rect class="elkport" x="0" y="0" width="16" height="9" /><text id="sprotty_225" class="elklabel" transform="translate(17, 10) translate(0, 0)" opacity="1">storage</text></g><g id="sprotty_output.storage_class_name227" transform="translate(400, 110)" opacity="1"><rect class="elkport" x="0" y="0" width="16" height="9" /><text id="sprotty_228" class="elklabel" transform="translate(17, 10) translate(0, 0)" opacity="1">storage_class_name</text></g><g id="sprotty_var.count302" transform="translate(-16, 50)" opacity="1"><rect class="elkport" x="0" y="0" width="16" height="9" /><text id="sprotty_303" class="elklabel" transform="translate(-1, 10) translate(0, 0)" opacity="1">count</text></g><g id="sprotty_var.mount_options305" transform="translate(-16, 110)" opacity="1"><rect class="elkport" x="0" y="0" width="16" height="9" /><text id="sprotty_306" class="elklabel" transform="translate(-1, 10) translate(0, 0)" opacity="1">mount_options</text></g><g id="sprotty_var.nfs_server309" transform="translate(-16, 170)" opacity="1"><rect class="elkport" x="0" y="0" width="16" height="9" /><text id="sprotty_310" class="elklabel" transform="translate(-1, 10) translate(0, 0)" opacity="1">nfs_server</text></g><g id="sprotty_output.count314" transform="translate(400, 170)" opacity="1"><rect class="elkport" x="0" y="0" width="16" height="9" /><text id="sprotty_315" class="elklabel" transform="translate(17, 10) translate(0, 0)" opacity="1">count</text></g><text id="sprotty_46" class="elklabel" transform="translate(0, 0) translate(0, 0)" opacity="1">storage</text></g><g id="sprotty_[root] local.mount_options320" transform="translate(100, 1804.5)" opacity="1"><rect class="elknode" x="0" y="0" width="200" height="60" /><text id="sprotty_321" class="elklabel" transform="translate(0, 0) translate(0, 0)" opacity="1">[root] local.mount_options</text></g><g id="sprotty_[root] var.ingress_host51" transform="translate(-16, 485.5)" opacity="1"><rect class="elkport" x="0" y="0" width="16" height="9" /><text id="sprotty_52" class="elklabel" transform="translate(-1, 10) translate(0, 0)" opacity="1">ingress_host</text></g><g id="sprotty_[root] var.name54" transform="translate(-16, 425.5)" opacity="1"><rect class="elkport" x="0" y="0" width="16" height="9" /><text id="sprotty_55" class="elklabel" transform="translate(-1, 10) translate(0, 0)" opacity="1">name</text></g><g id="sprotty_[root] var.auto_devops_domain206" transform="translate(-16, 560)" opacity="1"><rect class="elkport" x="0" y="0" width="16" height="9" /><text id="sprotty_207" class="elklabel" transform="translate(-1, 10) translate(0, 0)" opacity="1">auto_devops_domain</text></g><g id="sprotty_[root] var.ingress_node_port_http210" transform="translate(-16, 235.5)" opacity="1"><rect class="elkport" x="0" y="0" width="16" height="9" /><text id="sprotty_211" class="elklabel" transform="translate(-1, 10) translate(0, 0)" opacity="1">ingress_node_port_http</text></g><g id="sprotty_[root] var.gitlab_root_password213" transform="translate(-16, 620)" opacity="1"><rect class="elkport" x="0" y="0" width="16" height="9" /><text id="sprotty_214" class="elklabel" transform="translate(-1, 10) translate(0, 0)" opacity="1">gitlab_root_password</text></g><g id="sprotty_[root] var.gitlab_runners_registration_token216" transform="translate(-16, 680)" opacity="1"><rect class="elkport" x="0" y="0" width="16" height="9" /><text id="sprotty_217" class="elklabel" transform="translate(-1, 10) translate(0, 0)" opacity="1">gitlab_runners_registration_token</text></g><g id="sprotty_[root] var.ingress_node_port_https284" transform="translate(-16, 138.25)" opacity="1"><rect class="elkport" x="0" y="0" width="16" height="9" /><text id="sprotty_285" class="elklabel" transform="translate(-1, 10) translate(0, 0)" opacity="1">ingress_node_port_https</text></g><g id="sprotty_[root] output.urls325" transform="translate(1852, 475.5)" opacity="1"><rect class="elkport" x="0" y="0" width="16" height="9" /><text id="sprotty_326" class="elklabel" transform="translate(17, 10) translate(0, 0)" opacity="1">urls</text></g><text id="sprotty_4" class="elklabel" transform="translate(0, 0) translate(0, 0)" opacity="1">root</text><g id="sprotty_53" class="sprotty-edge" opacity="1"><path class="elkedge" d="M 0,490 L 213.66666666666669,490" /><path class="edge arrow" d="M 0,0 L 8,-3 L 8,3 Z" transform="rotate(180 213.66666666666669 490) translate(213.66666666666669 490)" /></g><g id="sprotty_56" class="sprotty-edge" opacity="1"><path class="elkedge" d="M 0,430 L 110,430 L 110,470 L 213.66666666666669,470" /><path class="edge arrow" d="M 0,0 L 8,-3 L 8,3 Z" transform="rotate(180 213.66666666666669 470) translate(213.66666666666669 470)" /></g><g id="sprotty_57" class="sprotty-edge" opacity="1"><path class="elkedge" d="M 434,770 L 434,720" /><path class="edge arrow" d="M 0,0 L 8,-3 L 8,3 Z" transform="rotate(90 434 720) translate(434 720)" /></g><g id="sprotty_58" class="sprotty-edge" opacity="1"><path class="elkedge" d="M 434,1100 L 434,720" /><path class="edge arrow" d="M 0,0 L 8,-3 L 8,3 Z" transform="rotate(90 434 720) translate(434 720)" /></g><g id="sprotty_61" class="sprotty-edge" opacity="1"><path class="elkedge" d="M 234,665.4807692307693 L 334,677.7403846153846" /><path class="edge arrow" d="M 0,0 L 8,-3 L 8,3 Z" transform="rotate(-173.01063484366153 334 677.7403846153846) translate(334 677.7403846153846)" /></g><g id="sprotty_64" class="sprotty-edge" opacity="1"><path class="elkedge" d="M 234,723.1730769230769 L 334,706.5865384615385" /><path class="edge arrow" d="M 0,0 L 8,-3 L 8,3 Z" transform="rotate(170.58235285466571 334 706.5865384615385) translate(334 706.5865384615385)" /></g><g id="sprotty_67" class="sprotty-edge" opacity="1"><path class="elkedge" d="M 234,780.8653846153846 L 367.968253968254,720" /><path class="edge arrow" d="M 0,0 L 8,-3 L 8,3 Z" transform="rotate(155.5664230096372 367.968253968254 720) translate(367.968253968254 720)" /></g><g id="sprotty_70" class="sprotty-edge" opacity="1"><path class="elkedge" d="M 232.05825242718447,840 L 393.6116504854369,720" /><path class="edge arrow" d="M 0,0 L 8,-3 L 8,3 Z" transform="rotate(143.39546107211746 393.6116504854369 720) translate(393.6116504854369 720)" /></g><g id="sprotty_73" class="sprotty-edge" opacity="1"><path class="elkedge" d="M 230.36363636363637,900 L 404.9090909090909,720" /><path class="edge arrow" d="M 0,0 L 8,-3 L 8,3 Z" transform="rotate(134.11859600341785 404.9090909090909 720) translate(404.9090909090909 720)" /></g><g id="sprotty_76" class="sprotty-edge" opacity="1"><path class="elkedge" d="M 229.40983606557376,960 L 411.26775956284155,720" /><path class="edge arrow" d="M 0,0 L 8,-3 L 8,3 Z" transform="rotate(127.15271423731083 411.26775956284155 720) translate(411.26775956284155 720)" /></g><g id="sprotty_79" class="sprotty-edge" opacity="1"><path class="elkedge" d="M 228.7982062780269,1020 L 415.3452914798206,720" /><path class="edge arrow" d="M 0,0 L 8,-3 L 8,3 Z" transform="rotate(121.8743247375575 415.3452914798206 720) translate(415.3452914798206 720)" /></g><g id="sprotty_82" class="sprotty-edge" opacity="1"><path class="elkedge" d="M 228.37262357414448,1080 L 418.1825095057034,720" /><path class="edge arrow" d="M 0,0 L 8,-3 L 8,3 Z" transform="rotate(117.80042566034118 418.1825095057034 720) translate(418.1825095057034 720)" /></g><g id="sprotty_85" class="sprotty-edge" opacity="1"><path class="elkedge" d="M 228.05940594059405,1140 L 420.27062706270624,720" /><path class="edge arrow" d="M 0,0 L 8,-3 L 8,3 Z" transform="rotate(114.59100050152601 420.27062706270624 720) translate(420.27062706270624 720)" /></g><g id="sprotty_88" class="sprotty-edge" opacity="1"><path class="elkedge" d="M 227.8192419825073,1200 L 421.87172011661806,720" /><path class="edge arrow" d="M 0,0 L 8,-3 L 8,3 Z" transform="rotate(112.01230148180703 421.87172011661806 720) translate(421.87172011661806 720)" /></g><g id="sprotty_91" class="sprotty-edge" opacity="1"><path class="elkedge" d="M 227.62924281984334,1260 L 423.13838120104435,720" /><path class="edge arrow" d="M 0,0 L 8,-3 L 8,3 Z" transform="rotate(109.90298942454936 423.13838120104435 720) translate(423.13838120104435 720)" /></g><g id="sprotty_94" class="sprotty-edge" opacity="1"><path class="elkedge" d="M 434,1210 L 434,830" /><path class="edge arrow" d="M 0,0 L 8,-3 L 8,3 Z" transform="rotate(90 434 830) translate(434 830)" /></g><g id="sprotty_97" class="sprotty-edge" opacity="1"><path class="elkedge" d="M 227.78455672068637,1320 L 422.1029551954242,830" /><path class="edge arrow" d="M 0,0 L 8,-3 L 8,3 Z" transform="rotate(111.63170058143356 422.1029551954242 830) translate(422.1029551954242 830)" /></g><g id="sprotty_98" class="sprotty-edge" opacity="1"><path class="elkedge" d="M 434,1210 L 434,940" /><path class="edge arrow" d="M 0,0 L 8,-3 L 8,3 Z" transform="rotate(90 434 940) translate(434 940)" /></g><g id="sprotty_99" class="sprotty-edge" opacity="1"><path class="elkedge" d="M 229.81262729124236,669 L 408.5824847250509,880" /><path class="edge arrow" d="M 0,0 L 8,-3 L 8,3 Z" transform="rotate(-130.27295566323374 408.5824847250509 880) translate(408.5824847250509 880)" /></g><g id="sprotty_100" class="sprotty-edge" opacity="1"><path class="elkedge" d="M 228.2581423401689,1320 L 418.94571773220747,940" /><path class="edge arrow" d="M 0,0 L 8,-3 L 8,3 Z" transform="rotate(116.64792833168704 418.94571773220747 940) translate(418.94571773220747 940)" /></g><g id="sprotty_103" class="sprotty-edge" opacity="1"><path class="elkedge" d="M 227.97260273972603,1380 L 420.8493150684932,940" /><path class="edge arrow" d="M 0,0 L 8,-3 L 8,3 Z" transform="rotate(113.67053848472048 420.8493150684932 940) translate(420.8493150684932 940)" /></g><g id="sprotty_106" class="sprotty-edge" opacity="1"><path class="elkedge" d="M 227.7511693171188,1440 L 422.3255378858746,940" /><path class="edge arrow" d="M 0,0 L 8,-3 L 8,3 Z" transform="rotate(111.26343675623956 422.3255378858746 940) translate(422.3255378858746 940)" /></g><g id="sprotty_109" class="sprotty-edge" opacity="1"><path class="elkedge" d="M 227.5744322960471,1500 L 423.5037846930194,940" /><path class="edge arrow" d="M 0,0 L 8,-3 L 8,3 Z" transform="rotate(109.2836065616953 423.5037846930194 940) translate(423.5037846930194 940)" /></g><g id="sprotty_110" class="sprotty-edge" opacity="1"><path class="elkedge" d="M 434,1210 L 434,1050" /><path class="edge arrow" d="M 0,0 L 8,-3 L 8,3 Z" transform="rotate(90 434 1050) translate(434 1050)" /></g><g id="sprotty_111" class="sprotty-edge" opacity="1"><path class="elkedge" d="M 229.07389162561577,1320 L 413.5073891625616,1050" /><path class="edge arrow" d="M 0,0 L 8,-3 L 8,3 Z" transform="rotate(124.33647612215326 413.5073891625616 1050) translate(413.5073891625616 1050)" /></g><g id="sprotty_112" class="sprotty-edge" opacity="1"><path class="elkedge" d="M 434,1050 L 434,1100" /><path class="edge arrow" d="M 0,0 L 8,-3 L 8,3 Z" transform="rotate(-90 434 1100) translate(434 1100)" /></g><g id="sprotty_115" class="sprotty-edge" opacity="1"><path class="elkedge" d="M 228.884437596302,1560 L 414.7704160246533,1270" /><path class="edge arrow" d="M 0,0 L 8,-3 L 8,3 Z" transform="rotate(122.65930829224037 414.7704160246533 1270) translate(414.7704160246533 1270)" /></g><g id="sprotty_118" class="sprotty-edge" opacity="1"><path class="elkedge" d="M 459.4175152749491,880 L 638.1873727087577,669" /><path class="edge arrow" d="M 0,0 L 8,-3 L 8,3 Z" transform="rotate(130.27295566323377 638.1873727087577 669) translate(638.1873727087577 669)" /></g><g id="sprotty_121" class="sprotty-edge" opacity="1"><path class="elkedge" d="M 534,706.5865384615385 L 634,723.1730769230769" /><path class="edge arrow" d="M 0,0 L 8,-3 L 8,3 Z" transform="rotate(-170.58235285466571 634 723.1730769230769) translate(634 723.1730769230769)" /></g><g id="sprotty_124" class="sprotty-edge" opacity="1"><path class="elkedge" d="M 483.7211155378486,880 L 634.5418326693227,789" /><path class="edge arrow" d="M 0,0 L 8,-3 L 8,3 Z" transform="rotate(148.89467282183267 634.5418326693227 789) translate(634.5418326693227 789)" /></g><g id="sprotty_127" class="sprotty-edge" opacity="1"><path class="elkedge" d="M 529.2671755725191,880 L 634,847.0192307692307" /><path class="edge arrow" d="M 0,0 L 8,-3 L 8,3 Z" transform="rotate(162.52058471831904 634 847.0192307692307) translate(634 847.0192307692307)" /></g><g id="sprotty_130" class="sprotty-edge" opacity="1"><path class="elkedge" d="M 1368,665.3347826086956 L 234,783.6652173913044" /><path class="edge arrow" d="M 0,0 L 8,-3 L 8,3 Z" transform="rotate(-5.957131114708217 234 783.6652173913044) translate(234 783.6652173913044)" /></g><g id="sprotty_131" class="sprotty-edge" opacity="1"><path class="elkedge" d="M 226,1564.5 L 226,1564.5" /><path class="edge arrow" d="M 0,0 L 8,-3 L 8,3 Z" transform="rotate(0 226 1564.5) translate(226 1564.5)" /></g><g id="sprotty_134" class="sprotty-edge" opacity="1"><path class="elkedge" d="M 1368,726.5869565217391 L 234,1022.4130434782609" /><path class="edge arrow" d="M 0,0 L 8,-3 L 8,3 Z" transform="rotate(-14.620873988631656 234 1022.4130434782609) translate(234 1022.4130434782609)" /></g><g id="sprotty_137" class="sprotty-edge" opacity="1"><path class="elkedge" d="M 110.12021276595745,619 L 224.87978723404257,1080" /><path class="edge arrow" d="M 0,0 L 8,-3 L 8,3 Z" transform="rotate(-103.97886163481975 224.87978723404257 1080) translate(224.87978723404257 1080)" /></g><g id="sprotty_138" class="sprotty-edge" opacity="1"><path class="elkedge" d="M 1068,690 L 1018,690" /><path class="edge arrow" d="M 0,0 L 8,-3 L 8,3 Z" transform="rotate(0 1018 690) translate(1018 690)" /></g><g id="sprotty_139" class="sprotty-edge" opacity="1"><path class="elkedge" d="M 1133.909090909091,880 L 952.0909090909091,720" /><path class="edge arrow" d="M 0,0 L 8,-3 L 8,3 Z" transform="rotate(41.34777721969366 952.0909090909091 720) translate(952.0909090909091 720)" /></g><g id="sprotty_142" class="sprotty-edge" opacity="1"><path class="elkedge" d="M 918,990 L 918,720" /><path class="edge arrow" d="M 0,0 L 8,-3 L 8,3 Z" transform="rotate(90 918 720) translate(918 720)" /></g><g id="sprotty_145" class="sprotty-edge" opacity="1"><path class="elkedge" d="M 718,665.4807692307693 L 818,677.7403846153846" /><path class="edge arrow" d="M 0,0 L 8,-3 L 8,3 Z" transform="rotate(-173.01063484366153 818 677.7403846153846) translate(818 677.7403846153846)" /></g><g id="sprotty_148" class="sprotty-edge" opacity="1"><path class="elkedge" d="M 718,723.1730769230769 L 818,706.5865384615385" /><path class="edge arrow" d="M 0,0 L 8,-3 L 8,3 Z" transform="rotate(170.58235285466571 818 706.5865384615385) translate(818 706.5865384615385)" /></g><g id="sprotty_151" class="sprotty-edge" opacity="1"><path class="elkedge" d="M 718,780.8653846153846 L 851.968253968254,720" /><path class="edge arrow" d="M 0,0 L 8,-3 L 8,3 Z" transform="rotate(155.5664230096372 851.968253968254 720) translate(851.968253968254 720)" /></g><g id="sprotty_152" class="sprotty-edge" opacity="1"><path class="elkedge" d="M 234,842.7138728323699 L 818,712.3265895953757" /><path class="edge arrow" d="M 0,0 L 8,-3 L 8,3 Z" transform="rotate(167.41422082930717 818 712.3265895953757) translate(818 712.3265895953757)" /></g><g id="sprotty_153" class="sprotty-edge" opacity="1"><path class="elkedge" d="M 234,902.0202312138729 L 821.2167832167833,720" /><path class="edge arrow" d="M 0,0 L 8,-3 L 8,3 Z" transform="rotate(162.77807458427247 821.2167832167833 720) translate(821.2167832167833 720)" /></g><g id="sprotty_154" class="sprotty-edge" opacity="1"><path class="elkedge" d="M 233.893536121673,1080 L 865.3764258555133,720" /><path class="edge arrow" d="M 0,0 L 8,-3 L 8,3 Z" transform="rotate(150.31311036292394 865.3764258555133 720) translate(865.3764258555133 720)" /></g><g id="sprotty_157" class="sprotty-edge" opacity="1"><path class="elkedge" d="M 716.0582524271845,840 L 877.6116504854369,720" /><path class="edge arrow" d="M 0,0 L 8,-3 L 8,3 Z" transform="rotate(143.39546107211748 877.6116504854369 720) translate(877.6116504854369 720)" /></g><g id="sprotty_160" class="sprotty-edge" opacity="1"><path class="elkedge" d="M 714.3636363636364,900 L 888.9090909090909,720" /><path class="edge arrow" d="M 0,0 L 8,-3 L 8,3 Z" transform="rotate(134.11859600341785 888.9090909090909 720) translate(888.9090909090909 720)" /></g><g id="sprotty_163" class="sprotty-edge" opacity="1"><path class="elkedge" d="M 713.4098360655738,960 L 895.2677595628415,720" /><path class="edge arrow" d="M 0,0 L 8,-3 L 8,3 Z" transform="rotate(127.1527142373108 895.2677595628415 720) translate(895.2677595628415 720)" /></g><g id="sprotty_164" class="sprotty-edge" opacity="1"><path class="elkedge" d="M 474.0363636363636,1210 L 1127.9636363636364,720" /><path class="edge arrow" d="M 0,0 L 8,-3 L 8,3 Z" transform="rotate(143.15508960922824 1127.9636363636364 720) translate(1127.9636363636364 720)" /></g><g id="sprotty_165" class="sprotty-edge" opacity="1"><path class="elkedge" d="M 234,664.7165605095541 L 1068,687.2929936305733" /><path class="edge arrow" d="M 0,0 L 8,-3 L 8,3 Z" transform="rotate(-178.4493782843585 1068 687.2929936305733) translate(1068 687.2929936305733)" /></g><g id="sprotty_166" class="sprotty-edge" opacity="1"><path class="elkedge" d="M 232.68085106382978,1320 L 1123.4609929078015,720" /><path class="edge arrow" d="M 0,0 L 8,-3 L 8,3 Z" transform="rotate(146.0370974909521 1123.4609929078015 720) translate(1123.4609929078015 720)" /></g><g id="sprotty_167" class="sprotty-edge" opacity="1"><path class="elkedge" d="M 232.1036717062635,1380 L 1127.3088552915767,720" /><path class="edge arrow" d="M 0,0 L 8,-3 L 8,3 Z" transform="rotate(143.60009051660003 1127.3088552915767 720) translate(1127.3088552915767 720)" /></g><g id="sprotty_168" class="sprotty-edge" opacity="1"><path class="elkedge" d="M 230.07325049051667,1560 L 890.8449967298889,830" /><path class="edge arrow" d="M 0,0 L 8,-3 L 8,3 Z" transform="rotate(132.15034787929653 890.8449967298889 830) translate(890.8449967298889 830)" /></g><g id="sprotty_169" class="sprotty-edge" opacity="1"><path class="elkedge" d="M 231.93708293612963,1320 L 878.419447092469,830" /><path class="edge arrow" d="M 0,0 L 8,-3 L 8,3 Z" transform="rotate(142.83976575154398 878.419447092469 830) translate(878.419447092469 830)" /></g><g id="sprotty_170" class="sprotty-edge" opacity="1"><path class="elkedge" d="M 484.0454545454545,1210 L 1117.9545454545455,830" /><path class="edge arrow" d="M 0,0 L 8,-3 L 8,3 Z" transform="rotate(149.05920770698262 1117.9545454545455 830) translate(1117.9545454545455 830)" /></g><g id="sprotty_171" class="sprotty-edge" opacity="1"><path class="elkedge" d="M 230.75783040488923,1560 L 886.2811306340718,940" /><path class="edge arrow" d="M 0,0 L 8,-3 L 8,3 Z" transform="rotate(136.5952740379911 886.2811306340718 940) translate(886.2811306340718 940)" /></g><g id="sprotty_172" class="sprotty-edge" opacity="1"><path class="elkedge" d="M 986.1818181818182,830 L 1099.8181818181818,880" /><path class="edge arrow" d="M 0,0 L 8,-3 L 8,3 Z" transform="rotate(-156.25050550713323 1099.8181818181818 880) translate(1099.8181818181818 880)" /></g><g id="sprotty_173" class="sprotty-edge" opacity="1"><path class="elkedge" d="M 1018,910 L 1068,910" /><path class="edge arrow" d="M 0,0 L 8,-3 L 8,3 Z" transform="rotate(180 1068 910) translate(1068 910)" /></g><g id="sprotty_176" class="sprotty-edge" opacity="1"><path class="elkedge" d="M 718,1024.326923076923 L 818,1022.1634615384615" /><path class="edge arrow" d="M 0,0 L 8,-3 L 8,3 Z" transform="rotate(178.7606211894139 818 1022.1634615384615) translate(818 1022.1634615384615)" /></g><g id="sprotty_179" class="sprotty-edge" opacity="1"><path class="elkedge" d="M 718,1082.0192307692307 L 821.2558139534883,1050" /><path class="edge arrow" d="M 0,0 L 8,-3 L 8,3 Z" transform="rotate(162.7715377530896 821.2558139534883 1050) translate(821.2558139534883 1050)" /></g><g id="sprotty_182" class="sprotty-edge" opacity="1"><path class="elkedge" d="M 717.5180722891566,1140 L 867.8795180722891,1050" /><path class="edge arrow" d="M 0,0 L 8,-3 L 8,3 Z" transform="rotate(149.09704547500692 867.8795180722891 1050) translate(867.8795180722891 1050)" /></g><g id="sprotty_183" class="sprotty-edge" opacity="1"><path class="elkedge" d="M 228.884437596302,1560 L 414.7704160246533,1270" /><path class="edge arrow" d="M 0,0 L 8,-3 L 8,3 Z" transform="rotate(122.65930829224037 414.7704160246533 1270) translate(414.7704160246533 1270)" /></g><g id="sprotty_184" class="sprotty-edge" opacity="1"><path class="elkedge" d="M 1068,685.1520912547528 L 650,664.8878326996198" /><path class="edge arrow" d="M 0,0 L 8,-3 L 8,3 Z" transform="rotate(2.775474139983013 650 664.8878326996198) translate(650 664.8878326996198)" /></g><g id="sprotty_185" class="sprotty-edge" opacity="1"><path class="elkedge" d="M 718,1020.1756756756756 L 1368,668.8243243243244" /><path class="edge arrow" d="M 0,0 L 8,-3 L 8,3 Z" transform="rotate(151.60698057861703 1368 668.8243243243244) translate(1368 668.8243243243244)" /></g><g id="sprotty_186" class="sprotty-edge" opacity="1"><path class="elkedge" d="M 718,783.7792792792793 L 1368,725.2207207207207" /><path class="edge arrow" d="M 0,0 L 8,-3 L 8,3 Z" transform="rotate(174.8521151758637 1368 725.2207207207207) translate(1368 725.2207207207207)" /></g><g id="sprotty_187" class="sprotty-edge" opacity="1"><path class="elkedge" d="M 1068,707.9657794676806 L 650,783.0627376425855" /><path class="edge arrow" d="M 0,0 L 8,-3 L 8,3 Z" transform="rotate(-10.184980996119616 650 783.0627376425855) translate(650 783.0627376425855)" /></g><g id="sprotty_188" class="sprotty-edge" opacity="1"><path class="elkedge" d="M 1068,719.3726235741444 L 650,842.1501901140684" /><path class="edge arrow" d="M 0,0 L 8,-3 L 8,3 Z" transform="rotate(-16.368897457960998 650 842.1501901140684) translate(650 842.1501901140684)" /></g><g id="sprotty_191" class="sprotty-edge" opacity="1"><path class="elkedge" d="M 1018,710.6331877729258 L 1368,782.849344978166" /><path class="edge arrow" d="M 0,0 L 8,-3 L 8,3 Z" transform="rotate(-168.34165965728076 1368 782.849344978166) translate(1368 782.849344978166)" /></g><g id="sprotty_192" class="sprotty-edge" opacity="1"><path class="elkedge" d="M 226,664.5 L 226,664.5" /><path class="edge arrow" d="M 0,0 L 8,-3 L 8,3 Z" transform="rotate(0 226 664.5) translate(226 664.5)" /></g><g id="sprotty_193" class="sprotty-edge" opacity="1"><path class="elkedge" d="M 710,664.5 L 710,664.5" /><path class="edge arrow" d="M 0,0 L 8,-3 L 8,3 Z" transform="rotate(0 710 664.5) translate(710 664.5)" /></g><g id="sprotty_194" class="sprotty-edge" opacity="1"><path class="elkedge" d="M 710,1024.5 L 710,1024.5" /><path class="edge arrow" d="M 0,0 L 8,-3 L 8,3 Z" transform="rotate(0 710 1024.5) translate(710 1024.5)" /></g><g id="sprotty_195" class="sprotty-edge" opacity="1"><path class="elkedge" d="M 710,724.5 L 710,724.5" /><path class="edge arrow" d="M 0,0 L 8,-3 L 8,3 Z" transform="rotate(0 710 724.5) translate(710 724.5)" /></g><g id="sprotty_196" class="sprotty-edge" opacity="1"><path class="elkedge" d="M 710,784.5 L 710,784.5" /><path class="edge arrow" d="M 0,0 L 8,-3 L 8,3 Z" transform="rotate(0 710 784.5) translate(710 784.5)" /></g><g id="sprotty_197" class="sprotty-edge" opacity="1"><path class="elkedge" d="M 710,1084.5 L 710,1084.5" /><path class="edge arrow" d="M 0,0 L 8,-3 L 8,3 Z" transform="rotate(0 710 1084.5) translate(710 1084.5)" /></g><g id="sprotty_198" class="sprotty-edge" opacity="1"><path class="elkedge" d="M 226,1564.5 L 226,1564.5" /><path class="edge arrow" d="M 0,0 L 8,-3 L 8,3 Z" transform="rotate(0 226 1564.5) translate(226 1564.5)" /></g><g id="sprotty_199" class="sprotty-edge" opacity="1"><path class="elkedge" d="M 710,1144.5 L 710,1144.5" /><path class="edge arrow" d="M 0,0 L 8,-3 L 8,3 Z" transform="rotate(0 710 1144.5) translate(710 1144.5)" /></g><g id="sprotty_200" class="sprotty-edge" opacity="1"><path class="elkedge" d="M 710,844.5 L 710,844.5" /><path class="edge arrow" d="M 0,0 L 8,-3 L 8,3 Z" transform="rotate(0 710 844.5) translate(710 844.5)" /></g><g id="sprotty_201" class="sprotty-edge" opacity="1"><path class="elkedge" d="M 710,904.5 L 710,904.5" /><path class="edge arrow" d="M 0,0 L 8,-3 L 8,3 Z" transform="rotate(0 710 904.5) translate(710 904.5)" /></g><g id="sprotty_202" class="sprotty-edge" opacity="1"><path class="elkedge" d="M 718,1020.1756756756756 L 1368,668.8243243243244" /><path class="edge arrow" d="M 0,0 L 8,-3 L 8,3 Z" transform="rotate(151.60698057861703 1368 668.8243243243244) translate(1368 668.8243243243244)" /></g><g id="sprotty_205" class="sprotty-edge" opacity="1"><path class="elkedge" d="M 717.4968085106383,1080 L 1485.5031914893616,619" /><path class="edge arrow" d="M 0,0 L 8,-3 L 8,3 Z" transform="rotate(149.02548369725238 1485.5031914893616 619) translate(1485.5031914893616 619)" /></g><g id="sprotty_208" class="sprotty-edge" opacity="1"><path class="elkedge" d="M 0,565.6142061281337 L 702,663.3857938718663" /><path class="edge arrow" d="M 0,0 L 8,-3 L 8,3 Z" transform="rotate(-172.0710915187047 702 663.3857938718663) translate(702 663.3857938718663)" /></g><g id="sprotty_209" class="sprotty-edge" opacity="1"><path class="elkedge" d="M 335.50321395775944,510 L 706.7245179063361,1020" /><path class="edge arrow" d="M 0,0 L 8,-3 L 8,3 Z" transform="rotate(-126.0503079583822 706.7245179063361 1020) translate(706.7245179063361 1020)" /></g><g id="sprotty_212" class="sprotty-edge" opacity="1"><path class="elkedge" d="M -3.881453154875717,244.5 L 705.8814531548758,1020" /><path class="edge arrow" d="M 0,0 L 8,-3 L 8,3 Z" transform="rotate(-132.46576749929014 705.8814531548758 1020) translate(705.8814531548758 1020)" /></g><g id="sprotty_215" class="sprotty-edge" opacity="1"><path class="elkedge" d="M 0,625.6142061281337 L 702,723.3857938718663" /><path class="edge arrow" d="M 0,0 L 8,-3 L 8,3 Z" transform="rotate(-172.0710915187047 702 723.3857938718663) translate(702 723.3857938718663)" /></g><g id="sprotty_218" class="sprotty-edge" opacity="1"><path class="elkedge" d="M 0,685.6142061281337 L 702,783.3857938718663" /><path class="edge arrow" d="M 0,0 L 8,-3 L 8,3 Z" transform="rotate(-172.0710915187047 702 783.3857938718663) translate(702 783.3857938718663)" /></g><g id="sprotty_219" class="sprotty-edge" opacity="1"><path class="elkedge" d="M 333.3358147229115,510 L 707.0496277915632,1080" /><path class="edge arrow" d="M 0,0 L 8,-3 L 8,3 Z" transform="rotate(-123.2503822554017 707.0496277915632 1080) translate(707.0496277915632 1080)" /></g><g id="sprotty_220" class="sprotty-edge" opacity="1"><path class="elkedge" d="M -4.174067495559503,244.5 L 706.1740674955595,1080" /><path class="edge arrow" d="M 0,0 L 8,-3 L 8,3 Z" transform="rotate(-130.37142876540312 706.1740674955595 1080) translate(706.1740674955595 1080)" /></g><g id="sprotty_221" class="sprotty-edge" opacity="1"><path class="elkedge" d="M -7.071837814014985,434.5 L 225.071837814015,1560" /><path class="edge arrow" d="M 0,0 L 8,-3 L 8,3 Z" transform="rotate(-101.6542947327429 225.071837814015 1560) translate(225.071837814015 1560)" /></g><g id="sprotty_222" class="sprotty-edge" opacity="1"><path class="elkedge" d="M 331.55981941309255,510 L 707.3160270880361,1140" /><path class="edge arrow" d="M 0,0 L 8,-3 L 8,3 Z" transform="rotate(-120.81347425284144 707.3160270880361 1140) translate(707.3160270880361 1140)" /></g><g id="sprotty_223" class="sprotty-edge" opacity="1"><path class="elkedge" d="M -4.427860696517413,244.5 L 706.4278606965174,1140" /><path class="edge arrow" d="M 0,0 L 8,-3 L 8,3 Z" transform="rotate(-128.4428531984595 706.4278606965174 1140) translate(706.4278606965174 1140)" /></g><g id="sprotty_226" class="sprotty-edge" opacity="1"><path class="elkedge" d="M 923.9596774193549,1770 L 711.0403225806451,849" /><path class="edge arrow" d="M 0,0 L 8,-3 L 8,3 Z" transform="rotate(76.9828878109225 711.0403225806451 849) translate(711.0403225806451 849)" /></g><g id="sprotty_229" class="sprotty-edge" opacity="1"><path class="elkedge" d="M 923.9596774193549,1830 L 711.0403225806451,909" /><path class="edge arrow" d="M 0,0 L 8,-3 L 8,3 Z" transform="rotate(76.9828878109225 711.0403225806451 909) translate(711.0403225806451 909)" /></g><g id="sprotty_230" class="sprotty-edge" opacity="1"><path class="elkedge" d="M 434,770 L 434,720" /><path class="edge arrow" d="M 0,0 L 8,-3 L 8,3 Z" transform="rotate(90 434 720) translate(434 720)" /></g><g id="sprotty_231" class="sprotty-edge" opacity="1"><path class="elkedge" d="M 434,1100 L 434,720" /><path class="edge arrow" d="M 0,0 L 8,-3 L 8,3 Z" transform="rotate(90 434 720) translate(434 720)" /></g><g id="sprotty_232" class="sprotty-edge" opacity="1"><path class="elkedge" d="M 354.6764705882353,380 L 426.3235294117647,660" /><path class="edge arrow" d="M 0,0 L 8,-3 L 8,3 Z" transform="rotate(-104.35301027235167 426.3235294117647 660) translate(426.3235294117647 660)" /></g><g id="sprotty_233" class="sprotty-edge" opacity="1"><path class="elkedge" d="M 234,665.4807692307693 L 334,677.7403846153846" /><path class="edge arrow" d="M 0,0 L 8,-3 L 8,3 Z" transform="rotate(-173.01063484366153 334 677.7403846153846) translate(334 677.7403846153846)" /></g><g id="sprotty_236" class="sprotty-edge" opacity="1"><path class="elkedge" d="M 142.76328844790928,341.75 L 408.91141034727144,660" /><path class="edge arrow" d="M 0,0 L 8,-3 L 8,3 Z" transform="rotate(-129.90527825096572 408.91141034727144 660) translate(408.91141034727144 660)" /></g><g id="sprotty_237" class="sprotty-edge" opacity="1"><path class="elkedge" d="M 234,723.1730769230769 L 334,706.5865384615385" /><path class="edge arrow" d="M 0,0 L 8,-3 L 8,3 Z" transform="rotate(170.58235285466571 334 706.5865384615385) translate(334 706.5865384615385)" /></g><g id="sprotty_238" class="sprotty-edge" opacity="1"><path class="elkedge" d="M 232.05825242718447,840 L 393.6116504854369,720" /><path class="edge arrow" d="M 0,0 L 8,-3 L 8,3 Z" transform="rotate(143.39546107211746 393.6116504854369 720) translate(393.6116504854369 720)" /></g><g id="sprotty_239" class="sprotty-edge" opacity="1"><path class="elkedge" d="M 230.36363636363637,900 L 404.9090909090909,720" /><path class="edge arrow" d="M 0,0 L 8,-3 L 8,3 Z" transform="rotate(134.11859600341785 404.9090909090909 720) translate(404.9090909090909 720)" /></g><g id="sprotty_240" class="sprotty-edge" opacity="1"><path class="elkedge" d="M 229.40983606557376,960 L 411.26775956284155,720" /><path class="edge arrow" d="M 0,0 L 8,-3 L 8,3 Z" transform="rotate(127.15271423731083 411.26775956284155 720) translate(411.26775956284155 720)" /></g><g id="sprotty_241" class="sprotty-edge" opacity="1"><path class="elkedge" d="M 228.37262357414448,1080 L 418.1825095057034,720" /><path class="edge arrow" d="M 0,0 L 8,-3 L 8,3 Z" transform="rotate(117.80042566034118 418.1825095057034 720) translate(418.1825095057034 720)" /></g><g id="sprotty_242" class="sprotty-edge" opacity="1"><path class="elkedge" d="M 228.05940594059405,1140 L 420.27062706270624,720" /><path class="edge arrow" d="M 0,0 L 8,-3 L 8,3 Z" transform="rotate(114.59100050152601 420.27062706270624 720) translate(420.27062706270624 720)" /></g><g id="sprotty_243" class="sprotty-edge" opacity="1"><path class="elkedge" d="M 227.8192419825073,1200 L 421.87172011661806,720" /><path class="edge arrow" d="M 0,0 L 8,-3 L 8,3 Z" transform="rotate(112.01230148180703 421.87172011661806 720) translate(421.87172011661806 720)" /></g><g id="sprotty_244" class="sprotty-edge" opacity="1"><path class="elkedge" d="M 227.62924281984334,1260 L 423.13838120104435,720" /><path class="edge arrow" d="M 0,0 L 8,-3 L 8,3 Z" transform="rotate(109.90298942454936 423.13838120104435 720) translate(423.13838120104435 720)" /></g><g id="sprotty_245" class="sprotty-edge" opacity="1"><path class="elkedge" d="M 434,1210 L 434,830" /><path class="edge arrow" d="M 0,0 L 8,-3 L 8,3 Z" transform="rotate(90 434 830) translate(434 830)" /></g><g id="sprotty_246" class="sprotty-edge" opacity="1"><path class="elkedge" d="M 227.78455672068637,1320 L 422.1029551954242,830" /><path class="edge arrow" d="M 0,0 L 8,-3 L 8,3 Z" transform="rotate(111.63170058143356 422.1029551954242 830) translate(422.1029551954242 830)" /></g><g id="sprotty_247" class="sprotty-edge" opacity="1"><path class="elkedge" d="M 434,1210 L 434,940" /><path class="edge arrow" d="M 0,0 L 8,-3 L 8,3 Z" transform="rotate(90 434 940) translate(434 940)" /></g><g id="sprotty_248" class="sprotty-edge" opacity="1"><path class="elkedge" d="M 229.81262729124236,669 L 408.5824847250509,880" /><path class="edge arrow" d="M 0,0 L 8,-3 L 8,3 Z" transform="rotate(-130.27295566323374 408.5824847250509 880) translate(408.5824847250509 880)" /></g><g id="sprotty_249" class="sprotty-edge" opacity="1"><path class="elkedge" d="M 228.2581423401689,1320 L 418.94571773220747,940" /><path class="edge arrow" d="M 0,0 L 8,-3 L 8,3 Z" transform="rotate(116.64792833168704 418.94571773220747 940) translate(418.94571773220747 940)" /></g><g id="sprotty_252" class="sprotty-edge" opacity="1"><path class="elkedge" d="M 140.98134328358208,244.5 L 420.7910447761194,880" /><path class="edge arrow" d="M 0,0 L 8,-3 L 8,3 Z" transform="rotate(-113.76382201932809 420.7910447761194 880) translate(420.7910447761194 880)" /></g><g id="sprotty_255" class="sprotty-edge" opacity="1"><path class="elkedge" d="M 140.73020527859236,147.25 L 422.46529814271753,880" /><path class="edge arrow" d="M 0,0 L 8,-3 L 8,3 Z" transform="rotate(-111.0312556179404 422.46529814271753 880) translate(422.46529814271753 880)" /></g><g id="sprotty_256" class="sprotty-edge" opacity="1"><path class="elkedge" d="M 227.97260273972603,1380 L 420.8493150684932,940" /><path class="edge arrow" d="M 0,0 L 8,-3 L 8,3 Z" transform="rotate(113.67053848472048 420.8493150684932 940) translate(420.8493150684932 940)" /></g><g id="sprotty_257" class="sprotty-edge" opacity="1"><path class="elkedge" d="M 227.7511693171188,1440 L 422.3255378858746,940" /><path class="edge arrow" d="M 0,0 L 8,-3 L 8,3 Z" transform="rotate(111.26343675623956 422.3255378858746 940) translate(422.3255378858746 940)" /></g><g id="sprotty_258" class="sprotty-edge" opacity="1"><path class="elkedge" d="M 227.5744322960471,1500 L 423.5037846930194,940" /><path class="edge arrow" d="M 0,0 L 8,-3 L 8,3 Z" transform="rotate(109.2836065616953 423.5037846930194 940) translate(423.5037846930194 940)" /></g><g id="sprotty_259" class="sprotty-edge" opacity="1"><path class="elkedge" d="M 434,1210 L 434,1050" /><path class="edge arrow" d="M 0,0 L 8,-3 L 8,3 Z" transform="rotate(90 434 1050) translate(434 1050)" /></g><g id="sprotty_260" class="sprotty-edge" opacity="1"><path class="elkedge" d="M 229.07389162561577,1320 L 413.5073891625616,1050" /><path class="edge arrow" d="M 0,0 L 8,-3 L 8,3 Z" transform="rotate(124.33647612215326 413.5073891625616 1050) translate(413.5073891625616 1050)" /></g><g id="sprotty_261" class="sprotty-edge" opacity="1"><path class="elkedge" d="M 431.64864864864865,1210 L 349.35135135135135,160" /><path class="edge arrow" d="M 0,0 L 8,-3 L 8,3 Z" transform="rotate(85.51841178143084 349.35135135135135 160) translate(349.35135135135135 160)" /></g><g id="sprotty_262" class="sprotty-edge" opacity="1"><path class="elkedge" d="M 434,1050 L 434,1100" /><path class="edge arrow" d="M 0,0 L 8,-3 L 8,3 Z" transform="rotate(-90 434 1100) translate(434 1100)" /></g><g id="sprotty_263" class="sprotty-edge" opacity="1"><path class="elkedge" d="M 349.61,160 L 431.39,1100" /><path class="edge arrow" d="M 0,0 L 8,-3 L 8,3 Z" transform="rotate(-94.97221314458902 431.39 1100) translate(431.39 1100)" /></g><g id="sprotty_264" class="sprotty-edge" opacity="1"><path class="elkedge" d="M 431.39,1210 L 349.61,270" /><path class="edge arrow" d="M 0,0 L 8,-3 L 8,3 Z" transform="rotate(85.02778685541101 349.61 270) translate(349.61 270)" /></g><g id="sprotty_265" class="sprotty-edge" opacity="1"><path class="elkedge" d="M 226.50207468879668,1320 L 343.65283540802216,270" /><path class="edge arrow" d="M 0,0 L 8,-3 L 8,3 Z" transform="rotate(96.36628403857657 343.65283540802216 270) translate(343.65283540802216 270)" /></g><g id="sprotty_266" class="sprotty-edge" opacity="1"><path class="elkedge" d="M 430.1044776119403,990 L 350.8955223880597,380" /><path class="edge arrow" d="M 0,0 L 8,-3 L 8,3 Z" transform="rotate(82.60149752043134 350.8955223880597 380) translate(350.8955223880597 380)" /></g><g id="sprotty_267" class="sprotty-edge" opacity="1"><path class="elkedge" d="M 347,270 L 347,320" /><path class="edge arrow" d="M 0,0 L 8,-3 L 8,3 Z" transform="rotate(-90 347 320) translate(347 320)" /></g><g id="sprotty_268" class="sprotty-edge" opacity="1"><path class="elkedge" d="M 228.884437596302,1560 L 414.7704160246533,1270" /><path class="edge arrow" d="M 0,0 L 8,-3 L 8,3 Z" transform="rotate(122.65930829224037 414.7704160246533 1270) translate(414.7704160246533 1270)" /></g><g id="sprotty_271" class="sprotty-edge" opacity="1"><path class="elkedge" d="M 131,337.25 L 120,337.25 L 120,440 L 574,440 L 574,337.25 L 563,337.25" /><path class="edge arrow" d="M 0,0 L 8,-3 L 8,3 Z" transform="rotate(0 563 337.25) translate(563 337.25)" /></g><g id="sprotty_272" class="sprotty-edge" opacity="1"><path class="elkedge" d="M 459.4175152749491,880 L 638.1873727087577,669" /><path class="edge arrow" d="M 0,0 L 8,-3 L 8,3 Z" transform="rotate(130.27295566323377 638.1873727087577 669) translate(638.1873727087577 669)" /></g><g id="sprotty_273" class="sprotty-edge" opacity="1"><path class="elkedge" d="M 534,706.5865384615385 L 634,723.1730769230769" /><path class="edge arrow" d="M 0,0 L 8,-3 L 8,3 Z" transform="rotate(-170.58235285466571 634 723.1730769230769) translate(634 723.1730769230769)" /></g><g id="sprotty_274" class="sprotty-edge" opacity="1"><path class="elkedge" d="M 483.7211155378486,880 L 634.5418326693227,789" /><path class="edge arrow" d="M 0,0 L 8,-3 L 8,3 Z" transform="rotate(148.89467282183267 634.5418326693227 789) translate(634.5418326693227 789)" /></g><g id="sprotty_277" class="sprotty-edge" opacity="1"><path class="elkedge" d="M 439.4179104477612,880 L 554.1873134328358,244.5" /><path class="edge arrow" d="M 0,0 L 8,-3 L 8,3 Z" transform="rotate(100.2371031982287 554.1873134328358 244.5) translate(554.1873134328358 244.5)" /></g><g id="sprotty_280" class="sprotty-edge" opacity="1"><path class="elkedge" d="M 438.73118279569894,880 L 554.2903225806451,147.25" /><path class="edge arrow" d="M 0,0 L 8,-3 L 8,3 Z" transform="rotate(98.96208073253563 554.2903225806451 147.25) translate(554.2903225806451 147.25)" /></g><g id="sprotty_281" class="sprotty-edge" opacity="1"><path class="elkedge" d="M 529.2671755725191,880 L 634,847.0192307692307" /><path class="edge arrow" d="M 0,0 L 8,-3 L 8,3 Z" transform="rotate(162.52058471831904 634 847.0192307692307) translate(634 847.0192307692307)" /></g><g id="sprotty_282" class="sprotty-edge" opacity="1"><path class="elkedge" d="M -7.071837814014985,434.5 L 225.071837814015,1560" /><path class="edge arrow" d="M 0,0 L 8,-3 L 8,3 Z" transform="rotate(-101.6542947327429 225.071837814015 1560) translate(225.071837814015 1560)" /></g><g id="sprotty_283" class="sprotty-edge" opacity="1"><path class="elkedge" d="M 0,240 L 131,240" /><path class="edge arrow" d="M 0,0 L 8,-3 L 8,3 Z" transform="rotate(180 131 240) translate(131 240)" /></g><g id="sprotty_286" class="sprotty-edge" opacity="1"><path class="elkedge" d="M 0,142.75 L 131,142.75" /><path class="edge arrow" d="M 0,0 L 8,-3 L 8,3 Z" transform="rotate(180 131 142.75) translate(131 142.75)" /></g><g id="sprotty_287" class="sprotty-edge" opacity="1"><path class="elkedge" d="M 434,1210 L 434,720" /><path class="edge arrow" d="M 0,0 L 8,-3 L 8,3 Z" transform="rotate(90 434 720) translate(434 720)" /></g><g id="sprotty_288" class="sprotty-edge" opacity="1"><path class="elkedge" d="M 232.05825242718447,840 L 393.6116504854369,720" /><path class="edge arrow" d="M 0,0 L 8,-3 L 8,3 Z" transform="rotate(143.39546107211746 393.6116504854369 720) translate(393.6116504854369 720)" /></g><g id="sprotty_289" class="sprotty-edge" opacity="1"><path class="elkedge" d="M 227.47517730496455,1320 L 424.16548463356975,720" /><path class="edge arrow" d="M 0,0 L 8,-3 L 8,3 Z" transform="rotate(108.15003254253322 424.16548463356975 720) translate(424.16548463356975 720)" /></g><g id="sprotty_290" class="sprotty-edge" opacity="1"><path class="elkedge" d="M 230.36363636363637,900 L 404.9090909090909,720" /><path class="edge arrow" d="M 0,0 L 8,-3 L 8,3 Z" transform="rotate(134.11859600341785 404.9090909090909 720) translate(404.9090909090909 720)" /></g><g id="sprotty_291" class="sprotty-edge" opacity="1"><path class="elkedge" d="M 228.37262357414448,1080 L 418.1825095057034,720" /><path class="edge arrow" d="M 0,0 L 8,-3 L 8,3 Z" transform="rotate(117.80042566034118 418.1825095057034 720) translate(418.1825095057034 720)" /></g><g id="sprotty_292" class="sprotty-edge" opacity="1"><path class="elkedge" d="M 434,1210 L 434,940" /><path class="edge arrow" d="M 0,0 L 8,-3 L 8,3 Z" transform="rotate(90 434 940) translate(434 940)" /></g><g id="sprotty_293" class="sprotty-edge" opacity="1"><path class="elkedge" d="M 229.81262729124236,669 L 408.5824847250509,880" /><path class="edge arrow" d="M 0,0 L 8,-3 L 8,3 Z" transform="rotate(-130.27295566323374 408.5824847250509 880) translate(408.5824847250509 880)" /></g><g id="sprotty_294" class="sprotty-edge" opacity="1"><path class="elkedge" d="M 228.2581423401689,1320 L 418.94571773220747,940" /><path class="edge arrow" d="M 0,0 L 8,-3 L 8,3 Z" transform="rotate(116.64792833168704 418.94571773220747 940) translate(418.94571773220747 940)" /></g><g id="sprotty_295" class="sprotty-edge" opacity="1"><path class="elkedge" d="M 227.97260273972603,1380 L 420.8493150684932,940" /><path class="edge arrow" d="M 0,0 L 8,-3 L 8,3 Z" transform="rotate(113.67053848472048 420.8493150684932 940) translate(420.8493150684932 940)" /></g><g id="sprotty_296" class="sprotty-edge" opacity="1"><path class="elkedge" d="M 228.884437596302,1560 L 414.7704160246533,1270" /><path class="edge arrow" d="M 0,0 L 8,-3 L 8,3 Z" transform="rotate(122.65930829224037 414.7704160246533 1270) translate(414.7704160246533 1270)" /></g><g id="sprotty_297" class="sprotty-edge" opacity="1"><path class="elkedge" d="M 459.4175152749491,880 L 638.1873727087577,669" /><path class="edge arrow" d="M 0,0 L 8,-3 L 8,3 Z" transform="rotate(130.27295566323377 638.1873727087577 669) translate(638.1873727087577 669)" /></g><g id="sprotty_298" class="sprotty-edge" opacity="1"><path class="elkedge" d="M 534,706.5865384615385 L 634,723.1730769230769" /><path class="edge arrow" d="M 0,0 L 8,-3 L 8,3 Z" transform="rotate(-170.58235285466571 634 723.1730769230769) translate(634 723.1730769230769)" /></g><g id="sprotty_299" class="sprotty-edge" opacity="1"><path class="elkedge" d="M 483.7211155378486,880 L 634.5418326693227,789" /><path class="edge arrow" d="M 0,0 L 8,-3 L 8,3 Z" transform="rotate(148.89467282183267 634.5418326693227 789) translate(634.5418326693227 789)" /></g><g id="sprotty_300" class="sprotty-edge" opacity="1"><path class="elkedge" d="M 529.2671755725191,880 L 634,847.0192307692307" /><path class="edge arrow" d="M 0,0 L 8,-3 L 8,3 Z" transform="rotate(162.52058471831904 634 847.0192307692307) translate(634 847.0192307692307)" /></g><g id="sprotty_301" class="sprotty-edge" opacity="1"><path class="elkedge" d="M 227.94583883751653,669 L 704.0277410832232,1770" /><path class="edge arrow" d="M 0,0 L 8,-3 L 8,3 Z" transform="rotate(-113.38407214295745 704.0277410832232 1770) translate(704.0277410832232 1770)" /></g><g id="sprotty_304" class="sprotty-edge" opacity="1"><path class="elkedge" d="M 517,1775.4807692307693 L 617,1787.7403846153845" /><path class="edge arrow" d="M 0,0 L 8,-3 L 8,3 Z" transform="rotate(-173.0106348436616 617 1787.7403846153845) translate(617 1787.7403846153845)" /></g><g id="sprotty_307" class="sprotty-edge" opacity="1"><path class="elkedge" d="M 517,1833.173076923077 L 617,1816.5865384615386" /><path class="edge arrow" d="M 0,0 L 8,-3 L 8,3 Z" transform="rotate(170.58235285466577 617 1816.5865384615386) translate(617 1816.5865384615386)" /></g><g id="sprotty_308" class="sprotty-edge" opacity="1"><path class="elkedge" d="M 234,1568.337067209776 L 654.4522292993631,1770" /><path class="edge arrow" d="M 0,0 L 8,-3 L 8,3 Z" transform="rotate(-154.37606794565545 654.4522292993631 1770) translate(654.4522292993631 1770)" /></g><g id="sprotty_311" class="sprotty-edge" opacity="1"><path class="elkedge" d="M 517,1890.8653846153845 L 650.968253968254,1830" /><path class="edge arrow" d="M 0,0 L 8,-3 L 8,3 Z" transform="rotate(155.5664230096372 650.968253968254 1830) translate(650.968253968254 1830)" /></g><g id="sprotty_312" class="sprotty-edge" opacity="1"><path class="elkedge" d="M 710.032967032967,849 L 716.7802197802198,1770" /><path class="edge arrow" d="M 0,0 L 8,-3 L 8,3 Z" transform="rotate(-90.41974179133534 716.7802197802198 1770) translate(716.7802197802198 1770)" /></g><g id="sprotty_313" class="sprotty-edge" opacity="1"><path class="elkedge" d="M 717,1830 L 717,1880" /><path class="edge arrow" d="M 0,0 L 8,-3 L 8,3 Z" transform="rotate(-90 717 1880) translate(717 1880)" /></g><g id="sprotty_316" class="sprotty-edge" opacity="1"><path class="elkedge" d="M 817,1902.548076923077 L 917,1895.0961538461538" /><path class="edge arrow" d="M 0,0 L 8,-3 L 8,3 Z" transform="rotate(175.73823961931822 917 1895.0961538461538) translate(917 1895.0961538461538)" /></g><g id="sprotty_317" class="sprotty-edge" opacity="1"><path class="elkedge" d="M 763.0516605166051,1880 L 918.0922509225093,1779" /><path class="edge arrow" d="M 0,0 L 8,-3 L 8,3 Z" transform="rotate(146.91807712723494 918.0922509225093 1779) translate(918.0922509225093 1779)" /></g><g id="sprotty_318" class="sprotty-edge" opacity="1"><path class="elkedge" d="M 799.6490066225165,1880 L 917,1837.4038461538462" /><path class="edge arrow" d="M 0,0 L 8,-3 L 8,3 Z" transform="rotate(160.05007635827792 917 1837.4038461538462) translate(917 1837.4038461538462)" /></g><g id="sprotty_319" class="sprotty-edge" opacity="1"><path class="elkedge" d="M 634,723.3461538461538 L 234,665.6538461538462" /><path class="edge arrow" d="M 0,0 L 8,-3 L 8,3 Z" transform="rotate(8.207216411918136 234 665.6538461538462) translate(234 665.6538461538462)" /></g><g id="sprotty_322" class="sprotty-edge" opacity="1"><path class="elkedge" d="M 300,1834.5 L 501,1834.5" /><path class="edge arrow" d="M 0,0 L 8,-3 L 8,3 Z" transform="rotate(180 501 1834.5) translate(501 1834.5)" /></g><g id="sprotty_323" class="sprotty-edge" opacity="1"><path class="elkedge" d="M -7.071837814014985,434.5 L 225.071837814015,1560" /><path class="edge arrow" d="M 0,0 L 8,-3 L 8,3 Z" transform="rotate(-101.6542947327429 225.071837814015 1560) translate(225.071837814015 1560)" /></g><g id="sprotty_324" class="sprotty-edge" opacity="1"><path class="elkedge" d="M 641.5134146341463,669 L 509.48658536585367,1890" /><path class="edge arrow" d="M 0,0 L 8,-3 L 8,3 Z" transform="rotate(-83.82858048075981 509.48658536585367 1890) translate(509.48658536585367 1890)" /></g><g id="sprotty_327" class="sprotty-edge" opacity="1"><path class="elkedge" d="M 413.6666666666667,480 L 1852,480" /><path class="edge arrow" d="M 0,0 L 8,-3 L 8,3 Z" transform="rotate(180 1852 480) translate(1852 480)" /></g><g id="sprotty_328" class="sprotty-edge" opacity="1"><path class="elkedge" d="M 563,240 L 584,240 L 584,480 L 1852,480" /><path class="edge arrow" d="M 0,0 L 8,-3 L 8,3 Z" transform="rotate(180 1852 480) translate(1852 480)" /><g id="sprotty_328_j0" transform="translate(584, 480)" opacity="1"><circle class="elkjunction" r="2" /></g></g></g></g></svg>
