<svg id="sprotty_1" class="sprotty-graph sprotty" tabindex="1002" xmlns="http://www.w3.org/2000/svg" viewBox="0 0 1174 1452"><style>.elknode {
    stroke: #448;
    stroke-width: 2;
    fill: #ddf;
}

.elkport {
    stroke: #448;
    stroke-width: 1;
    fill: #66c;
}

.elkedge {
    fill: none;
    stroke: #224;
    stroke-width: 1;
}

.elkedge.arrow {
    fill: #336;
}

.elklabel {
    stroke-width: 0;
    stroke: #000;
    fill: #000;
    font-family: sans-serif;
    font-size: 10pt;
    dominant-baseline: hanging;
}

.elkjunction {
    stroke: none;
    fill: #224;
}

.selected &gt; rect {
    stroke-width: 3;
}

.mouseover {
    stroke: #88f;
}
/*
 * Copyright (C) 2017 TypeFox and others.
 *
 * Licensed under the Apache License, Version 2.0 (the &quot;License&quot;); you may not use this file except in compliance with the License.
 * You may obtain a copy of the License at http://www.apache.org/licenses/LICENSE-2.0
 */

.sprotty {
    padding: 0px;
    font-family: &quot;Helvetica Neue&quot;, Helvetica, Arial, sans-serif;
}

.sprotty-hidden {
    display: block;
    position: absolute;
    width: 0px;
    height: 0px;
}

.sprotty-popup {
    font-family: &quot;Helvetica Neue&quot;, Helvetica, Arial, sans-serif;
    position: absolute;
    background: white;
    border-radius: 5px;
    border: 1px solid;
    max-width: 400px;
    min-width: 100px;
}

.sprotty-popup &gt; div {
    margin: 10px;
}

.sprotty-popup-closed {
    display: none;
}
</style><g transform="scale(1) translate(0,0)"><g id="sprotty_3" transform="translate(117, 71)" opacity="1"><rect class="elknode" x="0" y="0" width="940" height="1331" /><g id="sprotty_5" transform="translate(640, 767.8076923076924)" opacity="1"><rect class="elknode" x="0" y="0" width="200" height="60" /><text id="sprotty_6" class="elklabel" transform="translate(5, 22) translate(0, 0)" opacity="1">k8s_apps_v1_stateful_set.gitlab</text></g><g id="sprotty_7" transform="translate(360, 90.5)" opacity="1"><rect class="elknode" x="0" y="0" width="200" height="60" /><text id="sprotty_8" class="elklabel" transform="translate(5, 22) translate(0, 0)" opacity="1">k8s_core_v1_service.gitlab</text></g><g id="sprotty_9" transform="translate(120, 225.5)" opacity="1"><rect class="elknode" x="0" y="0" width="200" height="60" /><text id="sprotty_10" class="elklabel" transform="translate(5, 22) translate(0, 0)" opacity="1">k8s_core_v1_service_account.gitlab</text></g><g id="sprotty_11" transform="translate(360, 315.5)" opacity="1"><rect class="elknode" x="0" y="0" width="200" height="60" /><text id="sprotty_12" class="elklabel" transform="translate(5, 22) translate(0, 0)" opacity="1">k8s_policy_v1beta1_pod_disruption_budget.this</text></g><g id="sprotty_13" transform="translate(120, 385.5)" opacity="1"><rect class="elknode" x="0" y="0" width="200" height="60" /><text id="sprotty_14" class="elklabel" transform="translate(5, 22) translate(0, 0)" opacity="1">k8s_rbac_authorization_k8s_io_v1_cluster_role.gitlab</text></g><g id="sprotty_15" transform="translate(360, 235.5)" opacity="1"><rect class="elknode" x="0" y="0" width="200" height="60" /><text id="sprotty_16" class="elklabel" transform="translate(5, 22) translate(0, 0)" opacity="1">k8s_rbac_authorization_k8s_io_v1_cluster_role_binding.gitlab</text></g><g id="sprotty_19" transform="translate(360, 585.5)" opacity="1"><rect class="elknode" x="0" y="0" width="200" height="60" /><text id="sprotty_20" class="elklabel" transform="translate(5, 22) translate(0, 0)" opacity="1">local.gitlab_omnibus_config</text></g><g id="sprotty_49" transform="translate(120, 305.5)" opacity="1"><rect class="elknode" x="0" y="0" width="200" height="60" /><text id="sprotty_50" class="elklabel" transform="translate(5, 22) translate(0, 0)" opacity="1">local.labels</text></g><g id="sprotty_22" transform="translate(-16, 731)" opacity="1"><rect class="elkport" x="0" y="0" width="16" height="9" /><text id="sprotty_23" class="elklabel" transform="translate(-1, 10) translate(0, 0)" opacity="1">auto_devops_domain</text></g><g id="sprotty_25" transform="translate(-16, 791)" opacity="1"><rect class="elkport" x="0" y="0" width="16" height="9" /><text id="sprotty_26" class="elklabel" transform="translate(-1, 10) translate(0, 0)" opacity="1">gitlab_root_password</text></g><g id="sprotty_28" transform="translate(-16, 851)" opacity="1"><rect class="elkport" x="0" y="0" width="16" height="9" /><text id="sprotty_29" class="elklabel" transform="translate(-1, 10) translate(0, 0)" opacity="1">gitlab_runners_registration_token</text></g><g id="sprotty_31" transform="translate(-16, 911)" opacity="1"><rect class="elkport" x="0" y="0" width="16" height="9" /><text id="sprotty_32" class="elklabel" transform="translate(-1, 10) translate(0, 0)" opacity="1">image</text></g><g id="sprotty_34" transform="translate(-16, 971)" opacity="1"><rect class="elkport" x="0" y="0" width="16" height="9" /><text id="sprotty_35" class="elklabel" transform="translate(-1, 10) translate(0, 0)" opacity="1">node_selector</text></g><g id="sprotty_37" transform="translate(-16, 1031)" opacity="1"><rect class="elkport" x="0" y="0" width="16" height="9" /><text id="sprotty_38" class="elklabel" transform="translate(-1, 10) translate(0, 0)" opacity="1">replicas</text></g><g id="sprotty_40" transform="translate(-16, 1091)" opacity="1"><rect class="elkport" x="0" y="0" width="16" height="9" /><text id="sprotty_41" class="elklabel" transform="translate(-1, 10) translate(0, 0)" opacity="1">storage</text></g><g id="sprotty_43" transform="translate(-16, 1151)" opacity="1"><rect class="elkport" x="0" y="0" width="16" height="9" /><text id="sprotty_44" class="elklabel" transform="translate(-1, 10) translate(0, 0)" opacity="1">storage_class_name</text></g><g id="sprotty_46" transform="translate(-16, 491)" opacity="1"><rect class="elkport" x="0" y="0" width="16" height="9" /><text id="sprotty_47" class="elklabel" transform="translate(-1, 10) translate(0, 0)" opacity="1">volume_claim_template_name</text></g><g id="sprotty_52" transform="translate(-16, 110)" opacity="1"><rect class="elkport" x="0" y="0" width="16" height="9" /><text id="sprotty_53" class="elklabel" transform="translate(-1, 10) translate(0, 0)" opacity="1">annotations</text></g><g id="sprotty_55" transform="translate(-16, 170)" opacity="1"><rect class="elkport" x="0" y="0" width="16" height="9" /><text id="sprotty_56" class="elklabel" transform="translate(-1, 10) translate(0, 0)" opacity="1">namespace</text></g><g id="sprotty_58" transform="translate(-16, 50)" opacity="1"><rect class="elkport" x="0" y="0" width="16" height="9" /><text id="sprotty_59" class="elklabel" transform="translate(-1, 10) translate(0, 0)" opacity="1">port</text></g><g id="sprotty_61" transform="translate(-16, 261)" opacity="1"><rect class="elkport" x="0" y="0" width="16" height="9" /><text id="sprotty_62" class="elklabel" transform="translate(-1, 10) translate(0, 0)" opacity="1">name</text></g><g id="sprotty_69" transform="translate(-16, 671)" opacity="1"><rect class="elkport" x="0" y="0" width="16" height="9" /><text id="sprotty_70" class="elklabel" transform="translate(-1, 10) translate(0, 0)" opacity="1">gitlab_external_url</text></g><g id="sprotty_72" transform="translate(-16, 611)" opacity="1"><rect class="elkport" x="0" y="0" width="16" height="9" /><text id="sprotty_73" class="elklabel" transform="translate(-1, 10) translate(0, 0)" opacity="1">mattermost_external_url</text></g><g id="sprotty_75" transform="translate(-16, 551)" opacity="1"><rect class="elkport" x="0" y="0" width="16" height="9" /><text id="sprotty_76" class="elklabel" transform="translate(-1, 10) translate(0, 0)" opacity="1">registry_external_url</text></g><g id="sprotty_79" transform="translate(940, 158)" opacity="1"><rect class="elkport" x="0" y="0" width="16" height="9" /><text id="sprotty_80" class="elklabel" transform="translate(17, 10) translate(0, 0)" opacity="1">cluster_ip</text></g><g id="sprotty_82" transform="translate(940, 1211)" opacity="1"><rect class="elkport" x="0" y="0" width="16" height="9" /><text id="sprotty_83" class="elklabel" transform="translate(17, 10) translate(0, 0)" opacity="1">gitlab_external_url</text></g><g id="sprotty_85" transform="translate(940, 1271)" opacity="1"><rect class="elkport" x="0" y="0" width="16" height="9" /><text id="sprotty_86" class="elklabel" transform="translate(17, 10) translate(0, 0)" opacity="1">gitlab_runners_registration_token</text></g><g id="sprotty_88" transform="translate(940, 218)" opacity="1"><rect class="elkport" x="0" y="0" width="16" height="9" /><text id="sprotty_89" class="elklabel" transform="translate(17, 10) translate(0, 0)" opacity="1">name</text></g><g id="sprotty_91" transform="translate(940, 98)" opacity="1"><rect class="elkport" x="0" y="0" width="16" height="9" /><text id="sprotty_92" class="elklabel" transform="translate(17, 10) translate(0, 0)" opacity="1">port</text></g><g id="sprotty_94" transform="translate(940, 793.3076923076924)" opacity="1"><rect class="elkport" x="0" y="0" width="16" height="9" /><text id="sprotty_95" class="elklabel" transform="translate(17, 10) translate(0, 0)" opacity="1">statefulset_uid</text></g><text id="sprotty_4" class="elklabel" transform="translate(0, -21) translate(0, 0)" opacity="1">modules/gitlab</text><g id="sprotty_17" class="sprotty-edge" opacity="1"><path class="elkedge" d="M 560,138.5 L 610,138.5 L 610,772.423076923077 L 640,772.423076923077" /><path class="edge arrow" d="M 0,0 L 8,-3 L 8,3 Z" transform="rotate(180 640 772.423076923077) translate(640 772.423076923077)" /></g><g id="sprotty_18" class="sprotty-edge" opacity="1"><path class="elkedge" d="M 560,265.5 L 600,265.5 L 600,777.0384615384617 L 640,777.0384615384617" /><path class="edge arrow" d="M 0,0 L 8,-3 L 8,3 Z" transform="rotate(180 640 777.0384615384617) translate(640 777.0384615384617)" /></g><g id="sprotty_21" class="sprotty-edge" opacity="1"><path class="elkedge" d="M 560,615.5 L 580,615.5 L 580,786.2692307692308 L 640,786.2692307692308" /><path class="edge arrow" d="M 0,0 L 8,-3 L 8,3 Z" transform="rotate(180 640 786.2692307692308) translate(640 786.2692307692308)" /></g><g id="sprotty_24" class="sprotty-edge" opacity="1"><path class="elkedge" d="M 0,735.5 L 570,735.5 L 570,790.8846153846155 L 640,790.8846153846155" /><path class="edge arrow" d="M 0,0 L 8,-3 L 8,3 Z" transform="rotate(180 640 790.8846153846155) translate(640 790.8846153846155)" /></g><g id="sprotty_27" class="sprotty-edge" opacity="1"><path class="elkedge" d="M 0,795.5 L 640,795.5" /><path class="edge arrow" d="M 0,0 L 8,-3 L 8,3 Z" transform="rotate(180 640 795.5) translate(640 795.5)" /></g><g id="sprotty_30" class="sprotty-edge" opacity="1"><path class="elkedge" d="M 0,855.5 L 570,855.5 L 570,800.1153846153846 L 640,800.1153846153846" /><path class="edge arrow" d="M 0,0 L 8,-3 L 8,3 Z" transform="rotate(180 640 800.1153846153846) translate(640 800.1153846153846)" /></g><g id="sprotty_33" class="sprotty-edge" opacity="1"><path class="elkedge" d="M 0,915.5 L 580,915.5 L 580,804.7307692307693 L 640,804.7307692307693" /><path class="edge arrow" d="M 0,0 L 8,-3 L 8,3 Z" transform="rotate(180 640 804.7307692307693) translate(640 804.7307692307693)" /></g><g id="sprotty_36" class="sprotty-edge" opacity="1"><path class="elkedge" d="M 0,975.5 L 590,975.5 L 590,809.3461538461539 L 640,809.3461538461539" /><path class="edge arrow" d="M 0,0 L 8,-3 L 8,3 Z" transform="rotate(180 640 809.3461538461539) translate(640 809.3461538461539)" /></g><g id="sprotty_39" class="sprotty-edge" opacity="1"><path class="elkedge" d="M 0,1035.5 L 600,1035.5 L 600,813.9615384615386 L 640,813.9615384615386" /><path class="edge arrow" d="M 0,0 L 8,-3 L 8,3 Z" transform="rotate(180 640 813.9615384615386) translate(640 813.9615384615386)" /></g><g id="sprotty_42" class="sprotty-edge" opacity="1"><path class="elkedge" d="M 0,1095.5 L 610,1095.5 L 610,818.5769230769231 L 640,818.5769230769231" /><path class="edge arrow" d="M 0,0 L 8,-3 L 8,3 Z" transform="rotate(180 640 818.5769230769231) translate(640 818.5769230769231)" /></g><g id="sprotty_45" class="sprotty-edge" opacity="1"><path class="elkedge" d="M 0,1155.5 L 620,1155.5 L 620,823.1923076923077 L 640,823.1923076923077" /><path class="edge arrow" d="M 0,0 L 8,-3 L 8,3 Z" transform="rotate(180 640 823.1923076923077) translate(640 823.1923076923077)" /></g><g id="sprotty_48" class="sprotty-edge" opacity="1"><path class="elkedge" d="M 0,495.5 L 590,495.5 L 590,781.6538461538462 L 640,781.6538461538462" /><path class="edge arrow" d="M 0,0 L 8,-3 L 8,3 Z" transform="rotate(180 640 781.6538461538462) translate(640 781.6538461538462)" /></g><g id="sprotty_51" class="sprotty-edge" opacity="1"><path class="elkedge" d="M 320,325.5 L 340,325.5 L 340,138.5 L 360,138.5" /><path class="edge arrow" d="M 0,0 L 8,-3 L 8,3 Z" transform="rotate(180 360 138.5) translate(360 138.5)" /></g><g id="sprotty_54" class="sprotty-edge" opacity="1"><path class="elkedge" d="M 0,114.5 L 360,114.5" /><path class="edge arrow" d="M 0,0 L 8,-3 L 8,3 Z" transform="rotate(180 360 114.5) translate(360 114.5)" /></g><g id="sprotty_57" class="sprotty-edge" opacity="1"><path class="elkedge" d="M 0,174.5 L 330,174.5 L 330,126.5 L 360,126.5" /><path class="edge arrow" d="M 0,0 L 8,-3 L 8,3 Z" transform="rotate(180 360 126.5) translate(360 126.5)" /></g><g id="sprotty_60" class="sprotty-edge" opacity="1"><path class="elkedge" d="M 0,54.5 L 330,54.5 L 330,102.5 L 360,102.5" /><path class="edge arrow" d="M 0,0 L 8,-3 L 8,3 Z" transform="rotate(180 360 102.5) translate(360 102.5)" /></g><g id="sprotty_63" class="sprotty-edge" opacity="1"><path class="elkedge" d="M 0,265.5 L 120,265.5" /><path class="edge arrow" d="M 0,0 L 8,-3 L 8,3 Z" transform="rotate(180 120 265.5) translate(120 265.5)" /></g><g id="sprotty_64" class="sprotty-edge" opacity="1"><path class="elkedge" d="M 0,174.5 L 110,174.5 L 110,245.5 L 120,245.5" /><path class="edge arrow" d="M 0,0 L 8,-3 L 8,3 Z" transform="rotate(180 120 245.5) translate(120 245.5)" /><g id="sprotty_64_j0" transform="translate(110, 174.5)" opacity="1"><circle class="elkjunction" r="2" /></g></g><g id="sprotty_65" class="sprotty-edge" opacity="1"><path class="elkedge" d="M 320,345.5 L 360,345.5" /><path class="edge arrow" d="M 0,0 L 8,-3 L 8,3 Z" transform="rotate(180 360 345.5) translate(360 345.5)" /></g><g id="sprotty_66" class="sprotty-edge" opacity="1"><path class="elkedge" d="M 0,265.5 L 110,265.5 L 110,415.5 L 120,415.5" /><path class="edge arrow" d="M 0,0 L 8,-3 L 8,3 Z" transform="rotate(180 120 415.5) translate(120 415.5)" /><g id="sprotty_66_j0" transform="translate(110, 265.5)" opacity="1"><circle class="elkjunction" r="2" /></g></g><g id="sprotty_67" class="sprotty-edge" opacity="1"><path class="elkedge" d="M 320,255.5 L 360,255.5" /><path class="edge arrow" d="M 0,0 L 8,-3 L 8,3 Z" transform="rotate(180 360 255.5) translate(360 255.5)" /></g><g id="sprotty_68" class="sprotty-edge" opacity="1"><path class="elkedge" d="M 320,415.5 L 350,415.5 L 350,275.5 L 360,275.5" /><path class="edge arrow" d="M 0,0 L 8,-3 L 8,3 Z" transform="rotate(180 360 275.5) translate(360 275.5)" /></g><g id="sprotty_71" class="sprotty-edge" opacity="1"><path class="elkedge" d="M 0,675.5 L 330,675.5 L 330,630.5 L 360,630.5" /><path class="edge arrow" d="M 0,0 L 8,-3 L 8,3 Z" transform="rotate(180 360 630.5) translate(360 630.5)" /></g><g id="sprotty_74" class="sprotty-edge" opacity="1"><path class="elkedge" d="M 0,615.5 L 360,615.5" /><path class="edge arrow" d="M 0,0 L 8,-3 L 8,3 Z" transform="rotate(180 360 615.5) translate(360 615.5)" /></g><g id="sprotty_77" class="sprotty-edge" opacity="1"><path class="elkedge" d="M 0,555.5 L 330,555.5 L 330,600.5 L 360,600.5" /><path class="edge arrow" d="M 0,0 L 8,-3 L 8,3 Z" transform="rotate(180 360 600.5) translate(360 600.5)" /></g><g id="sprotty_78" class="sprotty-edge" opacity="1"><path class="elkedge" d="M 0,265.5 L 110,265.5 L 110,335.5 L 120,335.5" /><path class="edge arrow" d="M 0,0 L 8,-3 L 8,3 Z" transform="rotate(180 120 335.5) translate(120 335.5)" /><g id="sprotty_78_j0" transform="translate(110, 335.5)" opacity="1"><circle class="elkjunction" r="2" /></g></g><g id="sprotty_81" class="sprotty-edge" opacity="1"><path class="elkedge" d="M 560,114.5 L 630,114.5 L 630,162.5 L 940,162.5" /><path class="edge arrow" d="M 0,0 L 8,-3 L 8,3 Z" transform="rotate(180 940 162.5) translate(940 162.5)" /></g><g id="sprotty_84" class="sprotty-edge" opacity="1"><path class="elkedge" d="M -0.033333333333333215,680 L 940.0333333333333,1211" /><path class="edge arrow" d="M 0,0 L 8,-3 L 8,3 Z" transform="rotate(-150.5399123696336 940.0333333333333 1211) translate(940.0333333333333 1211)" /></g><g id="sprotty_87" class="sprotty-edge" opacity="1"><path class="elkedge" d="M 0,859.0146443514644 L 940,1271.9853556485355" /><path class="edge arrow" d="M 0,0 L 8,-3 L 8,3 Z" transform="rotate(-156.28264899857905 940 1271.9853556485355) translate(940 1271.9853556485355)" /></g><g id="sprotty_90" class="sprotty-edge" opacity="1"><path class="elkedge" d="M 560,126.5 L 620,126.5 L 620,222.5 L 940,222.5" /><path class="edge arrow" d="M 0,0 L 8,-3 L 8,3 Z" transform="rotate(180 940 222.5) translate(940 222.5)" /></g><g id="sprotty_93" class="sprotty-edge" opacity="1"><path class="elkedge" d="M 560,102.5 L 940,102.5" /><path class="edge arrow" d="M 0,0 L 8,-3 L 8,3 Z" transform="rotate(180 940 102.5) translate(940 102.5)" /></g><g id="sprotty_96" class="sprotty-edge" opacity="1"><path class="elkedge" d="M 840,797.8076923076924 L 940,797.8076923076924" /><path class="edge arrow" d="M 0,0 L 8,-3 L 8,3 Z" transform="rotate(180 940 797.8076923076924) translate(940 797.8076923076924)" /></g></g></g></svg>
