<svg id="sprotty_1" class="sprotty-graph sprotty" tabindex="1002" xmlns="http://www.w3.org/2000/svg" viewBox="0 0 1284 1496.5"><style>
.elknode {
    stroke: #448;
    stroke-width: 2;
    fill: #ddf;
    fill-opacity: 0.5;
}

.elkport {
    stroke: #448;
    stroke-width: 1;
    fill: #66c;
}

.elkedge {
    fill: none;
    stroke: #88f;
    stroke-width: 8;
    stroke-opacity: 0.3;
    pointer-events: stroke;
    stroke-linejoin: round;
}

.elkedge:hover {
    stroke: #448;
    stroke-width: 8;
    stroke-opacity: 1;
    stroke-dasharray: 16px;
    stroke-dashoffset: 32px;
    animation: stroke 0.5s linear infinite;
}

@keyframes stroke {
    to {
        stroke-dashoffset: 0;
    }
}

.elkedge.arrow {
    fill: #336;
}

.elklabel {
    stroke-width: 0;
    stroke: #000;
    fill: #000;
    font-family: sans-serif;
    font-size: 10pt;
    dominant-baseline: hanging;
}

.elklabel:hover {
    font-size: 24pt;
}

.elkjunction {
    stroke: none;
    fill: #224;
}

.selected &gt; rect {
    stroke-width: 3;
}

.mouseover {
    stroke: #88f;
}
/*
 * Copyright (C) 2017 TypeFox and others.
 *
 * Licensed under the Apache License, Version 2.0 (the &quot;License&quot;); you may not use this file except in compliance with the License.
 * You may obtain a copy of the License at http://www.apache.org/licenses/LICENSE-2.0
 */

.sprotty {
    padding: 0px;
    font-family: &quot;Helvetica Neue&quot;, Helvetica, Arial, sans-serif;
}

.sprotty-hidden {
    display: block;
    position: absolute;
    width: 0px;
    height: 0px;
}

.sprotty-popup {
    font-family: &quot;Helvetica Neue&quot;, Helvetica, Arial, sans-serif;
    position: absolute;
    background: white;
    border-radius: 5px;
    border: 1px solid;
    max-width: 400px;
    min-width: 100px;
}

.sprotty-popup &gt; div {
    margin: 10px;
}

.sprotty-popup-closed {
    display: none;
}
</style><g transform="scale(1) translate(0,0)"><g id="sprotty_3" transform="translate(117, 71)" opacity="1"><rect class="elknode" x="0" y="0" rx="10" width="1050" height="1375.5" /><g id="sprotty_5" transform="translate(350, 50)" opacity="1"><rect class="elknode" x="0" y="0" rx="10" width="200" height="60" /><text id="sprotty_6" class="elklabel" transform="translate(5, 22) translate(0, 0)" opacity="1">k8s_apps_v1_deployment.nginx-ingress-controller</text></g><g id="sprotty_19" transform="translate(350, 1010)" opacity="1"><rect class="elknode" x="0" y="0" rx="10" width="200" height="60" /><text id="sprotty_20" class="elklabel" transform="translate(5, 22) translate(0, 0)" opacity="1">k8s_core_v1_config_map.nginx-configuration</text></g><g id="sprotty_23" transform="translate(350, 530)" opacity="1"><rect class="elknode" x="0" y="0" rx="10" width="200" height="60" /><text id="sprotty_24" class="elklabel" transform="translate(5, 22) translate(0, 0)" opacity="1">k8s_core_v1_config_map.tcp-services</text></g><g id="sprotty_27" transform="translate(350, 690)" opacity="1"><rect class="elknode" x="0" y="0" rx="10" width="200" height="60" /><text id="sprotty_28" class="elklabel" transform="translate(5, 22) translate(0, 0)" opacity="1">k8s_core_v1_config_map.udp-services</text></g><g id="sprotty_31" transform="translate(350, 1170)" opacity="1"><rect class="elknode" x="0" y="0" rx="10" width="200" height="60" /><text id="sprotty_32" class="elklabel" transform="translate(5, 22) translate(0, 0)" opacity="1">k8s_core_v1_service.ingress-nginx</text></g><g id="sprotty_44" transform="translate(350, 850)" opacity="1"><rect class="elknode" x="0" y="0" rx="10" width="200" height="60" /><text id="sprotty_45" class="elklabel" transform="translate(5, 22) translate(0, 0)" opacity="1">k8s_core_v1_service_account.nginx-ingress-serviceaccount</text></g><g id="sprotty_48" transform="translate(350, 370)" opacity="1"><rect class="elknode" x="0" y="0" rx="10" width="200" height="60" /><text id="sprotty_49" class="elklabel" transform="translate(5, 22) translate(0, 0)" opacity="1">k8s_rbac_authorization_k8s_io_v1beta1_cluster_role.nginx-ingress-clusterrole</text></g><g id="sprotty_51" transform="translate(750, 700)" opacity="1"><rect class="elknode" x="0" y="0" rx="10" width="200" height="60" /><text id="sprotty_52" class="elklabel" transform="translate(5, 22) translate(0, 0)" opacity="1">k8s_rbac_authorization_k8s_io_v1beta1_cluster_role_binding.nginx-ingress-clusterrole-nisa-binding</text></g><g id="sprotty_54" transform="translate(350, 210)" opacity="1"><rect class="elknode" x="0" y="0" rx="10" width="200" height="60" /><text id="sprotty_55" class="elklabel" transform="translate(5, 22) translate(0, 0)" opacity="1">k8s_rbac_authorization_k8s_io_v1beta1_role.nginx-ingress-role</text></g><g id="sprotty_59" transform="translate(750, 860)" opacity="1"><rect class="elknode" x="0" y="0" rx="10" width="200" height="60" /><text id="sprotty_60" class="elklabel" transform="translate(5, 22) translate(0, 0)" opacity="1">k8s_rbac_authorization_k8s_io_v1beta1_role_binding.nginx-ingress-role-nisa-binding</text></g><g id="sprotty_7" transform="translate(-16, 57.5)" opacity="1"><rect class="elkport" x="0" y="0" width="16" height="9" /><text id="sprotty_8" class="elklabel" transform="translate(-1, 10) translate(0, 0)" opacity="1">extra_args</text></g><g id="sprotty_10" transform="translate(-16, 220.5)" opacity="1"><rect class="elkport" x="0" y="0" width="16" height="9" /><text id="sprotty_11" class="elklabel" transform="translate(-1, 10) translate(0, 0)" opacity="1">ingress_class</text></g><g id="sprotty_13" transform="translate(-16, 545.5)" opacity="1"><rect class="elkport" x="0" y="0" width="16" height="9" /><text id="sprotty_14" class="elklabel" transform="translate(-1, 10) translate(0, 0)" opacity="1">name</text></g><g id="sprotty_16" transform="translate(-16, 725.5)" opacity="1"><rect class="elkport" x="0" y="0" width="16" height="9" /><text id="sprotty_17" class="elklabel" transform="translate(-1, 10) translate(0, 0)" opacity="1">namespace</text></g><g id="sprotty_35" transform="translate(-16, 1215.5)" opacity="1"><rect class="elkport" x="0" y="0" width="16" height="9" /><text id="sprotty_36" class="elklabel" transform="translate(-1, 10) translate(0, 0)" opacity="1">node_port_http</text></g><g id="sprotty_38" transform="translate(-16, 1095.5)" opacity="1"><rect class="elkport" x="0" y="0" width="16" height="9" /><text id="sprotty_39" class="elklabel" transform="translate(-1, 10) translate(0, 0)" opacity="1">node_port_https</text></g><g id="sprotty_41" transform="translate(-16, 1155.5)" opacity="1"><rect class="elkport" x="0" y="0" width="16" height="9" /><text id="sprotty_42" class="elklabel" transform="translate(-1, 10) translate(0, 0)" opacity="1">service_type</text></g><g id="sprotty_62" transform="translate(1050, 75.5)" opacity="1"><rect class="elkport" x="0" y="0" width="16" height="9" /><text id="sprotty_63" class="elklabel" transform="translate(17, 10) translate(0, 0)" opacity="1">deployment</text></g><g id="sprotty_65" transform="translate(1050, 1315.5)" opacity="1"><rect class="elkport" x="0" y="0" width="16" height="9" /><text id="sprotty_66" class="elklabel" transform="translate(17, 10) translate(0, 0)" opacity="1">ingress_class</text></g><g id="sprotty_68" transform="translate(1050, 1195.5)" opacity="1"><rect class="elkport" x="0" y="0" width="16" height="9" /><text id="sprotty_69" class="elklabel" transform="translate(17, 10) translate(0, 0)" opacity="1">node_port_http</text></g><g id="sprotty_71" transform="translate(1050, 1255.5)" opacity="1"><rect class="elkport" x="0" y="0" width="16" height="9" /><text id="sprotty_72" class="elklabel" transform="translate(17, 10) translate(0, 0)" opacity="1">node_port_https</text></g><g id="sprotty_74" transform="translate(1050, 1135.5)" opacity="1"><rect class="elkport" x="0" y="0" width="16" height="9" /><text id="sprotty_75" class="elklabel" transform="translate(17, 10) translate(0, 0)" opacity="1">service</text></g><text id="sprotty_4" class="elklabel" transform="translate(0, -21) translate(0, 0)" opacity="1">modules/kubernetes/ingress-nginx</text><g id="sprotty_9" class="sprotty-edge" opacity="1"><path class="elkedge" d="M 0,62 L 350,62" /><path class="edge arrow" d="M 0,0 L 8,-3 L 8,3 Z" transform="rotate(180 350 62) translate(350 62)" /></g><g id="sprotty_12" class="sprotty-edge" opacity="1"><path class="elkedge" d="M 0,225 L 150,225 L 150,74 L 350,74" /><path class="edge arrow" d="M 0,0 L 8,-3 L 8,3 Z" transform="rotate(180 350 74) translate(350 74)" /><g id="sprotty_12_j0" transform="translate(150, 225)" opacity="1"><circle class="elkjunction" r="2" /></g></g><g id="sprotty_15" class="sprotty-edge" opacity="1"><path class="elkedge" d="M 0,550 L 300,550 L 300,86 L 350,86" /><path class="edge arrow" d="M 0,0 L 8,-3 L 8,3 Z" transform="rotate(180 350 86) translate(350 86)" /><g id="sprotty_15_j0" transform="translate(300, 550)" opacity="1"><circle class="elkjunction" r="2" /></g></g><g id="sprotty_18" class="sprotty-edge" opacity="1"><path class="elkedge" d="M 0,730 L 250,730 L 250,98 L 350,98" /><path class="edge arrow" d="M 0,0 L 8,-3 L 8,3 Z" transform="rotate(180 350 98) translate(350 98)" /><g id="sprotty_18_j0" transform="translate(250, 730)" opacity="1"><circle class="elkjunction" r="2" /></g></g><g id="sprotty_21" class="sprotty-edge" opacity="1"><path class="elkedge" d="M 0,550 L 300,550 L 300,1030 L 350,1030" /><path class="edge arrow" d="M 0,0 L 8,-3 L 8,3 Z" transform="rotate(180 350 1030) translate(350 1030)" /><g id="sprotty_21_j0" transform="translate(300, 1030)" opacity="1"><circle class="elkjunction" r="2" /></g></g><g id="sprotty_22" class="sprotty-edge" opacity="1"><path class="elkedge" d="M 0,730 L 250,730 L 250,1050 L 350,1050" /><path class="edge arrow" d="M 0,0 L 8,-3 L 8,3 Z" transform="rotate(180 350 1050) translate(350 1050)" /><g id="sprotty_22_j0" transform="translate(250, 1050)" opacity="1"><circle class="elkjunction" r="2" /></g></g><g id="sprotty_25" class="sprotty-edge" opacity="1"><path class="elkedge" d="M 0,550 L 350,550" /><path class="edge arrow" d="M 0,0 L 8,-3 L 8,3 Z" transform="rotate(180 350 550) translate(350 550)" /></g><g id="sprotty_26" class="sprotty-edge" opacity="1"><path class="elkedge" d="M 0,730 L 250,730 L 250,570 L 350,570" /><path class="edge arrow" d="M 0,0 L 8,-3 L 8,3 Z" transform="rotate(180 350 570) translate(350 570)" /><g id="sprotty_26_j0" transform="translate(250, 570)" opacity="1"><circle class="elkjunction" r="2" /></g></g><g id="sprotty_29" class="sprotty-edge" opacity="1"><path class="elkedge" d="M 0,550 L 300,550 L 300,710 L 350,710" /><path class="edge arrow" d="M 0,0 L 8,-3 L 8,3 Z" transform="rotate(180 350 710) translate(350 710)" /><g id="sprotty_29_j0" transform="translate(300, 710)" opacity="1"><circle class="elkjunction" r="2" /></g></g><g id="sprotty_30" class="sprotty-edge" opacity="1"><path class="elkedge" d="M 0,730 L 350,730" /><path class="edge arrow" d="M 0,0 L 8,-3 L 8,3 Z" transform="rotate(180 350 730) translate(350 730)" /></g><g id="sprotty_33" class="sprotty-edge" opacity="1"><path class="elkedge" d="M 0,550 L 300,550 L 300,1180 L 350,1180" /><path class="edge arrow" d="M 0,0 L 8,-3 L 8,3 Z" transform="rotate(180 350 1180) translate(350 1180)" /></g><g id="sprotty_34" class="sprotty-edge" opacity="1"><path class="elkedge" d="M 0,730 L 250,730 L 250,1190 L 350,1190" /><path class="edge arrow" d="M 0,0 L 8,-3 L 8,3 Z" transform="rotate(180 350 1190) translate(350 1190)" /></g><g id="sprotty_37" class="sprotty-edge" opacity="1"><path class="elkedge" d="M 0,1220 L 350,1220" /><path class="edge arrow" d="M 0,0 L 8,-3 L 8,3 Z" transform="rotate(180 350 1220) translate(350 1220)" /></g><g id="sprotty_40" class="sprotty-edge" opacity="1"><path class="elkedge" d="M 0,1100 L 200,1100 L 200,1200 L 350,1200" /><path class="edge arrow" d="M 0,0 L 8,-3 L 8,3 Z" transform="rotate(180 350 1200) translate(350 1200)" /></g><g id="sprotty_43" class="sprotty-edge" opacity="1"><path class="elkedge" d="M 0,1160 L 150,1160 L 150,1210 L 350,1210" /><path class="edge arrow" d="M 0,0 L 8,-3 L 8,3 Z" transform="rotate(180 350 1210) translate(350 1210)" /></g><g id="sprotty_46" class="sprotty-edge" opacity="1"><path class="elkedge" d="M 0,550 L 300,550 L 300,870 L 350,870" /><path class="edge arrow" d="M 0,0 L 8,-3 L 8,3 Z" transform="rotate(180 350 870) translate(350 870)" /><g id="sprotty_46_j0" transform="translate(300, 870)" opacity="1"><circle class="elkjunction" r="2" /></g></g><g id="sprotty_47" class="sprotty-edge" opacity="1"><path class="elkedge" d="M 0,730 L 250,730 L 250,890 L 350,890" /><path class="edge arrow" d="M 0,0 L 8,-3 L 8,3 Z" transform="rotate(180 350 890) translate(350 890)" /><g id="sprotty_47_j0" transform="translate(250, 890)" opacity="1"><circle class="elkjunction" r="2" /></g></g><g id="sprotty_50" class="sprotty-edge" opacity="1"><path class="elkedge" d="M 0,550 L 300,550 L 300,400 L 350,400" /><path class="edge arrow" d="M 0,0 L 8,-3 L 8,3 Z" transform="rotate(180 350 400) translate(350 400)" /><g id="sprotty_50_j0" transform="translate(300, 400)" opacity="1"><circle class="elkjunction" r="2" /></g></g><g id="sprotty_53" class="sprotty-edge" opacity="1"><path class="elkedge" d="M 550,870 L 600,870 L 600,730 L 750,730" /><path class="edge arrow" d="M 0,0 L 8,-3 L 8,3 Z" transform="rotate(180 750 730) translate(750 730)" /></g><g id="sprotty_56" class="sprotty-edge" opacity="1"><path class="elkedge" d="M 0,225 L 350,225" /><path class="edge arrow" d="M 0,0 L 8,-3 L 8,3 Z" transform="rotate(180 350 225) translate(350 225)" /></g><g id="sprotty_57" class="sprotty-edge" opacity="1"><path class="elkedge" d="M 0,550 L 300,550 L 300,240 L 350,240" /><path class="edge arrow" d="M 0,0 L 8,-3 L 8,3 Z" transform="rotate(180 350 240) translate(350 240)" /><g id="sprotty_57_j0" transform="translate(300, 240)" opacity="1"><circle class="elkjunction" r="2" /></g></g><g id="sprotty_58" class="sprotty-edge" opacity="1"><path class="elkedge" d="M 0,730 L 250,730 L 250,255 L 350,255" /><path class="edge arrow" d="M 0,0 L 8,-3 L 8,3 Z" transform="rotate(180 350 255) translate(350 255)" /><g id="sprotty_58_j0" transform="translate(250, 255)" opacity="1"><circle class="elkjunction" r="2" /></g></g><g id="sprotty_61" class="sprotty-edge" opacity="1"><path class="elkedge" d="M 550,890 L 750,890" /><path class="edge arrow" d="M 0,0 L 8,-3 L 8,3 Z" transform="rotate(180 750 890) translate(750 890)" /></g><g id="sprotty_64" class="sprotty-edge" opacity="1"><path class="elkedge" d="M 550,80 L 1050,80" /><path class="edge arrow" d="M 0,0 L 8,-3 L 8,3 Z" transform="rotate(180 1050 80) translate(1050 80)" /></g><g id="sprotty_67" class="sprotty-edge" opacity="1"><path class="elkedge" d="M -3.619178082191781,229.5 L 1053.6191780821919,1315.5" /><path class="edge arrow" d="M 0,0 L 8,-3 L 8,3 Z" transform="rotate(-134.23115322865704 1053.6191780821919 1315.5) translate(1053.6191780821919 1315.5)" /></g><g id="sprotty_70" class="sprotty-edge" opacity="1"><path class="elkedge" d="M 550,1200 L 1050,1200" /><path class="edge arrow" d="M 0,0 L 8,-3 L 8,3 Z" transform="rotate(180 1050 1200) translate(1050 1200)" /></g><g id="sprotty_73" class="sprotty-edge" opacity="1"><path class="elkedge" d="M 550,1215 L 600,1215 L 600,1260 L 1050,1260" /><path class="edge arrow" d="M 0,0 L 8,-3 L 8,3 Z" transform="rotate(180 1050 1260) translate(1050 1260)" /></g><g id="sprotty_76" class="sprotty-edge" opacity="1"><path class="elkedge" d="M 550,1185 L 600,1185 L 600,1140 L 1050,1140" /><path class="edge arrow" d="M 0,0 L 8,-3 L 8,3 Z" transform="rotate(180 1050 1140) translate(1050 1140)" /></g></g></g></svg>
