<svg id="sprotty_1" class="sprotty-graph sprotty" tabindex="1002" xmlns="http://www.w3.org/2000/svg" viewBox="0 0 1484 1559.3333333333335"><style>.elknode {
    stroke: #448;
    stroke-width: 2;
    fill: #ddf;
}

.elkport {
    stroke: #448;
    stroke-width: 1;
    fill: #66c;
}

.elkedge {
    fill: none;
    stroke: #224;
    stroke-width: 1;
}

.elkedge.arrow {
    fill: #336;
}

.elklabel {
    stroke-width: 0;
    stroke: #000;
    fill: #000;
    font-family: sans-serif;
    font-size: 10pt;
    dominant-baseline: hanging;
}

.elkjunction {
    stroke: none;
    fill: #224;
}

.selected &gt; rect {
    stroke-width: 3;
}

.mouseover {
    stroke: #88f;
}
/*
 * Copyright (C) 2017 TypeFox and others.
 *
 * Licensed under the Apache License, Version 2.0 (the &quot;License&quot;); you may not use this file except in compliance with the License.
 * You may obtain a copy of the License at http://www.apache.org/licenses/LICENSE-2.0
 */

.sprotty {
    padding: 0px;
    font-family: &quot;Helvetica Neue&quot;, Helvetica, Arial, sans-serif;
}

.sprotty-hidden {
    display: block;
    position: absolute;
    width: 0px;
    height: 0px;
}

.sprotty-popup {
    font-family: &quot;Helvetica Neue&quot;, Helvetica, Arial, sans-serif;
    position: absolute;
    background: white;
    border-radius: 5px;
    border: 1px solid;
    max-width: 400px;
    min-width: 100px;
}

.sprotty-popup &gt; div {
    margin: 10px;
}

.sprotty-popup-closed {
    display: none;
}
</style><g transform="scale(1) translate(0,0)"><g id="sprotty_3" transform="translate(117, 71)" opacity="1"><rect class="elknode" x="0" y="0" width="1250" height="1438.3333333333335" /><g id="sprotty_5" transform="translate(950, 1267.1190476190477)" opacity="1"><rect class="elknode" x="0" y="0" width="200" height="60" /><text id="sprotty_6" class="elklabel" transform="translate(5, 22) translate(0, 0)" opacity="1">k8s_apps_v1_deployment.this</text></g><g id="sprotty_7" transform="translate(390, 701.8333333333334)" opacity="1"><rect class="elknode" x="0" y="0" width="200" height="60" /><text id="sprotty_8" class="elklabel" transform="translate(5, 22) translate(0, 0)" opacity="1">k8s_core_v1_config_map.this</text></g><g id="sprotty_9" transform="translate(390, 269.83333333333337)" opacity="1"><rect class="elknode" x="0" y="0" width="200" height="60" /><text id="sprotty_10" class="elklabel" transform="translate(5, 22) translate(0, 0)" opacity="1">k8s_core_v1_service.this</text></g><g id="sprotty_11" transform="translate(390, 621.8333333333334)" opacity="1"><rect class="elknode" x="0" y="0" width="200" height="60" /><text id="sprotty_12" class="elklabel" transform="translate(5, 22) translate(0, 0)" opacity="1">k8s_core_v1_service_account.this</text></g><g id="sprotty_13" transform="translate(390, 792.8333333333334)" opacity="1"><rect class="elknode" x="0" y="0" width="200" height="60" /><text id="sprotty_14" class="elklabel" transform="translate(5, 22) translate(0, 0)" opacity="1">k8s_rbac_authorization_k8s_io_v1_cluster_role.this</text></g><g id="sprotty_15" transform="translate(620, 782.8333333333334)" opacity="1"><rect class="elknode" x="0" y="0" width="200" height="60" /><text id="sprotty_16" class="elklabel" transform="translate(5, 22) translate(0, 0)" opacity="1">k8s_rbac_authorization_k8s_io_v1_cluster_role_binding.this</text></g><g id="sprotty_17" transform="translate(390, 541.8333333333334)" opacity="1"><rect class="elknode" x="0" y="0" width="200" height="60" /><text id="sprotty_18" class="elklabel" transform="translate(5, 22) translate(0, 0)" opacity="1">k8s_rbac_authorization_k8s_io_v1_role.this</text></g><g id="sprotty_19" transform="translate(620, 601.8333333333334)" opacity="1"><rect class="elknode" x="0" y="0" width="200" height="60" /><text id="sprotty_20" class="elklabel" transform="translate(5, 22) translate(0, 0)" opacity="1">k8s_rbac_authorization_k8s_io_v1_role_binding.this</text></g><g id="sprotty_54" transform="translate(130, 631.8333333333334)" opacity="1"><rect class="elknode" x="0" y="0" width="200" height="60" /><text id="sprotty_55" class="elklabel" transform="translate(5, 22) translate(0, 0)" opacity="1">local.labels</text></g><g id="sprotty_24" transform="translate(-16, 426.33333333333337)" opacity="1"><rect class="elkport" x="0" y="0" width="16" height="9" /><text id="sprotty_25" class="elklabel" transform="translate(-1, 10) translate(0, 0)" opacity="1">annotations</text></g><g id="sprotty_27" transform="translate(-16, 898.3333333333334)" opacity="1"><rect class="elkport" x="0" y="0" width="16" height="9" /><text id="sprotty_28" class="elklabel" transform="translate(-1, 10) translate(0, 0)" opacity="1">annotations_prefix</text></g><g id="sprotty_30" transform="translate(-16, 958.3333333333334)" opacity="1"><rect class="elkport" x="0" y="0" width="16" height="9" /><text id="sprotty_31" class="elklabel" transform="translate(-1, 10) translate(0, 0)" opacity="1">dns_policy</text></g><g id="sprotty_33" transform="translate(-16, 1018.3333333333334)" opacity="1"><rect class="elkport" x="0" y="0" width="16" height="9" /><text id="sprotty_34" class="elklabel" transform="translate(-1, 10) translate(0, 0)" opacity="1">image</text></g><g id="sprotty_36" transform="translate(-16, 1078.3333333333335)" opacity="1"><rect class="elkport" x="0" y="0" width="16" height="9" /><text id="sprotty_37" class="elklabel" transform="translate(-1, 10) translate(0, 0)" opacity="1">node_selector</text></g><g id="sprotty_39" transform="translate(-16, 1138.3333333333335)" opacity="1"><rect class="elkport" x="0" y="0" width="16" height="9" /><text id="sprotty_40" class="elklabel" transform="translate(-1, 10) translate(0, 0)" opacity="1">priority_class_name</text></g><g id="sprotty_42" transform="translate(-16, 1198.3333333333335)" opacity="1"><rect class="elkport" x="0" y="0" width="16" height="9" /><text id="sprotty_43" class="elklabel" transform="translate(-1, 10) translate(0, 0)" opacity="1">replicas</text></g><g id="sprotty_45" transform="translate(-16, 1258.3333333333335)" opacity="1"><rect class="elkport" x="0" y="0" width="16" height="9" /><text id="sprotty_46" class="elklabel" transform="translate(-1, 10) translate(0, 0)" opacity="1">restart_policy</text></g><g id="sprotty_48" transform="translate(-16, 1318.3333333333335)" opacity="1"><rect class="elkport" x="0" y="0" width="16" height="9" /><text id="sprotty_49" class="elklabel" transform="translate(-1, 10) translate(0, 0)" opacity="1">scheduler_name</text></g><g id="sprotty_51" transform="translate(-16, 486.33333333333337)" opacity="1"><rect class="elkport" x="0" y="0" width="16" height="9" /><text id="sprotty_52" class="elklabel" transform="translate(-1, 10) translate(0, 0)" opacity="1">termination_grace_period_seconds</text></g><g id="sprotty_57" transform="translate(-16, 557.3333333333334)" opacity="1"><rect class="elkport" x="0" y="0" width="16" height="9" /><text id="sprotty_58" class="elklabel" transform="translate(-1, 10) translate(0, 0)" opacity="1">namespace</text></g><g id="sprotty_63" transform="translate(-16, 110)" opacity="1"><rect class="elkport" x="0" y="0" width="16" height="9" /><text id="sprotty_64" class="elklabel" transform="translate(-1, 10) translate(0, 0)" opacity="1">node_port_http</text></g><g id="sprotty_66" transform="translate(-16, 170)" opacity="1"><rect class="elkport" x="0" y="0" width="16" height="9" /><text id="sprotty_67" class="elklabel" transform="translate(-1, 10) translate(0, 0)" opacity="1">node_port_https</text></g><g id="sprotty_69" transform="translate(-16, 230)" opacity="1"><rect class="elkport" x="0" y="0" width="16" height="9" /><text id="sprotty_70" class="elklabel" transform="translate(-1, 10) translate(0, 0)" opacity="1">port</text></g><g id="sprotty_72" transform="translate(-16, 290)" opacity="1"><rect class="elkport" x="0" y="0" width="16" height="9" /><text id="sprotty_73" class="elklabel" transform="translate(-1, 10) translate(0, 0)" opacity="1">service_type</text></g><g id="sprotty_75" transform="translate(-16, 50)" opacity="1"><rect class="elkport" x="0" y="0" width="16" height="9" /><text id="sprotty_76" class="elklabel" transform="translate(-1, 10) translate(0, 0)" opacity="1">session_affinity</text></g><g id="sprotty_87" transform="translate(-16, 657.3333333333334)" opacity="1"><rect class="elkport" x="0" y="0" width="16" height="9" /><text id="sprotty_88" class="elklabel" transform="translate(-1, 10) translate(0, 0)" opacity="1">name</text></g><g id="sprotty_90" transform="translate(1250, 1378.3333333333335)" opacity="1"><rect class="elkport" x="0" y="0" width="16" height="9" /><text id="sprotty_91" class="elklabel" transform="translate(17, 10) translate(0, 0)" opacity="1">annotations_prefix</text></g><g id="sprotty_93" transform="translate(1250, 235.33333333333348)" opacity="1"><rect class="elkport" x="0" y="0" width="16" height="9" /><text id="sprotty_94" class="elklabel" transform="translate(17, 10) translate(0, 0)" opacity="1">cluster_ip</text></g><g id="sprotty_96" transform="translate(1250, 1292.6190476190477)" opacity="1"><rect class="elkport" x="0" y="0" width="16" height="9" /><text id="sprotty_97" class="elklabel" transform="translate(17, 10) translate(0, 0)" opacity="1">deployment_uid</text></g><g id="sprotty_99" transform="translate(1250, 415.33333333333337)" opacity="1"><rect class="elkport" x="0" y="0" width="16" height="9" /><text id="sprotty_100" class="elklabel" transform="translate(17, 10) translate(0, 0)" opacity="1">name</text></g><g id="sprotty_102" transform="translate(1250, 295.33333333333337)" opacity="1"><rect class="elkport" x="0" y="0" width="16" height="9" /><text id="sprotty_103" class="elklabel" transform="translate(17, 10) translate(0, 0)" opacity="1">node_port_http</text></g><g id="sprotty_105" transform="translate(1250, 175.33333333333348)" opacity="1"><rect class="elkport" x="0" y="0" width="16" height="9" /><text id="sprotty_106" class="elklabel" transform="translate(17, 10) translate(0, 0)" opacity="1">node_port_https</text></g><g id="sprotty_108" transform="translate(1250, 355.33333333333337)" opacity="1"><rect class="elkport" x="0" y="0" width="16" height="9" /><text id="sprotty_109" class="elklabel" transform="translate(17, 10) translate(0, 0)" opacity="1">port</text></g><text id="sprotty_4" class="elklabel" transform="translate(0, -21) translate(0, 0)" opacity="1">modules/kubernetes/ingress-nginx</text><g id="sprotty_21" class="sprotty-edge" opacity="1"><path class="elkedge" d="M 590,731.8333333333334 L 910,731.8333333333334 L 910,1284.2619047619048 L 950,1284.2619047619048" /><path class="edge arrow" d="M 0,0 L 8,-3 L 8,3 Z" transform="rotate(180 950 1284.2619047619048) translate(950 1284.2619047619048)" /></g><g id="sprotty_22" class="sprotty-edge" opacity="1"><path class="elkedge" d="M 820,812.8333333333334 L 900,812.8333333333334 L 900,1288.547619047619 L 950,1288.547619047619" /><path class="edge arrow" d="M 0,0 L 8,-3 L 8,3 Z" transform="rotate(180 950 1288.547619047619) translate(950 1288.547619047619)" /></g><g id="sprotty_23" class="sprotty-edge" opacity="1"><path class="elkedge" d="M 820,631.8333333333334 L 920,631.8333333333334 L 920,1279.9761904761906 L 950,1279.9761904761906" /><path class="edge arrow" d="M 0,0 L 8,-3 L 8,3 Z" transform="rotate(180 950 1279.9761904761906) translate(950 1279.9761904761906)" /></g><g id="sprotty_26" class="sprotty-edge" opacity="1"><path class="elkedge" d="M 0,430.83333333333337 L 940,430.83333333333337 L 940,1271.404761904762 L 950,1271.404761904762" /><path class="edge arrow" d="M 0,0 L 8,-3 L 8,3 Z" transform="rotate(180 950 1271.404761904762) translate(950 1271.404761904762)" /></g><g id="sprotty_29" class="sprotty-edge" opacity="1"><path class="elkedge" d="M 0,902.8333333333334 L 890,902.8333333333334 L 890,1292.8333333333335 L 950,1292.8333333333335" /><path class="edge arrow" d="M 0,0 L 8,-3 L 8,3 Z" transform="rotate(180 950 1292.8333333333335) translate(950 1292.8333333333335)" /></g><g id="sprotty_32" class="sprotty-edge" opacity="1"><path class="elkedge" d="M 0,962.8333333333334 L 880,962.8333333333334 L 880,1297.1190476190477 L 950,1297.1190476190477" /><path class="edge arrow" d="M 0,0 L 8,-3 L 8,3 Z" transform="rotate(180 950 1297.1190476190477) translate(950 1297.1190476190477)" /></g><g id="sprotty_35" class="sprotty-edge" opacity="1"><path class="elkedge" d="M 0,1022.8333333333334 L 870,1022.8333333333334 L 870,1301.404761904762 L 950,1301.404761904762" /><path class="edge arrow" d="M 0,0 L 8,-3 L 8,3 Z" transform="rotate(180 950 1301.404761904762) translate(950 1301.404761904762)" /></g><g id="sprotty_38" class="sprotty-edge" opacity="1"><path class="elkedge" d="M 0,1082.8333333333335 L 860,1082.8333333333335 L 860,1305.6904761904764 L 950,1305.6904761904764" /><path class="edge arrow" d="M 0,0 L 8,-3 L 8,3 Z" transform="rotate(180 950 1305.6904761904764) translate(950 1305.6904761904764)" /></g><g id="sprotty_41" class="sprotty-edge" opacity="1"><path class="elkedge" d="M 0,1142.8333333333335 L 850,1142.8333333333335 L 850,1309.9761904761906 L 950,1309.9761904761906" /><path class="edge arrow" d="M 0,0 L 8,-3 L 8,3 Z" transform="rotate(180 950 1309.9761904761906) translate(950 1309.9761904761906)" /></g><g id="sprotty_44" class="sprotty-edge" opacity="1"><path class="elkedge" d="M 0,1202.8333333333335 L 840,1202.8333333333335 L 840,1314.2619047619048 L 950,1314.2619047619048" /><path class="edge arrow" d="M 0,0 L 8,-3 L 8,3 Z" transform="rotate(180 950 1314.2619047619048) translate(950 1314.2619047619048)" /></g><g id="sprotty_47" class="sprotty-edge" opacity="1"><path class="elkedge" d="M 0,1262.8333333333335 L 830,1262.8333333333335 L 830,1318.547619047619 L 950,1318.547619047619" /><path class="edge arrow" d="M 0,0 L 8,-3 L 8,3 Z" transform="rotate(180 950 1318.547619047619) translate(950 1318.547619047619)" /></g><g id="sprotty_50" class="sprotty-edge" opacity="1"><path class="elkedge" d="M 0,1322.8333333333335 L 950,1322.8333333333335" /><path class="edge arrow" d="M 0,0 L 8,-3 L 8,3 Z" transform="rotate(180 950 1322.8333333333335) translate(950 1322.8333333333335)" /></g><g id="sprotty_53" class="sprotty-edge" opacity="1"><path class="elkedge" d="M 0,490.83333333333337 L 930,490.83333333333337 L 930,1275.6904761904764 L 950,1275.6904761904764" /><path class="edge arrow" d="M 0,0 L 8,-3 L 8,3 Z" transform="rotate(180 950 1275.6904761904764) translate(950 1275.6904761904764)" /></g><g id="sprotty_56" class="sprotty-edge" opacity="1"><path class="elkedge" d="M 330,671.8333333333334 L 350,671.8333333333334 L 350,721.8333333333334 L 390,721.8333333333334" /><path class="edge arrow" d="M 0,0 L 8,-3 L 8,3 Z" transform="rotate(180 390 721.8333333333334) translate(390 721.8333333333334)" /></g><g id="sprotty_59" class="sprotty-edge" opacity="1"><path class="elkedge" d="M 0,561.8333333333334 L 120,561.8333333333334 L 120,741.8333333333334 L 390,741.8333333333334" /><path class="edge arrow" d="M 0,0 L 8,-3 L 8,3 Z" transform="rotate(180 390 741.8333333333334) translate(390 741.8333333333334)" /><g id="sprotty_59_j0" transform="translate(120, 561.8333333333334)" opacity="1"><circle class="elkjunction" r="2" /></g></g><g id="sprotty_60" class="sprotty-edge" opacity="1"><path class="elkedge" d="M 330,641.8333333333334 L 340,641.8333333333334 L 340,323.16666666666674 L 390,323.1666666666667" /><path class="edge arrow" d="M 0,0 L 8,-3 L 8,3 Z" transform="rotate(179.99999999999994 390 323.1666666666667) translate(390 323.1666666666667)" /></g><g id="sprotty_61" class="sprotty-edge" opacity="1"><path class="elkedge" d="M 0,430.83333333333337 L 110,430.83333333333337 L 110,305.5 L 340,305.5 L 340,309.83333333333337 L 390,309.83333333333337" /><path class="edge arrow" d="M 0,0 L 8,-3 L 8,3 Z" transform="rotate(180 390 309.83333333333337) translate(390 309.83333333333337)" /><g id="sprotty_61_j0" transform="translate(110, 430.83333333333337)" opacity="1"><circle class="elkjunction" r="2" /></g></g><g id="sprotty_62" class="sprotty-edge" opacity="1"><path class="elkedge" d="M 0,561.8333333333334 L 120,561.8333333333334 L 120,316.5 L 390,316.5" /><path class="edge arrow" d="M 0,0 L 8,-3 L 8,3 Z" transform="rotate(180 390 316.5) translate(390 316.5)" /></g><g id="sprotty_65" class="sprotty-edge" opacity="1"><path class="elkedge" d="M 0,114.5 L 370,114.5 L 370,283.16666666666674 L 390,283.1666666666667" /><path class="edge arrow" d="M 0,0 L 8,-3 L 8,3 Z" transform="rotate(179.99999999999986 390 283.1666666666667) translate(390 283.1666666666667)" /></g><g id="sprotty_68" class="sprotty-edge" opacity="1"><path class="elkedge" d="M 0,174.5 L 360,174.5 L 360,289.83333333333337 L 390,289.83333333333337" /><path class="edge arrow" d="M 0,0 L 8,-3 L 8,3 Z" transform="rotate(180 390 289.83333333333337) translate(390 289.83333333333337)" /></g><g id="sprotty_71" class="sprotty-edge" opacity="1"><path class="elkedge" d="M 0,234.5 L 350,234.5 L 350,296.5 L 390,296.5" /><path class="edge arrow" d="M 0,0 L 8,-3 L 8,3 Z" transform="rotate(180 390 296.5) translate(390 296.5)" /></g><g id="sprotty_74" class="sprotty-edge" opacity="1"><path class="elkedge" d="M 0,294.5 L 340,294.5 L 340,303.16666666666674 L 390,303.1666666666667" /><path class="edge arrow" d="M 0,0 L 8,-3 L 8,3 Z" transform="rotate(179.99999999999994 390 303.1666666666667) translate(390 303.1666666666667)" /></g><g id="sprotty_77" class="sprotty-edge" opacity="1"><path class="elkedge" d="M 0,54.5 L 380,54.5 L 380,276.5 L 390,276.5" /><path class="edge arrow" d="M 0,0 L 8,-3 L 8,3 Z" transform="rotate(180 390 276.5) translate(390 276.5)" /></g><g id="sprotty_78" class="sprotty-edge" opacity="1"><path class="elkedge" d="M 330,661.8333333333334 L 390,661.8333333333334" /><path class="edge arrow" d="M 0,0 L 8,-3 L 8,3 Z" transform="rotate(180 390 661.8333333333334) translate(390 661.8333333333334)" /></g><g id="sprotty_79" class="sprotty-edge" opacity="1"><path class="elkedge" d="M 0,561.8333333333334 L 360,561.8333333333334 L 360,641.8333333333334 L 390,641.8333333333334" /><path class="edge arrow" d="M 0,0 L 8,-3 L 8,3 Z" transform="rotate(180 390 641.8333333333334) translate(390 641.8333333333334)" /><g id="sprotty_79_j0" transform="translate(360, 561.8333333333334)" opacity="1"><circle class="elkjunction" r="2" /></g></g><g id="sprotty_80" class="sprotty-edge" opacity="1"><path class="elkedge" d="M 330,681.8333333333334 L 340,681.8333333333334 L 340,822.8333333333334 L 390,822.8333333333334" /><path class="edge arrow" d="M 0,0 L 8,-3 L 8,3 Z" transform="rotate(180 390 822.8333333333334) translate(390 822.8333333333334)" /></g><g id="sprotty_81" class="sprotty-edge" opacity="1"><path class="elkedge" d="M 590,661.8333333333334 L 600,661.8333333333334 L 600,802.8333333333334 L 620,802.8333333333334" /><path class="edge arrow" d="M 0,0 L 8,-3 L 8,3 Z" transform="rotate(180 620 802.8333333333334) translate(620 802.8333333333334)" /></g><g id="sprotty_82" class="sprotty-edge" opacity="1"><path class="elkedge" d="M 590,822.8333333333334 L 620,822.8333333333334" /><path class="edge arrow" d="M 0,0 L 8,-3 L 8,3 Z" transform="rotate(180 620 822.8333333333334) translate(620 822.8333333333334)" /></g><g id="sprotty_83" class="sprotty-edge" opacity="1"><path class="elkedge" d="M 330,651.8333333333334 L 350,651.8333333333334 L 350,581.8333333333334 L 390,581.8333333333334" /><path class="edge arrow" d="M 0,0 L 8,-3 L 8,3 Z" transform="rotate(180 390 581.8333333333334) translate(390 581.8333333333334)" /></g><g id="sprotty_84" class="sprotty-edge" opacity="1"><path class="elkedge" d="M 0,561.8333333333334 L 390,561.8333333333334" /><path class="edge arrow" d="M 0,0 L 8,-3 L 8,3 Z" transform="rotate(180 390 561.8333333333334) translate(390 561.8333333333334)" /></g><g id="sprotty_85" class="sprotty-edge" opacity="1"><path class="elkedge" d="M 590,641.8333333333334 L 620,641.8333333333334" /><path class="edge arrow" d="M 0,0 L 8,-3 L 8,3 Z" transform="rotate(180 620 641.8333333333334) translate(620 641.8333333333334)" /></g><g id="sprotty_86" class="sprotty-edge" opacity="1"><path class="elkedge" d="M 590,571.8333333333334 L 600,571.8333333333334 L 600,621.8333333333334 L 620,621.8333333333334" /><path class="edge arrow" d="M 0,0 L 8,-3 L 8,3 Z" transform="rotate(180 620 621.8333333333334) translate(620 621.8333333333334)" /></g><g id="sprotty_89" class="sprotty-edge" opacity="1"><path class="elkedge" d="M 0,661.8333333333334 L 130,661.8333333333334" /><path class="edge arrow" d="M 0,0 L 8,-3 L 8,3 Z" transform="rotate(180 130 661.8333333333334) translate(130 661.8333333333334)" /></g><g id="sprotty_92" class="sprotty-edge" opacity="1"><path class="elkedge" d="M 0,905.8665086887836 L 1250,1379.8001579778831" /><path class="edge arrow" d="M 0,0 L 8,-3 L 8,3 Z" transform="rotate(-159.23593159872615 1250 1379.8001579778831) translate(1250 1379.8001579778831)" /></g><g id="sprotty_95" class="sprotty-edge" opacity="1"><path class="elkedge" d="M 590,289.83333333333337 L 610,289.83333333333337 L 610,239.83333333333348 L 1250,239.83333333333348" /><path class="edge arrow" d="M 0,0 L 8,-3 L 8,3 Z" transform="rotate(180 1250 239.83333333333348) translate(1250 239.83333333333348)" /></g><g id="sprotty_98" class="sprotty-edge" opacity="1"><path class="elkedge" d="M 1150,1297.1190476190477 L 1250,1297.1190476190477" /><path class="edge arrow" d="M 0,0 L 8,-3 L 8,3 Z" transform="rotate(180 1250 1297.1190476190477) translate(1250 1297.1190476190477)" /></g><g id="sprotty_101" class="sprotty-edge" opacity="1"><path class="elkedge" d="M 590,319.83333333333337 L 600,319.83333333333337 L 600,419.83333333333337 L 1250,419.83333333333337" /><path class="edge arrow" d="M 0,0 L 8,-3 L 8,3 Z" transform="rotate(180 1250 419.83333333333337) translate(1250 419.83333333333337)" /></g><g id="sprotty_104" class="sprotty-edge" opacity="1"><path class="elkedge" d="M 590,299.83333333333337 L 1250,299.83333333333337" /><path class="edge arrow" d="M 0,0 L 8,-3 L 8,3 Z" transform="rotate(180 1250 299.83333333333337) translate(1250 299.83333333333337)" /></g><g id="sprotty_107" class="sprotty-edge" opacity="1"><path class="elkedge" d="M 590,279.83333333333337 L 600,279.83333333333337 L 600,179.83333333333348 L 1250,179.83333333333348" /><path class="edge arrow" d="M 0,0 L 8,-3 L 8,3 Z" transform="rotate(180 1250 179.83333333333348) translate(1250 179.83333333333348)" /></g><g id="sprotty_110" class="sprotty-edge" opacity="1"><path class="elkedge" d="M 590,309.83333333333337 L 610,309.83333333333337 L 610,359.83333333333337 L 1250,359.83333333333337" /><path class="edge arrow" d="M 0,0 L 8,-3 L 8,3 Z" transform="rotate(180 1250 359.83333333333337) translate(1250 359.83333333333337)" /></g></g></g></svg>
