<svg id="sprotty_1" class="sprotty-graph sprotty" tabindex="1002" xmlns="http://www.w3.org/2000/svg" viewBox="0 0 934 1781"><style>
.elknode {
    stroke: #448;
    stroke-width: 2;
    fill: #ddf;
    fill-opacity: 0.5;
}

.elkport {
    stroke: #448;
    stroke-width: 1;
    fill: #66c;
}

.elkedge {
    fill: none;
    stroke: #88f;
    stroke-width: 8;
    stroke-opacity: 0.3;
    pointer-events: stroke;
    stroke-linejoin: round;
}

.elkedge:hover {
    stroke: #448;
    stroke-width: 8;
    stroke-opacity: 1;
    stroke-dasharray: 16px;
    stroke-dashoffset: 32px;
    animation: stroke 0.5s linear infinite;
}

@keyframes stroke {
    to {
        stroke-dashoffset: 0;
    }
}

.elkedge.arrow {
    fill: #336;
}

.elklabel {
    stroke-width: 0;
    stroke: #000;
    fill: #000;
    font-family: sans-serif;
    font-size: 10pt;
    dominant-baseline: hanging;
}

.elklabel:hover {
    font-size: 24pt;
}

.elkjunction {
    stroke: none;
    fill: #224;
}

.selected &gt; rect {
    stroke-width: 3;
}

.mouseover {
    stroke: #88f;
}
/*
 * Copyright (C) 2017 TypeFox and others.
 *
 * Licensed under the Apache License, Version 2.0 (the &quot;License&quot;); you may not use this file except in compliance with the License.
 * You may obtain a copy of the License at http://www.apache.org/licenses/LICENSE-2.0
 */

.sprotty {
    padding: 0px;
    font-family: &quot;Helvetica Neue&quot;, Helvetica, Arial, sans-serif;
}

.sprotty-hidden {
    display: block;
    position: absolute;
    width: 0px;
    height: 0px;
}

.sprotty-popup {
    font-family: &quot;Helvetica Neue&quot;, Helvetica, Arial, sans-serif;
    position: absolute;
    background: white;
    border-radius: 5px;
    border: 1px solid;
    max-width: 400px;
    min-width: 100px;
}

.sprotty-popup &gt; div {
    margin: 10px;
}

.sprotty-popup-closed {
    display: none;
}
</style><g transform="scale(1) translate(0,0)"><g id="sprotty_3" transform="translate(117, 71)" opacity="1"><rect class="elknode" x="0" y="0" rx="10" width="700" height="1660" /><g id="sprotty_5" transform="translate(300, 1490)" opacity="1"><rect class="elknode" x="0" y="0" rx="10" width="200" height="60" /><text id="sprotty_6" class="elklabel" transform="translate(5, 22) translate(0, 0)" opacity="1">k8s_apps_v1_deployment.nginx-ingress-controller</text></g><g id="sprotty_19" transform="translate(300, 1010)" opacity="1"><rect class="elknode" x="0" y="0" rx="10" width="200" height="60" /><text id="sprotty_20" class="elklabel" transform="translate(5, 22) translate(0, 0)" opacity="1">k8s_core_v1_config_map.nginx-configuration</text></g><g id="sprotty_23" transform="translate(300, 690)" opacity="1"><rect class="elknode" x="0" y="0" rx="10" width="200" height="60" /><text id="sprotty_24" class="elklabel" transform="translate(5, 22) translate(0, 0)" opacity="1">k8s_core_v1_config_map.tcp-services</text></g><g id="sprotty_27" transform="translate(300, 850)" opacity="1"><rect class="elknode" x="0" y="0" rx="10" width="200" height="60" /><text id="sprotty_28" class="elklabel" transform="translate(5, 22) translate(0, 0)" opacity="1">k8s_core_v1_config_map.udp-services</text></g><g id="sprotty_31" transform="translate(300, 210)" opacity="1"><rect class="elknode" x="0" y="0" rx="10" width="200" height="60" /><text id="sprotty_32" class="elklabel" transform="translate(5, 22) translate(0, 0)" opacity="1">k8s_core_v1_service.ingress-nginx</text></g><g id="sprotty_35" transform="translate(300, 370)" opacity="1"><rect class="elknode" x="0" y="0" rx="10" width="200" height="60" /><text id="sprotty_36" class="elklabel" transform="translate(5, 22) translate(0, 0)" opacity="1">k8s_core_v1_service_account.nginx-ingress-serviceaccount</text></g><g id="sprotty_39" transform="translate(300, 1170)" opacity="1"><rect class="elknode" x="0" y="0" rx="10" width="200" height="60" /><text id="sprotty_40" class="elklabel" transform="translate(5, 22) translate(0, 0)" opacity="1">k8s_rbac_authorization_k8s_io_v1beta1_cluster_role.nginx-ingress-clusterrole</text></g><g id="sprotty_42" transform="translate(300, 50)" opacity="1"><rect class="elknode" x="0" y="0" rx="10" width="200" height="60" /><text id="sprotty_43" class="elklabel" transform="translate(5, 22) translate(0, 0)" opacity="1">k8s_rbac_authorization_k8s_io_v1beta1_cluster_role_binding.nginx-ingress-clusterrole-nisa-binding</text></g><g id="sprotty_46" transform="translate(300, 1330)" opacity="1"><rect class="elknode" x="0" y="0" rx="10" width="200" height="60" /><text id="sprotty_47" class="elklabel" transform="translate(5, 22) translate(0, 0)" opacity="1">k8s_rbac_authorization_k8s_io_v1beta1_role.nginx-ingress-role</text></g><g id="sprotty_51" transform="translate(300, 530)" opacity="1"><rect class="elknode" x="0" y="0" rx="10" width="200" height="60" /><text id="sprotty_52" class="elklabel" transform="translate(5, 22) translate(0, 0)" opacity="1">k8s_rbac_authorization_k8s_io_v1beta1_role_binding.nginx-ingress-role-nisa-binding</text></g><g id="sprotty_7" transform="translate(-16, 1533.5)" opacity="1"><rect class="elkport" x="0" y="0" width="16" height="9" /><text id="sprotty_8" class="elklabel" transform="translate(-1, 10) translate(0, 0)" opacity="1">extra_args</text></g><g id="sprotty_10" transform="translate(-16, 1370.5)" opacity="1"><rect class="elkport" x="0" y="0" width="16" height="9" /><text id="sprotty_11" class="elklabel" transform="translate(-1, 10) translate(0, 0)" opacity="1">ingress_class</text></g><g id="sprotty_13" transform="translate(-16, 885.5)" opacity="1"><rect class="elkport" x="0" y="0" width="16" height="9" /><text id="sprotty_14" class="elklabel" transform="translate(-1, 10) translate(0, 0)" opacity="1">name</text></g><g id="sprotty_16" transform="translate(-16, 705.5)" opacity="1"><rect class="elkport" x="0" y="0" width="16" height="9" /><text id="sprotty_17" class="elklabel" transform="translate(-1, 10) translate(0, 0)" opacity="1">namespace</text></g><g id="sprotty_55" transform="translate(700, 1515.5)" opacity="1"><rect class="elkport" x="0" y="0" width="16" height="9" /><text id="sprotty_56" class="elklabel" transform="translate(17, 10) translate(0, 0)" opacity="1">deployment</text></g><g id="sprotty_58" transform="translate(700, 1600)" opacity="1"><rect class="elkport" x="0" y="0" width="16" height="9" /><text id="sprotty_59" class="elklabel" transform="translate(17, 10) translate(0, 0)" opacity="1">ingress_class</text></g><g id="sprotty_61" transform="translate(700, 235.5)" opacity="1"><rect class="elkport" x="0" y="0" width="16" height="9" /><text id="sprotty_62" class="elklabel" transform="translate(17, 10) translate(0, 0)" opacity="1">node_port_http</text></g><g id="sprotty_64" transform="translate(700, 295.5)" opacity="1"><rect class="elkport" x="0" y="0" width="16" height="9" /><text id="sprotty_65" class="elklabel" transform="translate(17, 10) translate(0, 0)" opacity="1">node_port_https</text></g><g id="sprotty_67" transform="translate(700, 175.5)" opacity="1"><rect class="elkport" x="0" y="0" width="16" height="9" /><text id="sprotty_68" class="elklabel" transform="translate(17, 10) translate(0, 0)" opacity="1">service</text></g><text id="sprotty_4" class="elklabel" transform="translate(0, -21) translate(0, 0)" opacity="1">modules/kubernetes/ingress-nginx</text><g id="sprotty_9" class="sprotty-edge" opacity="1"><path class="elkedge" d="M 0,1538 L 300,1538" /><path class="edge arrow" d="M 0,0 L 8,-3 L 8,3 Z" transform="rotate(180 300 1538) translate(300 1538)" /></g><g id="sprotty_12" class="sprotty-edge" opacity="1"><path class="elkedge" d="M 0,1375 L 150,1375 L 150,1526 L 300,1526" /><path class="edge arrow" d="M 0,0 L 8,-3 L 8,3 Z" transform="rotate(180 300 1526) translate(300 1526)" /><g id="sprotty_12_j0" transform="translate(150, 1375)" opacity="1"><circle class="elkjunction" r="2" /></g></g><g id="sprotty_15" class="sprotty-edge" opacity="1"><path class="elkedge" d="M 0,890 L 250,890 L 250,1514 L 300,1514" /><path class="edge arrow" d="M 0,0 L 8,-3 L 8,3 Z" transform="rotate(180 300 1514) translate(300 1514)" /><g id="sprotty_15_j0" transform="translate(250, 890)" opacity="1"><circle class="elkjunction" r="2" /></g></g><g id="sprotty_18" class="sprotty-edge" opacity="1"><path class="elkedge" d="M 0,710 L 200,710 L 200,1502 L 300,1502" /><path class="edge arrow" d="M 0,0 L 8,-3 L 8,3 Z" transform="rotate(180 300 1502) translate(300 1502)" /><g id="sprotty_18_j0" transform="translate(200, 710)" opacity="1"><circle class="elkjunction" r="2" /></g></g><g id="sprotty_21" class="sprotty-edge" opacity="1"><path class="elkedge" d="M 0,890 L 250,890 L 250,1050 L 300,1050" /><path class="edge arrow" d="M 0,0 L 8,-3 L 8,3 Z" transform="rotate(180 300 1050) translate(300 1050)" /><g id="sprotty_21_j0" transform="translate(250, 1050)" opacity="1"><circle class="elkjunction" r="2" /></g></g><g id="sprotty_22" class="sprotty-edge" opacity="1"><path class="elkedge" d="M 0,710 L 200,710 L 200,1030 L 300,1030" /><path class="edge arrow" d="M 0,0 L 8,-3 L 8,3 Z" transform="rotate(180 300 1030) translate(300 1030)" /><g id="sprotty_22_j0" transform="translate(200, 1030)" opacity="1"><circle class="elkjunction" r="2" /></g></g><g id="sprotty_25" class="sprotty-edge" opacity="1"><path class="elkedge" d="M 0,890 L 250,890 L 250,730 L 300,730" /><path class="edge arrow" d="M 0,0 L 8,-3 L 8,3 Z" transform="rotate(180 300 730) translate(300 730)" /><g id="sprotty_25_j0" transform="translate(250, 730)" opacity="1"><circle class="elkjunction" r="2" /></g></g><g id="sprotty_26" class="sprotty-edge" opacity="1"><path class="elkedge" d="M 0,710 L 300,710" /><path class="edge arrow" d="M 0,0 L 8,-3 L 8,3 Z" transform="rotate(180 300 710) translate(300 710)" /></g><g id="sprotty_29" class="sprotty-edge" opacity="1"><path class="elkedge" d="M 0,890 L 300,890" /><path class="edge arrow" d="M 0,0 L 8,-3 L 8,3 Z" transform="rotate(180 300 890) translate(300 890)" /></g><g id="sprotty_30" class="sprotty-edge" opacity="1"><path class="elkedge" d="M 0,710 L 200,710 L 200,870 L 300,870" /><path class="edge arrow" d="M 0,0 L 8,-3 L 8,3 Z" transform="rotate(180 300 870) translate(300 870)" /><g id="sprotty_30_j0" transform="translate(200, 870)" opacity="1"><circle class="elkjunction" r="2" /></g></g><g id="sprotty_33" class="sprotty-edge" opacity="1"><path class="elkedge" d="M 0,890 L 250,890 L 250,250 L 300,250" /><path class="edge arrow" d="M 0,0 L 8,-3 L 8,3 Z" transform="rotate(180 300 250) translate(300 250)" /><g id="sprotty_33_j0" transform="translate(250, 250)" opacity="1"><circle class="elkjunction" r="2" /></g></g><g id="sprotty_34" class="sprotty-edge" opacity="1"><path class="elkedge" d="M 0,710 L 200,710 L 200,230 L 300,230" /><path class="edge arrow" d="M 0,0 L 8,-3 L 8,3 Z" transform="rotate(180 300 230) translate(300 230)" /><g id="sprotty_34_j0" transform="translate(200, 230)" opacity="1"><circle class="elkjunction" r="2" /></g></g><g id="sprotty_37" class="sprotty-edge" opacity="1"><path class="elkedge" d="M 0,890 L 250,890 L 250,410 L 300,410" /><path class="edge arrow" d="M 0,0 L 8,-3 L 8,3 Z" transform="rotate(180 300 410) translate(300 410)" /><g id="sprotty_37_j0" transform="translate(250, 410)" opacity="1"><circle class="elkjunction" r="2" /></g></g><g id="sprotty_38" class="sprotty-edge" opacity="1"><path class="elkedge" d="M 0,710 L 200,710 L 200,390 L 300,390" /><path class="edge arrow" d="M 0,0 L 8,-3 L 8,3 Z" transform="rotate(180 300 390) translate(300 390)" /><g id="sprotty_38_j0" transform="translate(200, 390)" opacity="1"><circle class="elkjunction" r="2" /></g></g><g id="sprotty_41" class="sprotty-edge" opacity="1"><path class="elkedge" d="M 0,890 L 250,890 L 250,1200 L 300,1200" /><path class="edge arrow" d="M 0,0 L 8,-3 L 8,3 Z" transform="rotate(180 300 1200) translate(300 1200)" /><g id="sprotty_41_j0" transform="translate(250, 1200)" opacity="1"><circle class="elkjunction" r="2" /></g></g><g id="sprotty_44" class="sprotty-edge" opacity="1"><path class="elkedge" d="M 0,890 L 250,890 L 250,90 L 300,90" /><path class="edge arrow" d="M 0,0 L 8,-3 L 8,3 Z" transform="rotate(180 300 90) translate(300 90)" /></g><g id="sprotty_45" class="sprotty-edge" opacity="1"><path class="elkedge" d="M 0,710 L 200,710 L 200,70 L 300,70" /><path class="edge arrow" d="M 0,0 L 8,-3 L 8,3 Z" transform="rotate(180 300 70) translate(300 70)" /></g><g id="sprotty_48" class="sprotty-edge" opacity="1"><path class="elkedge" d="M 0,1375 L 300,1375" /><path class="edge arrow" d="M 0,0 L 8,-3 L 8,3 Z" transform="rotate(180 300 1375) translate(300 1375)" /></g><g id="sprotty_49" class="sprotty-edge" opacity="1"><path class="elkedge" d="M 0,890 L 250,890 L 250,1360 L 300,1360" /><path class="edge arrow" d="M 0,0 L 8,-3 L 8,3 Z" transform="rotate(180 300 1360) translate(300 1360)" /><g id="sprotty_49_j0" transform="translate(250, 1360)" opacity="1"><circle class="elkjunction" r="2" /></g></g><g id="sprotty_50" class="sprotty-edge" opacity="1"><path class="elkedge" d="M 0,710 L 200,710 L 200,1345 L 300,1345" /><path class="edge arrow" d="M 0,0 L 8,-3 L 8,3 Z" transform="rotate(180 300 1345) translate(300 1345)" /><g id="sprotty_50_j0" transform="translate(200, 1345)" opacity="1"><circle class="elkjunction" r="2" /></g></g><g id="sprotty_53" class="sprotty-edge" opacity="1"><path class="elkedge" d="M 0,890 L 250,890 L 250,570 L 300,570" /><path class="edge arrow" d="M 0,0 L 8,-3 L 8,3 Z" transform="rotate(180 300 570) translate(300 570)" /><g id="sprotty_53_j0" transform="translate(250, 570)" opacity="1"><circle class="elkjunction" r="2" /></g></g><g id="sprotty_54" class="sprotty-edge" opacity="1"><path class="elkedge" d="M 0,710 L 200,710 L 200,550 L 300,550" /><path class="edge arrow" d="M 0,0 L 8,-3 L 8,3 Z" transform="rotate(180 300 550) translate(300 550)" /><g id="sprotty_54_j0" transform="translate(200, 550)" opacity="1"><circle class="elkjunction" r="2" /></g></g><g id="sprotty_57" class="sprotty-edge" opacity="1"><path class="elkedge" d="M 500,1520 L 700,1520" /><path class="edge arrow" d="M 0,0 L 8,-3 L 8,3 Z" transform="rotate(180 700 1520) translate(700 1520)" /></g><g id="sprotty_60" class="sprotty-edge" opacity="1"><path class="elkedge" d="M 0,1377.5642458100558 L 700,1601.9357541899442" /><path class="edge arrow" d="M 0,0 L 8,-3 L 8,3 Z" transform="rotate(-162.2277488318069 700 1601.9357541899442) translate(700 1601.9357541899442)" /></g><g id="sprotty_63" class="sprotty-edge" opacity="1"><path class="elkedge" d="M 500,240 L 700,240" /><path class="edge arrow" d="M 0,0 L 8,-3 L 8,3 Z" transform="rotate(180 700 240) translate(700 240)" /></g><g id="sprotty_66" class="sprotty-edge" opacity="1"><path class="elkedge" d="M 500,255 L 550,255 L 550,300 L 700,300" /><path class="edge arrow" d="M 0,0 L 8,-3 L 8,3 Z" transform="rotate(180 700 300) translate(700 300)" /></g><g id="sprotty_69" class="sprotty-edge" opacity="1"><path class="elkedge" d="M 500,225 L 550,225 L 550,180 L 700,180" /><path class="edge arrow" d="M 0,0 L 8,-3 L 8,3 Z" transform="rotate(180 700 180) translate(700 180)" /></g></g></g></svg>
