<svg id="sprotty_1" class="sprotty-graph sprotty" tabindex="1002" xmlns="http://www.w3.org/2000/svg" viewBox="0 0 3937 1496"><style>
.elknode {
    stroke: #448;
    stroke-width: 2;
    fill: #ddf;
    fill-opacity: 0.5;
}

.elkport {
    stroke: #448;
    stroke-width: 1;
    fill: #66c;
}

.elkedge {
    fill: none;
    stroke: #88f;
    stroke-width: 8;
    stroke-opacity: 0.3;
    pointer-events: stroke;
    stroke-linejoin: round;
}

.elkedge:hover {
    stroke: #448;
    stroke-width: 8;
    stroke-opacity: 1;
    stroke-dasharray: 16px;
    stroke-dashoffset: 32px;
    animation: stroke 0.5s linear infinite;
}

@keyframes stroke {
    to {
        stroke-dashoffset: 0;
    }
}

.elkedge.arrow {
    fill: #336;
}

.elklabel {
    stroke-width: 0;
    stroke: #000;
    fill: #000;
    font-family: sans-serif;
    font-size: 10pt;
    dominant-baseline: hanging;
}

.elklabel:hover {
    font-size: 24pt;
}

.elkjunction {
    stroke: none;
    fill: #224;
}

.selected &gt; rect {
    stroke-width: 3;
}

.mouseover {
    stroke: #88f;
}
/*
 * Copyright (C) 2017 TypeFox and others.
 *
 * Licensed under the Apache License, Version 2.0 (the &quot;License&quot;); you may not use this file except in compliance with the License.
 * You may obtain a copy of the License at http://www.apache.org/licenses/LICENSE-2.0
 */

.sprotty {
    padding: 0px;
    font-family: &quot;Helvetica Neue&quot;, Helvetica, Arial, sans-serif;
}

.sprotty-hidden {
    display: block;
    position: absolute;
    width: 0px;
    height: 0px;
}

.sprotty-popup {
    font-family: &quot;Helvetica Neue&quot;, Helvetica, Arial, sans-serif;
    position: absolute;
    background: white;
    border-radius: 5px;
    border: 1px solid;
    max-width: 400px;
    min-width: 100px;
}

.sprotty-popup &gt; div {
    margin: 10px;
}

.sprotty-popup-closed {
    display: none;
}
</style><g transform="scale(1) translate(0,0)"><g id="sprotty_3" transform="translate(117, 71)" opacity="1"><rect class="elknode" x="0" y="0" rx="10" width="3720" height="1375" /><g id="sprotty_5" transform="translate(200, 334)" opacity="1"><rect class="elknode" x="0" y="0" rx="10" width="200" height="60" /><text id="sprotty_6" class="elklabel" transform="translate(5, 22) translate(0, 0)" opacity="1">k8s_core_v1_namespace.this</text></g><g id="sprotty_10" transform="translate(2035, 421)" opacity="1"><rect class="elknode" x="0" y="0" rx="10" width="400" height="470" /><g id="sprotty_12" transform="translate(100, 50)" opacity="1"><rect class="elknode" x="0" y="0" rx="10" width="200" height="60" /><text id="sprotty_13" class="elklabel" transform="translate(5, 22) translate(0, 0)" opacity="1">k8s_core_v1_persistent_volume.this</text></g><g id="sprotty_32" transform="translate(100, 160)" opacity="1"><rect class="elknode" x="0" y="0" rx="10" width="200" height="60" /><text id="sprotty_33" class="elklabel" transform="translate(5, 22) translate(0, 0)" opacity="1">k8s_core_v1_persistent_volume_claim.this</text></g><g id="sprotty_14" transform="translate(-16, 50)" opacity="1"><rect class="elkport" x="0" y="0" width="16" height="9" /><text id="sprotty_15" class="elklabel" transform="translate(-1, 10) translate(0, 0)" opacity="1">annotations</text></g><g id="sprotty_17" transform="translate(-16, 110)" opacity="1"><rect class="elkport" x="0" y="0" width="16" height="9" /><text id="sprotty_18" class="elklabel" transform="translate(-1, 10) translate(0, 0)" opacity="1">mount_options</text></g><g id="sprotty_20" transform="translate(-16, 170)" opacity="1"><rect class="elkport" x="0" y="0" width="16" height="9" /><text id="sprotty_21" class="elklabel" transform="translate(-1, 10) translate(0, 0)" opacity="1">name</text></g><g id="sprotty_23" transform="translate(-16, 230)" opacity="1"><rect class="elkport" x="0" y="0" width="16" height="9" /><text id="sprotty_24" class="elklabel" transform="translate(-1, 10) translate(0, 0)" opacity="1">nfs_server</text></g><g id="sprotty_26" transform="translate(-16, 290)" opacity="1"><rect class="elkport" x="0" y="0" width="16" height="9" /><text id="sprotty_27" class="elklabel" transform="translate(-1, 10) translate(0, 0)" opacity="1">replicas</text></g><g id="sprotty_29" transform="translate(-16, 350)" opacity="1"><rect class="elkport" x="0" y="0" width="16" height="9" /><text id="sprotty_30" class="elklabel" transform="translate(-1, 10) translate(0, 0)" opacity="1">storage</text></g><g id="sprotty_35" transform="translate(-16, 410)" opacity="1"><rect class="elkport" x="0" y="0" width="16" height="9" /><text id="sprotty_36" class="elklabel" transform="translate(-1, 10) translate(0, 0)" opacity="1">namespace</text></g><g id="sprotty_38" transform="translate(400, 50)" opacity="1"><rect class="elkport" x="0" y="0" width="16" height="9" /><text id="sprotty_39" class="elklabel" transform="translate(17, 10) translate(0, 0)" opacity="1">replicas</text></g><g id="sprotty_41" transform="translate(400, 110)" opacity="1"><rect class="elkport" x="0" y="0" width="16" height="9" /><text id="sprotty_42" class="elklabel" transform="translate(17, 10) translate(0, 0)" opacity="1">storage</text></g><g id="sprotty_44" transform="translate(400, 170)" opacity="1"><rect class="elkport" x="0" y="0" width="16" height="9" /><text id="sprotty_45" class="elklabel" transform="translate(17, 10) translate(0, 0)" opacity="1">storage_class_name</text></g><text id="sprotty_11" class="elklabel" transform="translate(0, -21) translate(0, 0)" opacity="1">minecraft-storage</text></g><g id="sprotty_47" transform="translate(617, 421)" opacity="1"><rect class="elknode" x="0" y="0" rx="10" width="1134" height="831" /><g id="sprotty_151" transform="translate(100, 50)" opacity="1"><rect class="elknode" x="0" y="0" rx="10" width="200" height="60" /><text id="sprotty_152" class="elklabel" transform="translate(5, 22) translate(0, 0)" opacity="1">local.mount_options</text></g><g id="sprotty_156" transform="translate(350, 50)" opacity="1"><rect class="elknode" x="0" y="0" rx="10" width="200" height="60" /><text id="sprotty_157" class="elklabel" transform="translate(5, 22) translate(0, 0)" opacity="1">local.parameters</text></g><g id="sprotty_174" transform="translate(617, 71)" opacity="1"><rect class="elknode" x="0" y="0" rx="10" width="400" height="710" /><g id="sprotty_176" transform="translate(100, 50)" opacity="1"><rect class="elknode" x="0" y="0" rx="10" width="200" height="60" /><text id="sprotty_177" class="elklabel" transform="translate(5, 22) translate(0, 0)" opacity="1">k8s_apps_v1_deployment.this</text></g><g id="sprotty_178" transform="translate(100, 160)" opacity="1"><rect class="elknode" x="0" y="0" rx="10" width="200" height="60" /><text id="sprotty_179" class="elklabel" transform="translate(5, 22) translate(0, 0)" opacity="1">local.k8s_apps_v1_deployment_parameters</text></g><g id="sprotty_181" transform="translate(100, 270)" opacity="1"><rect class="elknode" x="0" y="0" rx="10" width="200" height="60" /><text id="sprotty_182" class="elklabel" transform="translate(5, 22) translate(0, 0)" opacity="1">k8s_core_v1_service.this</text></g><g id="sprotty_183" transform="translate(100, 380)" opacity="1"><rect class="elknode" x="0" y="0" rx="10" width="200" height="60" /><text id="sprotty_184" class="elklabel" transform="translate(5, 22) translate(0, 0)" opacity="1">local.k8s_core_v1_service_parameters</text></g><g id="sprotty_186" transform="translate(100, 490)" opacity="1"><rect class="elknode" x="0" y="0" rx="10" width="200" height="60" /><text id="sprotty_187" class="elklabel" transform="translate(5, 22) translate(0, 0)" opacity="1">local.selector</text></g><g id="sprotty_189" transform="translate(100, 600)" opacity="1"><rect class="elknode" x="0" y="0" rx="10" width="200" height="60" /><text id="sprotty_190" class="elklabel" transform="translate(5, 22) translate(0, 0)" opacity="1">local.labels</text></g><g id="sprotty_192" transform="translate(-16, 50)" opacity="1"><rect class="elkport" x="0" y="0" width="16" height="9" /><text id="sprotty_193" class="elklabel" transform="translate(-1, 10) translate(0, 0)" opacity="1">parameters</text></g><g id="sprotty_196" transform="translate(400, 50)" opacity="1"><rect class="elkport" x="0" y="0" width="16" height="9" /><text id="sprotty_197" class="elklabel" transform="translate(17, 10) translate(0, 0)" opacity="1">deployment</text></g><g id="sprotty_199" transform="translate(400, 110)" opacity="1"><rect class="elkport" x="0" y="0" width="16" height="9" /><text id="sprotty_200" class="elklabel" transform="translate(17, 10) translate(0, 0)" opacity="1">name</text></g><g id="sprotty_202" transform="translate(400, 170)" opacity="1"><rect class="elkport" x="0" y="0" width="16" height="9" /><text id="sprotty_203" class="elklabel" transform="translate(17, 10) translate(0, 0)" opacity="1">service</text></g><text id="sprotty_175" class="elklabel" transform="translate(0, -21) translate(0, 0)" opacity="1">deployment-service</text></g><g id="sprotty_49" transform="translate(1134, 50)" opacity="1"><rect class="elkport" x="0" y="0" width="16" height="9" /><text id="sprotty_50" class="elklabel" transform="translate(17, 10) translate(0, 0)" opacity="1">deployment</text></g><g id="sprotty_52" transform="translate(1134, 110)" opacity="1"><rect class="elkport" x="0" y="0" width="16" height="9" /><text id="sprotty_53" class="elklabel" transform="translate(17, 10) translate(0, 0)" opacity="1">mount_options</text></g><g id="sprotty_59" transform="translate(1134, 170)" opacity="1"><rect class="elkport" x="0" y="0" width="16" height="9" /><text id="sprotty_60" class="elklabel" transform="translate(17, 10) translate(0, 0)" opacity="1">service</text></g><g id="sprotty_153" transform="translate(-16, 50)" opacity="1"><rect class="elkport" x="0" y="0" width="16" height="9" /><text id="sprotty_154" class="elklabel" transform="translate(-1, 10) translate(0, 0)" opacity="1">port</text></g><g id="sprotty_158" transform="translate(-16, 110)" opacity="1"><rect class="elkport" x="0" y="0" width="16" height="9" /><text id="sprotty_159" class="elklabel" transform="translate(-1, 10) translate(0, 0)" opacity="1">image</text></g><g id="sprotty_161" transform="translate(-16, 170)" opacity="1"><rect class="elkport" x="0" y="0" width="16" height="9" /><text id="sprotty_162" class="elklabel" transform="translate(-1, 10) translate(0, 0)" opacity="1">medium</text></g><g id="sprotty_164" transform="translate(-16, 230)" opacity="1"><rect class="elkport" x="0" y="0" width="16" height="9" /><text id="sprotty_165" class="elklabel" transform="translate(-1, 10) translate(0, 0)" opacity="1">name</text></g><g id="sprotty_167" transform="translate(-16, 290)" opacity="1"><rect class="elkport" x="0" y="0" width="16" height="9" /><text id="sprotty_168" class="elklabel" transform="translate(-1, 10) translate(0, 0)" opacity="1">namespace</text></g><g id="sprotty_171" transform="translate(-16, 350)" opacity="1"><rect class="elkport" x="0" y="0" width="16" height="9" /><text id="sprotty_172" class="elklabel" transform="translate(-1, 10) translate(0, 0)" opacity="1">replicas</text></g><g id="sprotty_206" transform="translate(-16, 410)" opacity="1"><rect class="elkport" x="0" y="0" width="16" height="9" /><text id="sprotty_207" class="elklabel" transform="translate(-1, 10) translate(0, 0)" opacity="1">overrides</text></g><g id="sprotty_211" transform="translate(1134, 230)" opacity="1"><rect class="elkport" x="0" y="0" width="16" height="9" /><text id="sprotty_212" class="elklabel" transform="translate(17, 10) translate(0, 0)" opacity="1">name</text></g><text id="sprotty_48" class="elklabel" transform="translate(0, -21) translate(0, 0)" opacity="1">nfs-server</text></g><g id="sprotty_65" transform="translate(2669, 121)" opacity="1"><rect class="elknode" x="0" y="0" rx="10" width="884" height="831" /><g id="sprotty_67" transform="translate(100, 50)" opacity="1"><rect class="elknode" x="0" y="0" rx="10" width="200" height="60" /><text id="sprotty_68" class="elklabel" transform="translate(5, 22) translate(0, 0)" opacity="1">local.parameters</text></g><g id="sprotty_96" transform="translate(367, 71)" opacity="1"><rect class="elknode" x="0" y="0" rx="10" width="400" height="710" /><g id="sprotty_98" transform="translate(100, 50)" opacity="1"><rect class="elknode" x="0" y="0" rx="10" width="200" height="60" /><text id="sprotty_99" class="elklabel" transform="translate(5, 22) translate(0, 0)" opacity="1">k8s_apps_v1_stateful_set.this</text></g><g id="sprotty_100" transform="translate(100, 160)" opacity="1"><rect class="elknode" x="0" y="0" rx="10" width="200" height="60" /><text id="sprotty_101" class="elklabel" transform="translate(5, 22) translate(0, 0)" opacity="1">local.k8s_apps_v1_stateful_set_parameters</text></g><g id="sprotty_103" transform="translate(100, 270)" opacity="1"><rect class="elknode" x="0" y="0" rx="10" width="200" height="60" /><text id="sprotty_104" class="elklabel" transform="translate(5, 22) translate(0, 0)" opacity="1">k8s_core_v1_service.this</text></g><g id="sprotty_105" transform="translate(100, 380)" opacity="1"><rect class="elknode" x="0" y="0" rx="10" width="200" height="60" /><text id="sprotty_106" class="elklabel" transform="translate(5, 22) translate(0, 0)" opacity="1">local.k8s_core_v1_service_parameters</text></g><g id="sprotty_108" transform="translate(100, 490)" opacity="1"><rect class="elknode" x="0" y="0" rx="10" width="200" height="60" /><text id="sprotty_109" class="elklabel" transform="translate(5, 22) translate(0, 0)" opacity="1">local.selector</text></g><g id="sprotty_111" transform="translate(100, 600)" opacity="1"><rect class="elknode" x="0" y="0" rx="10" width="200" height="60" /><text id="sprotty_112" class="elklabel" transform="translate(5, 22) translate(0, 0)" opacity="1">local.labels</text></g><g id="sprotty_114" transform="translate(-16, 50)" opacity="1"><rect class="elkport" x="0" y="0" width="16" height="9" /><text id="sprotty_115" class="elklabel" transform="translate(-1, 10) translate(0, 0)" opacity="1">parameters</text></g><g id="sprotty_118" transform="translate(400, 50)" opacity="1"><rect class="elkport" x="0" y="0" width="16" height="9" /><text id="sprotty_119" class="elklabel" transform="translate(17, 10) translate(0, 0)" opacity="1">labels</text></g><g id="sprotty_121" transform="translate(400, 110)" opacity="1"><rect class="elkport" x="0" y="0" width="16" height="9" /><text id="sprotty_122" class="elklabel" transform="translate(17, 10) translate(0, 0)" opacity="1">name</text></g><g id="sprotty_124" transform="translate(400, 170)" opacity="1"><rect class="elkport" x="0" y="0" width="16" height="9" /><text id="sprotty_125" class="elklabel" transform="translate(17, 10) translate(0, 0)" opacity="1">service</text></g><g id="sprotty_127" transform="translate(400, 230)" opacity="1"><rect class="elkport" x="0" y="0" width="16" height="9" /><text id="sprotty_128" class="elklabel" transform="translate(17, 10) translate(0, 0)" opacity="1">statefulset</text></g><text id="sprotty_97" class="elklabel" transform="translate(0, -21) translate(0, 0)" opacity="1">statefulset-service</text></g><g id="sprotty_69" transform="translate(-16, 50)" opacity="1"><rect class="elkport" x="0" y="0" width="16" height="9" /><text id="sprotty_70" class="elklabel" transform="translate(-1, 10) translate(0, 0)" opacity="1">annotations</text></g><g id="sprotty_72" transform="translate(-16, 110)" opacity="1"><rect class="elkport" x="0" y="0" width="16" height="9" /><text id="sprotty_73" class="elklabel" transform="translate(-1, 10) translate(0, 0)" opacity="1">image</text></g><g id="sprotty_75" transform="translate(-16, 170)" opacity="1"><rect class="elkport" x="0" y="0" width="16" height="9" /><text id="sprotty_76" class="elklabel" transform="translate(-1, 10) translate(0, 0)" opacity="1">name</text></g><g id="sprotty_78" transform="translate(-16, 230)" opacity="1"><rect class="elkport" x="0" y="0" width="16" height="9" /><text id="sprotty_79" class="elklabel" transform="translate(-1, 10) translate(0, 0)" opacity="1">namespace</text></g><g id="sprotty_81" transform="translate(-16, 290)" opacity="1"><rect class="elkport" x="0" y="0" width="16" height="9" /><text id="sprotty_82" class="elklabel" transform="translate(-1, 10) translate(0, 0)" opacity="1">ports</text></g><g id="sprotty_84" transform="translate(-16, 350)" opacity="1"><rect class="elkport" x="0" y="0" width="16" height="9" /><text id="sprotty_85" class="elklabel" transform="translate(-1, 10) translate(0, 0)" opacity="1">replicas</text></g><g id="sprotty_87" transform="translate(-16, 410)" opacity="1"><rect class="elkport" x="0" y="0" width="16" height="9" /><text id="sprotty_88" class="elklabel" transform="translate(-1, 10) translate(0, 0)" opacity="1">storage</text></g><g id="sprotty_90" transform="translate(-16, 470)" opacity="1"><rect class="elkport" x="0" y="0" width="16" height="9" /><text id="sprotty_91" class="elklabel" transform="translate(-1, 10) translate(0, 0)" opacity="1">storage_class_name</text></g><g id="sprotty_93" transform="translate(-16, 530)" opacity="1"><rect class="elkport" x="0" y="0" width="16" height="9" /><text id="sprotty_94" class="elklabel" transform="translate(-1, 10) translate(0, 0)" opacity="1">volume_claim_template_name</text></g><g id="sprotty_131" transform="translate(-16, 590)" opacity="1"><rect class="elkport" x="0" y="0" width="16" height="9" /><text id="sprotty_132" class="elklabel" transform="translate(-1, 10) translate(0, 0)" opacity="1">overrides</text></g><g id="sprotty_134" transform="translate(884, 50)" opacity="1"><rect class="elkport" x="0" y="0" width="16" height="9" /><text id="sprotty_135" class="elklabel" transform="translate(17, 10) translate(0, 0)" opacity="1">name</text></g><g id="sprotty_137" transform="translate(884, 110)" opacity="1"><rect class="elkport" x="0" y="0" width="16" height="9" /><text id="sprotty_138" class="elklabel" transform="translate(17, 10) translate(0, 0)" opacity="1">ports</text></g><g id="sprotty_140" transform="translate(884, 170)" opacity="1"><rect class="elkport" x="0" y="0" width="16" height="9" /><text id="sprotty_141" class="elklabel" transform="translate(17, 10) translate(0, 0)" opacity="1">service</text></g><g id="sprotty_143" transform="translate(884, 230)" opacity="1"><rect class="elkport" x="0" y="0" width="16" height="9" /><text id="sprotty_144" class="elklabel" transform="translate(17, 10) translate(0, 0)" opacity="1">statefulset</text></g><text id="sprotty_66" class="elklabel" transform="translate(0, -21) translate(0, 0)" opacity="1">minecraft</text></g><g id="sprotty_7" transform="translate(-16, 359.5)" opacity="1"><rect class="elkport" x="0" y="0" width="16" height="9" /><text id="sprotty_8" class="elklabel" transform="translate(-1, 10) translate(0, 0)" opacity="1">namespace</text></g><g id="sprotty_55" transform="translate(-16, 278.5)" opacity="1"><rect class="elkport" x="0" y="0" width="16" height="9" /><text id="sprotty_56" class="elklabel" transform="translate(-1, 10) translate(0, 0)" opacity="1">name</text></g><g id="sprotty_62" transform="translate(-16, 1308.5)" opacity="1"><rect class="elkport" x="0" y="0" width="16" height="9" /><text id="sprotty_63" class="elklabel" transform="translate(-1, 10) translate(0, 0)" opacity="1">replicas</text></g><text id="sprotty_4" class="elklabel" transform="translate(0, -21) translate(0, 0)" opacity="1">examples/minecraft</text><g id="sprotty_9" class="sprotty-edge" opacity="1"><path class="elkedge" d="M 0,364 L 200,364" /><path class="edge arrow" d="M 0,0 L 8,-3 L 8,3 Z" transform="rotate(180 200 364) translate(200 364)" /></g><g id="sprotty_16" class="sprotty-edge" opacity="1"><path class="elkedge" d="M 2035,476.4807692307692 L 2135,488.74038461538464" /><path class="edge arrow" d="M 0,0 L 8,-3 L 8,3 Z" transform="rotate(-173.0106348436615 2135 488.74038461538464) translate(2135 488.74038461538464)" /></g><g id="sprotty_19" class="sprotty-edge" opacity="1"><path class="elkedge" d="M 2035,534.1730769230769 L 2135,517.5865384615385" /><path class="edge arrow" d="M 0,0 L 8,-3 L 8,3 Z" transform="rotate(170.58235285466571 2135 517.5865384615385) translate(2135 517.5865384615385)" /></g><g id="sprotty_22" class="sprotty-edge" opacity="1"><path class="elkedge" d="M 2035,591.8653846153846 L 2168.968253968254,531" /><path class="edge arrow" d="M 0,0 L 8,-3 L 8,3 Z" transform="rotate(155.5664230096372 2168.968253968254 531) translate(2168.968253968254 531)" /></g><g id="sprotty_25" class="sprotty-edge" opacity="1"><path class="elkedge" d="M 2033.0582524271845,651 L 2194.6116504854367,531" /><path class="edge arrow" d="M 0,0 L 8,-3 L 8,3 Z" transform="rotate(143.39546107211743 2194.6116504854367 531) translate(2194.6116504854367 531)" /></g><g id="sprotty_28" class="sprotty-edge" opacity="1"><path class="elkedge" d="M 2031.3636363636363,711 L 2205.909090909091,531" /><path class="edge arrow" d="M 0,0 L 8,-3 L 8,3 Z" transform="rotate(134.1185960034179 2205.909090909091 531) translate(2205.909090909091 531)" /></g><g id="sprotty_31" class="sprotty-edge" opacity="1"><path class="elkedge" d="M 2030.4098360655737,771 L 2212.2677595628415,531" /><path class="edge arrow" d="M 0,0 L 8,-3 L 8,3 Z" transform="rotate(127.15271423731083 2212.2677595628415 531) translate(2212.2677595628415 531)" /></g><g id="sprotty_34" class="sprotty-edge" opacity="1"><path class="elkedge" d="M 2235,531 L 2235,581" /><path class="edge arrow" d="M 0,0 L 8,-3 L 8,3 Z" transform="rotate(-90 2235 581) translate(2235 581)" /></g><g id="sprotty_37" class="sprotty-edge" opacity="1"><path class="elkedge" d="M 2031.1692650334076,831 L 2207.2048997772827,641" /><path class="edge arrow" d="M 0,0 L 8,-3 L 8,3 Z" transform="rotate(132.81520898842192 2207.2048997772827 641) translate(2207.2048997772827 641)" /></g><g id="sprotty_40" class="sprotty-edge" opacity="1"><path class="elkedge" d="M 2019,715.5 L 1918,715.5 L 1918,941 L 2502,941 L 2502,475.5 L 2451,475.5" /><path class="edge arrow" d="M 0,0 L 8,-3 L 8,3 Z" transform="rotate(0 2451 475.5) translate(2451 475.5)" /><g id="sprotty_40_j0" transform="translate(1918, 941)" opacity="1"><circle class="elkjunction" r="2" /></g><g id="sprotty_40_j1" transform="translate(2502, 475.5)" opacity="1"><circle class="elkjunction" r="2" /></g></g><g id="sprotty_43" class="sprotty-edge" opacity="1"><path class="elkedge" d="M 2317.6490066225165,581 L 2435,538.4038461538462" /><path class="edge arrow" d="M 0,0 L 8,-3 L 8,3 Z" transform="rotate(160.05007635827792 2435 538.4038461538462) translate(2435 538.4038461538462)" /></g><g id="sprotty_46" class="sprotty-edge" opacity="1"><path class="elkedge" d="M 2335,603.5480769230769 L 2435,596.0961538461538" /><path class="edge arrow" d="M 0,0 L 8,-3 L 8,3 Z" transform="rotate(175.73823961931822 2435 596.0961538461538) translate(2435 596.0961538461538)" /></g><g id="sprotty_51" class="sprotty-edge" opacity="1"><path class="elkedge" d="M 1767,475.5 L 2019,475.5" /><path class="edge arrow" d="M 0,0 L 8,-3 L 8,3 Z" transform="rotate(180 2019 475.5) translate(2019 475.5)" /></g><g id="sprotty_54" class="sprotty-edge" opacity="1"><path class="elkedge" d="M 1767,535.5 L 2019,535.5" /><path class="edge arrow" d="M 0,0 L 8,-3 L 8,3 Z" transform="rotate(180 2019 535.5) translate(2019 535.5)" /></g><g id="sprotty_57" class="sprotty-edge" opacity="1"><path class="elkedge" d="M 0,283 L 150,283 L 150,1302 L 1868,1302 L 1868,595.5 L 2019,595.5" /><path class="edge arrow" d="M 0,0 L 8,-3 L 8,3 Z" transform="rotate(180 2019 595.5) translate(2019 595.5)" /><g id="sprotty_57_j0" transform="translate(150, 283)" opacity="1"><circle class="elkjunction" r="2" /></g></g><g id="sprotty_58" class="sprotty-edge" opacity="1"><path class="elkedge" d="M 400,379 L 450,379 L 450,1324 L 1968,1324 L 1968,835.5 L 2019,835.5" /><path class="edge arrow" d="M 0,0 L 8,-3 L 8,3 Z" transform="rotate(180 2019 835.5) translate(2019 835.5)" /></g><g id="sprotty_61" class="sprotty-edge" opacity="1"><path class="elkedge" d="M 1767,595.5 L 1818,595.5 L 1818,655.5 L 2019,655.5" /><path class="edge arrow" d="M 0,0 L 8,-3 L 8,3 Z" transform="rotate(180 2019 655.5) translate(2019 655.5)" /></g><g id="sprotty_64" class="sprotty-edge" opacity="1"><path class="elkedge" d="M 0,1313 L 1918,1313 L 1918,715.5 L 2019,715.5" /><path class="edge arrow" d="M 0,0 L 8,-3 L 8,3 Z" transform="rotate(180 2019 715.5) translate(2019 715.5)" /></g><g id="sprotty_71" class="sprotty-edge" opacity="1"><path class="elkedge" d="M 2669,176.48076923076923 L 2769,188.7403846153846" /><path class="edge arrow" d="M 0,0 L 8,-3 L 8,3 Z" transform="rotate(-173.01063484366153 2769 188.7403846153846) translate(2769 188.7403846153846)" /></g><g id="sprotty_74" class="sprotty-edge" opacity="1"><path class="elkedge" d="M 2669,234.1730769230769 L 2769,217.58653846153845" /><path class="edge arrow" d="M 0,0 L 8,-3 L 8,3 Z" transform="rotate(170.58235285466571 2769 217.58653846153845) translate(2769 217.58653846153845)" /></g><g id="sprotty_77" class="sprotty-edge" opacity="1"><path class="elkedge" d="M 2669,291.86538461538464 L 2802.968253968254,231" /><path class="edge arrow" d="M 0,0 L 8,-3 L 8,3 Z" transform="rotate(155.5664230096372 2802.968253968254 231) translate(2802.968253968254 231)" /></g><g id="sprotty_80" class="sprotty-edge" opacity="1"><path class="elkedge" d="M 2667.0582524271845,351 L 2828.6116504854367,231" /><path class="edge arrow" d="M 0,0 L 8,-3 L 8,3 Z" transform="rotate(143.39546107211743 2828.6116504854367 231) translate(2828.6116504854367 231)" /></g><g id="sprotty_83" class="sprotty-edge" opacity="1"><path class="elkedge" d="M 2665.3636363636365,411 L 2839.909090909091,231" /><path class="edge arrow" d="M 0,0 L 8,-3 L 8,3 Z" transform="rotate(134.11859600341785 2839.909090909091 231) translate(2839.909090909091 231)" /></g><g id="sprotty_86" class="sprotty-edge" opacity="1"><path class="elkedge" d="M 2664.409836065574,471 L 2846.2677595628415,231" /><path class="edge arrow" d="M 0,0 L 8,-3 L 8,3 Z" transform="rotate(127.15271423731078 2846.2677595628415 231) translate(2846.2677595628415 231)" /></g><g id="sprotty_89" class="sprotty-edge" opacity="1"><path class="elkedge" d="M 2663.798206278027,531 L 2850.345291479821,231" /><path class="edge arrow" d="M 0,0 L 8,-3 L 8,3 Z" transform="rotate(121.8743247375575 2850.345291479821 231) translate(2850.345291479821 231)" /></g><g id="sprotty_92" class="sprotty-edge" opacity="1"><path class="elkedge" d="M 2663.3726235741447,591 L 2853.1825095057034,231" /><path class="edge arrow" d="M 0,0 L 8,-3 L 8,3 Z" transform="rotate(117.80042566034113 2853.1825095057034 231) translate(2853.1825095057034 231)" /></g><g id="sprotty_95" class="sprotty-edge" opacity="1"><path class="elkedge" d="M 2663.059405940594,651 L 2855.2706270627064,231" /><path class="edge arrow" d="M 0,0 L 8,-3 L 8,3 Z" transform="rotate(114.59100050152603 2855.2706270627064 231) translate(2855.2706270627064 231)" /></g><g id="sprotty_102" class="sprotty-edge" opacity="1"><path class="elkedge" d="M 3236,352 L 3236,302" /><path class="edge arrow" d="M 0,0 L 8,-3 L 8,3 Z" transform="rotate(90 3236 302) translate(3236 302)" /></g><g id="sprotty_107" class="sprotty-edge" opacity="1"><path class="elkedge" d="M 3236,572 L 3236,522" /><path class="edge arrow" d="M 0,0 L 8,-3 L 8,3 Z" transform="rotate(90 3236 522) translate(3236 522)" /></g><g id="sprotty_110" class="sprotty-edge" opacity="1"><path class="elkedge" d="M 3236,682 L 3236,412" /><path class="edge arrow" d="M 0,0 L 8,-3 L 8,3 Z" transform="rotate(90 3236 412) translate(3236 412)" /></g><g id="sprotty_113" class="sprotty-edge" opacity="1"><path class="elkedge" d="M 3236,792 L 3236,632" /><path class="edge arrow" d="M 0,0 L 8,-3 L 8,3 Z" transform="rotate(90 3236 632) translate(3236 632)" /></g><g id="sprotty_116" class="sprotty-edge" opacity="1"><path class="elkedge" d="M 3029.6264118158124,251 L 3225.157254561251,792" /><path class="edge arrow" d="M 0,0 L 8,-3 L 8,3 Z" transform="rotate(-109.87111491399165 3225.157254561251 792) translate(3225.157254561251 792)" /></g><g id="sprotty_117" class="sprotty-edge" opacity="1"><path class="elkedge" d="M 3236,792 L 3236,742" /><path class="edge arrow" d="M 0,0 L 8,-3 L 8,3 Z" transform="rotate(90 3236 742) translate(3236 742)" /></g><g id="sprotty_120" class="sprotty-edge" opacity="1"><path class="elkedge" d="M 3246.842745438749,792 L 3442.3735881841876,251" /><path class="edge arrow" d="M 0,0 L 8,-3 L 8,3 Z" transform="rotate(109.87111491399165 3442.3735881841876 251) translate(3442.3735881841876 251)" /></g><g id="sprotty_123" class="sprotty-edge" opacity="1"><path class="elkedge" d="M 3269.6388140161725,462 L 3438.954177897574,311" /><path class="edge arrow" d="M 0,0 L 8,-3 L 8,3 Z" transform="rotate(138.27256122803203 3438.954177897574 311) translate(3438.954177897574 311)" /></g><g id="sprotty_126" class="sprotty-edge" opacity="1"><path class="elkedge" d="M 3285.7211155378486,462 L 3436.5418326693225,371" /><path class="edge arrow" d="M 0,0 L 8,-3 L 8,3 Z" transform="rotate(148.89467282183264 3436.5418326693225 371) translate(3436.5418326693225 371)" /></g><g id="sprotty_129" class="sprotty-edge" opacity="1"><path class="elkedge" d="M 3276.388349514563,302 L 3437.9417475728155,422" /><path class="edge arrow" d="M 0,0 L 8,-3 L 8,3 Z" transform="rotate(-143.3954610721175 3437.9417475728155 422) translate(3437.9417475728155 422)" /></g><g id="sprotty_130" class="sprotty-edge" opacity="1"><path class="elkedge" d="M 2969,229.61635220125785 L 3020,244.21069182389937" /><path class="edge arrow" d="M 0,0 L 8,-3 L 8,3 Z" transform="rotate(-164.03081017207577 3020 244.21069182389937) translate(3020 244.21069182389937)" /></g><g id="sprotty_133" class="sprotty-edge" opacity="1"><path class="elkedge" d="M 2664.5213219616203,711 L 3024.4786780383797,251" /><path class="edge arrow" d="M 0,0 L 8,-3 L 8,3 Z" transform="rotate(128.0437483456909 3024.4786780383797 251) translate(3024.4786780383797 251)" /></g><g id="sprotty_136" class="sprotty-edge" opacity="1"><path class="elkedge" d="M 3448.0190839694656,302 L 3556.9809160305344,180" /><path class="edge arrow" d="M 0,0 L 8,-3 L 8,3 Z" transform="rotate(131.76899009963185 3556.9809160305344 180) translate(3556.9809160305344 180)" /></g><g id="sprotty_139" class="sprotty-edge" opacity="1"><path class="elkedge" d="M 2653,415.5 L 2502,415.5 L 2502,50 L 3620,50 L 3620,235.5 L 3569,235.5" /><path class="edge arrow" d="M 0,0 L 8,-3 L 8,3 Z" transform="rotate(0 3569 235.5) translate(3569 235.5)" /></g><g id="sprotty_142" class="sprotty-edge" opacity="1"><path class="elkedge" d="M 3451.415492957746,362 L 3553.584507042254,300" /><path class="edge arrow" d="M 0,0 L 8,-3 L 8,3 Z" transform="rotate(148.74904898341944 3553.584507042254 300) translate(3553.584507042254 300)" /></g><g id="sprotty_145" class="sprotty-edge" opacity="1"><path class="elkedge" d="M 3451.415492957746,422 L 3553.584507042254,360" /><path class="edge arrow" d="M 0,0 L 8,-3 L 8,3 Z" transform="rotate(148.74904898341944 3553.584507042254 360) translate(3553.584507042254 360)" /></g><g id="sprotty_146" class="sprotty-edge" opacity="1"><path class="elkedge" d="M 0,283 L 2552,283 L 2552,295.5 L 2653,295.5" /><path class="edge arrow" d="M 0,0 L 8,-3 L 8,3 Z" transform="rotate(180 2653 295.5) translate(2653 295.5)" /></g><g id="sprotty_147" class="sprotty-edge" opacity="1"><path class="elkedge" d="M 400,349 L 2552,349 L 2552,355.5 L 2653,355.5" /><path class="edge arrow" d="M 0,0 L 8,-3 L 8,3 Z" transform="rotate(180 2653 355.5) translate(2653 355.5)" /></g><g id="sprotty_148" class="sprotty-edge" opacity="1"><path class="elkedge" d="M 2451,475.5 L 2653,475.5" /><path class="edge arrow" d="M 0,0 L 8,-3 L 8,3 Z" transform="rotate(180 2653 475.5) translate(2653 475.5)" /></g><g id="sprotty_149" class="sprotty-edge" opacity="1"><path class="elkedge" d="M 2451,535.5 L 2653,535.5" /><path class="edge arrow" d="M 0,0 L 8,-3 L 8,3 Z" transform="rotate(180 2653 535.5) translate(2653 535.5)" /></g><g id="sprotty_150" class="sprotty-edge" opacity="1"><path class="elkedge" d="M 2451,595.5 L 2653,595.5" /><path class="edge arrow" d="M 0,0 L 8,-3 L 8,3 Z" transform="rotate(180 2653 595.5) translate(2653 595.5)" /></g><g id="sprotty_155" class="sprotty-edge" opacity="1"><path class="elkedge" d="M 617,476.4807692307692 L 717,488.74038461538464" /><path class="edge arrow" d="M 0,0 L 8,-3 L 8,3 Z" transform="rotate(-173.0106348436615 717 488.74038461538464) translate(717 488.74038461538464)" /></g><g id="sprotty_160" class="sprotty-edge" opacity="1"><path class="elkedge" d="M 617,534.8973799126637 L 967,508.53275109170306" /><path class="edge arrow" d="M 0,0 L 8,-3 L 8,3 Z" transform="rotate(175.69218709699993 967 508.53275109170306) translate(967 508.53275109170306)" /></g><g id="sprotty_163" class="sprotty-edge" opacity="1"><path class="elkedge" d="M 617,593.849344978166 L 967,521.6331877729258" /><path class="edge arrow" d="M 0,0 L 8,-3 L 8,3 Z" transform="rotate(168.34165965728076 967 521.6331877729258) translate(967 521.6331877729258)" /></g><g id="sprotty_166" class="sprotty-edge" opacity="1"><path class="elkedge" d="M 617,652.8013100436681 L 978.0679611650485,531" /><path class="edge arrow" d="M 0,0 L 8,-3 L 8,3 Z" transform="rotate(161.35888472155233 978.0679611650485 531) translate(978.0679611650485 531)" /></g><g id="sprotty_169" class="sprotty-edge" opacity="1"><path class="elkedge" d="M 617,711.7532751091703 L 1002.9440559440559,531" /><path class="edge arrow" d="M 0,0 L 8,-3 L 8,3 Z" transform="rotate(154.90439887692173 1002.9440559440559 531) translate(1002.9440559440559 531)" /></g><g id="sprotty_170" class="sprotty-edge" opacity="1"><path class="elkedge" d="M 617,475.9454148471616 L 967,495.43231441048033" /><path class="edge arrow" d="M 0,0 L 8,-3 L 8,3 Z" transform="rotate(-176.81324131380964 967 495.43231441048033) translate(967 495.43231441048033)" /></g><g id="sprotty_173" class="sprotty-edge" opacity="1"><path class="elkedge" d="M 616.5081967213115,771 L 1016.9453551912568,531" /><path class="edge arrow" d="M 0,0 L 8,-3 L 8,3 Z" transform="rotate(149.0638470210404 1016.9453551912568 531) translate(1016.9453551912568 531)" /></g><g id="sprotty_180" class="sprotty-edge" opacity="1"><path class="elkedge" d="M 1434,652 L 1434,602" /><path class="edge arrow" d="M 0,0 L 8,-3 L 8,3 Z" transform="rotate(90 1434 602) translate(1434 602)" /></g><g id="sprotty_185" class="sprotty-edge" opacity="1"><path class="elkedge" d="M 1434,872 L 1434,822" /><path class="edge arrow" d="M 0,0 L 8,-3 L 8,3 Z" transform="rotate(90 1434 822) translate(1434 822)" /></g><g id="sprotty_188" class="sprotty-edge" opacity="1"><path class="elkedge" d="M 1434,982 L 1434,712" /><path class="edge arrow" d="M 0,0 L 8,-3 L 8,3 Z" transform="rotate(90 1434 712) translate(1434 712)" /></g><g id="sprotty_191" class="sprotty-edge" opacity="1"><path class="elkedge" d="M 1434,1092 L 1434,932" /><path class="edge arrow" d="M 0,0 L 8,-3 L 8,3 Z" transform="rotate(90 1434 932) translate(1434 932)" /></g><g id="sprotty_194" class="sprotty-edge" opacity="1"><path class="elkedge" d="M 1227.6264118158124,551 L 1423.1572545612512,1092" /><path class="edge arrow" d="M 0,0 L 8,-3 L 8,3 Z" transform="rotate(-109.87111491399165 1423.1572545612512 1092) translate(1423.1572545612512 1092)" /></g><g id="sprotty_195" class="sprotty-edge" opacity="1"><path class="elkedge" d="M 1434,1092 L 1434,1042" /><path class="edge arrow" d="M 0,0 L 8,-3 L 8,3 Z" transform="rotate(90 1434 1042) translate(1434 1042)" /></g><g id="sprotty_198" class="sprotty-edge" opacity="1"><path class="elkedge" d="M 1534,559.7403846153846 L 1634,547.4807692307693" /><path class="edge arrow" d="M 0,0 L 8,-3 L 8,3 Z" transform="rotate(173.01063484366153 1634 547.4807692307693) translate(1634 547.4807692307693)" /></g><g id="sprotty_201" class="sprotty-edge" opacity="1"><path class="elkedge" d="M 1467.6388140161725,762 L 1636.954177897574,611" /><path class="edge arrow" d="M 0,0 L 8,-3 L 8,3 Z" transform="rotate(138.27256122803203 1636.954177897574 611) translate(1636.954177897574 611)" /></g><g id="sprotty_204" class="sprotty-edge" opacity="1"><path class="elkedge" d="M 1483.7211155378486,762 L 1634.5418326693227,671" /><path class="edge arrow" d="M 0,0 L 8,-3 L 8,3 Z" transform="rotate(148.89467282183267 1634.5418326693227 671) translate(1634.5418326693227 671)" /></g><g id="sprotty_205" class="sprotty-edge" opacity="1"><path class="elkedge" d="M 1167,529.6163522012579 L 1218,544.2106918238994" /><path class="edge arrow" d="M 0,0 L 8,-3 L 8,3 Z" transform="rotate(-164.03081017207572 1218 544.2106918238994) translate(1218 544.2106918238994)" /></g><g id="sprotty_208" class="sprotty-edge" opacity="1"><path class="elkedge" d="M 617,831.7528363047002 L 1218,550.2471636952998" /><path class="edge arrow" d="M 0,0 L 8,-3 L 8,3 Z" transform="rotate(154.90182155495737 1218 550.2471636952998) translate(1218 550.2471636952998)" /></g><g id="sprotty_209" class="sprotty-edge" opacity="1"><path class="elkedge" d="M 1649.4154929577464,542 L 1751.5845070422536,480" /><path class="edge arrow" d="M 0,0 L 8,-3 L 8,3 Z" transform="rotate(148.74904898341933 1751.5845070422536 480) translate(1751.5845070422536 480)" /></g><g id="sprotty_210" class="sprotty-edge" opacity="1"><path class="elkedge" d="M 917,504.6624203821656 L 1751,535.2070063694267" /><path class="edge arrow" d="M 0,0 L 8,-3 L 8,3 Z" transform="rotate(-177.90252516137306 1751 535.2070063694267) translate(1751 535.2070063694267)" /></g><g id="sprotty_213" class="sprotty-edge" opacity="1"><path class="elkedge" d="M 1650,609.8504273504274 L 1751,652.1495726495726" /><path class="edge arrow" d="M 0,0 L 8,-3 L 8,3 Z" transform="rotate(-157.275897848259 1751 652.1495726495726) translate(1751 652.1495726495726)" /></g><g id="sprotty_214" class="sprotty-edge" opacity="1"><path class="elkedge" d="M 1649.4154929577464,662 L 1751.5845070422536,600" /><path class="edge arrow" d="M 0,0 L 8,-3 L 8,3 Z" transform="rotate(148.74904898341933 1751.5845070422536 600) translate(1751.5845070422536 600)" /></g><g id="sprotty_215" class="sprotty-edge" opacity="1"><path class="elkedge" d="M 400,364 L 500,364 L 500,715.5 L 601,715.5" /><path class="edge arrow" d="M 0,0 L 8,-3 L 8,3 Z" transform="rotate(180 601 715.5) translate(601 715.5)" /></g></g></g></svg>
