<svg id="sprotty_1" class="sprotty-graph sprotty" tabindex="1002" xmlns="http://www.w3.org/2000/svg" viewBox="0 0 1342 1468.5"><style>.elknode {
    stroke: #448;
    stroke-width: 2;
    fill: #ddf;
}

.elkport {
    stroke: #448;
    stroke-width: 1;
    fill: #66c;
}

.elkedge {
    fill: none;
    stroke: #224;
    stroke-width: 1;
}

.elkedge.arrow {
    fill: #336;
}

.elklabel {
    stroke-width: 0;
    stroke: #000;
    fill: #000;
    font-family: sans-serif;
    font-size: 10pt;
    dominant-baseline: hanging;
}

.elkjunction {
    stroke: none;
    fill: #224;
}

.selected &gt; rect {
    stroke-width: 3;
}

.mouseover {
    stroke: #88f;
}
/*
 * Copyright (C) 2017 TypeFox and others.
 *
 * Licensed under the Apache License, Version 2.0 (the &quot;License&quot;); you may not use this file except in compliance with the License.
 * You may obtain a copy of the License at http://www.apache.org/licenses/LICENSE-2.0
 */

.sprotty {
    padding: 0px;
    font-family: &quot;Helvetica Neue&quot;, Helvetica, Arial, sans-serif;
}

.sprotty-hidden {
    display: block;
    position: absolute;
    width: 0px;
    height: 0px;
}

.sprotty-popup {
    font-family: &quot;Helvetica Neue&quot;, Helvetica, Arial, sans-serif;
    position: absolute;
    background: white;
    border-radius: 5px;
    border: 1px solid;
    max-width: 400px;
    min-width: 100px;
}

.sprotty-popup &gt; div {
    margin: 10px;
}

.sprotty-popup-closed {
    display: none;
}
</style><g transform="scale(1) translate(0,0)"><g id="sprotty_3" transform="translate(117, 71)" opacity="1"><rect class="elknode" x="0" y="0" width="1108" height="1347.5" /><g id="sprotty_5" transform="translate(117, 71)" opacity="1"><rect class="elknode" x="0" y="0" width="400" height="1190" /><g id="sprotty_7" transform="translate(100, 50)" opacity="1"><rect class="elknode" x="0" y="0" width="200" height="60" /><text id="sprotty_8" class="elklabel" transform="translate(5, 22) translate(0, 0)" opacity="1">k8s_apps_v1_stateful_set.this</text></g><g id="sprotty_9" transform="translate(100, 160)" opacity="1"><rect class="elknode" x="0" y="0" width="200" height="60" /><text id="sprotty_10" class="elklabel" transform="translate(5, 22) translate(0, 0)" opacity="1">k8s_core_v1_service.this</text></g><g id="sprotty_11" transform="translate(100, 270)" opacity="1"><rect class="elknode" x="0" y="0" width="200" height="60" /><text id="sprotty_12" class="elklabel" transform="translate(5, 22) translate(0, 0)" opacity="1">k8s_policy_v1beta1_pod_disruption_budget.this</text></g><g id="sprotty_69" transform="translate(100, 380)" opacity="1"><rect class="elknode" x="0" y="0" width="200" height="60" /><text id="sprotty_70" class="elklabel" transform="translate(5, 22) translate(0, 0)" opacity="1">local.labels</text></g><g id="sprotty_30" transform="translate(-16, 50)" opacity="1"><rect class="elkport" x="0" y="0" width="16" height="9" /><text id="sprotty_31" class="elklabel" transform="translate(-1, 10) translate(0, 0)" opacity="1">dns_policy</text></g><g id="sprotty_33" transform="translate(-16, 110)" opacity="1"><rect class="elkport" x="0" y="0" width="16" height="9" /><text id="sprotty_34" class="elklabel" transform="translate(-1, 10) translate(0, 0)" opacity="1">heap_size</text></g><g id="sprotty_36" transform="translate(-16, 170)" opacity="1"><rect class="elkport" x="0" y="0" width="16" height="9" /><text id="sprotty_37" class="elklabel" transform="translate(-1, 10) translate(0, 0)" opacity="1">image</text></g><g id="sprotty_39" transform="translate(-16, 230)" opacity="1"><rect class="elkport" x="0" y="0" width="16" height="9" /><text id="sprotty_40" class="elklabel" transform="translate(-1, 10) translate(0, 0)" opacity="1">node_selector</text></g><g id="sprotty_42" transform="translate(-16, 290)" opacity="1"><rect class="elkport" x="0" y="0" width="16" height="9" /><text id="sprotty_43" class="elklabel" transform="translate(-1, 10) translate(0, 0)" opacity="1">priority_class_name</text></g><g id="sprotty_45" transform="translate(-16, 350)" opacity="1"><rect class="elkport" x="0" y="0" width="16" height="9" /><text id="sprotty_46" class="elklabel" transform="translate(-1, 10) translate(0, 0)" opacity="1">replicas</text></g><g id="sprotty_48" transform="translate(-16, 410)" opacity="1"><rect class="elkport" x="0" y="0" width="16" height="9" /><text id="sprotty_49" class="elklabel" transform="translate(-1, 10) translate(0, 0)" opacity="1">restart_policy</text></g><g id="sprotty_51" transform="translate(-16, 470)" opacity="1"><rect class="elkport" x="0" y="0" width="16" height="9" /><text id="sprotty_52" class="elklabel" transform="translate(-1, 10) translate(0, 0)" opacity="1">scheduler_name</text></g><g id="sprotty_54" transform="translate(-16, 530)" opacity="1"><rect class="elkport" x="0" y="0" width="16" height="9" /><text id="sprotty_55" class="elklabel" transform="translate(-1, 10) translate(0, 0)" opacity="1">service_account_name</text></g><g id="sprotty_57" transform="translate(-16, 590)" opacity="1"><rect class="elkport" x="0" y="0" width="16" height="9" /><text id="sprotty_58" class="elklabel" transform="translate(-1, 10) translate(0, 0)" opacity="1">storage</text></g><g id="sprotty_60" transform="translate(-16, 650)" opacity="1"><rect class="elkport" x="0" y="0" width="16" height="9" /><text id="sprotty_61" class="elklabel" transform="translate(-1, 10) translate(0, 0)" opacity="1">storage_class_name</text></g><g id="sprotty_63" transform="translate(-16, 710)" opacity="1"><rect class="elkport" x="0" y="0" width="16" height="9" /><text id="sprotty_64" class="elklabel" transform="translate(-1, 10) translate(0, 0)" opacity="1">termination_grace_period_seconds</text></g><g id="sprotty_66" transform="translate(-16, 770)" opacity="1"><rect class="elkport" x="0" y="0" width="16" height="9" /><text id="sprotty_67" class="elklabel" transform="translate(-1, 10) translate(0, 0)" opacity="1">volume_claim_template_name</text></g><g id="sprotty_72" transform="translate(-16, 830)" opacity="1"><rect class="elkport" x="0" y="0" width="16" height="9" /><text id="sprotty_73" class="elklabel" transform="translate(-1, 10) translate(0, 0)" opacity="1">annotations</text></g><g id="sprotty_75" transform="translate(-16, 890)" opacity="1"><rect class="elkport" x="0" y="0" width="16" height="9" /><text id="sprotty_76" class="elklabel" transform="translate(-1, 10) translate(0, 0)" opacity="1">namespace</text></g><g id="sprotty_78" transform="translate(-16, 950)" opacity="1"><rect class="elkport" x="0" y="0" width="16" height="9" /><text id="sprotty_79" class="elklabel" transform="translate(-1, 10) translate(0, 0)" opacity="1">port</text></g><g id="sprotty_81" transform="translate(-16, 1010)" opacity="1"><rect class="elkport" x="0" y="0" width="16" height="9" /><text id="sprotty_82" class="elklabel" transform="translate(-1, 10) translate(0, 0)" opacity="1">service_type</text></g><g id="sprotty_84" transform="translate(-16, 1070)" opacity="1"><rect class="elkport" x="0" y="0" width="16" height="9" /><text id="sprotty_85" class="elklabel" transform="translate(-1, 10) translate(0, 0)" opacity="1">session_affinity</text></g><g id="sprotty_88" transform="translate(-16, 1130)" opacity="1"><rect class="elkport" x="0" y="0" width="16" height="9" /><text id="sprotty_89" class="elklabel" transform="translate(-1, 10) translate(0, 0)" opacity="1">name</text></g><g id="sprotty_91" transform="translate(400, 50)" opacity="1"><rect class="elkport" x="0" y="0" width="16" height="9" /><text id="sprotty_92" class="elklabel" transform="translate(17, 10) translate(0, 0)" opacity="1">cluster_ip</text></g><g id="sprotty_94" transform="translate(400, 110)" opacity="1"><rect class="elkport" x="0" y="0" width="16" height="9" /><text id="sprotty_95" class="elklabel" transform="translate(17, 10) translate(0, 0)" opacity="1">name</text></g><g id="sprotty_97" transform="translate(400, 170)" opacity="1"><rect class="elkport" x="0" y="0" width="16" height="9" /><text id="sprotty_98" class="elklabel" transform="translate(17, 10) translate(0, 0)" opacity="1">port</text></g><g id="sprotty_100" transform="translate(400, 230)" opacity="1"><rect class="elkport" x="0" y="0" width="16" height="9" /><text id="sprotty_101" class="elklabel" transform="translate(17, 10) translate(0, 0)" opacity="1">statefulset_uid</text></g><text id="sprotty_6" class="elklabel" transform="translate(0, -21) translate(0, 0)" opacity="1">elasticsearch</text></g><g id="sprotty_13" transform="translate(571, 462)" opacity="1"><rect class="elknode" x="0" y="0" width="400" height="600" /><g id="sprotty_15" transform="translate(100, 50)" opacity="1"><rect class="elknode" x="0" y="0" width="200" height="60" /><text id="sprotty_16" class="elklabel" transform="translate(5, 22) translate(0, 0)" opacity="1">k8s_core_v1_config_map.this</text></g><g id="sprotty_17" transform="translate(100, 160)" opacity="1"><rect class="elknode" x="0" y="0" width="200" height="60" /><text id="sprotty_18" class="elklabel" transform="translate(5, 22) translate(0, 0)" opacity="1">k8s_core_v1_service_account.this</text></g><g id="sprotty_19" transform="translate(100, 270)" opacity="1"><rect class="elknode" x="0" y="0" width="200" height="60" /><text id="sprotty_20" class="elklabel" transform="translate(5, 22) translate(0, 0)" opacity="1">k8s_extensions_v1beta1_daemon_set.this</text></g><g id="sprotty_21" transform="translate(100, 380)" opacity="1"><rect class="elknode" x="0" y="0" width="200" height="60" /><text id="sprotty_22" class="elklabel" transform="translate(5, 22) translate(0, 0)" opacity="1">k8s_rbac_authorization_k8s_io_v1_cluster_role.this</text></g><g id="sprotty_23" transform="translate(100, 490)" opacity="1"><rect class="elknode" x="0" y="0" width="200" height="60" /><text id="sprotty_24" class="elklabel" transform="translate(5, 22) translate(0, 0)" opacity="1">k8s_rbac_authorization_k8s_io_v1_cluster_role_binding.this</text></g><g id="sprotty_125" transform="translate(-16, 50)" opacity="1"><rect class="elkport" x="0" y="0" width="16" height="9" /><text id="sprotty_126" class="elklabel" transform="translate(-1, -1) translate(0, 0)" opacity="1">fluent_elasticsearch_host</text></g><g id="sprotty_128" transform="translate(-16, 110)" opacity="1"><rect class="elkport" x="0" y="0" width="16" height="9" /><text id="sprotty_129" class="elklabel" transform="translate(-1, 10) translate(0, 0)" opacity="1">fluent_elasticsearch_port</text></g><text id="sprotty_14" class="elklabel" transform="translate(0, -21) translate(0, 0)" opacity="1">fluentbit-es</text></g><g id="sprotty_25" transform="translate(571, 131)" opacity="1"><rect class="elknode" x="0" y="0" width="400" height="290" /><g id="sprotty_27" transform="translate(100, 50)" opacity="1"><rect class="elknode" x="0" y="0" width="200" height="60" /><text id="sprotty_28" class="elklabel" transform="translate(5, 22) translate(0, 0)" opacity="1">k8s_apps_v1_deployment.this</text></g><g id="sprotty_144" transform="translate(-16, 50)" opacity="1"><rect class="elkport" x="0" y="0" width="16" height="9" /><text id="sprotty_145" class="elklabel" transform="translate(-1, 10) translate(0, 0)" opacity="1">elasticsearch_url</text></g><g id="sprotty_155" transform="translate(-16, 110)" opacity="1"><rect class="elkport" x="0" y="0" width="16" height="9" /><text id="sprotty_156" class="elklabel" transform="translate(-1, 10) translate(0, 0)" opacity="1">server_host</text></g><g id="sprotty_158" transform="translate(-16, 170)" opacity="1"><rect class="elkport" x="0" y="0" width="16" height="9" /><text id="sprotty_159" class="elklabel" transform="translate(-1, 10) translate(0, 0)" opacity="1">server_name</text></g><g id="sprotty_163" transform="translate(-16, 230)" opacity="1"><rect class="elkport" x="0" y="0" width="16" height="9" /><text id="sprotty_164" class="elklabel" transform="translate(-1, 10) translate(0, 0)" opacity="1">xpack_monitoring_ui_container_elasticsearch_enabled</text></g><g id="sprotty_174" transform="translate(400, 50)" opacity="1"><rect class="elkport" x="0" y="0" width="16" height="9" /><text id="sprotty_175" class="elklabel" transform="translate(17, 10) translate(0, 0)" opacity="1">deployment_uid</text></g><text id="sprotty_26" class="elklabel" transform="translate(0, -21) translate(0, 0)" opacity="1">kibana</text></g><g id="sprotty_103" transform="translate(-16, 1201)" opacity="1"><rect class="elkport" x="0" y="0" width="16" height="9" /><text id="sprotty_104" class="elklabel" transform="translate(-1, 10) translate(0, 0)" opacity="1">name</text></g><g id="sprotty_106" transform="translate(-16, 961)" opacity="1"><rect class="elkport" x="0" y="0" width="16" height="9" /><text id="sprotty_107" class="elklabel" transform="translate(-1, 10) translate(0, 0)" opacity="1">namespace</text></g><g id="sprotty_109" transform="translate(-16, 421)" opacity="1"><rect class="elkport" x="0" y="0" width="16" height="9" /><text id="sprotty_110" class="elklabel" transform="translate(-1, 10) translate(0, 0)" opacity="1">es_replicas</text></g><g id="sprotty_112" transform="translate(-16, 661)" opacity="1"><rect class="elkport" x="0" y="0" width="16" height="9" /><text id="sprotty_113" class="elklabel" transform="translate(-1, 10) translate(0, 0)" opacity="1">storage</text></g><g id="sprotty_115" transform="translate(-16, 721)" opacity="1"><rect class="elkport" x="0" y="0" width="16" height="9" /><text id="sprotty_116" class="elklabel" transform="translate(-1, 10) translate(0, 0)" opacity="1">storage_class_name</text></g><g id="sprotty_183" transform="translate(1108, 1227.5)" opacity="1"><rect class="elkport" x="0" y="0" width="16" height="9" /><text id="sprotty_184" class="elklabel" transform="translate(17, 10) translate(0, 0)" opacity="1">elasticsearch_name</text></g><g id="sprotty_186" transform="translate(1108, 1107.5)" opacity="1"><rect class="elkport" x="0" y="0" width="16" height="9" /><text id="sprotty_187" class="elklabel" transform="translate(17, 10) translate(0, 0)" opacity="1">elasticsearch_port</text></g><g id="sprotty_189" transform="translate(1108, 1287.5)" opacity="1"><rect class="elkport" x="0" y="0" width="16" height="9" /><text id="sprotty_190" class="elklabel" transform="translate(17, 10) translate(0, 0)" opacity="1">kibana_name</text></g><g id="sprotty_192" transform="translate(1108, 1167.5)" opacity="1"><rect class="elkport" x="0" y="0" width="16" height="9" /><text id="sprotty_193" class="elklabel" transform="translate(17, 10) translate(0, 0)" opacity="1">kibana_port</text></g><text id="sprotty_4" class="elklabel" transform="translate(0, -21) translate(0, 0)" opacity="1">solutions/central-logging</text><g id="sprotty_29" class="sprotty-edge" opacity="1"><path class="elkedge" d="M 317,231 L 317,181" /><path class="edge arrow" d="M 0,0 L 8,-3 L 8,3 Z" transform="rotate(90 317 181) translate(317 181)" /></g><g id="sprotty_32" class="sprotty-edge" opacity="1"><path class="elkedge" d="M 117,126.48076923076923 L 217,138.7403846153846" /><path class="edge arrow" d="M 0,0 L 8,-3 L 8,3 Z" transform="rotate(-173.01063484366153 217 138.7403846153846) translate(217 138.7403846153846)" /></g><g id="sprotty_35" class="sprotty-edge" opacity="1"><path class="elkedge" d="M 117,184.1730769230769 L 217,167.58653846153845" /><path class="edge arrow" d="M 0,0 L 8,-3 L 8,3 Z" transform="rotate(170.58235285466571 217 167.58653846153845) translate(217 167.58653846153845)" /></g><g id="sprotty_38" class="sprotty-edge" opacity="1"><path class="elkedge" d="M 117,241.8653846153846 L 250.96825396825398,181" /><path class="edge arrow" d="M 0,0 L 8,-3 L 8,3 Z" transform="rotate(155.5664230096372 250.96825396825398 181) translate(250.96825396825398 181)" /></g><g id="sprotty_41" class="sprotty-edge" opacity="1"><path class="elkedge" d="M 115.05825242718447,301 L 276.6116504854369,181" /><path class="edge arrow" d="M 0,0 L 8,-3 L 8,3 Z" transform="rotate(143.39546107211746 276.6116504854369 181) translate(276.6116504854369 181)" /></g><g id="sprotty_44" class="sprotty-edge" opacity="1"><path class="elkedge" d="M 113.36363636363636,361 L 287.9090909090909,181" /><path class="edge arrow" d="M 0,0 L 8,-3 L 8,3 Z" transform="rotate(134.11859600341785 287.9090909090909 181) translate(287.9090909090909 181)" /></g><g id="sprotty_47" class="sprotty-edge" opacity="1"><path class="elkedge" d="M 112.40983606557377,421 L 294.26775956284155,181" /><path class="edge arrow" d="M 0,0 L 8,-3 L 8,3 Z" transform="rotate(127.15271423731083 294.26775956284155 181) translate(294.26775956284155 181)" /></g><g id="sprotty_50" class="sprotty-edge" opacity="1"><path class="elkedge" d="M 111.79820627802691,481 L 298.3452914798206,181" /><path class="edge arrow" d="M 0,0 L 8,-3 L 8,3 Z" transform="rotate(121.8743247375575 298.3452914798206 181) translate(298.3452914798206 181)" /></g><g id="sprotty_53" class="sprotty-edge" opacity="1"><path class="elkedge" d="M 111.37262357414448,541 L 301.1825095057034,181" /><path class="edge arrow" d="M 0,0 L 8,-3 L 8,3 Z" transform="rotate(117.80042566034118 301.1825095057034 181) translate(301.1825095057034 181)" /></g><g id="sprotty_56" class="sprotty-edge" opacity="1"><path class="elkedge" d="M 111.05940594059406,601 L 303.27062706270624,181" /><path class="edge arrow" d="M 0,0 L 8,-3 L 8,3 Z" transform="rotate(114.59100050152601 303.27062706270624 181) translate(303.27062706270624 181)" /></g><g id="sprotty_59" class="sprotty-edge" opacity="1"><path class="elkedge" d="M 110.8192419825073,661 L 304.87172011661806,181" /><path class="edge arrow" d="M 0,0 L 8,-3 L 8,3 Z" transform="rotate(112.01230148180703 304.87172011661806 181) translate(304.87172011661806 181)" /></g><g id="sprotty_62" class="sprotty-edge" opacity="1"><path class="elkedge" d="M 110.62924281984334,721 L 306.13838120104435,181" /><path class="edge arrow" d="M 0,0 L 8,-3 L 8,3 Z" transform="rotate(109.90298942454936 306.13838120104435 181) translate(306.13838120104435 181)" /></g><g id="sprotty_65" class="sprotty-edge" opacity="1"><path class="elkedge" d="M 110.47517730496455,781 L 307.16548463356975,181" /><path class="edge arrow" d="M 0,0 L 8,-3 L 8,3 Z" transform="rotate(108.15003254253322 307.16548463356975 181) translate(307.16548463356975 181)" /></g><g id="sprotty_68" class="sprotty-edge" opacity="1"><path class="elkedge" d="M 110.34773218142549,841 L 308.0151187904968,181" /><path class="edge arrow" d="M 0,0 L 8,-3 L 8,3 Z" transform="rotate(106.6727499528465 308.0151187904968 181) translate(308.0151187904968 181)" /></g><g id="sprotty_71" class="sprotty-edge" opacity="1"><path class="elkedge" d="M 317,451 L 317,291" /><path class="edge arrow" d="M 0,0 L 8,-3 L 8,3 Z" transform="rotate(90 317 291) translate(317 291)" /></g><g id="sprotty_74" class="sprotty-edge" opacity="1"><path class="elkedge" d="M 110.4522885958107,901 L 307.31807602792867,291" /><path class="edge arrow" d="M 0,0 L 8,-3 L 8,3 Z" transform="rotate(107.88648858285283 307.31807602792867 291) translate(307.31807602792867 291)" /></g><g id="sprotty_77" class="sprotty-edge" opacity="1"><path class="elkedge" d="M 110.32860184528035,961 L 308.14265436479775,291" /><path class="edge arrow" d="M 0,0 L 8,-3 L 8,3 Z" transform="rotate(106.44896435324776 308.14265436479775 291) translate(308.14265436479775 291)" /></g><g id="sprotty_80" class="sprotty-edge" opacity="1"><path class="elkedge" d="M 110.22432962720733,1021 L 308.8378024852845,291" /><path class="edge arrow" d="M 0,0 L 8,-3 L 8,3 Z" transform="rotate(105.22023446678352 308.8378024852845 291) translate(308.8378024852845 291)" /></g><g id="sprotty_83" class="sprotty-edge" opacity="1"><path class="elkedge" d="M 110.13523347483323,1081 L 309.43177683444515,291" /><path class="edge arrow" d="M 0,0 L 8,-3 L 8,3 Z" transform="rotate(104.15880983725536 309.43177683444515 291) translate(309.43177683444515 291)" /></g><g id="sprotty_86" class="sprotty-edge" opacity="1"><path class="elkedge" d="M 110.05822498586772,1141 L 309.9451667608819,291" /><path class="edge arrow" d="M 0,0 L 8,-3 L 8,3 Z" transform="rotate(103.23329859254049 309.9451667608819 291) translate(309.9451667608819 291)" /></g><g id="sprotty_87" class="sprotty-edge" opacity="1"><path class="elkedge" d="M 317,451 L 317,401" /><path class="edge arrow" d="M 0,0 L 8,-3 L 8,3 Z" transform="rotate(90 317 401) translate(317 401)" /></g><g id="sprotty_90" class="sprotty-edge" opacity="1"><path class="elkedge" d="M 110.2919254658385,1201 L 308.3871635610766,511" /><path class="edge arrow" d="M 0,0 L 8,-3 L 8,3 Z" transform="rotate(106.01848387159222 308.3871635610766 511) translate(308.3871635610766 511)" /></g><g id="sprotty_93" class="sprotty-edge" opacity="1"><path class="elkedge" d="M 363.0516605166052,231 L 518.0922509225093,130" /><path class="edge arrow" d="M 0,0 L 8,-3 L 8,3 Z" transform="rotate(146.9180771272349 518.0922509225093 130) translate(518.0922509225093 130)" /></g><g id="sprotty_96" class="sprotty-edge" opacity="1"><path class="elkedge" d="M 399.64900662251654,231 L 517,188.40384615384616" /><path class="edge arrow" d="M 0,0 L 8,-3 L 8,3 Z" transform="rotate(160.0500763582779 517 188.40384615384616) translate(517 188.40384615384616)" /></g><g id="sprotty_99" class="sprotty-edge" opacity="1"><path class="elkedge" d="M 417,253.54807692307693 L 517,246.09615384615384" /><path class="edge arrow" d="M 0,0 L 8,-3 L 8,3 Z" transform="rotate(175.73823961931822 517 246.09615384615384) translate(517 246.09615384615384)" /></g><g id="sprotty_102" class="sprotty-edge" opacity="1"><path class="elkedge" d="M 357.3883495145631,181 L 518.9417475728155,301" /><path class="edge arrow" d="M 0,0 L 8,-3 L 8,3 Z" transform="rotate(-143.39546107211746 518.9417475728155 301) translate(518.9417475728155 301)" /></g><g id="sprotty_105" class="sprotty-edge" opacity="1"><path class="elkedge" d="M 0,1205.5 L 101,1205.5" /><path class="edge arrow" d="M 0,0 L 8,-3 L 8,3 Z" transform="rotate(180 101 1205.5) translate(101 1205.5)" /></g><g id="sprotty_108" class="sprotty-edge" opacity="1"><path class="elkedge" d="M 0,965.5 L 101,965.5" /><path class="edge arrow" d="M 0,0 L 8,-3 L 8,3 Z" transform="rotate(180 101 965.5) translate(101 965.5)" /></g><g id="sprotty_111" class="sprotty-edge" opacity="1"><path class="elkedge" d="M 0,425.5 L 101,425.5" /><path class="edge arrow" d="M 0,0 L 8,-3 L 8,3 Z" transform="rotate(180 101 425.5) translate(101 425.5)" /></g><g id="sprotty_114" class="sprotty-edge" opacity="1"><path class="elkedge" d="M 0,665.5 L 101,665.5" /><path class="edge arrow" d="M 0,0 L 8,-3 L 8,3 Z" transform="rotate(180 101 665.5) translate(101 665.5)" /></g><g id="sprotty_117" class="sprotty-edge" opacity="1"><path class="elkedge" d="M 0,725.5 L 101,725.5" /><path class="edge arrow" d="M 0,0 L 8,-3 L 8,3 Z" transform="rotate(180 101 725.5) translate(101 725.5)" /></g><g id="sprotty_118" class="sprotty-edge" opacity="1"><path class="elkedge" d="M 417,494.43612334801765 L 671,528.5638766519824" /><path class="edge arrow" d="M 0,0 L 8,-3 L 8,3 Z" transform="rotate(-172.3474988240996 671 528.5638766519824) translate(671 528.5638766519824)" /></g><g id="sprotty_119" class="sprotty-edge" opacity="1"><path class="elkedge" d="M 116.03423848878394,961 L 724.1050767414404,572" /><path class="edge arrow" d="M 0,0 L 8,-3 L 8,3 Z" transform="rotate(147.39181030292232 724.1050767414404 572) translate(724.1050767414404 572)" /></g><g id="sprotty_120" class="sprotty-edge" opacity="1"><path class="elkedge" d="M 114.3821138211382,1201 L 735.1192411924119,682" /><path class="edge arrow" d="M 0,0 L 8,-3 L 8,3 Z" transform="rotate(140.1009126209205 735.1192411924119 682) translate(735.1192411924119 682)" /></g><g id="sprotty_121" class="sprotty-edge" opacity="1"><path class="elkedge" d="M 117,961.7114803625377 L 707.6507177033493,682" /><path class="edge arrow" d="M 0,0 L 8,-3 L 8,3 Z" transform="rotate(154.65940499697976 707.6507177033493 682) translate(707.6507177033493 682)" /></g><g id="sprotty_122" class="sprotty-edge" opacity="1"><path class="elkedge" d="M 771,572 L 771,732" /><path class="edge arrow" d="M 0,0 L 8,-3 L 8,3 Z" transform="rotate(-90 771 732) translate(771 732)" /></g><g id="sprotty_123" class="sprotty-edge" opacity="1"><path class="elkedge" d="M 771,952 L 771,792" /><path class="edge arrow" d="M 0,0 L 8,-3 L 8,3 Z" transform="rotate(90 771 792) translate(771 792)" /></g><g id="sprotty_124" class="sprotty-edge" opacity="1"><path class="elkedge" d="M 117,903.7658610271903 L 671,783.6767371601209" /><path class="edge arrow" d="M 0,0 L 8,-3 L 8,3 Z" transform="rotate(167.76936619376576 671 783.6767371601209) translate(671 783.6767371601209)" /></g><g id="sprotty_127" class="sprotty-edge" opacity="1"><path class="elkedge" d="M 566.8126272912424,521 L 745.5824847250509,732" /><path class="edge arrow" d="M 0,0 L 8,-3 L 8,3 Z" transform="rotate(-130.27295566323374 745.5824847250509 732) translate(745.5824847250509 732)" /></g><g id="sprotty_130" class="sprotty-edge" opacity="1"><path class="elkedge" d="M 568.0458221024259,581 L 737.3611859838275,732" /><path class="edge arrow" d="M 0,0 L 8,-3 L 8,3 Z" transform="rotate(-138.27256122803206 737.3611859838275 732) translate(737.3611859838275 732)" /></g><g id="sprotty_131" class="sprotty-edge" opacity="1"><path class="elkedge" d="M 114.7676669893514,250 L 732.5488867376573,732" /><path class="edge arrow" d="M 0,0 L 8,-3 L 8,3 Z" transform="rotate(-142.03823636585875 732.5488867376573 732) translate(732.5488867376573 732)" /></g><g id="sprotty_132" class="sprotty-edge" opacity="1"><path class="elkedge" d="M 117,1201.4697885196374 L 711.4497751124438,902" /><path class="edge arrow" d="M 0,0 L 8,-3 L 8,3 Z" transform="rotate(153.26211139993495 711.4497751124438 902) translate(711.4497751124438 902)" /></g><g id="sprotty_133" class="sprotty-edge" opacity="1"><path class="elkedge" d="M 771,682 L 771,952" /><path class="edge arrow" d="M 0,0 L 8,-3 L 8,3 Z" transform="rotate(-90 771 952) translate(771 952)" /></g><g id="sprotty_134" class="sprotty-edge" opacity="1"><path class="elkedge" d="M 771,902 L 771,952" /><path class="edge arrow" d="M 0,0 L 8,-3 L 8,3 Z" transform="rotate(-90 771 952) translate(771 952)" /></g><g id="sprotty_135" class="sprotty-edge" opacity="1"><path class="elkedge" d="M 110.2919254658385,1201 L 308.3871635610766,511" /><path class="edge arrow" d="M 0,0 L 8,-3 L 8,3 Z" transform="rotate(106.01848387159222 308.3871635610766 511) translate(308.3871635610766 511)" /></g><g id="sprotty_136" class="sprotty-edge" opacity="1"><path class="elkedge" d="M 758.1986123156981,732 L 526.9202081526453,190" /><path class="edge arrow" d="M 0,0 L 8,-3 L 8,3 Z" transform="rotate(66.89143106229177 526.9202081526453 190) translate(526.9202081526453 190)" /></g><g id="sprotty_137" class="sprotty-edge" opacity="1"><path class="elkedge" d="M 533,185.5 L 544,185.5 L 544,516.5 L 555,516.5" /><path class="edge arrow" d="M 0,0 L 8,-3 L 8,3 Z" transform="rotate(180 555 516.5) translate(555 516.5)" /><g id="sprotty_137_j0" transform="translate(544, 185.5)" opacity="1"><circle class="elkjunction" r="2" /></g><g id="sprotty_137_j1" transform="translate(544, 516.5)" opacity="1"><circle class="elkjunction" r="2" /></g></g><g id="sprotty_138" class="sprotty-edge" opacity="1"><path class="elkedge" d="M 533,245.5 L 544,245.5 L 544,576.5 L 555,576.5" /><path class="edge arrow" d="M 0,0 L 8,-3 L 8,3 Z" transform="rotate(180 555 576.5) translate(555 576.5)" /><g id="sprotty_138_j0" transform="translate(544, 245.5)" opacity="1"><circle class="elkjunction" r="2" /></g><g id="sprotty_138_j1" transform="translate(544, 576.5)" opacity="1"><circle class="elkjunction" r="2" /></g></g><g id="sprotty_139" class="sprotty-edge" opacity="1"><path class="elkedge" d="M 0,1205.5 L 101,1205.5" /><path class="edge arrow" d="M 0,0 L 8,-3 L 8,3 Z" transform="rotate(180 101 1205.5) translate(101 1205.5)" /></g><g id="sprotty_140" class="sprotty-edge" opacity="1"><path class="elkedge" d="M 0,965.5 L 101,965.5" /><path class="edge arrow" d="M 0,0 L 8,-3 L 8,3 Z" transform="rotate(180 101 965.5) translate(101 965.5)" /></g><g id="sprotty_141" class="sprotty-edge" opacity="1"><path class="elkedge" d="M 367.44444444444446,451 L 720.5555555555555,241" /><path class="edge arrow" d="M 0,0 L 8,-3 L 8,3 Z" transform="rotate(149.2594726482105 720.5555555555555 241) translate(720.5555555555555 241)" /></g><g id="sprotty_142" class="sprotty-edge" opacity="1"><path class="elkedge" d="M 113.28941684665227,901 L 742.4038876889849,241" /><path class="edge arrow" d="M 0,0 L 8,-3 L 8,3 Z" transform="rotate(133.62752918534105 742.4038876889849 241) translate(742.4038876889849 241)" /></g><g id="sprotty_143" class="sprotty-edge" opacity="1"><path class="elkedge" d="M 117,126.53323262839879 L 671,198.0845921450151" /><path class="edge arrow" d="M 0,0 L 8,-3 L 8,3 Z" transform="rotate(-172.64075525244962 671 198.0845921450151) translate(671 198.0845921450151)" /></g><g id="sprotty_146" class="sprotty-edge" opacity="1"><path class="elkedge" d="M 571,186.48076923076923 L 671,198.7403846153846" /><path class="edge arrow" d="M 0,0 L 8,-3 L 8,3 Z" transform="rotate(-173.01063484366153 671 198.7403846153846) translate(671 198.7403846153846)" /></g><g id="sprotty_147" class="sprotty-edge" opacity="1"><path class="elkedge" d="M 117,245.08308157099697 L 671,216.21148036253777" /><path class="edge arrow" d="M 0,0 L 8,-3 L 8,3 Z" transform="rotate(177.01674054607346 671 216.21148036253777) translate(671 216.21148036253777)" /></g><g id="sprotty_148" class="sprotty-edge" opacity="1"><path class="elkedge" d="M 112.94831013916502,961 L 744.6779324055666,241" /><path class="edge arrow" d="M 0,0 L 8,-3 L 8,3 Z" transform="rotate(131.2637872361428 744.6779324055666 241) translate(744.6779324055666 241)" /></g><g id="sprotty_149" class="sprotty-edge" opacity="1"><path class="elkedge" d="M 117,304.3580060422961 L 671,225.27492447129907" /><path class="edge arrow" d="M 0,0 L 8,-3 L 8,3 Z" transform="rotate(171.87595620345212 671 225.27492447129907) translate(671 225.27492447129907)" /></g><g id="sprotty_150" class="sprotty-edge" opacity="1"><path class="elkedge" d="M 112.65745856353591,1021 L 746.6169429097606,241" /><path class="edge arrow" d="M 0,0 L 8,-3 L 8,3 Z" transform="rotate(129.10312662014886 746.6169429097606 241) translate(746.6169429097606 241)" /></g><g id="sprotty_151" class="sprotty-edge" opacity="1"><path class="elkedge" d="M 117,363.63293051359517 L 671,234.33836858006043" /><path class="edge arrow" d="M 0,0 L 8,-3 L 8,3 Z" transform="rotate(166.86324170146037 671 234.33836858006043) translate(671 234.33836858006043)" /></g><g id="sprotty_152" class="sprotty-edge" opacity="1"><path class="elkedge" d="M 117,422.90785498489424 L 678.4125874125874,241" /><path class="edge arrow" d="M 0,0 L 8,-3 L 8,3 Z" transform="rotate(162.0467357709761 678.4125874125874 241) translate(678.4125874125874 241)" /></g><g id="sprotty_153" class="sprotty-edge" opacity="1"><path class="elkedge" d="M 117,482.1827794561934 L 698.6502732240438,241" /><path class="edge arrow" d="M 0,0 L 8,-3 L 8,3 Z" transform="rotate(157.47853376080295 698.6502732240438 241) translate(698.6502732240438 241)" /></g><g id="sprotty_154" class="sprotty-edge" opacity="1"><path class="elkedge" d="M 117,541.4577039274925 L 711.6278026905829,241" /><path class="edge arrow" d="M 0,0 L 8,-3 L 8,3 Z" transform="rotate(153.19312303151986 711.6278026905829 241) translate(711.6278026905829 241)" /></g><g id="sprotty_157" class="sprotty-edge" opacity="1"><path class="elkedge" d="M 571,244.1730769230769 L 671,227.58653846153845" /><path class="edge arrow" d="M 0,0 L 8,-3 L 8,3 Z" transform="rotate(170.58235285466571 671 227.58653846153845) translate(671 227.58653846153845)" /></g><g id="sprotty_160" class="sprotty-edge" opacity="1"><path class="elkedge" d="M 571,301.86538461538464 L 704.968253968254,241" /><path class="edge arrow" d="M 0,0 L 8,-3 L 8,3 Z" transform="rotate(155.5664230096372 704.968253968254 241) translate(704.968253968254 241)" /></g><g id="sprotty_161" class="sprotty-edge" opacity="1"><path class="elkedge" d="M 116.55133079847909,601 L 720.6577946768061,241" /><path class="edge arrow" d="M 0,0 L 8,-3 L 8,3 Z" transform="rotate(149.20837892942464 720.6577946768061 241) translate(720.6577946768061 241)" /></g><g id="sprotty_162" class="sprotty-edge" opacity="1"><path class="elkedge" d="M 114.18537859007833,781 L 736.4308093994778,241" /><path class="edge arrow" d="M 0,0 L 8,-3 L 8,3 Z" transform="rotate(139.04774562048155 736.4308093994778 241) translate(736.4308093994778 241)" /></g><g id="sprotty_165" class="sprotty-edge" opacity="1"><path class="elkedge" d="M 569.0582524271845,361 L 730.6116504854369,241" /><path class="edge arrow" d="M 0,0 L 8,-3 L 8,3 Z" transform="rotate(143.39546107211748 730.6116504854369 241) translate(730.6116504854369 241)" /></g><g id="sprotty_166" class="sprotty-edge" opacity="1"><path class="elkedge" d="M 317,451 L 317,291" /><path class="edge arrow" d="M 0,0 L 8,-3 L 8,3 Z" transform="rotate(90 317 291) translate(317 291)" /></g><g id="sprotty_167" class="sprotty-edge" opacity="1"><path class="elkedge" d="M 110.4522885958107,901 L 307.31807602792867,291" /><path class="edge arrow" d="M 0,0 L 8,-3 L 8,3 Z" transform="rotate(107.88648858285283 307.31807602792867 291) translate(307.31807602792867 291)" /></g><g id="sprotty_168" class="sprotty-edge" opacity="1"><path class="elkedge" d="M 110.32860184528035,961 L 308.14265436479775,291" /><path class="edge arrow" d="M 0,0 L 8,-3 L 8,3 Z" transform="rotate(106.44896435324776 308.14265436479775 291) translate(308.14265436479775 291)" /></g><g id="sprotty_169" class="sprotty-edge" opacity="1"><path class="elkedge" d="M 110.22432962720733,1021 L 308.8378024852845,291" /><path class="edge arrow" d="M 0,0 L 8,-3 L 8,3 Z" transform="rotate(105.22023446678352 308.8378024852845 291) translate(308.8378024852845 291)" /></g><g id="sprotty_170" class="sprotty-edge" opacity="1"><path class="elkedge" d="M 110.13523347483323,1081 L 309.43177683444515,291" /><path class="edge arrow" d="M 0,0 L 8,-3 L 8,3 Z" transform="rotate(104.15880983725536 309.43177683444515 291) translate(309.43177683444515 291)" /></g><g id="sprotty_171" class="sprotty-edge" opacity="1"><path class="elkedge" d="M 110.05822498586772,1141 L 309.9451667608819,291" /><path class="edge arrow" d="M 0,0 L 8,-3 L 8,3 Z" transform="rotate(103.23329859254049 309.9451667608819 291) translate(309.9451667608819 291)" /></g><g id="sprotty_172" class="sprotty-edge" opacity="1"><path class="elkedge" d="M 110.2919254658385,1201 L 308.3871635610766,511" /><path class="edge arrow" d="M 0,0 L 8,-3 L 8,3 Z" transform="rotate(106.01848387159222 308.3871635610766 511) translate(308.3871635610766 511)" /></g><g id="sprotty_173" class="sprotty-edge" opacity="1"><path class="elkedge" d="M 363.0516605166052,231 L 518.0922509225093,130" /><path class="edge arrow" d="M 0,0 L 8,-3 L 8,3 Z" transform="rotate(146.9180771272349 518.0922509225093 130) translate(518.0922509225093 130)" /></g><g id="sprotty_176" class="sprotty-edge" opacity="1"><path class="elkedge" d="M 871,198.7403846153846 L 971,186.48076923076923" /><path class="edge arrow" d="M 0,0 L 8,-3 L 8,3 Z" transform="rotate(173.01063484366153 971 186.48076923076923) translate(971 186.48076923076923)" /></g><g id="sprotty_177" class="sprotty-edge" opacity="1"><path class="elkedge" d="M 399.64900662251654,231 L 517,188.40384615384616" /><path class="edge arrow" d="M 0,0 L 8,-3 L 8,3 Z" transform="rotate(160.0500763582779 517 188.40384615384616) translate(517 188.40384615384616)" /></g><g id="sprotty_178" class="sprotty-edge" opacity="1"><path class="elkedge" d="M 417,253.54807692307693 L 517,246.09615384615384" /><path class="edge arrow" d="M 0,0 L 8,-3 L 8,3 Z" transform="rotate(175.73823961931822 517 246.09615384615384) translate(517 246.09615384615384)" /></g><g id="sprotty_179" class="sprotty-edge" opacity="1"><path class="elkedge" d="M 533,185.5 L 555,185.5" /><path class="edge arrow" d="M 0,0 L 8,-3 L 8,3 Z" transform="rotate(180 555 185.5) translate(555 185.5)" /></g><g id="sprotty_180" class="sprotty-edge" opacity="1"><path class="elkedge" d="M 533,245.5 L 544,245.5 L 544,185.5 L 555,185.5" /><path class="edge arrow" d="M 0,0 L 8,-3 L 8,3 Z" transform="rotate(180 555 185.5) translate(555 185.5)" /></g><g id="sprotty_181" class="sprotty-edge" opacity="1"><path class="elkedge" d="M 0,1205.5 L 101,1205.5" /><path class="edge arrow" d="M 0,0 L 8,-3 L 8,3 Z" transform="rotate(180 101 1205.5) translate(101 1205.5)" /></g><g id="sprotty_182" class="sprotty-edge" opacity="1"><path class="elkedge" d="M 0,965.5 L 101,965.5" /><path class="edge arrow" d="M 0,0 L 8,-3 L 8,3 Z" transform="rotate(180 101 965.5) translate(101 965.5)" /></g><g id="sprotty_185" class="sprotty-edge" opacity="1"><path class="elkedge" d="M 533,185.5 L 544,185.5 L 544,1112 L 998,1112 L 998,1232 L 1108,1232" /><path class="edge arrow" d="M 0,0 L 8,-3 L 8,3 Z" transform="rotate(180 1108 1232) translate(1108 1232)" /><g id="sprotty_185_j0" transform="translate(998, 1232)" opacity="1"><circle class="elkjunction" r="2" /></g></g><g id="sprotty_188" class="sprotty-edge" opacity="1"><path class="elkedge" d="M 533,245.5 L 544,245.5 L 544,1112 L 1108,1112" /><path class="edge arrow" d="M 0,0 L 8,-3 L 8,3 Z" transform="rotate(180 1108 1112) translate(1108 1112)" /></g><g id="sprotty_191" class="sprotty-edge" opacity="1"><path class="elkedge" d="M 533,185.5 L 544,185.5 L 544,1112 L 998,1112 L 998,1292 L 1108,1292" /><path class="edge arrow" d="M 0,0 L 8,-3 L 8,3 Z" transform="rotate(180 1108 1292) translate(1108 1292)" /></g><g id="sprotty_194" class="sprotty-edge" opacity="1"><path class="elkedge" d="M 533,245.5 L 544,245.5 L 544,1112 L 998,1112 L 998,1172 L 1108,1172" /><path class="edge arrow" d="M 0,0 L 8,-3 L 8,3 Z" transform="rotate(180 1108 1172) translate(1108 1172)" /><g id="sprotty_194_j0" transform="translate(998, 1112)" opacity="1"><circle class="elkjunction" r="2" /></g><g id="sprotty_194_j1" transform="translate(998, 1172)" opacity="1"><circle class="elkjunction" r="2" /></g></g></g></g></svg>
