<svg id="sprotty_1" class="sprotty-graph sprotty" tabindex="1002" xmlns="http://www.w3.org/2000/svg" viewBox="0 0 1752 2553"><style>
.elknode {
    stroke: #448;
    stroke-width: 2;
    fill: #ddf;
    fill-opacity: 0.5;
}

.elkport {
    stroke: #448;
    stroke-width: 1;
    fill: #66c;
}

.elkedge {
    fill: none;
    stroke: #88f;
    stroke-width: 8;
    stroke-opacity: 0.3;
    pointer-events: stroke;
    stroke-linejoin: round;
}

.elkedge:hover {
    stroke: #448;
    stroke-width: 8;
    stroke-opacity: 1;
    stroke-dasharray: 16px;
    stroke-dashoffset: 32px;
    animation: stroke 0.5s linear infinite;
}

@keyframes stroke {
    to {
        stroke-dashoffset: 0;
    }
}

.elkedge.arrow {
    fill: #336;
}

.elklabel {
    stroke-width: 0;
    stroke: #000;
    fill: #000;
    font-family: sans-serif;
    font-size: 10pt;
    dominant-baseline: hanging;
}

.elklabel:hover {
    font-size: 24pt;
}

.elkjunction {
    stroke: none;
    fill: #224;
}

.selected &gt; rect {
    stroke-width: 3;
}

.mouseover {
    stroke: #88f;
}
/*
 * Copyright (C) 2017 TypeFox and others.
 *
 * Licensed under the Apache License, Version 2.0 (the &quot;License&quot;); you may not use this file except in compliance with the License.
 * You may obtain a copy of the License at http://www.apache.org/licenses/LICENSE-2.0
 */

.sprotty {
    padding: 0px;
    font-family: &quot;Helvetica Neue&quot;, Helvetica, Arial, sans-serif;
}

.sprotty-hidden {
    display: block;
    position: absolute;
    width: 0px;
    height: 0px;
}

.sprotty-popup {
    font-family: &quot;Helvetica Neue&quot;, Helvetica, Arial, sans-serif;
    position: absolute;
    background: white;
    border-radius: 5px;
    border: 1px solid;
    max-width: 400px;
    min-width: 100px;
}

.sprotty-popup &gt; div {
    margin: 10px;
}

.sprotty-popup-closed {
    display: none;
}
</style><g transform="scale(1) translate(0,0)"><g id="sprotty_3" transform="translate(117, 71)" opacity="1"><rect class="elknode" x="0" y="0" rx="10" width="1518" height="2432" /><g id="sprotty_5" transform="translate(267, 246.5)" opacity="1"><rect class="elknode" x="0" y="0" rx="10" width="400" height="1190" /><g id="sprotty_7" transform="translate(100, 50)" opacity="1"><rect class="elknode" x="0" y="0" rx="10" width="200" height="60" /><text id="sprotty_8" class="elklabel" transform="translate(5, 22) translate(0, 0)" opacity="1">k8s_apps_v1_stateful_set.this</text></g><g id="sprotty_9" transform="translate(100, 160)" opacity="1"><rect class="elknode" x="0" y="0" rx="10" width="200" height="60" /><text id="sprotty_10" class="elklabel" transform="translate(5, 22) translate(0, 0)" opacity="1">k8s_core_v1_service.this</text></g><g id="sprotty_11" transform="translate(100, 270)" opacity="1"><rect class="elknode" x="0" y="0" rx="10" width="200" height="60" /><text id="sprotty_12" class="elklabel" transform="translate(5, 22) translate(0, 0)" opacity="1">k8s_policy_v1beta1_pod_disruption_budget.this</text></g><g id="sprotty_71" transform="translate(100, 380)" opacity="1"><rect class="elknode" x="0" y="0" rx="10" width="200" height="60" /><text id="sprotty_72" class="elklabel" transform="translate(5, 22) translate(0, 0)" opacity="1">local.labels</text></g><g id="sprotty_32" transform="translate(-16, 50)" opacity="1"><rect class="elkport" x="0" y="0" width="16" height="9" /><text id="sprotty_33" class="elklabel" transform="translate(-1, 10) translate(0, 0)" opacity="1">dns_policy</text></g><g id="sprotty_35" transform="translate(-16, 110)" opacity="1"><rect class="elkport" x="0" y="0" width="16" height="9" /><text id="sprotty_36" class="elklabel" transform="translate(-1, 10) translate(0, 0)" opacity="1">heap_size</text></g><g id="sprotty_38" transform="translate(-16, 170)" opacity="1"><rect class="elkport" x="0" y="0" width="16" height="9" /><text id="sprotty_39" class="elklabel" transform="translate(-1, 10) translate(0, 0)" opacity="1">image</text></g><g id="sprotty_41" transform="translate(-16, 230)" opacity="1"><rect class="elkport" x="0" y="0" width="16" height="9" /><text id="sprotty_42" class="elklabel" transform="translate(-1, 10) translate(0, 0)" opacity="1">node_selector</text></g><g id="sprotty_44" transform="translate(-16, 290)" opacity="1"><rect class="elkport" x="0" y="0" width="16" height="9" /><text id="sprotty_45" class="elklabel" transform="translate(-1, 10) translate(0, 0)" opacity="1">priority_class_name</text></g><g id="sprotty_47" transform="translate(-16, 350)" opacity="1"><rect class="elkport" x="0" y="0" width="16" height="9" /><text id="sprotty_48" class="elklabel" transform="translate(-1, 10) translate(0, 0)" opacity="1">replicas</text></g><g id="sprotty_50" transform="translate(-16, 410)" opacity="1"><rect class="elkport" x="0" y="0" width="16" height="9" /><text id="sprotty_51" class="elklabel" transform="translate(-1, 10) translate(0, 0)" opacity="1">restart_policy</text></g><g id="sprotty_53" transform="translate(-16, 470)" opacity="1"><rect class="elkport" x="0" y="0" width="16" height="9" /><text id="sprotty_54" class="elklabel" transform="translate(-1, 10) translate(0, 0)" opacity="1">scheduler_name</text></g><g id="sprotty_56" transform="translate(-16, 530)" opacity="1"><rect class="elkport" x="0" y="0" width="16" height="9" /><text id="sprotty_57" class="elklabel" transform="translate(-1, 10) translate(0, 0)" opacity="1">service_account_name</text></g><g id="sprotty_59" transform="translate(-16, 590)" opacity="1"><rect class="elkport" x="0" y="0" width="16" height="9" /><text id="sprotty_60" class="elklabel" transform="translate(-1, 10) translate(0, 0)" opacity="1">storage</text></g><g id="sprotty_62" transform="translate(-16, 650)" opacity="1"><rect class="elkport" x="0" y="0" width="16" height="9" /><text id="sprotty_63" class="elklabel" transform="translate(-1, 10) translate(0, 0)" opacity="1">storage_class_name</text></g><g id="sprotty_65" transform="translate(-16, 710)" opacity="1"><rect class="elkport" x="0" y="0" width="16" height="9" /><text id="sprotty_66" class="elklabel" transform="translate(-1, 10) translate(0, 0)" opacity="1">termination_grace_period_seconds</text></g><g id="sprotty_68" transform="translate(-16, 770)" opacity="1"><rect class="elkport" x="0" y="0" width="16" height="9" /><text id="sprotty_69" class="elklabel" transform="translate(-1, 10) translate(0, 0)" opacity="1">volume_claim_template_name</text></g><g id="sprotty_74" transform="translate(-16, 830)" opacity="1"><rect class="elkport" x="0" y="0" width="16" height="9" /><text id="sprotty_75" class="elklabel" transform="translate(-1, 10) translate(0, 0)" opacity="1">annotations</text></g><g id="sprotty_77" transform="translate(-16, 890)" opacity="1"><rect class="elkport" x="0" y="0" width="16" height="9" /><text id="sprotty_78" class="elklabel" transform="translate(-1, 10) translate(0, 0)" opacity="1">namespace</text></g><g id="sprotty_80" transform="translate(-16, 950)" opacity="1"><rect class="elkport" x="0" y="0" width="16" height="9" /><text id="sprotty_81" class="elklabel" transform="translate(-1, 10) translate(0, 0)" opacity="1">port</text></g><g id="sprotty_83" transform="translate(-16, 1010)" opacity="1"><rect class="elkport" x="0" y="0" width="16" height="9" /><text id="sprotty_84" class="elklabel" transform="translate(-1, 10) translate(0, 0)" opacity="1">service_type</text></g><g id="sprotty_86" transform="translate(-16, 1070)" opacity="1"><rect class="elkport" x="0" y="0" width="16" height="9" /><text id="sprotty_87" class="elklabel" transform="translate(-1, 10) translate(0, 0)" opacity="1">session_affinity</text></g><g id="sprotty_90" transform="translate(-16, 1130)" opacity="1"><rect class="elkport" x="0" y="0" width="16" height="9" /><text id="sprotty_91" class="elklabel" transform="translate(-1, 10) translate(0, 0)" opacity="1">name</text></g><g id="sprotty_93" transform="translate(400, 50)" opacity="1"><rect class="elkport" x="0" y="0" width="16" height="9" /><text id="sprotty_94" class="elklabel" transform="translate(17, 10) translate(0, 0)" opacity="1">cluster_ip</text></g><g id="sprotty_96" transform="translate(400, 110)" opacity="1"><rect class="elkport" x="0" y="0" width="16" height="9" /><text id="sprotty_97" class="elklabel" transform="translate(17, 10) translate(0, 0)" opacity="1">name</text></g><g id="sprotty_99" transform="translate(400, 170)" opacity="1"><rect class="elkport" x="0" y="0" width="16" height="9" /><text id="sprotty_100" class="elklabel" transform="translate(17, 10) translate(0, 0)" opacity="1">port</text></g><g id="sprotty_102" transform="translate(400, 230)" opacity="1"><rect class="elkport" x="0" y="0" width="16" height="9" /><text id="sprotty_103" class="elklabel" transform="translate(17, 10) translate(0, 0)" opacity="1">statefulset_uid</text></g><text id="sprotty_6" class="elklabel" transform="translate(0, -21) translate(0, 0)" opacity="1">elasticsearch</text></g><g id="sprotty_13" transform="translate(901, 126.5)" opacity="1"><rect class="elknode" x="0" y="0" rx="10" width="400" height="710" /><g id="sprotty_15" transform="translate(100, 50)" opacity="1"><rect class="elknode" x="0" y="0" rx="10" width="200" height="60" /><text id="sprotty_16" class="elklabel" transform="translate(5, 22) translate(0, 0)" opacity="1">k8s_core_v1_config_map.this</text></g><g id="sprotty_17" transform="translate(100, 160)" opacity="1"><rect class="elknode" x="0" y="0" rx="10" width="200" height="60" /><text id="sprotty_18" class="elklabel" transform="translate(5, 22) translate(0, 0)" opacity="1">k8s_core_v1_service_account.this</text></g><g id="sprotty_19" transform="translate(100, 270)" opacity="1"><rect class="elknode" x="0" y="0" rx="10" width="200" height="60" /><text id="sprotty_20" class="elklabel" transform="translate(5, 22) translate(0, 0)" opacity="1">k8s_extensions_v1beta1_daemon_set.this</text></g><g id="sprotty_21" transform="translate(100, 380)" opacity="1"><rect class="elknode" x="0" y="0" rx="10" width="200" height="60" /><text id="sprotty_22" class="elklabel" transform="translate(5, 22) translate(0, 0)" opacity="1">k8s_rbac_authorization_k8s_io_v1_cluster_role.this</text></g><g id="sprotty_23" transform="translate(100, 490)" opacity="1"><rect class="elknode" x="0" y="0" rx="10" width="200" height="60" /><text id="sprotty_24" class="elklabel" transform="translate(5, 22) translate(0, 0)" opacity="1">k8s_rbac_authorization_k8s_io_v1_cluster_role_binding.this</text></g><g id="sprotty_120" transform="translate(100, 600)" opacity="1"><rect class="elknode" x="0" y="0" rx="10" width="200" height="60" /><text id="sprotty_121" class="elklabel" transform="translate(5, 22) translate(0, 0)" opacity="1">local.labels</text></g><g id="sprotty_123" transform="translate(-16, 50)" opacity="1"><rect class="elkport" x="0" y="0" width="16" height="9" /><text id="sprotty_124" class="elklabel" transform="translate(-1, 10) translate(0, 0)" opacity="1">namespace</text></g><g id="sprotty_126" transform="translate(-16, 110)" opacity="1"><rect class="elkport" x="0" y="0" width="16" height="9" /><text id="sprotty_127" class="elklabel" transform="translate(-1, 10) translate(0, 0)" opacity="1">name</text></g><g id="sprotty_132" transform="translate(-16, 170)" opacity="1"><rect class="elkport" x="0" y="0" width="16" height="9" /><text id="sprotty_133" class="elklabel" transform="translate(-1, 10) translate(0, 0)" opacity="1">annotations</text></g><g id="sprotty_135" transform="translate(-16, 230)" opacity="1"><rect class="elkport" x="0" y="0" width="16" height="9" /><text id="sprotty_136" class="elklabel" transform="translate(-1, 10) translate(0, 0)" opacity="1">fluent_elasticsearch_host</text></g><g id="sprotty_138" transform="translate(-16, 290)" opacity="1"><rect class="elkport" x="0" y="0" width="16" height="9" /><text id="sprotty_139" class="elklabel" transform="translate(-1, 10) translate(0, 0)" opacity="1">fluent_elasticsearch_port</text></g><g id="sprotty_141" transform="translate(-16, 350)" opacity="1"><rect class="elkport" x="0" y="0" width="16" height="9" /><text id="sprotty_142" class="elklabel" transform="translate(-1, 10) translate(0, 0)" opacity="1">image</text></g><g id="sprotty_148" transform="translate(400, 50)" opacity="1"><rect class="elkport" x="0" y="0" width="16" height="9" /><text id="sprotty_149" class="elklabel" transform="translate(17, 10) translate(0, 0)" opacity="1">name</text></g><text id="sprotty_14" class="elklabel" transform="translate(0, -21) translate(0, 0)" opacity="1">fluentbit-es</text></g><g id="sprotty_25" transform="translate(901, 1192)" opacity="1"><rect class="elknode" x="0" y="0" rx="10" width="400" height="1190" /><g id="sprotty_27" transform="translate(100, 50)" opacity="1"><rect class="elknode" x="0" y="0" rx="10" width="200" height="60" /><text id="sprotty_28" class="elklabel" transform="translate(5, 22) translate(0, 0)" opacity="1">k8s_apps_v1_deployment.this</text></g><g id="sprotty_29" transform="translate(100, 160)" opacity="1"><rect class="elknode" x="0" y="0" rx="10" width="200" height="60" /><text id="sprotty_30" class="elklabel" transform="translate(5, 22) translate(0, 0)" opacity="1">k8s_core_v1_service.this</text></g><g id="sprotty_155" transform="translate(100, 270)" opacity="1"><rect class="elknode" x="0" y="0" rx="10" width="200" height="60" /><text id="sprotty_156" class="elklabel" transform="translate(5, 22) translate(0, 0)" opacity="1">local.labels</text></g><g id="sprotty_158" transform="translate(-16, 50)" opacity="1"><rect class="elkport" x="0" y="0" width="16" height="9" /><text id="sprotty_159" class="elklabel" transform="translate(-1, 10) translate(0, 0)" opacity="1">annotations</text></g><g id="sprotty_161" transform="translate(-16, 110)" opacity="1"><rect class="elkport" x="0" y="0" width="16" height="9" /><text id="sprotty_162" class="elklabel" transform="translate(-1, 10) translate(0, 0)" opacity="1">dns_policy</text></g><g id="sprotty_164" transform="translate(-16, 170)" opacity="1"><rect class="elkport" x="0" y="0" width="16" height="9" /><text id="sprotty_165" class="elklabel" transform="translate(-1, 10) translate(0, 0)" opacity="1">elasticsearch_url</text></g><g id="sprotty_167" transform="translate(-16, 230)" opacity="1"><rect class="elkport" x="0" y="0" width="16" height="9" /><text id="sprotty_168" class="elklabel" transform="translate(-1, 10) translate(0, 0)" opacity="1">image</text></g><g id="sprotty_170" transform="translate(-16, 290)" opacity="1"><rect class="elkport" x="0" y="0" width="16" height="9" /><text id="sprotty_171" class="elklabel" transform="translate(-1, 10) translate(0, 0)" opacity="1">namespace</text></g><g id="sprotty_173" transform="translate(-16, 350)" opacity="1"><rect class="elkport" x="0" y="0" width="16" height="9" /><text id="sprotty_174" class="elklabel" transform="translate(-1, 10) translate(0, 0)" opacity="1">node_selector</text></g><g id="sprotty_176" transform="translate(-16, 410)" opacity="1"><rect class="elkport" x="0" y="0" width="16" height="9" /><text id="sprotty_177" class="elklabel" transform="translate(-1, 10) translate(0, 0)" opacity="1">port</text></g><g id="sprotty_179" transform="translate(-16, 470)" opacity="1"><rect class="elkport" x="0" y="0" width="16" height="9" /><text id="sprotty_180" class="elklabel" transform="translate(-1, 10) translate(0, 0)" opacity="1">priority_class_name</text></g><g id="sprotty_182" transform="translate(-16, 530)" opacity="1"><rect class="elkport" x="0" y="0" width="16" height="9" /><text id="sprotty_183" class="elklabel" transform="translate(-1, 10) translate(0, 0)" opacity="1">replicas</text></g><g id="sprotty_185" transform="translate(-16, 590)" opacity="1"><rect class="elkport" x="0" y="0" width="16" height="9" /><text id="sprotty_186" class="elklabel" transform="translate(-1, 10) translate(0, 0)" opacity="1">restart_policy</text></g><g id="sprotty_188" transform="translate(-16, 650)" opacity="1"><rect class="elkport" x="0" y="0" width="16" height="9" /><text id="sprotty_189" class="elklabel" transform="translate(-1, 10) translate(0, 0)" opacity="1">scheduler_name</text></g><g id="sprotty_191" transform="translate(-16, 710)" opacity="1"><rect class="elkport" x="0" y="0" width="16" height="9" /><text id="sprotty_192" class="elklabel" transform="translate(-1, 10) translate(0, 0)" opacity="1">server_host</text></g><g id="sprotty_194" transform="translate(-16, 770)" opacity="1"><rect class="elkport" x="0" y="0" width="16" height="9" /><text id="sprotty_195" class="elklabel" transform="translate(-1, 10) translate(0, 0)" opacity="1">server_name</text></g><g id="sprotty_197" transform="translate(-16, 830)" opacity="1"><rect class="elkport" x="0" y="0" width="16" height="9" /><text id="sprotty_198" class="elklabel" transform="translate(-1, 10) translate(0, 0)" opacity="1">service_account_name</text></g><g id="sprotty_200" transform="translate(-16, 890)" opacity="1"><rect class="elkport" x="0" y="0" width="16" height="9" /><text id="sprotty_201" class="elklabel" transform="translate(-1, 10) translate(0, 0)" opacity="1">termination_grace_period_seconds</text></g><g id="sprotty_203" transform="translate(-16, 950)" opacity="1"><rect class="elkport" x="0" y="0" width="16" height="9" /><text id="sprotty_204" class="elklabel" transform="translate(-1, 10) translate(0, 0)" opacity="1">xpack_monitoring_ui_container_elasticsearch_enabled</text></g><g id="sprotty_210" transform="translate(-16, 1010)" opacity="1"><rect class="elkport" x="0" y="0" width="16" height="9" /><text id="sprotty_211" class="elklabel" transform="translate(-1, 10) translate(0, 0)" opacity="1">service_type</text></g><g id="sprotty_213" transform="translate(-16, 1070)" opacity="1"><rect class="elkport" x="0" y="0" width="16" height="9" /><text id="sprotty_214" class="elklabel" transform="translate(-1, 10) translate(0, 0)" opacity="1">session_affinity</text></g><g id="sprotty_216" transform="translate(-16, 1130)" opacity="1"><rect class="elkport" x="0" y="0" width="16" height="9" /><text id="sprotty_217" class="elklabel" transform="translate(-1, 10) translate(0, 0)" opacity="1">name</text></g><g id="sprotty_219" transform="translate(400, 50)" opacity="1"><rect class="elkport" x="0" y="0" width="16" height="9" /><text id="sprotty_220" class="elklabel" transform="translate(17, 10) translate(0, 0)" opacity="1">cluster_ip</text></g><g id="sprotty_222" transform="translate(400, 110)" opacity="1"><rect class="elkport" x="0" y="0" width="16" height="9" /><text id="sprotty_223" class="elklabel" transform="translate(17, 10) translate(0, 0)" opacity="1">deployment_uid</text></g><g id="sprotty_225" transform="translate(400, 170)" opacity="1"><rect class="elkport" x="0" y="0" width="16" height="9" /><text id="sprotty_226" class="elklabel" transform="translate(17, 10) translate(0, 0)" opacity="1">name</text></g><g id="sprotty_228" transform="translate(400, 230)" opacity="1"><rect class="elkport" x="0" y="0" width="16" height="9" /><text id="sprotty_229" class="elklabel" transform="translate(17, 10) translate(0, 0)" opacity="1">port</text></g><text id="sprotty_26" class="elklabel" transform="translate(0, -21) translate(0, 0)" opacity="1">kibana</text></g><g id="sprotty_105" transform="translate(-16, 1542)" opacity="1"><rect class="elkport" x="0" y="0" width="16" height="9" /><text id="sprotty_106" class="elklabel" transform="translate(-1, 10) translate(0, 0)" opacity="1">name</text></g><g id="sprotty_108" transform="translate(-16, 1482)" opacity="1"><rect class="elkport" x="0" y="0" width="16" height="9" /><text id="sprotty_109" class="elklabel" transform="translate(-1, 10) translate(0, 0)" opacity="1">namespace</text></g><g id="sprotty_111" transform="translate(-16, 596.5)" opacity="1"><rect class="elkport" x="0" y="0" width="16" height="9" /><text id="sprotty_112" class="elklabel" transform="translate(-1, 10) translate(0, 0)" opacity="1">es_replicas</text></g><g id="sprotty_114" transform="translate(-16, 836.5)" opacity="1"><rect class="elkport" x="0" y="0" width="16" height="9" /><text id="sprotty_115" class="elklabel" transform="translate(-1, 10) translate(0, 0)" opacity="1">storage</text></g><g id="sprotty_117" transform="translate(-16, 896.5)" opacity="1"><rect class="elkport" x="0" y="0" width="16" height="9" /><text id="sprotty_118" class="elklabel" transform="translate(-1, 10) translate(0, 0)" opacity="1">storage_class_name</text></g><g id="sprotty_235" transform="translate(1518, 50)" opacity="1"><rect class="elkport" x="0" y="0" width="16" height="9" /><text id="sprotty_236" class="elklabel" transform="translate(17, 10) translate(0, 0)" opacity="1">elasticsearch_name</text></g><g id="sprotty_238" transform="translate(1518, 110)" opacity="1"><rect class="elkport" x="0" y="0" width="16" height="9" /><text id="sprotty_239" class="elklabel" transform="translate(17, 10) translate(0, 0)" opacity="1">elasticsearch_port</text></g><g id="sprotty_241" transform="translate(1518, 1362)" opacity="1"><rect class="elkport" x="0" y="0" width="16" height="9" /><text id="sprotty_242" class="elklabel" transform="translate(17, 10) translate(0, 0)" opacity="1">kibana_name</text></g><g id="sprotty_244" transform="translate(1518, 1422)" opacity="1"><rect class="elkport" x="0" y="0" width="16" height="9" /><text id="sprotty_245" class="elklabel" transform="translate(17, 10) translate(0, 0)" opacity="1">kibana_port</text></g><text id="sprotty_4" class="elklabel" transform="translate(0, -21) translate(0, 0)" opacity="1">solutions/central-logging</text><g id="sprotty_31" class="sprotty-edge" opacity="1"><path class="elkedge" d="M 467,406.5 L 467,356.5" /><path class="edge arrow" d="M 0,0 L 8,-3 L 8,3 Z" transform="rotate(90 467 356.5) translate(467 356.5)" /></g><g id="sprotty_34" class="sprotty-edge" opacity="1"><path class="elkedge" d="M 267,301.9807692307692 L 367,314.24038461538464" /><path class="edge arrow" d="M 0,0 L 8,-3 L 8,3 Z" transform="rotate(-173.0106348436615 367 314.24038461538464) translate(367 314.24038461538464)" /></g><g id="sprotty_37" class="sprotty-edge" opacity="1"><path class="elkedge" d="M 267,359.6730769230769 L 367,343.08653846153845" /><path class="edge arrow" d="M 0,0 L 8,-3 L 8,3 Z" transform="rotate(170.58235285466571 367 343.08653846153845) translate(367 343.08653846153845)" /></g><g id="sprotty_40" class="sprotty-edge" opacity="1"><path class="elkedge" d="M 267,417.36538461538464 L 400.968253968254,356.5" /><path class="edge arrow" d="M 0,0 L 8,-3 L 8,3 Z" transform="rotate(155.5664230096372 400.968253968254 356.5) translate(400.968253968254 356.5)" /></g><g id="sprotty_43" class="sprotty-edge" opacity="1"><path class="elkedge" d="M 265.05825242718447,476.5 L 426.6116504854369,356.5" /><path class="edge arrow" d="M 0,0 L 8,-3 L 8,3 Z" transform="rotate(143.39546107211746 426.6116504854369 356.5) translate(426.6116504854369 356.5)" /></g><g id="sprotty_46" class="sprotty-edge" opacity="1"><path class="elkedge" d="M 263.3636363636364,536.5 L 437.9090909090909,356.5" /><path class="edge arrow" d="M 0,0 L 8,-3 L 8,3 Z" transform="rotate(134.11859600341785 437.9090909090909 356.5) translate(437.9090909090909 356.5)" /></g><g id="sprotty_49" class="sprotty-edge" opacity="1"><path class="elkedge" d="M 262.40983606557376,596.5 L 444.26775956284155,356.5" /><path class="edge arrow" d="M 0,0 L 8,-3 L 8,3 Z" transform="rotate(127.15271423731083 444.26775956284155 356.5) translate(444.26775956284155 356.5)" /></g><g id="sprotty_52" class="sprotty-edge" opacity="1"><path class="elkedge" d="M 261.7982062780269,656.5 L 448.3452914798206,356.5" /><path class="edge arrow" d="M 0,0 L 8,-3 L 8,3 Z" transform="rotate(121.8743247375575 448.3452914798206 356.5) translate(448.3452914798206 356.5)" /></g><g id="sprotty_55" class="sprotty-edge" opacity="1"><path class="elkedge" d="M 261.3726235741445,716.5 L 451.1825095057034,356.5" /><path class="edge arrow" d="M 0,0 L 8,-3 L 8,3 Z" transform="rotate(117.80042566034118 451.1825095057034 356.5) translate(451.1825095057034 356.5)" /></g><g id="sprotty_58" class="sprotty-edge" opacity="1"><path class="elkedge" d="M 261.05940594059405,776.5 L 453.27062706270624,356.5" /><path class="edge arrow" d="M 0,0 L 8,-3 L 8,3 Z" transform="rotate(114.59100050152601 453.27062706270624 356.5) translate(453.27062706270624 356.5)" /></g><g id="sprotty_61" class="sprotty-edge" opacity="1"><path class="elkedge" d="M 260.81924198250726,836.5 L 454.87172011661806,356.5" /><path class="edge arrow" d="M 0,0 L 8,-3 L 8,3 Z" transform="rotate(112.01230148180703 454.87172011661806 356.5) translate(454.87172011661806 356.5)" /></g><g id="sprotty_64" class="sprotty-edge" opacity="1"><path class="elkedge" d="M 260.62924281984334,896.5 L 456.13838120104435,356.5" /><path class="edge arrow" d="M 0,0 L 8,-3 L 8,3 Z" transform="rotate(109.90298942454936 456.13838120104435 356.5) translate(456.13838120104435 356.5)" /></g><g id="sprotty_67" class="sprotty-edge" opacity="1"><path class="elkedge" d="M 260.4751773049645,956.5 L 457.16548463356975,356.5" /><path class="edge arrow" d="M 0,0 L 8,-3 L 8,3 Z" transform="rotate(108.15003254253322 457.16548463356975 356.5) translate(457.16548463356975 356.5)" /></g><g id="sprotty_70" class="sprotty-edge" opacity="1"><path class="elkedge" d="M 260.3477321814255,1016.5 L 458.0151187904968,356.5" /><path class="edge arrow" d="M 0,0 L 8,-3 L 8,3 Z" transform="rotate(106.6727499528465 458.0151187904968 356.5) translate(458.0151187904968 356.5)" /></g><g id="sprotty_73" class="sprotty-edge" opacity="1"><path class="elkedge" d="M 467,626.5 L 467,466.5" /><path class="edge arrow" d="M 0,0 L 8,-3 L 8,3 Z" transform="rotate(90 467 466.5) translate(467 466.5)" /></g><g id="sprotty_76" class="sprotty-edge" opacity="1"><path class="elkedge" d="M 260.4522885958107,1076.5 L 457.31807602792867,466.5" /><path class="edge arrow" d="M 0,0 L 8,-3 L 8,3 Z" transform="rotate(107.88648858285283 457.31807602792867 466.5) translate(457.31807602792867 466.5)" /></g><g id="sprotty_79" class="sprotty-edge" opacity="1"><path class="elkedge" d="M 260.32860184528033,1136.5 L 458.14265436479775,466.5" /><path class="edge arrow" d="M 0,0 L 8,-3 L 8,3 Z" transform="rotate(106.44896435324776 458.14265436479775 466.5) translate(458.14265436479775 466.5)" /></g><g id="sprotty_82" class="sprotty-edge" opacity="1"><path class="elkedge" d="M 260.22432962720734,1196.5 L 458.8378024852845,466.5" /><path class="edge arrow" d="M 0,0 L 8,-3 L 8,3 Z" transform="rotate(105.22023446678352 458.8378024852845 466.5) translate(458.8378024852845 466.5)" /></g><g id="sprotty_85" class="sprotty-edge" opacity="1"><path class="elkedge" d="M 260.1352334748332,1256.5 L 459.43177683444515,466.5" /><path class="edge arrow" d="M 0,0 L 8,-3 L 8,3 Z" transform="rotate(104.15880983725536 459.43177683444515 466.5) translate(459.43177683444515 466.5)" /></g><g id="sprotty_88" class="sprotty-edge" opacity="1"><path class="elkedge" d="M 260.0582249858677,1316.5 L 459.9451667608819,466.5" /><path class="edge arrow" d="M 0,0 L 8,-3 L 8,3 Z" transform="rotate(103.2332985925405 459.9451667608819 466.5) translate(459.9451667608819 466.5)" /></g><g id="sprotty_89" class="sprotty-edge" opacity="1"><path class="elkedge" d="M 467,626.5 L 467,576.5" /><path class="edge arrow" d="M 0,0 L 8,-3 L 8,3 Z" transform="rotate(90 467 576.5) translate(467 576.5)" /></g><g id="sprotty_92" class="sprotty-edge" opacity="1"><path class="elkedge" d="M 260.2919254658385,1376.5 L 458.3871635610766,686.5" /><path class="edge arrow" d="M 0,0 L 8,-3 L 8,3 Z" transform="rotate(106.01848387159222 458.3871635610766 686.5) translate(458.3871635610766 686.5)" /></g><g id="sprotty_95" class="sprotty-edge" opacity="1"><path class="elkedge" d="M 513.0516605166051,406.5 L 668.0922509225093,305.5" /><path class="edge arrow" d="M 0,0 L 8,-3 L 8,3 Z" transform="rotate(146.91807712723494 668.0922509225093 305.5) translate(668.0922509225093 305.5)" /></g><g id="sprotty_98" class="sprotty-edge" opacity="1"><path class="elkedge" d="M 549.6490066225165,406.5 L 667,363.9038461538462" /><path class="edge arrow" d="M 0,0 L 8,-3 L 8,3 Z" transform="rotate(160.05007635827792 667 363.9038461538462) translate(667 363.9038461538462)" /></g><g id="sprotty_101" class="sprotty-edge" opacity="1"><path class="elkedge" d="M 567,429.0480769230769 L 667,421.5961538461538" /><path class="edge arrow" d="M 0,0 L 8,-3 L 8,3 Z" transform="rotate(175.73823961931822 667 421.5961538461538) translate(667 421.5961538461538)" /></g><g id="sprotty_104" class="sprotty-edge" opacity="1"><path class="elkedge" d="M 507.3883495145631,356.5 L 668.9417475728155,476.5" /><path class="edge arrow" d="M 0,0 L 8,-3 L 8,3 Z" transform="rotate(-143.39546107211746 668.9417475728155 476.5) translate(668.9417475728155 476.5)" /></g><g id="sprotty_107" class="sprotty-edge" opacity="1"><path class="elkedge" d="M 0,1546.5 L 200,1546.5 L 200,1381 L 251,1381" /><path class="edge arrow" d="M 0,0 L 8,-3 L 8,3 Z" transform="rotate(180 251 1381) translate(251 1381)" /><g id="sprotty_107_j0" transform="translate(200, 1546.5)" opacity="1"><circle class="elkjunction" r="2" /></g></g><g id="sprotty_110" class="sprotty-edge" opacity="1"><path class="elkedge" d="M 0,1486.5 L 150,1486.5 L 150,1141 L 251,1141" /><path class="edge arrow" d="M 0,0 L 8,-3 L 8,3 Z" transform="rotate(180 251 1141) translate(251 1141)" /><g id="sprotty_110_j0" transform="translate(150, 1486.5)" opacity="1"><circle class="elkjunction" r="2" /></g></g><g id="sprotty_113" class="sprotty-edge" opacity="1"><path class="elkedge" d="M 0,601 L 251,601" /><path class="edge arrow" d="M 0,0 L 8,-3 L 8,3 Z" transform="rotate(180 251 601) translate(251 601)" /></g><g id="sprotty_116" class="sprotty-edge" opacity="1"><path class="elkedge" d="M 0,841 L 251,841" /><path class="edge arrow" d="M 0,0 L 8,-3 L 8,3 Z" transform="rotate(180 251 841) translate(251 841)" /></g><g id="sprotty_119" class="sprotty-edge" opacity="1"><path class="elkedge" d="M 0,901 L 251,901" /><path class="edge arrow" d="M 0,0 L 8,-3 L 8,3 Z" transform="rotate(180 251 901) translate(251 901)" /></g><g id="sprotty_122" class="sprotty-edge" opacity="1"><path class="elkedge" d="M 1101,726.5 L 1101,236.5" /><path class="edge arrow" d="M 0,0 L 8,-3 L 8,3 Z" transform="rotate(90 1101 236.5) translate(1101 236.5)" /></g><g id="sprotty_125" class="sprotty-edge" opacity="1"><path class="elkedge" d="M 901,181.98076923076923 L 1001,194.2403846153846" /><path class="edge arrow" d="M 0,0 L 8,-3 L 8,3 Z" transform="rotate(-173.01063484366153 1001 194.2403846153846) translate(1001 194.2403846153846)" /></g><g id="sprotty_128" class="sprotty-edge" opacity="1"><path class="elkedge" d="M 901,243.90384615384616 L 1018.3509933774834,286.5" /><path class="edge arrow" d="M 0,0 L 8,-3 L 8,3 Z" transform="rotate(-160.0500763582779 1018.3509933774834 286.5) translate(1018.3509933774834 286.5)" /></g><g id="sprotty_129" class="sprotty-edge" opacity="1"><path class="elkedge" d="M 899.9077490774907,185.5 L 1054.9483394833949,286.5" /><path class="edge arrow" d="M 0,0 L 8,-3 L 8,3 Z" transform="rotate(-146.91807712723494 1054.9483394833949 286.5) translate(1054.9483394833949 286.5)" /></g><g id="sprotty_130" class="sprotty-edge" opacity="1"><path class="elkedge" d="M 1101,236.5 L 1101,396.5" /><path class="edge arrow" d="M 0,0 L 8,-3 L 8,3 Z" transform="rotate(-90 1101 396.5) translate(1101 396.5)" /></g><g id="sprotty_131" class="sprotty-edge" opacity="1"><path class="elkedge" d="M 1101,616.5 L 1101,456.5" /><path class="edge arrow" d="M 0,0 L 8,-3 L 8,3 Z" transform="rotate(90 1101 456.5) translate(1101 456.5)" /></g><g id="sprotty_134" class="sprotty-edge" opacity="1"><path class="elkedge" d="M 900.4581673306773,305.5 L 1051.2788844621514,396.5" /><path class="edge arrow" d="M 0,0 L 8,-3 L 8,3 Z" transform="rotate(-148.89467282183267 1051.2788844621514 396.5) translate(1051.2788844621514 396.5)" /></g><g id="sprotty_137" class="sprotty-edge" opacity="1"><path class="elkedge" d="M 901,363.5192307692308 L 1005.7328244274809,396.5" /><path class="edge arrow" d="M 0,0 L 8,-3 L 8,3 Z" transform="rotate(-162.52058471831904 1005.7328244274809 396.5) translate(1005.7328244274809 396.5)" /></g><g id="sprotty_140" class="sprotty-edge" opacity="1"><path class="elkedge" d="M 901,421.21153846153845 L 1001,423.8557692307692" /><path class="edge arrow" d="M 0,0 L 8,-3 L 8,3 Z" transform="rotate(-178.4853203219877 1001 423.8557692307692) translate(1001 423.8557692307692)" /></g><g id="sprotty_143" class="sprotty-edge" opacity="1"><path class="elkedge" d="M 901,478.90384615384613 L 1001,452.7019230769231" /><path class="edge arrow" d="M 0,0 L 8,-3 L 8,3 Z" transform="rotate(165.31746945380982 1001 452.7019230769231) translate(1001 452.7019230769231)" /></g><g id="sprotty_144" class="sprotty-edge" opacity="1"><path class="elkedge" d="M 896.1675126903554,245.5 L 1079.8832487309644,506.5" /><path class="edge arrow" d="M 0,0 L 8,-3 L 8,3 Z" transform="rotate(-125.14139675071024 1079.8832487309644 506.5) translate(1079.8832487309644 506.5)" /></g><g id="sprotty_145" class="sprotty-edge" opacity="1"><path class="elkedge" d="M 1101,346.5 L 1101,616.5" /><path class="edge arrow" d="M 0,0 L 8,-3 L 8,3 Z" transform="rotate(-90 1101 616.5) translate(1101 616.5)" /></g><g id="sprotty_146" class="sprotty-edge" opacity="1"><path class="elkedge" d="M 1101,566.5 L 1101,616.5" /><path class="edge arrow" d="M 0,0 L 8,-3 L 8,3 Z" transform="rotate(-90 1101 616.5) translate(1101 616.5)" /></g><g id="sprotty_147" class="sprotty-edge" opacity="1"><path class="elkedge" d="M 894.815712900097,245.5 L 1088.8952473326867,726.5" /><path class="edge arrow" d="M 0,0 L 8,-3 L 8,3 Z" transform="rotate(-111.9736695371 1088.8952473326867 726.5) translate(1088.8952473326867 726.5)" /></g><g id="sprotty_150" class="sprotty-edge" opacity="1"><path class="elkedge" d="M 1126.417515274949,396.5 L 1305.1873727087577,185.5" /><path class="edge arrow" d="M 0,0 L 8,-3 L 8,3 Z" transform="rotate(130.27295566323377 1305.1873727087577 185.5) translate(1305.1873727087577 185.5)" /></g><g id="sprotty_151" class="sprotty-edge" opacity="1"><path class="elkedge" d="M 683,361 L 885,361" /><path class="edge arrow" d="M 0,0 L 8,-3 L 8,3 Z" transform="rotate(180 885 361) translate(885 361)" /></g><g id="sprotty_152" class="sprotty-edge" opacity="1"><path class="elkedge" d="M 683,421 L 885,421" /><path class="edge arrow" d="M 0,0 L 8,-3 L 8,3 Z" transform="rotate(180 885 421) translate(885 421)" /></g><g id="sprotty_153" class="sprotty-edge" opacity="1"><path class="elkedge" d="M 0,1546.5 L 784,1546.5 L 784,241 L 885,241" /><path class="edge arrow" d="M 0,0 L 8,-3 L 8,3 Z" transform="rotate(180 885 241) translate(885 241)" /><g id="sprotty_153_j0" transform="translate(784, 1546.5)" opacity="1"><circle class="elkjunction" r="2" /></g></g><g id="sprotty_154" class="sprotty-edge" opacity="1"><path class="elkedge" d="M 0,1486.5 L 734,1486.5 L 734,181 L 885,181" /><path class="edge arrow" d="M 0,0 L 8,-3 L 8,3 Z" transform="rotate(180 885 181) translate(885 181)" /><g id="sprotty_154_j0" transform="translate(734, 1486.5)" opacity="1"><circle class="elkjunction" r="2" /></g></g><g id="sprotty_157" class="sprotty-edge" opacity="1"><path class="elkedge" d="M 1101,1462 L 1101,1302" /><path class="edge arrow" d="M 0,0 L 8,-3 L 8,3 Z" transform="rotate(90 1101 1302) translate(1101 1302)" /></g><g id="sprotty_160" class="sprotty-edge" opacity="1"><path class="elkedge" d="M 901,1247.4807692307693 L 1001,1259.7403846153845" /><path class="edge arrow" d="M 0,0 L 8,-3 L 8,3 Z" transform="rotate(-173.0106348436616 1001 1259.7403846153845) translate(1001 1259.7403846153845)" /></g><g id="sprotty_163" class="sprotty-edge" opacity="1"><path class="elkedge" d="M 901,1305.173076923077 L 1001,1288.5865384615386" /><path class="edge arrow" d="M 0,0 L 8,-3 L 8,3 Z" transform="rotate(170.58235285466577 1001 1288.5865384615386) translate(1001 1288.5865384615386)" /></g><g id="sprotty_166" class="sprotty-edge" opacity="1"><path class="elkedge" d="M 901,1362.8653846153845 L 1034.968253968254,1302" /><path class="edge arrow" d="M 0,0 L 8,-3 L 8,3 Z" transform="rotate(155.5664230096372 1034.968253968254 1302) translate(1034.968253968254 1302)" /></g><g id="sprotty_169" class="sprotty-edge" opacity="1"><path class="elkedge" d="M 899.0582524271845,1422 L 1060.611650485437,1302" /><path class="edge arrow" d="M 0,0 L 8,-3 L 8,3 Z" transform="rotate(143.39546107211748 1060.611650485437 1302) translate(1060.611650485437 1302)" /></g><g id="sprotty_172" class="sprotty-edge" opacity="1"><path class="elkedge" d="M 897.3636363636364,1482 L 1071.909090909091,1302" /><path class="edge arrow" d="M 0,0 L 8,-3 L 8,3 Z" transform="rotate(134.11859600341788 1071.909090909091 1302) translate(1071.909090909091 1302)" /></g><g id="sprotty_175" class="sprotty-edge" opacity="1"><path class="elkedge" d="M 896.4098360655738,1542 L 1078.2677595628415,1302" /><path class="edge arrow" d="M 0,0 L 8,-3 L 8,3 Z" transform="rotate(127.1527142373108 1078.2677595628415 1302) translate(1078.2677595628415 1302)" /></g><g id="sprotty_178" class="sprotty-edge" opacity="1"><path class="elkedge" d="M 895.7982062780269,1602 L 1082.3452914798206,1302" /><path class="edge arrow" d="M 0,0 L 8,-3 L 8,3 Z" transform="rotate(121.8743247375575 1082.3452914798206 1302) translate(1082.3452914798206 1302)" /></g><g id="sprotty_181" class="sprotty-edge" opacity="1"><path class="elkedge" d="M 895.3726235741445,1662 L 1085.1825095057034,1302" /><path class="edge arrow" d="M 0,0 L 8,-3 L 8,3 Z" transform="rotate(117.80042566034113 1085.1825095057034 1302) translate(1085.1825095057034 1302)" /></g><g id="sprotty_184" class="sprotty-edge" opacity="1"><path class="elkedge" d="M 895.059405940594,1722 L 1087.2706270627064,1302" /><path class="edge arrow" d="M 0,0 L 8,-3 L 8,3 Z" transform="rotate(114.59100050152601 1087.2706270627064 1302) translate(1087.2706270627064 1302)" /></g><g id="sprotty_187" class="sprotty-edge" opacity="1"><path class="elkedge" d="M 894.8192419825073,1782 L 1088.871720116618,1302" /><path class="edge arrow" d="M 0,0 L 8,-3 L 8,3 Z" transform="rotate(112.01230148180701 1088.871720116618 1302) translate(1088.871720116618 1302)" /></g><g id="sprotty_190" class="sprotty-edge" opacity="1"><path class="elkedge" d="M 894.6292428198434,1842 L 1090.1383812010445,1302" /><path class="edge arrow" d="M 0,0 L 8,-3 L 8,3 Z" transform="rotate(109.90298942454936 1090.1383812010445 1302) translate(1090.1383812010445 1302)" /></g><g id="sprotty_193" class="sprotty-edge" opacity="1"><path class="elkedge" d="M 894.4751773049645,1902 L 1091.1654846335698,1302" /><path class="edge arrow" d="M 0,0 L 8,-3 L 8,3 Z" transform="rotate(108.15003254253324 1091.1654846335698 1302) translate(1091.1654846335698 1302)" /></g><g id="sprotty_196" class="sprotty-edge" opacity="1"><path class="elkedge" d="M 894.3477321814255,1962 L 1092.0151187904967,1302" /><path class="edge arrow" d="M 0,0 L 8,-3 L 8,3 Z" transform="rotate(106.6727499528465 1092.0151187904967 1302) translate(1092.0151187904967 1302)" /></g><g id="sprotty_199" class="sprotty-edge" opacity="1"><path class="elkedge" d="M 894.2405566600397,2022 L 1092.7296222664015,1302" /><path class="edge arrow" d="M 0,0 L 8,-3 L 8,3 Z" transform="rotate(105.41242727826862 1092.7296222664015 1302) translate(1092.7296222664015 1302)" /></g><g id="sprotty_202" class="sprotty-edge" opacity="1"><path class="elkedge" d="M 894.1491712707183,2082 L 1093.3388581952117,1302" /><path class="edge arrow" d="M 0,0 L 8,-3 L 8,3 Z" transform="rotate(104.3255301445682 1093.3388581952117 1302) translate(1093.3388581952117 1302)" /></g><g id="sprotty_205" class="sprotty-edge" opacity="1"><path class="elkedge" d="M 894.0703259005146,2142 L 1093.8644939965695,1302" /><path class="edge arrow" d="M 0,0 L 8,-3 L 8,3 Z" transform="rotate(103.37921057793176 1093.8644939965695 1302) translate(1093.8644939965695 1302)" /></g><g id="sprotty_206" class="sprotty-edge" opacity="1"><path class="elkedge" d="M 1101,1462 L 1101,1412" /><path class="edge arrow" d="M 0,0 L 8,-3 L 8,3 Z" transform="rotate(90 1101 1412) translate(1101 1412)" /></g><g id="sprotty_207" class="sprotty-edge" opacity="1"><path class="elkedge" d="M 899.9077490774907,1251 L 1054.9483394833949,1352" /><path class="edge arrow" d="M 0,0 L 8,-3 L 8,3 Z" transform="rotate(-146.91807712723494 1054.9483394833949 1352) translate(1054.9483394833949 1352)" /></g><g id="sprotty_208" class="sprotty-edge" opacity="1"><path class="elkedge" d="M 901,1482.4807692307693 L 1041.287081339713,1412" /><path class="edge arrow" d="M 0,0 L 8,-3 L 8,3 Z" transform="rotate(153.32487061155223 1041.287081339713 1412) translate(1041.287081339713 1412)" /></g><g id="sprotty_209" class="sprotty-edge" opacity="1"><path class="elkedge" d="M 897.1692650334076,1602 L 1073.204899777283,1412" /><path class="edge arrow" d="M 0,0 L 8,-3 L 8,3 Z" transform="rotate(132.81520898842192 1073.204899777283 1412) translate(1073.204899777283 1412)" /></g><g id="sprotty_212" class="sprotty-edge" opacity="1"><path class="elkedge" d="M 894.1352334748333,2202 L 1093.4317768344451,1412" /><path class="edge arrow" d="M 0,0 L 8,-3 L 8,3 Z" transform="rotate(104.15880983725536 1093.4317768344451 1412) translate(1093.4317768344451 1412)" /></g><g id="sprotty_215" class="sprotty-edge" opacity="1"><path class="elkedge" d="M 894.0582249858677,2262 L 1093.9451667608819,1412" /><path class="edge arrow" d="M 0,0 L 8,-3 L 8,3 Z" transform="rotate(103.2332985925405 1093.9451667608819 1412) translate(1093.9451667608819 1412)" /></g><g id="sprotty_218" class="sprotty-edge" opacity="1"><path class="elkedge" d="M 894.1216297183943,2322 L 1093.5224685440385,1522" /><path class="edge arrow" d="M 0,0 L 8,-3 L 8,3 Z" transform="rotate(103.99584881901217 1093.5224685440385 1522) translate(1093.5224685440385 1522)" /></g><g id="sprotty_221" class="sprotty-edge" opacity="1"><path class="elkedge" d="M 1147.0516605166051,1352 L 1302.0922509225093,1251" /><path class="edge arrow" d="M 0,0 L 8,-3 L 8,3 Z" transform="rotate(146.91807712723494 1302.0922509225093 1251) translate(1302.0922509225093 1251)" /></g><g id="sprotty_224" class="sprotty-edge" opacity="1"><path class="elkedge" d="M 1201,1288.5865384615386 L 1301,1305.173076923077" /><path class="edge arrow" d="M 0,0 L 8,-3 L 8,3 Z" transform="rotate(-170.58235285466577 1301 1305.173076923077) translate(1301 1305.173076923077)" /></g><g id="sprotty_227" class="sprotty-edge" opacity="1"><path class="elkedge" d="M 1201,1374.548076923077 L 1301,1367.0961538461538" /><path class="edge arrow" d="M 0,0 L 8,-3 L 8,3 Z" transform="rotate(175.73823961931822 1301 1367.0961538461538) translate(1301 1367.0961538461538)" /></g><g id="sprotty_230" class="sprotty-edge" opacity="1"><path class="elkedge" d="M 1201,1403.3942307692307 L 1301,1424.7884615384614" /><path class="edge arrow" d="M 0,0 L 8,-3 L 8,3 Z" transform="rotate(-167.92405618105852 1301 1424.7884615384614) translate(1301 1424.7884615384614)" /></g><g id="sprotty_231" class="sprotty-edge" opacity="1"><path class="elkedge" d="M 683,361 L 834,361 L 834,1366.5 L 885,1366.5" /><path class="edge arrow" d="M 0,0 L 8,-3 L 8,3 Z" transform="rotate(180 885 1366.5) translate(885 1366.5)" /><g id="sprotty_231_j0" transform="translate(834, 361)" opacity="1"><circle class="elkjunction" r="2" /></g></g><g id="sprotty_232" class="sprotty-edge" opacity="1"><path class="elkedge" d="M 683,421 L 834,421 L 834,1366.5 L 885,1366.5" /><path class="edge arrow" d="M 0,0 L 8,-3 L 8,3 Z" transform="rotate(180 885 1366.5) translate(885 1366.5)" /><g id="sprotty_232_j0" transform="translate(834, 421)" opacity="1"><circle class="elkjunction" r="2" /></g></g><g id="sprotty_233" class="sprotty-edge" opacity="1"><path class="elkedge" d="M 0,1546.5 L 784,1546.5 L 784,2326.5 L 885,2326.5" /><path class="edge arrow" d="M 0,0 L 8,-3 L 8,3 Z" transform="rotate(180 885 2326.5) translate(885 2326.5)" /></g><g id="sprotty_234" class="sprotty-edge" opacity="1"><path class="elkedge" d="M 0,1486.5 L 885,1486.5" /><path class="edge arrow" d="M 0,0 L 8,-3 L 8,3 Z" transform="rotate(180 885 1486.5) translate(885 1486.5)" /></g><g id="sprotty_237" class="sprotty-edge" opacity="1"><path class="elkedge" d="M 683,361 L 834,361 L 834,54.5 L 1518,54.5" /><path class="edge arrow" d="M 0,0 L 8,-3 L 8,3 Z" transform="rotate(180 1518 54.5) translate(1518 54.5)" /></g><g id="sprotty_240" class="sprotty-edge" opacity="1"><path class="elkedge" d="M 683,421 L 834,421 L 834,54.5 L 1368,54.5 L 1368,114.5 L 1518,114.5" /><path class="edge arrow" d="M 0,0 L 8,-3 L 8,3 Z" transform="rotate(180 1518 114.5) translate(1518 114.5)" /><g id="sprotty_240_j0" transform="translate(1368, 54.5)" opacity="1"><circle class="elkjunction" r="2" /></g></g><g id="sprotty_243" class="sprotty-edge" opacity="1"><path class="elkedge" d="M 1317,1366.5 L 1518,1366.5" /><path class="edge arrow" d="M 0,0 L 8,-3 L 8,3 Z" transform="rotate(180 1518 1366.5) translate(1518 1366.5)" /></g><g id="sprotty_246" class="sprotty-edge" opacity="1"><path class="elkedge" d="M 1317,1426.5 L 1518,1426.5" /><path class="edge arrow" d="M 0,0 L 8,-3 L 8,3 Z" transform="rotate(180 1518 1426.5) translate(1518 1426.5)" /></g></g></g></svg>
